<svg xmlns="http://www.w3.org/2000/svg" fill="none" viewBox="0 0 1136 331"><defs/><mask id="a" width="1136" height="331" x="0" y="0" mask-type="alpha" maskUnits="userSpaceOnUse"><rect width="1136" height="331" fill="#5A2ADF" rx="30"/></mask><g mask="url(#a)"><path fill="url(#paint0_linear)" fill-opacity=".5" d="M580 307c0 193.3-156.7 350-350 350s-350-156.7-350-350S36.7-43 230-43s350 156.7 350 350zm-525 0c0 96.65 78.35 175 175 175s175-78.35 175-175-78.35-175-175-175S55 210.35 55 307z"/><path fill="url(#paint1_linear)" fill-opacity=".5" d="M428 355c0 193.3-156.7 350-350 350s-350-156.7-350-350S-115.3 5 78 5s350 156.7 350 350zm-525 0c0 96.65 78.35 175 175 175s175-78.35 175-175-78.35-175-175-175-175 78.35-175 175z"/><path fill="#FECDC8" d="M589.3 88h-82.9c-2 0-3.6-1.7-3.4-3.7 1.9-23.1 21.2-41.3 44.9-41.3s43 18.2 44.9 41.3c.1 2-1.5 3.7-3.5 3.7z"/><path fill="#A7EEEE" d="M1051 139H945.541c0-33.788-26.95-60.974-60.541-62.14V-28c91.788 1.165 166 75.344 166 167z"/><path fill="#26A0F5" d="M555.5 288v27h-.5c-8.8 0-16 7.2-16 16h-27c0-23.8 19.2-43 43-43h.5z"/></g><defs><linearGradient id="paint0_linear" x1="259" x2="259" y1="495" y2="-75" gradientUnits="userSpaceOnUse"><stop stop-color="#5A2ADF"/><stop offset=".403" stop-color="#693EE2" stop-opacity=".907"/><stop offset=".65" stop-color="#8F6EE9" stop-opacity=".679"/><stop offset="1" stop-color="#fff" stop-opacity="0"/></linearGradient><linearGradient id="paint1_linear" x1="107" x2="107" y1="543" y2="-27" gradientUnits="userSpaceOnUse"><stop stop-color="#5A2ADF"/><stop offset=".403" stop-color="#693EE2" stop-opacity=".907"/><stop offset=".65" stop-color="#8F6EE9" stop-opacity=".679"/><stop offset="1" stop-color="#fff" stop-opacity="0"/></linearGradient></defs></svg>