<svg fill="none" viewBox="0 0 29 569" xmlns="http://www.w3.org/2000/svg"><path d="m0 3a3 3 0 0 1 3-3h23a3 3 0 0 1 3 3v110a3 3 0 0 1 -3 3h-23a3 3 0 0 1 -3-3z" fill="#fecdc8"/><path d="m6.9 104.661h11.1v-2.835h-3.48v-1.11c0-1.725-.315-2.475-.96-3.24-.6-.705-1.785-1.17-2.91-1.17s-2.22.435-2.94 1.305c-.495.6-.81 1.365-.81 3.42zm2.49-2.835v-.93c0-.315 0-.78.165-1.17s.48-.705 1.14-.705 1.005.3 1.17.675.165.825.165 1.095v1.035zm.285-14.306v2.49h4.53c.855 0 1.74.195 1.74 1.44 0 1.125-.81 1.32-1.725 1.32h-4.545v2.49h5.205c1.125 0 3.405-.285 3.405-3.105 0-1.5-.765-2.025-1.17-2.31h.885v-2.325zm8.325-1.797v-2.385h-.885c.6-.345 1.17-1.245 1.17-2.415 0-2.115-1.5-4.2-4.5-4.2-3.15 0-4.395 2.355-4.395 4.095 0 .345 0 1.53.945 2.415h-3.435v2.49zm-4.17-6.51c1.095 0 2.13.81 2.13 2.085 0 1.245-.99 2.025-2.145 2.025-1.035 0-2.1-.75-2.1-2.07 0-1.23 1.035-2.04 2.1-2.04zm4.17-3.89v-2.49h-11.1v2.49zm-9.21-4.293v-2.49h-1.89v2.49zm9.21 0v-2.49h-8.325v2.49zm-3.165-10.172c.51.27 1.11.765 1.11 1.8 0 1.185-.9 1.98-2.115 1.98-.6 0-1.14-.195-1.53-.54a1.788 1.788 0 0 1 -.585-1.44c0-1.035.6-1.53 1.17-1.8v-2.52c-2.04.42-3.495 2.205-3.495 4.41 0 2.49 1.98 4.395 4.425 4.395 2.475 0 4.455-1.935 4.455-4.455 0-2.25-1.545-3.915-3.435-4.365zm-5.16-12.65v2.49h.885c-.51.33-1.17 1.095-1.17 2.46 0 2.22 1.71 4.184 4.44 4.184 2.385 0 4.455-1.545 4.455-4.185 0-.974-.375-2.01-1.185-2.46h.9v-2.49h-8.325zm4.185 6.644c-.945 0-2.145-.63-2.145-2.055 0-1.05.585-1.62 1.155-1.89.345-.165.72-.24 1.095-.21s.735.136 1.065.346c.51.315.93.855.93 1.74 0 1.5-1.32 2.07-2.085 2.07h-.015zm4.38-12.796c-.105-2.1-1.59-3.645-3.405-4.08v2.535c.51.27 1.11.765 1.11 1.8 0 1.185-.9 1.98-2.115 1.98-.585 0-1.11-.195-1.485-.54-.375-.36-.6-.855-.57-1.44 0-1.035.6-1.53 1.11-1.8v-2.52c-2.04.42-3.495 2.205-3.495 4.41 0 2.49 1.98 4.395 4.425 4.395 2.16 0 3.945-1.485 4.365-3.54l1.125.54.525-.975c-.12-.09-.225-.21-.225-.405 0-.285.195-.51.51-.51.33 0 .57.195.57.54s-.225.42-.42.495v1.14c1.335-.18 1.41-1.38 1.41-1.635 0-1.14-.81-1.68-1.56-1.68-.96 0-1.365.765-1.365 1.275 0 .12.015.225.045.315zm-4.41-5.06c2.04 0 4.425-1.455 4.425-4.485s-2.385-4.485-4.425-4.485-4.425 1.455-4.425 4.485 2.385 4.485 4.41 4.485zm0-2.49c-1.215 0-2.1-.915-2.1-1.995s.885-1.995 2.1-1.995 2.1.915 2.1 1.995-.885 1.995-2.085 1.995zm-7.65-4.215c.225.3.33.63.33 1.17 0 .42-.09.81-.195 1.215-.09.405-.18.81-.18 1.215 0 .645.315 1.275.525 1.65l1.695-.825c-.21-.345-.36-.645-.36-1.155 0-.225.09-.705.195-1.185.09-.48.195-.96.195-1.215 0-.645-.225-1.17-.555-1.695zm8.52-11.91c-1.53-.195-2.865.12-3.99 1.17-.825.78-1.32 1.875-1.32 3.15 0 2.535 2.145 4.365 4.47 4.365 2.475 0 4.41-2.025 4.41-4.41 0-.855-.255-1.68-.75-2.37-.48-.705-1.2-1.29-2.13-1.695v2.55c.435.3.78.72.78 1.515 0 .975-.585 1.815-1.47 1.92zm-1.89 6.165c-.39-.06-1.32-.57-1.32-1.86s.93-1.8 1.32-1.86zm-.795-13.613c-2.19.21-2.625 2.1-2.625 3.195 0 1.725 1.095 3.225 2.82 3.225 1.125 0 1.83-.9 2.175-1.98.615-1.59.69-2.205 1.26-2.205.405 0 .645.45.645.87 0 .105 0 .84-.765.945v2.475c2.19-.225 2.76-2.13 2.76-3.39 0-1.845-1.08-3.39-2.91-3.39-1.8 0-2.22 1.5-2.61 2.91-.195.66-.45 1.275-.825 1.275-.225 0-.555-.18-.555-.705 0-.735.45-.765.63-.78z" fill="#fb5746"/><path d="m0 214a3 3 0 0 1 3-3h23a3 3 0 0 1 3 3v52a3 3 0 0 1 -3 3h-23a3 3 0 0 1 -3-3z" fill="#fecdc8"/><path d="m13.845 249.844c.39.18 1.875.9 1.875 2.67 0 1.845-1.62 2.985-3.3 2.985-1.575 0-3.24-1.065-3.24-2.97 0-1.53 1.11-2.37 1.935-2.685v-2.97c-1.74.3-4.425 2.16-4.425 5.64 0 3.63 2.91 5.82 5.745 5.82 3 0 5.775-2.37 5.775-5.85 0-2.685-1.74-4.965-4.365-5.61zm4.155-4.335v-2.49h-4.62c-.21 0-.615 0-.975-.18-.36-.165-.675-.525-.675-1.215 0-.54.21-.87.525-1.08.315-.195.75-.255 1.215-.255h4.53v-2.49h-4.65c-1.065 0-2.055.12-2.775.57-.735.45-1.185 1.2-1.185 2.475 0 .885.3 1.725 1.05 2.175h-3.54v2.49zm-8.325-18.223v2.49h.885c-.51.33-1.17 1.095-1.17 2.46 0 2.22 1.71 4.185 4.44 4.185 2.385 0 4.455-1.545 4.455-4.185 0-.975-.375-2.01-1.185-2.46h.9v-2.49zm4.185 6.645c-.945 0-2.145-.63-2.145-2.055 0-1.05.585-1.62 1.155-1.89.345-.165.72-.24 1.095-.21s.735.135 1.065.345c.51.315.93.855.93 1.74 0 1.5-1.32 2.07-2.085 2.07zm4.14-8.956v-2.49h-6.435v-1.2h-1.89v1.2h-2.775v2.49h2.775v1.23h1.89v-1.23z" fill="#fb5746"/><path d="m0 324a3 3 0 0 1 3-3h23a3 3 0 0 1 3 3v52a3 3 0 0 1 -3 3h-23a3 3 0 0 1 -3-3z" fill="#fecdc8"/><path d="m6.9 367.84h11.1v-2.835h-3.48v-1.11c0-1.725-.315-2.475-.96-3.24-.6-.705-1.785-1.17-2.91-1.17s-2.22.435-2.94 1.305c-.495.6-.81 1.365-.81 3.42zm2.49-2.835v-.93c0-.315 0-.78.165-1.17s.48-.705 1.14-.705 1.005.3 1.17.675.165.825.165 1.095v1.035zm5.31-14.538c-1.53-.195-2.865.12-3.99 1.17-.825.78-1.32 1.875-1.32 3.15 0 2.535 2.145 4.365 4.47 4.365 2.475 0 4.41-2.025 4.41-4.41 0-.855-.255-1.68-.75-2.37-.48-.705-1.2-1.29-2.13-1.695v2.55c.435.3.78.72.78 1.515 0 .975-.585 1.815-1.47 1.92zm-1.89 6.165c-.39-.06-1.32-.57-1.32-1.86s.93-1.8 1.32-1.86zm5.19-7.612v-2.49h-4.47c-1.17 0-1.635-.6-1.635-1.875v-.09h-2.505c0 1.44.765 1.875 1.215 2.115h-.93v2.34zm-6.435-10.189h6.435v-2.49h-8.325v4.635h-.315c-.795 0-.795-.585-.795-1.05h-1.875c0 1.755.21 3.54 2.625 3.54h.36v.93h1.89v-.93h6.435v-2.49h-6.435zm-2.775-2.49h-1.89v2.49h1.89zm9.21-1.794v-2.49h-11.1v2.49z" fill="#fb5746"/><path d="m0 407a3 3 0 0 1 3-3h23a3 3 0 0 1 3 3v67a3 3 0 0 1 -3 3h-23a3 3 0 0 1 -3-3z" fill="#fecdc8"/><path d="m18 463.084-8.31.09 8.31-2.4v-1.875l-8.31-2.4 8.31.09v-2.61h-11.1v3.81l7.155 2.025-7.155 2.085v3.795h11.1zm-4.17-10.621c2.04 0 4.425-1.455 4.425-4.485s-2.385-4.485-4.425-4.485-4.425 1.455-4.425 4.485 2.385 4.485 4.41 4.485zm0-2.49c-1.215 0-2.1-.915-2.1-1.995s.885-1.995 2.1-1.995 2.1.915 2.1 1.995-.885 1.995-2.085 1.995zm4.17-7.89v-2.385h-.885c.6-.345 1.17-1.245 1.17-2.415 0-2.115-1.5-4.2-4.5-4.2-3.15 0-4.395 2.355-4.395 4.095 0 .345 0 1.53.945 2.415h-3.435v2.49zm-4.17-6.51c1.095 0 2.13.81 2.13 2.085 0 1.245-.99 2.025-2.145 2.025-1.035 0-2.1-.75-2.1-2.07 0-1.23 1.035-2.04 2.1-2.04zm-5.04-3.89v-2.49h-1.89v2.49zm9.21 0v-2.49h-8.325v2.49zm0-4.292v-2.49h-11.1v2.49zm-3.3-12.527c-1.53-.195-2.865.12-3.99 1.17-.825.78-1.32 1.875-1.32 3.15 0 2.535 2.145 4.365 4.47 4.365 2.475 0 4.41-2.025 4.41-4.41 0-.855-.255-1.68-.75-2.37-.48-.705-1.2-1.29-2.13-1.695v2.55c.435.3.78.72.78 1.515 0 .975-.585 1.815-1.47 1.92zm-1.89 6.165c-.39-.06-1.32-.57-1.32-1.86s.93-1.8 1.32-1.86z" fill="#fb5746"/><path d="m0 496a3 3 0 0 1 3-3h23a3 3 0 0 1 3 3v70a3 3 0 0 1 -3 3h-23a3 3 0 0 1 -3-3z" fill="#fecdc8"/><path d="m10.62 546.905c-2.145.615-3.93 2.895-3.93 5.55 0 3.27 2.4 5.94 5.715 5.94 3.195 0 5.82-2.535 5.82-5.895 0-1.83-.915-4.32-3.36-5.4-1.08-.48-2.385-.57-3.18-.51v6.585h2.265v-3.315c.54.15.99.465 1.29.915.315.45.495 1.035.495 1.74 0 1.395-1.005 3.045-3.33 3.045-2.19 0-3.225-1.635-3.225-3.03 0-.78.285-1.395.69-1.86.225-.24.48-.435.75-.585zm7.38-1.673v-2.49h-4.47c-1.17 0-1.635-.6-1.635-1.875v-.09h-2.505c0 1.44.765 1.875 1.215 2.115h-.93v2.34zm-8.325-13.321v2.49h4.53c.855 0 1.74.195 1.74 1.44 0 1.125-.81 1.32-1.725 1.32h-4.545v2.49h5.205c1.125 0 3.405-.285 3.405-3.105 0-1.5-.765-2.025-1.17-2.31h.885v-2.325zm11.1-1.796v-2.49h-3.525c.315-.3 1.035-1.005 1.035-2.505 0-2.37-1.965-4.05-4.365-4.05-1.935 0-4.53 1.11-4.53 4.065 0 1.275.57 2.1 1.2 2.64h-.915v2.34zm-6.93-6.555c1.05 0 2.115.78 2.115 2.085 0 .585-.24 1.11-.615 1.485s-.9.6-1.485.6c-.6 0-1.14-.225-1.515-.585-.39-.375-.63-.9-.63-1.5 0-1.365 1.14-2.085 2.115-2.085zm-.015-3.514c2.04 0 4.425-1.455 4.425-4.485s-2.385-4.485-4.425-4.485-4.425 1.455-4.425 4.485 2.385 4.485 4.41 4.485zm0-2.49c-1.215 0-2.1-.915-2.1-1.995s.885-1.995 2.1-1.995 2.1.915 2.1 1.995-.885 1.995-2.085 1.995zm-1.815-13.876c-2.19.21-2.625 2.1-2.625 3.195 0 1.725 1.095 3.225 2.82 3.225 1.125 0 1.83-.9 2.175-1.98.615-1.59.69-2.205 1.26-2.205.405 0 .645.45.645.87 0 .105 0 .84-.765.945v2.475c2.19-.225 2.76-2.13 2.76-3.39 0-1.845-1.08-3.39-2.91-3.39-1.8 0-2.22 1.5-2.61 2.91-.195.66-.45 1.275-.825 1.275-.225 0-.555-.18-.555-.705 0-.735.45-.765.63-.78z" fill="#fb5746"/></svg>