<svg xmlns="http://www.w3.org/2000/svg" fill="none" viewBox="0 0 1920 427"><defs/><path stroke="#A8D9FB" d="M838.647 375.807l-.003-.001c-70.102-24.072-107.088-100.155-82.573-170.221l-.472-.166.472.165 40.146-114.769.001-.002C820.302 20.747 896.855-16.222 966.528 7.85l114.822 40.126h.01c70.1 24.072 107.08 100.586 82.57 170.654l-40.15 114.769v.005c-23.65 70.062-100.2 107.032-170.306 82.529l-114.827-40.126z"/><path stroke="#7DC6F9" stroke-dasharray="1 10" stroke-linecap="round" stroke-linejoin="round" d="M-237 188.25c53.333-34.4 86.667-34.4 100 0 12.326 29.2 45.659 29.2 100 0 53.333-29.2 86.667-29.2 100 0 12.648 26.2 45.982 26.2 100 0 53.333-26.2 86.667-26.2 100 0 26.768 79 60.102 79 100 0 53.333-79 86.667-79 100 0 8.489 21.6 41.823 21.6 100 0 53.333-21.6 86.667-21.6 100 0 20.062 43.4 57 0 100 0"/><path stroke="#A8D9FB" d="M761 187.55c-53.333-61-86.667-61-100 0-15.344 79.4-48.678 79.4-100 0-53.333-79.4-86.667-79.4-100 0-8.833 25.8-42.166 25.8-100 0-53.333-25.8-86.667-25.8-100 0-21.292 56.6-54.625 56.6-100 0-53.333-56.6-86.667-56.6-100 0-12.32 48-45.654 48-100 0-53.333-48-86.667-48-100 0-16.222 68.8-49.556 68.8-100 0"/><circle cx="82.5" cy="148.5" r="2.5" fill="#A8D9FB"/><circle cx="90.5" cy="145.5" r="2.5" fill="#A8D9FB"/><circle cx="99.5" cy="145.5" r="2.5" fill="#A8D9FB"/><circle cx="762.5" cy="188.5" r="4" fill="#fff" stroke="#A8D9FB"/><circle cx="379.5" cy="195.5" r="2.5" fill="#A8D9FB"/><circle cx="386.5" cy="197.5" r="2.5" fill="#A8D9FB"/><circle cx="393.5" cy="199.5" r="2.5" fill="#A8D9FB"/><path stroke="#A8D9FB" d="M1172 188.5h748"/><circle cx="1422.5" cy="188.5" r="2.5" fill="#A8D9FB"/><circle cx="1429.5" cy="188.5" r="2.5" fill="#A8D9FB"/><circle cx="1436.5" cy="188.5" r="2.5" fill="#A8D9FB"/><circle cx="1782.5" cy="188.5" r="2.5" fill="#A8D9FB"/><circle cx="1789.5" cy="188.5" r="2.5" fill="#A8D9FB"/><circle cx="1796.5" cy="188.5" r="2.5" fill="#A8D9FB"/><circle cx="1169.5" cy="188.5" r="4" fill="#fff" stroke="#A8D9FB"/><path fill="#26A0F5" d="M1364.2 286l-15.45 22.146c7.22 5.034 9.01 15.058 3.97 22.276-5.03 7.218-15.06 9.004-22.27 3.97L1315 356.538c19.52 13.615 46.25 8.851 59.87-10.67 13.61-19.521 8.85-46.253-10.67-59.868z"/><path fill="#CCF0EE" d="M572.5 320h-27c0-8.7-6.9-15.7-15.5-16v-27c23.5.3 42.5 19.4 42.5 43z"/><path fill="#FB5746" d="M1254 16c-6.09 0-11 4.912-11 11s4.91 11 11 11 11-4.912 11-11-4.91-11-11-11zm0 15.093a4.103 4.103 0 01-4.09-4.093 4.103 4.103 0 014.09-4.093c2.25 0 4.09 1.842 4.09 4.093a4.103 4.103 0 01-4.09 4.093z"/><path fill="#FBCACE" d="M610.5 119a5.492 5.492 0 00-5.5 5.5c0 3.044 2.456 5.5 5.5 5.5s5.5-2.456 5.5-5.5-2.456-5.5-5.5-5.5zm0 7.547a2.053 2.053 0 01-2.047-2.047c0-1.126.921-2.047 2.047-2.047 1.126 0 2.047.921 2.047 2.047a2.053 2.053 0 01-2.047 2.047z"/><path fill="#FFE66B" d="M934.55 414.551l8.965-9.887a1.666 1.666 0 012.371-.115l9.886 8.965c.722.655.724 1.815-.018 2.459-5.85 5.231-14.614 5.659-20.972 1.053-.775-.598-.913-1.724-.232-2.475z"/><path fill="#5A2ADF" d="M816.377 26.302l-28.664 17.559c-.692.424-1.605.175-1.959-.56-4.236-8.389-1.418-18.77 6.777-23.79s18.723-2.814 24.273 4.77a1.43 1.43 0 01-.427 2.021z"/></svg>