<svg fill="none" viewBox="0 0 859 437" xmlns="http://www.w3.org/2000/svg" xmlns:xlink="http://www.w3.org/1999/xlink"><linearGradient id="a" gradientUnits="userSpaceOnUse" x1="427" x2="427" y1="70.5" y2="286"><stop offset="0" stop-color="#dde8f2"/><stop offset=".703" stop-color="#fafafa" stop-opacity=".179"/><stop offset="1" stop-color="#fff" stop-opacity="0"/></linearGradient><path d="m165.855 137.112c-1.728 3.744-8.64 18-25.632 18-17.712 0-28.656-15.552-28.656-31.68 0-15.12 10.224-31.104 28.512-31.104 14.688 0 22.752 10.656 25.776 18.576h28.512c-2.88-16.704-20.736-42.48-54.144-42.48-34.848 0-55.872 27.936-55.872 55.152 0 28.8 22.752 55.44 56.16 55.44 25.776 0 47.664-16.704 53.856-41.904zm37.877-.144c0 19.584 13.968 42.48 43.056 42.48s43.056-22.896 43.056-42.48-13.968-42.48-43.056-42.48-43.056 22.896-43.056 42.336zm23.904 0c0-11.664 8.784-20.16 19.152-20.16s19.152 8.496 19.152 20.16-8.784 20.16-19.152 20.16-19.152-8.496-19.152-20.016zm75.746 40.032h23.904v-42.48c0-2.448 0-6.768 1.728-10.656s5.04-7.056 11.808-7.056c6.048 0 8.928 3.024 10.512 6.768 1.44 3.6 1.44 7.776 1.44 9.936v43.488h23.904v-43.632c0-2.304 0-6.336 1.728-9.936 1.584-3.6 4.896-6.624 11.52-6.624 6.192 0 9.216 2.736 10.656 6.48 1.584 3.6 1.584 7.92 1.584 11.232v42.48h23.904v-43.632c0-17.712-1.152-23.04-8.64-30.96-6.48-6.768-15.408-8.064-21.024-8.064-8.352 0-14.832 3.024-19.584 7.344-2.304 2.016-4.176 4.464-5.76 6.912-1.44-2.736-3.024-4.896-4.752-6.624-5.904-6.192-12.816-7.632-18.288-7.632-8.352 0-13.968 2.736-17.424 5.616-3.456 2.736-4.896 5.616-4.896 5.616v-8.496h-22.32zm218.556-31.68c1.872-14.688-1.152-27.504-11.232-38.304-7.488-7.92-18-12.672-30.24-12.672-24.336 0-41.904 20.592-41.904 42.912 0 23.76 19.44 42.336 42.336 42.336 8.208 0 16.128-2.448 22.752-7.2 6.768-4.608 12.384-11.52 16.272-20.448h-24.48c-2.88 4.176-6.912 7.488-14.544 7.488-9.36 0-17.424-5.616-18.432-14.112zm-59.184-18.144c.576-3.744 5.472-12.672 17.856-12.672s17.28 8.928 17.856 12.672zm114.838 52.128c20.16-1.008 34.992-15.264 39.168-32.688h-24.336c-2.592 4.896-7.344 10.656-17.28 10.656-11.376 0-19.008-8.64-19.008-20.304 0-5.616 1.872-10.656 5.184-14.256 3.456-3.6 8.208-5.76 13.824-5.472 9.936 0 14.688 5.76 17.28 10.656h24.192c-4.032-19.584-21.168-33.552-42.336-33.552-23.904 0-42.192 19.008-42.192 42.48 0 20.736 14.256 37.872 33.984 41.904l-5.184 10.8 9.36 5.04c.864-1.152 2.016-2.16 3.888-2.16 2.736 0 4.896 1.872 4.896 4.896 0 3.168-1.872 5.472-5.184 5.472s-4.032-2.16-4.752-4.032h-10.944c1.728 12.816 13.248 13.536 15.696 13.536 10.944 0 16.128-7.776 16.128-14.976 0-9.216-7.344-13.104-12.24-13.104-1.152 0-2.16.144-3.024.432zm136.273-82.224h-23.904v8.496c-3.168-4.896-10.512-11.232-23.616-11.232-21.312 0-40.176 16.416-40.176 42.624 0 22.896 14.832 42.768 40.176 42.768 9.36 0 19.296-3.6 23.616-11.376v8.64h23.904zm-63.792 40.176c0-9.072 6.048-20.592 19.728-20.592 10.08 0 15.552 5.616 18.144 11.088 1.584 3.312 2.304 6.912 2.016 10.512s-1.296 7.056-3.312 10.224c-3.024 4.896-8.208 8.928-16.704 8.928-14.4 0-19.872-12.672-19.872-20.016zm81.087 39.744h23.904v-42.912c0-11.232 5.76-15.696 18-15.696h.864v-24.048c-13.824 0-18 7.344-20.304 11.664v-8.928h-22.464z" fill="url(#a)"/><path d="m.192 314.119 15.685-2.495c.794 4.995 5.442 8.377 10.466 7.755l2.465 15.502c-13.678 1.999-26.461-7.212-28.616-20.762z" fill="#ccf0ee"/><path d="m848 100c-6.088 0-11 4.912-11 11s4.912 11 11 11 11-4.912 11-11-4.912-11-11-11zm0 15.093a4.105 4.105 0 0 1 -4.093-4.093 4.105 4.105 0 0 1 4.093-4.093 4.105 4.105 0 0 1 4.093 4.093 4.105 4.105 0 0 1 -4.093 4.093z" fill="#00afe9"/><path d="m265.069 80.463 12.2 5.409a1.665 1.665 0 0 1 .854 2.214l-5.408 12.201c-.395.891-1.497 1.257-2.341.755-6.803-3.912-9.961-12.099-7.583-19.582.324-.923 1.35-1.408 2.278-.997z" fill="#ffe66b"/><path d="m451.872 361.671 29.628 15.879c.715.383.961 1.297.507 1.974-5.104 7.892-15.488 10.7-23.958 6.16-8.471-4.539-11.882-14.741-8.137-23.361a1.43 1.43 0 0 1 1.96-.652z" fill="#94c8e1"/><path d="m272.73 398.314v34.2c0 2.4-1.9 4.3-4.3 4.3h-34.2c-2.5 0-4.5-2.2-4.2-4.7 2.1-20 18-35.9 38-38.1 2.5-.2 4.7 1.7 4.7 4.3z" fill="#758bf5"/><path d="m824 393h-40.659c0-13.151-10.39-23.733-23.341-24.186v-40.814c35.388.453 64 29.326 64 65z" fill="#f3d7af"/><path d="m551.5 14v27h-.5c-8.8 0-16 7.2-16 16h-27c0-23.8 19.2-43 43-43z" fill="#ffe121"/><circle cx="94.5" cy="101.5" fill="#6fcf97" r="9.5"/><circle cx="232.5" cy="2.5" fill="#ffb74f" r="2.5"/><circle cx="649.5" cy="346.5" fill="#a2e5e0" r="2.5"/></svg>