<svg height="440" viewBox="0 0 858.65 839.89" xmlns="http://www.w3.org/2000/svg"><g transform="translate(-10.43 -7.99)"><path d="m133.08 592.08c-6.93-4.48-13.83-9-20.8-13.44a251 251 0 0 1 -26.64-19.7c-15.89-13.35-29.22-29.22-41.73-45.67-10.77-14.16-20.28-29.27-26.18-46.15a124.65 124.65 0 0 1 -7.11-34.65 127.51 127.51 0 0 1 8.57-54.16c6.26-15.92 15.78-30.08 26.45-43.39 9.12-11.38 18.59-22.46 29.76-31.92a269 269 0 0 1 48.34-32.83c11.08-5.87 22.08-12 33.52-17.08 13.82-6.18 28.1-11.35 42.11-17.13 9.43-3.89 18.62-8.4 28.15-12a320.73 320.73 0 0 0 33.73-15.56c16.77-8.73 32.86-18.63 47-31.28 13.75-12.49 25.1-27.12 34.75-43.06 12.35-20.42 23.79-41.41 37.24-61.16 3.42-5 6.85-10.49 11.26-14.37 6.5-5.73 11.1-13.32 18.5-18.14s14.54-10.55 22.76-14.19a139.54 139.54 0 0 1 28.14-9.49c5.9-1.22 11.75-3.13 17.75-4 11.18-1.71 22.35-2.94 33.66-3.71a293.94 293.94 0 0 1 29.69-.92q15.62.48 31.15 2.45c9.67 1.23 19.37 2.19 29 3.52a159.63 159.63 0 0 1 19.51 3.48c5 1.32 10.24.88 15 2.66 7.69 2.88 15.8 3.85 23.7 5.73 11.07 2.64 22.52 3.43 33.57 6.48a256.43 256.43 0 0 1 48.2 18.21c17.8 9 35.24 18.73 51.6 30.25 7.74 5.46 13.69 12.87 20.73 19.09a193.57 193.57 0 0 1 30 33.53 149.78 149.78 0 0 1 19.62 39.29c.86 2.6 2 4.85 1.46 8-.42 2.52 2.47 5.11 2.84 8.38 1.91 17.23.24 33.48-8.69 49-11.24 19.52-26.07 36.28-39.43 54.18-2.85 3.82-4.85 8.24-8.26 11.67-.66-1.74 1.92-3.63-.55-5.82-1 2.33-1.83 4.34-2.8 6.62l3.35-.8c-1.92 6-5.85 11.07-8.1 17a208 208 0 0 0 -12.13 47.82c-1.64 12.74-1.54 25.6-3.39 38.35-.59 4.08-.42 8.92-.54 13.38-.51 18.36-2.21 36.64-4.51 54.9a204.85 204.85 0 0 1 -6 29 241 241 0 0 1 -12.15 34 176.54 176.54 0 0 1 -21.18 35.26c-10.39 13.65-22.9 25.25-36.57 35.64a243.21 243.21 0 0 1 -28.92 19.14c-9.92 5.53-20.54 9.82-30.8 14.76-12.55 6-25.71 10.51-38.93 14.78-7.38 2.38-15 4.17-22.36 6.34-10 2.94-20.11 4.7-30.18 6.9-9.17 2-18.7 2.26-27.92 3.75-14.58 2.36-29.18 2.73-43.81 3.22-7 .23-13.93 1.33-21-.52-1.76-.46-4.57.32-6.93.32-19.59 0-39.06-2.14-58.44-4.42-6.76-.8-13.82-1.64-20.68-3.13-6.16-1.34-13-1.7-19.57-2.59 13.8-15.95 27.7-31.81 41.35-47.89 6.08-7.17 13.6-13.13 18.65-21.12 8-12.67 21.22-21 28.32-34.33 5.67.38 6.7-5 9.54-7.93 11.13-11.63 21.25-24.08 31.47-36.48 6.84-8.3 13.81-16.53 18.52-26.15 7.58-15.44 13.86-31.48 21.12-47.09 7.78-16.74 13.36-34.39 18.12-52.23 2.9-10.88 4.61-21.92 1.22-33.08 3.44-.55 5.62-3.05 7.93-5.26q15.81-15.1 31.48-30.34a4.11 4.11 0 0 1 3.46-1.23c4.84.16 9.46 1.79 14.18 2.09 16.21 1 31.76 6 47.88 7.58 12.11 1.21 23.78 5.11 35.59 8.1 3.84 1 9.48 1.62 10.74-1.91 2.23-6.25 5.54-12.45 5-19.62-.39-5.8-1-12 .53-17.4 2-7.15 2.22-14.41 3.43-21.58 1.35-8 1.56-16.23 2.67-24.26 1.92-13.9 2.45-27.88 3.8-41.81.55-5.76.2-11.61 1-17.33.35-2.59-2.83-4.08-1.69-5.69 2.56-3.64 1-7.47 1.45-11.16.51-3.87-1.49-7.74-.26-11.56 2.93-9.07 2-18.17.34-27.23-.33-1.79-3.1-4.63-3.66-3.72-2.24 3.62-5.61 1.94-8.36 2.8-8.23 2.54-16.48 5-24.66 7.69-12 3.9-23.71 8.59-35.84 11.78-17.9 4.71-34.9 12-52.65 17.15-16 4.62-31.55 10.74-47.32 16.11-23.76 8.09-47.43 16.46-71.35 24q-35.18 11.16-69.75 24c-6.86 2.54-13.69 5.7-20.54 7.67-11.35 3.27-22.1 8.11-33.43 11.18-3.12.85-4 4.73-7.34 4.35-5.3-.6-1.67 3.3-2.44 4.91-1.12 2.33 1.95 4.63 2.74 4.59 6.15-.32 11.4 2.6 17 4.06 3.32.85 7.56 3.14 9.81 1.91 3.54-1.94 4.6-.76 6.08 1.63.69 1.12 1.78.57 2.63.92 7.38 3.08 15.66 3.19 22.82 7-6.67 3.3-14.06 4.11-21.15 5.83-10.1 2.46-19.73 6.19-29.33 9.91-3.39 1.32-7.82 1.73-10 4.89s-5.33 4.38-8.4 6.12c-8 4.49-13.72 11.36-18.8 18.77a338.43 338.43 0 0 0 -20.49 35.2c-7.15 13.76-13.88 27.78-20.6 41.7-4.76 9.85-12 18.81-13.62 30.13a2.06 2.06 0 0 1 -1.51 1.81c-3.17.79-4.28 3.56-5.28 6a167.12 167.12 0 0 1 -11.53 22.53c-1.74 2.88-1.66 6.34-3.48 8.79-5.36 7.2-11.13 14.09-16.82 21-4.95 6-9.41 12.64-15.14 17.81-8.86 8-16.39 17.19-24.61 25.74-6.21 6.46-12.21 13.12-18.75 19.28-8.58 8.2-17.34 16.28-24.88 25.55zm347.92-2.08c-3.74-2.52-8.43-1.25-12.3-3s-6.55-.26-7.82 3.24c-1 2.84 1.52 3.91 3.69 5.2 6.47 3.83 9.11 8.8 7 13.29a74.78 74.78 0 0 0 -5.73 18.39c-.51 2.75.76 3 2.54 2.81a5.71 5.71 0 0 0 4.75-3.16c2.13-3.9 4.91-7.52 6.55-11.6 1.36-3.39 2.9-3.6 5.57-2 1.42.84 2.78 1.81 4.25 2.57 4 2.07 7.84 4.45 12.55 4.32 1 0 2.1.21 2.62-.92s-.48-1.64-1.18-2.36c-3.79-3.94-7.35-8.11-11.26-11.92-3.13-3-4.58-5.76-1.39-9.82 1.69-2.13 2.31-5.1 3.47-7.67.71-1.58 1.41-3.61 0-4.6a5.81 5.81 0 0 0 -5.55-1.09 13.44 13.44 0 0 0 -7.76 8.32zm-325.92-257.08c3.13 1.94 6.51 1 9.68.43 14.08-2.68 27.32 2.66 40.79 4.73 6.95 1.07 13.88 3.67 21.11 3.88 19.9.58 37.47-6.87 52.82-18.41 14.31-10.76 27.8-22.85 38.38-38.44-2.82.51-4.78-2.19-7.1-.94a71.28 71.28 0 0 0 -8.08 5.43c-4.61 3.34-8.93 7.22-13.64 10.21a304.84 304.84 0 0 1 -31.15 17.07c-17.67 8.49-35.92 11.2-55.26 7.43-11.5-2.24-22.8-5.87-34.6-6.26-21.25-.72-40.77 5.66-59.16 15.72-3.63 2-8.14 3.42-10.18 7.69 1.48 1.29 3.16-1 4.23.76a1.45 1.45 0 0 1 -.32 1.33c-1.4.47-3 1-4.28.1-1.87-1.39-2.91-.12-4.38.7-4.84 2.69-7.66 7.37-10.85 11.49-1.78 2.3-3.56 6.33-.06 9 3.2 2.44 5.81.63 8.65-1.86a105.89 105.89 0 0 1 35.64-21.17 189.1 189.1 0 0 1 23.2-6.81c1.38-.28 4 1.38 4.25-1.78zm36 46.18c5.73-1 12.13.64 18.59 2.26s13.06 4.37 19.86 3.48c9.45-1.24 18.1-5.1 26.33-9.92 3.1-1.82 5.56-4.61 8.57-6.24 12.61-6.81 22.69-16.79 33.57-25.76.52-.44 1.55-.92 1.13-1.94s-1.25-1-2.11-1c-5.06-.13-10.22-1.69-14.82 2.29-2 1.76-4.9 2.55-7.38 3.79-13.57 6.79-28 11.51-42.09 16.89-7.64 2.91-15.12 4.33-23.05 2.42-13.92-3.35-27.78-5.24-42.18-2.51-15.25 2.89-27.54 9.87-36.37 22.69-1 1.5-1.91 3 .36 4.64a13.75 13.75 0 0 0 15.72.1c4.23-3 8.23-5.75 13.66-7.13 9.71-2.43 19.23-4.63 30.25-4.06zm119.24-128c-3.57 1.71-6-2.81-9.05-1.49a52.8 52.8 0 0 0 -11.19 6.19c-11 8.48-23.4 14.3-36.06 19.77-13.75 5.94-28 5.57-41.72 1.9-6.64-1.77-11.7-1.8-17.08 1.77-1.43 1-3.88 1.78-2.89 4 .72 1.6 2.95.63 4.52.8 4.83.53 9.79-1.13 14.52 1.1 7.28 3.44 14.28 7.8 22.69 7.94 3.06.05 4.62 4.26 8.4 2.51 6-2.76 12.69-2.77 19-5.5 10-4.35 19.53-8.56 26.92-16.86 6.82-7.69 15.37-13.59 21.98-22.16zm376.58 219.9c-6.36.32-10.29 3.86-12.91 9.42-.85 1.78-1.66 3.56-.34 5.05a5 5 0 0 0 6 1.09 14.62 14.62 0 0 0 3.31-2.19c6.19-5.07 9.8-4.38 13.56 2.65.39.74.71 1.51 1.15 2.22 1.71 2.79 1.88 5.06-1.37 7.09-6 3.73-10.35 9.24-14.22 14.88-6.53 9.53-9.75 20.33-10.38 32-.16 2.92 0 4.93 2.95 5.75 3.13.86 4.26-1 5.22-3.68 3.65-10.39 7.66-20.81 16-28.32 6.27-5.61 12.69-11 18.16-17.41 2.5-2.95 3.45-5.65 2.13-9.49-3.24-9.51-17.74-19.06-29.26-19.06zm70.24-110.53c1.31-4.66-3.57-4.77-6.41-6.47-4.72-2.83-6.66-2.26-9.45 2.45a24.74 24.74 0 0 0 -1.16 2.74 19.07 19.07 0 0 1 -7.81 8.7 160.9 160.9 0 0 1 -19.54 9.39c-5.85 2.48-11.7 5.06-16.86 8.9-1.23.92-1.76 2.75-.52 3.18 2.52.87 4.52 3.69 7.71 2.4 5.79-2.35 12.13-1.19 18-2.9 7.82-2.28 16.39-2.41 23-8 6.26-5.28 12.56-10.5 13.04-20.39zm-398.68-174.21c.7 1.59-1.55 4.87.34 5.5 3.58 1.2 4.29-2.68 5.73-4.93.34-.52.2-1.33.5-1.9 1.76-3.31 3.44-6.6 6.37-9.19 6.41-5.68 13.06-11.11 17.65-18.6 2.73-4.45 3.61-9 1.52-13.59-1.57-3.49-4.65-6.1-7.83-8.14-7.88-5-16.15-8.43-25.77-4.64-2 .78-3.18 2.37-4.94 3.27 2.59 4.39-2.33 3.53-3.66 5.17s-2 3.5-.19 5.25 3.46 1.13 4.53-.76c1.8-3.18 5.18-4.06 8-5.75 6.49-3.93 12.7-2.16 17.35 4.66 2.55 3.72.56 10.31-4.35 14.28-9.33 7.5-18.64 14.96-15.25 29.37zm427.44-18.66c.13-4.33-.77-7.7.72-10.76a42.31 42.31 0 0 1 14.67-17c5.66-3.76 10.66-8.26 10.41-15.28s-3.45-13.83-9.86-17.3c-8.43-4.56-17.75-2.85-26.81-1.45a7.27 7.27 0 0 0 -5 3.85c-1.39 2.35-2.89 6.15-1.17 7.7a35.27 35.27 0 0 0 8.61 5.14c.78.36 2.09-1.39 2.42-2.78.37-1.61.78-3.21 1.06-4.83.2-1.16.77-2 1.92-1.69 3 .94 5.85-.83 8.81-.22 2.09.43 4.41.48 5.81 2.34 5.21 6.91 2.82 15.45-5.41 18.71-6.67 2.64-14.28 15.17-11.45 22.86 1.26 3.42 2.07 6.89 5.27 10.71zm-252-18.14c-3.9-1.35-5.68-6.24-9-1-.33.51-1.14.5-1.82.1-2.95-1.73-6-.1-8.69.45a250.77 250.77 0 0 0 -38.67 11.64c-3.6 1.4-6.55 4-9.93 5.47-7 3-11.23 8.24-14.22 14.79a5.37 5.37 0 0 0 1.91 6.57c2 1.52 4.21 1.19 6.58-.77 4-3.34 8.74-5.85 13-8.87 3.92-2.75 7-6.26 11.62-8.55a323.7 323.7 0 0 1 49.19-19.83zm72.58 239c-5.37-4.84-9.78-7.8-12.08-8.19-1.36-.24-2.59-.4-3.48 1.08-.72 1.22-.24 1.9.41 3 1.38 2.42 2.36 4.88 4.67 6.86 5.06 4.33 5.2 9.58 2.28 15.49-1.65 3.36-2.32 7.25-3.12 11-.31 1.44-.87 3.45 1.34 4.28 1.65.62 3 1.38 5-.22 1.55-1.29 3-2.38 3.83-4.25 1.31-2.87 2.84-5.64 4.22-8.49.85-1.76 1.74-2.2 3.34-.69 4.47 4.23 10.51 6.57 14 12.06 1 1.55 3.45.94 5 0 1.9-1.2 0-2.12-.55-3.18-2.88-5.66-7.26-10-11.83-14.28-2.78-2.61-5.47-5.63-2.61-10.07a27.7 27.7 0 0 0 3-6.83c.66-2.18 2.85-5-.48-6.55a6.45 6.45 0 0 0 -8.06 2.13c-1.83 2.14-3.36 4.53-4.91 6.83zm-119.48-241.39c-2.29-3.3-4.37-3.5-7.88-2.86-5.24.95-9.68 4.76-15.34 4-1-.15-2.19.64-3.27 1a111.37 111.37 0 0 0 -28.28 16.29c-4.45 3.43-8.21 7.83-9.85 13.42s1.14 8.83 9.56 11c4.49 1.15 5.91-2.45 7-5.77 4.86-15 17-22.88 29.71-30.08 5.66-3.2 11.91-5.07 18.35-7zm194 225.41a9.28 9.28 0 0 0 7.82 2.45 67 67 0 0 0 26.18-7.65c10.22-5.46 17.93-12.95 18.89-25.33.17-2.25.18-4.72-3.25-5.06-1.19-.12-2.31-1.15-3.42-1.85-5.12-3.21-6-2.63-8.3 3.16-2.16 5.43-4 11-8.63 15.32-8.64 7.93-19.06 12.88-29.29 18.96zm112.38-102.77c2.26-.5 1.84-2.12 1.25-3.11a33.46 33.46 0 0 0 -4.18-5.53c-12.11-13.27-11.19-8.61-4.27-23.49.64-1.39 1.56-3 .07-4.05-1.2-.83-2.69-1.75-4.58-.74-2.78 1.5-5.54 2.9-7.37 5.63-.59.88-1.35 2.85-2.36 1.79-3.43-3.62-6.42-7.58-12.05-3.41-.28.21-1.71-2.09-3.07-.37s-.08 2.76.85 3.91c2.59 3.22 5.2 6.42 7.79 9.63 1 1.25 2.72 2.43 1.64 4.25-3.7 6.27-4.69 13.49-7.32 20.13-.65 1.64-1.72 3.62.66 4.73s3.48-1.16 4.12-2.51c2.07-4.35 5.48-7.82 7.45-12.27 2.61-5.93 2.87-5.73 8.78-2.93 3.46 1.63 6.25 4.19 9.36 6.3 1.09.74 2.22 1.41 3.23 2.04zm-659.63 258.4c-6.61-5.53-10.37-13.42-17.15-18.67-1.38-1.07-3.51-2.2-2.29-4.66 1.85-3.71 2.84-7.75 4.36-11.55 1-2.51 1.84-4.62-.71-5.9a4.42 4.42 0 0 0 -6.14 2.72c-.88 2.58-3 4.23-3.83 6.68-1.25 3.77-3.23 3.28-5.15.77-2.17-2.85-5.07-4.81-7.9-6.77-1.22-.84-3.35-2.85-5.11-.27-1.67 2.42-.57 4.16 1.27 6.07 3.92 4.05 7.58 8.34 11.31 12.57a2.46 2.46 0 0 1 .14 2.82c-3.21 6.91-1 15-5.09 21.89 5.43.72 7.51-2.46 8.4-6.36a56 56 0 0 1 4.47-11.86c6.65 2.93 11.06 8.59 16.93 12.27 2.15 1.36 3.9 2.21 6.49.25zm-9.75-77.75c.11-1.58 0-3.34-1.81-3.63-6-1-11-7-18-2.88a13 13 0 0 0 -6.1 8.32c-.86 3.25 2.1 4.46 4.48 5.67a40.83 40.83 0 0 0 7.38 2.73c7.35 2.03 13.92-2.66 14.05-10.21zm432-386.19c.07-1.07.3-3.4-1.87-4.32-3.76-1.61-7.91-2.08-11.84-3.25-1.66-.5-4.39 1.69-6.3 3.12-2.7 2-4.93 4.92-4.53 8.29.36 3 3.42 4.22 6.22 5 1.74.51 3.52.89 5.23 1.49 6.39 2.27 13.03-2.5 13.09-10.33zm8 500.7c-.15-2-.19-5.07-3.44-5.69-3.48-.65-6.75-1.45-9.63-3.58a2.94 2.94 0 0 0 -3.3-.24c-3.81 2.3-5.38 6.07-6.35 10.16-.79 3.4 2.14 4.53 4 6.2 2.21 2 5.14 2 7.89 2.49 5.91 1.15 10.83-2.69 10.83-9.34zm30-499.11c.38-2.52-1.33-4-3.56-4.34-3-.44-5.67-1.67-8.49-2.55-3.52-1.1-8.87 2.13-10.55 6.57-1.59 4.22 1.21 6 4.45 7.48a34.79 34.79 0 0 0 7.06 2.25c6.24 1.33 11.23-2.7 11.09-9.41zm-447.91 381.24a9.84 9.84 0 0 0 -10.19 8.41c-.71 3.82 2.58 4.89 5.19 6.08a37.16 37.16 0 0 0 6.54 2.17c4.52 1.09 10.87-3.8 11.36-8.5a3.8 3.8 0 0 0 -2.1-4.13c-3.89-1.66-7.71-3.66-10.8-4.03zm48.9 12.4c.07-2.13-.15-4.34-2.88-4.3-3.21.05-5.73-1.49-8.42-2.77-5.21-2.49-7.46-1.78-10.62 4.26-2 3.73.72 6.34 3.56 8.1s5.67 3.26 9.22 3.41c4.62.22 9.23-3.84 9.15-8.69zm425.62 75.8a12.24 12.24 0 0 0 8.87-7c.9-2 .61-6.22-2.7-6.92-3.12-.67-5.91-2-8.88-2.89a5.93 5.93 0 0 0 -7 2.38c-1.65 2.25-3.73 4.23-2.44 7.92 2.21 6.31 7.87 4.65 12.15 6.52zm-33 19.76c5.89 1 7.25-4.13 10.16-6.87 2.16-2 1.18-4.8-1.19-5.77a91.51 91.51 0 0 0 -13.16-4c-3.51-.86.12 3-2.09 3.43-6.1 1.22-2.59 6.32-3 9.32-.41 3.25 4.13 2.82 6.59 3.78a7.07 7.07 0 0 0 2.72.15zm30.2-476.34a34.28 34.28 0 0 0 3.86-.72c4.1-1.34 8-9.33 5.27-11.06-4-2.51-8.68-3.78-13.09-5.54-.21-.09-.85.24-.84.36.17 4-4.18 4.46-5.52 7.28a4.62 4.62 0 0 0 1.19 5.9 23.87 23.87 0 0 0 9.16 3.79zm58.6 500.38c3.25-.05 6.67-4 6.58-7.51-.06-2-6.57-6.1-9.92-6.21-2.42-.07-6 4.56-5.94 7.71.06 3.87 3.42 6.01 9.28 6.01zm-319.72-372.74a9.16 9.16 0 0 0 -3.19 7.28c.12 5 4.9 5.07 8.31 6.14 2.23.69 5.95-3.32 6.06-6.06.13-2.98-5.61-7.08-11.18-7.36zm434.39-19.52c-.36-.61-.56-1.36-.84-1.38-3.12-.31-5.25-2.67-8-3.72-.62-.24-1.5-.61-1.8.08-.93 2.15-4 3.72-2.73 6.41 1.56 3.34 5.31 4.45 8.38 4.28 2.34-.14 3.45-3.59 4.99-5.67z" fill="#fdccc7"/><path d="m546.2 361.6c3.39 11.16 1.68 22.2-1.22 33.08-4.76 17.84-10.34 35.49-18.12 52.23-7.26 15.61-13.54 31.65-21.12 47.09-4.71 9.62-11.68 17.85-18.52 26.15-10.22 12.4-20.34 24.85-31.43 36.48-2.84 3-3.87 8.31-9.54 7.93-7.1 13.37-20.32 21.66-28.32 34.33-5.05 8-12.57 14-18.65 21.12-13.65 16.08-27.55 31.94-41.35 47.89-6.12 5.59-10.53 12.56-15.54 19.06-4.51 5.85-8.09 12.28-13.11 17.92-4.61 5.19-8.44 11.41-12.59 17.19-1.17 1.64-2.5 3.28-3.76 4.78-13.65 16.27-24.7 34.48-38.6 50.6-8.36 9.68-16.15 19.9-24.82 29.3-8.13 8.82-17.16 16.81-25.79 25.17-4.68 4.54-8.32 10.05-13.38 14.29-1.57 1.32-2.79 2.42-4.51 1-1.91-1.57-.25-3 .7-4.25 3.06-4.06 7.27-7.64 9.08-12.18 3.26-8.17 9.48-13.9 14.74-20.32 11-13.4 22.64-26.24 34-39.33 1.28-1.49 2.37-3.16 3.55-4.74 10.84-8.94 19-20.22 27.12-31.47a212.25 212.25 0 0 0 27.24-33.8c.62-.22 1.62-.27 1.79-.68 2.11-4.9 5.18-8.94 9.92-11.59a2.11 2.11 0 0 0 1-2.6c-.93-2.32.86-3 1.74-4.53 2.17-3.78 5.81-6.11 7.94-9.81 3.36-5.84 6.47-11.83 11.62-16.56a22.32 22.32 0 0 0 4-5.41c1.7-3.1.95-4-2-4.86-9.12-2.56-17.25-7.29-25.54-11.69a244.62 244.62 0 0 1 -23.73-14.39c-3-2.73-6-5.52-9.11-8.15-1.78-1.51-3.32-2.89-3.55-5.51s-3.24-1.62-4.89-3.1c-5.95-5.34-11.42-11.12-17-16.81-6.27-6.41-12.32-13-18.46-19.58-12.79-15.78-23.17-33.17-33.6-51.3l-21.39 25.17c-3.07.24-3.48 3.31-5.07 5-11.24 12.06-21.48 25.08-34.4 35.49-8.18 7.6-16.09 15.47-23.54 23.81-8.84 7.5-18.1 14.52-26.12 23-5.49 3.12-9.66 7.82-14.34 11.92q-13.19 11.55-27.1 22.21c-7.55 5.74-15.43 11.14-21.43 18.75-2.06-.25-4 4-6.25.22-.2-.32-1.52 0-1 1.34 1 2.5-.53 4.15-2.28 5.47-4.36 3.29-8.75 6.53-13.26 9.61-1.56 1.06-3.9 1.25-5-.24-1.26-1.67.65-3.17 1.91-3.95 5-3.07 9.66-6.34 12.93-11.48 1.47-2.32 3.3-5.17 7-4.93.67 0 .92-.64 1.07-1.38.65-3.07 1.61-5.93 5.71-3.92.8.39 1.22.23 1.62-.31.53-.69.25-1.05-.56-1.35-2.71-1-.88-2.21 0-3.07 6.43-6.1 12.43-12.6 19.19-18.45 7.64-6.62 15.28-13.37 22.69-20.32 8.68-8.14 18.11-15.48 27.14-23.25 4.48-3.84 8.79-7.86 13.18-11.81 7.54-9.27 16.3-17.35 25-25.52 6.54-6.16 12.54-12.82 18.75-19.28 8.22-8.55 15.75-17.74 24.61-25.74 5.73-5.17 10.19-11.78 15.14-17.81 5.69-6.94 11.46-13.83 16.82-21 1.82-2.45 1.74-5.91 3.48-8.79a167.12 167.12 0 0 0 11.53-22.53c1-2.45 2.11-5.22 5.28-6a2.06 2.06 0 0 0 1.51-1.81c1.61-11.32 8.86-20.28 13.62-30.13 6.72-13.92 13.45-27.94 20.6-41.7a338.43 338.43 0 0 1 20.49-35.2c5.08-7.41 10.84-14.28 18.8-18.77 3.07-1.74 6.19-2.88 8.4-6.12s6.59-3.57 10-4.89c9.6-3.72 19.23-7.45 29.33-9.91 7.09-1.72 14.48-2.53 21.15-5.83 4 .12 7.7 1.55 11.44 2.78-9.08 2.85-18.31 5.31-27.22 8.65-13.85 5.2-28.24 9.05-40.76 17.6-7.64 5.21-14.91 10.88-20.35 18.11-11.72 15.57-19.66 33.38-28.23 50.78-5.48 11.13-10.75 22.36-16.32 33.44-3.2 6.37-7 12.45-10.2 18.8-11.07 21.74-20 44.62-34.62 64.46-1.31 1.79-1.39 3.05-.1 5.25 4.49 7.6 9.49 14.85 14.17 22.3 8.39 13.38 18.35 25.59 28.62 37.33a206.3 206.3 0 0 0 41.64 36.81c15.94 10.5 32.68 19.48 49.34 28.68 2.66 1.47 3.68 1 5.09-1.65 4.07-7.75 9.16-14.85 16.2-20.19 11.69-8.87 21.24-19.65 30-31.3a144.46 144.46 0 0 1 17.63-20c7.5-6.81 13.55-14.89 20.94-21.82 9.35-8.78 16.11-20 24.86-29.51a81.63 81.63 0 0 0 10.42-14.35 282.28 282.28 0 0 0 15.31-30.76c3.87-9 8.93-17.53 12.39-26.75 1.23-3.29 2.35-6.63 3.4-10 .6-1.89 3.57-1.47 3.1-5.18-.57-4.58 2.09-9.41 4.11-14 2.69-6 1.86-13.31 6.53-18.68-2.13-3.62.2-7.5.59-10.77.85-7.25-.27-13.89-1.43-20.81-.61-3.6-1.76-3.17-4.79-2.93-6.18.49-9.58 4.84-13.45 8.37-11.18 10.29-19.44 22.94-28.91 34.57-8.71 10.72-17.44 21.36-26.56 31.72-1.6 1.81-2.35 4.39-4.62 5.56-5.32 2.74-9.56 7-15.52 9.12-12.91 4.58-25.33 10.4-39.62 8.62-6.11-.76-12.43.07-18.4-2.93a40.45 40.45 0 0 0 11.72-2.37 1.57 1.57 0 0 1 1.41.21c.79 1 1.4 1.81 3 1.8 2.35 0-1.53-2.13.91-2.08 2.1 0 4.19-.72 6.3-.94 1.33-.14 2.52-.51 2.3-1.95-1-6.69 5-11.31 4.78-18a55.06 55.06 0 0 1 3.86-20.64c1.83-4.93 1.86-10.34 4.38-15.23a93.42 93.42 0 0 0 5.23-13.4c2.31-6.92 3.13-14.38 5.76-21.29.95-2.5 1.65-5.12 4.37-6.83 9.24-5.82 18.55-11.43 29.05-14.73 1.71 2.07 1.39 4.83 2.46 7.12-5.6 2.68-11 5.89-16.84 7.87a12.26 12.26 0 0 0 -8.17 8c-6.71 20.55-14.73 40.7-19.4 61.9-1.76 8-3.83 15.87-5.92 24.47a165.77 165.77 0 0 0 21.83-8.85 46.4 46.4 0 0 0 14.1-11c4.34-5.06 8-10.79 12.52-15.79 6.67-7.44 13.38-14.8 18.22-23.63 6-3.47 9-9.24 12-15.11l.87-.95-.1.1c2.36-3.09 4.79-6.13 7.07-9.28 5.31-7.33 11-13.95 21.08-14.33 6.68-.26 11.95 3.6 17.87 5.54a21.2 21.2 0 0 1 3.26 8.62z" fill="#552dde"/><g fill="#9b81ea"><path d="m295 734.93c-8.16 11.25-16.28 22.53-27.12 31.47a30.16 30.16 0 0 1 -25.34 1.23c-11.12-4.24-22.44-9-29.23-19.39-4.71-7.17-6.17-15.65-5.18-24.68.88-8 2-15.53 7.84-21.52 4-4.12 8.05-8.15 13.41-10.66 5.64-2.63 10.92-6 17.1-7.44 5.11-1.22 10.31-1.93 15.1.15 8.5 3.7 17 7.09 24.16 13.76s9.28 14.56 10.13 23.3c.46 4.54.82 9.28-.87 13.78z"/><path d="m86 730c1-12.44 8.67-20.78 18.09-27.49a45.22 45.22 0 0 1 16.91-7.68c7.67-1.62 14.45.87 21.12 3.23 10.12 3.57 19.1 9.41 23.15 19.92 1.59 4.13 6.16 8.13 2.86 13.47 5 8 .5 15.36-2.15 22.54-3 8-9 13.48-17.33 16.08-2.06.65-2.7 2.59-4.47 3.58-8.34 4.7-16.76 3.73-25.18.74-6.2-2.2-11.91-5.5-17.68-8.65-8.79-4.74-14.24-12.41-15.66-21.74-.65-4.23-2.5-9.49.36-14a1.69 1.69 0 0 0 .19.38s.17 0 .26 0z"/><path d="m138 604c7.45-8.34 15.36-16.21 23.54-23.81a40.46 40.46 0 0 1 26.76-.07c14.66 5.1 27.78 12.52 31.33 29.56 1.37 6.56-1.46 12.66-3.1 18.82a63.71 63.71 0 0 1 -6.15 14.55c-.77 1.39-1.24 3.32-3.61 2.18a1.33 1.33 0 0 0 -1.21.39c-2.78 10.14-11 12.78-19.81 13.22-9.93.49-18.74-4-27.15-8.86a87.81 87.81 0 0 1 -10.69-6.9c-9.59-7.6-17.56-23-10-37.11a4.9 4.9 0 0 0 .09-1.97z"/><path d="m309 619a244.62 244.62 0 0 0 23.66 14.4c8.29 4.4 16.42 9.13 25.54 11.69 3 .84 3.71 1.76 2 4.86a22.32 22.32 0 0 1 -4 5.41c-5.15 4.73-8.26 10.72-11.62 16.56-2.13 3.7-5.77 6-7.94 9.81-.88 1.55-2.67 2.21-1.74 4.53a2.11 2.11 0 0 1 -1 2.6c-4.74 2.65-7.81 6.69-9.92 11.59-.17.41-1.17.46-1.79.68-11.17-6.87-18.67-16.49-23.67-28.72-3.6-8.77-5.34-17.33-3.57-26.56 2.05-10.32 5.27-20.04 14.05-26.85z"/><path d="m154 810.24c1.16-18.23 12-31.43 28.74-31 19.74.5 32.28 10.8 33.42 27.55.51 7.55-.46 14.45-5.69 20.17-6.12 6.69-13.85 12.51-22.43 13.32-18.28 1.72-35.38-14.12-34.04-30.04z"/><path d="m49 679.9c6-7.61 13.88-13 21.43-18.77q13.93-10.65 27.1-22.21c4.68-4.1 8.85-8.8 14.34-11.92 4.75 2.13 7.17 5.84 8.39 10.89 1 4.19 3.67 7.75 3.87 12.45.72 17-7.07 29.26-21.65 36.6-17.59 8.87-35.19 8.82-51.48-3.94-1.18-.85-2.08-1.59-2-3.1z"/><path d="m201 539.72 21.39-25.17c10.43 18.13 20.81 35.52 33.6 51.3-.39 2-2.32 2.35-3.74 2.92-9.91 4-19.53 6.05-29.9.15-11.76-6.68-19.2-15.83-21.35-29.2z"/></g><path d="m496.18 371.9c-2.93 5.87-6 11.64-12 15.11-1.33-4.43-3.51-8.53-5.08-12.84-3.66-10.07-8.74-19.62-11.26-30.12-1.07-2.29-.75-5.05-2.46-7.12-2-7.31-3.35-14.9-6.23-21.84-2.28-5.48-4.57-12.14-12-13-5.81-.71-11.43-2.24-17.17-3.2a60.46 60.46 0 0 0 -12.8-2.89c-2.4-2-5.35-1.91-8.21-2.21-3.74-1.23-7.43-2.66-11.44-2.78-7.16-3.77-15.44-3.88-22.82-7-.85-.35-1.94.2-2.63-.92-1.48-2.39-2.54-3.57-6.08-1.63-2.25 1.23-6.49-1.06-9.81-1.91-5.64-1.46-10.89-4.38-17-4.06-.79 0-3.86-2.26-2.74-4.59.77-1.61-2.86-5.51 2.44-4.91 3.32.38 4.22-3.5 7.34-4.35 11.33-3.07 22.08-7.91 33.43-11.18 6.85-2 13.68-5.13 20.54-7.67q34.59-12.81 69.75-24c23.92-7.59 47.59-16 71.35-24 15.77-5.37 31.33-11.49 47.32-16.11 17.75-5.14 34.75-12.44 52.65-17.15 12.13-3.19 23.88-7.88 35.84-11.78 8.18-2.67 16.43-5.15 24.66-7.69 2.75-.86 6.12.82 8.36-2.8.56-.91 3.33 1.93 3.66 3.72 1.68 9.06 2.59 18.16-.34 27.23-1.23 3.82.77 7.69.26 11.56-.49 3.69 1.11 7.52-1.45 11.16-1.14 1.61 2 3.1 1.69 5.69-.77 5.72-.42 11.57-1 17.33-1.35 13.93-1.88 27.91-3.8 41.81-1.11 8-1.32 16.24-2.67 24.26-1.21 7.17-1.44 14.43-3.43 21.58-1.52 5.44-.92 11.6-.53 17.4.49 7.17-2.82 13.37-5 19.62-1.26 3.53-6.9 2.88-10.74 1.91-11.81-3-23.48-6.89-35.59-8.1-16.12-1.61-31.67-6.54-47.88-7.58-4.72-.3-9.34-1.93-14.18-2.09a4.11 4.11 0 0 0 -3.46 1.23q-15.69 15.21-31.48 30.34c-2.31 2.21-4.49 4.71-7.93 5.26a21.2 21.2 0 0 0 -3.26-8.59c9.85-11.65 21.67-21.14 34.29-30.44-9-2.26-17.36-4.2-25.7-5.58-11.4-1.89-22.68-4.74-34.21-5.68-4.78-.39-9.27-2-14-2.29-2.78-.17-4.48 0-4.29 3.82.4 7.88-.17 15.8.08 23.7.37 11.6-2.56 23-2.17 34.54l.1-.1c-.97-.28-.82.43-.92.93zm88.74-141c-5.09.72-8.67 4.35-12.7 6.94-2.42 1.56-3.75 2.21-5-1.05-1.37 2.27-1.33 4.26-3.54 6-9.52 7.42-20.07 13.06-30.41 19.13-8.49 5-16.52 10.75-24.77 16.14-5.14 3.36-10.39 6.56-15.46 10-5.39 3.69-10.37 7.82-16.71 10.23-3.55 1.35-6 5.33-9.76 7.13a1.46 1.46 0 0 0 -.1 1.34c1.85 2.83 1.42 6.89 3.58 9.12 4.76 4.92 5.83 11.49 8.55 17.23 3.36 7.1 5.07 15 7.66 23 2.77-3.68.86-7.94 3.38-10.89-3.73-4.16-.11-8.68-.24-13-.24-8.14 1.4-16.38 2.72-24.5.53-3.31.6-6.68 3.89-9.5 13.24-11.38 27.76-21 41.82-31.26 4.12-3 8.8-5.33 12.56-8.71a238.19 238.19 0 0 1 25.5-19.25 43.21 43.21 0 0 0 9.13-8c.78-.3 1.4-.73 1.42-1.66 0-.05-.29-.17-.43-.15-1.01.17-1.3.81-1.09 1.74zm117.82-76.8c-6 9.4-15.18 12.69-22 19.07-8.76 8.16-18.77 15-28.36 22.25-10 7.6-20.22 15-30.33 22.52-7.24 5.37-14.52 10.69-21.7 16.15-13 9.91-26.65 19-39.51 29.17-11.42 9-23.76 16.87-35.3 25.75-3.65 2.81-7.74 5-11.08 8.25-.59.56-1.46.85-1.32 1.88a1.18 1.18 0 0 0 1.44 1c3.4-1 6.33 1 9.52 1.38 10.29 1.16 20.6 2.31 30.79 4.12 13.88 2.47 27.62 5.75 41.49 8.29 14.34 2.62 28.9 4.21 43.13 7.29 15.7 3.4 31.7 5.57 47 10.56 1.14.37 3.6 1.43 3.45-1.7-.61-12.48.69-24.91 1.09-37.36.25-7.45 1.27-14.87 1.89-21.79 2.37-.86 1.24 2.6 3.28 1.51 1.08-.59.4-1.56-.28-1.94-4-2.18-2.74-5.65-2.39-9 1.18-11.12 2.54-22.24 3.37-33.39.69-9.42.57-18.9 1.11-28.34.35-6.19 1.1-12.36 1.9-18.51 1.14-8.5 3.77-16.88 2.81-27.16zm-345 115.3c1.05.76 1.52 1.33 2.09 1.46 17.12 4.09 34.16 8.52 51.4 12.06 16 3.29 31.17 9.45 47.36 12.22a17.55 17.55 0 0 0 14.36-3.36c3.1-2.29 6.16-4.73 9.45-6.82 6.46-4.09 13-8.13 19.4-12.27 6-3.86 12.46-6.66 18.12-11.26 11.11-9 23.54-16.34 35.68-23.83 15.18-9.36 29.42-20.12 44.81-29 5.06-2.94 9.33-9.25 16.82-6.78.24.08 1.64-1.86 1.44-2.16-1.42-2.18.6-2.77 1.64-3.29a43 43 0 0 0 9.85-6.66c.3-.28 1-.06 1.41-.28a110.82 110.82 0 0 0 11.81-7.2c6.61-4.69 13.25-9.73 20.63-12.81 6.66-2.79 11.14-8.45 17.79-11-17.7 7.11-35.92 12.54-53.7 19.17s-35.83 11.87-53.52 18.41c-17.87 6.61-36 12.55-54 18.74s-36.08 12.38-54.13 18.52-36.1 12.31-54.2 18.33-36.02 11.77-54.55 17.81zm339.73-123.57c.12-.11.33-.22.33-.34s-.18-.25-.28-.38c-.11.12-.31.23-.32.36s.18.25.27.36z" fill="#462988"/><path d="m154.77 333.23c-.28 3.16-2.87 1.5-4.25 1.78a189.1 189.1 0 0 0 -23.2 6.81 105.89 105.89 0 0 0 -35.64 21.18c-2.84 2.49-5.45 4.3-8.65 1.86-3.5-2.68-1.72-6.71.06-9 3.19-4.12 6-8.8 10.85-11.49 1.47-.82 2.51-2.09 4.38-.7 1.27.94 2.88.37 4.28-.1a1.45 1.45 0 0 0 .32-1.33c-1.07-1.76-2.75.53-4.23-.76 2-4.27 6.55-5.71 10.18-7.69 18.39-10.06 37.91-16.44 59.16-15.72 11.8.39 23.1 4 34.6 6.26 19.34 3.77 37.59 1.06 55.26-7.43a304.84 304.84 0 0 0 31.11-17.09c4.71-3 9-6.87 13.64-10.21a71.28 71.28 0 0 1 8.08-5.43c2.32-1.25 4.28 1.45 7.1.94-10.58 15.59-24.07 27.68-38.38 38.44-15.35 11.54-32.92 19-52.82 18.41-7.23-.21-14.16-2.81-21.11-3.88-13.47-2.07-26.71-7.41-40.79-4.73-3.17.61-6.55 1.51-9.69-.43l-.53-.64c-.5.47-.21.72.27.95z" fill="#fa5847"/><path d="m191.12 379.1c-11-.57-20.54 1.63-30.21 4.08-5.43 1.38-9.43 4.16-13.66 7.13a13.75 13.75 0 0 1 -15.72-.1c-2.27-1.62-1.39-3.14-.36-4.64 8.83-12.82 21.12-19.8 36.37-22.69 14.4-2.73 28.26-.84 42.18 2.51 7.93 1.91 15.41.49 23.05-2.42 14.14-5.38 28.52-10.1 42.09-16.89 2.48-1.24 5.35-2 7.38-3.79 4.6-4 9.76-2.42 14.82-2.29.86 0 1.75.08 2.11 1s-.61 1.5-1.13 1.94c-10.88 9-21 18.95-33.57 25.76-3 1.63-5.47 4.42-8.57 6.24-8.23 4.82-16.88 8.68-26.33 9.92-6.8.89-13.33-1.84-19.86-3.48s-12.86-3.28-18.59-2.28z" fill="#fa5847"/><path d="m310.36 251.07c-6.61 8.57-15.16 14.47-22 22.11-7.39 8.3-17 12.51-26.92 16.86-6.28 2.73-13 2.74-19 5.5-3.78 1.75-5.34-2.46-8.4-2.51-8.41-.14-15.41-4.5-22.69-7.94-4.73-2.23-9.69-.57-14.52-1.1-1.57-.17-3.8.8-4.52-.8-1-2.2 1.46-3 2.89-4 5.38-3.57 10.44-3.54 17.08-1.77 13.76 3.67 28 4 41.72-1.9 12.66-5.47 25-11.29 36.06-19.77a52.8 52.8 0 0 1 11.19-6.19c3.11-1.3 5.54 3.22 9.11 1.51z" fill="#fa5948"/><path d="m757.14 360.47c-.48 9.89-6.78 15.11-13 20.36-6.64 5.62-15.21 5.75-23 8-5.9 1.71-12.24.55-18 2.9-3.19 1.29-5.19-1.53-7.71-2.4-1.24-.43-.71-2.26.52-3.18 5.16-3.84 11-6.42 16.86-8.9a160.9 160.9 0 0 0 19.54-9.39 19.07 19.07 0 0 0 7.81-8.7 24.74 24.74 0 0 1 1.16-2.74c2.79-4.71 4.73-5.28 9.45-2.45 2.8 1.73 7.68 1.84 6.37 6.5z" fill="#fa5847"/><path d="m533.87 149.46a323.7 323.7 0 0 0 -49.18 19.83c-4.62 2.29-7.7 5.8-11.62 8.55-4.3 3-9 5.53-13 8.87-2.37 2-4.54 2.29-6.58.77a5.37 5.37 0 0 1 -1.91-6.57c3-6.55 7.19-11.78 14.22-14.79 3.38-1.45 6.33-4.07 9.93-5.47a250.77 250.77 0 0 1 38.63-11.65c2.64-.55 5.74-2.18 8.69-.45.68.4 1.49.41 1.82-.1 3.32-5.23 5.13-.34 9 1.01z" fill="#fa5948"/><path d="m487 147.07c-6.48 1.88-12.73 3.8-18.37 7-12.71 7.2-24.85 15.05-29.71 30.08-1.07 3.32-2.49 6.92-7 5.77-8.42-2.14-11.19-5.41-9.56-11s5.4-10 9.85-13.42a111.37 111.37 0 0 1 28.28-16.29c1.08-.41 2.25-1.2 3.27-1 5.66.79 10.1-3 15.34-4 3.57-.64 5.65-.44 7.9 2.86z" fill="#fa5948"/><path d="m681 372.48c10.22-6.08 20.64-11 29.24-19 4.67-4.32 6.47-9.89 8.63-15.32 2.31-5.79 3.18-6.37 8.3-3.16 1.11.7 2.23 1.73 3.42 1.85 3.43.34 3.42 2.81 3.25 5.06-1 12.38-8.67 19.87-18.89 25.33a67 67 0 0 1 -26.13 7.65 9.28 9.28 0 0 1 -7.82-2.41z" fill="#fa5847"/><path d="m467.87 344.05c2.52 10.5 7.6 20.05 11.26 30.12 1.57 4.31 3.75 8.41 5.08 12.84-4.84 8.83-11.55 16.19-18.22 23.63-4.49 5-8.18 10.73-12.52 15.79a46.4 46.4 0 0 1 -14.1 11 165.77 165.77 0 0 1 -21.83 8.85c2.09-8.6 4.16-16.5 5.92-24.47 4.67-21.2 12.69-41.35 19.4-61.9a12.26 12.26 0 0 1 8.17-8c5.83-1.97 11.24-5.18 16.84-7.86z" fill="#fccbc7"/><path d="m585 231a43.21 43.21 0 0 1 -9.13 8 238.19 238.19 0 0 0 -25.49 19.33c-3.76 3.38-8.44 5.71-12.56 8.71-14.06 10.25-28.58 19.88-41.82 31.26-3.29 2.82-3.36 6.19-3.89 9.5-1.32 8.12-3 16.36-2.72 24.5.13 4.29-3.49 8.81.24 13-2.52 3-.61 7.21-3.38 10.89-2.59-8.05-4.3-15.92-7.66-23-2.72-5.74-3.79-12.31-8.55-17.23-2.16-2.23-1.73-6.29-3.58-9.12a1.46 1.46 0 0 1 .1-1.34c3.73-1.8 6.21-5.78 9.76-7.13 6.34-2.41 11.32-6.54 16.71-10.23 5.07-3.47 10.32-6.67 15.46-10 8.25-5.39 16.28-11.16 24.77-16.14 10.34-6.07 20.89-11.71 30.41-19.13 2.21-1.72 2.17-3.71 3.54-6 1.24 3.26 2.57 2.61 5 1.05 4-2.59 7.61-6.22 12.7-6.94z" fill="#997fe8"/><path d="m430 298.84c-10.65 2.69-17.52 10.68-24.29 18.31-6.06 6.85-12.95 12.85-18.71 19.93a261.1 261.1 0 0 0 -18.67 26.17c-4.49 7.25-8.88 14.56-13.23 21.9a69.37 69.37 0 0 0 -6.43 13.43c-.31.95-1 2.34-2.46 2.14-2.09-.29-1.42-2.34-1.1-3.14 2.58-6.34 3.21-13.27 5.6-19.58 5.14-13.62 13.95-25.18 22.05-37.12 9.29-13.7 20.82-25.42 32.74-36.74 3.4-3.22 7.74-5.45 11.65-8.14a60.46 60.46 0 0 1 12.85 2.84z" fill="#552dde"/><path d="m584.92 230.93c-.21-.93.07-1.57 1.09-1.72.14 0 .44.1.43.15 0 .93-.64 1.36-1.42 1.66z" fill="#997fe8"/><path d="m697.47 145.83c-.09-.11-.27-.24-.27-.36s.21-.24.32-.36c.1.13.29.26.28.38s-.21.23-.33.34z" fill="#fdccc7"/><path d="m154.77 333.23c-.48-.22-.75-.48-.23-1l.53.64z" fill="#fdccc7"/><path d="m481 590 .43.23z" fill="#fdccc7"/></g></svg>