<svg height="440" viewBox="0 0 2048.58 1715.07" xmlns="http://www.w3.org/2000/svg"><g transform="translate(-14.49 -14.1)"><path d="m67.28 1340.73c3.65-1.9 4.22-6 6.31-9 6.36-9.14 12.39-18.51 18.51-27.81a23.6 23.6 0 0 0 3.16-5.48c5.37-16.9 11.48-33.55 17.13-50.34 2.33-6.95 2.06-14.61 4.18-21.75 7.23-24.28 7.66-49.27 6.15-74.18a259.45 259.45 0 0 0 -5.11-36c-3.16-15.45-6.3-31.08-7.48-47a62.5 62.5 0 0 0 -3.57-17.84c-3.62-9.29-5-19-6.4-28.62-1.67-11.2-5.46-22.23-4.21-33.78.67-6.22-1.06-12.16-1.93-18.15a113.35 113.35 0 0 1 4.29-52.47c3.43-10.52 6.51-21.05 12-30.81 11.48-20.54 26.39-37.65 47.32-49 2-1.12 4.58-1.71 5.35-4.41 1.58-.12 3.16-.35 4.73-.35 25.67.07 51.35-.08 77 .35 15.59.26 31.22-.62 46.79.79 6.85 1.18 13.76.37 20.63.53 2.39.06 4.88-.23 7.14.34 10.49 2.66 20.89 5.67 31.37 8.36a284.61 284.61 0 0 0 31.08 5.67c9.47 1.34 19.16 2 29.13.88 10.25-1.2 20.21-3.95 30.49-4.58 5.82-.36 11.18-3.18 16.75-3.64 6.5-.54 12.23-2.56 18-5 1.32-.12 2.63-.35 3.95-.35q34.22.12 68.42.28c15 0 30.1 0 45.15.14 36.61.38 73.22 1 109.83 1.28 20.18.17 40.36-.25 60.53 0 27.6.3 55.19 1 82.79 1.47 1.2.52 2.61.78 3.57 1.58 8.77 7.34 19.6 10.81 29.65 15.72a6.68 6.68 0 0 0 8.57-1.88c2.23-2.67 2.26-6.26-.15-9.38-1.44-1.87-3.14-3.54-4.73-5.3 3.14-.32 6.29-1 9.42-.89 22.47.64 44.93 1.7 67.43 1.48 12.45-.12 24.91.18 37.36.42 5.6.11 5.73.37 5.32 6-.27 3.66 0 7.45-.5 10.95-.88 6.62 2.18 13 .28 19.55-12.12-5.26-24.76-9.06-37.09-13.71-7.15-2.69-12.66-.91-18.44 2.94-7.67 5.11-15.51 10-23.32 14.86-11.89 7.46-23.82 14.84-35.69 22.33-1.55 1-3.64 2.1-4.12 3.59-3.23 10-7.11 19.85-10.27 29.9-3.09 9.82-5.41 19.93-9.18 29.47-1.54 3.89-.27 5.47 2 7.12a25.89 25.89 0 0 0 6.51 2.85q15.23 5.37 30.48 10.61c11.22 3.86 22.38 7.92 33.72 11.4 11.84 3.64 23.54 7.65 35.22 11.78a148.25 148.25 0 0 0 18.93 5.61 25.45 25.45 0 0 1 8.66 3.63l-8 27.44c-2.14-.07-4.28 0-5.62 2-3.37 5.17-8.92 9.33-8.64 16.26.43 10.53-2.41 20.84-1.76 31.35-1.92 6.77-3.41 13.64-6.2 20.17-2.15 5-4.18 10.22-4.65 15.7-.35 4-1.56 7.74-2.45 11.59-2.33 10-5.36 19.71-6.06 30.09-.62 9.16-2.17 18.29-3.32 27.43-1.44 11.41-4.86 22.6-2.8 34.29-13.89 11.72-28.27 22.62-44 31.92a206.22 206.22 0 0 1 -69.54 25.87c-6.28 1.12-12.65.3-18.87 2.35s-8.08.25-8-6.41c.15-19.37-5.15-37.77-10.15-56.17-3.42-12.57-10.72-23.6-15.51-35.66-3.82-9.63-9.91-18.13-14-27.61-5.78-13.38-11.24-26.9-16.78-40.39-1.1-2.68-2.75-5.12-2.91-8.21-.4-7.43-1.76-14.88-1.43-22.26.61-13.56-2.11-26.83-2.87-40.25-.94-16.61-3.35-33.26-8.36-49.35-4.25-13.65-8.8-27.18-15.26-40-4.07-8.07-10.43-14.55-15.88-21.68-16.58-21.72-38-36.87-63.22-46.53-20-7.66-40.09-14.75-58.15-26.83a150.63 150.63 0 0 0 -46.25-20.58c-11.17-2.86-22.52-5.75-34.54-4.25-7 .88-14.17 2-21.24 1.89-13.38-.16-26.5.68-39.35 4.85-9.56 3.11-19.38 5.71-28.25 10.39-17.71 9.34-31.17 23.57-42.12 40-5.08 7.64-11.37 13.93-18 20a138.22 138.22 0 0 0 -28.21 35.19c-7.4 13.39-10 28.41-12.83 43.25-3.08 16.42-4.69 33.13-9.55 49.2-4.69 15.53-11.6 29.61-23.36 41.42-13.65 13.7-27.19 27.8-34.25 46.45-4.55 12-10.75 23.63-10.51 37.08.11 6.36-.2 12.72-.2 19.08 0 19.62-7.35 36.84-18.86 52-8.65 11.41-17.19 22.89-25.45 34.57-5.46 7.71-10.83 15.79-13.44 25a130.58 130.58 0 0 0 -3.05 59.89c3.65 19.8 2.93 39.48-.89 59.2-2.26 11.68-5.48 23.25-5 35.35.12 3.09-.53 6.06 1.6 9s-3.58 3.93-2.21 7.51c1.09 2.85.62 6.29.89 9.47 1.28 15 7.67 26.85 21.44 33.89a56.45 56.45 0 0 1 10.54 7c14 11.67 24.84 26.22 34.49 41.34 12.49 19.59 28.27 33.74 51 40.24 6.94 2 14 2.8 20.82 4.66 7.51 2.05 14.74 1.67 22 .44 13.51-2.28 26.86-5.6 40.59-6.4 4.21-.25 8.52.7 12.68.2a86.63 86.63 0 0 1 20.61.18c16 1.89 31.92 3.92 48.05 3.59 1.85 0 4.38.57 5.45-.4 4.91-4.4 9.13-.94 12.94 1.15 9.86 5.39 20.45 8.31 31.31 10.44 10.4 2 20.95 3.37 31.27 5.73 16.83 3.85 33.92 5.61 51.06 6.4a340.87 340.87 0 0 0 54.37-1.54c11.8-1.35 23.82-1.82 35.57-3.47a293.12 293.12 0 0 0 51-11.73 30.44 30.44 0 0 1 7.77-1.46c17.75-1.13 34.16-6.89 49.75-15 6.8-3.55 14-6 21.1-8.67s13.76-5.47 19.9-9.61c10.94-7.39 21.94-14.75 32.12-23.2 4-3.32 7.79-3.62 12.48-2s9.78 1.93 14.87 2.22c19.39 1.07 37.91-3.74 56.59-7.61 6.19-1.29 11.07-4.85 15.89-8.61 2.5-2 3.47-4.6 3.91-7.56.35-2.32.29-4.12-2.95-4.29-2.67-.14-5.3-1.05-9.17-1.89a63.51 63.51 0 0 1 9.11-5.56 35.8 35.8 0 0 0 15.71-15.23c3.78-6.86.11-12.77-7.61-13-1.82 0-3.66 0-5.83 0 1.9-4.53 4.47-8.31 3.7-13.19-.94-6-3.08-7.72-9.09-7.21-3 .26-5.08 2.92-8.13 2.94-1.44-.17-3-.08-3.69-1.81 2.74-2.08 3.28-5.35 4.26-8.28 2.3-6.89-.66-11-7.88-10.8a48.57 48.57 0 0 0 -26.84 8.54c-6 4.13-12.77 6.4-18.8 10.23-1.24.79-2.92 1.19-4.23-.31a6.94 6.94 0 0 1 2.4-4c4.08-4.11 8.13-8.26 12.08-12.5 2.46-2.63 3.18-9.37 1.53-12.54-2.05-4-4.12-4.86-10.17-3.56-8.61 1.84-16.55 5.46-24.15 9.84-9.34 5.39-18.62 10.89-27.91 16.33-.35-.57-.61-.8-.61-1a8.07 8.07 0 0 1 .27-2.32c4.89-13.19 2.09-25.67-4.39-37.31a110.5 110.5 0 0 1 -8.13-18.51c13.87-6.41 28.47-9.27 42.44-14 24.12-8.24 46.84-19.36 69.36-31 8.43-4.37 16.68-9.09 25-13.65 1.48 6.16 2.85 12.35 4.46 18.47 2.69 10.22 5.57 20.39 8.28 30.61.6 2.28-.15 4.78 1.09 7 4.34 7.85 6.15 16.73 8.16 25.16 2.76 11.63 7 22.73 10.69 33.94 4.19 12.83 5 26.43 10.27 38.9.77 1.83.3 4.21.3 6.34q0 17.56 0 35.12a26.65 26.65 0 0 1 -.6 7.11c-2.9 10.11-3.79 20.64-7.3 30.69a202.73 202.73 0 0 1 -17.1 37.39 167.09 167.09 0 0 1 -21.43 28.52c-3.45.16-6.89.45-10.33.45q-74.24 0-148.47-.09-83.4 0-166.81.18-49.46 0-98.92.11c-43.09 0-86.18-.21-129.27-.18-32.4 0-64.8.4-97.2.44-25.52 0-51-.28-76.54-.28-24.18 0-48.36.26-72.54.31-5.83 0-11.66-.38-17.48-.59-8.16-7.2-17.64-12.61-26.12-19.42-12.88-10.39-25.88-20.4-37.5-32.05-7.13-7.14-13.66-14.92-21.8-21-.39-11.42.21-22.82.71-34.23.75-17.52.59-35.07 1.21-52.59 1.21-34 1.2-68 2.89-101.92.92-18.58 1.28-37.18 1.89-55.76z" fill="#ccefee"/><path d="m1209.56 544.93c1.39-13.53-3.52-25.28-10.15-36.62a520.75 520.75 0 0 0 -32.41-48.16c-8.21-11-17.57-21.07-28.88-29.09-3.46-2.45-7.16-4.64-10.27-7.47-2.9-2.62-7.29-3.74-7.75-9.17-.21-2.44-3.71-5.37-6.39-6.68-10.5-5.1-16.49-15.13-25.17-22.2-15.56-12.67-23.42-30.27-29.85-48.65a22.82 22.82 0 0 1 -.63-2.29c-1.09-4.45 1.65-8.73.1-13.43-1.43-4.33 1.3-8.83 1.38-13.33 0-2.76 4.37-3.87 3.35-5.59-2-3.32.59-5.36.74-7.9.49-8.44 6.21-14.55 8.69-22a6.11 6.11 0 0 1 2.86-3.66 4.11 4.11 0 0 0 2.36-3.05c.36-9.77 7.34-16.13 12.79-22.66 8-9.59 15.67-19.49 25.21-28 10.22-9.16 20.27-18.6 30.72-27.55 5.36-4.58 11.37-8.42 16.62-13.12 8.23-7.36 18.64-11.75 26.31-19.85 3.33-3.52 8.37-4.39 12.37-7 8.41-5.49 16.49-11.75 25.84-15.42 7.72-3 13.78-8.42 20.91-12.19 2.11-.14 4.22-.41 6.33-.39 53.31.47 106.63-.49 159.93 1.88 13.77.61 27.58.2 41.37.26-3.83 5.24-9.8 4.71-15.19 5.43-9 1.19-18-1.49-27-1.39-7.7.1-15.47-1.11-23 1.23-17 5.25-33.65 11.11-48.26 21.69-15 10.82-20.18 24.47-12.34 42.12 2.44 5.49 5.07 11 5.86 17 .5 3.82.2 7.29-3.53 9.8-5.83 3.93-11.63 8-17.14 12.32-14.31 11.37-28 23.09-32.73 42.17a38 38 0 0 0 3.55 28.23c6.36 11.92 18.3 14.83 29.86 17.09 5.69 1.12 11.63 2.72 18 1.65 7-1.17 13.86-1.68 20.71-4.05 9.94-3.43 20.57-2 30.91-1.87 8.41.12 9.6 1.18 9.35 9.82-.45 14.91 2.08 29.53 3.72 44.2a98.76 98.76 0 0 0 3 15.38c1.83 6.52 5.15 12.85 4.89 19.94-.17 4.77-.08 9.55-.39 14.31-.22 3.49.76 5.68 4.54 5.9 3.48.2 5 2.78 6.26 5.42 2.12 4.25 4.09 8.57 6.16 12.85a297.05 297.05 0 0 0 18.26 33.16c11.43 17.54 26.22 31.82 42.87 44.22 13.61 10.14 28.74 17 46 17.43 7.62.21 15.25.34 22.85-1.92 8.07-2.39 8.86-1.63 8.57 6.34a160.42 160.42 0 0 0 .63 18.55c-13.18 4-25.68 8-38.07 12.47-13.13 4.76-25.75 10.56-38.55 16-19 8-33.35 22-46.75 37.12-10.69 12.06-21.19 24.28-31.21 36.93-9.82 12.38-19.67 24.76-29.89 36.79-12.47 14.67-24.64 29.71-40.08 41.63-12.06 9.31-24.09 18.65-36.44 27.59q-19.57 14.16-38.61 29c-7.89 6.19-16.5 11.34-24.29 17.72a99.76 99.76 0 0 1 -12.36 8.46q-19 11.21-38.17 22.31c-2.76-8.22-5.69-16.38-8.19-24.66-.9-3 0-6.66-1.28-9.35-3.17-6.6-3.7-13.63-4.65-20.61-2-14.54-.37-29.16-.91-43.74-.22-6.13.18-12.07 3.34-17.52 12.53.59 24.81-2 37.14-3.46 10.79-1.32 17.94-8.66 22.28-18.17 4.69-10.3 9.33-20.75 9.51-32.46 0-1.53 1-3 1.38-4.56.93-4.09 3.45-5.63 7.55-5.26 15.29 1.37 26.13-7.74 36.55-16.62 10.26-8.73 19.57-18.6 29-28.23 3.08-3.14 7.41-5.87 8.06-10.5.59-4.2.76-8.33 2.63-12.3a1.75 1.75 0 0 0 -2.6-2.27c-3.07 2.33-6.78 2.8-10.12 4.24-9.16 3.94-18.08 8.2-28.08 10.41-6.8 1.5-14 1.82-20.69 4.93-4.19 2-9.93.6-15 .67a2.35 2.35 0 0 1 -2.37-1.78c-1-3.3-3.15-6.13-3.47-9.71a70.15 70.15 0 0 0 -11.01-32.64c-7.11-10.77-14.09-21.84-27.44-26.12z" fill="#fecdc8"/><path d="m1456 121.54c-13.79-.06-27.6.35-41.37-.26-53.3-2.37-106.62-1.41-159.93-1.88-2.11 0-4.22.25-6.33.39-10.36-1-20.74-.26-31.11-.45-19.49-.35-39-.66-58.46-1.33-19.15-.66-38.34-.23-57.51-.26-13.26 0-26.52-.24-39.78.08a154.12 154.12 0 0 1 -27.66-2.26c-3.85-.6-7.7.06-11.57-.85-6.69-1.56-8.78-3.42-8.8-10 0-18.76 0-37.51.76-56.27.32-7.9.42-15.84.84-23.74.42-8.12 3.07-10.63 11-10.6q68.26.22 136.52.54c9 0 18.19-1 27.07.16 11.41 1.46 22.78.56 34.12.82 16.19.37 32.42.56 48.63.45 11-.08 22.07-.58 33 .39 28.14 2.48 56.31.58 84.46 1.25 30.8.73 61.6 1 92.4 1.58 2 0 4.36-.94 5.63 1.69.15.33.83.77 1 .69 8-5.33 16.84-1.58 25.24-2.27s17-.13 25.55-.1c8.78 0 17.59-.35 26.34.22 19.33 1.25 38.67.47 58 1.32 16.57.73 33.18.75 49.77.92q39.42.4 78.83.56 58.29.18 116.58.11c25 0 49.94.63 74.9 1.21q25.08.57 50.17.08c7.85-.14 14.85 3.85 22.67 3.66 2-.05 1.65 2.91.77 3.84-2.74 2.9-1.93 4.87-.13 8.19 2.79 5.14 1.87 11.41 2 17.14.41 17.25 1.23 34.63-1.53 51.7-2 12.46-1.22 24.79-1.15 37.2-.1 16.91-.28 33.82-.3 50.73q-.06 63.09 0 126.17 0 62.1 0 124.21c0 5.82-1.09 11.83-.75 17.42.72 11.62.14 23.22.52 34.82.66 20.14-.54 40.32.14 60.51.36 10.54-1.26 21.19-.53 31.69 1.67 23.82-.71 47.63.5 71.46.61 11.91-.4 23.9-.43 35.85 0 10.27.53 20.54.39 30.8-.19 15.32-1.29 30.64.51 45.94-.24 15.7-1.29 31.36-.51 47.1.7 13.92-.67 27.92-.41 41.84.24 12.58.25 25.14.13 37.72 0 2.78-.12 5.52-1.7 8.32-3.33 5.87-8.21 5.48-13.52 4.54-1.32-.1-2.64-.29-4-.29q-54.51 0-109 0c-1.82 0-3.74-.4-5.39.81h-3.09c-2.73-1.5-5.7-.82-8.56-.84-15-.12-30-.13-45-.18h-48.19c3.91-4.11 7.4-7 9.85-10.56s5.76-4.13 9.56-4c16.45-.08 32.9-.24 49.36-.24q69 0 138 .09c2.23 0 4.8 1 6.66-1.27 1.24-8.06 2-16.3 1.13-24.28-1.17-10.22 0-20.36-.61-30.5-.62-10 1.88-20-.51-29.89.56-18.2 1.15-36.38.43-54.61-.75-19.29.29-38.59 0-57.9-.46-37.67 1.22-75.34.94-113-.38-52.16-.23-104.34-.22-156.51 0-39 .17-78.11.24-117.17 0-17.81 0-35.62 0-53.43q0-62.66 0-125.31c0-10.56 1.12-9.12-9.56-9.18q-66.2-.37-132.38-.33c-3.44 0-6.45-1.79-10-1-9.17 2-18.55.22-27.8 1-2.79.22-3.88-3.78-6.29-2.13-4.55 3.13-9.22 1-13.78.85-27.9-1-55.82 0-83.73-1.18-23.12-1-46.3-.79-69.45-.68-15.69.09-31.38-.81-47.06.2-5.27-1.33-8.55-5.34-11.56-9.29-6.11-8-14.74-12-23.81-14.67-12.71-3.72-25.66-6.52-39.16-3.31-3.4.81-6.4 2.62-9.82 3.08-9.39 1.28-17.47 5.92-26 9.63-9.05 3.85-16.52 10.64-26.16 13.05zm527.08-74c-1.45-.74-2.57-1-3.27-1.74-2.16-2.17-3.29-2.44-6.29-.09-6.06 4.74-9.13 11.28-12.9 17.43-3.26 5.32-4.64 5.66-9.68 1.75-6.81-5.27-12.75-11.69-20.6-15.59-1.73-.85-3.31-2-4.8.17s-1.32 3.47 1.09 5.19c6.36 4.55 12.4 9.54 18.57 14.37 7.08 5.54 6.1 5.11 1.93 11.06-3 4.35-5.81 8.86-8.73 13.27-2.32 3.5-.54 5.54 2 7.26s4.63 2.09 7.42-.66c3.66-3.6 5.65-8.11 8.5-12.12 4.21-5.9 4.72-6 10.09-1.41a160 160 0 0 0 18.88 14.23c1.61 1 3.7 2 5 .08s.62-3.57-1.53-5.21c-6.88-5.26-13.21-11.26-20.25-16.28-3.64-2.59-3.37-4.52-1.32-7.63 5.13-7.88 11.36-15.02 15.81-24.11zm-100.66 56.46h23.8c2.1 0 4.31.3 6.24-.81 1.57-.91 2.57-2.48.52-3.58-2.5-1.35-4.84-2.94-7.79-3.72-5.77-1.53-11.51-.46-17.21-.88-13.54-1-27.07-1.33-40.63-1.27-1.33 0-2.66 0-4 .1a2.77 2.77 0 0 0 -2.84 2.28 2.29 2.29 0 0 0 1.34 2.6c2.77 1.42 5.27 3 8.62 3.61 11.38 2 22.79 1.47 31.95 1.67zm-519.9-75.43c-.44-.19-1-.63-1.28-.5s-.43.81-.63 1.25c.44.19.92.57 1.33.51.61-.13.78-.7.58-1.31z" fill="#462988"/><path d="m846.75 840.23c-27.6-.51-55.19-1.17-82.79-1.47-20.17-.23-40.35.19-60.53 0-36.61-.31-73.22-.9-109.83-1.28-15.05-.16-30.1-.09-45.15-.14q-34.22-.14-68.42-.28c-1.32 0-2.63.23-3.95.35-10.32-.43-20.64-1.13-31-1.24-29.44-.31-58.87-.22-88.31-1.17-21.75-.71-43.54-.14-65.32-.14-15.57-1.41-31.2-.53-46.79-.79-25.67-.43-51.35-.28-77-.35-1.57 0-3.15.23-4.73.35-21.95-.65-43.89-1.57-65.87-1.34-7 .07-14 .65-21.06-1.9-2.78-1-7 .19-10.61-.79-6.2-1.7-7-2.53-7.51-9.19-.92-11.43-.43-22.88.22-34.26.81-14.07.88-28.15 1.61-42.22.28-5.45.41-10.79 2.7-16.16 1.78-4.17 4.25-4.85 7.78-4.86 10.88 0 21.76-.08 32.64 0q54.22.63 108.45 1.41c11.34.15 22.72 1 34 1.15 14.26.19 28.61 0 42.91.07 23.92 0 47.82.63 71.73 1a11.87 11.87 0 0 0 3 .82c32.95.44 65.91.54 98.86 1.7q33.47 1.17 67 .53c4.47-.08 8.05 5.45 10.1 3.11 4-4.56 8.3-2.17 12.34-2.64 4.7-.54 9.54.66 14.29-.38l54.13.47c5.34 2.41 10.91.73 16.36.76 15.56.06 31.11-.08 46.67-.14a11.75 11.75 0 0 0 5.83.06c12.66.91 25.35.34 38 .37q28.66.1 57.32.2c31.62.1 63.28-.79 94.85.52 32.95 1.37 65.91.31 98.84 1.73a26 26 0 0 0 3.9-.43c5 .56 10 1.24 15 1.65 12.1 1 24 4 36.29 3a267.41 267.41 0 0 1 36.47-.43c.39.66 1.29 1.61 1.1 1.94-3 5.27.08 10.14.92 15.12 1 6.07.86 12.19.74 18.26-.29 14.57-.9 29.15-1.73 43.7-.29 5-2.2 9.9-2.33 14.87-.33 13.52-.1 27.05-.1 40.57-5.91 2.64-12.23 4.35-17.66 8.08a12.29 12.29 0 0 1 -6.66 2c.07-9.56.22-19.12.2-28.68 0-11.82-.1-11.82-11.72-11.62-6 .11-5.75.13-6.3 6-1.23 12.93.51 25.86-.24 38.78-7.82-1.87-15-5.52-22.43-8.4 1.9-6.52-1.16-12.94-.28-19.56.47-3.5.23-7.29.5-10.95.41-5.61.28-5.87-5.32-6-12.45-.24-24.91-.54-37.36-.42-22.5.22-45-.84-67.43-1.48-3.13-.09-6.28.57-9.42.89-4.54-6.34-9.15-12.63-13.59-19-2.44-3.52-6.11-5-9.9-5.58-1.31-.21-3 1.31-5 .47-5.74-2.46-11.63-4.55-17.32-7.1-2.29-1-4.37-2.22-6.44-.2-2.34 2.29-4.09 4.9-.94 8-2.37 1.18-5.13-.53-7 2.28 6.11 8.55 15.95 13.08 23.29 20.38zm77.43-15.61a5 5 0 0 0 0-.87 175.74 175.74 0 0 0 -11.07-36.1c-1.06-2.5-2.59-7.69-6.91-7.61-7.07.14-12.76-3.84-19.21-5.49-5.49-1.4-5.41-2-7.69 2.87-.44.92-.34 2.13-1.34 2.73-4.83 2.94-3.15 6.4-1 10.12 6 10.51 14.08 19.6 20.52 29.73 5.14 8.09 13.14 9.66 20.74 12.75a1.84 1.84 0 0 0 2.13-.52 14.62 14.62 0 0 0 3.83-7.61zm41.08-37.91c0-4 .6-8.05-.16-11.87-.83-4.2-1.33-9.7-5.93-11.22s-9.3-3.38-13.94-5.08c-2.11-.77-4.09-.53-5 1-2.25 4-5.84 7-6.26 12.38-.92 11.73 3.32 22.22 6.48 33 2.2 7.47 9 8.32 15.13 9.48 3.45.66 7.49-3 7.6-6.52.27-7.09 3.53-13.88 2.08-21.17zm84 .91a1.87 1.87 0 0 0 -2.41-1.12c-1 .25-2.17.66-2 1.86s1.44 1.12 2.4 1 2.03-.36 1.96-1.74z" fill="#462988"/><path d="m966.69 1358c-8.32 4.56-16.57 9.28-25 13.65-22.52 11.65-45.24 22.77-69.36 31-14 4.78-28.57 7.64-42.44 14a110.5 110.5 0 0 0 8.13 18.51c6.48 11.64 9.28 24.12 4.39 37.31a8.07 8.07 0 0 0 -.27 2.32c0 .23.26.46.61 1 9.29-5.44 18.57-10.94 27.91-16.33 7.6-4.38 15.54-8 24.15-9.84 6.05-1.3 8.12-.39 10.17 3.56 1.65 3.17.93 9.91-1.53 12.54-4 4.24-8 8.39-12.08 12.5a6.94 6.94 0 0 0 -2.4 4c1.31 1.5 3 1.1 4.23.31 6-3.83 12.84-6.1 18.8-10.23a48.57 48.57 0 0 1 26.84-8.54c7.22-.16 10.18 3.91 7.88 10.8-1 2.93-1.52 6.2-4.26 8.27-2.09 1.65-4.52 3-4.7 6.17l-2 1c.17.18.43.55.5.51.65-.29 1.27-.66 1.9-1 3.41-.37 5.32-3.2 7.95-4.85 3.05 0 5.08-2.68 8.13-2.94 6-.51 8.15 1.26 9.09 7.21.77 4.88-1.8 8.66-3.7 13.19h5.83c7.72.25 11.39 6.16 7.61 13a35.8 35.8 0 0 1 -15.71 15.23 63.51 63.51 0 0 0 -9.11 5.56c3.87.84 6.5 1.75 9.17 1.89 3.24.17 3.3 2 2.95 4.29-.44 3-1.41 5.61-3.91 7.56-4.82 3.76-9.7 7.32-15.89 8.61-18.68 3.87-37.2 8.68-56.59 7.61-5.09-.29-10.12-.54-14.87-2.22s-8.49-1.34-12.48 2c-10.18 8.45-21.18 15.81-32.12 23.2-6.14 4.14-12.9 7-19.9 9.61s-14.3 5.12-21.1 8.67c-15.59 8.13-32 13.89-49.75 15a30.44 30.44 0 0 0 -7.77 1.46 293.12 293.12 0 0 1 -51 11.73c-11.75 1.65-23.77 2.12-35.57 3.47a340.87 340.87 0 0 1 -54.37 1.54c-17.14-.79-34.23-2.55-51.06-6.4-10.32-2.36-20.87-3.68-31.27-5.73-10.86-2.13-21.45-5-31.31-10.44-3.81-2.09-8-5.55-12.94-1.15-1.07 1-3.6.37-5.45.4-16.13.33-32.09-1.7-48.05-3.59a86.63 86.63 0 0 0 -20.61-.18c-4.16.5-8.47-.45-12.68-.2-13.73.8-27.08 4.12-40.59 6.4-7.29 1.23-14.52 1.61-22-.44-6.82-1.86-13.88-2.68-20.82-4.66-22.72-6.5-38.5-20.65-51-40.24-9.65-15.12-20.44-29.67-34.49-41.34a56.45 56.45 0 0 0 -10.54-7c-13.77-7-20.16-18.89-21.44-33.89-.27-3.18.2-6.62-.89-9.47-1.37-3.58 4.25-4.71 2.21-7.51s-1.48-5.9-1.6-9c-.48-12.1 2.74-23.67 5-35.35 3.82-19.72 4.54-39.4.89-59.2a130.58 130.58 0 0 1 3.05-59.89c2.61-9.21 8-17.29 13.44-25 8.26-11.68 16.8-23.16 25.45-34.57 11.51-15.19 18.84-32.41 18.86-52 0-6.36.31-12.72.2-19.08-.24-13.45 6-25 10.51-37.08 7.06-18.65 20.6-32.75 34.25-46.45 11.76-11.81 18.67-25.89 23.36-41.42 4.86-16.07 6.47-32.78 9.55-49.2 2.79-14.84 5.43-29.86 12.83-43.25a138.22 138.22 0 0 1 28.24-35.19c6.61-6 12.9-12.33 18-20 10.95-16.45 24.41-30.68 42.12-40 8.87-4.68 18.69-7.28 28.25-10.39 12.85-4.17 26-5 39.35-4.85 7.07.09 14.22-1 21.24-1.89 12-1.5 23.37 1.39 34.54 4.25a150.63 150.63 0 0 1 46.29 20.67c18.06 12.08 38.14 19.17 58.15 26.83 25.25 9.66 46.64 24.81 63.22 46.53 5.45 7.13 11.81 13.61 15.88 21.68 6.46 12.77 11 26.3 15.26 40 5 16.09 7.42 32.74 8.36 49.35.76 13.42 3.48 26.69 2.87 40.25-.33 7.38 1 14.83 1.43 22.26.16 3.09 1.81 5.53 2.91 8.21 5.54 13.49 11 27 16.78 40.39 4.09 9.48 10.18 18 14 27.61 4.79 12.06 12.09 23.09 15.51 35.66 5 18.4 10.3 36.8 10.15 56.17-.06 6.66 1.84 8.45 8 6.41s12.59-1.23 18.87-2.35a206.22 206.22 0 0 0 69.49-25.85c15.76-9.3 30.14-20.2 44-31.92 9.85-6.33 17.74-15 26.62-22.48a66 66 0 0 0 18.57-25.2c4-9.51 7.24-19.3 10.79-29 4.53-12.37 11.66-21.46 26.42-20.86a8 8 0 0 0 6.84-3.37c9.13.35 16.44-4.6 24.18-8.28a4.13 4.13 0 0 0 3.75-.8c3.41-.19 6.82-.52 10.24-.55a8.79 8.79 0 0 1 8.57 5.94c2.11 5.68 6.11 7.35 11.18 5.68 7.43-2.43 10.65 3.07 14.44 7 2.59 2.73 1.11 6.07-1.31 8.56-10 10.28-19.52 21-30.92 29.73-6.34 4.84-10.37 11.23-14.58 17.62-1.25 1.9-2.43 4.17-1.2 7 4.31 1 7.53-2 10.47-4 6.53-4.54 13.93-7.27 20.81-11a22 22 0 0 1 16.27-1.72c4.1 1 7.9 2.88 11.86 4.21a15.66 15.66 0 0 1 8.15 7.2c3.39 6 2.2 11.53-3.87 14.47-2.84 1.38-6 2.14-8.89 3.39-3.59 1.55-7.57 2.5-10.13 5.86-8.68 4.91-15.88 11.38-21 20.06l-26.88 27.11c-11.06 6.65-18.56 16.38-24.1 27.81-5.93 3.11-9.59 8.76-14.46 13-11.87 10.45-23 21.68-36.4 30.37-6.47 4.24-14 7.19-19.55 13.02zm59.31-210.47a1.57 1.57 0 0 0 2.35 0c1.72-.6 4-1.27 3.16-3.49-.77-1.92-2.67-.23-4 .11a9 9 0 0 0 -2 1.15c-1.12.37-2.27.7-2.83 1.9-5 2.66-7.5 6.94-9.45 12.21-5.79 15.69-7.92 32.5-14.9 47.78-1.91 4.18 0 6.67 3.3 8.52 4.87 2.74 9 6.47 13.16 10 7.45 6.35 15 12.59 20.33 21.12 1.5 2.4.91 5.22 3.38 7.45 5.46 4.92 8.67 11.55 11 19.12a99.5 99.5 0 0 0 22.36-21.52c5.15-6.77 10.75-13.12 16.42-19.4 7.91-8.75 17.08-15.8 28.93-18.6a49.68 49.68 0 0 0 8.32-2.73c3.57-1.54 4-4.85 1-7.47-4.45-4-9.93-5.15-15.59-4.6-11.74 1.14-22.83 4.15-32.2 12a56.88 56.88 0 0 1 -11.47 7.09c-6.47 3.2-12.11.49-14.2-6.41-1.64-5.38-.65-10.33 1.88-15.3 4.78-9.42 12-16.68 19.78-23.55 9.06-8 18.31-15.78 26.06-25.91-2.88-1.07-4.6-2.55-8.07-2.39-9.21.4-16.88 4.27-24.2 8.89-10.74 6.78-20.75 14.6-28.58 24.84-.78 1-1.68 2.4-3.15 1.47-1.28-.82-.8-2.25-.57-3.61.77-4.6 3-8.39 5.82-12 5.94-7.78 14.07-12.71 22.64-16.82 5.83-2.8 8.63-7.37 11.23-13.64-8.12 1.92-15.39 2.93-22.25 6-11.47 5.13-22 11.17-28.44 22.68-1.57 2.79-3.46 6.24-7.74 7.82.43-7.53 2.13-13.7 7-18.72 1.06-1.1 2.43-2.12 1.67-4zm-257.42 275h-22.29c3.18 4.11 6.15 7.77 8.94 11.56a108.37 108.37 0 0 1 12.88 21.85c2.58 6.13 2.55 12.87 5.38 18.84v17.22l22.39-10.5c1.7-.15 2.73-1.45 4.06-2.26 8.39-5.1 9.36-4.85 14.77 3.42.71 1.09 1 2.48 2.74 2.83 6.6-5.62 8.25-13.84 9.91-21.65 1.93-9.12-1.87-17.55-5.92-25.52-2.51-5-5.48-9.64-6.86-15.1-.76-3-2.79-4.34-5.91-3.91-1.78-.25-3.57-.59-5 .87l-4.86.28c-7.9 1.75-16 1.67-24 2.37a2.69 2.69 0 0 0 -1.23-.17zm254.22-118.43c3.72-2.14 6.3-5.08 6.75-9.53 2.88.1 4.07-2.33 5.62-4 3.53-3.86 9.12-7.54 2.15-13.17-2.36-9.9-8.9-17.3-14.79-25.16a202.35 202.35 0 0 0 -28.7-30.81c-1.23-1.07-2.62-2.6-4.12-1.51-4.3 3.11-10.72 4-11.7 10.74a19.22 19.22 0 0 0 -11.68 9.45c-6.17 1.68-10.35 5.89-13.9 10.9-6 .62-9.1 6-14 8.6-23.23 12.4-44.77 27.86-70.13 36.42-13.24 4.47-26.48 8.79-40.17 11.12-10.26 1.74-20.52 3.83-31 4.31-13.48.62-27 1.22-40.46.89-14.81-.35-29.59-.09-44.43-1.58-7.7-.77-15.69-.52-23.53-1.32-3.58-2.09-7.61-2.08-11.56-2.56-15-1.85-30.16-2.8-44.86-6.66a19.35 19.35 0 0 0 -9.63.17c10.07 17 18.68 33.95 18.19 54.19-27.17-9.23-53.48-18-82-22.83 2.61 6.09 4.31 11.43 7 16.18 13.07 22.67 22.47 47.12 34.44 70.32 8 15.57 13.85 32.14 22.17 47.59 6.77 12.58 14.1 24.9 19.62 38.14a267.08 267.08 0 0 0 12.41 26.57c1.06 1.91 1.64 4 4.49 3.39 8.84-1.79 17.92-2.78 26.49-5.44 23.52-7.28 45.73-18.08 68.85-26.45a4 4 0 0 0 2.84-3.13c4.4-14.41 2.16-28.73-3.78-41.52a152.22 152.22 0 0 0 -36.38-49.59 176.56 176.56 0 0 1 -12.64-13.15c-2.19-2.42.23-3.05 1.9-3.83 10.29 3.91 19.33 9.65 26.54 18.09a10.8 10.8 0 0 0 9 4c6.83-.06 13.54.75 20.51-.08 11-1.31 22.21-1.5 33.24-3 10.49-1.43 20.75-4.23 31.12-6.26a409.49 409.49 0 0 0 64.16-18.59c3-1.11 6.31-.52 8.86-2.34 7.4-5.28 16.26-7.54 24.1-11.89 9.28-5.16 19.42-8.34 28.56-14.11 13.63-8.61 27.54-16.8 41.13-25.53a26.25 26.25 0 0 0 8.45-8 85.62 85.62 0 0 0 20.87-19.03zm-227 285.9c7.43-1.79 14.59-4 19.42-10.59 1 .27 2.31 1.08 3 .72 6.22-3.37 13.49-4.64 19-9.44 4.92-1.36 8.61-5 13.09-7.21 3.19-1.59 3.45-4 1-7-6.64-8.17-11.29-17.73-17.51-26.2a130.73 130.73 0 0 1 -11.6-18.87c-3.81-7.63-9.1-14.1-14.91-20.24-1.57-1.66-3.1-2.14-4.84-1-3.45 2.28-7.78 3.47-9.79 7.61-6.16.66-11.13 3.81-15.79 7.6-8.62 3.08-15.63 9.27-24.17 12.5-3.43 0-5.65 2.74-8.63 3.86-12.57 4.73-25 9.69-37.87 13.69-15.13 4.7-29.91 10.53-45.7 12.87-11.28 1.67-22.48 4.14-33.82 5-17.71 1.44-35.47 1.25-53.11-1.66-11.79-2-23.66-4.07-34.87-7.89-20.2-6.9-35.52-21.33-48.14-37.73-10.78-14-19.26-29.89-19.29-48.62.84-3.61-.32-7.46 1.29-11 .63-1.4.73-3.48 2.88-3.12 1.84.31 2.42 2.14 2.3 3.73-.36 4.75 1.78 8.84 3.39 13 6 15.56 12 31.15 25.5 42.32a50.33 50.33 0 0 1 8.59 9.15c6.68 9.24 16.45 14.24 26.32 18.49 14.1 6.08 29.47 8 44.54 10.26 18.54 2.73 37-1.23 55.38-3 4-.38 4.83-2.35 3.5-6.2a35.91 35.91 0 0 0 -1.72-3.6c-10.19-21.23-20-42.64-31.47-63.24-4.74-8.53-7.68-17.87-11.94-26.59-3.82-7.82-7.56-15.71-11.25-23.57-4.34-9.24-10.2-17.94-12-28.3-6.16-6.07-7.85-14.62-11.95-21.85-5.77-10.19-11.25-20.65-14-32.39a106.56 106.56 0 0 0 -17.45 13.71c-11.93 11.08-21.73 23.4-18.48 41.54-19-7.43-45-29.68-43.9-79.16-2.27 2.09-4.16 3.82-6 5.58-7.34 6.9-14.28 14.28-22.1 20.58-9.55 7.7-17.67 16.68-25.79 25.72-6.22 5.15-10.13 12.2-15.07 18.39-16.21 20.31-24.36 44-27.85 69.33-3.73 27 3.17 52.11 15.21 76 3.55 7.06 7.78 13.78 11.3 20.86 8 16.12 19.82 29.28 32.3 41.91 8.89 9 20.41 13.84 31.22 20 14.24 8.11 29.92 10.28 45.18 14.29 8.73 2.3 17.73 3.58 26.61 5.35 4.91 1 9.81 2.86 14.73 2.89 16 .1 31.9 1.89 47.87 2.49 15.22.59 30.17-1.34 45.25-1.76 17-.46 33.75-3.57 50.43-6.63 9.82-1.8 19.68-3.49 29.39-6.22 7.79-2.19 15.17-5.81 23.07-7.2 11.63-2 21.89-8.43 33.65-9.88a5.29 5.29 0 0 0 3.49-1.7c2.21-3.34 5.94-4.16 9-6.06 1.31.28 2.62.21 3.11-1.52zm-127.12-493.21c7.69-.92 10.56 1.77 10 9.42a6.33 6.33 0 0 1 -.17 1.58c-1.93 5.39-1.32 11-1.64 16.55-.45 7.66-.65 15.42-2 22.93a355.69 355.69 0 0 1 -16.22 60.46c-5.62 15-12.57 29.09-25.83 39.13a26.19 26.19 0 0 1 -13.66 5.66c-8.14.78-16 3.4-24.29 3.44-3.17 0-4.06 1.17-3.67 4.36 1.1 9.11 5.9 16.24 11.82 22.76a9.09 9.09 0 0 0 4.93 2.38c11.95 2 23.47 6.54 35.93 5.77 5-.31 10.33-.87 15 1.28a21.58 21.58 0 0 0 10.74 1.9c4.54 2.46 9.5 1.38 14.3 1.72 2 1.5 4.43 1.67 6.8 1.74 13.68.38 27.33 1.93 41 1.09l29 .14c9.58 0 19.16-.17 28.74-.1 3.91 0 5.25-1.94 4.93-5.45-.16-1.84-.65-3.66-1-5.5-1.92-11.21-3.63-22.45-5.81-33.61-2.1-10.68-5.09-21.06-11.07-30.44a120.41 120.41 0 0 1 -8.93-16.88c-3-6.83-6-13.66-10.06-19.83-11.36-17.17-18.49-36.27-26-55.23-3.72-9.41-3.15-19.19-3.2-29a492.34 492.34 0 0 0 -5.17-69 196.21 196.21 0 0 0 -10.72-39.87c-6.28-16.85-15.92-31.7-28-45-9.61-10.57-19.53-20.7-32.11-28-13.39-7.81-28.16-12.26-42.13-18.6-11.33-5.13-23.18-9.31-33.23-16.88a115.76 115.76 0 0 0 -15.34-9.93c-10.1-5.36-20.43-11.22-32-11.14-12.36.08-24.92-2.42-37.18 1.33a7.59 7.59 0 0 1 -2.38 0c-15.17-.7-29.39 2.76-43.53 8.29-20.05 7.84-36.09 20.46-50.12 36.46-10.62 12.12-19 26.65-34.51 33.89-.22.1-.37.37-.56.56-7.74 7.41-14.36 15.68-18.78 25.5-6.59 14.66-9 30.48-11.83 46.1-2.52 13.82-4.71 27.71-9.14 41.06-3.17 9.55-6.74 18.89-12 27.67-5.5 9.22-12.51 17-19.57 24.93-8.28 9.25-16.68 18.39-22.24 29.72-8.37 17.1-15.47 34.53-13.47 54.1 2.32 22.78-6.72 42.18-18.34 60.46-6.21 9.76-13.92 18.63-20.9 27.95-10 13.29-18.45 27.08-22.15 43.55a103.35 103.35 0 0 0 -2.07 36.37c1.1 8.41 4.26 16.46 4 25.13-.24 6.84-.1 13.7.27 20.53.6 11.07-2.36 21.63-4.43 32.27-3.17 16.27-4.08 32.68-3.83 49.15.19 12.64 4.85 24 15.93 30.39a134.66 134.66 0 0 1 28.74 22.34 26.79 26.79 0 0 0 4.67 6.27 55.35 55.35 0 0 1 9.34 10.65 292.3 292.3 0 0 0 20.58 28c6.22 7.43 13.05 14.57 23 17.22 11.71 7.2 24.7 5.81 37.45 5.24 11.58-.52 22.64-4.79 34.23-5.52 6.22.87 12.19-.62 18.18-1.9 22 1.17 43.8 5 65.41 4.12.87-2 .17-2.58-.45-3-14-8.43-25.63-19.28-36.3-31.7-20.89-24.34-38.28-50.32-47.25-81.62-4.31-15.05-6.67-29.71-4.27-45.35 4.26-27.78 13.41-53.24 31.36-75.3 4-4.88 8.81-9.28 11.23-15.36 1.62-.44 2.62-1.71 3.79-2.78 9.63-8.88 18-19.12 28.57-27 13.52-12.76 28.48-24 40.76-38.05 1.17-1.33 2.15-3.09 4.27-3.23 1.69 1.4.38 4.53 4 6.3v-12.82c-3.32-7.17-3.75-14.83-3.92-22.54-.1-4.78.25-9.61-.3-14.33-1-8.31-1.4-17.08-11-21.12-1.63-.69-2.94-2.25-4.24-3.58-8.36-8.56-16-17.7-21.16-28.59-.81-1.71-1.56-4.21-3.63-3.46-6.5 2.36-11.95-1.24-17.76-2.55-7.35-1.65-13.92-5.28-19.92-9.71a17.41 17.41 0 0 1 -4.89-22.16c4.82-8.49 11.54-15.12 21.09-18.36 8.62-2.92 14.1-1.13 19.55 6.42a47.62 47.62 0 0 0 3.38 4.44c2.56 2.75 5.1 5.64 9.77 5.93-4-9.7-8.72-18.24-11.61-27.71-4.84-15.89-7.9-31.81-5-48.35 2.83-16.11 9.27-30.3 22.73-40.57 2.43-1.85 4.82-2.75 7.77-2.23 1.44-6.87 8.21-6.84 12.74-9.45a52.17 52.17 0 0 1 27.32-7 166.84 166.84 0 0 0 22.92-.86c19.49-2.39 39-5 58.06-9.83 13.29-3.37 25.84-8.66 36.25-17.28 6.06-5 10.86-11.73 12.11-20.91.92-6.72-1.47-11.31-4.19-16.26a19.72 19.72 0 0 0 -13.81-9.85 19.65 19.65 0 0 1 -8.56-3.65c12.21-.76 23.82 1.79 31.45 11.5a69.28 69.28 0 0 1 13.82 29.15 155.78 155.78 0 0 0 5.68 19.82c4 11.46 6.67 23.36 9.93 35.06 1.24 4.49 2.55 9 3.8 13.37 1.28-.3 2-.25 2.24-.56 2.93-3.52 5.79-1.53 8.29.33 3.23 2.41.41 4.66-.7 6.87-1.91 3.77-3.92 7.48-5.77 11.28-.57 1.18-.89 2.64.41 3.63 1.65 1.24 3 .36 4-1 1.95-2.52 3.86-5.07 5.81-7.58 2.29-3 5.26-2.18 8-1.07 3.17 1.28 1.65 3.94 1.35 6.21-.47 3.58-3.07 6.12-4.46 9.26-1.31 3-2.76 5.13-.45 8.62 2.48 3.74 1.51 5.37-2.6 7.42-6.14 3.07-12.34 6-18.51 9-11.77 4-23 9.51-35 12.93-12.85 3.67-18.15-6.83-17.05-16.79a28.33 28.33 0 0 1 8-16.17c9-9.51 19.05-16.84 32.76-16.84 1.58-5.71-2.71-9.93-2.55-15 .11-3.6-1.9-4.07-5.32-2.92-15.08 5.1-29.78 11.14-44.4 17.38-3.15 1.34-5.07 3.69-4.76 7.48 1.24 15.23 1.49 30.62 6.71 45.25 1.78 5 3.58 10 5.5 14.93 1.07 2.76 2.77 4.6 6.1 2.94 5.4-2.71 10.53-.25 15.47 1.31 5.8 1.84 9.47 11.16 7.23 16.75-4.18 10.42-21.1 17.37-31 12.63-1.22-.58-3.43-.84-3.08-3 .42-2.54 2.22-2.2 4.27-2a24.36 24.36 0 0 0 16.56-4.46c4.25-2.86 5.2-9 2.52-13.42-1.89-3.1-4.51-3.6-9-1.72-8.46 3.59-12.06 2.19-16-6.21-10.41-21.93-14-45-11.48-69.07a22.42 22.42 0 0 1 1.39-6.2c6.53-15.87 19.29-25.28 34.1-32.5 6.21-3 13.13-3.09 19.93-4.06-2.47-9-4.46-17.36-9.41-25.06-11.93 12.4-26.27 19.78-42.53 23.74-9.41 2.29-19 3.56-28.46 5.58-18.4 3.94-36.9 4-55.56 3.21-8.32-.35-16.72.54-24.41 4.64a88.87 88.87 0 0 1 -10.91 4.64c-9.5 3.53-17.31 9.43-22.37 18.06a68.72 68.72 0 0 0 -8.68 27.93c-2.41 23.09 4.4 44.14 14 64.61 2.14 4.55 4.17 9.15 6.18 13.77a4.3 4.3 0 0 1 -.64 4.5c-1.6 2.15-2.72-.14-4.05-.4-2.09-.4-4.27-.62-6-2-8.38-6.87-19.26-9.93-27-17.83a5 5 0 0 0 -6.57-.86c-5 3-10 6.1-13 11.38-3.61 6.22-2.77 11.59 2.67 16.29 7.67 6.62 13.09 7.5 23.49 3.79-.9-3-3.83-3.36-6.09-4.62-3.43-1.9-7.47-2.79-10.05-6.19-.78-1-2-1.66-1.46-3.27.72-2 2.5-2.14 3.95-1.76 13.7 3.55 26.16 9.13 33 22.57a137.15 137.15 0 0 0 13.31 21.73c8.37 10.88 18 19.87 30.27 26.2 10.6 5.46 21 11.66 32.88 13.39 15.74 2.28 31.42 5.19 47.44 5.41 13.51.19 26.86.3 39.79-4.52a35.79 35.79 0 0 0 7-3.49c10.9-7 15.82-18 20.2-29.47 1.38-3.61 3.4-7.13 4-10.86 1.3-8.69 4-17 5.94-25.51 2.15-9.55 4.35-19.13 5.82-28.8 1.55-10.13.51-20.54 2.84-30.63a1.83 1.83 0 0 0 -.88-2.32c-4.38-1.06-7.3 3.24-11.4 4-2.53.46-4.83 2.11-7.62.61-1.32-.71-3.46-.38-3.46-2.51 0-1.4 1.27-2.22 2.64-2.65s2.53-.81 3.75-1.33a222.24 222.24 0 0 0 23.07-10.73zm248.32 447.21c3.49-5 3.43-5.65 10.52-6.34 12.49-1.21 21.31-10.16 32.39-14.23 1.82-.67 2.38-2.79 3.6-4.16 1.38-1.57 3.85-3 2.67-5.22s-3.92-3.38-6.7-3.53a10.61 10.61 0 0 0 -5.31 1.38c-5.21 2.58-10.65 4.72-15.78 7.44-6.38 3.38-13.46 4.55-20.14 7-1.46.54-3.25.71-4-1.25-.6-1.55.49-2.48 1.64-3.22 2.45-1.56 4.8-3.11 7.86-3.63 12.37-2.07 21-10.35 29.37-18.67a6.27 6.27 0 0 0 .39-8.17c-1.9-2.7-4.7-.5-6.37.55-10.6 6.65-22.31 10.72-33.82 15.29a20.26 20.26 0 0 1 -7.67 1.22c-3.3 0-3.39-1.44-2.78-4s2.23-3.46 4.53-3.7c1.47-.16 2.72.57 4.47-.09 10.74-4 18.36-11.87 25.56-20.25 1.32-1.54 2.86-3.41 1.56-5.74-1.12-2-3.2-1.46-5-1.58-10.73-.67-19.49 4.34-27.78 10.11-7.09 4.93-14.48 8.84-23.15 9.58-4.87.42-6.76-2.94-4.12-7.13 3.93-6.25 7.85-12.57 14.18-16.85a23.3 23.3 0 0 0 3.6-3.13c1.48-1.51 1.31-3.49.75-5.24s-2.49-1.7-4-1.82c-5.57-.41-10.55 1.82-15 4.57q-22.25 13.74-44.07 28.16c-10 6.56-10 6.81-2.79 16 9.14 11.71 17.64 23.78 23.2 37.68 3.84 9.6 9.59 13.46 19.75 13.4 1.06 0 2.12.07 3.19.13a243.76 243.76 0 0 0 43.62-1.49c5.88-.71 11.32-2.51 16.88-4 4.53-1.18 8.66-3.93 13-6 1-.48 2-1.29 1.54-2.37a3.47 3.47 0 0 0 -2.34-1.89c-3.41-.26-7.11-1-10.23-.06-7.44 2.25-14.73.52-23.22 1.25zm-433.12-313.2c2.51 18.7 7.39 36.7 6.08 55.37-.05.68.61 1.42 1 2.11 5.66 10.16 12.9 18.6 23.93 23.39 9 3.92 18.6 6 27.92 8.88 8.1 2.51 14.56 1.51 20.26-4.29 3.89-4 8.1-7.93 10.77-12.68 4.92-8.74 9.8-17.94 5.15-28.5a32.1 32.1 0 0 1 -2.35-11.51c-.41-7.41-3.24-9.86-10.66-8.57a15.56 15.56 0 0 1 -7.69-.56 47.58 47.58 0 0 0 -9.26-1.83 135.13 135.13 0 0 1 -41.73-11.68c-7.57-3.55-15.3-6.67-23.41-10.14zm50.93 96.58c-20.6-3.27-36.57-11.34-48.66-27.79-1.34 15.15-.74 29 3.61 42.41 2 6.22 4.4 12.42 8.23 17.87 2.68 3.83 4.31 3.88 7 .16 4.06-5.59 8.73-10.65 13.2-15.88 4.81-5.59 10.61-10.15 16.63-16.78zm88 9.34c.71-4.7-1.81-8.76-3.1-12.8a69.57 69.57 0 0 0 -14.72-26c-4.42-4.86-12.47-5.37-15.1-.71-5 9-11.58 16.87-17.27 25.39 2.78 1.61 44.83 13.4 50.2 14.11zm25.63-246c-5.46-3-10.25-6-12.28-11.45-1.58-4.21-3.17-2.6-4.83-.48-3.93 5-7 10.5-8.24 16.9-.81 4.29-.37 4.78 3.74 3.7 7.17-1.86 13.73-5.39 21.62-8.64zm23.56-17.6c-.15 2.42-.31 4.22-.35 6 0 1.06.13 2.21 1.65 1.9 1.26-.26 2.82-.51 2.85-2.18.04-2.29-1.38-3.84-4.15-5.72zm-80.16 476.07a2.44 2.44 0 0 0 -2.82-2.1c-.81.08-1.6.5-1.65 1.37a2.29 2.29 0 0 0 2.3 2.6 2.09 2.09 0 0 0 2.15-1.87zm20.66 85.16c-.06-1.08-.92-1.2-1.6-1-1.35.33-3.8-1-3.87.89-.08 2.14 2.42.58 3.68 1.09.77.29 1.39-.24 1.77-.98zm-133.5-153.46c.45-.2 1.19-.3 1.31-.63a2 2 0 0 0 -1.16-2.56.8.8 0 0 0 -1.19.61c-.27 1.07-.17 2.06 1.04 2.58zm553-231.14c-.2-.81-.74-1.27-1.52-1a1.36 1.36 0 0 0 -.65 1.12 1.13 1.13 0 0 0 1.52 1c.3-.08.45-.73.65-1.12zm-292-174.66c.85-.08 1.45-.48 1.22-1.39a1.33 1.33 0 0 0 -1-.81c-.84 0-1.45.48-1.25 1.38.03.33.64.55 1.03.82zm-24.46 228.64c-.26-.35-.49-1-.78-1s-1.17.24-1.27.55c-.29.85.16 1.5 1.11 1.39.3-.03.58-.6.89-.94z" fill="#5b33e0"/><path d="m1043.46 882.42a12.29 12.29 0 0 0 6.66-2c5.43-3.73 11.75-5.44 17.66-8.08 1.55 0 3.08.44 4.54-.75 3.53-2.87 7.94-2.9 12.11-2.85 15.09.17 30.17.78 45.19 2.37 1.57.16 3.88.91 4.15-.91.58-3.88 3.5-2.9 5.73-3.65a128.32 128.32 0 0 0 14-5.14c11.57-5.43 23-11.18 34.46-16.81q19.1-11.14 38.17-22.31a99.76 99.76 0 0 0 12.36-8.46c7.79-6.38 16.4-11.53 24.29-17.72q19-14.89 38.61-29c12.35-8.94 24.38-18.28 36.44-27.59 15.44-11.92 27.61-27 40.08-41.63 10.22-12 20.07-24.41 29.89-36.79 10-12.65 20.52-24.87 31.21-36.93 13.4-15.11 27.74-29.08 46.75-37.12 12.8-5.43 25.42-11.23 38.55-16 12.39-4.49 24.89-8.49 38.07-12.47a160.42 160.42 0 0 1 -.63-18.55c.29-8-.5-8.73-8.57-6.34-7.6 2.26-15.23 2.13-22.85 1.92-17.27-.48-32.4-7.29-46-17.43-16.65-12.4-31.44-26.68-42.87-44.22a297.05 297.05 0 0 1 -18.22-33.14c-2.07-4.28-4-8.6-6.16-12.85-1.31-2.64-2.78-5.22-6.26-5.42-3.78-.22-4.76-2.41-4.54-5.9.31-4.76.22-9.54.39-14.31.26-7.09-3.06-13.42-4.89-19.94a98.76 98.76 0 0 1 -3-15.38c-1.64-14.67-4.17-29.29-3.72-44.2.25-8.64-.94-9.7-9.35-9.82-10.34-.16-21-1.56-30.91 1.87-6.85 2.37-13.75 2.88-20.71 4.05-6.37 1.07-12.31-.53-18-1.65-11.56-2.26-23.5-5.17-29.86-17.09a38 38 0 0 1 -3.55-28.23c4.73-19.08 18.42-30.8 32.73-42.17 5.51-4.37 11.31-8.39 17.14-12.32 3.73-2.51 4-6 3.53-9.8-.79-6.07-3.42-11.54-5.86-17-7.84-17.65-2.61-31.3 12.34-42.12 14.61-10.58 31.29-16.44 48.26-21.69 7.55-2.34 15.32-1.13 23-1.23 9-.1 17.94 2.58 27 1.39 5.39-.72 11.36-.19 15.19-5.43 9.68-2.41 17.15-9.2 26.12-13.12 8.51-3.71 16.59-8.35 26-9.63 3.42-.46 6.42-2.27 9.82-3.08 13.5-3.21 26.45-.41 39.16 3.31 9.07 2.66 17.7 6.66 23.81 14.67 3 4 6.29 8 11.56 9.29a6.12 6.12 0 0 0 4.24 3.31c5.69 1.28 11.27 3.15 17.13 3.44 11.62.57 23.19 1.06 34.68 3.57 13.7 3 27.72 4.57 40 12.34 8.27 5.25 13.55 13.28 19.79 20.45-1.25.45-2.24 1.13-2 2.66 0 .14.42.33.65.33 1.78 0 1.88-1.26 1.89-2.58 3.41 5.28 4.5 11 4.91 17.32.35 5.23-1.54 10.84.62 15.56 3.59 7.8 2.88 15.73 1.6 23.44a384.53 384.53 0 0 1 -13.8 55.51c-3.81 11.77-7 23.78-13.09 34.74-2 3.56-1.31 4.36 3.08 4.23 4-.12 8-.34 11.89.77 10.46 3 18.16 13 12 25.54-4 8.16-9.51 15.82-17.69 20.85-3.16 2-6.08 4.3-9.28 6.18s-4.65 4.36-3.08 7.84c1.92 4.22 1.82 8.75 2.48 13.16 2.34 15.61 2.36 30.76-9.35 43.36a11.22 11.22 0 0 0 -.92 1.3 17.57 17.57 0 0 0 -2.88 12.85 181.5 181.5 0 0 1 1.1 26.9 332.22 332.22 0 0 0 .47 34.14c.82 10.61 6.48 19 16.6 22.9 22.08 8.59 44.65 16 64 30.26 7.63 5.6 15.23 11.16 19.89 19.76 3.65 6.71 7.07 13.58 11.27 19.94 5.63 8.53 12.62 16.1 17.1 25.48a99.94 99.94 0 0 0 8 14.25c7.89 11.2 15.31 22.68 22.76 34.16 12.57 19.34 24 39.21 29.45 61.91 2.35 9.82 4.33 20 3.28 29.92a144.59 144.59 0 0 1 -9.77 40.25c-7 17-17.06 31.6-28.33 45.56-11.44 14.17-23.47 27.88-35.69 41.37-3.67 4 1.48 2.28 1.61 3.59-3.8-.15-7 .28-9.56 4s-5.94 6.45-9.85 10.56h48.19l.27.52c-8.46 1.62-17 .45-25.48.69-6.65.19-13.32.21-20 0-3.55-.13-5.88 1.13-8.18 3.8-11 12.85-23.5 24.18-36.61 34.87a79.27 79.27 0 0 0 -8.68 8.8c-14.41 16.09-29.33 31.71-43 48.47-9 11-18.1 22-26.74 33.38-3.67 4.83-8.34 9.09-15.27 8.67-2.13-.13-3.2.88-4.49 2.49-8.27 10.35-12.85 22.17-10.78 35.2 1 6.34 4.74 12.63 10 17.36 3.38 3.06 5.63 7 7.84 10.91 1.62 2.87 2.19 6.22-.16 8.83-2.63 2.91-5.72 3.36-10 2.08-5.56-1.67-10.55-5.56-16.67-5.07-1.28 1.86-.81 3.78-.85 5.6-.16 7.9-6.84 12.18-14.27 8.94-2.89-1.27-5.52-3.09-8.83-5-4.73 5.3-10.89 6.8-18.07 4.92a11.49 11.49 0 0 0 -9.25 1.09c-6.88 4.16-13.63 2.23-19.31-2.12-7.91-6.06-15.15-12.81-19-22.63-2.81-7.18-2.75-14.61-2.76-21.86 0-11.6.19-23.28 3.79-34.64 1.06-3.33 2.59-6.36 3.92-9.49 1.14-2.65.58-3.76-2-4.74-5.58-2.12-6.29-3.84-4.44-9.78 2.84-9.08 6.67-17.67 12.67-25.18 15.6-19.55 29.57-40.35 46-59.26 9.2-10.58 19.81-19.66 30-29.27 2.07-2 3.86-4.21 5.78-6.32 6.4-4.27 11.62-9.82 16.74-15.47l1.62-1.68c3.69-2.19 6.14-5.77 9.42-8.42q13.59-14 27.16-28c1.95-2 4.18-3.92 4.79-6.9 6.53-4.44 9.8-11.61 14.62-17.49 3.28-3.12 4.81-7.39 7.08-11.14 5.25-8.69 10.69-17.35 13.58-27.23 1.46-6.4 5.24-12.22 4.75-19.1 1.12-6.16.7-12.35.66-18.56a20.34 20.34 0 0 0 -3.48-12.11c-1.4-10.5-6.91-19.31-11.73-28.39a41 41 0 0 0 -5-10.62c-3-4.6-6.09-9.24-7.37-14.73a4.71 4.71 0 0 1 4.21 1.78c5.46 6 11.29 11.87 14.94 19.23 4.49 9.07 9.18 18 13.42 27.25 4.47 9.74 7.53 19.42 7.6 30.19.1 15.12-3.93 29.39-10 42.82a171.29 171.29 0 0 1 -29.69 44.35c-18.55 20.32-38.54 39.15-58.87 57.66a227.1 227.1 0 0 0 -21.87 22.43c-3.31 3-7 5.65-9.8 9-3.15 3.85-8 6.35-9.43 11.57-6.7 6.74-13.09 13.74-17.63 22.19a131.25 131.25 0 0 0 -19.07 25.74 22.25 22.25 0 0 0 -7.66 11.38c-4.88 4.2-7.3 10-10.71 15.71 10.58 2.44 21 2.75 31.12 3 19.61.38 39.18 2.48 58.83 1.76 3.36-.12 6.91-.8 10.06 1.36 1.26.86 2.3.49 3.27-.87 3.79-5.33 7.71-10.56 11.59-15.84 6-5.05 9.6-12 14.77-17.75q8.49-10.29 17-20.57c5.73-4.56 9.85-10.58 14.61-16 8.29-7.67 15.87-16 23.45-24.38 3.1-2.45 6.33-4.75 9.27-7.38 11.88-10.62 23.2-21.8 34.22-33.33 16-16.75 31-34.38 46.27-51.73 15-17 26.46-36.13 35.47-56.81 3.68-8.45 6.22-17.42 6.41-26.53.21-10.24.61-20.65-2.28-30.74-.8-2.8-1.33-5.68-2.06-8.5a44.9 44.9 0 0 0 -2.48-7.45c-1.17-2.59-2.85-5.94-2.09-8.21 1.46-4.32-4.41-2.63-3.71-5.68.08-.37-.53-.87-.73-1.35-6.33-15-15.38-28.52-24-42.19-8.94-14.14-18.85-27.65-28-41.66-3.14-4.8-6.79-9.37-8.88-14.83-4.24-11-11.13-20.71-17.47-30.3-8-12.16-20.78-20.16-34.89-25-7.74-2.68-15.47-5.41-23.35-7.62-6.53-1.85-12.61-5.73-19.82-4.84-5-3.76-11.27-2.31-16.7-4.35-1.74-.66-3 .81-4 2-5.37 6.62-12.31 11.53-18.93 16.67-10.15 7.88-21.33 14-34.57 14.85-2.88.2-5.8-.25-8.69-.11-11.21.54-22.15 0-32.22-5.89a27.44 27.44 0 0 0 -6.71-2.24c-1.52-.41-3.16-.65-4.42.77-4 4.47-9.77 5.78-14.89 8.24-16.64 8.47-34.31 14.61-51.26 22.43a134.57 134.57 0 0 0 -46 34.84c-18.87 21.89-37 44.44-55.17 66.88-16.16 19.93-32.67 39.48-52.82 55.61-20.56 16.47-41.19 32.82-62.59 48.19-9.18 6.59-18.2 13.4-27.29 20.12-6.83 2.37-11.76 7.73-17.72 11.46-4.34 2.73-9.58 4.43-12.79 8.87-6 1.44-10.58 5.58-15.73 8.62l-26.42 13.62c-3.93 2.67-8.94 3.27-12.58 6.52-4.66 1.84-9.43 3.42-13.94 5.57-5.29 2.53-5.26 2.89-3 8.32 1.19 2.94 2.46 5.86 3.81 8.73 6.25 13.41 12.73 26.72 18.71 40.24 2.75 6.22 4.55 12.86 6.76 19.31.92 2.67 2.14 5.36 5.57 4 6.88-2.69 14.53-3.23 20.81-7.54 6.23-3.08 13.7-3.12 19.24-7.89a9.76 9.76 0 0 0 3.14-.29c8.58-3.84 17.13-7.78 25.68-11.69a165.54 165.54 0 0 0 22.86-11.57 16.86 16.86 0 0 0 8-2.75c7.8-5.09 15.84-9.83 23.78-14.71 4.14-2.39 8.55-4.4 12.38-7.21 18.74-13.75 38.14-26.59 56.11-41.39 20.92-17.23 41.18-35.21 61.52-53.11 11.42-10 21.15-21.8 32.82-31.55a7.93 7.93 0 0 0 2.5-6.39c0-8.34 3.13-16 4.48-24.07 2.63-15.61 8.34-30.45 12.9-45.57a70.27 70.27 0 0 1 4-11.18c.91-1.84 1.68-5.86 5.6-3.15a25.52 25.52 0 0 1 1.34 13c-.5 3.84-.8 7.71-1.19 11.57q-3 14.45-6.11 28.89c-3.52 11.9-5 24.18-6.87 36.41-1.08 4.76-1.87 9.62-3.32 14.27-1.55 4.93-2.75 9.81-2.19 15-3.1 13.65-8.11 26.89-8.82 41.06-3.11 6.09-2.62 12.73-3 19.24a1.71 1.71 0 0 0 -.68 2.14l-.21 3.09a251 251 0 0 0 -.06 36.89c-6.24-.61-10.1-4.36-10.86-11.17-.53-4.75-.59-9.55-.7-14.33-.33-14.33 3.09-28.34 3.66-42.62a57.54 57.54 0 0 1 2.48-13.93c2.32-7.78 3.21-16 4.63-24 0-.28-.61-.68-1.07-1.16-3.89 1.7-6.19 5.26-9.19 8q-26.06 24.15-52.26 48.13c-10.87 10-22.35 19.29-33.62 28.82a343.47 343.47 0 0 1 -29.35 22.32l-24.07 16.67c-3.8 2.31-7.73 4.44-11.36 7-5.71 4-12.56 6.21-17.6 11.25-7.84.88-14.29 5.37-21 8.74-10.59 5.28-21.6 9.48-32.46 14.05a243.53 243.53 0 0 1 -39.7 13.11 22.59 22.59 0 0 1 -3.87.91c-15.24.75-16.69-.09-21.11-13.26-.42-1.23-1-2.39-1.87-4.25-14.13 6.51-28.78 7.78-43.83 4.84-1.89 5.15 1.82 10.75-2.59 15.31-4.22 4.38-9.67 3.6-14.57 4.2-1.53 1.93-.66 3.84-.79 5.62-.55 7.59-5.57 12-13.16 11.47-8.09-.58-14.51-4.57-20.1-10.06a19.61 19.61 0 0 0 -4.16-3.62c.84-3.48-.6-7.68 3.22-10.23 3.08 2.42 6.09 4.94 9.27 7.23a103.5 103.5 0 0 0 9.18 5.95c2 1.16 4.81 2.32 6.59.57s.88-4.41-.6-6.47c-.31-.43-.73-.77-1-1.22-4.79-8-11.91-13.71-18.79-19.68-2.72-3.52-4.28-9.29-10.76-5.59-8.62 1.22-17 1.75-25.7-1-6.7-2.12-13.29-4.07-19.09-8-4.88-3.33-4.45-9.25 1-11.54 7-2.94 14-6.16 21.36-7.69 9.48-2 17.62-6.16 25.37-11.55a12.24 12.24 0 0 0 7-4.57c3.9-1.73 7-4.63 10.57-6.94 2-1.29 3.93-2.81 6.49-2.81 1.55 0 3.51-.56 4.37 1s-.49 2.68-1.67 3.94a73.81 73.81 0 0 1 -24.29 17c-9.86 4.35-19.67 9-30.19 11.19-4.58 1-8.15 2.88-12.62 5.43 12.32 7.26 24.55 7.7 37.1 4.51 11.71-3 23.55-5.19 35.29-1.38 8.18 2.65 16.12 6.09 24.25 9 7.33 2.61 14.54 4.61 22.29 5 6 .34 10.55-1.78 14.88-5.93 2.39-2.3 2.45-4.51 1-6.13-3.58-4-4.93-9.15-7.48-13.66a163.23 163.23 0 0 1 -10.58-22c-3.84-10.1-6.36-21-20.68-20-.48 0-1-.45-1.48-.57-4.36-1-8.72-2.47-13-3.21-5-.89-10.36-.25-15.58-1.36-7.89-1.69-16-2.08-23.45 1.46-9.06 4.29-17.81 9.19-26.7 13.83-3.4-1.3-7.16-1.74-10.09-4.19 3.56-2.17 7.46-3.99 9.22-8.2zm612.69-538.34c3.18-5.58 5.4-10.05 8.14-14.18 13.06-19.69 19.71-42 26.1-64.33 3.25-11.35 6.41-22.81 8.37-34.43 2.11-12.47 5.57-24.62 3.63-37.9-2.38-16.32-11.1-27.42-23.1-37.18-12.24-10-27-11.71-41.78-12.51-14.34-.78-28.54-2.13-42.42-5.68-6-1.55-12.22-3.07-17.89-6.18-7.34-4-13.13-9.55-18.35-15.94-3.73-4.57-8.2-8.21-14.45-8.88a73.09 73.09 0 0 0 -31.3 4.12 208.52 208.52 0 0 0 -35.44 17.36c-8.08 4.88-17.08 6.73-26 9.12-1.24.34-2.92.78-3.84.24-6.08-3.59-13-2-19.48-3.29a88.31 88.31 0 0 0 -26.81-1c-6.17.64-11.71 2.44-17.36 4.33-3.5 1.18-7.14 1.2-10.72 2.63-9 3.57-16.77 9-24.23 14.75-11.38 8.76-12.78 17.29-6.9 30.68 2.76 6.28 5.2 12.71 7.52 19.16 1.27 3.55.66 6.85-.88 10.6-3.62 8.8-11.87 12.53-18.57 17.43a153.53 153.53 0 0 0 -24.6 22.11c-9.79 11.07-12.42 24-6.77 38.32a13.17 13.17 0 0 0 7.5 7.67 55.61 55.61 0 0 0 30.28 4.32c14.29-1.9 27.63-6.8 40.74-12.26 15.44-6.44 31.76-10.06 47.46-15.64 6.9-2.45 14.32-3.49 21.3-5.38 8.19-2.22 16.53-3.42 24.72-5.37 10.28-2.45 20.74-4.12 31-6.49 13.18-3 26.48-6.11 39.94-5.92 20.37.29 40.8-2.18 61.16 1.93 8.32 1.68 16.71 3 24.63 6 11.65 4.43 19.63 17.68 19.07 30.77 0 1-.76 1.88.54 2.57 3.51 1.86 2.83 5.29 3 8.36.78 11.36 4.44 22.39 3.73 33.94.03 1.66 1.17 3.43 2.06 6.15zm25.19 18.67c11.4-7.54 17.84-17.91 22.56-29.46.8-2 .64-4.67-2.49-5.85a27 27 0 0 0 -14.84-1c-4.59.84-8 2.84-10.31 7.24-3.54 6.81-7.86 13.4-9.31 20.93-1 5.42-3.54 10.14-6 14.52-6.86 12-13.83 24.09-22.45 35-4 5.12-7.27 6.08-12.9 3.06-2.37-1.26-3.19-2.6-2.33-5.63 4.23-14.91 8.9-29.67 10.38-45.31 1.45-15.38 2.46-30.63-1.12-45.76-.46-1.91 1.73-3.83-.71-5.65-3.51-2.61-4.73-6.81-6.13-10.77-2.45-6.92-6.76-13-9.2-19.94a7.89 7.89 0 0 0 -6.62-5.07c-5.77-.64-11.39-1.95-17.25-2.33-12-.79-23.68 2.4-35.55 2.7-16.92.41-33.9-.91-50.62 3.22-4.51 1.11-9.57.69-13.93 1.65-8.75 1.93-17.57 4.09-26.3 5.76-20.36 3.89-37.85 14.4-56.56 22.08a5.58 5.58 0 0 0 -3.58 4.83c-1.8 13.54-2.8 27 1 41.87 5.14-10.79 13.87-13.86 23.53-16.63 7.4-2.13 14.73-1.78 22.05-2.47 12.91-1.22 18.47 1.72 23.7 12.58 4.08 8.46 1.07 15.08-8.21 17.25a24.12 24.12 0 0 0 -5.09 1.74c-6.92 3.32-14.49 4.89-22 6.18-9.86 1.7-19.83 2.78-30 5.37 2.19 4.25 2.34 9.11 4.93 13.18a10.41 10.41 0 0 0 2.44-1c12.57-9.87 26.59-11.06 41.94-8.5a33.39 33.39 0 0 1 16.07 7.48c10.68 8.64 6.66 19.91-2.35 24.61-4.08 2.14-8.64 3.1-13.25 4.16-10.8 2.49-21.23 6.62-32.19 10.22 1.16 1.76 1.51 3.77 4.56 3.35 9.71-1.34 19.23-3.38 28.29-7.14 3.22-1.33 6.24-1 10.35-1-4.89 6.58-11.43 7.9-17.47 9.85-5 1.6-10.27 2.31-15.37 3.63-4.74 1.23-5.2 2.29-2.89 6.5a354.07 354.07 0 0 0 21.88 35.71c13.64 19.07 31 33.9 49.81 47.15 7 4.88 14.81 8.25 23.88 6.49 6.1-1.18 6.65-2.07 4.36-7.75-1.59-3.92-3-7.93-4.22-12-1.55-5.23 1-8 6.41-6.95 2.7.55 5.62-.22 8.26 2.22.26-4.33 1.16-7.46 5.6-6.5 4.21.91 7.78 1.09 9.6-3.87.37-1 1.79-.91 2.87-.7 6 1.14 12.14 1.94 14 9.32.39 1.51 1.42 2.83 2.08 4.28 1.3 2.85 3 3.07 5.7 1.52 6.73-3.93 13.39-8 19.18-13.2 10.51-9.5 20.59-19.48 31-29.07 10.71-9.84 19.74-21.05 28.78-32.28 6.16-7.63 9.76-16.23 7.94-26.43-.64-3.62-.91-7.21-1.9-10.85a59.66 59.66 0 0 1 -2.47-18c.55-13.09 7.46-23.89 12.92-35.2 1-2.05 3-2.22 4.79-1.13s1.2 2.72.42 4.23a11.1 11.1 0 0 0 -1.45 2.79c-.77 4.78-4.77 8.68-4.22 14.77zm-53.12 689.66c-6 .24-11.24.81-16.54.44-11.08-.76-22.19-1.34-33.25-2.06-9.13-.6-18.5.72-27.51-2.09-1.85-.58-4.2-.09-4.77 1.87-1.8 6.13-6 11.09-7.93 17.14-4.12 12.8-5 25.86-4.22 39.21a40.88 40.88 0 0 0 4.08 15.22 23.29 23.29 0 0 0 15.29 12.9c3.65 1 4.71-.38 5.33-3.62a6.14 6.14 0 0 0 -.7-4.54c-5-8.2-7.57-17.25-9.74-26.47-.34-1.48-1.71-2.85.4-4a3.91 3.91 0 0 1 5 .76 6.68 6.68 0 0 1 1.73 3.49c2 7.93 6.23 15.11 7.72 23.22.19 1 .07 2.18 1.19 2.78 4.31 2.31 7.41 6.89 13.09 6.67 1.83-.08 3.34 2.17 5.54-.37 2.54-2.94-.07-4.43-1-6.25-2.06-4.26-4.78-8.2-6.72-12.5-2.45-5.44-5.54-10.81-4.55-17.19.27-1.73-.54-4.15 1.5-4.91 2.36-.88 3.89 1.16 5.11 2.87a12.68 12.68 0 0 1 1.57 3.61 90 90 0 0 0 15.2 29.73 13.37 13.37 0 0 0 7.3 4.51c2.06.56 4.18.55 5.87-1.33s1-3.71-.06-5.75a137.05 137.05 0 0 0 -10.55-17.42 31.86 31.86 0 0 1 -5.88-13.66c-.41-2.71 1.55-4.05 3.89-2.75 2.54 1.42 5.1 3.06 6.37 5.83 4.45 9.76 11.89 16.72 21.3 21.23 4.32 2.07 8.48 7 14.55 3.51a39.94 39.94 0 0 0 -9.49-15.15c-2.59-2.63-4.72-5.71-7.16-8.5a11.24 11.24 0 0 1 -3.07-6.35c-.59-7.7-.73-15.34 2.86-22.56 2.89-5.62 5.39-11.35 8.25-17.52zm31.6-592.41c-8 7.92-15.4 16.52-24 23.65-19.68 16.24-38.49 33.91-62.78 43.5-3.67 1.45-3.84 3.5-3.45 6.73.69 5.73 1.16 11.5 1.41 17.27.35 8.41 1.51 9.92 9.81 11.49a47.4 47.4 0 0 0 5.48 1c8.41.53 17 2.14 25.12-1.09a127.93 127.93 0 0 0 23-11.78c4.69-3.08 8.41-8.08 14.9-8.1 1 0 3-1.62 3-2.3-.6-5.21 3.9-7 6.36-10.09a9.66 9.66 0 0 0 2-5.9c.26-8.7.64-17.41 1-26.11.45-10.85-.76-21.73.72-32.58a5.31 5.31 0 0 0 -2.57-5.69zm-193.91-112.85a40 40 0 0 1 -2.22-3.85c-2.83-6.32-2.83-6.47-9.27-5-5.46 1.25-11 1.75-16.51 2.49-8.62 1.14-17.4 2.62-21.06 12.61a12.51 12.51 0 0 1 -4.45 6.42 2.66 2.66 0 0 0 -1.17 3.45c.84 1.53 2.07.39 3.33 0 8.78-2.57 17.38-5.65 26.53-7.13 7.48-1.21 14.69-4.15 22-6.34 1.29-.35 2.57-.8 2.82-2.65zm-387.4 597.76c8.42 7.14 14.09 15.37 22.84 20.52a51.26 51.26 0 0 0 10.18 4.3c2.8.92 5.6-1.15 4.85-3.41-2.16-6.51-4.71-13.7-11.55-16-7.83-2.64-15.83-6.14-26.32-5.41zm377.94-541c2.2-.85 4.34-1.83 6.57-2.51 5.52-1.67 6.44-4.12 3.09-8.66-5.75-7.76-10.8-9.22-20.65-6 8.54 3.46 8.54 3.46 10.99 17.12zm-281.92 453.09a1.19 1.19 0 0 0 -1 1.53 1.31 1.31 0 0 0 1.11.61 1.13 1.13 0 0 0 1-1.49c-.07-.29-.72-.43-1.11-.65zm592.84 60.14c.45-.21 1.2-.34 1.29-.66a1.19 1.19 0 0 0 -1.07-1.63 1.54 1.54 0 0 0 -1.25.69c-.34.9.16 1.46 1.03 1.61zm-476.91-649.38c.33-.4.83-.74.92-1.16.28-1.38.16-3.74-1.19-3.23-1.55.63-1.31 2.95.27 4.39zm379.54 188.57-.65-1.28c-.25.39-.67.76-.72 1.18-.06.58-.17 1.48.85 1.34.19-.03.32-.81.52-1.24z" fill="#5e33df"/><path d="m1069.18 737.9a267.41 267.41 0 0 0 -36.47.43c-12.25 1-24.19-2-36.29-3-5-.41-10-1.09-15-1.65-1.39-2.1-3.75-1.76-5.75-2.24-14.26-3.41-27.16-10-39.58-17.47a24.35 24.35 0 0 1 -10.43-11.77c-3.58-9.13-6.82-18.3-6.88-28.38 0-10.65 1.46-21.07 2.75-31.59 1.06-8.66 1.49-17.36 3.67-25.88 4.55-17.76 10-35.1 19.37-51.06 5-8.57 13.17-10.8 21.82-12.27 10.93-1.85 21.93-3.29 32.89-5 2.61-.4 5.17-1.11 7.75-1.68 7.58-.1 15-1.56 22.34-3.11 22.57 1 45-1.49 67.56-2.08 13.74-.37 27.53-.82 41.3-.93 12.46-.09 24.86-1.06 37.29-1.53 10-.38 20.08.74 29.39 5.31 1.36.67 3.08.6 4.63.87 13.35 4.28 20.33 15.35 27.41 26.12a70.15 70.15 0 0 1 11.11 32.62c.32 3.58 2.5 6.41 3.47 9.71a2.35 2.35 0 0 0 2.37 1.78c5-.07 10.78 1.28 15-.67 6.71-3.11 13.89-3.43 20.69-4.93 10-2.21 18.92-6.47 28.08-10.41 3.34-1.44 7-1.91 10.12-4.24a1.75 1.75 0 0 1 2.6 2.27c-1.87 4-2 8.1-2.63 12.3-.65 4.63-5 7.36-8.06 10.5-9.46 9.63-18.77 19.5-29 28.23-10.42 8.88-21.26 18-36.55 16.62-4.1-.37-6.62 1.17-7.55 5.26-.35 1.55-1.36 3-1.38 4.56-.18 11.71-4.82 22.16-9.51 32.46-4.34 9.51-11.49 16.85-22.28 18.17-12.33 1.5-24.61 4.05-37.14 3.46-9 2-18.32 1.19-27.44 2.76a303.12 303.12 0 0 1 -30.54 3.42c-4.28.3-9 1.57-13-1.71-.62-.51-1.39-.25-2.18 0-8.26 2.85-16.9 2.93-25.49 3.45-2.86.26-5.88-.71-8.46 1.3zm-27-96.42c0-5.19-.69-6.65-5.34-7.89a74.63 74.63 0 0 1 -8.12-2.93c-10.65-4.17-11.51-3.91-17.86 5.61-4 6-2.56 12 3.93 15.21 4.45 2.2 9.07 4 13.62 6a2.79 2.79 0 0 0 3-.08c4.98-4.48 11.02-8.4 10.72-15.92zm46.6-15.2c-2.16-.61-3.78.78-5.16 2.47s-2.86 3.77-4.21 5.7c-3.66 5.22-3.32 8.44 1.49 12.07s10.56 4.62 15.75 7.15a3.75 3.75 0 0 0 2.33-.09c5.54-1.56 12.17-11.56 11.49-17.32-.34-2.92-1.63-5.26-4.88-5.15s-5.45-1.81-8.16-2.71-5.3-2.67-8.7-2.12zm73.56 20.52c2.82.14 4.21.22 5.29-.7a24.89 24.89 0 0 0 8.19-11.51c1.38-4.43-.24-6.73-5.17-8-1.52-.37-3.25-.06-4.51-1.22-4.33-4-9.6-2.33-14.48-2.22-4.06.09-5.39 4.25-6.81 7-1.3 2.54-1.62 6.42 1.13 8.86 5.02 4.57 11.62 5.78 16.31 7.79z" fill="#ccf0ed"/><path d="m1037.19 1301.55c5.54-11.43 13-21.16 24.1-27.81 1.53 4.44.49 9 .46 13.46-.33 45.52-.33 91-1.23 136.55-.57 28.92-1 57.84-1.79 86.76-1.2 43.6-.94 87.24-1.32 130.86-.06 6.64-.25 13.27-.35 19.91-.14 9.21-3.71 12.27-12.88 12.66-27.09 1.17-54.21-.26-81.31 1-8.17.37-16.4-1.31-24.61 0a40.2 40.2 0 0 0 -4.72-.56q-37 .06-74.09.19-30.09.06-60.17.06-24.18 0-48.36.26c-28.38.31-56.77-.07-85.16-.11q-44-.06-88.08 0c-9.53 0-19.07-.06-28.6.29s-19.29-.68-29-.34c-16.63.6-33.29.43-49.94.48-18.61 0-37.22 0-55.84 0-38.77-.06-77.54 0-116.31-.25-17.22-.1-34.46 0-51.68-.19s-34.34.23-51.5.35c-37.52.27-75.05 0-112.57 0-8.76 0-17.52.21-26.28.33-5.09-2.14-10-4.71-15.3-6.27-3.47-1-4.57-2-4.34-5.89.64-10.59.5-21.19 1.49-31.8 1.07-11.34.7-22.83.63-34.25-.09-14.61 1.07-29.22.06-43.84.36-2.89 1-5.78 1-8.67.67-28.89.24-57.79 1.78-86.68.94-17.74.77-35.55.72-53.32 0-6.36 1.86-12.66.41-19 .4-19.94.56-39.88 1.26-59.81 1.81-51.79 2.58-103.61 3.14-155.43.33-30.8 1.18-61.6 2-92.39.36-14.33 1-28.66 1.71-43 .1-2-.19-4.36 1.41-6.08 1.28-1.38 1.09-2.92.66-4.47-3.07-11-1.53-22.23-.59-33.21.5-5.91-.5-11.58-.19-17.39 1.7-32.63 2.88-65.27 4.58-97.89.48-9.24 2.64-18.37 2.82-27.68a11 11 0 0 1 1.2-3.78c1-2.42 2.21-5.71 5.25-4.78s7.08 1.12 8 5.53a81.92 81.92 0 0 1 1.43 15.85c.56 42.28.31 84.55-.13 126.82-.23 21.81-.26 43.63-.92 65.44-1.4 46.11-2.4 92.24-3.45 138.36-1.08 47.82-3.5 95.6-3.76 143.44 0 1.84.28 3.69.43 5.53-.61 18.58-1 37.18-1.89 55.75-1.69 34-1.68 68-2.89 101.92-.62 17.52-.46 35.07-1.21 52.59-.5 11.41-1.1 22.81-.71 34.23-1.07 3.9-.9 7.9-.95 11.88-.21 16.73-.53 33.47-.55 50.2 0 13.84-1.77 10.36 11.56 10.89 14.79.59 29.63.25 44.44.13 10.29-.08 20.57-.48 30.85-.74 5.82.21 11.65.6 17.48.59 24.18-.05 48.36-.31 72.54-.31 25.51 0 51 .32 76.54.28 32.4 0 64.8-.41 97.2-.44 43.09 0 86.18.15 129.27.18q49.45 0 98.92-.11 83.4-.11 166.81-.18 74.23 0 148.47.09c3.44 0 6.88-.29 10.33-.45 20.73 1.12 41.49.12 62.23.41 6.94.1 7-.14 7.12-6.78.33-22.06.84-44.12.86-66.18 0-56.08 1.78-112.12 2.31-168.18q.56-57.56 1.2-115.01zm-985.19 280.22c-1 .85-.91 2.15-.72 3.42.13.81.58 1.63 1.56 1.28 1.74-.62 1.14-2.07.91-3.29-.16-.75-.37-1.61-1.75-1.41zm-.23-278.63c-.18.47-.56 1-.49 1.37.19 1.17-.79 4 1.69 2.66 2.03-1.06.16-2.89-1.21-4.03zm.33 244.08a3 3 0 0 0 .56-3c-.09-.32-.8-.78-.82-.75-.86.82-.64 1.86-.43 2.85.06.31.43.59.68.9zm227.16 115.66c.43-.2 1.06-.3 1.24-.63s-.21-.85-.35-1.3c-.43.21-1.06.3-1.24.64s.2.85.34 1.29zm35.06.49c-.11-.2-.23-.4-.35-.6a5.53 5.53 0 0 0 -1.08.88c-.33.47 0 .88.56.7.35-.11.55-.64.86-.98z" fill="#4a2f8b"/><path d="m56 1675.39c8.76-.12 17.52-.33 26.28-.33 37.52 0 75.05.32 112.57 0 17.16-.12 34.36-.52 51.5-.35s34.46.09 51.68.19c38.77.21 77.54.19 116.31.25 18.62 0 37.23.07 55.84 0 16.65 0 33.31.12 49.94-.48 9.69-.34 19.31.7 29 .34s19.07-.28 28.6-.29q44 0 88.08 0c28.39 0 56.78.42 85.16.11q24.18-.26 48.36-.26 30.09 0 60.17-.06 37-.09 74.09-.19a40.2 40.2 0 0 1 4.72.56c-.11 1.88-.28 3.74-1.71 5.18-12.38 12.48-26 23-42.22 30.43-7.38 3.4-15 6.28-22.45 9.46s-15.71 4.18-23.68 5.94c-18.91 4.17-38 3-57.06 3.1a72.51 72.51 0 0 1 -14.21-1.33c-8.28-1.63-16.77-2.16-25.09-3.6-5.69-1-11.25-2.72-16.86-4.09-13.27-3.22-26.53-6.67-39.45-11-11.78-4-23.58-8.2-35.66-10.7-8.48-1.75-16.24-5.78-25.13-6.32-6.44-.38-12.89-2.84-19-5.18-14.33-5.49-28.82-5.27-43.66-2.88-9.9 1.6-19.91 2.7-29.91 3.47-12.42.95-24.46 4.33-36.79 5.44-11.58 1-22.72 5.36-34.54 4.32a17.61 17.61 0 0 0 -6.28.84c-9 2.48-18.2 3.17-27.43 3.93a21.54 21.54 0 0 0 -4.72.52c-10.22 3.3-21 2.33-31.37 4.35-27.15 5.29-54.56 2.75-81.85 2.9-13.15.07-26.48 0-39.3-4.17a17.36 17.36 0 0 0 -5.55-.35c-4.29.06-8.36-.37-12.36-2.37a21.61 21.61 0 0 0 -10.76-2.53c-3.83.19-7.35-1.27-10.69-2.83-9.29-4.33-19.26-6.84-28.8-10.48a153 153 0 0 1 -20.48-9.18c-3-1.66-6.2-1.28-9.36-1.28q-58.29 0-116.57-.06c-3.17.03-6.47.95-9.36-1.02z" fill="#ccefee"/><path d="m2016.83 775.05c-1.8-15.3-.7-30.62-.51-45.94.14-10.26-.42-20.53-.39-30.8 0-11.95 1-23.94.43-35.85-1.21-23.83 1.17-47.64-.5-71.46-.73-10.5.89-21.15.53-31.69-.68-20.19.52-40.37-.14-60.51-.38-11.6.2-23.2-.52-34.82-.34-5.59.74-11.6.75-17.42q.07-62.1 0-124.21 0-63.08 0-126.17c0-16.91.2-33.82.3-50.73 4.65 6.14 7.68 13.2 10.58 20.19 6.92 16.68 10.71 34.22 13.46 52.06 1.27 8.22.77 16.44 1.7 24.57 1.25 10.86 1 21.71 1.48 32.57.32 7.51-1.81 14.73-1.67 22.19.3 15.84-.43 31.68-.8 47.51-.27 11.58-1 23.17-1.06 34.78 0 16.91-2.56 33.73-4 50.58-1.67 18.93-3.67 37.93-1 57.13 1.31 9.38 1.89 18.93 3.63 28.28 2.08 11.15 4.89 22.13 7.92 33.09 3.58 12.94 8.59 25.39 12.25 38.32 3.44 12.16 4.18 24 3.59 36.07-.48 9.73-2.59 19.37-3.72 29.07-1.7 14.76-5.2 29.17-9.14 43.4-3.15 11.41-5.83 23.06-11.09 33.85-4.16 8.53-5.67 18.28-11.07 26.21-4.26 6.29-4.84 14.59-11.01 19.73z" fill="#fdccc8"/><path d="m1029.39 543.29c-7.37 1.55-14.76 3-22.34 3.11-1.43-10.59-.27-21.22-.39-31.83-.24-20.43.21-40.87.34-61.3.08-13.58-.22-27.18.3-40.74.27-7-.27-14.12 1.2-21.09a15.56 15.56 0 0 0 .09-4c-1.32-24 .83-48.07 0-72.1-.18-5.07 1.89-10.19 1.28-14.85-1-7.48 0-14.77 0-22.12-.18-19.34.39-38.68.33-58 0-13.57-.56-27.24 1.57-40.6 2.44-15.25.61-30.68 3.24-45.84a17.44 17.44 0 0 1 1.26-4.53c2.64-5.84 7-7 12.09-3.13 1.27 1 .87 2.34 1.16 3.58 3.64 15.93 2.48 32.17 3 48.29.45 13.77-.09 27.54.47 41.34.55 13.42-.15 27.06-.38 40.59-.29 17.25 0 34.5-.3 51.74-.25 15.6 0 31.2-.41 46.81-.41 15.29.16 30.72.27 46.09.19 27-.42 53.92-1.34 80.88-.27 8.11-2 16.06-1.47 24.25.59 8.48.19 17 .23 25.53a3.6 3.6 0 0 0 .07 3.06z" fill="#4a2f8b"/><path d="m1065.82 950.78c6.48-3.7 8 2.07 10.76 5.59-4.45 3.55-3.33 9-4.65 13.62-3.82 2.55-2.38 6.75-3.22 10.23-3 2.45-2.72 6-3.27 9.36-4.13 11.56-8.15 23.15-12.41 34.66-3 8.15-3.35 8.23-11.86 8.1-.83-.64-1.59-1.68-2.5-1.83-6.51-1.13-12.75-3.33-19.12-4.86s-12.41-4.67-19.14-4.81a25.45 25.45 0 0 0 -8.66-3.63 148.25 148.25 0 0 1 -18.93-5.61c-11.68-4.13-23.38-8.14-35.22-11.78-11.34-3.48-22.5-7.54-33.72-11.4q-15.27-5.24-30.48-10.61a25.89 25.89 0 0 1 -6.51-2.85c-2.3-1.65-3.57-3.23-2-7.12 3.77-9.54 6.09-19.65 9.18-29.47 3.16-10 7-19.86 10.27-29.9.48-1.49 2.57-2.61 4.12-3.59 11.87-7.49 23.8-14.87 35.69-22.33 7.81-4.9 15.65-9.75 23.32-14.86 5.78-3.85 11.29-5.63 18.44-2.94 12.33 4.65 25 8.45 37.09 13.71 7.45 2.89 14.61 6.54 22.43 8.41 2.56 2.17 5.66 3 8.84 3.76 2.93 2.45 6.69 2.89 10.09 4.19 10.77 3 21.84 5.26 31.42 11.56a12.24 12.24 0 0 1 -7 4.57 561 561 0 0 1 -102.58-35.36c-2.78 14.93-5.46 29.41-8.19 43.89-1.74 9.22-2.7 9.89-12 9a21.6 21.6 0 0 1 -3.78-1c-10.5-2.81-21.09-5.27-32-5.45a92 92 0 0 1 -15-1.58c-6.13-1.12-7-.51-8.36 5.67-.73 3.35-1.17 6.84-2.41 10-4 10.26-6.56 21-10.13 32 16.27.42 30.73 6.23 45.36 11.26 16.69 5.75 33.65 10.62 50.21 16.86 10.49 4 21.65 6.5 32.24 10.57 3.93 1.5 8.63 1.42 12.16 3.47 8.13 4.71 17.49 6 25.76 10.18 5.1 2.58 7.07 1.33 8.25-4.36a272.22 272.22 0 0 1 8.19-31.27c2.44-7.24 5.24-14.39 7.16-21.77.93-3.96 2.98-7.91 2.16-12.28z" fill="#fa5c4c"/><path d="m1316.92 914.92 24.08-16.67c1.8 1.55 4 1.22 6.08 1.21 23.24 0 46.48-.17 69.73-.19q41.1 0 82.21.1c7.14 1.09 14.3 0 21.44.06 24.37.16 48.74 0 73.11.06 14.81 0 29.61.25 44.41.38-5.12 5.65-10.34 11.2-16.74 15.47-12.85-.05-25.71-.68-38.56.35a73.61 73.61 0 0 0 -14.39 0c-7.34-1.07-14.74-.58-22.1-.6-18.57 0-37.15-.31-55.7-.08-19 .23-38.08-.84-57.09.7-2.65-.14-5.3-.39-7.94-.39-19.16 0-38.32 0-57.48 0-16.98-.07-34.04-.27-51.06-.4z" fill="#4a2f8b"/><path d="m1316.92 914.92c17 .13 34 .33 51 .39 19.16.06 38.32 0 57.48 0 2.64 0 5.29.25 7.94.39-8.38 6.49-17.63 11.54-26.92 16.56-15.83 8.56-31.79 17.05-49.55 20.57-11.34 2.25-22.93 3.06-34.19-2.59-5.88-2.95-11.88-5.26-16.28-10.38-1.12-1.3-2.47-.59-4-.53-4.34.16-9.41 1.07-12.25-4a10.36 10.36 0 0 0 -2.26-2.16c5-5 11.89-7.23 17.6-11.25 3.7-2.56 7.63-4.69 11.43-7z" fill="#fecdc8"/><path d="m42.46 1385.65c1.45 6.36-.43 12.66-.41 19 .05 17.77.22 35.58-.72 53.32-1.54 28.89-1.11 57.79-1.78 86.68-.07 2.89-.67 5.78-1 8.67-3.11-1.72-5-4.31-6.73-7.47a126.73 126.73 0 0 1 -14.86-44.1c-2.7-19.84-4.1-39.71.88-59.87 4.4-17.76 12.8-33.34 21-49.24 1.16-2.33 2.39-4.64 3.62-6.99z" fill="#ccefee"/><path d="m1068 1127.22a4.13 4.13 0 0 1 -3.75.8c1.09-4.86-3-6.2-5.9-6.93-5.4-1.37-7.45-5.27-9.58-9.53-3-6-4.32-12.81-8.36-18.36a23.85 23.85 0 0 0 -2.1-9.14c-3.12-6.6-6.2-13.21-6.76-20.77a13.21 13.21 0 0 1 8.91-13.26c4.82 3.45 10 6.19 16 6.74 2 .17 3.52.78 4.51 2.46a5.89 5.89 0 0 0 4.3 3c1 3.11.53 6.32.53 9.48 0 4.51 0 9 1.88 13.23 1.42 3.25 1.44 6.69 1.35 10.14-.09 4 .08 8 1.6 11.71 2.46 6 2.71 11.74-2.51 16.64-1.22 1.14-2.07 2.47-.12 3.79zm-13.51-15.38c.41-.18 1-.26 1.19-.57a1.13 1.13 0 0 0 -.55-1.7c-.29-.1-.94.28-1.17.61a1 1 0 0 0 .57 1.66z" fill="#fdccc8"/><path d="m1065.64 1032.61c1.59 0 3.49-.55 4.72.12 8.42 4.6 18.06 6 26.55 10.37a14.26 14.26 0 0 1 3.94 2.62c9 9.61 19.2 18.17 26.47 29.37 1.38 2.11 2.79 3.8 1 6.38-2 2.9-4.66 2.28-7.11 1.42-6.59-2.29-12.19-6.49-17.59-10.66-11.53-8.89-23.91-16.52-35.63-25.11a6.27 6.27 0 0 0 -2.3-.54c-1.13-1.88-3.45-4.24-2-5.95 2.2-2.63.93-5.48 1.95-8.02z" fill="#fecdc8"/><path d="m842.12 461.17c-5.14 0-12.54-5.26-13.74-10.16a9.84 9.84 0 0 1 1.67-8.9 38.7 38.7 0 0 1 16.06-12.18c8.92-3.87 20.44.6 24 8.63 1.09 2.42 1.33 4.41-.08 6.68-4.64 7.48-19.34 15.91-27.91 15.93z" fill="#fa5c4c"/><path d="m1065.64 1032.61c-1 2.54.25 5.41-1.93 8-1.43 1.71.89 4.07 2 5.95q-.21 7.82-.44 15.62a5.89 5.89 0 0 1 -4.3-3c-1-1.68-2.55-2.29-4.51-2.46-6-.55-11.16-3.29-16-6.74q.33-8.85.67-17.69c8.51.13 8.84.05 11.86-8.1 4.26-11.51 8.28-23.1 12.41-34.66q.15 21.56.24 43.08z" fill="#4a2f8b"/><g fill="#fa5c4c"><path d="m975.83 347.84c-5.87.94-9.37-3.5-12.76-8a2.56 2.56 0 0 1 -.42-2.18c5.77-10.66 12.28-20.63 25-24.09 3.34-.91 15 5.45 16.5 8.76a2.35 2.35 0 0 1 .08 2.23c-4.22 8.31-9 16.3-18.21 19.78-3.17 1.16-5.61 4.28-10.19 3.5z"/><path d="m782 495.63a8 8 0 0 1 7 2.57 28.84 28.84 0 0 0 5 3.87c4.88 3.25 5.63 5.3 2.07 9.77a47.31 47.31 0 0 1 -23.24 15.73c-5.77 1.78-11.06-2.46-16.08-5.31-1.25-.71-1-2.19-.51-3.56 4.15-11.09 8.8-16.33 19.55-21.8 1.79-.97 3.75-1.76 6.21-1.27z"/><path d="m656 666c-9-1.11-14.95-12.11-9.88-19 3.65-5 7-10.4 12.43-14.1 8.55-5.86 16.07-1.75 20.45 6.43a6.09 6.09 0 0 1 .17 4.65 41.3 41.3 0 0 1 -19.83 21.61c-1.07.5-2.55.29-3.34.41z"/><path d="m910.11 405.59c-6.85.78-10.13-4.94-14.57-8.33-2-1.56.22-9.55 3.84-12 5.78-3.92 10.42-9.94 18.23-10.59 1.56-.13 3.07-1 4.41.23a56.29 56.29 0 0 0 9.84 6.58c3.65 2.09 2 6.45 1.13 9.46-1.71 5.84-16.52 14.87-22.88 14.65z"/><path d="m1272 1179.32c3.08-.55 6.29.51 7.65 4.34 1 2.73 3.31 4.07 4.94 6.1 3.37 4.22 3.42 5.12-.39 8.39a31 31 0 0 1 -26.54 7.14 16.91 16.91 0 0 1 -10.28-6.94c-1.7-2.39-1-6.85 1.77-9.85 5.85-6.5 13.62-8.66 22.85-9.18z"/><path d="m703.63 591.06c-2.75-5.28-8.77 1.35-12.25-3.12-.63-.8-2.1-2-1.51-2.36 4.45-2.53.58-6.36 1.67-9.33.27-.73.06-1.84.53-2.24 6.32-5.48 12.65-11.82 21.28-12.27 5.32-.29 9.76 4.63 13.93 8.14 1.71 1.44.94 4-.53 5.82a46.73 46.73 0 0 1 -21.1 14.91 19.21 19.21 0 0 1 -2.02.45z"/><path d="m1432.12 1100.23a10.1 10.1 0 0 1 -4.11 8c-3.68 3-7.44 6-11.15 8.93-4.52 3.62-9 3.93-13.69.2-2.81-2.26-7.93-3.62-7.73-7.08a20.15 20.15 0 0 1 4.1-10.22c3.27-4.32 7.41-7.49 11.73-10.52a6.62 6.62 0 0 1 6.83-.85c4.41 2.31 8.59 5.06 12.81 7.73 1.25.79 1.09 2.28 1.21 3.81z"/><path d="m1338.62 1174.73a22.52 22.52 0 0 1 -13.62-8 4.29 4.29 0 0 1 .14-5.84c5.31-5.6 11-10.89 18.76-12.83 4.37-1.09 8.87-1.72 12.38 2.75 1.18 1.52 3.66 2 5.43 3.08 3.65 2.29 4.28 3.85 1.42 7-6.42 7.25-14.2 12.43-24.51 13.84z"/><path d="m682.66 731.27c-15.56.06-31.11.2-46.67.14-5.45 0-11 1.65-16.36-.76 1-1.8.14-2.85-1.27-4-3.6-2.89-3.4-6.63-1.11-10 3.61-5.26 4.86-12.38 12-15 2.09-.77 3.48-2 5.59-.07 1.32 1.17 3.33 1.52 4.91 2.43 5.75 3.28 7.27 8.46 3.45 13.91-1.52 2.16-2.47 4.68-4.29 6.58s-3.69 3.4-6.47 5.93z"/><path d="m1470.83 1057.27c-4.21-.63-7.21-3.83-10.63-6.2-1.12-.78-.9-2.33-.35-3.66 3.72-9 9.31-16.4 18.11-21.06 2-1.09 3.79-1.67 5.67.34a14 14 0 0 0 3.34 2.09c7.81 4.51 8.22 5.45 4.1 13.46-3.21 6.24-8.76 10.26-14.61 13.76-1.46.89-3.58.84-5.63 1.27z"/><path d="m1185.44 1211.42c6.08-1 10.31 1 11.5 7.58a5 5 0 0 0 .6 1.46c.92 1.78 3.69 2.94 2.52 5.38a10.11 10.11 0 0 1 -6.43 5.5 54.15 54.15 0 0 1 -14.06 2.34c-6.21 0-11.11-2.49-14.29-8-2.46-4.27-1.74-7.64 2.73-9.74 5.48-2.6 10.99-5.55 17.43-4.52z"/><path d="m1568.28 915.71a73.61 73.61 0 0 1 14.39 0c4 1.82 5.09 4.44 3.28 8.72-3 7.15-7.29 12.54-15.25 14.6-4 1-7.27 0-10.49-1.9-4.25-2.48-4.31-5.09-2.41-10 2.07-5.43 7.12-7.54 10.48-11.42z"/><path d="m1545.89 974.83c-.67 3.73-2.94 6.75-5 9.7a21.72 21.72 0 0 1 -5.73 5.38c-6.05 4-13.88 3.09-18-2.55a3.48 3.48 0 0 1 .11-4.41c3.3-4.39 5.81-9.44 10.09-13 5.53-4.62 14.14-3.32 17.86 2.58a8.87 8.87 0 0 1 .67 2.3z"/><path d="m1088.17 1246.63c5.08-8.68 12.28-15.15 21-20.06 3.36.15 5.21 2.16 6.33 5.09.75 2 1.38 4 2.27 5.9.74 1.61 3.58 2 3.09 4.2-.64 2.89-3.64 2.7-5.77 3.52-8.85 3.35-17.74 5.26-26.92 1.35z"/></g><path d="m565.5 730.18c-4.75 1-9.59-.16-14.29.38-4 .47-8.35-1.92-12.34 2.64-2 2.34-5.63-3.19-10.1-3.11q-33.48.63-67-.53c-32.95-1.16-65.91-1.26-98.86-1.7a11.87 11.87 0 0 1 -3-.82c10.61-.09 21.22-.31 31.82-.24 31 .2 62.09.25 93.12.88 25.63.52 51.26 1.6 76.91 1.47a5.5 5.5 0 0 1 3.74 1.03z" fill="#9c83eb"/><path d="m1882.45 915.08c1.65-1.21 3.57-.81 5.39-.81q54.51 0 109 0c1.32 0 2.64.19 4 .29-1.72 1.85-4 1.15-6 1.15q-53.43.06-106.86 0a44.62 44.62 0 0 1 -5.53-.63z" fill="#9c83eb"/><path d="m1826.08 914.6-.27-.52c15 0 30 .06 45 .18 2.86 0 5.83-.66 8.56.84-12.3 1.49-24.65.41-37 .52-5.37.04-10.99 1.28-16.29-1.02z" fill="#9c83eb"/><path d="m726.53 731.7c-12.69 0-25.38.54-38-.37z" fill="#fa5c4c"/><path d="m1029.62 538.44a3.6 3.6 0 0 1 -.07-3.06c1.24.99 1.45 2.01.07 3.06z" fill="#ccf0ed"/><path d="m992.37 1048.28c5.69 1.11 10.33 5 16.4 5.57 3.55.32 3 4.53 2.43 7.34-1.43 6.9-2.2 13.82-5.48 20.44-3.57 7.22-5.56 15.28-7.8 23.1-1 3.37-2.94 6.16-4.31 9.26-2.75 6.21-6.51 7.15-12.93 4.83-3-1.08-4.23-2.79-4.22-5.82 0-5-.07-10-.11-15.08-.65-10.51 2.19-20.82 1.76-31.35-.28-6.93 5.27-11.09 8.64-16.26 1.34-2.07 3.48-2.1 5.62-2.03z" fill="#fecdc8"/><path d="m846.75 840.23c-7.34-7.3-17.18-11.83-23.29-20.45 1.86-2.81 4.62-1.1 7-2.28-3.15-3.08-1.4-5.69.94-8 2.07-2 4.15-.83 6.44.2 5.69 2.55 11.58 4.64 17.32 7.1 2 .84 3.71-.68 5-.47 3.79.6 7.46 2.06 9.9 5.58 4.44 6.41 9 12.7 13.59 19 1.59 1.76 3.29 3.43 4.73 5.3 2.41 3.12 2.38 6.71.15 9.38a6.68 6.68 0 0 1 -8.57 1.88c-10.05-4.91-20.88-8.38-29.65-15.72-.95-.75-2.31-1-3.56-1.52z" fill="#fdccc8"/><path d="m946.15 1484.72c-2.63 1.65-4.54 4.48-7.95 4.85l-.44-.51c.18-3.11 2.61-4.51 4.7-6.16.68 1.74 2.25 1.65 3.69 1.82z" fill="#9c83eb"/><path d="m1797 899.54c-.13-1.31-5.28.46-1.61-3.59 12.22-13.49 24.25-27.2 35.69-41.37 11.27-14 21.34-28.58 28.33-45.56a144.59 144.59 0 0 0 9.77-40.25c1-9.94-.93-20.1-3.28-29.92-5.44-22.7-16.88-42.57-29.45-61.91-7.45-11.48-14.87-23-22.76-34.16a99.94 99.94 0 0 1 -8-14.25c-4.48-9.38-11.47-16.95-17.1-25.48-4.2-6.36-7.62-13.23-11.27-19.94-4.66-8.6-12.26-14.16-19.89-19.76-19.4-14.25-42-21.67-64-30.26-10.12-3.93-15.78-12.29-16.6-22.9a332.22 332.22 0 0 1 -.47-34.14 181.5 181.5 0 0 0 -1.1-26.9 17.57 17.57 0 0 1 2.88-12.85 11.22 11.22 0 0 1 .92-1.3c11.71-12.6 11.69-27.75 9.35-43.36-.66-4.41-.56-8.94-2.48-13.16-1.57-3.48-.13-6 3.08-7.84s6.12-4.23 9.28-6.18c8.18-5 13.7-12.69 17.69-20.85 6.12-12.5-1.58-22.57-12-25.54-3.89-1.11-7.89-.89-11.89-.77-4.39.13-5-.67-3.08-4.23 6-11 9.28-23 13.09-34.74a384.53 384.53 0 0 0 13.8-55.51c1.28-7.71 2-15.64-1.6-23.44-2.16-4.72-.27-10.33-.62-15.56-.41-6.28-1.5-12-4.91-17.32l-.52-.41c-6.23-7.17-11.51-15.2-19.78-20.45-12.23-7.77-26.25-9.35-40-12.34-11.49-2.51-23.06-3-34.68-3.57-5.86-.29-11.44-2.16-17.13-3.44a6.12 6.12 0 0 1 -4.24-3.31c15.68-1 31.37-.11 47.06-.2 23.15-.11 46.33-.28 69.45.68 27.91 1.17 55.83.17 83.73 1.18 4.56.16 9.23 2.28 13.78-.85 2.41-1.65 3.5 2.35 6.29 2.13 9.25-.73 18.63 1 27.8-1 3.6-.78 6.61 1 10 1q66.2-.11 132.38.33c10.68.06 9.55-1.38 9.56 9.18q.06 62.65 0 125.31v53.43c-.07 39.06-.23 78.12-.24 117.17 0 52.17-.16 104.35.22 156.51.28 37.69-1.4 75.36-.94 113 .24 19.31-.8 38.61 0 57.9.72 18.23.13 36.41-.43 54.61a6.61 6.61 0 0 0 -5.31 3.14c-10.4 14.71-26 24-38.4 36.56a35.64 35.64 0 0 1 -7 5c-1.14.7-2.66 1.09-3 2.43-.92 4.16-4.23 4.87-7.56 6a36.89 36.89 0 0 0 -6.94 3.83c-4.68 2.89-9 6.62-14 8.65-10.25 4.15-20.86 7.38-31.31 11-7.79 2.72-16.12 3.74-25.36 8h138.87c-1.86 2.25-4.43 1.27-6.66 1.27q-69 0-138-.09c-16.48.15-32.93.31-49.41.39z" fill="#fdccc8"/><path d="m1362.52 28.52c.2.61 0 1.18-.58 1.26-.41.06-.89-.32-1.33-.51.2-.44.3-1.11.63-1.25s.84.31 1.28.5z" fill="#9c83eb"/><path d="m924.18 824.62a14.62 14.62 0 0 1 -3.85 7.61 1.84 1.84 0 0 1 -2.13.52c-7.6-3.09-15.6-4.66-20.74-12.75-6.44-10.13-14.52-19.22-20.52-29.73-2.13-3.72-3.81-7.18 1-10.12 1-.6.9-1.81 1.34-2.73 2.28-4.84 2.2-4.27 7.69-2.87 6.45 1.65 12.14 5.63 19.21 5.49 4.32-.08 5.85 5.11 6.91 7.61a175.74 175.74 0 0 1 11.07 36.1 5 5 0 0 1 .02.87z" fill="#fdccc8"/><path d="m965.26 786.71c1.45 7.26-1.81 14.08-2 21.19-.11 3.49-4.15 7.18-7.6 6.52-6.15-1.16-12.93-2-15.13-9.48-3.16-10.78-7.4-21.27-6.48-33 .42-5.34 4-8.38 6.26-12.38.87-1.55 2.85-1.79 5-1 4.64 1.7 9.24 3.53 13.94 5.08s5.1 7 5.93 11.22c.68 3.8.08 7.88.08 11.85z" fill="#fdccc8"/><path d="m1049.21 787.62c.07 1.41-1 1.58-2 1.72s-2.21.2-2.4-1 1-1.61 2-1.86a1.87 1.87 0 0 1 2.4 1.14z" fill="#4a2f8b"/><path d="m360.91 1604.2c-11.59.73-22.65 5-34.23 5.52-12.75.57-25.74 2-37.45-5.24.21-1.75-.67-3-1.73-4.27-3.22-3.87-6.56-7.67-9.47-11.77-7.5-10.57-12.91-22.14-17.35-34.37a187.73 187.73 0 0 1 -11.29-56.63c-.39-9.57-.37-19.18.07-28.74.36-7.64.94-15.41 2.71-22.81 1.73-7.18 3.29-14.52 4.56-21.67 2.33-13.17 7.21-25.39 11.5-37.79 5.78-16.76 13.4-32.84 20.44-49.12 9.65-22.3 21.17-43.88 28-67.36 3.11-10.66 6.8-21.13 9.61-31.9 3.11-11.9 4-24 5.72-36 1.64-11.15-2.8-19.49-13.13-25.06a17.26 17.26 0 0 0 -4.12 11.72c.12 5.07-1.28 10-2.35 14.88-4.39 20-11.74 39-20.27 57.52-5.75 12.46-10.88 25.22-17.5 37.31-5.19 9.5-8.9 19.84-13.83 29.4-7.67 14.86-13.72 30.32-19.84 45.76-8.31 21-14.06 42.78-18.3 64.86a167.34 167.34 0 0 0 -2.2 45c1.51 18.58 5.14 36.69 12.05 54.07.76 1.9 1.14 3.56-.91 4.86a134.66 134.66 0 0 0 -28.73-22.37c-11.08-6.38-15.74-17.75-15.93-30.39-.25-16.47.66-32.88 3.83-49.15 2.07-10.64 5-21.2 4.43-32.27-.37-6.83-.51-13.69-.27-20.53.3-8.67-2.86-16.72-4-25.13a103.35 103.35 0 0 1 2.07-36.37c3.7-16.47 12.18-30.26 22.15-43.55 7-9.32 14.69-18.19 20.9-27.95 11.62-18.28 20.66-37.68 18.34-60.46-2-19.57 5.1-37 13.47-54.1 5.56-11.33 14-20.47 22.24-29.72 7.06-7.89 14.07-15.71 19.57-24.93 5.24-8.78 8.81-18.12 12-27.67 4.43-13.35 6.62-27.24 9.14-41.06 2.85-15.62 5.24-31.44 11.83-46.1 4.42-9.82 11-18.09 18.78-25.5.19-.19.34-.46.56-.56 15.48-7.24 23.89-21.77 34.51-33.89 14-16 30.07-28.62 50.12-36.46 14.14-5.53 28.36-9 43.53-8.29a7.59 7.59 0 0 0 2.38 0c12.26-3.75 24.82-1.25 37.18-1.33 11.54-.08 21.87 5.78 32 11.14a115.76 115.76 0 0 1 15.3 9.91c10.05 7.57 21.9 11.75 33.23 16.88 14 6.34 28.74 10.79 42.13 18.6 12.58 7.34 22.5 17.47 32.11 28 12.06 13.28 21.7 28.13 28 45a196.21 196.21 0 0 1 10.73 39.88 492.34 492.34 0 0 1 5.17 69c0 9.84-.52 19.62 3.2 29 7.5 19 14.63 38.06 26 55.23 4.08 6.17 7.1 13 10.06 19.83a120.41 120.41 0 0 0 8.93 16.88c6 9.38 9 19.76 11.07 30.44 2.18 11.16 3.89 22.4 5.81 33.61.32 1.84.81 3.66 1 5.5.32 3.51-1 5.48-4.93 5.45-9.58-.07-19.16 0-28.74.1-4-1.32-6.07-4.08-7.64-8.14-5.36-13.83-11.36-27.39-17-41.11-1.4-3.41-1-8.37-4-10.15-4.84-2.9-.79-6.86-2.43-9.7a32.52 32.52 0 0 1 -3.13-8.09c-2.38-8.67-5.06-17.26-7.52-25.91a4.56 4.56 0 0 0 -4.5-3.72c-1.69-.11-3.84.22-4 1.81-.84 6.71-4.49 13.4-2.07 20.07 1.31 3.59 1.21 6.91 1.69 10.42 2.06 15.24 6.39 29.94 11.34 44.51 3.39 10 8.26 19.43 10.25 29.87-13.71.84-27.36-.71-41-1.09-2.37-.07-4.77-.24-6.8-1.74-.14-2.38.08-4.84-.47-7.12a165.46 165.46 0 0 1 -4.23-40.88c.06-5-.54-10.11.47-15.1.35-1.75-.49-2.46-1.77-3-1.54-.64-2.39.32-3.2 1.49-1.89 2.73-1.72 6.08-2.81 9.06-.81 2.21-1.72 4.71 1.63 5.94.54.2 1.74.91.37 1.4-4.84 1.7-2 6-3.16 8.94-4.7 12.35-3 25-1.13 37.54a21.58 21.58 0 0 1 -10.74-1.9c-4.62-2.15-10-1.59-15-1.28-12.46.77-24-3.76-35.93-5.77a9.09 9.09 0 0 1 -4.93-2.38c-5.92-6.52-10.72-13.65-11.82-22.76-.39-3.19.5-4.34 3.67-4.36 8.25 0 16.15-2.66 24.29-3.44a26.19 26.19 0 0 0 13.66-5.66c13.26-10 20.21-24.1 25.83-39.13a355.69 355.69 0 0 0 16.22-60.46c1.38-7.51 1.58-15.27 2-22.93.32-5.55-.29-11.16 1.64-16.55a6.33 6.33 0 0 0 .17-1.58c.53-7.65-2.34-10.34-10-9.42l-2.59-2.42c6.17-3 12.37-6 18.51-9 4.11-2 5.08-3.68 2.6-7.42-2.31-3.49-.86-5.67.45-8.62 1.39-3.14 4-5.68 4.46-9.26.3-2.27 1.82-4.93-1.35-6.21-2.71-1.11-5.68-1.89-8 1.07-1.95 2.51-3.86 5.06-5.81 7.58-1.06 1.37-2.37 2.25-4 1-1.3-1-1-2.45-.41-3.63 1.85-3.8 3.86-7.51 5.77-11.28 1.11-2.21 3.93-4.46.7-6.87-2.5-1.86-5.36-3.85-8.29-.33-.26.31-1 .26-2.24.56-1.25-4.4-2.56-8.88-3.8-13.37-3.26-11.7-6-23.6-9.93-35.06a155.78 155.78 0 0 1 -5.68-19.82 69.28 69.28 0 0 0 -13.82-29.15c-7.63-9.71-19.24-12.26-31.45-11.5a19.65 19.65 0 0 0 8.73 3.64 19.72 19.72 0 0 1 13.81 9.85c2.72 5 5.11 9.54 4.19 16.26-1.25 9.18-6 15.88-12.11 20.91-10.41 8.62-23 13.91-36.25 17.28-19.1 4.83-38.57 7.44-58.06 9.83a166.84 166.84 0 0 1 -22.92.86 52.17 52.17 0 0 0 -27.32 7c-4.53 2.61-11.3 2.58-12.74 9.45-2.95-.52-5.34.38-7.77 2.23-13.46 10.27-19.9 24.46-22.73 40.57-2.91 16.54.15 32.46 5 48.35 2.89 9.47 7.65 18 11.61 27.71-4.67-.29-7.21-3.18-9.77-5.93a47.62 47.62 0 0 1 -3.38-4.44c-5.45-7.55-10.93-9.34-19.55-6.42-9.55 3.24-16.27 9.87-21.09 18.36a17.41 17.41 0 0 0 4.89 22.16c6 4.43 12.57 8.06 19.92 9.71 5.81 1.31 11.26 4.91 17.76 2.55 2.07-.75 2.82 1.75 3.63 3.46 5.2 10.89 12.8 20 21.16 28.59 1.3 1.33 2.61 2.89 4.24 3.58 9.57 4 10 12.81 11 21.12.55 4.72.2 9.55.3 14.33.17 7.71.6 15.37 3.92 22.54l-4 6.52c-2.12.14-3.1 1.9-4.27 3.23-12.28 14.09-27.24 25.29-40.76 38.05a2.38 2.38 0 0 1 -1-2.8c5-12.46 2.45-25.75 4-38.59 1.53-12.46.06-25.23-1.35-37.78-.62-5.52-2.08-11-7.35-14.39-2.64-1.69-4.62-1.31-5.41 1.81-1.09 4.22-3.13 8.17-3.09 12.74.06 5.51.55 11.27-.8 16.5-3.78 14.66-2.3 30-6.71 44.62-3.41 11.32-4.82 23.25-7.58 34.82-1 4.27-4.3 8.06-3.15 12.83-2.42 6.08-7.27 10.48-11.23 15.36-17.95 22.06-27.1 47.52-31.36 75.3-2.4 15.64 0 30.3 4.27 45.35 9 31.3 26.36 57.28 47.25 81.62 10.67 12.42 22.32 23.27 36.3 31.7.62.37 1.32 1 .45 3-21.61.89-43.45-3-65.41-4.12-.43-2.32-2.21-3.32-3.95-4.65-7.14-5.49-14.64-10.93-19.76-18.28-8.15-11.69-16.49-23.25-23.82-35.54-12.79-21.46-20-44.34-20-69.34 0-23.84 5.46-46.49 13.48-68.93 5.06-14.16 11.69-27.52 18.36-40.75a361.35 361.35 0 0 0 24.33-61.25c2.72-9.3 3.4-19.07 3.8-28.85.32-8-2.1-15.65-2.09-23.45 0-6.07-3.89-9.63-6.6-13.91-1.34-2.11-4.61-2.67-7.36-1.88s-2.22 3.24-2.42 5.31c-1.05 10.53-2.1 21-3.22 31.57-.6 5.68-4.42 11-2.09 17-4.07 4.76-5.17 10.82-7.41 16.42-10.06 25.11-24.33 48.13-36.75 72.07a208.56 208.56 0 0 0 -18.34 48c-6.15 26-6.57 52.17 1.28 77.85a151.3 151.3 0 0 0 20.72 42.67c4.86 6.94 9.8 13.84 14.92 20.62 9.52 12.62 20.29 23.77 33.32 32.76 1.86 1.34 4.49 1.87 5.4 4.45z" fill="#cdcde6"/><path d="m471.19 1457.45c-3.76-10.63-7.47-21.28-12.22-31.52-4.3-9.29-8.56-18.57-14.32-27.13-7.52-11.17-14.39-22.76-22.49-33.55a24.84 24.84 0 0 0 -5.34-5.76c8.12-9 16.24-18 25.79-25.72 7.82-6.3 14.76-13.68 22.1-20.58 1.88-1.76 3.77-3.49 6-5.58-1.13 49.48 24.94 71.73 43.9 79.16-3.25-18.14 6.55-30.46 18.48-41.54a106.56 106.56 0 0 1 17.45-13.71c2.75 11.74 8.23 22.2 14 32.39 4.1 7.23 5.79 15.78 11.95 21.85 1.77 10.36 7.63 19.06 12 28.3 3.69 7.86 7.43 15.75 11.25 23.57 4.26 8.72 7.2 18.06 11.94 26.59 11.46 20.6 21.28 42 31.47 63.24a35.91 35.91 0 0 1 1.72 3.6c1.33 3.85.45 5.82-3.5 6.2-18.42 1.79-36.84 5.75-55.38 3-15.07-2.23-30.44-4.18-44.54-10.26-9.87-4.25-19.64-9.25-26.32-18.49a50.33 50.33 0 0 0 -8.59-9.15c-13.46-11.17-19.47-26.76-25.5-42.32-1.61-4.15-3.75-8.24-3.39-13 .12-1.59-.46-3.42-2.3-3.73-2.15-.36-2.25 1.72-2.88 3.12-1.6 3.57-.47 7.41-1.28 11.02z" fill="#fdccc8"/><path d="m688.73 1309.44c-.59 21.17 3.6 41.6 10.56 61.41 2.34 6.65 4.53 13.37 7 20-1.66.78-4.08 1.41-1.89 3.83a176.56 176.56 0 0 0 12.6 13.14 152.22 152.22 0 0 1 36.44 49.58c5.94 12.79 8.18 27.11 3.78 41.52a4 4 0 0 1 -2.84 3.13c-23.12 8.37-45.33 19.17-68.85 26.45-8.57 2.66-17.65 3.65-26.49 5.44-2.85.58-3.43-1.48-4.49-3.39a267.08 267.08 0 0 1 -12.39-26.55c-5.52-13.24-12.85-25.56-19.62-38.14-8.32-15.45-14.14-32-22.17-47.59-12-23.2-21.37-47.65-34.44-70.32-2.73-4.75-4.43-10.09-7-16.18 28.5 4.78 54.81 13.6 82 22.83.49-20.24-8.12-37.2-18.19-54.19a19.35 19.35 0 0 1 9.63-.17c14.7 3.86 29.85 4.81 44.86 6.66 3.89.46 7.92.45 11.5 2.54z" fill="#fdccc8"/><path d="m231.61 1542.32c2-1.3 1.67-3 .91-4.86-6.91-17.38-10.54-35.49-12.05-54.07a167.34 167.34 0 0 1 2.2-45c4.24-22.08 10-43.89 18.3-64.86 6.12-15.44 12.17-30.9 19.84-45.76 4.93-9.56 8.64-19.9 13.83-29.4 6.62-12.09 11.75-24.85 17.5-37.31 8.53-18.51 15.88-37.52 20.27-57.52 1.07-4.91 2.47-9.81 2.35-14.88a17.26 17.26 0 0 1 4.12-11.72c10.33 5.57 14.77 13.91 13.13 25.06-1.76 12-2.61 24.15-5.72 36-2.81 10.77-6.5 21.24-9.61 31.9-6.84 23.48-18.36 45.06-28 67.36-7 16.28-14.66 32.36-20.44 49.12-4.29 12.4-9.17 24.62-11.5 37.79-1.27 7.15-2.83 14.49-4.56 21.67-1.77 7.4-2.35 15.17-2.71 22.81-.44 9.56-.46 19.17-.07 28.74a187.73 187.73 0 0 0 11.29 56.63c4.44 12.23 9.85 23.8 17.35 34.37 2.91 4.1 6.25 7.9 9.47 11.77 1.06 1.28 1.94 2.52 1.73 4.27-10-2.65-16.81-9.79-23-17.22a292.3 292.3 0 0 1 -20.58-28 55.35 55.35 0 0 0 -9.34-10.65 26.79 26.79 0 0 1 -4.71-6.24z" fill="#9c83eb"/><path d="m360.91 1604.2c-.9-2.58-3.54-3.11-5.44-4.43-13-9-23.8-20.14-33.32-32.76-5.12-6.78-10.06-13.68-14.92-20.62a151.3 151.3 0 0 1 -20.72-42.67c-7.85-25.68-7.43-51.87-1.28-77.85a208.56 208.56 0 0 1 18.34-48c12.42-23.94 26.69-47 36.75-72.07 2.24-5.6 3.34-11.66 7.41-16.42-2.33-6 1.49-11.32 2.09-17 1.12-10.52 2.17-21 3.22-31.57.2-2.07-.26-4.53 2.42-5.31s6-.23 7.36 1.88c2.71 4.28 6.61 7.84 6.6 13.91 0 7.8 2.41 15.43 2.09 23.45-.4 9.78-1.08 19.55-3.8 28.85a361.35 361.35 0 0 1 -24.33 61.25c-6.67 13.23-13.3 26.59-18.36 40.75-8 22.44-13.5 45.09-13.48 68.93 0 25 7.23 47.88 20 69.34 7.33 12.29 15.67 23.85 23.82 35.54 5.12 7.35 12.62 12.79 19.76 18.28 1.74 1.33 3.52 2.33 3.95 4.65-5.97 1.25-11.94 2.74-18.16 1.87z" fill="#9c83eb"/><path d="m795.79 1590c-5.52-10-11.13-19.91-16.54-30-6.78-12.58-13.54-25.17-20-37.95-1.58-3.14-3.45-4.4-6.68-4.25 8.54-3.23 15.55-9.42 24.16-12.5 1.7 1.07 2 3.06 3 4.59.61.94 1.59 2.09 2.44 1.63a83.59 83.59 0 0 0 10.83-6.52c3-2.27-1.29-4.74-.46-7.25 2-4.14 6.34-5.33 9.79-7.61 1.74-1.15 3.27-.67 4.84 1 5.81 6.14 11.1 12.61 14.91 20.24a130.73 130.73 0 0 0 11.6 18.87c6.22 8.47 10.87 18 17.51 26.2 2.49 3.06 2.23 5.46-1 7-4.48 2.23-8.17 5.85-13.09 7.21-7.16-8.24-7.14-8.21-16.2-2.63-4.29 2.64-7.54 5.69-5.77 11.35-4.75 6.62-11.91 8.87-19.34 10.62zm4.22-75.62c-5.34.51-7.88 3.87-11 6.18-1 .74-.41 1.84 0 2.87 2.61 7.15 3.8 7.55 10.35 3.35 1.11-.71 2.32-1.27 3.48-1.9 1.5-.8 3.1-2.09 2-3.65-1.77-2.37-2.25-5.97-4.84-6.81zm8.22 49.08c4.59-3 8.33-5.41 12.08-7.81 1.64-1 3.3-2.16 2.21-4.39s-2.67-3.22-5.2-2.29a64.8 64.8 0 0 0 -9.44 4c-2.37 1.3-3 2.72-1.77 5.1.69 1.48 1.16 2.98 2.12 5.43zm.37-30.48a104.57 104.57 0 0 0 -9.27 6.23c-1.22 1-.4 3.07.28 4.52a2.39 2.39 0 0 0 3.33 1.3c3.29-1.67 6.7-3.19 9.41-5.83a2.84 2.84 0 0 0 .55-3.62 4.17 4.17 0 0 0 -4.3-2.58z" fill="#9c83eb"/><path d="m1001.93 1323.19c-2.27-2.34-3.24-5.39-4.56-8.26-6.24-13.54-14.49-25.88-23.4-37.72-6-8-13-15.23-19.54-22.85a22.07 22.07 0 0 1 -2-3.36c3.55-5 7.73-9.22 13.9-10.9a4.91 4.91 0 0 1 3.59 1.27c2.26 2.22 4.45 3.59 7.24.49 2.51-2.78 5.46-5.19 1.66-9.06-.49-.5-.55-1.42-.81-2.15 1-6.73 7.4-7.63 11.7-10.74 1.5-1.09 2.89.44 4.12 1.51a202.35 202.35 0 0 1 28.7 30.81c5.89 7.86 12.43 15.26 14.79 25.16 7 5.63 1.38 9.31-2.15 13.17-1.55 1.68-2.74 4.11-5.62 4-1.47-1.28-1.63-3.17-2.31-4.84-1-2.42-3.32-2.39-5.24-1.77-2.46.78-4.14 5.23-3.11 7.76 1.17 2.85 2.6 5.59 3.91 8.38a85.62 85.62 0 0 1 -20.87 19.1zm7.83-58.29c-.18-.38-.32-1.26-.85-1.7a53.21 53.21 0 0 1 -7.66-7.86c-.89-1.13-2.29-1-3.54-.14-3.38 2.41-3.83 6.39-1.05 9.72 1.18 1.4 2.32 2.84 3.6 4.14 1 1.06 2.24 3.27 3.67 2.23 2.22-1.6 3.81-4.09 5.83-6.39zm4.62 4.93c-7.54 7.61-7.47 8.37 1.13 17.28 7.87-6.34 7.84-7.03-1.13-17.28zm-26-13.92c6.66-6.09 6.66-6.09 2.62-10.08-3.53-3.48-5.42-3.71-8-1-3.36 3.75-2.93 4.64 5.4 11.08z" fill="#9c83eb"/><path d="m398.82 1354.14c-1.15-4.77 2.13-8.56 3.15-12.83 2.76-11.57 4.17-23.5 7.58-34.82 4.41-14.65 2.93-30 6.71-44.62 1.35-5.23.86-11 .8-16.5 0-4.57 2-8.52 3.09-12.74.79-3.12 2.77-3.5 5.41-1.81 5.27 3.37 6.73 8.87 7.35 14.39 1.41 12.55 2.88 25.32 1.35 37.78-1.59 12.84.93 26.13-4 38.59a2.38 2.38 0 0 0 1 2.8c-10.6 7.86-18.94 18.1-28.57 27-1.25 1.05-2.25 2.32-3.87 2.76z" fill="#9c83eb"/><path d="m731.71 1299c-2-10.44-6.86-19.91-10.25-29.87-5-14.57-9.28-29.27-11.34-44.51-.48-3.51-.38-6.83-1.69-10.42-2.42-6.67 1.23-13.36 2.07-20.07.2-1.59 2.35-1.92 4-1.81a4.56 4.56 0 0 1 4.5 3.68c2.46 8.65 5.14 17.24 7.52 25.91a32.52 32.52 0 0 0 3.13 8.09c1.64 2.84-2.41 6.8 2.43 9.7 3 1.78 2.57 6.74 4 10.15 5.64 13.72 11.64 27.28 17 41.11 1.57 4.06 3.6 6.82 7.64 8.14z" fill="#9c83eb"/><path d="m798.76 1420.45 4.86-.28c1.83.54 3.61.83 5-.87 3.12-.43 5.15.87 5.91 3.91 1.38 5.46 4.35 10.15 6.86 15.1 4 8 7.85 16.4 5.92 25.52-1.66 7.81-3.31 16-9.91 21.65-1.72-.35-2-1.74-2.74-2.83-5.41-8.27-6.38-8.52-14.77-3.42-1.33.81-2.36 2.11-4.06 2.26-2.39-1.71-1.09-3.68-.48-5.69 1.77-5.84 3.57-11.73 3.61-17.85.14-12.5-.1-24.95-.2-37.5z" fill="#cdcde6"/><path d="m798.76 1420.45c.1 12.5.34 25 .25 37.5 0 6.12-1.84 12-3.61 17.85-.61 2-1.91 4 .48 5.69l-22.39 10.51v-17.21c3.31-7.6 4.2-15.66 4.63-23.83.5-9.58-2.7-18.7-3.35-28.13 8.01-.71 16.09-.63 23.99-2.38z" fill="#9c83eb"/><path d="m534.82 1327.37c-6 6.66-11.84 11.19-16.61 16.77-4.47 5.23-9.14 10.29-13.2 15.88-2.7 3.72-4.33 3.67-7-.16-3.83-5.45-6.21-11.65-8.23-17.87-4.35-13.41-4.95-27.26-3.61-42.41 12.08 16.42 28.05 24.52 48.65 27.79z" fill="#9c83eb"/><path d="m622.82 1336.71c-5.37-.67-47.42-12.5-50.19-14.13 5.69-8.52 12.23-16.43 17.27-25.39 2.63-4.66 10.68-4.15 15.1.71a69.57 69.57 0 0 1 14.72 26c1.28 4.1 3.81 8.1 3.1 12.81z" fill="#9c83eb"/><path d="m774.77 1422.82c.65 9.43 3.85 18.55 3.35 28.13-.43 8.17-1.32 16.23-4.63 23.83-2.83-6-2.8-12.72-5.38-18.85a108.37 108.37 0 0 0 -12.88-21.85c-2.79-3.79-5.76-7.45-8.94-11.56h22.32c1.6 1.64 3.25 1.56 4.93.13a2.69 2.69 0 0 1 1.23.17z" fill="#cdcde6"/><path d="m669.57 1294.41c-1.91-12.59-3.57-25.19 1.13-37.54 1.12-2.95-1.68-7.24 3.16-8.94 1.37-.49.17-1.2-.37-1.4-3.35-1.23-2.44-3.73-1.63-5.94 1.09-3 .92-6.33 2.81-9.06.81-1.17 1.66-2.13 3.2-1.49 1.28.53 2.12 1.24 1.77 3-1 5-.41 10.06-.47 15.1a165.46 165.46 0 0 0 4.23 40.86c.55 2.28.33 4.74.47 7.12-4.8-.33-9.76.75-14.3-1.71z" fill="#9c83eb"/><path d="m1040.11 1136.3q.17-21.55.34-43.1c4 5.55 5.34 12.34 8.36 18.36 2.13 4.26 4.18 8.16 9.58 9.53 2.85.73 7 2.07 5.9 6.93-7.74 3.68-15.05 8.63-24.18 8.28z" fill="#4a2f8b"/><path d="m672 1073.12c2.79 1.87 4.21 3.43 4.15 5.74 0 1.67-1.59 1.92-2.85 2.18-1.52.31-1.68-.84-1.65-1.9.02-1.8.18-3.6.35-6.02z" fill="#cdcde6"/><path d="m476.21 1283.1 4-6.52v12.82c-3.62-1.77-2.31-4.9-4-6.3z" fill="#9c83eb"/><path d="m591.82 1549.19a2.09 2.09 0 0 1 -2.17 1.87 2.29 2.29 0 0 1 -2.3-2.6c0-.87.84-1.29 1.65-1.37a2.44 2.44 0 0 1 2.82 2.1z" fill="#9c83eb"/><path d="m1025.51 1145.29a9 9 0 0 1 2-1.15c1.36-.34 3.26-2 4-.11.88 2.22-1.44 2.89-3.16 3.49a2.85 2.85 0 0 0 -2.37-1.64z" fill="#9c83eb"/><path d="m612.48 1634.35c-.38.74-1 1.27-1.79 1-1.26-.51-3.76 1-3.68-1.09.07-1.89 2.52-.56 3.87-.89.68-.22 1.54-.1 1.6.98z" fill="#9c83eb"/><path d="m479 1480.89c-1.21-.52-1.31-1.51-1-2.58a.8.8 0 0 1 1.19-.61 2 2 0 0 1 1.16 2.56c-.16.33-.9.43-1.35.63z" fill="#9c83eb"/><path d="m1032 1249.75c-.22.39-.37 1-.66 1.11a1.13 1.13 0 0 1 -1.52-1 1.36 1.36 0 0 1 .65-1.12c.8-.26 1.34.2 1.53 1.01z" fill="#9c83eb"/><path d="m740 1075.09c-.34-.27-.92-.49-1-.82-.2-.9.41-1.4 1.25-1.38a1.33 1.33 0 0 1 1 .81c.15.91-.45 1.3-1.25 1.39z" fill="#9c83eb"/><path d="m715.49 1303.73c-.31.34-.59.91-.94 1-.95.11-1.4-.54-1.11-1.39.1-.31.85-.59 1.27-.55s.52.59.78.94z" fill="#9c83eb"/><path d="m808.67 1419.3c-1.44 1.7-3.22 1.41-5 .87 1.43-1.46 3.22-1.12 5-.87z" fill="#9c83eb"/><path d="m773.54 1422.65c-1.68 1.43-3.33 1.51-4.93-.13z" fill="#9c83eb"/><path d="m938.2 1489.57c-.63.34-1.25.71-1.9 1-.07 0-.33-.33-.5-.51l2-1z" fill="#9c83eb"/><path d="m1026.21 1147.55-3.53-.36c.56-1.2 1.71-1.53 2.83-1.9l.5.59v1.65z" fill="#9c83eb"/><path d="m792.6 1591.6a3.22 3.22 0 0 1 3.2-1.57c-.49 1.7-1.8 1.77-3.2 1.57z" fill="#9c83eb"/><path d="m1716.24 799c-2.89 9.88-8.33 18.54-13.58 27.23-2.27 3.75-3.8 8-7.08 11.14l-22.34-.08a37.43 37.43 0 0 1 -7-.93c-10.33-2-20.82-3.32-31.1-5.59-7.29-1.62-14.86-.33-22-2.71a41.44 41.44 0 0 0 -14.1-2c-2.9 0-5.85.37-8.7-.62-13.08-4.52-26.77-1.8-40.13-3.15-8.28-.84-16.76.49-25.15.57-8.06.08-15.69 2.43-23.3 4.48-9.12 2.46-18.51 4.43-26.75 9.58-.91.57-2.57-.06-3.89-.13.71-14.17 5.72-27.41 8.82-41.06 6.47-3.7 13.28-7 20.48-8.39 6.45-1.26 12.51-4.57 19.19-4.2 7.76.42 15.31-1.07 22.91-1.92 18.5-2.09 37-2.62 55.34.49 5.48.92 11.18.33 16.42 2.29 7.69 2.87 16 2.7 23.77 5.28 5 1.65 10.3 2.19 15.42 3.45 6.62 1.63 13.37 3.26 20 4.29a219.25 219.25 0 0 0 42.77 1.98z" fill="#cdcde6"/><path d="m1485.44 766.47c1.83-12.23 3.35-24.51 6.87-36.41 3.92 2.2 7.12-.75 10.29-1.89a99.07 99.07 0 0 1 32.6-5.79c13-.19 25.86 1.45 38.7 3.16 14.12 1.89 28.28 3.56 42.34 5.85 11.71 1.9 23.21 5.26 35 6.67 10.78 1.3 21.34 3.83 31.88 5.93 10.27 2 20.78 3.54 30.88 6.61a3.48 3.48 0 0 0 4.21-1.36 20.34 20.34 0 0 1 3.48 12.11c0 6.21.46 12.4-.66 18.56-6.21 2.67-12.76 4.25-19.37 2.85-7.26-1.54-14.53-2.74-21.87-3.72-11.51-1.53-22.46-5.54-33.74-8.11-3.37-.77-6.79-.42-10.17-1.65-7.43-2.7-15.27-3.93-23-5.46-8.56-1.71-17.48-1.05-25.83-4a16.7 16.7 0 0 0 -6.3-.74c-11.35.41-22.71-.19-34-.34-19.29-.25-38 2.94-56.57 7.24-1.65.39-3.12 1.02-4.74.49z" fill="#cdcde6"/><path d="m1467.2 898.17a251 251 0 0 1 .06-36.89c2.91.14 5.83.57 8.68-.42 15-5.2 30.92-6.26 46.39-9.34 7.66-1.52 15.46-.28 22.9-1.84a150.56 150.56 0 0 1 33.92-2.79c7.43.14 15-.63 22.26.61 8.9 1.54 17.72 2.78 26.75 2.64a136.06 136.06 0 0 1 15.91.38c12.32 1.25 24.6 2.88 36.89 4.35-.61 3-2.84 4.87-4.79 6.9q-13.53 14-27.16 28a64.83 64.83 0 0 0 -18.55-2.77c-11.72.13-22.94-3.44-34.59-4.07-8.63-.47-17.17-2.83-26-2.41-10.57.49-21.11-.22-31.73 1.24-9.89 1.35-20.07 0-30.07 1.82-13.87 2.53-26.5 8.23-39 14.4z" fill="#cdcde6"/><path d="m1498.27 676.64c4.21-3.36 9.06-4.59 14.29-6 13-3.5 25.43-1.4 38.15.21 7 .89 14.21.25 21.31 1.73 12.36 2.59 25 3.72 37.48 5.58 11.47 1.7 22.78 4.38 34.29 5.59 5.56.58 10.37 3.3 16.11 3.71a123.82 123.82 0 0 1 26.42 4.57c2.69.8 5.78.92 7.72 3.47 1.28 5.49 4.39 10.13 7.37 14.73a41 41 0 0 1 5 10.62c-8.87 2.65-18 1.24-27 1.44-5.54.13-11 .07-16.39-2.28-4.18-1.81-9.09-3.54-13.29-3.9-15.25-1.31-30-4.87-44.91-7.84-11.66-2.32-23.29-5.67-35.06-6.35-16.39-.93-32.77-2.76-49.3-2.2-7.41.25-14.63 3-22.11 1.45.39-3.86.69-7.73 1.19-11.57a25.52 25.52 0 0 0 -1.27-12.96z" fill="#cdcde6"/><path d="m1467.2 898.17 1.91-.19 29.84.11a11 11 0 0 0 .07 1.28q-41.12-.06-82.22-.1c-23.25 0-46.49.15-69.73.19-2.08 0-4.28.34-6.08-1.21a343.47 343.47 0 0 0 29.28-22.35c11.27-9.53 22.75-18.82 33.62-28.82q26.11-24.08 52.26-48.08c3-2.78 5.3-6.34 9.19-8 .46.48 1.12.88 1.07 1.16-1.42 8-2.31 16.27-4.63 24a57.54 57.54 0 0 0 -2.48 13.93c-.57 14.28-4 28.29-3.66 42.62.11 4.78.17 9.58.7 14.33.76 6.77 4.66 10.52 10.86 11.13z" fill="#fdccc8"/><path d="m1249.69 821.34c-.14 2 1.1 3.46 2.22 5 8.09 10.82 14.13 22.87 20.66 34.62a58.63 58.63 0 0 0 6.41 9 250.51 250.51 0 0 1 17.43 23.37c2.22 3.43 6.36 4.66 9.59 6.94-7.94 4.88-16 9.62-23.78 14.71a16.86 16.86 0 0 1 -8 2.75c-4-4.46-9.68-7.31-13-12.52-10.3-16.2-21.79-31.56-32.88-47.21-3.58-5-8.29-9.68-9.2-16.32 3.21-4.44 8.45-6.14 12.79-8.87 6-3.74 10.93-9.1 17.76-11.47z" fill="#cdcde6"/><path d="m1613.73 941.21c12.17 0 24.36-.22 36.53.17 11 .34 22 1.4 33 2.72 7.32.88 14.8.35 22.21.45a74.8 74.8 0 0 1 18.62 2.94c-7.58 8.35-15.16 16.71-23.46 24.38-4.56-3.2-10.13-3.36-15.06-3.16-21.21.9-42.08-3.05-63.17-3.56a70.88 70.88 0 0 1 -14.65-1.44 65 65 0 0 0 -13.26-1.88c1.44-5.22 6.28-7.72 9.43-11.57 2.8-3.4 6.5-6.06 9.81-9.05z" fill="#cdcde6"/><path d="m1177.24 864 26.21-13.69c1.19 2.94 3.79 4.82 5.14 7.88a244.72 244.72 0 0 0 23.46 41.23q10.21 14.61 19.34 29.89c-8.55 3.91-17.1 7.85-25.68 11.69a9.76 9.76 0 0 1 -3.14.29 35 35 0 0 1 -8.41-10.29q-14.67-28.51-30.08-56.64c-1.95-3.57-2.59-8.25-6.84-10.36z" fill="#cdcde6"/><path d="m1686 543.29c-1.38 7.93-7.67 12.84-12.77 17.69-5.8 5.51-11.51 11.4-18.69 15.7-6.78 4.06-13.76 7.64-20.84 11-4.94 2.35-9.65 5.28-15.28 6.19-3.73.61-7.46 1.11-11 .19-4.06-1.05-7.85-3-12.23-1.4a3.61 3.61 0 0 1 -3.69-1c-2.07-2.2-3.88-1.34-6.58-.91-4.88.78-9.42-2.58-14-4.43a107.26 107.26 0 0 1 -19.5-10.3 16.1 16.1 0 0 0 -6.56-2.75c5.12-2.46 10.88-3.77 14.89-8.24 1.26-1.42 2.9-1.18 4.42-.77a27.44 27.44 0 0 1 6.71 2.24c10.07 5.84 21 6.43 32.22 5.89 2.89-.14 5.81.31 8.69.11 13.24-.9 24.42-7 34.57-14.85 6.62-5.14 13.56-10 18.93-16.67 1-1.23 2.25-2.7 4-2 5.41 2.02 11.71.55 16.71 4.31z" fill="#cdcde6"/><path d="m1557.8 1009.76a131.25 131.25 0 0 1 19.07-25.76c.59.52 1.25 1.55 1.76 1.48 6-.76 12 .6 18 .57 27.35-.16 54.71-.05 82.06 0 2.52 0 5.41-1 7.31 1.79q-8.49 10.27-17 20.57c-23.31-.83-46.63-.06-69.9.76-13.73.54-27.51.45-41.3.59z" fill="#cdcde6"/><path d="m1203.33 949.16c-6.28 4.31-13.93 4.85-20.81 7.54-3.43 1.34-4.65-1.35-5.57-4-2.21-6.45-4-13.09-6.76-19.31-6-13.52-12.46-26.83-18.71-40.24-1.35-2.87-2.62-5.79-3.81-8.73-2.21-5.43-2.24-5.79 3-8.32 4.51-2.15 9.28-3.73 13.94-5.57 2.52 8.41 7.54 15.59 11.39 23.35 4.06 8.2 7 16.95 11.87 24.74a204.35 204.35 0 0 1 15.46 30.54z" fill="#cdcde6"/><path d="m1654.3 1026.21c-3.88 5.28-7.8 10.51-11.59 15.84-1 1.36-2 1.73-3.27.87-3.15-2.16-6.7-1.48-10.06-1.36-19.65.72-39.22-1.38-58.83-1.76-10.07-.2-20.54-.51-31.12-3 3.41-5.71 5.83-11.51 10.71-15.71 5.74.36 11.61-.15 17.22.52 12.59 1.49 25.25 1.57 37.86 2.44 16.32 1.18 32.78-.93 49.08 2.16z" fill="#cdcde6"/><path d="m1499 898.09 140.64.1-1.62 1.68c-14.8-.13-29.6-.34-44.41-.38-24.37-.06-48.74.1-73.11-.06-7.14 0-14.3 1-21.44-.06-.06-.43-.06-.85-.06-1.28z" fill="#cdcde6"/><path d="m1174.53 857c.39.21 1 .35 1.12.65a1.13 1.13 0 0 1 -1 1.49 1.31 1.31 0 0 1 -1.11-.61 1.19 1.19 0 0 1 .99-1.53z" fill="#9c83eb"/><path d="m1767.37 917.15c-.87-.2-1.42-.71-1-1.6a1.54 1.54 0 0 1 1.25-.69 1.19 1.19 0 0 1 1.07 1.63c-.12.32-.87.45-1.32.66z" fill="#9c83eb"/><path d="m1290.46 267.76c-1.58-1.44-1.82-3.79-.27-4.39 1.35-.51 1.47 1.85 1.19 3.23-.09.4-.59.76-.92 1.16z" fill="#cdcde6"/><path d="m1670 456.33c-.17.43-.3 1.21-.52 1.24-1 .14-.91-.76-.85-1.34.05-.42.47-.79.72-1.18z" fill="#9c83eb"/><path d="m1708.71 166.5c0 1.32-.11 2.58-1.89 2.58-.23 0-.64-.19-.65-.33-.21-1.53.78-2.21 2-2.66z" fill="#fdccc8"/><path d="m1468.15 856.05a1.85 1.85 0 0 1 -.68 2.14 1.71 1.71 0 0 1 .68-2.14z" fill="#cdcde6"/><path d="m1042.13 641.48c.3 7.56-5.74 11.44-10.76 15.94a2.79 2.79 0 0 1 -3 .08c-4.55-2-9.17-3.82-13.62-6-6.49-3.2-7.94-9.19-3.93-15.21 6.35-9.52 7.21-9.78 17.86-5.61a74.63 74.63 0 0 0 8.12 2.93c4.64 1.22 5.38 2.68 5.33 7.87z" fill="#2da4f5"/><path d="m1088.73 626.28c3.4-.55 5.92 1.21 8.65 2.12s5 2.81 8.16 2.71 4.54 2.23 4.88 5.15c.68 5.76-6 15.76-11.49 17.32a3.75 3.75 0 0 1 -2.33.09c-5.19-2.53-11.06-3.62-15.75-7.15s-5.15-6.85-1.49-12.07c1.35-1.93 2.72-3.87 4.21-5.7s3-3.08 5.16-2.47z" fill="#2da4f5"/><path d="m1162.29 646.8c-4.69-2-11.3-3.22-16.36-7.72-2.75-2.44-2.43-6.32-1.13-8.86 1.42-2.77 2.75-6.93 6.81-7 4.88-.11 10.15-1.77 14.48 2.22 1.26 1.16 3 .85 4.51 1.22 4.93 1.22 6.55 3.52 5.17 8a24.89 24.89 0 0 1 -8.19 11.51c-1.08.83-2.47.77-5.29.63z" fill="#2da4f5"/><path d="m52 1581.77c1.39-.2 1.6.66 1.75 1.41.23 1.22.83 2.67-.91 3.29-1 .35-1.43-.47-1.56-1.28-.2-1.27-.28-2.57.72-3.42z" fill="#9c83eb"/><path d="m51.76 1303.14c1.37 1.14 3.2 3 1.2 4-2.48 1.32-1.5-1.49-1.69-2.66-.07-.38.31-.87.49-1.34z" fill="#9c83eb"/><path d="m52.09 1547.22c-.25-.31-.62-.59-.69-.93-.21-1-.43-2 .43-2.85 0 0 .73.43.82.75a3 3 0 0 1 -.56 3.03z" fill="#9c83eb"/><path d="m279.25 1662.88c-.14-.44-.5-1-.35-1.29s.81-.43 1.24-.64c.14.45.5 1 .35 1.3s-.81.43-1.24.63z" fill="#9c83eb"/><path d="m314.31 1663.37c-.28.34-.51.87-.87 1-.58.18-.89-.23-.56-.7a5.53 5.53 0 0 1 1.08-.88c.12.21.24.38.35.58z" fill="#9c83eb"/><path d="m1054.54 1111.84a1 1 0 0 1 -.54-1.66c.23-.33.88-.71 1.17-.61a1.13 1.13 0 0 1 .55 1.7c-.18.31-.78.39-1.18.57z" fill="#4a2f8b"/><path d="m490.05 1147.61c-3.3.13-6.08-.21-8.73-2.84-2.37-2.36-5.73-3.74-8.7-5.47-1.83-1.07-3.81-1.89-5.6-3a4.73 4.73 0 0 1 -2.14-5.45c.52-2.39 2.51-2.5 4.36-2.63a21.64 21.64 0 0 1 8.64 1.15c2.76 1 4.67.32 5.77-2.39 1.25-3.1-1.58-3.4-3.21-4.43a56.85 56.85 0 0 0 -5.53-3.13c-2.49-1.19-3.6-3.34-3.05-5.73.63-2.68 2.52-4.72 5.66-4.68 2.64 0 5.35-.11 7.76 1.29s4.54.94 6.4-1.1c10.23-11.26 23.85-11.41 37.33-10.62a36.49 36.49 0 0 1 23 10c4.33 4 4.91 9.26 5.85 14.34.59 3.2-1.8 5.31-4.86 6.4-6.22 2.23-12.29 5-18.65 6.64-5.89 1.53-11.49 3.77-17.24 5.62a175.69 175.69 0 0 1 -27.06 6.03zm36.78-17.71c-8.51-4.26-14.94-8.61-14.1-18-3.59.37-5.78 2.37-8.25 3.83-7.59 4.49-10.23 11.65-11 19.88-.32 3.34 1.34 4.38 4.29 3.34a275.28 275.28 0 0 1 29.06-9.05z" fill="#5b33e0"/><path d="m481.83 1095c-3.82.34-5.6-.91-7.42-2a2 2 0 0 1 -.92-2.7c1.43-2.81 2.61-5.84 4.53-8.27 11.18-14.15 25.91-22.32 43.87-23.31 11.14-.61 21.69 1.91 27.75 13 1.84 3.36 1.4 4.61-2.23 5.33a345.61 345.61 0 0 0 -54.09 14.77c-4.22 1.62-8.83 1.65-11.49 3.18z" fill="#5b33e0"/><path d="m549.29 1190.35c8.75 8.81 18.52 16.15 30.3 15.47 12.83-.74 25.39-5.3 32.9-17.53 1.82-3 3.86-4.94 7.67-4.24 3.05.57 4.29 2.25 2.67 4.94-3.26 5.43-6.56 11-12.17 14.38-7.74 4.6-15.64 8.86-24.64 10.74-9.89 2.08-18.83-.84-27.82-4.29-6.91-2.64-11.85-7.88-17.43-12.7-1.33 1.57-2.48 3-3.73 4.36-2 2.19-4.32 1.74-6.42.31-1.86-1.26-1.4-3-.74-5 3.82-11.31 17.46-17.52 29.79-14.31 1.1.29 2 .82 2 2.08a2.62 2.62 0 0 1 -2.26 2.81c-3.16.45-6.48-.08-10.12 2.98z" fill="#5e33df"/><path d="m503.57 1153.09c5.25-1 9.94-1.58 14.51-2.66a149.4 149.4 0 0 0 27.72-9.64 12 12 0 0 1 3.82-1 2.71 2.71 0 0 1 2.06.88c.84 1 .13 2-.66 2.73-12.43 10.88-26.8 15.58-43.27 13.55-1.69-.2-3-1.02-4.18-3.86z" fill="#5e33df"/><path d="m1567.52 337c-4 1-7.35 1.66-10.57 2.64-3.91 1.18-7.85 1.12-11.84.89-2.33-.14-4.7-1.14-5.27-3-1.81-6-5.21-11.62-4-18.25.24-1.27 1-3.09.44-3.77-4.68-5.71.57-5.75 3.8-7 12.76-4.86 25.51-9.79 39.09-12a7.37 7.37 0 0 0 3-.79c8-5.61 15.18-2.62 21.84 2.35 5.26 3.93 10.37 8 16.21 11.83-3.48 6.45-9.9 8.47-15.58 11.28-7.21 3.56-14.64 6.69-23.17 10.54 9.24 1.82 17.34 1.74 25.18 3.82 7.66 2 12.92 7.21 18.14 12.28 4.3 4.16 2.59 10.93-2.78 14.07-4.78 2.79-10.1 4.3-15.35 5.92-9 2.79-18.65 4.34-26.84 8.65-7.2 3.79-14.48 4.2-21.91 5.32a13.68 13.68 0 0 1 -4.73-.18c-6.8-1.43-6.26-2.19-6.4-9.51-.19-10.64 5.24-18.31 10.84-26.24 2.52-3.47 7.25-4.28 9.9-8.85zm40.35-28.07a52 52 0 0 1 -8-2.17 28.52 28.52 0 0 0 -19.54.31c-3.24 1.21-6.46 2.07-9.76 3-7.87 2.18-15.82 4.27-23.17 8-1.56.77-3.38 1.42-3.12 3.94.69 6.63 3 8.52 9.84 7.69 14.11-1.73 27-7.09 39.07-14.14 4.59-2.79 10.58-1.75 14.68-6.66zm-30.82 38.9c5.06 3.58 11.61 6 10.58 14.42 9.16-2.6 18.15-2.76 26-7.35-10-16.34-23.31-17.33-36.58-7.1zm-2.93-12.48a2 2 0 0 0 1.88-1c.4-.54.43-1.09-.16-1.26-1.14-.34-1.88.4-2.36 1.32-.08.12.42.59.64.91z" fill="#5e33df"/><path d="m1547.24 434.25c-1.85 4.34-5.92 6.74-9.27 9.07-6 4.17-13.29 6.05-20.24 8.17-4.74 1.45-9-2.29-13.36-3.8-1.56-.54-2.21-2.85-2.36-4.81-1-12.84-1.42-25.7-1.94-38.56-.48-11.9-.94-23.7.21-35.56.34-3.55.46-7.77 4.68-7.84s4.65 4.31 5.26 7.7a13.59 13.59 0 0 1 .16 2.39c0 20.29 2.54 40.51 1.73 60.84-.41 10.11 1.38 11.35 11 8 6.69-2.35 14.12-2.28 20.26-6.42.93-.67 2.5-.43 3.87.82z" fill="#5e33df"/><path d="m1600 452.24c-4.6 2.4-7.65.13-10.63-2-1.94-1.4-3.11-1.29-4.39.92-10.32 17.77-28.26 23.73-46.34 28.66-9.54 2.6-19.5.72-28.83-2.85.07-3.38 1.75-4.87 5.06-4.64a60.8 60.8 0 0 0 27.24-4.58c11.2-4.52 22.58-8.9 30.43-18.89 1.57-2 4.59-4.06-.63-5.39-1.53-.4-1.24-2.07-1-3.41a2.22 2.22 0 0 1 2.82-2c6.43 1.25 13.18 1.43 19.1 4.56 3.55 1.84 5.78 5.14 7.17 9.62z" fill="#5e33df"/><path d="m1611.73 374.69c-1.43 4.89-5.93 6.61-9.78 8.32-11.07 4.93-22.44 9.16-34.81 9.5-1.85.06-4 .28-4.07-2.44-.08-1.94.42-3.71 2.74-4.19a10.89 10.89 0 0 1 1.53-.42c13.48-.58 25.36-6.24 37.29-11.76 2.74-1.26 2.78-1.18 7.1.99z" fill="#5e33df"/><path d="m993.78 976.64c.33 3 .89 6.42 1 9.86.11 2.66-1.32 3.84-4.1 3a8.41 8.41 0 0 1 -4.12-2.22c-3.88-4.2-5.63-17.53-2.91-22.61s4.49-5.83 11.12-5.19c9.93 1 9.93 1 8-9.12-2-10.62-5.14-21-7.9-31.4a33.73 33.73 0 0 1 -.81-13.43c.26-1.86.27-3.86 2.83-4 2.21-.17 4.21 0 5.24 2.53.91 2.18 2.84 4.25 2.91 6.41.22 6.76 3.42 12.81 4.16 19.33.86 7.41 4.65 14 5.18 21.43a48.88 48.88 0 0 1 .44 7.12c-.46 6.09-4.88 11.38-12.39 9.81-2.48-.52-5.36-2.89-7.54-1-2.67 2.22-.7 5.95-1.11 9.48z" fill="#fa5c4c"/><path d="m973.44 928.43c.12-4.79.39-11-1.73-17.29a16.23 16.23 0 0 1 .42-11c.65-1.63 1.19-3.74 3.66-3.56s4.72.85 5.36 3.77c.34 1.54.92 3 1.13 4.6 1.55 11.55 3.16 23.1 2.37 34.81-.58 8.58-6.4 13.32-14.82 12.11-.78-.11-1.57-.22-2.36-.35-5.8-1-6.79-.22-6 5.26.69 5 .44 10 1.73 15 .59 2.29.32 5.15-2.49 6-3.07.9-4.85-.8-5.72-3.91-2.22-8-5.94-15.92-1.88-24.42 2.12-4.44 4-5.46 8.67-4.73 1.82.28 3.61 1 5.43 1.11 4.05.17 5.93-1.45 6.21-5.48.2-3.45.02-6.92.02-11.92z" fill="#fa5c4c"/><path d="m915.46 949.52c.09 4.75-3.77 10.91-7.57 12.08-3.17 1-12.24-2.64-14.69-6.11-1.93-2.73-4.23-5.38-1.83-9.24 3.59-5.77 6-7.5 11.11-6.6a49.78 49.78 0 0 1 7.57 2c3.63 1.35 5.38 4.04 5.41 7.87z" fill="#fa5c4c"/><path d="m1574.12 335.33c-.22-.33-.72-.8-.64-1 .48-.92 1.22-1.66 2.36-1.32.59.17.56.72.16 1.26a2 2 0 0 1 -1.88 1.06z" fill="#9c83eb"/></g></svg>