<svg height="440" viewBox="0 0 815.21 967.65" xmlns="http://www.w3.org/2000/svg"><g transform="translate(-12.91 -14.87)"><path d="m237.47 602.1c-6.57-5.53-15.54-5.63-22.65-10-.54-.32-1.78-.19-1.85-.48-1.84-7.31-9.95-4.89-14-9.18-5.59-5.88-13.85-8.43-19.23-15.13a47.73 47.73 0 0 0 -16.47-13.27c-3.31-1.59-5.05-5.16-7.71-7.64-4.54-4.23-11-7.86-10.59-15.7.05-1-.53-1.66-1.57-1.11-3.68 2-4.54-.63-4.6-3.22-.12-5-3.81-8.18-6.64-10.74-3.76-3.42-4.42-8-6.69-11.86-2.15-3.61-6.51-5.4-7.26-10-.88-5.38-3.66-9.93-7.31-14-1-1.06-1.14-2.2.48-2.67 4.47-1.31.87-3.2 0-3.63-5-2.29-5.73-6.68-6.3-11.31-1-8.25-4.84-15.58-8-23.09-.84-2-2.24-4.34-1.78-6 1.58-5.64-1.88-10.54-3.31-14.95a71.16 71.16 0 0 1 -3.18-13.78q-2.13-17.56-3.26-35.34c-.44-7.11.16-14.19.09-21.2-.1-9.89.07-20.09 2.82-29.92 1.41-5 1.55-10.48 5.83-14.33a1.69 1.69 0 0 0 .54-1.32c-1.89-8 3.77-14 5.47-21.07 1.13-4.67 4.89-8.38 6.29-13.12a30.85 30.85 0 0 1 2-5c1.93-3.86 4.13-7.55 7.51-10.37.24-.2.61-.49.6-.74-.34-9.65 9.2-13.78 12.44-21.78 2-4.87 7.53-9 10.29-14.47.41-.81 2-1.18 3.06-1.46 2.28-.6 3.64-2.16 3.39-4.29-.51-4.58 2.94-6.19 5.73-8.2 3-2.18 5-5.31 7.4-7.79 4-4.06 5.15-11.22 12.3-12.14 2.15-.27 2.24-2.45 2.75-4.25.76-2.69 1.15-5.72 5.63-4.82 3.82.78 2.51-3.54 3.77-5.34 1.13-1.61 1.47-3.14 3.51-4.68 4.93-3.72 8.74-8.93 13-13.51a38.18 38.18 0 0 0 7.5-11.33c.88-2.08 5.44-1.65 6.41-4.15 2.39-6.2 8.51-9.09 12.15-14.32 2.56-3.67 6.68-7.92 11.86-9.61a4.3 4.3 0 0 0 3-3.11c.39-1.57 1.33-3.26 2.71-3.28 3.19 0 4.09-2.73 6.06-4.18 6.46-4.75 12.51-10 19-14.7 6.29-4.52 12-10.46 18.62-14.41 6.35-3.78 12-8.48 18.38-12.26 6.1-3.63 12.13-7.36 18.5-10.45 10.37-5 21.47-8 32.41-11.43 6.21-1.94 12.28-4.59 18.62-5.78s12.56-3.26 19-4.4c2.1-.37 4.78-.09 6-2.72.63-1.33 2-1.17 3.07-1.09 12.71.94 25.29-1 37.61-3.26 30.65-5.64 61.5-3 92.27-3.84 16-.43 31.95.8 47.73 2.52a274.24 274.24 0 0 1 27.24 4.08 5.71 5.71 0 0 0 1.94.38c10-1.61 17.95 5.14 26.95 6.4 6.5.89 12.13 3.77 18.29 5.18a122.58 122.58 0 0 1 20.21 6.24 205.75 205.75 0 0 1 32.5 17.09c10.16 6.59 20.92 12.33 30.3 20 8.63 7.06 17.37 14 25.57 21.64 3.91 3.65 8.22 7.45 12.22 11.13 4.16 3.82 9.28 7 11.8 12.8 1.93 4.4 6.44 7.14 8.73 11.85 2.08 4.27 2.27 9.64 7.63 12.88 2.92 1.77 3 7.92 4.77 12 1.58 3.72 1.46 7.89 5.31 11.16 2 1.7 2.1 7 2.54 10.76.77 6.59 3.8 12.48 6.06 18.42a57.67 57.67 0 0 1 2.82 12.35c2.73 18.24 2.53 36.67 2.22 55.06-.09 5.78-1.88 11.39-2.37 17.19-.24 2.88.27 5.51.32 8.26.27 12.86-2 25.53-3 38.27-.79 9.66-2.36 19.14-4 28.6-2 11.71-1.08 23.94-4.41 35.14-2.19 7.37-3.4 15.07-6.3 22.18a11.56 11.56 0 0 0 -1.14 6.12c.88 5.48-1.71 10.39-2.4 15.6-.21 1.61-.6 5-3.57 5.94-.58.2-1 1.76-1 2.68.18 7.55-2.62 14.85-4.88 21.48a146.07 146.07 0 0 1 -7.56 17.72c-3.22 6.4-8.48 11.78-9.87 19.13a3.09 3.09 0 0 1 -2 2.69c-3.8 1-4.24 4.66-5.81 7.4-.4.7-.29 1.89-.84 2.29-6.88 5.1-10.21 13.28-16.82 18.86-4.13 3.49-9.73 6.19-11.9 11.78-1.3 3.36-5 3.59-7.27 5.06-5.9 3.82-10.29 9.86-17.33 12-2.3.69-3 3.34-4.83 4.81-5.76 4.51-12.64 6.71-18.84 10.22-6.92 3.92-14.42 5.33-22 6.75.1-1.46 2.58-3.52-.95-4.06-.89-.14-1.17-.57-1-1.26a1 1 0 0 1 1.52-.73c2.46 1.67 2.56-.69 3-1.85 1.27-3.53 2.4-7.12 3.46-10.72 3.39-11.48 7.83-22.73 6.88-35.09-.47-6.1-2.85-10.85-8.76-13.21-2.56-1-5.38-1.41-7.93-2.45-5.1-2.1-9.86-2.12-14.11 1.76-2.91 2.65-5.46 5.75-8.55 8.16-6 4.71-10.86 10.61-16.17 16-4.82 4.92-8 11.13-12.85 16.08-2.08-2.58-.41-7-4.8-8-.88-.2.23-.57.45-.68 3-1.48 1.76-4 1.18-6-1.32-4.57-3.38-9-4.39-13.59-3.05-14.11-6.74-28.07-8.6-42.47a271.66 271.66 0 0 0 -6.63-32.35c-2.76-10.86-5-21.93-18.86-25.46-11.12-2.82-14.5-2.66-20.6 6.9-.73 1.15-.84 2.69-2.82 3.89.86-1.94-.29-2.93-.66-4.19-3-10.13-10.18-15.53-20.16-17.67a5.94 5.94 0 0 0 -4.26.88c-3.64 2-5.85 5.07-7.57 8.76-3 6.39-6 12.73-6 20-4.79-1.79-9.23-3.53-13.72-5.1-3-1.05-5.79.43-7.57 2.4a36.47 36.47 0 0 0 -7.61 12.47 78.74 78.74 0 0 0 -4.07 26.59c0 1.86.21 3.13-2.52 2.79-7.28-.89-13.95.41-18.42 7a2 2 0 0 1 -2.86.94c-2-.85-4.38-1.43-5.69-2.92-2.66-3.05-5.12-1.74-7.94-.7-4.59 1.69-7.61 5.3-11 8.48l-.72-.69c1.69-7.62 4-15.17 4.88-22.89s2.07-15.57-1.79-22.95c4.31-6.62 3.81-14.69 6.8-21.84 5.28-12.61 8.22-26.12 13.89-38.65.81-1.8 1-2.57 3.26-1.74a114.71 114.71 0 0 0 11.39 3c4.68 4.14 7.4 9.74 9.89 15.14 4.25 9.25 11.25 13.46 20.9 14.69 2.18.27 3.22-.37 4.67-1.68 5.67-5.1 5.83-12.56 8.45-19 6.9.74 13.57 2.77 20.36 4.08 10.49 2 20.69-6.88 21.39-15 .15-1.69 1.28-2.59 2.07-3.8q12 5.07 23.91 10.15c.93.4 1.8.8 2.82.23 4.93-2.8 6.2-7.34 4.31-13.38-3.9-12.51-8.36-24.82-13.12-37-1.35-3.44-.38-4.76 2.91-5.35 7.35-1.32 14.46-3.95 21.32-6.45 7.22-2.63 14.92-5.83 20-12.79 2.79-3.83 2.61-8.26-1.53-10.76-4.7-2.85-9.32-5.81-14-8.73-6.93-4.34-13.5-9.35-21.67-11.33 3.11-9.65 6.84-19.09 10.1-28.69 3.94-11.62 7.88-23.27 12-34.84 1.38-3.85 3.08-4.66 7.32-4.05 7.25 1 14 3.8 22.1 5.33-3.35-37.15-6.33-73.9-8.47-110-6.74 6.22-13.65 12.25-20.16 18.69-7.78 7.7-14.38 16.49-22.29 24.14-7.07 6.82-13.11 14.71-20.15 21.56-4.84 4.7-8.51 10.53-14.12 14.45-3 2.08-2.46 4.12.58 5.46 3.45 1.53 6.95 3.28 10.61 3.91 5 .85 5.53 3.18 4.39 7.46-1.36 5.09-4.94 9.38-5.16 14.84-10.78 3.33-21.61 6.5-32.29 10.13-2.71.92-2.92-.69-3.29-2-2.17-7.73-4.39-15.46-6.15-23.29-2-8.92-4.78-16.51-15.54-18.44a8.44 8.44 0 0 0 -7.4 1.91c-12.24 9-22.39 20.26-32.48 31.52-1.16 1.31-1.87 3-3.5.51-6.71-10.22-17-17-25.08-25.9a7.05 7.05 0 0 0 -5.16-2.63 11.26 11.26 0 0 1 -6.82-2.32c-3.41-2.59-5.87-1.37-7.71 1.79a16.81 16.81 0 0 0 -2.52 6.31c-1.47 10.56-3.6 21-3.82 31.75 0 1.26-.17 3.25-2 2.58-5.26-2-10.63-.77-15.9-.83-10.86-.13-21.59-1.95-32.41-1.94-4 0-8.48-.37-12 1.7-6.9 4.07-7.57 9.59-1.37 15.7 10.73 10.48 17.38 23.66 25.73 35.71 1.63 2.36 1.18 4.22-.59 6.22-6.56 7.41-13.93 14-21.25 20.56-6.93 6.25-14.19 12.21-18.62 20.71-1.06 2-2.69 4.24.58 5.71a76.59 76.59 0 0 0 20.7 6.43c2.16.31 2.58-2.86 4.66-2 7.12 2.93 14.08-1.46 21.25-.44a35.31 35.31 0 0 0 9.7.32c4.36-.62 7.24.6 8.17 5.18.78 3.88 1.8 7.73 2.35 11.65 1.21 8.64 2.24 17.31 3.2 26 .23 2 2.21 3.39 1.74 5.53-1.31 6 .38 11.86 1.27 17.74a35.86 35.86 0 0 1 -.63 4.9c-3.49 12.95-8.11 25.64-9 39.18-2.44 8.25-6.26 15.91-9.53 23.73 0-4.3.61-8.63-.15-12.69-1-5.56 0-12-5.72-16.05-11.48-8.09-14.9-9.27-28.34 2.56-6.09 5.35-10.37 12.16-14.34 18.87-8.34 14.11-14.23 29.47-19.5 45-3.74 11-7.57 22-11.8 34.28a41.16 41.16 0 0 0 -.23-4.36c-3.78-18.63-15.25-30.4-32.92-36.65-7.66-2.7-14.54.22-17.22 7.17-2.88 7.44-4 15.3-4.73 23.14-1.67 18.21-2.75 36.49-8.58 54.04zm187.53-470.6c-1.18 3.57 1.36 4.82 4.77 6 4.52 1.56 7.17-.62 9.85-3.67 5.48-6.27 5.51-6.14 12.8-2.69a82.24 82.24 0 0 0 7.94 2.85c1.6.56 3 .88 4.42-.75s2.31-3 1.35-5.26c-1.69-4-2.62-8.34-4.86-11.93-3-4.81-1-7.82 2.2-11.11s6.89-5.82 8.67-10.17c.58-1.44 1.28-2.77-.17-4.07-3.89-3.46-12.22-3.5-16.38-.32-2.34 1.78-4.72 2.24-6.53-1.08-1.67-3-2.17-6.64-4.54-9.36-2.84-3.24-7-4.27-10.63-4.29-2.77 0-3.54 4.07-4.32 7-1.05 4-.6 7.94-.49 11.89.1 3.53-1 5.59-4.58 6.51-4.63 1.18-9.13 2.83-13.74 4.07a6.74 6.74 0 0 0 -4.89 5.6c-.3 2.11 2.88 2.24 4.64 3 2.14.89 4.39 1.49 6.59 2.23 8.8 3 8.8 3 7.91 12.44-.01.79-.01 1.61-.01 3.11zm293.1 35.07c-3.41 2.58-10.68-3.71-11.75 5.36-4.16 1.26-1 2.92 0 3.79 3.19 2.63 6.57 5 10 7.39 2.06 1.42 3 2.95 1.67 5.38-1.57 2.89-3 5.85-4.55 8.76-1.71 3.24-1.31 5.3 2.56 6.74 6.3 2.35 11.14-.55 16.07-3.61 1.22-.76 2.12-3.16 3.92-.81 3.2 4.16 8.09 5 12.63 6.42a6.12 6.12 0 0 0 8.22-6.92q-.84-5.37-1.78-10.73a6.78 6.78 0 0 1 3.36-7.57 25.85 25.85 0 0 0 7.24-6c1.57-2.1 2.72-4.06-1.34-4.91-2.56-.54-4.93-2.38-7.46-2.58-3.43-.27-3.39-2-4.1-4.69-1.24-4.68 2.17-11.36-6.57-13.31-7.22-1.61-7.62-2.45-11 4.34-.67 1.34-1.69 2.63-1.92 4-1.44 8.77-6.86 10.95-15.2 8.95zm-486 250.66c3.19.25 5-1.3 6.34-4s-.7-3.94-2.11-5.45c-2.13-2.31-4.18-4.73-6.52-6.82-2.77-2.47-3.33-5-1.64-8.37 2.75-5.49 5.25-11.11 7.87-16.66.72-1.53 1.52-3.07.49-4.72s-10.32-3-12.35-2c-3.78 2-5.94 5.78-9.45 8.08-1.12.73-2.41 2.26-3.15.53-2.06-4.83-6.94-4.48-10.59-6.34-1.22-.62-2.79-2.25-4-.66s-3.15 2.87-2.36 5.58c1 3.47 1.32 7.15 2.35 10.61.75 2.53.6 4.27-1.52 6.09-4.4 3.78-8.74 7.67-12.8 11.8-3.73 3.8-3 5.28 1.77 7.39 4.58 2 9.07 1 13.6.64 3.11-.24 4.14.94 4.06 4a23.81 23.81 0 0 0 .63 7.89c1.26 4.12 5.25 7.59 9.68 7s3.49-4.47 3.61-7.52c0-.17 0-.33 0-.5.21-7.85 3.4-10.19 10.8-8 1.73.55 3.5.96 5.25 1.43zm54.62-244.3c-2.13.95-5.51-1.61-7.37 1.71-2 3.62-1.51 7.3.65 10.77.17.29.41.53.56.82a83.24 83.24 0 0 0 9.38 14c8.66 10.84 17.82 20.86 33.56 20.2 1.91-.08 3-.15 4-1.73 2.1-3.24 2-6.25.27-9.75-5.37-10.92-14-19.13-22.11-27.82-5.09-5.49-11.47-7.51-18.98-8.2zm402.68 166.24c4.53-.75 8.73-1.62 13.08-1.34 1 .07 2.3-1.47 3.12-1.21 3 .95 5.17-2.16 7.7-1.5 6 1.55 9.4-.39 11.58-6.27 1.8-4.83 1.46-6.33-3.62-7.82a76.73 76.73 0 0 0 -19.92-2.69c-9.6-.22-19.14-1-28.88-.06-6.42.64-10.45 8.15-17.51 4.88-.24-.11-.88.39-1.21.73-3.61 3.62-2.52 8.42 2.3 10.26 10.85 4.14 22.56 2.3 33.36 5.02zm-29.4 111.09c2 2 4.71-.61 7.56.18s7.3-5.81 5.7-8.27c-4.47-6.87-8.5-14-13.75-20.38s-10.6-11.79-19.84-9.79a6.06 6.06 0 0 1 -3.88-.52c-2.66-1.28-4.75.12-5.81 2.28-1.92 3.9-3.07 7.85.16 12 6.11 7.84 12.68 15.2 20.51 21.33 2.49 1.91 5.17 4.09 9.35 3.17zm-405.29-161.14c-3.94-.69-7.88.15-11.73 1-4.19.92-6 4.26-6.94 8.24s1.89 5.33 4.54 6.67a53.42 53.42 0 0 0 19.9 5.42c10.3.83 20.6 2.58 31-.12 3.51-.92 5-3.14 5.13-5.76a7.7 7.7 0 0 0 -4.44-7.56c-11.81-5.94-24.41-7.78-37.46-7.89zm421.1 199.62c-.51-4.85-2.24-8.73-7-9.49a26.27 26.27 0 0 1 -8-2.59c-3.64-1.88-7.09-2-9.41 1.09-3 4-6.68 8.09-4.56 13.91 2.22 6.15 8 6.62 13 8.68 4.39 1.79 7.18 1 10.75-1.74s4.41-6.42 5.22-9.86zm41.64-39.74c6.35.16 9.26-3.55 11.7-7.56 3.64-6 2.05-9.6-4.64-11.42-2.55-.7-5.42-.94-7.55-2.31-4.64-3-8.17-1.08-11.73 1.71-5.63 4.41-5.87 13.13-.12 15.8 4.11 1.94 8.74 2.78 12.34 3.78zm-395.68-44.43c-.17-6.73-5.77-11.35-13.88-11.43-2.69 0-10 9.86-9.84 13.29.3 6.2 7.29 11.71 14.28 11.27 4.16-.26 9.57-7.78 9.44-13.13zm457.23-151.87c-.06-1.8.3-4.13-2.08-4.48-3.75-.55-6.73-2.62-10-4.21-2.59-1.27-4-.84-4.94 2.37a15.77 15.77 0 0 1 -3.54 6.33c-3.83 4-3.19 6.55 1.84 8.94a31.61 31.61 0 0 0 4.63 1.78c6.35 1.85 14.18-4.15 14.09-10.73zm-502 202.08c0-4.61-7.79-10-14.06-9.73-3.81.15-7.77 5.44-8.09 10-.39 5.32 7.94 8.24 13.88 8.9 4.62.46 8.34-3.95 8.32-9.17zm78.59-315c2.89-.74 5.59-3.4 7.37-7 2.36-4.71 1.3-6.67-3.67-8a28.07 28.07 0 0 1 -4.53-1.94c-2.73-1.27-5.41-1.69-7.8.61-3.23 3.1-5.41 7.09-4.67 11.4.6 3.47 4.28 4.09 7.61 4.14 1.51.11 2.96.44 5.74.81z" fill="#fdccc7"/><path d="m429.59 501.58c3.4-3.18 6.42-6.79 11-8.48 2.82-1 5.28-2.35 7.94.7 1.31 1.49 3.72 2.07 5.69 2.92a2 2 0 0 0 2.86-.94c4.47-6.55 11.14-7.85 18.42-7 2.73.34 2.54-.93 2.52-2.79a78.74 78.74 0 0 1 4-26.48 36.47 36.47 0 0 1 7.61-12.47c1.78-2 4.54-3.45 7.57-2.4 4.49 1.57 8.93 3.31 13.72 5.1 0-7.32 3-13.66 6-20 1.72-3.69 3.93-6.73 7.57-8.76a5.94 5.94 0 0 1 4.26-.88c10 2.14 17.2 7.54 20.16 17.67.37 1.26 1.52 2.25.66 4.19 2-1.2 2.09-2.74 2.82-3.89 6.1-9.56 9.48-9.72 20.6-6.9 13.91 3.53 16.1 14.6 18.86 25.46a271.66 271.66 0 0 1 6.65 32.37c1.86 14.4 5.55 28.36 8.6 42.47 1 4.63 3.07 9 4.39 13.59.58 2 1.82 4.51-1.18 6-.22.11-1.33.48-.45.68 4.39 1 2.72 5.41 4.8 8 4.84-5 8-11.16 12.85-16.08 5.31-5.43 10.12-11.33 16.17-16 3.09-2.41 5.64-5.51 8.55-8.16 4.25-3.88 9-3.86 14.11-1.76 2.55 1 5.37 1.43 7.93 2.45 5.91 2.36 8.29 7.11 8.76 13.21 1 12.36-3.49 23.61-6.88 35.09-1.06 3.6-2.19 7.19-3.46 10.72-.43 1.16-.53 3.52-3 1.85a1 1 0 0 0 -1.52.73c-.13.69.15 1.12 1 1.26 3.53.54 1 2.6.95 4.06a97.49 97.49 0 0 0 -4.89 29.12c-.26 10.37 2.42 20.38 6 30.13 3.22 8.91 4.32 18.15 4.95 27.61.75 11.37-1.46 21.88-4.94 32.6a24.38 24.38 0 0 0 1.47 18 314.1 314.1 0 0 1 12.94 29.17c7.56 19.35 17.82 37.22 28.39 55 7.14 12 16 22.77 23.15 34.8 3.92 6.64 9.36 12.5 13.69 19 11.25 16.9 25.57 31.4 37.45 47.8 7.27 10 16.29 18.53 24.61 27.64 1.19 1.31 1 2.24.68 3.88-6.22-2.93-11.44-7.23-16.73-11.17-10.43-7.78-20.76-15.83-29.37-25.7-7.36-8.45-14.3-17.28-21.39-26-.63-.77-1.09-1.66-2.13-2-.87-1.4-1.66-2.87-2.64-4.19-6.51-8.87-11.29-19-19.22-26.83a89.56 89.56 0 0 0 -15-22.21c-4.05-7.72-9.19-14.72-14.21-21.8a112.15 112.15 0 0 0 -10.75-20.28c-1.85-4.4-3.59-8.86-5.58-13.19-.83-1.81-1.59-3.74-4.59-1.7-13 8.84-27.3 15-41.93 20.43-10.06 3.73-20.46 6.55-30.68 9.86-4.66 1.51-10.29 1.19-14 3-5.4 2.64-11.18 3.4-16.48 5.84-8.78 4-18.72 3.83-27.7 7.37-2.9 1.14-3.34 2.18-2.29 5 1.67 4.48 2.83 9.14 4.21 13.73a50.41 50.41 0 0 1 2.09 5.43c2.36 7.93 5.18 15.72 7.84 23.56 1.62 8.27 5.4 15.69 9.17 23.1 3.6 10.62 9.79 20 14.81 29.87 1.34 4.64 4.13 8.65 6.28 12.86 2 3.82 1 8.31 4.39 11.89 2.8 3 3.86 7.59 5.69 11.49 4.9 11.09 13.38 20 19.19 31-5.77.05-8.17-4.53-10.79-7.54-3.8-4.39-8.47-8.2-11.13-13.56-.14-.28-.57-.42-.7-.7-3.87-8.83-10.6-15.92-15.94-23.7-9.7-14.15-15.29-30-23.05-44.93-5.33-10.26-9.37-21.05-13.39-31.84-1.6-4.32-1.64-9.17-3.06-13.32-2.15-6.25-3.79-12.66-6.06-18.87-2.12-5.81-3.53-11.89-5.39-17.76-1.94-6.13-3.55-12.37-5.62-18.46-2-5.8-3.66-11.72-6-17.39-1-2.41-3.16-4.31-4.54-6.69-6.48-11.12-14-21.7-19.61-33.25-5.46-11.21-11.32-22.47-13.63-35.21-.81-4.41-4.17-8.73-5.43-13.45-2.07-7.83-4.93-15.52-4.24-23.89.13-1.55-.92-3.19-1.64-5.49-4.74 6.73-8 13.47-11.42 20.07-8.8 16.76-17.31 33.76-26.57 50.26a96 96 0 0 1 -16.5 20.93c-8.22 8.14-15.85 16.83-24.27 24.8-9.43 8.93-14.71 20.92-20.64 32.37-10.91 21.07-21.25 42.43-33 63.08-8 14-13.34 29.33-20.06 44-6.56 14.29-13.16 28.56-20.19 42.62-2.85 5.71-8.49 9.36-13.14 13.52-6.23 5.57-13.36 10.14-20.89 15.73 1.93-5.74 6-9.46 7.26-14.52 4.66-5.28 6.94-11.92 10.07-18 4.13-8.09 8.12-16.26 11.68-24.62 4.33-10.17 9.64-19.91 13.23-30.41q5.12-11.43 10.24-22.86c11.47-19.56 20.59-40.39 32.5-59.71 1.39-2.25.71-3.67-2.26-4.41-7-1.73-13.89-4.2-21-5.79-2.57-.57-3.36-4.3-6.54-3.08-8.63-2.18-16.25-6.63-23.9-10.91-16.87-9.42-32.84-20.25-48.64-31.34-1.67-1.17-3.19-2.39-5.37-2.05-.38-2.33-2.58-2.8-4.13-3.8a147.54 147.54 0 0 1 -27.31-23.46c-2.63-2.8-3.31-2.69-5.08.41-7.7 13.45-15.59 26.8-23.4 40.19q-14.64 23.81-29.32 47.63c-1 1.66-1.8 3.45-2.69 5.17-4.94 6.77-9.92 13.51-14.8 20.31-6.81 9.49-13.55 19-20.31 28.56l-22.16 27.07c-2.77 4.15-6.66 7.29-10 10.9-11.43 12.26-21.19 26-34 37-4.26 3.62-8.45 7.31-12.68 11-4.39 3.11-7-1-9.64-2.9-6-4.31-6-4.8.39-9.07 11.73-7.84 20.11-19 29-29.51 5.79-6.92 12-13.49 17.9-20.26 11.63-13.42 22.56-27.44 33.26-41.66 11.32-15.08 22.5-30.29 32.63-46.19 11.73-18.41 23-37.13 34.27-55.8 10-16.59 20-33.2 29.74-50 5.78-10 11-20.32 16.39-30.5a3.38 3.38 0 0 1 2-2c.11.6.23 1.19.35 1.79l1.23-1.37c-.5-.38-1-.85-1.66-.31.6-6.27 4.68-11.07 7.12-16.55 7.12-16 12.58-32.6 17.39-49.42 5.83-17.55 6.91-35.83 8.61-54 .73-7.84 1.85-15.7 4.73-23.14 2.68-6.95 9.56-9.87 17.22-7.17 17.64 6.2 29.11 18 32.89 36.67a41.16 41.16 0 0 1 .23 4.36c4.23-12.27 8.06-23.26 11.8-34.28 5.27-15.54 11.16-30.9 19.5-45 4-6.71 8.25-13.52 14.34-18.87 13.44-11.83 16.86-10.65 28.34-2.56 5.75 4.05 4.68 10.49 5.72 16.05.76 4.06.15 8.39.15 12.69 3.27-7.82 7.09-15.48 9.53-23.73 1.52.36 1.44-1 1.88-1.78a62.18 62.18 0 0 1 11.94-15.16c6.29-5.55 16.69-5.71 20.27.34 2 3.41 5.66 5.1 7.34 8.58 3.86 7.38 2.63 15.33 1.79 22.95s-3.19 15.27-4.88 22.89c-.7.3-1 1-.52 1.43.66.51.84-.48 1.25-.77zm45.49 91.48c-1.46-.43-4 .19-2.27-3 .57-1 .17-2.61.18-3.94.08-6.9-1.83-8.49-8.32-6-9.67 3.62-16.85 10.23-22.47 18.88-3.34 5.15-5.34 10.85-8.09 16.24-4.62 9-11.09 16.89-15.89 25.83-2.1 3.91-3.29 8.78-7.75 11.08-1.71-3.08-1.28-3-.51-6.37 1.12-4.95 3.24-9.52 4.67-14.34 2.64-8.92 4.21-18.31 10.89-25.51.78-.84.31-1.72.23-2.71-.48-5.56 2.12-9.22 6.81-9-4.09-2-2.18-4.4-1.28-6.79 5.35-14.09 11.71-27.81 15.45-42.48a121.68 121.68 0 0 0 3.93-33.57c-.1-3.31.06-8.3-3.06-9.91-3.35-1.73-5.69 2.75-8.45 4.55a7.55 7.55 0 0 0 -1.51 1.25c-15.12 16.32-25.51 35.58-33.26 56.13-3.45 9.17-8.49 17.57-11.53 26.86-.76 2.33-2.92 1.78-4.68 1.61-1.48-.15-1.33-1.38-.91-2.25 2.67-5.54 3-11.64 4.44-17.47 4.2-17 11.21-33.17 16.3-49.91 3-9.74 7.39-18.89 10.27-28.66 2-6.7 3.67-13.59 5.33-20.26 1.39-5.6.1-12.72-2-18.91-1.55-4.59-6.29-5.28-9.76-1.33a40 40 0 0 0 -3 3.94c-8.91 13.06-14.6 27.75-20.78 42.13-9.85 22.94-21 45.11-35.36 65.57-.55.78-.72 2.36-2.83 1.66 2.76-3.43.43-7.31 1.26-10.89a190.49 190.49 0 0 1 7.87-26.36c2.42-6.2 3.76-12.83 5-19.21 1.13-6 3.08-12 3.35-18.35.39-9.24 1.48-18.43-.27-27.62-.17-.89 1.71-2.13-.35-2.64a3.32 3.32 0 0 0 -3.07.94 68.28 68.28 0 0 0 -17.73 21.49c-14 25.89-21.5 54.37-31.76 81.74-4 10.74-7.84 21.54-13.12 31.74-1 1.95-2.69 2.94-5.33 1.91-4.22-1.65-6.12-3.84-5.43-8.87 1.71-13.11 3.79-26.26-2.29-39.11-3.14-6.7-5.6-13.74-10.24-19.58-2.4-3-5.55-5.62-9.79-5.18s-4.19 4.37-5.15 7.36c-2 6.09-1.11 12.48-1.58 18.68-.94 12.5-2 25-4.58 37.19a302.87 302.87 0 0 1 -25.24 73.38c-7.42 14.81-15.42 29.3-23.19 43.94-.59 1.11-2 2.29-.94 3.57 2.27 2.69 7 3.25 6.85 8 4-1.15 5.09 2.53 7.39 4.34 13.6 10.71 26.68 22 42.38 30 13.28 6.73 26.47 13.68 39.48 21 13.28 7.45 27.5 13 41.82 18.23 3.65 1.34 5.12.4 7-2.65 3.63-5.8 6.66-12 11.45-17.09 10.84-11.44 22.05-22.5 33.32-33.51a90.19 90.19 0 0 0 12.44-15 177.9 177.9 0 0 0 12.58-22.22c.92-2 3.53-2.15 3.84-3.72.93-4.64 3.17-8.82 5.15-12.86 5.87-12 12.6-23.63 19.13-35.32 1.14-2.05 2.76-5.11 4.42-5.29 2.53-.28 3.16-.57 1.55-2.38-1.37-1.53-.32-2.44.2-3.46 5-9.74 9.7-19.6 12.66-30.21 1.48-5.32 1.07-11.44 6.08-15.38l.62-.6-.47-.06zm56.09-163.47c-4.38 5.91-7.83 17.24-8.2 25-.4 8.5-1.8 17-1.35 25.46.3 5.54-2.12 11.24 0 16.38 2.47 5.85 1.85 12 3.24 17.94 1.93 8.23 3 16.68 4.7 25 3.82 18.23 10.75 35.68 13.86 54.11.17 1 2.92 1.54-.05 2.73-1.78.71-2.55.43-3.46-1.25-2.25-4.15-5.31-7.93-7-12.26-2.88-7.16-8-13.25-9-21.36a189.71 189.71 0 0 0 -3.37-19.72c-3.37-14.63-7.8-29-11.44-43.57-2.43-9.71-2.85-19.79-5.08-29.58-1.16-5.1-1.74-10.27-4.75-14.83-1.65 1.5-2.32 3.54-3.21 5.44a53 53 0 0 0 -4.83 20.92c-.28 9.13-1.51 18.35 1.19 27.5 1.81 6.11 2.48 12.56 3.58 18.87 1.63 9.35 3.34 18.69 4.73 28.08a184.61 184.61 0 0 0 4.2 20.14c2.93 11.18 5.32 22.51 8.19 33.7.35 1.34 1.23 2.69-.08 3.36a3 3 0 0 1 -4-1.09 69.21 69.21 0 0 1 -4.2-7.25c-4.07-9.09-9.14-17.72-11-27.8-2.26-12.38-5.12-24.67-8-36.93a184.68 184.68 0 0 1 -4.27-21.51c-.64-5.52-1.81-11-5-15.64-1.14-1.71-2.41-4.4-5.47-3.05-2.76 1.23-7.64 10-7.22 13.09a90.56 90.56 0 0 1 -.57 26.24 169.26 169.26 0 0 1 -10.57 37.29c3.07-1.24 5.43-2.15 7.77-3.12 8.54-3.57 15 1.33 21.33 5.64 4.53 3.08 4.23 8.68 3.75 13.15a113.45 113.45 0 0 1 -8.76 34.08c-2.54 5.73-3.69 12.19-8.15 17.07-1.61 1.75-1.18 4.1-.49 6.15 3.38 10 4.68 20.62 8.5 30.54 2.84 7.37 4.67 15.17 7.9 22.35 5.87 13.09 10.75 26.61 17.93 39.14 3.34 5.84 5.52 12.21 9.93 17.62a87.1 87.1 0 0 1 10.36 17.18c3.25 6.72 5.7 13.82 8.38 20.81.87 2.26 2.07 3 4.41 2.12 13.38-4.86 27.15-8.46 40.77-12.52 20.34-6.07 41-11.32 60.54-19.7 10.25-4.38 20.84-8.23 29.47-15.68 1-.91 3.26-1.72 2.15-3.37-5.4-8.06-7.33-17.43-10.4-27.06-4.47 5.15-11.15 5.42-16.2 9-2.07 1.45-12.29-.74-12.17-2.31.23-3.35 3.08-5.28 5.68-7.07a37.64 37.64 0 0 1 3.25-2.19c15.46-8.54 23.71-21.36 22.24-39.39-.83-10.09-1.47-20.25-4.62-30-.73-2.27-1.07-4.47 2.93-5.75-4.26-1.05-5.46-3.06-6.57-6.23-3.72-10.55-2.66-21.19-1.55-31.81a79.74 79.74 0 0 1 6.29-22.58c1 1.11.31 3.11 2.2 3.13a2 2 0 0 0 1.52-1.08c.65-1.74-1.45-1.09-2-2-.82-1.51-1.24-2.59-.53-4.5a232.21 232.21 0 0 0 9.05-32.16 35.85 35.85 0 0 0 .33-15.57c-1.11-4.94-2.82-5.9-6.95-3.19a59.23 59.23 0 0 0 -12.71 11.51c-6.62 7.83-13.27 15.65-19.66 23.67-10 12.53-16.66 26.94-23.41 41.33-4.49 9.56-9.19 19-11.06 29.48-1.82 10.2-5.17 20.07-6.33 30.41-.2 1.75-1.52 1.85-2.95 1.93-1.66.08-2-.76-1.87-2.14.23-2.6.53-5.21.64-7.82.4-9.15 1.64-18.21 2.84-27.29.22-1.65 2-3.12 1.81-3.3-3.78-4.19.12-8.15.66-11.91 1.8-12.65 7.68-23.87 14.19-34.73.78-1.31 2.66-2.79 1.2-4.4-3.23-3.56-3.23-8.2-4.31-12.35-4.89-18.8-9.64-37.64-13.81-56.6-3-13.44-4.54-27.18-7.46-40.63-1.58-7.48-3.8-14.86-7.8-21.64-1.53-2.62-2.28-2.65-3.78-.06-2.68 4.64-3.88 9.66-4.86 14.85-2.62 13.9-3.6 27.92-1.15 41.84 2.52 14.33 5 28.66 8.58 42.83 3 12 4.46 24.43 6.69 36.65.32 1.79.07 2.49-1.9 3-2.6.68-1.58-1.84-2.65-2.42-1.39-.77 1.67-1.36-.12-3-2.89-2.71-8.83-4.16-6.36-10.35 0 0-.71-.28-1.06-.48-2.53-1.53-3-4-3.47-6.7-1-5.77-1.53-11.69-3.37-17.18-2.42-7.22-5.38-14.3-7.16-21.68-2.57-10.65-5.77-21.18-6.67-32.19-.81-9.81-1.69-19.64-3.73-29.28-1.19-5.66-3.35-11.13-4.44-16.8-.72-3.93-2.98-6.83-4.38-10.66z" fill="#552cde"/><g fill="#9b81ea"><path d="m593.34 950.27c-1.83-3.9-2.89-8.51-5.69-11.49-3.36-3.58-2.43-8.07-4.39-11.89-2.15-4.21-4.94-8.22-6.28-12.86 12.24-3.85 24.6-7.39 36.71-11.63 13.69-4.79 26.84-11 39.93-17.24a485.07 485.07 0 0 0 52.2-29c5.38-3.45 10.07-8.11 16.32-10.19 7.93 7.86 12.71 18 19.22 26.83 1 1.32 1.77 2.79 2.64 4.19-13.28 12.28-28.61 21.64-44 31a459.57 459.57 0 0 1 -55.7 28.64 180 180 0 0 1 -37.07 11.53c-4.61.94-9.23 1.49-13.89 2.11z"/><path d="m212.1 941.38c-.64 11-3.87 19.15-10.12 26.25-4.2 4.76-8.21 9.75-14.67 11.21-10.28 2.31-20.37 1.66-30-3.05-2.66-1.3-5.66-1.95-8.21-3.41-12.3-7.06-14.8-18.72-8.69-30.94a78.16 78.16 0 0 1 11.68-17.23c6.55-7.3 15-10.93 25-8.18 8.38 2.31 17.05 4.17 24.52 8.83a22.62 22.62 0 0 1 10.49 16.52z"/><path d="m105.93 869.86c6.76-9.52 13.5-19.07 20.31-28.56 4.88-6.8 9.86-13.54 14.8-20.31 5.81-.53 11.12 1 16.19 3.78 3.2 1.72 6.89 1.84 10.28 3.4 11.09 5.12 14.13 16 12.3 26.31-2.29 12.92-9.49 22.87-20.07 29.92-7.91 5.27-16.8 6.93-26.23 2.16a59.44 59.44 0 0 0 -9.67-3.44c-7.64-2.26-13.22-7.12-17.91-13.26z"/><path d="m297.94 894.92c-3.59 10.5-8.9 20.24-13.23 30.41-3.56 8.36-7.55 16.53-11.68 24.62-3.13 6.13-5.41 12.77-10.07 18-2.22-1-4-2.33-6.92-2.45-4.51-.19-8.36-3.25-10.78-7.12-5.59-9-10.94-18.08-11.65-29.06a38.62 38.62 0 0 1 2.9-18.25c5.06-11.28 12.35-20.81 25.43-23.68a34.54 34.54 0 0 1 21.77 2.16c4.66 2.11 9.85 2.65 14.23 5.37z"/><path d="m201 824.69c0-13.65 13.68-27.88 27.08-30.58 6.25-1.26 10.72.22 15.71 2.65a9.53 9.53 0 0 0 4.25 1.17c9.83-.41 18.39 13.58 16.47 23.48-2 10.41-5.28 19.74-12.87 27.16-4.92 4.81-10.6 8.19-18 6.46-4.8-1.11-9.53-2.39-14.25-3.88-12.39-3.91-18.3-14.36-18.39-26.46z"/><path d="m27 955.8c4.23-3.66 8.42-7.35 12.68-11 12.86-11 22.62-24.74 34.05-37 3.37-3.61 7.26-6.75 10-10.9 10.73 4.87 18.28 12.74 20.71 24.36 1.81 8.64-1.88 16.73-5.77 24.1-2.67 5.18-6.89 9.64-11.11 13.89s-9.63 5.6-15 7.29c-.32.1-.8.37-.93.25-4.58-4-9.06.5-13.62.15a41.75 41.75 0 0 1 -12.8-2.89c-6.12-2.56-12.68-4.26-18.21-8.25z"/><path d="m310.92 799.07c3.18-1.22 4 2.51 6.54 3.08 7.07 1.59 13.92 4.06 21 5.79 3 .74 3.65 2.16 2.26 4.41-11.91 19.32-21 40.15-32.5 59.71-11.07-5.66-14.92-15.9-17.31-27.11-2.47-11.57 1-21.65 7-31.46 3.42-5.75 8.37-9.88 13.01-14.42z"/><path d="m173.09 768.11c7.81-13.39 15.7-26.74 23.4-40.19 1.77-3.1 2.45-3.21 5.08-.41a147.54 147.54 0 0 0 27.31 23.49c1.55 1 3.75 1.47 4.13 3.8-4.73 6-9.54 11.33-17.49 13.7-4.06 1.2-8 3.49-12.3 4.49-9.33 2.16-18-.22-26.36-4-1.24-.58-2.37-1.21-3.77-.88z"/></g><path d="m400.16 419c-.89-5.88-2.58-11.7-1.27-17.74.47-2.14-1.51-3.52-1.74-5.53-1-8.68-2-17.35-3.2-26-.55-3.92-1.57-7.77-2.35-11.65-.93-4.58-3.81-5.8-8.17-5.18a35.31 35.31 0 0 1 -9.7-.32c-7.17-1-14.13 3.37-21.25.44-2.08-.86-2.5 2.31-4.66 2a76.59 76.59 0 0 1 -20.73-6.45c-3.27-1.47-1.64-3.69-.58-5.71 4.43-8.5 11.69-14.46 18.62-20.71 7.32-6.6 14.69-13.15 21.25-20.56 1.77-2 2.22-3.86.59-6.22-8.32-12.05-15-25.23-25.61-35.71-6.2-6.11-5.53-11.63 1.37-15.7 3.51-2.07 8-1.7 12-1.7 10.82 0 21.55 1.81 32.41 1.94 5.27.06 10.64-1.13 15.9.83 1.79.67 1.94-1.32 2-2.58.22-10.71 2.35-21.19 3.82-31.75a16.81 16.81 0 0 1 2.52-6.31c1.84-3.16 4.3-4.38 7.71-1.79a11.26 11.26 0 0 0 6.85 2.33 7.05 7.05 0 0 1 5.16 2.63c8 8.94 18.37 15.68 25.08 25.9 1.63 2.48 2.34.8 3.5-.51 10.09-11.26 20.24-22.48 32.48-31.52a8.44 8.44 0 0 1 7.4-1.91c10.71 1.93 13.44 9.48 15.49 18.48 1.76 7.83 4 15.56 6.15 23.29.37 1.33.58 2.94 3.29 2 10.68-3.63 21.51-6.8 32.29-10.13 3.73 0 7.08-1.6 10.6-2.48 5.48-1.39 10.92-4.46 16.63-.7a11.35 11.35 0 0 0 7.53 2c1.76-.17 3.73 1 3.15 2.19-1.39 2.84.17 5.87-1.05 8.46-3.1 6.53-5.73 13.27-9.42 19.55-4.59 7.82-8.87 15.82-13.09 23.82-.55 1-2.54 2.73.32 4s5.72 3.16 8.56 4.77c8.17 2 14.74 7 21.67 11.33 4.65 2.92 9.27 5.88 14 8.73 4.14 2.5 4.32 6.93 1.53 10.76-5.08 7-12.78 10.16-20 12.79-6.86 2.5-14 5.13-21.32 6.45-3.29.59-4.26 1.91-2.91 5.35 4.76 12.2 9.22 24.51 13.12 37 1.89 6 .62 10.58-4.31 13.38-1 .57-1.89.17-2.82-.23q-12-5.1-23.91-10.15c-8.81-5.08-17.78-9.91-26.39-15.32-6.32-4-6.34-4.23-8.7 3-2.93 9-5.82 18-8.73 27-2.62 6.4-2.78 13.86-8.45 19-1.45 1.31-2.49 1.95-4.67 1.68-9.65-1.23-16.65-5.44-20.9-14.69-2.49-5.4-5.21-11-9.89-15.14-1.87-4.1-4.76-7.54-7.29-11.21-1.44-2.08-3.22-2.4-4.83-.21-5.29 7.25-12.59 12.52-18.56 19.09-4.54 5-10.34 8.78-14.52 13.92-5.74 7.07-14.54 9.78-21.97 1.7zm82-146.86c-.43-4.77 1-9.37-2.82-10.74s-7.51-3.48-12-3.72c-4.81-.25-8.37.72-10.41 4.87-3.86 7.89-2.28 16-1 24.07 1.77 10.8 6.27 21 7.06 32.05.21 2.91 5.7 6.93 9.25 6.36s4.6-3.47 4.68-6.6c.06-2.26-.82-5.09-.27-6.74 4.51-13.37 3.67-27.33 5.48-39.56zm-.11 76c-.17-1.81.74-4.81-2.35-4.92-4-.15-7.27-2-10.71-3.38-2.58-1-4.92-1.11-6.15 1-1.66 2.88-5.56 4.66-4.18 9.28 1.78 6 7.19 5.56 11.33 7 6.62 2.41 12.01-1.77 12.01-9.01z" fill="#442787"/><path d="m580 294.83c-2.84-1.61-5.6-3.42-8.56-4.77s-.87-3-.32-4c4.22-8 8.5-16 13.09-23.83 3.69-6.28 6.32-13 9.42-19.55 1.22-2.59-.34-5.62 1.05-8.46.58-1.18-1.39-2.36-3.15-2.19a11.35 11.35 0 0 1 -7.53-2c-5.71-3.76-11.15-.69-16.63.7-3.52.88-6.87 2.46-10.6 2.48.22-5.46 3.8-9.75 5.16-14.84 1.14-4.28.57-6.61-4.39-7.46-3.66-.63-7.16-2.38-10.61-3.91-3-1.34-3.55-3.38-.58-5.46 5.61-3.92 9.28-9.75 14.12-14.45 7-6.85 13.08-14.74 20.15-21.56 7.91-7.65 14.51-16.44 22.29-24.14 6.51-6.44 13.42-12.47 20.16-18.69 2.14 36.05 5.12 72.8 8.47 110-8.09-1.53-14.85-4.3-22.1-5.33-4.24-.61-5.94.2-7.32 4.05-4.14 11.57-8.08 23.22-12 34.84-3.27 9.48-7 18.92-10.12 28.57z" fill="#fa5847"/><path d="m400.16 419c7.43 8.09 16.23 5.38 21.94-1.6 4.18-5.14 10-8.93 14.52-13.92 6-6.57 13.27-11.84 18.56-19.09 1.61-2.19 3.39-1.87 4.83.21 2.53 3.67 5.42 7.11 7.29 11.21a114.71 114.71 0 0 1 -11.39-3c-2.28-.83-2.45-.06-3.26 1.74-5.67 12.53-8.61 26-13.89 38.65-3 7.15-2.49 15.22-6.8 21.84-1.68-3.48-5.33-5.17-7.34-8.58-3.58-6.05-14-5.89-20.27-.34a62.18 62.18 0 0 0 -11.94 15.16c-.44.74-.36 2.14-1.88 1.78.89-13.54 5.51-26.23 9-39.18a35.86 35.86 0 0 0 .63-4.88z" fill="#f95747"/><path d="m286.68 172.93c7.51.69 13.89 2.71 19 8.15 8.12 8.69 16.74 16.9 22.11 27.82 1.72 3.5 1.83 6.51-.27 9.75-1 1.58-2.11 1.65-4 1.73-15.74.66-24.9-9.36-33.56-20.2a83.24 83.24 0 0 1 -9.38-14c-.15-.29-.39-.53-.56-.82-2.16-3.47-2.68-7.15-.65-10.77 1.8-3.27 5.18-.71 7.31-1.66z" fill="#fa5746"/><path d="m689.4 339.17c-10.8-2.72-22.51-.88-33.36-5-4.82-1.84-5.91-6.64-2.3-10.26.33-.34 1-.84 1.21-.73 7.06 3.27 11.09-4.24 17.51-4.88 9.74-1 19.28-.16 28.88.06a76.73 76.73 0 0 1 19.92 2.64c5.08 1.49 5.42 3 3.62 7.82-2.18 5.88-5.56 7.82-11.58 6.27-2.53-.66-4.71 2.45-7.7 1.5-.82-.26-2.1 1.28-3.12 1.21-4.35-.25-8.55.62-13.08 1.37z" fill="#fa5847"/><path d="m660 450.26c-4.19.92-6.87-1.28-9.36-3.23-7.83-6.13-14.4-13.49-20.51-21.33-3.23-4.14-2.08-8.09-.16-12 1.06-2.16 3.15-3.56 5.81-2.28a6.06 6.06 0 0 0 3.88.52c9.24-1.91 14.55 3.39 19.85 9.84s9.28 13.51 13.75 20.38c1.6 2.46-2.7 9.1-5.7 8.27s-5.5 1.84-7.56-.17z" fill="#fa5847"/><path d="m254.71 289.12c13 .11 25.65 1.95 37.45 7.87a7.7 7.7 0 0 1 4.44 7.56c-.11 2.62-1.62 4.84-5.13 5.76-10.39 2.7-20.69.95-31 .12a53.42 53.42 0 0 1 -19.9-5.42c-2.65-1.34-5.48-2.68-4.54-6.67s2.75-7.32 6.94-8.24c3.86-.83 7.8-1.67 11.74-.98z" fill="#fa5847"/><path d="m511.21 405c2.91-9 5.8-18 8.73-27 2.36-7.26 2.38-7 8.7-3 8.61 5.41 17.58 10.24 26.39 15.32-.79 1.21-1.92 2.11-2.07 3.8-.7 8.13-10.9 17-21.39 15-6.79-1.36-13.46-3.39-20.36-4.12z" fill="#fa5746"/><path d="m692.89 802c5 7.08 10.16 14.08 14.21 21.8-11.17 9.2-23.67 16.33-36.3 23.23-11.7 6.39-23.22 13.17-35.56 18.29-9.06 3.76-18.16 7.28-27.62 10.18-7.47 2.29-15.36 3.88-22.75 7.1-6.91 3-15 3-22.7 1.57-3.77-7.41-7.55-14.83-9.17-23.1a43.86 43.86 0 0 1 6.15-2.95c12.49-3.89 25.19-7.17 37.49-11.56 12-4.3 24.28-8.12 35.93-13.54 9.79-4.55 19.89-8.34 29.2-14 10.08-6.18 20.72-11.4 31.12-17.02z" fill="#9b81ea"/><path d="m682.14 781.71c-12.14 10.23-26.33 17.06-40.78 23.29a402.54 402.54 0 0 1 -48.91 16.91c-7.87 2.26-16.09 3.45-23.94 5.59-8.43 2.3-17.06 2.57-25.44 4.58-1.38-4.59-2.54-9.25-4.21-13.73-1.05-2.81-.61-3.85 2.29-5 9-3.54 18.92-3.33 27.7-7.37 5.3-2.44 11.08-3.2 16.48-5.84 3.74-1.84 9.37-1.52 14-3 10.25-3.34 20.67-6.14 30.67-9.89 14.63-5.41 29-11.59 41.93-20.43 3-2 3.76-.11 4.59 1.7 2.03 4.33 3.77 8.79 5.62 13.19z" fill="#9b81ea"/><path d="m429.59 501.58c-.41.29-.61 1.28-1.24.74-.47-.42-.18-1.13.52-1.43z" fill="#fdccc7"/></g></svg>