<svg height="440" viewBox="0 0 1446.6 1392.85" xmlns="http://www.w3.org/2000/svg"><g transform="translate(-13.95 -1.86)"><path d="m352.81 1080.21c-3.21-3.34-7.73-4.38-11.75-5.88-18.18-6.81-35.75-15-53.43-22.94-5.37-2.41-11-4.77-15.77-8.53 3.13-1.89 6.81-1.59 10.18-2.52q20.22-5.53 40.47-11c6.21-1.69 11.47-9.66 10.14-16-1.22-5.76-2.79-11.46-4.49-17.1-2.71-9-5.39-18.07-8.57-26.94-3.09-8.6-4.2-17.75-7.71-26.24-2-4.82-3.31-9.92-5.11-14.82-1.51-4.12-.22-10.52-7.81-10-.67 0-1.38-.79-2.12-1.12a11.37 11.37 0 0 0 -7.75-.38c-7.79 2.12-15.53 4.42-23.31 6.57-11 3.05-22 6-33 9 .1-12.81.61-25.63-2.88-38.2-4.57-16.43-9.06-23.42-25.54-27.81-11-2.95-22.46-2-33.54-1.49s-21.88 3.95-32.82 6.19c-15.67 3.23-31.15 7.44-47.11 9.2-2.89-7.41-7.82-13.7-11.43-20.74-6.46-12.57-12.46-25.37-17.69-38.52-3.88-9.77-7.63-19.64-10.74-29.68-2.29-7.36-5-14.65-6.15-22.34 3.68-10.13 9.95-18.67 16.54-27.53 2 10.44 7.55 19.05 17.16 20.38 5.36.73 10.92 1.3 16.21.62 3.27-.43 7 0 10.09-2.82 8.34-7.74 11.87-17.64 12.9-28.41.82-8.57-2.59-15.3-11.24-18.82-5.35-2.18-10.75-1.75-16.19-1.48-1.2.06-2.31.55-3.07-.62s.29-1.83.85-2.58c2.84-3.81 5.8-7.54 8.54-11.42 3.55-5 8.69-8.26 13.31-12.07a167.15 167.15 0 0 1 17.72-12.84 52.48 52.48 0 0 1 17.2-6.93c2 2.09.53 4.77 1.18 7.11 4.39 15.86 6.57 32.17 9.9 48.25 4.28 20.7 8.63 41.39 12.77 62.12.35 1.73.82 2.9 2.37 3.23 5.4 1.15 10.67 3.31 16.4 1.45 14.26-4.63 29.25-6 43.79-9.5 11.61-2.77 23.55-4.66 35.38-6.77 7.11-1.27 14.23-2.49 21.2-5.34 4.65-1.9 10.81-1.31 16.33-2.29 11.61-2 23.08-4.53 34.55-7.19 3.71-.85 4.32-2.45 4.74-5.89.47-3.87-1.57-7.39-.63-11.13 0-2.7 4.6-6.16-1.3-7.88h.11a1.92 1.92 0 0 0 -.75-2.06c-1.39-7.23-2.81-14.47-4.16-21.71-2-10.83-4.08-21.65-5.93-32.51-1.83-10.69-3.73-21.39-4.92-32.16-.4-3.63-1-6.22-4.3-8s-6.1-3.73-9.11-5.65c-5.83-3.72-12.2-6.85-17.3-11.39-4.91-4.37-12.88-1.92-16.55-8.68-1-1.9-4.51-2.48-6.86-3.67 8-3.44 16.07-6.6 23.86-10.4a58.66 58.66 0 0 1 25.62-6.19 109.23 109.23 0 0 1 33.43 5c5.25 1.66 4.79 3.07 3.79 7.27-3.12 13.15-7.31 26.3-1.85 40 3.26 8.16 7.89 14.6 15.57 19.35 8.59 5.32 18.08 5.66 27.46 6.92a56.69 56.69 0 0 0 12.21.42c12.76-1 17.67-10.13 20.88-20.91.86-2.92 1.47-5.87.71-8.74a65.38 65.38 0 0 0 -11-22.8c-9.49-12.66-22.49-20.66-36.7-26.87-2.27-1-2.47-1.91-1.87-3.48 4.73-12.5 10.16-24.77 18.07-35.54 5.89-8 11.09-16.54 17.83-24 3.47-3.83 7.35-7.68 8.86-13 16.47.39 25.76-10.25 32.23-23 3-5.91 5.09-4.83 9.24-3.05 10 4.29 20.66 6.61 31.45 5.86 12.44-.87 22.75-6.6 30.2-17.05s9.15-21.71 4.7-33.71c-1.07-2.87.22-3.36 2.3-4.1 6.66-2.38 13.34-4.67 19-9.29 10.83-8.93 17.18-20.09 18.09-34.28.72-11.22-2.48-20.56-11.6-27.66-5.54-4.31-12.21-5.83-18.62-7.59-10.06-2.76-10.12-2.31-7.52-12.07 4.15-15.62.37-29.36-10.3-41.22-6.34-7.05-15.34-9.13-23.9-11.86-9.06-2.89-18.06-3.63-26.75 1.32-1.74 1-3.27 1.2-3.66-1.27-1-6.4-7.3-7.57-11.28-10.56-3.13-2.36-8-3.42-12.21-4.46-7.09-1.73-14.37-1.92-21.62-2.14a8.14 8.14 0 0 1 .81-1.77 346.59 346.59 0 0 0 24.24-35.87 160 160 0 0 0 18.26-43.37c2.31-9.28 5.87-18.42 2.6-28.34a4.94 4.94 0 0 1 2.3-5.48 156.25 156.25 0 0 0 15.11-9.69c13.13-9.43 24.91-20.42 36.2-32q18.24-18.65 36.58-37.21c.91 0 1.81-.1 1.83-1.35l-.09-.17a3.27 3.27 0 0 0 2.86.2c7.06-2.48 14-5.24 21.22-7.35 12.34-3.64 24.65-7.41 37.25-10.16 19.95-4.38 39.88-8.95 60.09-12.06 11.63-1.8 23.29-3.4 34.93-5.1 6.73 5.44 12.34 12 17.8 18.6 14.06 17 24.19 36.26 31.3 57.14.88 2.57.75 4-1.83 5.66a83.61 83.61 0 0 0 -10.59 8.62 125.83 125.83 0 0 0 -20.43 24.48c-9.87 15-17.81 30.64-14.38 49.57 2 10.9 6.17 20.53 15.67 26.94 5.45 3.67 11.76 5.81 17.93 7.76 11.92 3.77 20.74-1.83 28.48-10.55 14-15.73 16.28-35.11 16.6-54.7.17-10.5-1.64-21.14-3.49-31.64-.47-2.6-1-4.62-3-6.29 3.2-3.18.8-6.52.22-9.77-.17-1-.1-1.53.75-2 9.93-5.82 19.07-12.86 29.71-17.67a226.1 226.1 0 0 1 24-9.66c26.36-8.41 52.64-15.92 80.95-13.72 16.19 1.27 31.32 3.63 44.53 14.14 8.68 6.92 15 14.88 18.34 25.56 5.94 18.9-.9 38.12-13.74 47.35-1.09-1.61-.85-3.13-.54-5.08 1.77-11.18 2.46-22.25-4.38-32.4-3.5-5.18-6.64-10.12-12.15-14-4.32-3-7.46-7.77-13-9.61-10-3.3-19.93-6.81-30.39-7.62-17-1.32-33.15 1.52-47.71 11.22-10 6.65-17 15.65-22 26.31-3.8 8.08-3.66 16.49-1.29 25a62.57 62.57 0 0 0 -23.51 11.48c-6.06 4.72-12.58 9.22-17.4 15.06-6.76 8.22-7.9 18.65-6.41 28.95.91 6.3 3 12.69 6.81 17.84 3.63 4.87 5.51 10.55 2.59 15.9-5 9.07-10.21 18-15.52 26.9-1.42 2.37-.61 2.58 1.52 3.51 6.32 2.75 11.34-1.29 15.73-3.82 8.3-4.78 15.4-11.59 23.4-17 3.53-2.37 6.27-7.68 11.73-5.54 8.57 3.36 17.55 3.21 26.39 3.31 7.15.09 14.62.07 21-4.29-.13 1.39 2.75.84 1.82 2.27-1.77 2.73.17 4.74.94 6.9 2.64 7.4 5.6 14.69 8.18 22.11 6.24 17.92 11.34 36.22 20.89 52.92 6.41 11.22 16 18.6 26.23 25.58 7.59 5.21 16.23 8.32 25 11.09 1.35.43 2.93.66 2.88 2.76-.2 9 3.13 17.09 7.2 24.76a44.12 44.12 0 0 0 24.87 21.3c10.26 3.66 20.83 5.9 31.85 5.06-.66 1.67 1.53 2.69.74 4.72-1.19 3.07-.71 6.35.2 9.64 1.14 4.16.16 8.64 0 12.8a81.54 81.54 0 0 0 -.11 10.6c.67 6.72 5.7 10.68 12.6 11.27 10.65.92 21.32 0 32 .64s21.32-.92 31.92-.31c13.27.76 26.52.32 39.76.67 2.58.06 5.11-1.48 7.69-.15 2.62 1.69 5.15 3.56 7.89 5 14.54 7.74 20.75 21 18.77 33.75-.2 1.28-.39 2.92-1.23 3.67-9.33 8.36-16.14 18.93-24.64 28-8.11 8.68-15.21 18.3-23.14 27.08a167.54 167.54 0 0 0 -34 56.42 116.87 116.87 0 0 0 -4.53 62.7c2.82 14.41 7.45 28.66 16 41.33 8.65 12.85 19.6 22.47 33.88 28.24 13.21 5.33 27.27 6.84 41.25 8.52 2.8.34 3.26 1.22 3 3.62a50.25 50.25 0 0 0 1.69 19c3.43 12.23 7.58 24.4 15.45 34.71 9 11.79 19.15 21.89 35.69 21-1.57 8.86-3.16 17.72-4.7 26.59-.48 2.74-2.14 3.05-4.63 3-9.56 0-19.11-.22-28.66-.32-14.43-.15-28.8 2.87-43.31 1.37a3.12 3.12 0 0 0 -2.86 1.39c-4.56 5.26-4.29 10.45-1.34 16.5 6.59 13.52 14.89 26 22.7 38.78a21.83 21.83 0 0 0 5.87 6.59c2.94 2.12 3.9 7.61 1.64 9.43-4.36 3.51-7.92 7.8-11.63 11.9-8.2 9-18.41 16-26.21 25.44-5.5-16.49-11-33-18.05-48.88-5.35-12.11-9.64-24.22-11-37.61a86.18 86.18 0 0 1 1.58-25.9 86 86 0 0 0 1-26.69c-.81-7.28-2.68-14.26-4.22-21.35-3.13-14.45-7.44-28.53-14.58-41.58-4.23-7.72-9.63-14.94-13.42-22.69-6.26-12.8-13.53-25.16-18.6-38.54s-10.74-26.5-14.93-40.11c-5.6-18.2-6.47-37.2-7.45-56.13-.62-12.17-1.52-24.26-3.84-36.34-2-10.55-4-20.94-9.31-30.33-8.15-14.37-19.25-26.58-29.82-39.13-5.53-6.56-11.76-12.51-17.52-18.88-6.61-7.3-13.14-14.54-17.59-23.63-8.77-17.91-13.52-37.25-20.67-55.72-4.49-11.6-9-23.29-15.38-33.84-3.79-6.23-7.73-12.55-11.93-18.62a107.7 107.7 0 0 0 -20.06-22c-9.24-7.64-20.11-12.67-31.33-17.24s-23-5.28-34.67-4.95c-11 .31-21.61 3.87-32.41 5.94-15.47 3-30.76 6.77-46.6 7.89-9.88.69-19.75 1.09-29.5.09-12.63-1.3-24.92-4.64-37.83-4.92-15.4-.35-30.22 1.07-44.29 7.42a171.42 171.42 0 0 1 -26.06 9.58c-4.47 1.19-7.42 4-10.56 6.16-8 5.36-17 9.88-22.1 18.73-6.46.56-7.62 7.8-12.64 10.36-.43.21-6.07 3-1.35 6.13 1.2.81 0 2.48-.32 2.49-5.94.14-5.06 5.42-6.94 8.7-1.23 2.14.21 4.35-.68 6-3.76 7.19-5.18 15.17-8 22.68-7.33 19.3-20.08 34.84-34.18 49.13-12.12 12.27-26 22.77-38.22 35-1.52 1.52-5.94 2.08-3.21 6-.54.3-1.14.93-1.62.85-2.93-.48-4.21 1.81-5.65 3.46a193.1 193.1 0 0 0 -21.35 29.61c-9.35 16.19-11.67 33.41-8.65 51.51 2.77 16.56 5.52 33.12 1.71 49.83-4.05 17.76-10.58 34.18-25.61 46a116.73 116.73 0 0 0 -14.87 13.85c-10.45 11.66-20.7 23.55-27.1 38.1-3.59 8.15-7 16.4-6.9 25.56.16 12.92 3.57 25.28 6.16 37.82 1.94 9.38 3.16 19 1 28.62-2.93 12.9-8.26 25-13.06 37.17-8 20.14-17.39 39.59-20.87 61.3-1.89 11.83-1.49 23.41 2.68 34.34 5.55 14.56 12.66 28.38 26.8 37 2.35 1.44 4.14 3.89.39 6.88-4.64 3.69-8.41 8.43-12.57 12.67-8.81 9.08-16.73 18.82-24.92 28.22zm217.55-847.21c-10.13-2.68-20.36-5-30.37-8.14-5.85-1.82-3.75 5.1-7.16 5.58.46 1.86 2.24 2.51 3.58 3 15.37 5.87 30.93 11.17 47.13 14.23 6.67 1.26 11.86-2.1 13-8.72a163.91 163.91 0 0 0 2.06-30.59c0-1.69-.22-3.41-2.58-3.52-3.06-.15-5.65-1.68-8.27-3-2.41-1.24-3.54-1.07-5.45 1.57-4 5.47-4.76 11.75-6.09 18.73a64.37 64.37 0 0 1 -8.44-15.82c-3.25-9-7.2-18-7-27.58.45-17.84 6.5-32.93 22-43.91 14-9.91 28.62-16 45.92-14.92h2.5c1.28 0 2.26-.29 2.35-1.88s-.65-1.82-1.94-2.27c-17.11-6-33.81-7.74-50.59 1.85-8.66 5-17 10.15-23.45 17.66a85.73 85.73 0 0 0 -16.78 31.22c-3.3 10.71-2.86 21.11 2.78 30.87 6 10.46 12.74 20.53 21.39 29.08 2 2 5.46 2.75 5.68 6.39zm90.56-70.5a43.65 43.65 0 0 1 8.85 21.7c1.12 10.26.11 20.38-1.85 30.39-2.68 13.66-8.61 25.13-21.21 32.75-7.53 4.55-15.85 6.36-23.8 9.44-6.26 2.42-12.46 4.14-19.23 2.25-2.89-.8-3.94 1.27-5.07 3.66-1.34 2.86 1.34 2.94 2.32 3.65 1.68 1.22 3.87 1.75 5.88 2.48 9.1 3.33 18.26 5.55 28 2.25 6.92-2.35 13.91-3.82 20.72-7.28a60.93 60.93 0 0 0 16.09-12c5.67-5.81 10-12.94 14-20.19 4-7.07 3.3-14.91 5.75-22.15 1-3 .79-6.69.79-10.13 0-17.39-1.79-33.93-18-45.28a11.9 11.9 0 0 1 6.1.84c4.08 1.7 8.19 3.32 12.78 3.11 2.79-.13 7.83-5.27 7.62-8-.07-.85-.05-2-1-1.94-6.5.21-11.68-4-17.74-5.18a212.21 212.21 0 0 1 -26.35-7.25c-3.85-1.31-8.18-3.76-11.49.12-3.08 3.6-7.65 7.4-3.83 13.23.55.84.07 1.56 0 2.35-.24 6.83.12 13.73-.78 20.47-.78 5.88.71 9 6.65 10.29 2.71.6 5.8.7 8.06 2.83 1.57-3 5.44-4.57 5.44-8.54-.08-4.62 1.69-9.08 1.3-13.84zm-536.7 662.87c2.34 2.23 5 2.22 7.32 3.59 6.18 3.66 12.69 6.92 19.82 8.61 1.88.45 3.44.22 4.23-1.48a3.33 3.33 0 0 0 -1-4.46c-8.67-5.68-16.36-12.83-25.79-17.37a2.84 2.84 0 0 1 -1.9-3.11c.28-2.28.15-4.56.54-6.89 1.13-6.81 1.82-13.7 2.44-20.58.58-6.45-5.3-6.92-9.1-8.71-3.24-1.53-4.72 1.89-6.24 4.2-4.06 6.17-5.16 13.32-6.63 20.32-.75 3.56-1.85 4.64-5.71 3-5.56-2.37-11.54-3.74-17.3-5.65-4.45-1.46-4.72 2.84-6.17 4.84-1.09 1.5 1.39 2.29 2.8 3 6.81 3.24 13.62 6.47 20.35 9.85 1.08.54 3.21.41 2.63 2.78-1.44 5.69-.51 11.69-1.21 17.59-.38 3.44-1.33 7.42.33 11 .66 1.45 2.24 2.58-.24 4.26-1.45 1 .94 10.41 2.38 11.13 6.58 3.28 11.51 1.28 13-5.87 2.06-9.72 3.58-19.57 5.45-30.05zm192 41.35c1.58-2-.84-3.37.21-5.39 3.54 2.54 5.36.08 7.1-2.48 1-1.49 1.89-3.09 2.91-4.58 7.63-11.09 17.92-19.87 26.29-30.33 8.63-10.76 9.32-23.42-4.71-29.66-3.87-1.72-8.25-2.33-12.11-4.08-12.52-5.68-23.78-2.24-31.34 9-1.65 2.45-2.41 4.91-.31 7.08 1.9 2 4.37 1.51 6.85.3 4.77-2.34 9.52-5.06 14.61-6.27 2.67-.63 6.88-1.07 9 2.65 2.51 4.38 2.54 9-.43 12.89-10.28 13.4-17.2 28.35-22.34 44.37-1.7 5.28-.17 6.47 4.25 6.5zm19.53 26c.19-2.73.21-6-3.06-5.73-3.68.25-6.09-1.76-9-3a37.26 37.26 0 0 0 -4.7-1.62c-5-1.36-3.22 4.9-6.49 5.86-1.44.42 0 1.88.35 2.91 3 8.13 11.92 6.52 17.4 10.56.14.1.77-.15.86-.37 1.28-3.04 5.7-4.46 4.62-8.59z" fill="#cbefec"/><path d="m832.36 38.89c2.91 0 5.84.28 8.75.13 5.13-.26 9.36 1.78 13.41 5.86.26-2.86-1.59-3.28-2.33-4.63a10.37 10.37 0 0 1 1.53-.27c17.56 0 35 1.9 52.39 3.85 19 2.14 37.94 4.84 56.23 10.3 20.69 6.17 41.48 12.31 61.09 21.52 16.49 7.74 32.69 16.12 49 24.34 12.22 6.17 24.79 11.8 36.4 19 14.21 8.77 29.1 16.58 42.22 27 3.76 3 8.26 4.88 11.69 7.95 6.88 6.17 15.89 9.93 20.82 18.36 1.52 2.59 4.75 3.47 7.09 5.31 10.44 8.16 19.23 18 28.65 27.22a310.89 310.89 0 0 1 36.62 43.63c13.31 18.94 29.9 35.38 41.43 55.64 5.9 10.37 11.8 20.72 17.5 31.2 6.41 11.8 12.22 23.86 17.85 36a319.12 319.12 0 0 1 18.52 51.93c7.72 28.82 10.27 58.05 8.77 87.67-.71 14.14-2 28.28-3.72 42.38-2.4 19.78-5.06 39.58-5.4 59.52-.11 7.19-1.52 14.47.27 21.66a57.29 57.29 0 0 0 -12.62.56c-4.38.62-8.54 1.57-5.43 7.64a1.15 1.15 0 0 1 -.47 1.66c-1.66-.1-1.64-1.65-1.75-2.59-.33-2.63-1.79-2.76-3.43-1.55-3.34 2.48-6.35 5.4-7.8 9.41-.85 2.33-.63 4.31 2.81 4.56 5 .37 9.46-1.53 14.15-2.8s9.27-4.09 14.52-3.35c.49 2.9.81 5.83 1.13 8.75.8 7.14 1.1 14.36 2.93 21.36-5 2.54-9.41 6-13.84 9.39-3.73 2.89-6 6.81-8.21 10.77-3 5.25-1.33 10.89-1.71 16.38-.24 3.47 1.12 4.19 3.55 5.2 2.91 1.21 3.31-1.12 4.24-2.69 4.59-7.69 11.21-13.22 18.83-17.69 1.78 6.84 3.49 13.71 5.36 20.53 3.45 12.59 8 24.82 12.52 37 5.09 13.78 10.72 27.37 15.44 41.28 3.87 11.39 8.13 22.67 11 34.41 5.32 21.74 7.73 43.5 4 65.85a220.55 220.55 0 0 1 -4.39 21.82 31.41 31.41 0 0 1 -1.89-10.49 426.48 426.48 0 0 0 -3.31-42.89c-.86-6.47-1.23-15-11.54-15-.89 0-1.8-.72-2.68-1.16-8.87-4.45-9.94-4.29-17.06 2.63-.59.58-1.16 1.2-1.72 1.81-9 9.91-19.59 18.08-29.47 27-2.3 2.08-5.26 6-7 5.53-2.7-.7-3.34-5.11-4.72-8-.28-.59-.81-1-1.15-1.62a159.69 159.69 0 0 0 -14.14-20.17c-8.67-10.54-16-22.61-30.88-25.71-3.19-.67-6.07-5.39-9.58-1.14-2.26 2.74-4.86 5.41-5.73 9.1-.41 1.75-.93 3.47-1.41 5.21-19.3-13.39-29.19-32.64-33.38-55-1.77-9.42-1-9.42 8.6-10 13.33-.83 23.17-7.36 25.95-19.54 2.26-9.91-2.09-17.83-10.43-17.24a205.93 205.93 0 0 0 -21.34 2.5c-10.07 1.79-15.47 9.82-19.5 18.41-1.29 2.75-2.45 3.35-5.13 3-13.45-1.88-26.5-4.68-38-12.69-12.65-8.82-21.41-20.53-27.34-34.58a122 122 0 0 1 -9.56-36.94c-1.42-16.22.11-32 7.17-46.84 7.16-15.12 15.76-29.22 27.24-41.62 10.58-11.41 20.36-23.56 30.5-35.37 3.77-4.39 7.49-8.82 11.43-13 1.78-1.92 0-3.71.38-5.46.92-4 3.43 2.77 4.6-.59a5 5 0 0 1 .82-1.25c5.07-6.69 6.63-14.68 7.31-22.64 1.06-12.22-3.7-22.13-14-29.12a40 40 0 0 1 11.28-.77c8.38.38 14.94-5.54 14.83-14-.14-12.35.11-24.69-.61-37.06-1-16.7-1-33.45-1.5-50.19 0-.78-.13-2.21-.34-2.24-4.68-.58-7.1-5.59-12.41-5.53-24.64.28-49.28.25-73.92-.65-13.19-.48-26.41-.2-39.62-.22-14.8 0-29.59 0-44.39 0-3.21 0-6.21.87-9.24 1.57-2 .46-3.61 1.33-3.13 4.46a55.07 55.07 0 0 1 .14 13.15c-.51 5.62-2.12 11.23 1.77 16.34.27.35.49 1.22.33 1.35-3.49 2.76-1.32 6.74-2.21 10-2.94-1-5.83-2.14-8.83-2.82-19.74-4.47-28.11-19.14-33.55-36.65 12.72-2.14 24-6 31.92-16.91a58.5 58.5 0 0 0 10.56-26.44c1.61-11.16-6.2-17.56-17-14.66a35 35 0 0 1 -9.09 1.21c-7.5-.08-13.23 3-18.36 7.66-9 8.3-14.6 18.73-17.72 30.58a69.94 69.94 0 0 1 -15.72-8.48c-15.37-10.91-24.07-26.59-31.16-43.52-8.39-20-17.6-39.67-30.18-57.52 15.81-10.31 23.62-25 23.57-43.72 7.73 1.41 14.52-.71 21.37-2.53 3.92-1.05 7.62-4.33 11.58-3.3 6 1.56 12.07 2.8 18.15 4 5.3 1 10.6 2 16 .59 4.91-1.26 5.76-3.77 2.81-7.66-3.16-4.18-7.44-7.47-9.92-12.2 3.3 1.87 3.33-1.76 4.88-2.87 14.86-10.69 22.7-25.32 24.37-43.4 1.35-14.58-3.79-27-12.89-38-6-7.31-15-10.72-22.37-16.17-8.8-6.49-20-8.26-30.23-11.89-15-5.33-30.57-6.58-46.43-6-25 .91-48.72 7.32-72.12 15.77-14.78 5.34-28.81 11.84-41.6 21-1.53 1.09-3.09 2.36-4-1.24s-3.07-6.84-4.68-10.24c3.43 1.72 5.57.86 7.79-2.52 6.32-9.63 11.41-20 17.93-29.51s13.1-19.16 21.29-27.37zm355.64 250.11c-9.52 2-18.41.93-27.15-.47-3.19-.51-6.89.74-9.41-1.21a20.9 20.9 0 0 0 -7.27-3.39 122.54 122.54 0 0 1 -28.17-11.76c-2.11-1.24-1.71-1.66-.93-3.58 2.5-6.12 7-11.13 9.14-17.45 6-17.67 2.89-34.22-6.83-49.37-6.19-9.63-15.62-14.92-27.53-16.44-14.88-1.9-21.88 5.52-27.32 16.8-2.8 5.79-1.42 12.17-1.27 18.32.13 5.46.67 11.13 3 15.9 1.52 3.11 1.7 8.89 4.66 9 5.78.26 2.34 3.68 3.11 5.59.22.55 1 .86 1.34 1.37 4.91 6.77 11.34 12 17.7 17.26 2 1.65 1.47 2.77-.13 3.86-7.22 4.95-15.55 8.3-24 8.23-12.89-.11-25.67 0-38.56.9-17.89 1.25-31.59 10-44 21.64-9.09 8.53-14.53 19.78-21 30.21-.76 1.21-.66 3.07-.6 4.62 0 1 .23 2.36 1.6 2.7 1.2.3 1.5-.85 2.23-1.4 4-3 6.71-7.5 8.81-11.36 6.56-12.06 17-19.47 28.26-25.63 7.9-4.32 17.08-6.16 26.12-7.9 13.25-2.55 26.55-1.37 39.84-1.71 10.84-.28 21-2.58 29.37-10.17 2.8-2.53 5.81-6.17 10.39-3.16 7.17 4.73 15.25 7.45 23.13 10.6 16.52 6.6 33.51 11 51.5 9.71 10.44-.73 20.53-2.54 29.81-8.12 11.64-7 21.22-15.58 26.46-28.44 1.93-4.72 2.91-9.38 1.37-14.38-.32-1-.22-2.41-1.93-1.87-1 .32-1.68.86-1 2.16.82 1.51-.06 2.85-.74 4.21a58.18 58.18 0 0 1 -18.34 21.43c-7.29 5.24-14.56 10.44-23.65 11.95-3.4.56-6.33 1.45-8.12 4.67a1 1 0 0 1 -1.67.08c0-.16-.12-.36-.06-.47.54-.79 1.02-1.58 1.84-2.93zm-44 389.26c.55 14.78 7 25.62 20.38 32.48 5.59 2.88 11.61 4.52 17.24 7.23 9.56 4.6 18.87 2.42 26.81-3.56 5.75-4.33 10-10.55 13.66-16.85 6.55-11.45 9.38-24.13 11-37.08 1-7.85 1.36-15.76-1.24-23.41-2.27-6.69-6.63-11.92-13.1-14.61-3.29-1.37-7-1.79-10.39-3.37a40.6 40.6 0 0 0 -21.68-3.66c-8 .8-13.58 5.07-19.27 10.6-14.86 14.4-22.31 31.72-23.41 52.18zm110.14 23.59c1 1.16 1.87 1.94 2.53 2.85 5 6.93 9.83 14 15 20.81a23.45 23.45 0 0 0 15.4 9c2.34.37 5.2 3.9 6.8-.51 1.39-3.86 2.86-7.67-.51-11.92-9.43-11.87-18.32-24.14-25.3-37.71-1.64-3.2-1.58-4.9 1-7.5 4.52-4.59 9.81-8 15-11.74 8.37-6 16.84-12 23.76-19.78 1.37-1.54 3.72-3.33 2.45-5.23s-4-2.77-6.68-2.39a14.54 14.54 0 0 0 -3.34 1c-5.92 2.45-11.59 5.42-17.28 8.38-6.85 3.56-12.48 9.09-20.08 12.31.61-4.3 1.08-8.22 1.73-12.1.7-4.12 1-8.26-.57-12.18-1.19-2.88-4.53-1.46-6.71-2.68-1.79-1-3.55-3.79-5.93-1.91a12.07 12.07 0 0 0 -3.91 5.51c-2.66 8.67-5.17 17.4-7.3 26.21-3.77 15.63-6.36 31.52-9.45 47.29a31.77 31.77 0 0 0 2.49 19.64c1.6 3.58 10.78 4.91 12.61 1.87 3.05-5 5.83-10.07 6.55-16.27.47-4.01.3-8.21 1.75-13zm38.29-252.16c-2 .15-3.53-.06-5 2.55-2 3.53-1.39 6.61-.67 9.83a107.79 107.79 0 0 0 12.63 31.3c.79 1.34 1.07 2.41-.28 3.45-7.1 5.42-12.44 12.82-20.08 17.66-1.77 1.12-3.15 3.7-.3 4.7 4.28 1.5 8.63 2.49 13.33-.33 5-3 9.32-6.73 14.27-9.62 1.2-.7 2.5-2.2 4 .13 4.53 6.86 11 12 16.73 17.72 4.31 4.33 9.83 7.13 15.16 10.06a4.22 4.22 0 0 0 5.14-.44c1.7-1.62-.42-2.62-1.08-3.74-6.61-11.22-13.31-22.38-19.92-33.6-.57-1-1.94-2.53 0-3.26 2.61-1 4.19-3.25 6.06-4.89 6.25-5.47 12.87-11 14.76-19.79.18-.85 1.34-1.55.07-2.54-5-3.87-11.76-3.14-16.67 1.53-3.6 3.41-7.66 6.34-11.21 9.79-2.45 2.39-3.8 1.55-4.56-1-1.34-4.58-3.76-8.74-4.8-13.45-2.65-12.24-7.11-16.17-17.57-16.11zm39.26 305.88c4.77 0 11.41-6.64 11.41-11.37 0-1.89-.45-3.5-2.51-3.56-4.1-.12-7.66-1.92-11.21-3.52a4 4 0 0 0 -4.52.57 28.92 28.92 0 0 0 -6.82 7.13c-1.74 2.73-1.14 4.91 1.3 6.29 3.83 2.12 7.66 4.6 12.36 4.41z" fill="#cbefec"/><path d="m1012.23 1373.94c-4.63 13.14-16 16.81-27.85 18.91-18.15 3.23-36.17 1.34-54.24-2.18-16.1-3.13-31.73-8-47.73-11.35-10.79-2.24-21.91-2.9-32.88-4.32a55.87 55.87 0 0 1 -12-2.46c-2.8-1-6.4 0-9.77-.36-11-1.18-22-2.78-33-3.28-7.7-.35-15.45-.57-23.19-.84a79.9 79.9 0 0 1 -12.06-1.33 12 12 0 0 0 -6.8.24c-2.17.78-4.4.52-6.76.3-6.12-.58-12.44 0-18.44-.64-5.21-.54-10.32.7-15.65-.46-3.54-.78-8 0-12 .17-25.49 1.17-50.15 7.16-74.82 13.23a61.26 61.26 0 0 1 -18.27 1.47c-4-7.84-8-15.68-12-23.65 3.87-.84 7.2-1.61 10.56-2.28 4.75-1 10.1-6.93 10.29-11.79.32-8.16-2-14.75-10.15-18.52a30.68 30.68 0 0 1 -7.18-4.49c8-4.13 12.45-9.91 11.34-19-.28-2.22.09-4.49-3.43-3.38-.95.3-2.84 0-2-1.66 2.88-6.1-2-8-5.58-10.35-4.18-2.73-10.57-7.94-12.41-10.73a15.5 15.5 0 0 1 -2.35-11.79c1.13-5.57 2.2-11.16 4.29-16.55 3.06-7.89.42-11.61-7.7-11.77a18.49 18.49 0 0 1 -3-.15c-8.64-1.63-15.8 1.48-22.95 6.09-3.58 2.31-5.37 6.06-8.81 8.23l-3-1.28c-.34-2-.6-3.91-1-5.84a226.39 226.39 0 0 1 -4.4-32.33c-.78-11-1.44-22.21.13-33a99.06 99.06 0 0 1 8-27.19c9-19.36 16.64-39.11 20.8-60.23 3-15.36 6.63-30.62 9.74-46 .43-2.15.94-4.16-.63-5.37a4 4 0 0 0 -5.45.35c-.12-4-.05-8-.42-12-1.17-12.67-3.22-25.23-3.92-38-.43-7.9-1.55-15.79-2.31-23.69-1-11-3.06-21.89-4.66-32.84 4.49-1.67 7.72-5.55 12.45-6.89a11.53 11.53 0 0 0 6.57-4.68c3.81 26.52-1.18 53.45 3.77 80 4.67-29.16 6.61-58.68 12.16-87.7v.31c0-.49 0-1 .08-1.47 2.71-1.68 6.69-.26 8.72-2.71 2.52-3 6.33-4 9.23-4.92 10.64-3.25 19.7-10 30.36-13 6.43-1.81 11.37-7.12 18.77-7.66-2.82 1-2.08 3.14-2.1 5 0 1.52.13 3.16-1.58 3.83-4.68 1.84-7.38 6-11.06 9.07-4.92 4.05-6 14.72-1.72 18.76 3.72 3.46 6.71 7.39 9.91 11.27 12.53 15.21 25.3 30.29 41.6 41.75 3.43 2.41 3.24 4.16.74 7.35-4.93 6.27-2 17 5.11 20.49a35.43 35.43 0 0 0 14.48 3.52c4.46.17 3.18 2.32 2.23 5.12s-4.28 5.44-1.45 8.56c3.8 4.17 6.84 9.16 13.74 9.52 4.72.24 9.56 1.84 9.73 8.39.06 2.22 1.09 4.46 1.91 6.59 8.26 21.58 17.62 42.7 30.58 61.88 4.08 6 4.38 15 12.76 17.94.69.25.38.65.23 1.09-.83 2.3-.6 3.3 2.15 2 1.23-.57 2.65 1 1.85 1.58-4.06 3-.67 5.38.73 7.3a267 267 0 0 1 16 25.7c6.2 10.89 12.76 21.58 19.27 32.26 7.77 12.76 17.29 24.36 26.56 36.11a291.25 291.25 0 0 0 43.6 44.84c6.4 5.27 13.6 9.62 20.77 14a116.48 116.48 0 0 0 22.41 10.2c5.75 2 13 1.86 19.82.07 7-1.83 13.65-4.53 20.87-5.72a73.15 73.15 0 0 0 10-2.77c3.34-1.08 6.86-1.78 10.07-3.2 2.41-1.07 2.51 0 2.5 1.79v15.68c-.12 14.41.69 28.76 2 43.11.75 9.87 2.61 19.27 7.84 27.75zm-449.64-434.26c-.24.18-.61.31-.65.52a.83.83 0 0 0 .34.74.63.63 0 0 0 .89-.68c-.01-.2-.37-.38-.58-.58z" fill="#fdccc7"/><path d="m577.54 920.41a11.53 11.53 0 0 1 -6.57 4.68c-4.73 1.34-8 5.22-12.45 6.89-3.76 1.56-7.69 2.92-10.34 6.2a10.59 10.59 0 0 1 -6.72 3.8 7.72 7.72 0 0 0 -4.93 2.72c-3.69 4.49-9.06 6.56-13.76 9.32-7.39 4.35-14.44 9.36-22.19 13-4.83 2.26-6.82 7.35-11.44 9.82-1.57.83-3.54.68-5.21 2.76-4.51 5.63-11 9.46-16.68 13.86-4.68 3.61-10.2 6.94-14 11-6.47 6.89-13.55 13.11-20.44 19.43-15.92 14.62-31.92 29.11-47 44.64-6.84 7-14.12 13.71-20.84 20.82a131.62 131.62 0 0 0 -18.88 26.48c-6.17 11.1-14 21-14.84 35.18-1.26 21.57 2.63 41.45 13.95 59.28 11.7 18.45 23.71 33.25 41.24 48.06a426 426 0 0 0 37 28.19c9.19 6.18 18.42 12.34 27.57 18.61 16.63 11.4 33.07 23.09 50.52 33.25-.4 4.59-2.8 8.9-2 13.68-15.83-8.55-31.94-16.61-46.95-26.62-16-10.67-31.77-21.66-48-32-20.86-13.25-40.32-28.27-57-46.39-13.24-14.34-26-29.31-33.74-47.7-3.33-8-4.33-16.44-5-24.93a176 176 0 0 1 -.71-21.41c.27-6.49 3.17-12.59 6-18.21 5.14-10.21 9.12-21.25 17.11-29.8 7.51-8 14.6-16.39 21.56-24.88 8.23-9.4 16.11-19.14 24.84-28 4.16-4.24 7.93-9 12.57-12.67 3.75-3 2-5.44-.39-6.88-14.14-8.63-21.25-22.45-26.8-37-4.17-10.93-4.57-22.51-2.68-34.34 3.48-21.71 12.91-41.16 20.87-61.3 4.8-12.15 10.13-24.27 13.06-37.17 2.19-9.67 1-19.24-1-28.62-2.59-12.54-6-24.9-6.16-37.82-.11-9.16 3.31-17.41 6.9-25.56 6.4-14.55 16.65-26.44 27.1-38.1a116.73 116.73 0 0 1 14.89-13.83c15-11.79 21.56-28.21 25.61-46 3.81-16.71 1.06-33.27-1.71-49.83-3-18.1-.7-35.32 8.65-51.51a193.1 193.1 0 0 1 21.35-29.61c1.44-1.65 2.72-3.94 5.65-3.46.48.08 1.08-.55 1.62-.85-2.73-4 1.69-4.53 3.21-6 12.22-12.25 26.1-22.75 38.22-35 14.1-14.29 26.85-29.83 34.18-49.13 2.84-7.51 4.26-15.49 8-22.68.89-1.69-.55-3.9.68-6 1.88-3.28 1-8.56 6.94-8.7.31 0 1.52-1.68.32-2.49-4.72-3.17.92-5.92 1.35-6.13 5-2.56 6.18-9.8 12.64-10.36 5.12-8.85 14.13-13.37 22.1-18.73 3.14-2.12 6.09-5 10.56-6.16a171.42 171.42 0 0 0 26.06-9.58c14.07-6.35 28.89-7.77 44.29-7.42 12.91.28 25.2 3.62 37.83 4.92 9.75 1 19.62.6 29.5-.09 15.84-1.12 31.13-4.93 46.6-7.89 10.8-2.07 21.44-5.63 32.41-5.94 11.68-.33 23.3.31 34.67 4.95s22.09 9.6 31.33 17.24a107.7 107.7 0 0 1 20.06 22c4.2 6.07 8.14 12.39 11.93 18.62 6.41 10.55 10.89 22.24 15.38 33.84 7.15 18.47 11.9 37.81 20.67 55.72 4.45 9.09 11 16.33 17.59 23.63 5.76 6.37 12 12.32 17.52 18.88 10.57 12.55 21.67 24.76 29.82 39.13 5.33 9.39 7.29 19.78 9.31 30.33 2.32 12.08 3.22 24.17 3.84 36.34 1 18.93 1.85 37.93 7.45 56.13 4.19 13.61 9.86 26.77 14.93 40.11s12.34 25.74 18.6 38.54c3.79 7.75 9.19 15 13.42 22.69 7.14 13.05 11.45 27.13 14.58 41.58 1.54 7.09 3.41 14.07 4.22 21.35a86 86 0 0 1 -1 26.69 86.18 86.18 0 0 0 -1.58 25.9c1.33 13.39 5.62 25.5 11 37.61 7 15.89 12.55 32.39 18.05 48.88l2.46 7.67c1 8.19 4 15.93 5.44 24.07 3 16.44 4.26 32.75-.87 48.81-2.27 7.12-4.91 15.55-11.42 19.13-9.09 5-11.9 11.34-10.2 20.78 0 .16 0 .33.06.5-.31 10.54-1.05 21-4.08 31.23-3.17 10.61-7.94 20.47-13.29 30.15a73 73 0 0 1 -12.94 17.5 167.3 167.3 0 0 1 -13.91 12.23c-5 3.85-8.85 9.15-13.4 13.6-10.6 10.35-22.58 18.94-34.94 27-5.74 3.76-11 8.39-17 11.65-5 2.73-9 7.07-14.32 9.15-2.44.94-2.61 2.43-2.26 4.74 2 12.82 1.33 25.6-.63 38.4-2.47 16.14-5.57 32.25-3.89 48.73a19.29 19.29 0 0 1 .34 2.35c-.05 2.25 2.44 4.86.63 6.47-2.06 1.83-5 .4-7.49-.53-5.19-8.48-7.09-17.88-8-27.63-1.27-14.35-2.08-28.7-2-43.11 0-5.23 0-10.46 0-15.68 0-1.8-.09-2.86-2.5-1.79-3.21 1.42-6.73 2.12-10.07 3.2a73.15 73.15 0 0 1 -10 2.77c-7.22 1.19-13.92 3.89-20.87 5.72-6.78 1.79-14.07 1.91-19.82-.07a116.48 116.48 0 0 1 -22.41-10.2c-7.17-4.34-14.37-8.69-20.77-14a291.25 291.25 0 0 1 -43.6-44.84c-9.27-11.75-18.79-23.35-26.56-36.11-6.51-10.68-13.07-21.37-19.27-32.26a267 267 0 0 0 -16-25.7c-1.4-1.92-4.79-4.27-.73-7.3.8-.6-.62-2.15-1.85-1.58-2.75 1.28-3 .28-2.15-2 .15-.44.46-.84-.23-1.09-8.38-3-8.68-11.9-12.76-17.94-13-19.18-22.32-40.3-30.58-61.88-.82-2.13-1.85-4.37-1.91-6.59-.17-6.55-5-8.15-9.73-8.39-6.9-.36-9.94-5.35-13.74-9.52-2.83-3.12.53-5.85 1.45-8.56s2.23-4.95-2.23-5.12a35.43 35.43 0 0 1 -14.48-3.52c-7.06-3.48-10-14.22-5.11-20.49 2.5-3.19 2.69-4.94-.74-7.35-16.3-11.46-29.07-26.54-41.6-41.75-3.2-3.88-6.19-7.81-9.91-11.27-4.33-4-3.2-14.71 1.72-18.76 3.68-3 6.38-7.23 11.06-9.07 1.71-.67 1.57-2.31 1.58-3.83 0-1.84-.72-4 2.1-5-7.4.54-12.34 5.85-18.77 7.66-10.66 3-19.72 9.7-30.36 13-2.9.89-6.71 1.89-9.23 4.92-2 2.45-6 1-8.72 2.71-1.34.42-1.09.92-.08 1.47v-.31zm310.09-220.51c-3.9 1.49-4 5.08-5.27 8.76 3.45-1.4 5.32-3.62 7.08-5.95 1.63-1.6 3.82-2.71 4.53-5.12h-.09c1.47 1.1 2-.26 2.67-1.07 4.56-3.52 9.07-6.33 15.45-6.42 3.3-.05 6.68-2 10.4-.8a115.3 115.3 0 0 0 13.6 3.8c10.24 2 17 8.09 22.82 15.95a23.78 23.78 0 0 1 -1.6 30.26c-3 3.29-7.12 5.53-9.92 8.61-8.13 9-19.08 9.84-29.47 11-8.09.94-16.62-.86-24.7-3.24-4.31-1.27-8.24 1.29-11.09 4.86-3 3.75-3.44 8.88-6.49 11.95-4.39 4.42-7.29 9.61-10.49 14.71-2.65 1.11-4.82 2.92-3.49 5.91a17.61 17.61 0 0 1 .81 11.28 7.58 7.58 0 0 0 -3 3.73c-2.48 5.52-4 11.42-7.9 16.38-9.07 11.6-12.89 25-14.45 39.63-.66 6.21 1.18 12.76-1.76 18.7-.85 1.71.63 1.72 1.31 1.81 5.73.69 10.67 3.49 15.8 5.77 2.28 2.17 5.33 2.77 8.1 3.92.61 1.06 1.38 3.1 1.82 3 3.79-.6 6.33 1.84 9.24 3.38l27.78 14.72c2.4 2.5 6.5 2.13 8.72 4.81-1.13 2.34-3.19-.9-4.76 2.08a28 28 0 0 1 14 2.07 25.49 25.49 0 0 0 3.53 2.66c11.13 5.74 22.3 11.4 33.46 17.08l16 8.2c.92 1.3 2.5.55 3.65 1.19 10.15 5.69 20.66 10.68 31 16.08 11 5.78 22.38 11.06 32.44 18.56l15.88 12.16c2 3.14 5.43 4.48 8.28 6.56 6.27 4.56 12.25 9.54 18.68 13.86a163.17 163.17 0 0 1 25.8 20.91c6 6.14 13 11.16 18.5 18 5.65 7 12.64 12.93 16.93 21.06.51 1 .72 2.58 2.12 2.41 1.15-.14 1.44-1.57 2-2.6 4.17-8.13 5-17 4.64-25.79a213.66 213.66 0 0 0 -10.26-57.46c-5.83-17.86-11.71-35.65-19.45-52.79-8.68-19.25-13.62-39.07-9.22-60.4 2.52-12.24 3-24.52.23-37-1.54-6.9-3.59-13.67-5-20.56a113.4 113.4 0 0 0 -12.14-33.28c-12.29-21.85-24.65-43.63-34-67-7.11-17.72-13.82-35.51-17.36-54.41-1.38-7.4-.92-14.82-1.9-22.15-1.43-10.78-.83-21.57-.41-32.3a50.85 50.85 0 0 0 -5-25c-2.93-6-7-11.59-8.6-17.87-2.46-9.7-7.17-17.58-12.94-25.63-4.4-6.16-12.28-10.49-12.55-19.43 0-.51-.82-1-1.27-1.48-5.34-5.71-10.4-11.71-16.07-17.06-8.79-8.29-13.93-18.86-18.89-29.43-6-12.92-9.44-26.87-13.88-40.4-4.84-14.77-11.92-28.24-20.22-41.24-1.85-2.89-5.41-5.38-6.11-7.69-3.17-10.54-11.87-15.45-19.23-22-2.1-1.85-3.63 2.14-4.35-.25-1.13-3.74-4.63-3.39-6.93-5-7.15-5.08-15.27-7.5-23.36-10.25a28.32 28.32 0 0 0 -13-1.45c-8 1.19-16.1 1.33-24 3.36-11.3 2.92-22.86 4.75-34.19 7.68-8.82 2.29-17.8 4.45-27 4.35-5.66-.07-11.28 3.52-16.95.14-6.5 4.23-13.3 0-20 .41-10.6.72-21-5.14-32-2.61a2.1 2.1 0 0 1 -.5 0c-6.78-.75-13.36 1.16-19.93 2.11s-12.9 3.66-19.15 6.07c-11.07 4.27-22.55 7.64-32.41 14.67-5.49 3.9-9.16 9.67-14.49 13.59-5.82 4.28-9.91 9.8-13.63 15.8-8.51 13.73-12 29.72-20 43.8-4.12 7.26-8 14.84-12.11 22.15-9.33 16.52-22.78 29.68-36.51 42.45-17.09 15.9-33.88 31.94-45.59 52.54-8 14.05-10.09 28.86-8.4 44.76 1.18 11.11 3.68 22.1 3.44 33.39-.14 7-1.37 13.75-2.4 20.63-2.53 16.91-9.92 31.21-21 43.82-8.08 9.19-18.29 16.21-26 25.83-8.92 11.07-17.52 22.19-23.23 35.36-3.21 7.4-5.83 15.15-5 23 1.21 11.56 3.79 23 6.36 34.38 2.26 10 3.65 20.13 1 30a273.85 273.85 0 0 1 -13.59 37.12c-7.57 17.45-16.26 34.49-20.62 53.18-1.81 7.74-2.81 15.79-1.44 23.49 1.87 10.45 3.58 21.08 9.08 30.65a95.5 95.5 0 0 0 6 9.54c3.6 4.81 7 4.78 11.19.56.35-.35.74-.66 1.12-1 7.86-7 16.18-13.41 23.37-21.11a21.1 21.1 0 0 0 6-5.93 14.53 14.53 0 0 0 5.12-3.54 93.38 93.38 0 0 1 9.15-8.51 497.33 497.33 0 0 1 41.28-31.11c3-2 5.82-4.15 9.7-2.64 2.27-3.62 4.61-7 9.49-7.47 1.6-.15 1.15-2.51 2.18-3.54 10-4.51 19.08-10.66 28.37-16.36 7.8-4.79 15.82-9.15 23.78-13.62 7.32-4.11 15.29-7.07 22.28-11.87 5.13-1.46 9.71-4.15 14.53-6.33 9-2.61 17.13-7.45 26-10.46 13.3-4.53 25.9-11.25 40.33-13.25-6.79-3.82-12.53-9.06-17.9-14.51-14-14.16-26.4-29.47-33.39-48.49a5.42 5.42 0 0 0 -1.8-2.26 124.05 124.05 0 0 1 -29.46-31.61c-6.72-10.12-14.1-19.9-18.42-31.49a332.59 332.59 0 0 1 -10.23-32.93 86.38 86.38 0 0 1 -2.79-18.39c-.23-5.91 1.12-11.87 1.58-17.82.57-7.35 2.9-14.66 3.24-21.69.37-7.55 3-14.25 4.26-21.33 2.46-13.79 9-26.22 15.86-38.43a149.38 149.38 0 0 1 19.51-27.29c6.48-7.18 11.38-16 20.3-20.78l8.83-4.22c3.54-.31 7-1.45 10.64-.85 8.22 1.35 16.46 2.5 24.59 4.49 17.69 4.31 34.52 12.06 52.93 13.48 20.21 1.56 40 6.22 60.46 6.42a210.54 210.54 0 0 1 48.58 6.64c10.57 2.62 21.45 4.63 31.21 9.33 18.67 9 31.82 23.8 40.54 42.48 9.38 20.11 3.73 40.35.19 60.55-1.2 6.89-6.7 11.65-8.68 18.12zm-241.63-53.76c-.36-.1-1-.37-1-.28-.33.54.16.62.54.73 2.57 7.5-.22 13.83-4.42 19.79a27 27 0 0 1 -4.38 5.13c-3 2.57.55 3.69 1.26 3.79 7.09 1 14.23 1.47 21.34 2.3 2.75.32 5.21-1 7.07-2.15s-1.7-2.9-1.6-4.56c.16-2.5-2-4.71-.84-7.18.55-1.16-.3-1.4-.74-2a60.26 60.26 0 0 0 -17.23-15.57zm274.46 296.23-22-12.11c-17.39-10.48-35.15-20.33-52.37-31.16 4.54 8.06 10.11 15.46 5.31 25.19-.87 1.77-1.77 3.52-2.63 5.29-.76 1.56-.51 1.84 1.42 2.41s5.14-1.28 5.25.24c.22 3 3.19 4.27 3.17 7.51 0 7.81-.7 15.18-4.86 22.11-2.35 3.93-3.35 8.32-1.45 13.19 1.42 3.65 4.08 6.14 6.18 9.16q13.13 18.82 26.23 37.65c1.43 2 4.3 3.24 2.91 7-.74 2 3.09-.95 3.79 1.69s3.27 4.62 4.84 7c4 6 10.13 10.7 11.3 18.51.06.42 0 1.16.78.85 3.42-1.42 3.31 2.35 5.05 3.39q8.73 14.15 18.47 27.61c1.06 1.46 2.52 2.71.95 4.8a.94.94 0 0 0 1.15 1.43c2.81-1.22 3.25 1.2 4.44 2.57 5 5.87 9.71 12.14 15.3 17.44 3.94 3.73 6.07 8.6 10.62 12.2 9.51 7.51 17.32 17.14 26.19 25.51 2 1.89-1.88 3 .32 4.11-1.24.56-2 0-3.09-.77-6.58-4.74-13.22-9.39-19.89-14a121.48 121.48 0 0 1 -26-23.8c-2.69-3.35-4.59-7.55-7.66-10.17-4.08-3.49-7.25-7.47-10.57-11.53-2.11-2.58-3.43-5.5-5.25-8.14-2.24-3.23-6.38-5-6.88-9.66a5.54 5.54 0 0 0 -1.78-3c-2.46-2.31-5.33-4.22-7.46-7-6.27-8.33-10.22-18.22-17.6-25.79-4.86-5-6.51-12-11-17.34a150 150 0 0 1 -10.51-13.91c-6.27-9.4-11.9-19.17-17.51-29-1.11-1.94-1.9-1.34-3-.62-3.15 2-6.14 4.34-9.4 6.17-6.45 3.63-11 9.47-17.63 13.26-11.12 6.39-22.91 11.13-34.43 16.45-8.91 4.11-18.39 7.09-27.82 9.89-3.81 1.14-2.62 2.85-1.21 4.16 3 2.79 4.62 6.34 6.33 9.84 5.77 11.77 11.25 23.69 17.17 35.39 2.85 5.64 6.48 10.87 9.69 16.34q12.34 21.07 24.68 42.27 6.76 11.55 13.62 23c6.92 11.5 13 23.61 21.1 34.26 9.74 12.88 19.18 26.06 30.16 38 10.64 11.57 21.17 23.22 33.41 33.13a105.79 105.79 0 0 0 37.2 19.45 44.3 44.3 0 0 0 25 .22c11.39-3.41 21.23-10.39 31.62-16.1 9.25-5.08 17.68-11.49 27.21-16.11 1.91-.93 4.08-1.11 5.63-2.14 2.82-1.88 5.14-4.53 7.57-7 1.65-1.66 4.46-.88 5.77-2.38 4.53-5.15 11-7.57 16-12.08 9.52-8.48 20-15.91 30-23.81 4.08-3.21 7.4-7.55 11.31-10.51 4.46-3.38 7.3-7.7 10.71-11.65 2.91-3.39 3.3-9.14 5.51-12.05 4.17-5.51 5.63-11.5 7.24-17.53 3.61-13.46 3.49-27.29 3.23-41.14-.13-7.29-2.28-14-4.81-20.53-4.57-11.71-14.34-19.66-22.58-28.64-4.66-5.07-9.73-9.77-14.78-14.45-4.7-4.35-9.23-9.06-14.54-12.53-13.54-8.87-26.12-19-39.1-28.61-10.54-7.78-21.22-15.4-32.84-21.38-22-11.3-43.82-23-66.32-33.28-6-2.08-10.32-7.51-16.86-8.77zm-44.7-264.37c-2.59 4.94-8 5.28-12.29 7-13.34 5.33-27.48 7.55-41.5 10.43-16.05 3.29-32.07 4.95-48.39 3.07-4.74-.55-9.15-4.52-9.06-8.48.11-5.17 1.17-10.08 4.17-14.5 4.59-6.76 10.47-12.28 16.42-17.79a41.94 41.94 0 0 1 14.17-9c7.2-2.58 15 .15 22.35-2.06 3.63-1.1 7.44.85 11 1.53a199.84 199.84 0 0 1 23 6.4c4.37 1.42 7.06 4.51 10.37 6.67 4.78 3.13 10.72 6.11 12 13.22 3.36-6.41 2.84-13.36 3.06-19.63.34-10.05-1.58-20.57-6.83-29.31-6.88-11.44-14.62-22.58-25-31.28-5.6-4.72-11.44-9.83-18.8-11.54a197.37 197.37 0 0 0 -31.22-4.38c-21-1.47-42-3.31-63-6.41-16.62-2.46-33.25-4.4-49.35-9.38-8.46-2.61-17-5.15-25.21-8.37-4.1-1.61-8.64-3.34-12.48-3.58a29.56 29.56 0 0 0 -13.26 2.57c-7.76 3.44-14.31 7.89-19.54 14.5-10.87 13.75-19 29.28-28.1 44.12-5.09 8.28-10.08 17-9.55 27.89 9.22-7.67 20.25-8.81 31.2-10.09 9.48-1.12 18.88-1.78 28.16 1.92 10 4 19.51 8 27.84 15.47 7.47 6.66 13.26 13.29 14.43 23.5.31 2.73-1.17 5.06-.52 7.79 1.68 7-4.12 12.61-11.06 10.89a19.22 19.22 0 0 0 -2.9-.54 337.21 337.21 0 0 1 -46.81-7 158.06 158.06 0 0 1 -26.16-8.23c-6.09-2.59-11.85-6-18.67-8.65 1.31 3.65-.83 6.31-.64 9.37a216.32 216.32 0 0 0 4.57 34.73c2.84 12.45 8.57 23.69 14.35 34.86 4.66 9 6.64 19.18 12.53 27.56 2.17 3.08 5.12 5.7 6.82 9 3.14 6.1 10 8 13.81 13.26a1.62 1.62 0 0 0 1.28.64c5.29-1.07 9.91 1 14.92 2.17 8.32 1.85 16.25 4.16 23.3 8.68 9.58 6.14 19.63 11.58 28.71 18.52 2.3 1.75 3.8 4 7 5.37 8.09 3.49 16.27 6.72 24.41 10.09 6.15 2.54 12.91.54 18.8 3.56 7.92-4.44 17.56-1.78 25.7-6.79 4.66-2.85 10.17-4.74 14.84-7.9 1.54-1 3.43 1.44 3.28.3-.73-5.58 4.71-5.69 7.08-8.29 4.76-5.22 9.51-10.51 14.59-15.48 2.47-2.42 6.08-3.29 7.8-5.55 6.09-8 14.14-12.95 22.9-17.15.89-.42 2.14-.62 2.59-1.32 3.13-4.93 8.33-7.38 12.74-10.71 12-9.08 23-19.18 31.11-32 4.73-7.52 12.31-11.42 18.95-16.55a7.14 7.14 0 0 1 3.23-1.12c2.44-.36 3.43 2.08 5.22 3a1.35 1.35 0 0 1 -.12 2.17c-4 1.94-6.17 5.89-9.71 8.41-4.39 3.14-8.16 7.15-13.09 10.08 1.72 1.18 3.78 2.6 4.31 1.6 2.11-4 4.62-.93 6.5-.43 4.49 1.19 8.93.7 13.35.43 8-.5 14.79-5.16 22.13-7.87s11-11.27 8.63-16.74a53.77 53.77 0 0 0 -13.21-18.22c-1.59-1.44-3.42-2.55-5.15-2.51-5.47.13-10.79 1.2-15.57 4.28-7.64 4.93-14.37 11-22.46 15.52s-15.62 9.57-23.87 13.59c-2.56 1.25-5 5.05-8.57.42-1.61-2.1-2.51-1.36-.57-3.41.66-.69 1-1.66 1.73-2.33 2.82-2.77 1.42-7.69 4.06-9.81 3-2.36 2.48-5.52 3.94-8.09a61.84 61.84 0 0 0 5.49-14c1.64-5.82 3.69-11.52 4.49-17.55.85-.39 1.2-.94.55-1.79zm-48.41 169.12c-2.83-.78-3.75-2.36-2.47-4.57 1-1.67 1.36-3.51 2.39-5.21 3.54-5.81 7.17-11.69 9.64-18a59.19 59.19 0 0 1 10.41-17.06c2.36-2.74 2.17-5.39 2-8.26-.13-1.92-.87-2.12-3.23-1.6-4.51 1-7.84 3.81-11.4 6.05-4.23 2.67-7.66 6.61-11.43 10-8.07 7.24-18.18 12.57-22.15 23.67-.31.86-1.37 1.43-2 2.18-3.75 4.34-8.65 7.14-13.49 10-8.92 5.25-19 7-28.91 6.7a119.49 119.49 0 0 1 -29.1-4.42 186.37 186.37 0 0 1 -30.51-11.33c-5.12-2.47-9.87-5.79-14.67-9-6.06-4-12.16-8.29-18.76-11.49-7.14-3.47-13.07-9.09-20.85-11.41-5.06-1.51-6.51-.77-8 4.32a9.6 9.6 0 0 0 .16 6.68c2.42 6 4.74 11.53 9.29 16.75 9.45 10.81 19.6 20.94 29.09 31.67a4.18 4.18 0 0 0 2.34 1.54c5.23 1.2 9.23 4.75 13.74 7.32q4.29 2.46-.31 5c-3.6 2-7.46 2.42-11.41 2.74-6.3.5-6.86 3.55-5.69 9 .71 3.3.93 6.18-1.54 8.69-3.13 3.18-6.36 6.25-9.53 9.38s-4 6.29-2.69 10.71c2.12 7.21 7.25 12.17 11.77 17.65a322.65 322.65 0 0 0 31.96 33.36c2 1.81 4.83 2.22 6.4 0 1.83-2.57 3.19-3.6 6.26-2a3.66 3.66 0 0 0 4.38-1.34 6.94 6.94 0 0 1 3.63-2.43c9.62-2.33 17.59-7.94 25.81-12.95 7.82-4.75 15.09-10.38 22.85-15.22a128.59 128.59 0 0 0 26.12-21.31c5.17-5.52 10.13-11.25 15-17.06a38.94 38.94 0 0 0 8.24-19c1-5.64-1.69-11.83 2.74-17 .78-.91-.24-1.74-1-2.74-2-2.73 0-5.85.32-8.75.25-2.57 2.7.31 4.6-1.26zm-109.03 130.88c-3.57.89-7.19-1.46-8.67 2.67a20.17 20.17 0 0 0 -1 10.29c.43 2.53 1.44 4.88 4.9 4.25 12.39-2.26 24.75-4.72 36.6-9 7.61-2.73 15.65-4.53 22.37-9.47 9.41-6.92 18.57-14.25 28.46-20.4 11.65-7.24 20.84-17.09 30.11-26.76 7.45-7.77 6.83-18.55.35-27.39-2-2.72-2.64-1.78-3.8.6-7.09 14.57-18 26.36-30.09 36.5-14.5 12.15-30.43 22.75-48 30-6.8 2.8-13 7.61-21 7.67-1.81 0-4-1.53-4.15-1-1.4 4.17-4.78 1.36-6.08 2.04zm125.16-38.23c-8.64 6-15 15.12-24.16 20.81-4.73 2.93-8.53 7.12-13.29 9.81-6.94 3.93-13.19 8.8-19.62 13.39-4.92 3.51-9.66 7.17-16 7.61-1.92.14-6.6-4.73-4.34 2.56.06.22-1.2 1-1.93 1.29a94.27 94.27 0 0 1 -25.46 6.14c-9 .81-13.05 9.82-8.38 17.52.91 1.5 2.12 2.61 3.45 2.09 4.65-1.82 9.87-1.93 14.25-3.68 6.19-2.49 12.49-4.66 18.74-7 3.68-1.36 7.37-2.81 11.17-3.91 3.49-1 7.2-4.72 10.8-5.78 8.75-2.58 15.56-8.53 23.1-12.81 5.75-3.26 12-7.13 17.19-12s10-9.8 12.85-16.4c2.78-6.41 6.4-12.66 1.63-19.68zm20.42-264.26c-5.06-3.21-9.15-6.75-14-9.13-9-4.42-17.82-9.36-28.44-8.93-4.52.17-3.78 1.56-2.24 4.61 3.24 6.42 6.46 13.33 4.89 20.5-1.11 5.09 1 4.2 3.73 3.55 7.65-1.81 15.41-3.37 22.85-5.85 4.2-1.41 8.89-1.81 13.21-4.75z" fill="#552cde"/><path d="m137.8 443.93c0-2.83 2.51-3.76 4.12-5.28 6.14-5.78 12.13-11.79 18.07-17.7 7.48-7.46 15.22-14.68 23.16-21.54 5.42-4.68 11-9.43 16.94-13.64 6.22-4.38 11.91-9.83 18.37-14.15 9.72-6.5 19-13.63 28.62-20.31 8.46-5.89 17.15-11.58 25.17-18.1 5.62-4.56 12-8 17.79-12.23 13.45-9.84 26.83-19.79 40.49-29.34 8.44-5.91 16.51-12.32 24.75-18.46 6.22-4.64 13-9.26 18-14.87 7.16-8.1 15.76-14.53 22.87-22.5 6-6.72 11.51-13.84 17.12-20.88 10.16-12.75 18.66-26.66 27.84-40.1a7 7 0 0 0 .59-1.86c3.61.68 7.2 0 10.82-.56.51 5.38-.88 10.12-1.62 15-2.36 15.55-9.31 29.36-15.72 43.32-5.86 12.75-12.81 25-19.16 37.52-1.16 2.28-3.09 5.64-1.66 7.21 2.1 2.32.21 3.56.08 5.25-3.4 5-7.89 9.15-10.67 14.57-.93 1.82-1.88 1.39-3 .25-6.62-6.6-15.8-7.12-24-9.43-4.48-1.25-9.75-.72-14.75.57-14.83 3.84-24.18 14.21-30.84 26.82a30.16 30.16 0 0 0 -3.44 19.24c.8 4.76 3.13 8.44 4.86 12.84a48.8 48.8 0 0 0 -14.59 3.21c-11 4.31-18.67 12.71-26.18 21.41-9.86 11.41-14.75 24.14-10.84 39.15 1.59 6.11 5.79 10.71 11.35 13.81 5.19 2.9 10.82 4.84 16.94 7.13-3.16 2.88-3.47 6.46-4 9.82-1.1 6.7-1.5 13.57 1.25 19.92 1.38 3.19 4.5 5.77 5 9.33.61 4.37 3.32 7.07 6.17 9.81a39.23 39.23 0 0 0 16.16 9c9.4 2.89 18.5 5.44 28.09-.33a33.85 33.85 0 0 1 7.33-3.4c2-.61 3-.81 4.27 1.24 3 4.64 7 8.21 11.54 11.47 7 5.09 15.25 7.52 22.9 11.2a15.62 15.62 0 0 1 -1.7 3c-8.4 9.27-15 19.88-22.08 30.09a150.63 150.63 0 0 0 -18.19 35.7c-1.05 3-1.87 3.43-4.72 3.18-5.51-.5-10.79-2.2-16.37-2.46-13.6-.63-27.14-1.85-40.79-.36-16.65 1.82-30.3 9.59-42.76 20.09-11.62-5.38-22.54-12.05-33.73-18.22-3.45-1.9-6.59-4.47-9.91-6.23-3.49-1.85-7.39-4.91-11.56-4.29-12.16 1.81-24.17 4.67-36.34 6.36-10.85 1.52-21.43 4.61-32.3 5.57-5.26.46-6 3.16-5.71 6.91.65 7.27 1.21 14.57 2.81 21.74 1.54 6.87 3.18 13.74 4.28 20.69 1.41 8.88 2.58 17.8 4.91 26.5a50.15 50.15 0 0 0 -17.65 3.48 112.87 112.87 0 0 0 -51.27 40.33c-4.11 5.82-7.2 12.15-14.1 16.13-8.93 5.14-16.24 12.6-20.14 22.69-.36.93-1.71 1.49-2.59 2.21-.15-10.12-2.87-19.93-3.36-30.06-.72-13.16-.72-26.25-.21-39.39.74-19.89 4-39.39 8.66-58.59a375.86 375.86 0 0 1 18.83-57.21 349.54 349.54 0 0 1 39.53-70.1c7.81-10.77 17.38-20.07 24.84-31.09 1.19-1.76 3.75-2.23 4.59-4.43 6 5.2 11.88 10.48 17.94 15.56 2.35 2 2.49 4.16 1.54 6.65-3.07 8-5.13 16.19-4.81 24.93.08 2.14-1.75 4.88-.14 6.48a15.62 15.62 0 0 1 2.66 2.8c2.29 3.47 9 2.51 11-1.29a164 164 0 0 0 8.57-18.27c1.5-4 2.59-4.56 6-2 9.74 7.38 19.74 14.28 31.61 18.08 3.39 1.08 4.3-1.09 5.7-2.6 1.53-1.67.65-3.2-.69-5.12-3.41-4.91-8.73-7.43-12.91-11.33-1.83-1.71-4-3.11-6.7-2.83-1.41.14-2.42-.44-2.5-1.78-.25-4.23-3.52-4.9-6.55-6.38a21 21 0 0 1 -7-5.71c-1.39-1.74.39-3.95 1-5.92 2-6.58 4.11-13.14 5.9-19.78.88-3.28 1-6.51-3.84-7a10.12 10.12 0 0 1 -4.54-1.72c-3-2.08-4.56-.75-6.34 1.74-4.12 5.78-6.63 12.47-10.42 18.35a45.26 45.26 0 0 1 -5.38-3.68c-3.74-3.51-9.32-2.76-13.26-5.83z" fill="#cbefec"/><path d="m414.43 280.71c.13-1.69 2-2.93-.08-5.25-1.43-1.57.5-4.93 1.66-7.21 6.35-12.52 13.3-24.77 19.16-37.52 6.41-14 13.36-27.77 15.72-43.32.74-4.88 2.13-9.62 1.62-15-3.62.53-7.21 1.24-10.82.56-9.1-.14-16.77-4.8-24.91-7.95a27.94 27.94 0 0 1 -8.23-5c-5.52-4.75-5.51-10.49-3.15-16.6 3.28-8.52 7.15-16.56 16.83-19.74a16 16 0 0 1 11.85.61c6.73 3.23 14.24 3.86 20.91 7.32 4.79 2.49 8.39 6.21 12.46 9.46.14 2.22.61 3.64 3.11 1.69 4.12-3.2 8.21-6.44 12.49-9.4 11.12-7.7 20.42-17.41 30-26.81l.18-.14c.63-.35 1.38-.58 1.34-1.52 11.92-12.37 23.81-24.79 36-36.88s25-23.35 39.73-32.64c12.78-8.09 25.88-15.19 40.18-19.79 9.11-2.94 18.69-3.35 28.33-3.94a94 94 0 0 1 28 2.23c21.81 5.18 41.59 14.32 58.54 29.19l1.09 1 1.06 1c5.33 7 12.59 12.38 16.82 20.29-1.25-.4-2.6-1.29-3.73-1.07-1.82.37-2.9-3.67-4.92-.64-1.55 2.31-1.8 4.47 0 6.85s3.08 5.08 4.92 7.39c6.82 8.55 12 19.21 24.87 20.36 1.61 3.4 3.82 6.66 4.68 10.24s2.42 2.33 4 1.24c12.79-9.15 26.82-15.65 41.6-21 23.4-8.45 47.1-14.86 72.12-15.77 15.86-.58 31.48.67 46.43 6 10.21 3.63 21.43 5.4 30.23 11.89 7.41 5.45 16.34 8.86 22.37 16.17 9.1 11 14.24 23.44 12.89 38-1.67 18.08-9.51 32.71-24.37 43.4-1.55 1.11-1.58 4.74-4.88 2.88-2.83-4-4.94-9-8.73-11.65-3.12-2.17-.92-2.55-.29-3.84 12.84-9.23 19.68-28.45 13.74-47.35-3.35-10.68-9.66-18.64-18.34-25.56-13.28-10.57-28.41-12.89-44.6-14.2-28.31-2.2-54.59 5.31-80.89 13.69a226.1 226.1 0 0 0 -24 9.66c-10.64 4.81-19.78 11.85-29.71 17.67-.85.5-.92 1.07-.75 2 .58 3.25 3 6.59-.22 9.77 1.93 1.67 2.5 3.69 3 6.29 1.85 10.5 3.66 21.14 3.49 31.64-.32 19.59-2.61 39-16.6 54.7-7.74 8.72-16.56 14.32-28.48 10.55-6.17-1.95-12.48-4.09-17.93-7.76-9.5-6.41-13.7-16-15.67-26.94-3.43-18.93 4.51-34.54 14.38-49.57a125.83 125.83 0 0 1 20.43-24.48 83.61 83.61 0 0 1 10.59-8.62c2.58-1.66 2.71-3.09 1.83-5.66-7.11-20.88-17.24-40.13-31.3-57.14-5.46-6.6-11.07-13.16-17.8-18.59-1.84-1.62-3.57-3.38-5.53-4.83-7.39-5.47-14.62-11.68-24-12.89-8.84-1.14-17.57-3.06-26.82-1.48-11 1.88-22.21 2.15-32.55 7-7.24 3.39-14.56 6.58-21.75 10.1-9 4.39-14.9 13.57-25.32 15.35a1.46 1.46 0 0 0 -.87 1c-.39 3.5-3.68 4.48-5.71 6.47-4.62 4.53-10.17 8.12-13.76 13.7l.09.17c-1.1-.22-1.45.59-1.83 1.35q-18.3 18.6-36.58 37.21c-11.29 11.54-23.07 22.53-36.2 32a156.25 156.25 0 0 1 -15.11 9.69 4.94 4.94 0 0 0 -2.3 5.48c3.27 9.92-.29 19.06-2.6 28.34a160 160 0 0 1 -18.36 43.44 346.59 346.59 0 0 1 -24.29 35.93 8.14 8.14 0 0 0 -.81 1.77 22.85 22.85 0 0 0 -6.18 1.2c-2.8.91-4.54 3.88-7.77 3.81zm331.87-80.64a50.62 50.62 0 0 0 6.58 26c2.54 4.64 4.76 5.62 9.44 3.27a23.21 23.21 0 0 0 7.42-5.59c7.46-8.69 8.62-19.58 10.28-30 2.27-14.37-.85-28.68-2.67-42.94-.33-2.55-1.56-3.36-4.13-1.24-5.36 4.41-9.48 9.75-13.33 15.43-7.25 10.65-13.3 21.76-13.59 35.07zm-311.18-42.18a41.89 41.89 0 0 0 12.69-3c1.63-.76 2.27-1.89 1.5-3.55a39.45 39.45 0 0 0 -6.14-10.06c-2.73-3-7.07-4.25-10.25-3s-5.35 5.23-6.16 9.09c-1.36 6.44 2.01 10.63 8.36 10.52z" fill="#452887"/><path d="m1166.37 1008-2.46-7.67c7.8-9.45 18-16.39 26.21-25.44 3.71-4.1 7.27-8.39 11.63-11.9 2.26-1.82 1.3-7.31-1.64-9.43a21.83 21.83 0 0 1 -5.87-6.59c-7.81-12.78-16.11-25.26-22.7-38.78-3-6-3.22-11.24 1.34-16.5a3.12 3.12 0 0 1 2.86-1.39c14.51 1.5 28.88-1.52 43.31-1.37 9.55.1 19.1.29 28.66.32 2.49 0 4.15-.3 4.63-3 1.54-8.87 3.13-17.73 4.7-26.59 2.17-4.45 1.56-9.42 2.65-14.07.48-1.74 1-3.46 1.41-5.21.87-3.69 3.47-6.36 5.73-9.1 3.51-4.25 6.39.47 9.58 1.14 14.87 3.1 22.21 15.17 30.88 25.71a159.69 159.69 0 0 1 14.15 20.15c.34.57.87 1 1.15 1.62 1.38 2.91 2 7.32 4.72 8 1.74.45 4.7-3.45 7-5.53 9.88-8.95 20.47-17.12 29.47-27 .56-.61 1.13-1.23 1.72-1.81 7.12-6.92 8.19-7.08 17.06-2.63.88.44 1.79 1.16 2.68 1.16 10.31 0 10.68 8.52 11.54 15a426.48 426.48 0 0 1 3.31 42.89 31.41 31.41 0 0 0 1.89 10.49c-.18 9.53 4.81 15.17 13.06 19.42 12.4 6.39 26 9.52 38.49 15.7 5.66 2.81 8.67 7 6.08 9.93-2.36 2.64-4 6.1-7.35 7.84-6 3.12-11 7.63-16.24 11.73-2.42 1.89-4.44-.59-6.84.66 2.68 1.3 1.8 2.82.06 3.75a170.09 170.09 0 0 0 -16 10c-5.64 3.85-12.28 6.41-17.17 11.35-2.48 2.51-1.48 6.18-1.5 9-.11 12.47.31 24.93-.13 37.42-.37 10.43 0 20.87-1.3 31.27-.5 4.06-3.53 6.52-6 8.61-2.12 1.83-5.94-.72-8.64-1.88-14.19-6.07-25.91-15.87-37.69-25.56-7.86-6.48-16-12.66-25-17.42-1-.54-1.94-1.33-3.21-.78-3.85-5-7-1.41-10.34.8-18.94 12.75-34.83 28.69-48.62 46.8-3.92 5.16-7.23 5.68-15.63 2.13-3.39-1.43-6.54-3.14-6.1-8 .26-3-.9-6.07-1.42-9.12-.9-5.72-.67-11.53-1-17.28-1-16.21-2.58-32.41-2.31-48.67 0-2.63-.51-3.81-3.49-3.82-9.71 0-19.42 0-29.15-.65a107.48 107.48 0 0 1 -28.17-5.7zm273.63-46.14c-4.51-1.67-8-3.07-11.52-4.26a232.66 232.66 0 0 1 -36.23-15.25 22.54 22.54 0 0 1 -12.4-17.36c-1.16-7.25-1.09-14.53-1.73-21.79-.32-3.57-.58-7.3 2.14-10.34.92-1 1.06-2.33-.32-2.87-2.36-.93-1.77-2.81-1.89-4.55-.42-6-.88-11.93-1.32-17.9-4.82 4.83-10 8.43-14.63 12.69-9.84 9.14-20.67 17.2-31.14 25.65-.73.6-2.09 1.31-2.71 1-5.49-2.57-11.93-3.23-16.4-7.91-3.62-3.79-5-8.76-7.21-13.33-5-10.25-11.91-19.27-18.45-28.53-2-2.88-3.77-6.18-7.49-7.76-3 12.62-4.62 25.24-6.53 37.8-1.21 8-6.61 15.55-12.37 16.15s-11.43.6-17.14 1.06c-6.33.51-12.48-1.85-18.91-.9a39.51 39.51 0 0 1 -8.28.48c-7.39-.46-14.83-.16-22.47-.16.71 5.58 4 8.44 6 12 7 12.25 14.36 24.35 22.48 35.92 1.74 2.47 1.46 4.07-.2 6-5.24 6-10.49 12-15.82 17.84-7.28 8.06-14.64 16-22.8 25 11.5 0 21.88-.42 32.21.14 7.33.4 15-2.1 22.1 2.37 1.2.76 3.06 2.41 4 2.14 4.47-1.24 5 1.63 5.1 4.58.75 17.66 1.21 35.33 2.13 53 .23 4.38-.48 9 .89 13.25 4.68-2.75 7.37-6.88 10.47-10.33 10.35-11.55 22.92-20.2 35.11-29.41 3.24-2.45 7.33-2.93 10.35-1.32 8.73 4.68 19 5.35 27.13 11.81 6.09 4.84 13.4 8.16 19.59 13 6.91 5.42 13.68 11 20.73 16.73.53-1.74 1.52-3.23 1.29-4.51-1.15-6.41-.89-12.89-.52-19.27s-3-13.67 4.56-19.88c-4.06 1.31-4.86.23-4.73-2.49.24-5 0-9.94.15-14.91.21-7.75 3.42-14.17 9.8-18.51a208.27 208.27 0 0 1 19.68-11.9c12.64-6.73 24.04-15.16 37.3-23.17zm-39.31-35.22c-3.18 2-.57 4.3-1 6.27-.18 1-1.73 2.27.61 2.19a1.69 1.69 0 0 0 1.37-2.55c-1.08-1.83-.19-3.88-.98-5.91zm-179.6 86.36a2.14 2.14 0 0 0 -3.19-.25 2.79 2.79 0 0 0 3.19.25z" fill="#fa5847"/><path d="m38 741.46c.88-.72 2.23-1.28 2.59-2.21 3.9-10.09 11.21-17.55 20.14-22.69 6.9-4 10-10.31 14.1-16.13a112.87 112.87 0 0 1 51.27-40.33 50.15 50.15 0 0 1 17.65-3.48c.39 2.59.77 5.19 1.16 7.78a52.48 52.48 0 0 0 -17.2 6.93 167.15 167.15 0 0 0 -17.71 12.84c-4.62 3.81-9.76 7-13.31 12.07-2.74 3.88-5.7 7.61-8.54 11.42-.56.75-1.57 1.49-.85 2.58s1.87.68 3.07.62c5.44-.27 10.84-.7 16.19 1.48 8.65 3.52 12.06 10.25 11.24 18.82-1 10.77-4.56 20.67-12.9 28.41-3.08 2.86-6.82 2.39-10.09 2.82-5.29.68-10.85.11-16.21-.62-9.61-1.33-15.14-9.94-17.16-20.38-6.59 8.86-12.86 17.4-16.54 27.53-5.76 12.26-8.17 25.51-9.64 38.71-1.76 15.8 1 31.46 5.45 46.71 1.39 4.89 3.29 9.66 7.06 13.36 12.15 11.91 26.56 16 43.15 12.52 16-1.76 31.44-6 47.11-9.2 10.91-2.26 21.78-5.64 32.78-6.2s22.49-1.46 33.54 1.49c16.48 4.39 21 11.38 25.54 27.81 3.49 12.57 3 25.39 2.88 38.2l.08-.06-1-.12a35.46 35.46 0 0 0 -5.86 1.51c-5.11 2.27-10.71 1.91-16 3.22 1-1.93.35-4.08.52-6.08 1.28-15-.19-29.58-7.65-43-3.63-6.52-9.64-11.31-17-11.16-11.88.23-23.33 4.75-35.27 5.21-2.27.09-2.37 2.13-4.18 2.47-8 1.49-16 3.38-24 4.94-7.5 1.46-15 2.68-22.57 4-5.94 0-11.88.26-17.81 0-15.87-.7-32-.74-46.06-9.7-8.87-5.65-13.62-14.25-16.4-24.32-4.33-15.81-6.57-32.04-5.21-48.23a155 155 0 0 1 13.2-50.51 113.13 113.13 0 0 1 10.44-19.03zm59.86-6.12c-.58-1.74-1.19-5-2.7-7.85-2.38-4.41-9.2-6.51-13.75-3.94-3.47 2-4 5.67-2.52 9.5.23.58 0 1.33.08 2 .86 5.24 2.36 10.24 6.17 14.15 1.44 1.49 3.22 3.14 5.41 1.12 3.93-3.67 7.04-7.82 7.3-14.98z" fill="#452887"/><path d="m210 936.87c5.27-1.31 10.87-1 16-3.22a35.46 35.46 0 0 1 5.86-1.51c.26.62.55 1.07 1 .12l-.08.06 33-9c7.78-2.15 15.52-4.45 23.31-6.57a11.37 11.37 0 0 1 7.75.38c.74.33 1.45 1.16 2.12 1.12 7.59-.52 6.3 5.88 7.81 10 1.8 4.9 3.11 10 5.11 14.82 3.51 8.49 4.62 17.64 7.71 26.24 3.18 8.87 5.86 17.91 8.57 26.94 1.7 5.64 3.27 11.34 4.49 17.1 1.33 6.34-3.93 14.31-10.14 16q-20.24 5.52-40.47 11c-3.37.93-7.05.63-10.18 2.52l-20.19 6.4a3 3 0 0 0 -2.21-.29c-6.44 1.92-12.94 3.64-19.42 5.42-7 1.66-14.18 2.66-20.84 5.15-10.27 3.83-21 5.85-31.49 8.59-7.13 1.86-14.1 4.66-21.33 5.61-4 .53-8.7-1.3-12.61-3.09-2.57-1.17-2.16-5.08-3.37-7.66-3-6.41-2.47-13.81-5.2-20.33-4.9-11.69-6.9-24.32-11.63-36.06 2.71-4.68-1.71-7.24-3-10.8a66.4 66.4 0 0 1 -3.95-19.36c-.12-2.33-1.88-3.54-2.59-5.34-1.62-4.1.57-5.77 3-7a45.9 45.9 0 0 1 9.39-3.83c7.55-1.76 15-4 22.45-6.11 5.81-1.62 11.54-3.72 17.45-4.74 9.44-1.63 18.32-5.25 27.68-7.24 5.24-1.08 11.07-2.38 16-5.32zm104.85 70.33c0-5.14-3.7-9.14-4.2-14.23-.54-5.56-3.84-10.42-4.73-16-.87-5.43-3.13-10.55-4.6-15.87-1.7-6.14-5.05-11.81-4.89-18.49a4 4 0 0 0 -1.4-3c-.94-.65-1.58.81-2.36 1.34-4.34 2.94-7.26 7.4-11.33 10.61-4.62 3.66-7.62 8.86-12.46 12.41a56.66 56.66 0 0 0 -10.72 9.77c-5.65 7.17-13.15 12.37-18.74 19.5-1.44 1.83-4.3 2.46-5.85 4.89-3.1 4.86-10.73 7.24-16.46 6-9.56-2.11-19.17-4.43-28.72-6-13-2.18-25.44-6.16-38.19-9.07-6.71-1.53-14.22-.87-20-5.69-.7-.57-1.08-.31-1.55.28-.64.81-.13 1.42.09 2.21a130.16 130.16 0 0 0 4.64 13.09c3.36 8.65 6 17.52 9 26.25 2 5.67 3.09 11.75 5.51 17.09 2.52 5.55 4.27 11.37 6.53 17 1.31 3.24 2.87 3.1 4.66 2.19 2.42-1.22 5.09-1.57 7.54-2.33 12.57-3.93 25.35-7.24 38.1-10.59 9.69-2.55 19.46-4.78 29.17-7.26 11.12-2.83 22.37-5.31 33.28-8.8 14.42-4.6 29.15-8 43.63-12.32a9.32 9.32 0 0 0 5.79-2.14c.85-.77 3-.92 1.94-2.75-1.53-2.63-1.27-5.97-3.67-8.09zm-188.35-36.55c4.25 1.12 7.69 4 12.24 4.78 2.94.5 6.52.4 9 2.11 6.39 4.5 14.1 4 21.09 6.08 7.69 2.28 15.94 2.52 23.71 5.13 2.62.88 5.74 3.28 7.46 2.75 4.52-1.41 8.65 0 12.33 1.17 5.16 1.63 8.7 2.58 12.89-2.34a249.14 249.14 0 0 1 20.61-20.89c6.23-5.79 12-12.36 18.18-18.17 4.57-4.28 8.28-9.67 14-12.85 1.92-1.07 2.49-3.84 4.76-4.92 1.77-.85.21-1.52-.4-2-1.32-.93-3.14-.11-4 .22-15.18 5.78-31.37 7.28-46.63 12.48-10.4 3.55-21.41 5.09-32 8.14-15.05 4.34-30.35 7.82-45.36 12.28-5.88 1.75-12 1.72-17.75 3.82a35 35 0 0 1 -10.13 2.21z" fill="#fa5948"/><path d="m1302.31 1052.19c3.3-2.21 6.49-5.78 10.34-.8 2.76 6.11 5.4 12.07 5.63 19.13a99.47 99.47 0 0 1 -3.65 30.36c-3.07 10.89-7.57 21.34-14.56 30.42-9.07 11.78-19.07 22.52-31.29 31.33-13.42 9.66-26.65 19.65-39.46 30.15-12.06 9.89-23.5 20.38-32.34 33.29-14 20.38-25.89 41.78-26.26 67.36-.27 18.42 7.07 34 21.65 45.21 8.45 6.5 19.28 8.53 29.48 11.37 14.91 4.15 30.18 4.78 45.5 3.94a85.47 85.47 0 0 0 19.29-3.43c4.7-1.38 10.8 1 13.07 5.06.72 1.28.4 1.89-1 2.57a98 98 0 0 1 -23.07 7.78 147.84 147.84 0 0 1 -18.82 2.82c-3.65.24-7.22.52-10.66-.82a6.77 6.77 0 0 0 -3.74-.44c-9.86 1.58-19-1.94-28.17-4.43-19.94-5.38-35.76-17.42-49.44-32.17a60.19 60.19 0 0 1 -16.47-43.94c.37-13.58 5.19-25.68 10.3-37.93a145.69 145.69 0 0 1 22.22-37.21c11.34-13.7 24.46-25.43 38.5-36.25 15.22-11.71 31.52-22.1 45.64-35.12a116.41 116.41 0 0 0 19.41-22.89c12.75-20.01 18.51-41.77 17.9-65.36z" fill="#452887"/><path d="m210 936.87c-4.94 2.94-10.77 4.24-16 5.35-9.36 2-18.24 5.61-27.68 7.24-5.91 1-11.64 3.12-17.45 4.74a489 489 0 0 1 -39.51-47c-3.35-4.51-6.32-9.29-9.47-14 7.53-1.32 15.07-2.54 22.57-4 8-1.56 16-3.45 24-4.94 1.81-.34 1.91-2.38 4.18-2.47 11.94-.46 23.39-5 35.27-5.21 7.33-.15 13.34 4.64 17 11.16 7.46 13.38 8.93 28 7.65 43-.2 2.05.44 4.2-.56 6.13z" fill="#cbefec"/><path d="m1166.37 1008a107.48 107.48 0 0 0 28.19 5.59c9.73.63 19.44.64 29.15.65 3 0 3.53 1.19 3.49 3.82-.27 16.26 1.3 32.46 2.31 48.67.36 5.75.13 11.56 1 17.28-7.93 4-15.8 8.14-23.81 12-16.68 8-33.17 16.38-50.53 22.85-2.26.84-4 3-6.82 2.46 0-.17 0-.34-.06-.5-1.7-9.44 1.11-15.77 10.2-20.78 6.51-3.58 9.15-12 11.42-19.13 5.13-16.06 3.87-32.37.87-48.81-1.46-8.22-4.41-15.96-5.41-24.1z" fill="#cbefec"/><path d="m1247.11 179.19c3.05.49 4.36-1.85 6.31-2.62 16.36-6.5 32.52-13.5 48.8-20.22 9.32-3.85 18.57-8.06 28.18-11 10.66-3.28 20.54-8.45 31.18-11.7 3.56-1.09 7.45-.62 10.77-2.82 1.5-1 2 .51 2.56 1.87 1.73 4.23.55 8.07-1.13 11.92-4.76 10.95-9 22.17-14.46 32.75-3.22 6.22-6 12.72-9.57 18.69-2.72 4.5-4 9.52-6.5 14.1-5.91 10.77-10.34 22.3-16.6 32.92a60.73 60.73 0 0 0 -3.64 8.61c-2.49 6.23-6.34 7.58-10.67 2.47s-9.94-7.91-14.2-12.78c-4.08-4.67-9.46-8.21-14.23-12.28-1.48-1.26-2.09-.91-3.35.64-3.61 4.47-8.92 7.18-12.5 11.82a5.56 5.56 0 0 1 -8 1.07c-2.18-1.85-3-5.25-2-8.41 2.11-7.21 4.93-14.2 6.32-21.65a5.38 5.38 0 0 0 -2.48-5.74c-6-3.91-9.93-9.84-15-14.6-2.89-2.69-3.16-7.23-3.15-11.28-.04-3.2 2.71-.95 3.36-1.76zm67.61 64.33 43.46-83.52c-4.84 2.13-7.9 5.83-11.46 9-9.27 8.15-18.78 16-28.13 24.08-8.37 7.21-16.67 14.5-25 21.78-1.79 1.57-4.61 3-5 4.91s2.76 3 4.77 3.87a3.5 3.5 0 0 1 .75.65 237.42 237.42 0 0 0 20.61 19.23zm-58.24-56.4c5.57 5.62 10.84 11.51 16.78 16.65 2.57 2.23 5.19 7.65 10.26 2.61 7.13-7.08 15.11-13.21 23-19.47 13-10.38 25.66-21.25 38.93-31.35 2.62-2 6.21-3.49 7.89-7.9z" fill="#fa5948"/><path d="m230 1054.39c6.48-1.78 13-3.5 19.42-5.42a3 3 0 0 1 2.21.29c4.62 11.43 2.16 23.1 1.29 34.76-.9 12-4.83 23.22-8.38 34.5-3.31 10.53-9.33 19.67-15.89 28.52a123.26 123.26 0 0 1 -27 26.46 44.07 44.07 0 0 1 -14.35 7.13c-.39-.06-1-.3-1.13-.16-.36.5.1.68.53.79-5.41 2.75-10.8 5-17.23 4.51-2.06-.16-4.44 2.48-7.2 2.37-5.69-.22-11.34-1.92-16.82-2.15-9.66-.4-18.05-4.42-26.92-7-5.56-1.61-10.95-4.36-14.21-9.82a4.77 4.77 0 0 1 .39-6c1.79-2.34 3.35-.27 4.7.28 4.58 1.89 7.12 6.7 12 8.42a35.07 35.07 0 0 0 7 2.16c24.13 3 45.76-3.38 64.89-18 15.41-11.78 25.39-27.25 31-46a170.82 170.82 0 0 0 7-35c.57-6.9 1.54-13.94-1.3-20.64z" fill="#452887"/><path d="m545.63 1249.28c3.44-2.17 5.23-5.92 8.81-8.23 7.15-4.61 14.31-7.72 22.95-6.09a18.49 18.49 0 0 0 3 .15c8.12.16 10.76 3.88 7.7 11.77-2.09 5.39-3.16 11-4.29 16.55a15.5 15.5 0 0 0 2.35 11.79c1.84 2.79 8.23 8 12.41 10.73 3.56 2.33 8.46 4.25 5.58 10.35-.8 1.68 1.09 2 2 1.66 3.52-1.11 3.15 1.16 3.43 3.38 1.11 9.06-3.39 14.84-11.34 19a30.68 30.68 0 0 0 7.18 4.49c8.19 3.77 10.47 10.36 10.15 18.52-.19 4.86-5.54 10.83-10.29 11.79-3.36.67-6.69 1.44-10.56 2.28 4 8 8 15.81 12 23.65a14.87 14.87 0 0 1 -3.28 10.53 7.44 7.44 0 0 1 -5.89 3.07c-17.41.82-32.85-5.81-48.42-12.35-8.24-3.45-16-7.44-22.69-13.35-2-1.74-4.23-3.23-5.33-5.78 3.65-1.79 6.63-4.48 9.64-7.15 9.59 9 19.29 17.67 32.23 21.89 6.8 2.22 13.26 5.52 19.92 8.2a15.13 15.13 0 0 0 6.76 1.15c1.44-.1 2.28-.54 2-2-.46-2.79-1.54-6.85-2.77-7.7-5.6-3.82-6.71-10.13-9.73-15.26-2.46-4.18.57-8.52 2.83-11.91 1.89-2.85 5.63-2.78 9-1.56 3.57 1.29 5.94-1.2 8.45-3.1s1.41-4.25.82-6.4c-1.16-4.28-4.42-7-8.09-8.92-3.19-1.7-3.37-3.13-.14-5-1.7-.51-2.83 0-4.12.42-2.8.9-8.29-3-8-5.43.44-3.71 5.16-8.26 9.21-8.28 4.86 0 6.3-2.95 6.31-6.89 0-7.21-6-10.48-10.22-14.9-4.44-4.61-11.72-5.92-13.83-13.48-1.09-3.86-2.36-7.37-2-11.48a54.12 54.12 0 0 1 3.87-16.7 7 7 0 0 0 -.19-5.23c-10.75 6.53-12.79 8.73-16 17-1.51-6.11-5.48-9.67-11.42-11.18z" fill="#572dde"/><path d="m545.63 1249.28c5.94 1.51 9.91 5.07 11.5 11.09 1.48 5.77 1.76 11.39-2.58 16.18-1.55 1.72-.22 2.48.66 3.68 5.16 7 4.69 15.39-1.16 22-1.94 2.21-3.8 4.52-5.92 6.55-.84.79-1.18 1.19-.83 2.37 3.11 10.49-1.41 20.27-11.5 24.91-1.47.67-2.52 1-1.58 3.15 2.65 6.25.24 11.68-3.44 16.75-3 2.67-6 5.36-9.64 7.15-4.59-.11-8.8-1.77-13.1-3.13a12.68 12.68 0 0 1 -8.47-7.92c-.83-4.78 1.57-9.09 2-13.68 3.64-4.18 5.64-10.51 13.21-9.47-1.2-4.86-3.44-9.3-1-13.85a19.86 19.86 0 0 1 10.65-9.45c-3.79-4.16-3.78-4.16-2.54-10.11a1.06 1.06 0 0 0 -.24-.86c-3.77-3.64-.91-7.58.65-10.3 2.39-4.16 3.39-7.13-.72-10.53-.8-.67-.76-2.44-.94-3.73a17.69 17.69 0 0 1 3.2-13c1.1-.51 1.45-1.66 2.16-2.49 5-5.8 10.47-9.37 16.67-6.62z" fill="#fa5747"/><path d="m137.8 443.93c3.94 3.07 9.52 2.32 13.32 5.83a45.26 45.26 0 0 0 5.38 3.68c3.79-5.88 6.3-12.57 10.42-18.35 1.78-2.49 3.36-3.82 6.34-1.74a10.12 10.12 0 0 0 4.54 1.72c4.83.53 4.72 3.76 3.84 7-1.79 6.64-3.87 13.2-5.9 19.78-.62 2-2.4 4.18-1 5.92a21 21 0 0 0 7 5.71c3 1.48 6.3 2.15 6.55 6.38.08 1.34 1.09 1.92 2.5 1.78 2.73-.28 4.87 1.12 6.7 2.83 4.18 3.9 9.5 6.42 12.91 11.33 1.34 1.92 2.22 3.45.69 5.12-1.4 1.51-2.31 3.68-5.7 2.6-11.87-3.8-21.87-10.7-31.61-18.08-3.43-2.6-4.52-2-6 2a164 164 0 0 1 -8.57 18.27c-2 3.8-8.7 4.76-11 1.29a15.62 15.62 0 0 0 -2.66-2.8c-1.61-1.6.22-4.34.14-6.48-.32-8.74 1.74-16.9 4.81-24.93 1-2.49.81-4.69-1.54-6.65-6.06-5.08-12-10.36-17.94-15.56-.39-1.27-2.62-2.22-1.4-3.63 2.03-2.41 4.01-5.95 8.18-3.02z" fill="#fa5747"/><path d="m1358 699.42c-7.62 4.47-14.24 10-18.83 17.69-.93 1.57-1.33 3.9-4.24 2.69-2.43-1-3.79-1.73-3.55-5.2.38-5.49-1.26-11.13 1.71-16.38 2.26-4 4.48-7.88 8.21-10.77 4.43-3.43 8.83-6.85 13.84-9.4 1.49-.74 2.95-1.52 4.45-2.22 7.47-3.48 8.93-4.93 7.31-12.84-2.39-11.66-4-17.89-15.82-15-5.25-.74-9.75 2.07-14.52 3.35s-9.1 3.17-14.15 2.8c-3.44-.25-3.66-2.23-2.81-4.56 1.45-4 4.46-6.93 7.8-9.41 1.64-1.21 3.1-1.08 3.43 1.55.11.94.09 2.49 1.75 2.59a1.15 1.15 0 0 0 .47-1.66c-3.11-6.07 1-7 5.43-7.64a57.29 57.29 0 0 1 12.62-.56c11 2.63 22.75 3.8 30.74 13.25 7.29 8.61 9.2 18.76 4.65 28.89-3.06 6.83-9.31 11.53-16.13 15.21-4.24 2.25-9.48 3.09-12.36 7.62z" fill="#fa5847"/><path d="m785.44 98.15c-12.9-1.15-18.05-11.81-24.87-20.36-1.84-2.31-3.14-5-4.92-7.39s-1.55-4.54 0-6.85c2-3 3.1 1 4.92.64 1.13-.22 2.48.67 3.73 1.07a15.21 15.21 0 0 1 4.46 2.61c3.55 3 5.35 7.26 8.82 10.37 2.95 2.66 3 .46 3.83-1 3.76-6.8 8.53-12.88 13.12-19.11s10.54-11.65 15-18.11c7.77-6.88 14.55-14.79 22.79-21.19 6.19-4.81 12.28-9.7 19.2-13.42s10-4.2 20.17-2.81c-14.21 11.48-29.11 21.4-39.33 36.29-8.19 8.21-14.67 17.71-21.2 27.23s-11.61 19.88-17.93 29.51c-2.23 3.37-4.36 4.24-7.79 2.52z" fill="#fa5847"/><path d="m809.56 40c-4.49 6.46-10.36 11.75-15 18.11s-9.36 12.31-13.12 19.11c-.81 1.47-.88 3.67-3.83 1-3.47-3.11-5.27-7.4-8.82-10.37a15.21 15.21 0 0 0 -4.46-2.61c-4.26-7.89-11.52-13.24-16.85-20.24 12.07-3.46 24.56-3.13 36.9-4.33 8.42-.85 16.79-.41 25.18-.67z" fill="#cbefec"/><path d="m513.05 106.54c-9.58 9.4-18.88 19.11-30 26.81-4.28 3-8.37 6.2-12.49 9.4-2.5 1.95-3 .53-3.11-1.69a165.54 165.54 0 0 1 28.12-24.91c4.41-3.12 9.46-5.26 13.42-9a3.1 3.1 0 0 1 4.06-.61z" fill="#cbefec"/><path d="m514.57 104.88c0 .94-.71 1.17-1.34 1.52-.46-1.3.5-1.4 1.34-1.52z" fill="#cbefec"/><path d="m747.49 45-1.06-1z" fill="#cbefec"/><path d="m746.47 44-1.09-1z" fill="#cbefec"/><path d="m981.44 175.74c-.63 1.29-2.83 1.67.29 3.84 3.79 2.62 5.9 7.66 8.73 11.65 2.48 4.72 6.76 8 9.92 12.19 3 3.89 2.1 6.4-2.81 7.66-5.42 1.41-10.72.45-16-.59-6.08-1.19-12.13-2.43-18.15-4-4-1-7.66 2.25-11.58 3.3-6.85 1.82-13.64 3.94-21.37 2.53 0 18.7-7.76 33.41-23.57 43.72a40.93 40.93 0 0 1 -10.54 5.86c-6.39 4.36-13.86 4.38-21 4.29-8.84-.1-17.82.05-26.39-3.31-5.46-2.14-8.2 3.17-11.73 5.54-8 5.37-15.1 12.18-23.4 17-4.39 2.53-9.41 6.57-15.73 3.82-2.13-.93-2.94-1.14-1.52-3.51 5.31-8.89 10.55-17.83 15.52-26.9 2.92-5.35 1-11-2.59-15.9-3.85-5.15-5.9-11.54-6.81-17.84-1.49-10.3-.35-20.73 6.41-28.95 4.82-5.84 11.34-10.34 17.4-15.06a62.57 62.57 0 0 1 23.48-11.51c-2.37-8.5-2.51-16.91 1.29-25 5-10.66 12-19.66 22-26.31 14.56-9.7 30.74-12.54 47.71-11.22 10.46.81 20.44 4.32 30.39 7.62 5.54 1.84 8.68 6.58 13 9.61 5.51 3.86 8.65 8.8 12.15 14 6.84 10.15 6.15 21.22 4.38 32.4-.33 1.94-.57 3.46.52 5.07zm5.85 30.15c.19.68-.19 1.84 1.15 1.55.42-.08.74-.6 1.11-.92l-1.86-1.2c-7-6.24-13.8-12.81-18.3-21.14-2.23-4.13-4.24-8.49-2.41-13.94 1.38-4.14 3.2-8.39 1.91-13.42a49.38 49.38 0 0 0 -8.9-18.58c-12.14-15.61-28.62-22.26-47.76-22.1-9.32.08-18.31 3.15-26.44 8.31-13.5 8.55-23.61 19.2-24.13 36.29-.2 6.84 1.4 8.19 8.32 7.33a11 11 0 0 1 4-.06c13.41 3.47 27.47 3.89 39.45 13.14 6.73 5.2 11.63 10.66 13.94 18.3 1.39 4.57 3.55 5 7.41 4.05 7.73-1.94 15.44-4.08 23.29-5.38 4.78-.79 10.56.21 14 2.65 4.93 3.45 9.93 4.01 15.22 5.12z" fill="#fa5747"/><path d="m144.9 664.4c-.39-2.59-.77-5.19-1.16-7.78-2.33-8.7-3.5-17.62-4.91-26.5-1.1-7-2.74-13.82-4.28-20.69-1.6-7.17-2.16-14.47-2.81-21.74-.34-3.75.45-6.45 5.71-6.91 10.87-1 21.45-4 32.3-5.57 12.17-1.69 24.18-4.55 36.34-6.36 4.17-.62 8.07 2.44 11.56 4.29 3.32 1.76 6.46 4.33 9.91 6.23 11.19 6.17 22.11 12.84 33.73 18.22 2.93 3.22 7.11 4.61 10.52 7.14 2.35 1.19 5.83 1.77 6.86 3.67 3.67 6.76 11.64 4.31 16.55 8.68 5.1 4.54 11.47 7.67 17.3 11.39 3 1.92 6 3.92 9.11 5.65s3.9 4.4 4.3 8c1.19 10.77 3.09 21.47 4.92 32.16 1.85 10.86 3.91 21.68 5.93 32.51 1.35 7.24 2.77 14.48 4.16 21.71-.14.83-.36 1.68.75 2.06h-.11c.16 2.67-.38 5.46 1.3 7.88-.94 3.74 1.1 7.26.63 11.13-.42 3.44-1 5-4.74 5.89-11.47 2.66-22.94 5.14-34.55 7.19-5.52 1-11.68.39-16.33 2.29-7 2.85-14.09 4.07-21.2 5.34-11.83 2.11-23.77 4-35.38 6.77-14.54 3.48-29.53 4.87-43.79 9.5-5.73 1.86-11-.3-16.4-1.45-1.55-.33-2-1.5-2.37-3.23-4.14-20.73-8.49-41.42-12.77-62.12-3.33-16.08-5.51-32.39-9.9-48.25-.65-2.33.84-5.01-1.18-7.1zm67.13-80h.05c.38-4.61-1.08-6.23-5.55-5.65a44.24 44.24 0 0 0 -6.47 1.82c-2.78.34-5.57.62-8.34 1-9.65 1.39-19.31 2.7-28.93 4.31-2.52.42-4.89 2.52-7.53 1.5-2.32-.89-3.74.17-5.35 1.29-6.41-.29-6.41-.29-5 3.94 3.21 15.07 6.91 30 9.74 45.19 2.66 14.2 6.75 28.15 9 42.39 2.4 14.93 5.75 29.67 8.7 44.45 3.06 15.27 5.67 30.65 9.22 45.84 1.07 4.54 1.76 6.84 7.16 5.18a63.62 63.62 0 0 1 6.83-1.32c16-2.93 32-6 48-9.11q37.86-7.35 75.69-14.81c3.37-.66 6.76-1.24 10.12-1.94 1-.22 2.56-.6 1.63-2.14-2.75-4.52-1.77-9.86-3.39-14.62-.86-2.52-.78-5.19-1.5-7.82-2.53-9.25-3.69-18.87-5.49-28.32-3-15.67-6-31.32-9.06-47-.77-1.65-.06-5-2-4.8-3 .28-6.52-1.07-9.21 1.48-10.48 2-21.19 2.7-31.56 5.53a149.21 149.21 0 0 1 -18.31 3.59 50.28 50.28 0 0 1 -14.13 0c-2.81-.4-4.78-1.26-5-4.77-.25-4.33-1.75-8.61-3-12.66-2.47-8.09-4.85-16.22-7.4-24.3-2.85-9-5.59-18.12-8.38-27.18z" fill="#fa5847"/><path d="m1259.69 845.5c-1.09 4.65-.48 9.62-2.65 14.07-16.54.92-26.69-9.18-35.69-21-7.87-10.31-12-22.48-15.45-34.71a50.25 50.25 0 0 1 -1.69-19c.27-2.4-.19-3.28-3-3.62-14-1.68-28-3.19-41.25-8.52-14.28-5.77-25.23-15.39-33.88-28.24-8.54-12.67-13.17-26.92-16-41.33a116.87 116.87 0 0 1 4.53-62.7 167.54 167.54 0 0 1 34-56.42c7.93-8.78 15-18.4 23.14-27.08 8.5-9.09 15.31-19.66 24.64-28 .84-.75 1-2.39 1.23-3.67 2-12.74-4.23-26-18.77-33.75-2.74-1.46-5.27-3.33-7.89-5 5.22 0 10.44 0 15.66.15 6.13.12 12.29-.68 18.37.69 10.33 7 15.09 16.9 14 29.12-.68 8-2.24 16-7.31 22.64a5 5 0 0 0 -.82 1.25c-1.17 3.36-3.68-3.38-4.6.59-.41 1.75 1.4 3.54-.38 5.46-3.94 4.23-7.66 8.66-11.43 13-10.14 11.81-19.92 24-30.5 35.37-11.48 12.4-20.08 26.5-27.24 41.62-7.06 14.89-8.59 30.62-7.17 46.84a122 122 0 0 0 9.56 36.94c5.93 14 14.69 25.76 27.34 34.58 11.48 8 24.53 10.81 38 12.69 2.68.37 3.84-.23 5.13-3 4-8.59 9.43-16.62 19.5-18.41a205.93 205.93 0 0 1 21.34-2.5c8.34-.59 12.69 7.33 10.43 17.24-2.78 12.18-12.62 18.71-25.95 19.54-9.65.61-10.37.61-8.6 10 4.21 22.52 14.1 41.77 33.4 55.16zm-29.17-78c4.57-.63 6.88-3.84 9.77-6.11a1.65 1.65 0 0 0 .33-2.58 1.58 1.58 0 0 0 -2.25 0c-2.76 2.63-6.94 3.92-7.85 8.74z" fill="#452887"/><path d="m414.43 280.71c3.23.07 5-2.9 7.77-3.85a22.85 22.85 0 0 1 6.18-1.2c7.25.22 14.53.41 21.62 2.14 4.24 1 9.08 2.1 12.21 4.46 4 3 10.29 4.16 11.28 10.56.39 2.47 1.92 2.25 3.66 1.27 8.69-4.95 17.69-4.21 26.75-1.32 8.56 2.73 17.56 4.81 23.9 11.86 10.67 11.86 14.45 25.6 10.3 41.22-2.6 9.76-2.54 9.31 7.52 12.07 6.41 1.76 13.08 3.28 18.62 7.59 9.12 7.1 12.32 16.44 11.6 27.66-.91 14.19-7.26 25.35-18.09 34.28-5.61 4.62-12.29 6.91-19 9.29-2.08.74-3.37 1.23-2.3 4.1 4.45 12 2.78 23.23-4.7 33.71s-17.75 16.18-30.15 17.05c-10.79.75-21.42-1.57-31.45-5.86-4.15-1.78-6.24-2.86-9.24 3.05-6.47 12.76-15.76 23.4-32.23 23-7-.45-13.88-2.12-20.78-3.41-7.65-3.68-15.87-6.11-22.9-11.2-4.51-3.26-8.58-6.83-11.54-11.47-1.31-2.05-2.24-1.85-4.27-1.24a33.85 33.85 0 0 0 -7.33 3.4c-9.59 5.77-18.69 3.22-28.09.33a39.23 39.23 0 0 1 -16.16-9c-2.85-2.74-5.56-5.44-6.17-9.81-.5-3.56-3.62-6.14-5-9.33-2.75-6.35-2.35-13.22-1.25-19.92.55-3.36.86-6.94 4-9.82-6.12-2.29-11.75-4.23-16.94-7.13-5.56-3.1-9.76-7.7-11.35-13.81-3.91-15 1-27.74 10.84-39.15 7.51-8.7 15.14-17.1 26.18-21.41a48.8 48.8 0 0 1 14.59-3.21c-1.73-4.4-4.06-8.08-4.86-12.84a30.16 30.16 0 0 1 3.44-19.24c6.66-12.61 16-23 30.84-26.82 5-1.29 10.27-1.82 14.75-.57 8.24 2.31 17.42 2.83 24 9.43 1.14 1.14 2.09 1.57 3-.25 2.86-5.46 7.32-9.64 10.75-14.61zm-74.11 74.54c-2.88.89-5.48.3-8.15 1a52.36 52.36 0 0 0 -25.39 15.6c-9 9.94-15.44 21.05-11.78 35.2 1.75 6.81 8.66 15.88 16.74 14.48 5.18-.91 9.46.44 14.16 1.74 4.42 1.21 3.34 2.32.91 4.64-2.24 2.16-4.87 4.27-5.7 7.42-3.67 14-2.34 27.12 7.5 38.39 2 2.27 3.27 5.24 6.42 6.6 3.62 1.55 7.05 1.12 10.7.38 9.65-2 18.95-4.32 23.68-14.37 1-2.1 2.06-4.2 5.2-3.13s5.6 3 8.85 3.56c.49.09.16 4.35.32 6.67a10.77 10.77 0 0 0 .67 2.35c5 15.19 16.11 23.54 31.41 25.57 6.65.89 13.95 2.2 20.49-2.64 7.76-5.75 12.43-12.84 13.41-22.56.66-6.58 3.72-7.5 9.84-5.61 4.63 1.42 8 4.06 11.52 6.92a9 9 0 0 0 2.15 1.18c11 4.74 22.15 5.21 33.05.43 6.34-2.79 12.67-6.62 15.18-13.58 4.22-11.72 3.61-22.94-5.89-32.31-1.34-1.32-1.59-1.94-.34-3.83 1.14-1.73 1.54-3.07 3.89-2.41 5.92 1.65 11.6 1 17.4-1.15 22.33-8.36 29.38-30.6 20.92-49.51-2.53-5.66-6.86-10.54-13-11.18-6.83-.71-13.14-2.79-19.64-4.42-4.49-1.13-5.46-4-3.77-7.87 1.81-4.13 2.31-8.55 3.28-12.85.92-4.05-.62-8.46 1.54-12.39-4.65-5.45-5.34-13-10.09-18.53-3.56-4.16-7.53-7.67-12.61-8.88-8.12-1.93-16 .5-22.32 5.42-5.26 4.1-9.5 3.72-15.06 1.39-3.64-1.52-5-3.31-5.31-7.11-.58-6.81-5.32-13.09-10.24-13.61-5.55-.6-11.3-1.37-16.73-.52-4.19.66-8.62 2.1-11.69 6.35-2.7 3.73-4.66 7.94-7.67 11.4-1.7 2-3 5.25-5.65 5.27-4.7 0-9.6.3-12.89-4.95a17.55 17.55 0 0 0 -13.23-8.42c-8.56-1.2-15.49 1.78-22.72 5.18-12.24 5.77-25 27.55-12.06 43.47a39.56 39.56 0 0 0 2.85 3.43c1.8 1.78 1.46 2.84-.22 4.81-2.92 3.48-6.47 3.32-9.93 2.98z" fill="#fa5847"/><path d="m1205 487.38c-6.08-1.37-12.24-.57-18.37-.69-5.22-.1-10.44-.1-15.66-.15-2.58-1.33-5.11.21-7.69.15-13.24-.35-26.49.09-39.76-.67-10.6-.61-21.32.92-31.92.31s-21.34.28-32-.64c-6.9-.59-11.93-4.55-12.6-11.27a81.54 81.54 0 0 1 .11-10.6c.15-4.16 1.13-8.64 0-12.8-.91-3.29-1.39-6.57-.2-9.64.79-2-1.4-3.05-.74-4.72q-.09-6.54-.19-13.06c.89-3.3-1.28-7.28 2.21-10 .16-.13-.06-1-.33-1.35-3.89-5.11-2.28-10.72-1.77-16.34a55.07 55.07 0 0 0 -.14-13.15c-.48-3.13 1.12-4 3.13-4.46 3-.7 6-1.59 9.24-1.57 14.8.09 29.59 0 44.39 0 13.21 0 26.43-.26 39.62.22 24.64.9 49.28.93 73.92.65 5.31-.06 7.73 4.95 12.41 5.53.21 0 .32 1.46.34 2.24.47 16.74.52 33.49 1.5 50.19.72 12.37.47 24.71.61 37.06.11 8.45-6.45 14.37-14.83 14a40 40 0 0 0 -11.28.76zm-146.49-100.9c-.51-.19-1-.39-1.54-.55-.07 0-.21.2-.31.3l1.52.61c5.09 6.28 12.81 9 19.19 13.44 12.49 8.64 28 12.33 39.81 22.47 6.27-.4 10.68 3.93 15.73 6.47 2.34 1.18 3.77.71 5.7-.45 5.18-3.13 10.37-6.27 15.74-9.06 17.71-9.2 34.27-20.55 52.58-28.67a2 2 0 0 0 .78-2.57c-16.73 1.59-33.55.13-50.29-.29-23.12-.57-46.24.23-69.37-.91-9.78-.48-19.68-.89-29.54-.79zm-3.15 11.82c.34 6.54.34 12.59 1 18.56 2.08 18.22 2 36.59 3.67 54.84.28 3.07 1.54 3.74 3.85 3.69 3-.07 6.09-.72 9.14-.68 18.83.24 37.66.77 56.5.88 27.12.17 54.25.06 81.38.07a19.66 19.66 0 0 0 5.3-.79c1.83-.51 1.79-1 1.62-2.64a337 337 0 0 1 -1.73-41.17c.19-10.52-1.42-21-.4-31.85-5.65 1.66-10.65 4.81-15.38 7.85-10.4 6.69-21.66 11.72-32.26 18-7 4.15-14.46 7.74-21.42 11.94-6.19 3.73-11.84 3.89-17.6 1-24.79-12.22-48.93-25.76-73.67-39.7z" fill="#fa5948"/><path d="m1046 423.6q.11 6.52.19 13.06c-11 .84-21.59-1.4-31.85-5.06a44.12 44.12 0 0 1 -24.87-21.3c-4.07-7.67-7.4-15.77-7.2-24.76 0-2.1-1.53-2.33-2.88-2.76-8.74-2.77-17.38-5.88-25-11.09-10.19-7-19.82-14.36-26.23-25.58-9.55-16.7-14.65-35-20.89-52.92-2.58-7.42-5.54-14.71-8.18-22.11-.77-2.16-2.71-4.17-.94-6.9.93-1.43-1.95-.88-1.82-2.27a40.93 40.93 0 0 0 10.54-5.86c12.58 17.85 21.79 37.49 30.18 57.52 7.09 16.93 15.79 32.61 31.16 43.52a69.94 69.94 0 0 0 15.72 8.48c3.12-11.85 8.67-22.28 17.72-30.58 5.13-4.7 10.86-7.74 18.36-7.66a35 35 0 0 0 9.09-1.21c10.77-2.9 18.58 3.5 17 14.66a58.5 58.5 0 0 1 -10.56 26.44c-8 10.93-19.2 14.77-31.92 16.91 5.44 17.51 13.81 32.18 33.55 36.65 2.98.68 5.83 1.87 8.83 2.82zm-42.32-53.51a40.51 40.51 0 0 0 20.17-21.09c1.08-2.49 1.51-6.05-.41-7.41-2.2-1.55-3.34 2.23-5.14 3.39a4.17 4.17 0 0 0 -.76.63c-6.17 6.88-12.91 13.39-13.88 24.48z" fill="#452887"/><path d="m407.9 508.39c6.9 1.29 13.74 3 20.78 3.41-1.51 5.3-5.39 9.15-8.86 13-6.74 7.45-11.94 16-17.83 24-7.91 10.77-13.34 23-18.07 35.54-.6 1.57-.4 2.5 1.87 3.48 14.21 6.18 27.21 14.18 36.68 26.86a65.38 65.38 0 0 1 11 22.8c.76 2.87.15 5.82-.71 8.74-3.21 10.78-8.12 19.87-20.88 20.91a56.69 56.69 0 0 1 -12.21-.42c-9.38-1.26-18.87-1.6-27.46-6.92-7.68-4.75-12.31-11.19-15.57-19.35-5.46-13.7-1.27-26.85 1.85-40 1-4.2 1.46-5.61-3.79-7.27a109.23 109.23 0 0 0 -33.43-5 58.66 58.66 0 0 0 -25.62 6.19c-7.79 3.8-15.89 7-23.86 10.4-3.41-2.53-7.59-3.92-10.52-7.14 12.46-10.5 26.11-18.27 42.76-20.09 13.65-1.49 27.19-.27 40.79.36 5.58.26 10.86 2 16.37 2.46 2.85.25 3.67-.23 4.72-3.18a150.63 150.63 0 0 1 18.19-35.7c7.12-10.21 13.68-20.82 22.08-30.09a15.62 15.62 0 0 0 1.72-2.99zm-32.23 113.77c.4 1.67.16 3.22.56 4.93 2.8 12.07 9.53 20.44 20.92 26 5.3 2.59 8.19.26 11.39-2.12s3.55-5.94 2.36-10.2c-1.12-4-5.79-7.16-3.47-12.17.38-.81-.3-1.23-1.05-1.11-3.68.59-4.05-2.92-5.53-4.74a81.3 81.3 0 0 0 -19.27-17.56c-1.19-.77-3.34-2.8-3.82.88q-1.03 8.05-2.09 16.09z" fill="#452887"/><path d="m660.92 162.53c.39 4.76-1.38 9.22-1.38 13.85 0 4-3.87 5.53-5.44 8.54-2.26-2.13-5.35-2.23-8.06-2.83-5.94-1.31-7.43-4.41-6.65-10.29.9-6.74.54-13.64.78-20.47 0-.79.51-1.51 0-2.35-3.82-5.83.75-9.63 3.83-13.23 3.31-3.88 7.64-1.43 11.49-.12a212.21 212.21 0 0 0 26.35 7.25c6.06 1.21 11.24 5.39 17.74 5.18 1 0 1 1.09 1 1.94.21 2.71-4.83 7.85-7.62 8-4.59.21-8.7-1.41-12.78-3.11a11.9 11.9 0 0 0 -6.1-.84c16.26 11.35 18 27.89 18 45.28 0 3.44.24 7.09-.79 10.13-2.45 7.24-1.78 15.08-5.75 22.15-4.06 7.25-8.35 14.38-14 20.19a60.93 60.93 0 0 1 -16.09 12c-6.81 3.46-13.8 4.93-20.72 7.28-9.69 3.3-18.85 1.08-28-2.25-2-.73-4.2-1.26-5.88-2.48-1-.71-3.66-.79-2.32-3.65 1.13-2.39 2.18-4.46 5.07-3.66 6.77 1.89 13 .17 19.23-2.25 8-3.08 16.27-4.89 23.8-9.44 12.6-7.62 18.53-19.09 21.21-32.75 2-10 3-20.13 1.85-30.39a43.65 43.65 0 0 0 -8.77-21.68z" fill="#fa5847"/><path d="m570.63 232.82c-.22-3.64-3.64-4.36-5.68-6.39-8.65-8.55-15.35-18.62-21.39-29.08-5.64-9.76-6.08-20.16-2.78-30.87a85.73 85.73 0 0 1 16.78-31.22c6.47-7.51 14.79-12.71 23.45-17.66 16.78-9.59 33.48-7.86 50.59-1.85 1.29.45 2 .78 1.94 2.27s-1.07 1.87-2.35 1.88c-.83 0-1.67.07-2.5 0-17.3-1.13-32 5-45.92 14.92-15.48 11-21.53 26.07-22 43.91-.24 9.6 3.71 18.62 7 27.58a64.37 64.37 0 0 0 8.44 15.82c1.33-7 2.13-13.26 6.09-18.73 1.91-2.64 3-2.81 5.45-1.57 2.62 1.36 5.21 2.89 8.27 3 2.36.11 2.54 1.83 2.58 3.52a163.91 163.91 0 0 1 -2.08 30.65c-1.12 6.62-6.31 10-13 8.72-16.2-3.06-31.76-8.36-47.13-14.23-1.34-.51-3.12-1.16-3.58-3 3.41-.48 1.31-7.4 7.16-5.58 10 3.1 20.24 5.46 30.38 8.13 0 .5.37.88.74.53s-.09-.63-.46-.75z" fill="#fa5847"/><path d="m124.22 825.37c-1.87 10.48-3.39 20.33-5.44 30.07-1.5 7.15-6.43 9.15-13 5.87-1.44-.72-3.83-10.15-2.38-11.13 2.48-1.68.9-2.81.24-4.26-1.66-3.6-.71-7.58-.33-11 .66-5.89-.23-11.86 1.19-17.65.58-2.37-1.55-2.24-2.63-2.78-6.73-3.38-13.54-6.61-20.35-9.85-1.41-.67-3.89-1.46-2.8-3 1.45-2 1.72-6.3 6.17-4.84 5.76 1.91 11.74 3.28 17.3 5.65 3.86 1.66 5 .58 5.71-3 1.47-7 2.57-14.15 6.63-20.32 1.52-2.31 3-5.73 6.24-4.2 3.8 1.79 9.68 2.26 9.1 8.71-.62 6.88-1.31 13.77-2.44 20.58-.39 2.33-.26 4.61-.54 6.89a2.84 2.84 0 0 0 1.9 3.11c9.43 4.54 17.12 11.69 25.79 17.37a3.33 3.33 0 0 1 1 4.46c-.79 1.7-2.35 1.93-4.23 1.48-7.13-1.69-13.64-5-19.82-8.61-2.31-1.33-4.97-1.32-7.31-3.55z" fill="#fa5847"/><path d="m316.2 866.72c-4.42 0-5.95-1.22-4.26-6.51 5.14-16 12.06-31 22.34-44.37 3-3.87 2.94-8.51.43-12.89-2.13-3.72-6.34-3.28-9-2.65-5.09 1.21-9.84 3.93-14.61 6.27-2.48 1.21-4.95 1.67-6.85-.3-2.1-2.17-1.34-4.63.31-7.08 7.56-11.23 18.82-14.67 31.34-9 3.86 1.75 8.24 2.36 12.11 4.08 14 6.24 13.34 18.9 4.71 29.66-8.37 10.46-18.66 19.24-26.29 30.33-1 1.49-1.89 3.09-2.91 4.58-1.74 2.56-3.56 5-7.1 2.48-1.06 2.03 1.36 3.43-.22 5.4z" fill="#fa5847"/><path d="m335.73 892.74c1.08 4.13-3.34 5.55-4.64 8.62-.09.22-.72.47-.86.37-5.48-4-14.39-2.43-17.4-10.56-.39-1-1.79-2.49-.35-2.91 3.27-1 1.49-7.22 6.49-5.86a37.26 37.26 0 0 1 4.7 1.62c2.91 1.23 5.32 3.24 9 3 3.27-.23 3.25 2.98 3.06 5.72z" fill="#fa5847"/><path d="m1188 289c-.82 1.4-1.3 2.19-1.75 3-.06.11 0 .31.06.47a1 1 0 0 0 1.67-.08c1.79-3.22 4.72-4.11 8.12-4.67 9.09-1.51 16.36-6.71 23.65-11.95a58.18 58.18 0 0 0 18.34-21.43c.68-1.36 1.56-2.7.74-4.21-.71-1.3-.08-1.84 1-2.16 1.71-.54 1.61.83 1.93 1.87 1.54 5 .56 9.66-1.37 14.38-5.24 12.86-14.82 21.45-26.46 28.44-9.28 5.58-19.37 7.39-29.81 8.12-18 1.26-35-3.11-51.5-9.71-7.88-3.15-16-5.87-23.13-10.6-4.58-3-7.59.63-10.39 3.16-8.41 7.59-18.53 9.89-29.37 10.17-13.29.34-26.59-.84-39.84 1.71-9 1.74-18.22 3.58-26.12 7.9-11.27 6.11-21.77 13.52-28.29 25.59-2.1 3.86-4.85 8.34-8.81 11.36-.73.55-1 1.7-2.23 1.4-1.37-.34-1.56-1.68-1.6-2.7-.06-1.55-.16-3.41.6-4.62 6.5-10.43 11.94-21.68 21-30.21 12.39-11.62 26.09-20.39 44-21.64 12.89-.91 25.67-1 38.56-.9 8.41.07 16.74-3.28 24-8.23 1.6-1.09 2.12-2.21.13-3.86-6.36-5.26-12.79-10.49-17.7-17.26-.38-.51-1.12-.82-1.34-1.37-.77-1.91 2.67-5.33-3.11-5.59-3-.13-3.14-5.91-4.66-9-2.34-4.77-2.88-10.44-3-15.9-.15-6.15-1.53-12.53 1.27-18.32 5.44-11.28 12.44-18.7 27.32-16.8 11.91 1.52 21.34 6.81 27.53 16.44 9.72 15.15 12.88 31.7 6.83 49.37-2.17 6.32-6.64 11.33-9.14 17.45-.78 1.92-1.18 2.34.93 3.58a122.54 122.54 0 0 0 28.15 11.71 20.9 20.9 0 0 1 7.27 3.39c2.52 2 6.22.7 9.41 1.21 8.7 1.37 17.59 2.4 27.11.49zm-120.79-69.37a33.53 33.53 0 0 0 4.81 17.13c6.74 10.52 16.53 18.31 26.52 25.72 2.55 1.89 4 1.39 6-1.09a99.17 99.17 0 0 0 12.84-21.9c2.43-5.45 4-11.44 2.48-17.19-1.78-6.64-6.85-12-8.86-18.67a1.45 1.45 0 0 0 -1.14-.65c-3.1 0-5-2.05-7.17-3.82-3.67-3-8.49-3.69-12.8-3.9-14.46-.76-21.62 12.64-22.68 24.32z" fill="#fa5948"/><path d="m1144 678.21c1.09-20.46 8.54-37.78 23.4-52.23 5.69-5.53 11.23-9.8 19.27-10.6a40.6 40.6 0 0 1 21.68 3.66c3.37 1.58 7.1 2 10.39 3.37 6.47 2.69 10.83 7.92 13.1 14.61 2.6 7.65 2.22 15.56 1.24 23.41-1.61 13-4.44 25.63-11 37.08-3.61 6.3-7.91 12.52-13.66 16.85-7.94 6-17.25 8.16-26.81 3.56-5.63-2.71-11.65-4.35-17.24-7.23-13.31-6.86-19.81-17.69-20.37-32.48zm67-30.41c-.43-2.3-.59-6.74-2.16-10.61s-3.81-8.12-9.78-6.71c-4.59 1.09-9.44 1.14-14 2.28-3.79.94-7.07 3-8.81 7-3.83 8.9-7.38 17.84-8.94 27.49-2.17 13.36.14 25.13 10.5 34.78a8.6 8.6 0 0 0 8.62 2.26c7.23-1.93 13.3-5.89 16.12-13.1a115.67 115.67 0 0 0 8.45-43.39z" fill="#fa5747"/><path d="m1254.15 701.8c-1.45 4.79-1.28 9-1.75 13-.72 6.2-3.5 11.24-6.55 16.27-1.83 3-11 1.71-12.61-1.87a31.77 31.77 0 0 1 -2.49-19.64c3.09-15.77 5.68-31.66 9.45-47.29 2.13-8.81 4.64-17.54 7.3-26.21a12.07 12.07 0 0 1 3.91-5.51c2.38-1.88 4.14.91 5.93 1.91 2.18 1.22 5.52-.2 6.71 2.68 1.61 3.92 1.27 8.06.57 12.18-.65 3.88-1.12 7.8-1.73 12.1 7.6-3.22 13.23-8.75 20.08-12.31 5.69-3 11.36-5.93 17.28-8.38a14.54 14.54 0 0 1 3.34-1c2.63-.38 5.4.48 6.68 2.39s-1.08 3.69-2.45 5.23c-6.92 7.8-15.39 13.74-23.76 19.78-5.15 3.71-10.44 7.15-15 11.74-2.56 2.6-2.62 4.3-1 7.5 7 13.57 15.87 25.84 25.3 37.71 3.37 4.25 1.9 8.06.51 11.92-1.6 4.41-4.46.88-6.8.51a23.45 23.45 0 0 1 -15.4-9c-5.22-6.78-10-13.88-15-20.81-.67-.96-1.48-1.7-2.52-2.9z" fill="#fa5747"/><path d="m1292.44 449.64c10.46-.06 14.92 3.87 17.61 16 1 4.71 3.46 8.87 4.8 13.45.76 2.6 2.11 3.44 4.56 1 3.55-3.45 7.61-6.38 11.21-9.79 4.91-4.67 11.69-5.4 16.67-1.53 1.27 1 .11 1.69-.07 2.54-1.89 8.84-8.51 14.32-14.76 19.79-1.87 1.64-3.45 3.91-6.06 4.89-1.94.73-.57 2.29 0 3.26 6.61 11.22 13.31 22.38 19.92 33.6.66 1.12 2.78 2.12 1.08 3.74a4.22 4.22 0 0 1 -5.14.44c-5.33-2.93-10.85-5.73-15.16-10.06-5.72-5.76-12.2-10.86-16.73-17.72-1.54-2.33-2.84-.83-4-.13-4.95 2.89-9.32 6.65-14.27 9.62-4.7 2.82-9 1.83-13.33.33-2.85-1-1.47-3.58.3-4.7 7.64-4.84 13-12.24 20.08-17.66 1.35-1 1.07-2.11.28-3.45a107.79 107.79 0 0 1 -12.63-31.3c-.72-3.22-1.34-6.3.67-9.83 1.44-2.55 2.96-2.34 4.97-2.49z" fill="#fa5847"/><path d="m1331.7 755.51c-4.71.2-8.53-2.28-12.35-4.45-2.44-1.38-3-3.56-1.3-6.29a28.92 28.92 0 0 1 6.82-7.13 4 4 0 0 1 4.52-.57c3.55 1.6 7.11 3.4 11.21 3.52 2.06.06 2.52 1.67 2.51 3.56 0 4.73-6.64 11.41-11.41 11.36z" fill="#fa5847"/><path d="m523.81 1257.11c-6.49-5.45-12.75-11.14-18.91-17-6.84-6.48-12.85-13.79-16.89-22-3.09-6.29-6.39-12.66-8.21-19.88-1.44-5.69-2.67-10.3-.26-15.66.66-1.48 1-3 3-2 2.32 1.22 2.16-2 3.78-1.95-.58-2-2.34-.81-3.89-1.21 2.27-3 5-3.76 9.88-2.76-3.89-2.41-3.94-3.83-1.24-5.59 3.29-2.15 6.13-5 9.4-7.2 3.66-2.47 4.42-7.83 9.07-9.12 5.2-1.43 8.22-6.21 13-8.14 9.8-4 11.45-13.8 15.46-21.76 4.34-8.63 7.64-17.77 11.58-26.61s6.11-18.29 9.84-27.16c4-9.54 5.34-20 10.26-29.17a3.77 3.77 0 0 0 .09-1.48 4 4 0 0 1 5.45-.35c1.57 1.21 1.06 3.22.63 5.37-3.11 15.36-6.71 30.62-9.74 46-4.16 21.12-11.82 40.87-20.8 60.23a99.06 99.06 0 0 0 -8 27.19c-1.57 10.75-.91 21.91-.13 33a226.39 226.39 0 0 0 4.4 32.33c.43 1.93.69 3.89 1 5.84-6.2-2.75-11.68.82-16.67 6.62-.65.8-1 1.95-2.1 2.46zm-3.87-95c-8.35 5.56-15.64 12.38-23.32 18.71-5 4.11-6.22 7-4.24 13.26a100.3 100.3 0 0 0 8.17 18.69c6.68 12 15.59 22.06 26 31.59-.17-5.07 1.84-9.27-.64-14-1.84-3.49-1.44-8.15-2.08-12.29-1.66-10.87-3.88-21.67-3.9-32.74 0-7.66.01-15.33.01-23.26zm54.59-118.26c-.11-.11-.2-.3-.31-.31s-.25.15-.37.24c.1.12.2.31.31.32s.24-.2.37-.29z" fill="#552cde"/><path d="m893.88 697.6h.12c-2.19-1.86-3.92 1.36-6 .55 2-6.47 7.49-11.23 8.69-18.12 3.54-20.2 9.19-40.44-.19-60.55-8.77-18.69-21.92-33.48-40.59-42.48-9.76-4.7-20.64-6.71-31.21-9.33a210.54 210.54 0 0 0 -48.58-6.67c-20.43-.2-40.25-4.86-60.46-6.42-18.41-1.42-35.24-9.17-52.93-13.48-8.13-2-16.37-3.14-24.59-4.49-3.62-.6-7.1.54-10.64.85-2.92-1.25-5.49 0-7.9 1.37-.79.45-2.8 1.21-.93 2.85-8.92 4.81-13.82 13.6-20.3 20.78a149.38 149.38 0 0 0 -19.51 27.29c-6.86 12.25-13.4 24.66-15.86 38.45-1.26 7.08-3.89 13.78-4.26 21.33-.34 7-2.67 14.34-3.24 21.69-.46 5.95-1.81 11.91-1.58 17.82a86.38 86.38 0 0 0 2.77 18.33 332.59 332.59 0 0 0 10.23 32.93c4.32 11.59 11.7 21.37 18.42 31.49a124.05 124.05 0 0 0 29.46 31.61 5.42 5.42 0 0 1 1.8 2.26c7 19 19.43 34.33 33.39 48.49 5.37 5.45 11.11 10.69 17.9 14.51-14.43 2-27 8.72-40.33 13.25-8.84 3-17 7.85-26 10.46 2-4.94 2.73-10.2 3.54-15.38 2.75-17.39 3.92-34.7-4.36-51.21-.76-1.52-.85-3.48-3-3.09-2.44.43-2.18 2.55-2 4.39a120.9 120.9 0 0 1 -.1 21.61c-1.29 12.62-2.66 25.23-6.28 37.5-1.18 4-2.8 8.11-2.27 12.51-7 4.8-15 7.76-22.28 11.87-8 4.47-16 8.83-23.78 13.62-9.29 5.7-18.37 11.85-28.37 16.35 1.35-4.42 2.29-9 4.11-13.24a594.92 594.92 0 0 0 24.54-66 116 116 0 0 0 4-45.29c-1.68-16.56-8.2-32.33-9.17-49.14a178.15 178.15 0 0 1 0-25.83c.68-7.7 1-15.43 1.42-23.14.15-2.57-1.64-3.71-3.62-4s-2.84 1.41-3.27 3.1c-1.78 7-4.22 13.85-5.52 21-1.83 10.07-3.38 20.22-2.8 30.37a189.8 189.8 0 0 0 5.73 35.1c3.86 15.41 4.75 31 1.1 46.53-5.07 21.64-13.16 42.27-21.27 62.92-4.84 12.32-7.55 25.25-7 38.65-3.88-1.51-6.72.61-9.7 2.64a497.33 497.33 0 0 0 -41.21 31.1 93.38 93.38 0 0 0 -9.15 8.51 14.53 14.53 0 0 1 -5.12 3.54 67.85 67.85 0 0 1 -3.09-32.15c2.08-13.86 6.1-26.74 15.79-37.36a122.06 122.06 0 0 0 13.32-17.85c10.41-16.8 13.25-35.73 14.92-54.93 1.87-21.51-4.15-42.1-7.33-63-.39-2.61-3-2.22-4.61-2.87-1.79-.72-3 1.28-2.93 2.51.16 6.42-1.36 12.91-.65 19.15 1.15 10.09.58 20.2 1 30.26a148.6 148.6 0 0 1 -1.26 23.26c-2.27 18.68-6.68 36.34-18.91 51.26-6 7.28-12.22 14.57-16.16 23-7.28 15.71-9.36 32.4-4.8 49.35 1.51 5.63 3.52 11.47 8.68 15.26-7.19 7.7-15.51 14.15-23.37 21.11-.38.33-.77.64-1.12 1-4.23 4.22-7.59 4.25-11.19-.56a95.5 95.5 0 0 1 -6-9.54c-5.5-9.57-7.21-20.2-9.08-30.65-1.37-7.7-.37-15.75 1.44-23.49 4.36-18.69 13.05-35.73 20.62-53.18a273.85 273.85 0 0 0 13.39-37.07c2.66-9.83 1.27-20-1-30-2.57-11.37-5.15-22.82-6.36-34.38-.82-7.82 1.8-15.57 5-23 5.71-13.17 14.31-24.29 23.23-35.36 7.75-9.62 18-16.64 26-25.83 11.1-12.61 18.49-26.91 21-43.82 1-6.88 2.26-13.64 2.4-20.63.24-11.29-2.26-22.28-3.44-33.39-1.69-15.9.41-30.71 8.4-44.76 11.71-20.6 28.5-36.64 45.59-52.54 13.73-12.77 27.18-25.93 36.51-42.45 4.14-7.31 8-14.89 12.11-22.15 8-14.08 11.44-30.07 20-43.8 3.72-6 7.81-11.52 13.63-15.8 5.33-3.92 9-9.69 14.49-13.59 9.86-7 21.34-10.4 32.41-14.67 6.25-2.41 12.61-5.13 19.15-6.07s13.15-2.86 19.93-2.11a2.1 2.1 0 0 0 .5 0c11-2.53 21.38 3.33 32 2.61 6.7-.45 13.5 3.82 20-.41 5.67 3.38 11.29-.21 16.95-.14 9.24.1 18.22-2.06 27-4.35 11.33-2.93 22.89-4.76 34.19-7.68 7.92-2 16-2.17 24-3.36a28.32 28.32 0 0 1 13 1.45c8.09 2.75 16.21 5.17 23.36 10.25 2.3 1.64 5.8 1.29 6.93 5 .72 2.39 2.25-1.6 4.35.25 7.36 6.5 16.06 11.41 19.23 22 .7 2.31 4.26 4.8 6.11 7.69 8.3 13 15.38 26.47 20.22 41.24 4.44 13.53 7.83 27.48 13.88 40.4 5 10.57 10.1 21.14 18.89 29.43 5.67 5.35 10.73 11.35 16.07 17.06.45.48 1.26 1 1.27 1.48.27 8.94 8.15 13.27 12.55 19.43 5.77 8 10.48 15.93 12.94 25.63 1.59 6.28 5.67 11.92 8.6 17.87a50.85 50.85 0 0 1 5 25c-.42 10.73-1 21.52.41 32.3 1 7.33.52 14.75 1.9 22.15 3.54 18.9 10.25 36.69 17.36 54.41 9.37 23.34 21.73 45.12 34 67a113.4 113.4 0 0 1 12.14 33.28c1.4 6.89 3.45 13.66 5 20.56 2.79 12.43 2.29 24.71-.23 37-4.4 21.33.54 41.15 9.22 60.4 7.74 17.14 13.62 34.93 19.45 52.79a213.66 213.66 0 0 1 10.26 57.46c.37 8.82-.47 17.66-4.64 25.79-.52 1-.81 2.46-2 2.6-1.4.17-1.61-1.45-2.12-2.41-4.29-8.13-11.28-14-16.93-21.06-5.48-6.81-12.49-11.83-18.5-18a163.17 163.17 0 0 0 -25.8-20.91c-6.43-4.32-12.41-9.3-18.68-13.86-2.85-2.08-6.28-3.42-8.28-6.56a328 328 0 0 0 -6.43-36c-4.2-17.53-3.35-34.43 5.28-50.66a114.77 114.77 0 0 0 7.39-16.81c4.71-13.78.49-26.44-5.88-38.6-5.33-10.18-12.69-19-19.84-27.87a65.63 65.63 0 0 1 -14.12-34.49c-1.14-10.46-1.12-21.24 2.18-31.61.62-2 .44-4.21.58-6.33.1-1.44-.3-2.71-1.8-3.2-1.85-.6-2.74.62-3.44 2.06-4.6 9.54-8.43 19.18-10.05 29.88-2.48 16.36 2.44 30.42 11.3 43.47 6.22 9.16 13.84 17.36 19.25 27.1 7.83 14.09 12.61 28.56 4.77 44.41-2.13 4.29-3.67 8.87-5.86 13.11-7.33 14.14-9 28.87-5.4 44.34 2.22 9.66 4.13 19.39 6.19 29.08-10.06-7.5-21.42-12.78-32.44-18.56-10.29-5.4-20.8-10.39-31-16.08-1.15-.64-2.73.11-3.65-1.19a49.37 49.37 0 0 0 -.21-5.45c-1.41-9.75-.75-19.51-.25-29.26.14-2.71 1.71-5.46-1-7.86-.58-.51-.64-2 .25-2 3.13.05 2.15-2.33 2.42-3.8a85.64 85.64 0 0 0 1.72-12.54c.14-3.63 2.36-7.39 2.37-11.37 0-15.24-4.94-28.82-14.27-40.73-1.63-2.08-3.76-4.61-8.47-4.32 5.61 6 6.62 12.93 8 19.75 1.69 8.62 3.13 17.48 1.32 26.09-4.41 20.91-8.57 41.79-7.6 63.32-11.16-5.68-22.33-11.34-33.46-17.08a25.49 25.49 0 0 1 -3.53-2.66c-1.7-12.6-7-24.31-8.18-37.17-1.88-21.33 0-41.81 9.25-61.31.59-1.23 1.57-2.51.67-3.66-1.21-1.57-2.7.21-4.09.26s-1.89 1.64-2.54 2.78c-3.17 5.54-4.49 11.9-7.87 17.37-1.49 2.41-1.8 4.95 2.77 5.63-4.21-.23-5.44 2-5.92 5-1 5.86-2.69 11.54-3.29 17.5-1.32 13-1.85 25.83.84 38.7.39 1.9 2.14 3.86.4 6l-27.78-14.72c-2.91-1.54-5.45-4-9.24-3.38-.44.07-1.21-2-1.82-3 2-7 2-14.18 2.81-21.28 1.26-11.59 5.46-22.43 8.1-33.64 2.07-8.79 4.2-17.19 2.41-26.11-.67-3.32-1.58-6.89-1.91-10-.66-6.38-3.41-11.24-6.79-16.14 3.2-5.1 6.1-10.29 10.49-14.71 3-3.07 3.5-8.2 6.49-11.95 2.85-3.57 6.78-6.13 11.09-4.86 8.08 2.38 16.61 4.18 24.7 3.24 10.39-1.19 21.34-2.07 29.47-11 2.8-3.08 6.87-5.32 9.92-8.61a23.78 23.78 0 0 0 1.6-30.26c-5.87-7.86-12.58-14-22.82-15.95a115.3 115.3 0 0 1 -13.63-3.79c-3.72-1.21-7.1.75-10.4.8-6.38.09-10.89 2.9-15.45 6.42a3.13 3.13 0 0 0 -2.76.99z" fill="#cdcde5"/><path d="m937.36 951.25c-6.47 14.13-12.08 28.59-15.28 43.82-2.7 12.89-5.85 25.66-7 38.9-.75 8.75-.6 17.55-1.73 26.25-1.74-1-1.63-4.81-5.05-3.39-.75.31-.72-.43-.78-.85-1.17-7.81-7.26-12.49-11.3-18.51-1.57-2.33-4.12-4.18-4.84-7s-4.53.3-3.79-1.69c1.39-3.74-1.48-4.93-2.91-7q-13.05-18.78-26.22-37.58c-2.1-3-4.76-5.51-6.18-9.16-1.9-4.87-.9-9.26 1.45-13.19 4.16-6.93 4.83-14.3 4.86-22.11 0-3.24-3-4.48-3.17-7.51-.11-1.52-3.25.36-5.25-.24s-2.18-.85-1.42-2.41c.86-1.77 1.76-3.52 2.63-5.29 4.8-9.73-.77-17.13-5.31-25.19 17.22 10.83 35 20.68 52.37 31.16-.68 6.69-1.83 13.37-2 20.07-.23 13.28-.86 26.57-.13 39.86.17 3.14.68 6.21 1.14 9.32 1.31 8.87 4.51 17.46 4.09 26.57-.06 1.2.25 2 1.38 2.25 2.26.44 1.31-1.46 1.43-2.31 1.73-12.9 1.69-26 4.82-38.76 2.91-11.86 5.23-23.88 8.59-35.63.88-3.09 3.36-5.71 2.65-9.26 6.59 1.26 10.91 6.69 16.95 8.88z" fill="#fdccc7"/><path d="m1037.29 988.22c-2.06-9.69-4-19.42-6.19-29.08-3.57-15.47-1.93-30.2 5.4-44.34 2.19-4.24 3.73-8.82 5.86-13.11 7.84-15.85 3.06-30.32-4.77-44.41-5.41-9.74-13-17.94-19.25-27.1-8.86-13-13.78-27.11-11.3-43.47 1.62-10.7 5.45-20.34 10.05-29.88.7-1.44 1.59-2.66 3.44-2.06 1.5.49 1.9 1.76 1.8 3.2-.14 2.12 0 4.35-.58 6.33-3.3 10.37-3.32 21.15-2.18 31.61a65.63 65.63 0 0 0 14.12 34.49c7.15 8.9 14.51 17.69 19.84 27.87 6.37 12.16 10.59 24.82 5.88 38.6a114.77 114.77 0 0 1 -7.39 16.81c-8.63 16.23-9.48 33.13-5.28 50.66a328 328 0 0 1 6.43 36z" fill="#9b81ea"/><path d="m501 951.56c-.56-13.4 2.15-26.33 7-38.65 8.11-20.65 16.2-41.28 21.27-62.92 3.65-15.55 2.76-31.12-1.1-46.53a189.8 189.8 0 0 1 -5.73-35.1c-.58-10.15 1-20.3 2.8-30.37 1.3-7.18 3.74-14 5.52-21 .43-1.69 1.34-3.41 3.27-3.1s3.77 1.45 3.62 4c-.46 7.71-.74 15.44-1.42 23.14a178.15 178.15 0 0 0 0 25.83c1 16.81 7.49 32.58 9.17 49.14a116 116 0 0 1 -4 45.29 594.92 594.92 0 0 1 -24.54 66c-1.82 4.22-2.76 8.82-4.11 13.24-1 1-.58 3.4-2.18 3.55-5 .48-7.34 3.86-9.57 7.48z" fill="#9b81ea"/><path d="m429.66 1003.29c-5.16-3.79-7.17-9.63-8.68-15.26-4.56-16.95-2.48-33.64 4.8-49.35 3.94-8.48 10.2-15.77 16.16-23 12.23-14.92 16.64-32.58 18.91-51.26a148.6 148.6 0 0 0 1.26-23.26c-.38-10.06.19-20.17-1-30.26-.71-6.24.81-12.73.65-19.15 0-1.23 1.14-3.23 2.93-2.51 1.63.65 4.22.26 4.61 2.87 3.18 20.92 9.2 41.51 7.33 63-1.67 19.2-4.51 38.13-14.92 54.93a122.06 122.06 0 0 1 -13.34 17.84c-9.69 10.62-13.71 23.5-15.79 37.36a67.85 67.85 0 0 0 3.09 32.15 21.1 21.1 0 0 1 -6.01 5.9z" fill="#9b81ea"/><path d="m718.32 978c1.3-.64 4.72 2.17 6-2.06.15-.49 2.34 1.06 4.15 1 8-.06 14.21-4.87 21-7.67 17.6-7.26 33.53-17.86 48-30 12.1-10.14 23-21.93 30.09-36.5 1.16-2.38 1.8-3.32 3.8-.6 6.48 8.84 7.1 19.62-.35 27.39-9.27 9.67-18.46 19.52-30.11 26.76-9.89 6.15-19 13.48-28.46 20.4-6.72 4.94-14.76 6.74-22.37 9.47-11.85 4.27-24.21 6.73-36.6 9-3.46.63-4.47-1.72-4.9-4.25a20.17 20.17 0 0 1 1-10.29c1.56-4.15 5.18-1.8 8.75-2.65z" fill="#9b81ea"/><path d="m843.48 939.73c4.77 7 1.15 13.28-1.59 19.63-2.85 6.6-7.64 11.48-12.85 16.4s-11.44 8.79-17.19 12c-7.54 4.28-14.35 10.23-23.1 12.81-3.6 1.06-7.31 4.77-10.8 5.78-3.8 1.1-7.49 2.55-11.17 3.91-6.25 2.3-12.55 4.47-18.74 7-4.38 1.75-9.6 1.86-14.25 3.68-1.33.52-2.54-.59-3.45-2.09-4.67-7.7-.59-16.71 8.38-17.52a94.27 94.27 0 0 0 25.46-6.14c.73-.28 2-1.07 1.93-1.29-2.26-7.29 2.42-2.42 4.34-2.56 6.3-.44 11-4.1 16-7.61 6.43-4.59 12.68-9.46 19.62-13.39 4.76-2.69 8.56-6.88 13.29-9.81 9.15-5.68 15.48-14.75 24.12-20.8z" fill="#fa5747"/><path d="m954.26 944.19c-1-21.53 3.19-42.41 7.6-63.32 1.81-8.61.37-17.47-1.32-26.09-1.34-6.82-2.35-13.8-8-19.75 4.71-.29 6.84 2.24 8.47 4.32 9.33 11.91 14.31 25.49 14.27 40.73 0 4-2.23 7.74-2.37 11.37a85.64 85.64 0 0 1 -1.41 12.55c-.27 1.47.71 3.85-2.42 3.8-.89 0-.83 1.51-.25 2 2.67 2.4 1.1 5.15 1 7.86-.5 9.75-1.16 19.51.25 29.26a49.37 49.37 0 0 1 .21 5.45z" fill="#9b81ea"/><path d="m865.09 787.23c3.38 4.9 6.13 9.76 6.79 16.14.33 3.07 1.24 6.64 1.91 10 1.79 8.92-.34 17.32-2.41 26.11-2.64 11.21-6.84 22-8.1 33.64-.77 7.1-.82 14.33-2.81 21.28-2.77-1.15-5.82-1.75-8.1-3.92 2-2.73 1.48-6 .51-8.53-2.75-7.16-.81-14.1.29-21 2.08-13 6.91-25.44 9.58-38.35a36.68 36.68 0 0 0 -.34-18.14 17.61 17.61 0 0 0 -.81-11.28c-1.33-3.03.84-4.84 3.49-5.95z" fill="#9b81ea"/><path d="m862.41 804.42a36.68 36.68 0 0 1 .34 18.14c-2.67 12.91-7.5 25.31-9.58 38.35-1.1 6.9-3 13.84-.29 21 1 2.53 1.45 5.8-.51 8.53-5.13-2.28-10.07-5.08-15.8-5.77-.68-.09-2.16-.1-1.31-1.81 2.94-5.94 1.1-12.49 1.76-18.7 1.56-14.64 5.38-28 14.45-39.63 3.88-5 5.42-10.86 7.9-16.38a7.58 7.58 0 0 1 3.04-3.73z" fill="#cdcde5"/><path d="m899.31 915.49c1.74-2.1 0-4.06-.4-6-2.69-12.87-2.16-25.74-.84-38.7.6-6 2.34-11.64 3.29-17.5.48-3 1.71-5.21 5.92-5-4.57-.68-4.26-3.22-2.77-5.63 3.38-5.47 4.7-11.83 7.87-17.37.65-1.14 1-2.73 2.54-2.78s2.88-1.83 4.09-.26c.9 1.15-.08 2.43-.67 3.66-9.25 19.5-11.13 40-9.25 61.31 1.13 12.86 6.48 24.57 8.18 37.17a28 28 0 0 0 -14-2.07c1.57-3 3.63.26 4.76-2.08-2.22-2.62-6.32-2.24-8.72-4.75z" fill="#9b81ea"/><path d="m587.06 898.7c-.53-4.4 1.09-8.49 2.27-12.51 3.62-12.27 5-24.88 6.28-37.5a120.9 120.9 0 0 0 .1-21.61c-.15-1.84-.41-4 2-4.39 2.18-.39 2.27 1.57 3 3.09 8.28 16.51 7.11 33.82 4.36 51.21-.81 5.18-1.58 10.44-3.54 15.38-4.76 2.18-9.34 4.87-14.47 6.33z" fill="#9b81ea"/><path d="m889.44 702.71c-1.76 2.33-3.63 4.55-7.08 5.95 1.24-3.68 1.37-7.27 5.27-8.76z" fill="#cdcde5"/><path d="m746.3 200.07c.29-13.31 6.34-24.42 13.59-35.12 3.85-5.68 8-11 13.33-15.43 2.57-2.12 3.8-1.31 4.13 1.24 1.82 14.26 4.94 28.57 2.67 42.94-1.66 10.44-2.82 21.33-10.28 30a23.21 23.21 0 0 1 -7.42 5.59c-4.68 2.35-6.9 1.37-9.44-3.27a50.62 50.62 0 0 1 -6.58-25.95z" fill="#cbefec"/><path d="m1221.09 1013a2.79 2.79 0 0 1 -3.19-.25 2.14 2.14 0 0 1 3.19.25z" fill="#cbefec"/><path d="m97.85 735.34c-.26 7.16-3.37 11.31-7.31 14.95-2.19 2-4 .37-5.41-1.12-3.81-3.91-5.31-8.91-6.17-14.15-.1-.64.15-1.39-.08-2-1.52-3.83-.95-7.54 2.52-9.5 4.55-2.57 11.37-.47 13.75 3.94 1.51 2.84 2.12 6.14 2.7 7.88z" fill="#cbefec"/><path d="m232.85 932.26c-.45 1-.74.5-1-.12z" fill="#cbefec"/><path d="m310.78 1020.11c-.22-4.81 3.59-8.33 4.08-12.91 2.4 2.12 2.15 5.46 3.65 8 1.08 1.83-1.09 2-1.94 2.75a9.32 9.32 0 0 1 -5.79 2.16z" fill="#cbefec"/><path d="m212.08 584.41c-4.28-.42-7.7-3.56-12-3.83a44.72 44.72 0 0 1 6.48-1.82c4.44-.58 5.9 1.04 5.52 5.65z" fill="#cdcde5"/><path d="m311.6 648.64a25.46 25.46 0 0 1 -11.24-3.32c2.69-2.55 6.18-1.2 9.21-1.48 1.97-.19 1.26 3.16 2.03 4.8z" fill="#cbefec"/><path d="m149.91 588.7c-.79 2.45-2.82 3.31-5 3.94-1.41-4.23-1.41-4.23 5-3.94z" fill="#cbefec"/><path d="m212.61 585.56-.58-1.14z" fill="#cdcde5"/><g fill="#cbefec"><path d="m1230.52 767.55c.91-4.82 5.09-6.11 7.85-8.71a1.58 1.58 0 0 1 2.25 0 1.65 1.65 0 0 1 -.33 2.58c-2.89 2.29-5.2 5.5-9.77 6.13z"/><path d="m1003.66 370.09c1-11 7.71-17.6 13.88-24.48a4.17 4.17 0 0 1 .76-.63c1.8-1.16 2.94-4.94 5.14-3.39 1.92 1.36 1.49 4.92.41 7.41a40.51 40.51 0 0 1 -20.19 21.09z"/><path d="m375.67 622.16q1.05-8.05 2.09-16.1c.48-3.68 2.63-1.65 3.82-.88a81.3 81.3 0 0 1 19.27 17.56c1.48 1.82 1.85 5.33 5.53 4.74.75-.12 1.43.3 1.05 1.11-2.32 5 2.35 8.13 3.47 12.17 1.19 4.26.93 7.75-2.36 10.2s-6.09 4.71-11.39 2.12c-11.39-5.55-18.12-13.92-20.92-26-.4-1.7-.16-3.25-.56-4.92z"/><path d="m570.63 232.82c.37.12.91.31.48.73s-.71 0-.74-.53z"/><path d="m1067.21 219.58c1.06-11.68 8.22-25.08 22.68-24.37 4.31.21 9.13.93 12.8 3.9 2.19 1.77 4.07 3.83 7.17 3.82a1.45 1.45 0 0 1 1.14.65c2 6.7 7.08 12 8.86 18.67 1.54 5.75 0 11.74-2.48 17.19a99.17 99.17 0 0 1 -12.84 21.9c-2 2.48-3.45 3-6 1.09-10-7.41-19.78-15.2-26.52-25.72a33.53 33.53 0 0 1 -4.81-17.13z"/><path d="m1211 647.8a115.67 115.67 0 0 1 -8.47 43.39c-2.82 7.21-8.89 11.17-16.12 13.1a8.6 8.6 0 0 1 -8.62-2.26c-10.36-9.65-12.67-21.42-10.5-34.78 1.56-9.65 5.11-18.59 8.94-27.49 1.74-4 5-6.06 8.81-7 4.58-1.14 9.43-1.19 14-2.28 6-1.41 8.19 2.77 9.78 6.71s1.72 8.31 2.18 10.61z"/></g><path d="m574.53 1043.81c-.13.09-.26.26-.37.25s-.21-.2-.31-.32c.12-.09.25-.26.37-.24s.2.2.31.31z" fill="#fdccc7"/><path d="m710.49 607.72c.33 5.5-3.08 10.83-5.91 11.65-8.47 2.44-17 5.3-26.41 4.19-11.49-1.36-22.48-4.44-33.53-7.43a92.13 92.13 0 0 1 -13.21-5.24 121.87 121.87 0 0 0 -21.79-7.24 12.59 12.59 0 0 1 -5.87-3c2.24-1.66 2-5.12 5.44-6.23a81.69 81.69 0 0 1 28.6-3.75c6.11.25 12.26.35 18.32 1.07a335.42 335.42 0 0 1 37.54 6.09 60.74 60.74 0 0 1 12.6 4.06c2.64 1.25 5.11 2.71 4.22 5.83z" fill="#552cde"/><path d="m850.56 620.32a20.32 20.32 0 0 1 -3.5 1.93c-6.42 1.74-10.78 7.4-16.88 9.31-7.86 2.46-14.65 7.29-23.18 8.55-5.92.87-11.76 2.73-17.86 2.48-13.71-.57-27.32-1.94-37.88-12-2.81-2.68-3.19-7.28-5.53-10.68-1.2-1.75 5-7.75 7.31-7 5.79 1.88 11.57-1.32 17.34.27 4 1.1 8.37-.79 12.3 1.3 2.54 1.34 3.88-2 6.65-1.41 4.13.81 8.62 1.88 12.58 1.51 7.37-.71 14.69 1 22-.35 5.47-1 10.58.74 15.65 2.62 3.09 1.15 6.28 1.98 11 3.47z" fill="#552cde"/><path d="m690.15 738.94c1.45-3.62 1.34-7.66 7.43-7.77 8-.15 15.45-9.47 16.17-18.54.53-6.56 3.24-12.59 4.35-19 1.52-8.76 5.35-17 6.88-25.81a55.23 55.23 0 0 1 2.67-8.93c.57-1.58 1.47-3.93 4.09-3.1 2.16.68 3.63 1.79 3.21 4.64a258.12 258.12 0 0 1 -5.69 28.35c-2.53 9.63-5 19.31-7.68 28.91-2.23 7.84-6.33 14-14.3 16.82-2.09.73-3.75 2.58-6.4 2.12-2-.34-1.74 1.31-1.47 2.73a24.9 24.9 0 0 0 7.81 13.44c1.3 1.23 3.12 2.06 4.36.94 2.88-2.6 7-2.87 9.72-5.57a3.5 3.5 0 0 1 4.45-.55c1.68.89 4.21 1.38 4.31 3.48.08 1.61-1.56 2.89-3.29 3.89-2.44 1.42-4.21 3.66-7 5-6.42 3-12.31 4.37-17.83-1.41-5.34-5.69-10.08-11.71-11.79-19.64z" fill="#572dde"/><path d="m770.21 770.59a34.9 34.9 0 0 1 11.71.89c1.68.36 3.78.36 3.89 2.85a1.07 1.07 0 0 0 1.68 1c3.66-3.56 6.64.76 10 .88 1.49 0 4.43.84 3.47 3-.74 1.61-2 4.39-4.94 4-9-1.3-18.16-1.07-27.23-2.12-8.14-.95-16 1-23.82 4.59-7.08 3.26-12.56 8-18 13.12-3.46 3.24-6.47.61-8.78-.83-1.55-1 .66-3.77 1.84-5.41 9.66-13.43 23.77-18.64 39.33-21 3.7-.64 7.4-1.76 10.85-.97z" fill="#572dde"/><path d="m658.46 700.53c-2 3.85-5.62 4.47-8.93 4.86a77.08 77.08 0 0 1 -30.53-2.52c-7.57-2.15-14.65-4.61-21.21-8.79-1.86-1.19-3.83-2.3-2.19-5.24 1.38-2.48 2.76-3.38 5.85-3 6.43.74 11.77 4.56 18 5.7 9.73 1.78 19.51 3.3 29.26 5 3.48.58 6.57 2.35 9.75 3.99z" fill="#572dde"/><path d="m820.41 717.31c-12.86-.22-22.77-2.23-32.28-6-.65-.26-2.44-.16-1.91-1.92.44-1.48 1-2.83 3-2.5 14.08 2.32 27.95-1.37 41.95-1.44a15.93 15.93 0 0 0 7.47-2.17c3.89-2.17 11.66-.6 13.81 3 1.05 1.76-.68 2.92-1.93 3.2-10.99 2.34-21.43 6.91-30.11 7.83z" fill="#572dde"/><path d="m767.29 791.36c2.79.67 5.63 1.52 8.54 2 2.53.44 2 1.7 1.06 3.07a6.24 6.24 0 0 1 -4.61 2.7c-7.06.07-13.24 3.24-19.8 5.06-2.05.57-4.43.82-6.2-.71-1-.91-3.76-.39-3.18-2.06.82-2.33.06-6 3.7-6.66 6.76-1.22 13.56-2.26 20.49-3.4z" fill="#572dde"/><path d="m1301.13 979.55c-1 2.22-.9 4.35-3 3.68-2.55-.79-5.54-.89-7-3.89-6-12.71-11.67-25.6-14.67-39.38-1.43-6.55-1.69-13.38-2.26-20.1-.38-4.36 1.94-8.07 4.26-11.35 3-4.21 7.88-1.77 11.81-1.85 4.33-.1 8.63 1.57 13.06 2.09 5.32.63 7 5.93 7.58 10.48 1.43 11.12 1.23 22.31.5 33.51-.43 6.59-1.67 13.11-1.36 19.76.16 3.43-.45 6.74-3.08 9.5-2.97 3.12-4.69 2.77-5.84-2.45z" fill="#fa5747"/><path d="m1297.92 996.16c2.82.72 6 1.39 9.12 2.39a9.74 9.74 0 0 0 4.32.65c5.19-.65 8.35 2.84 6.44 7.59a50.42 50.42 0 0 1 -5.6 9.76c-1.33 1.9-3.74 3.47-6 2.62-4.68-1.74-9.65-1.39-14.35-2.69-6-1.65-7-3.86-4.07-9.33 4.96-9.32 6.42-10.96 10.14-10.99z" fill="#fa5847"/><path d="m195.3 685.71a59.13 59.13 0 0 1 -4.35 8.81 4.63 4.63 0 0 1 -4 2.33c-5 .31-6.07-1-4.24-5.63 1.73-4.43 2.12-9.2 4-13.64 1.38-3.31 3.21-6.78 6.16-7.65 4.34-1.28 11.33 3.37 13 7.49a29.41 29.41 0 0 0 3.32 7c.85-1.08 1.55-2 2.33-2.94 7.54-8.57 15.87-9.5 24.57-1.89 6 5.24 11.75 4.66 18.6 2.35 7.31-2.46 13.59-7.32 21.42-8.55 4.06-.64 7.47 2 11.41 1.4a1.05 1.05 0 0 1 .67 1.83c-1.33 1.19-1.58 3.14-3.53 4-11.62 4.86-22.78 11.12-35.89 11.22-7.81.07-15.53-.65-22.28-4.81-2.58-1.59-3.32-1.16-4.66 1.06-6.23 10.12-21.04 9.41-26.53-2.38z" fill="#fa5948"/><path d="m233.48 723.49c-3.71-.52-8.11-1-12.47-1.81-1-.17-3.57.09-2.52-1.76.82-1.47-.25-4.42 2.84-4.49 18.95-.49 36.48-8.12 55-10.94 3.89-.59 7.28 1.13 10.69 2.28 1.61.54 1 2.75-.19 4.21a7.54 7.54 0 0 1 -5.28 2.42c-10.42 1.13-20.25 4.65-30.24 7.43-5.67 1.56-11.43 1.5-17.83 2.66z" fill="#fa5948"/><path d="m404.73 397.91c-.05 6.92-6.54 13.84-12.94 13.8-8.8-.06-17.67-7-17.67-13.87 0-5.69 8.12-14.31 13.36-14.2 9.18.21 17.3 6.93 17.25 14.27z" fill="#fa5747"/><path d="m492.67 396.73c-.06 6.78-7.4 16.91-12.25 16.91-8.84 0-16.88-6.43-16.73-13.38.15-7.17 6.69-15.62 12-15.52 8.44.16 17.02 6.26 16.98 11.99z" fill="#fa5747"/><path d="m449.71 396.94c-.38 7.6-6.6 15.17-12 14.67-9.13-.83-16.37-6.47-15.94-12.43.39-5.45 8.45-15.6 12.19-15.35 9.47.64 16.1 6.17 15.75 13.11z" fill="#fa5747"/></g></svg>