<svg height="440" viewBox="0 0 1205.23 1260.64" xmlns="http://www.w3.org/2000/svg"><g transform="translate(-12.07 -25.03)"><path d="m292 93c2.19-1.79 3.82-4.19 7.18-4.45 1.64-.13 4.22.21 4.94-2.42 4.82 1.44 6.4-4.13 10.93-5 4.91-1 10.42-3.67 15.41-6.33 6.44-3.42 13.55-5.6 20.4-8.23 3.7-1.42 7.65-2.29 11.14-4.08a37.38 37.38 0 0 1 11.94-3.41 8.61 8.61 0 0 0 3.92-1.76c6.56-4.64 14.57-4.85 22-6.75 2.7-.69 5-2 7.51-2.8 7.74-2.57 15.64-4.43 23.92-2.89a2.32 2.32 0 0 0 1.46-.06c5.54-3.45 12.42-6.28 15.67-6.84 8.14-1.42 16.63-.53 24.48-4.18 2-.93 5.11.71 7.3 0 9.73-3.34 19.8-2.91 29.8-2.8 2.82 0 5-1.8 7.94-1.88 9.4-.28 18.77-1.54 28.16-2.15 5.78-.37 11.6 0 17.41-.13 4.16-.12 8.44-.36 12.47-.79 9-.94 17.91-.25 26.85-.83 7.74-.49 15.57.5 23.36-.15 6-.5 11.82 1.77 17.69 1.59 4.84-.16 9.78 3.63 14.54-.23a1.84 1.84 0 0 1 2.34 0c3.32 2.79 6.8 3.28 10.55.93 4.69 4.39 10.59-3.36 15.69 1.53.5.47 5.51.2 8.07-.76 2-.73 3-.86 4.12.87.22.34 1 .72 1.22.58 4.25-3 9.37-1.87 13.2-.6 3.51 1.17 7.3-1.67 10.25 1.5.43.46 1.06-.49 1.45-1 .63-.83 1.52-1.71 2.5-1.19 5.57 2.93 11.79.86 17.27 2.13 6.22 1.45 12.35-.75 18.05.94 8.34 2.47 17.49.63 25.14 4.13 4.67 2.13 10.25 1.2 14.27 5-10.85 8.22-21.86 16-32.26 24.57-13.28 10.91-26.3 22.2-37.61 35.22a72.9 72.9 0 0 0 -8.53 12.82c-2.08 3.79-3.1 2.73-4.83-.12-2-3.25-4.42-6.21-6.48-9.41s-5.24-4.47-8.26-6.13c-1.7-.94-2.74.52-4 1.3-1.82 1.16-.53 2.37 0 3.39 4.14 7.75 8.38 15.44 12.56 23.17 2.31 4.29 7 4 10.65 5.63 5.38 2.44 7.35-1.32 9.8-4.76 9.78-13.71 19.47-27.53 30.8-40 2.66-2.94 6.19-5.32 9.23-8.08 12.85-11.66 25.46-23.58 39.54-33.83a9.44 9.44 0 0 1 11-.34c2.18 1.4 3.88 1 5.68 1.18a43.65 43.65 0 0 1 19.17 6.33c1.85 1.13 7.44-1 4.13 4.47 1.8 1.87 3.18-2 4.5.07 1 1.49-.08 2.82-2.11 4.2 3.49 0 5.61-1.1 7.83-2 3.6-1.51 8 1.89 7.63 5.87a1.23 1.23 0 0 0 -.35.15c-.06 0 0 .18-.08.27l.45-.46c4.33-1.34 7.76.23 11.74 2.19 3.65 1.79 8.16 3.14 12.75 2.25 3.83-.73 6.23 3 9.82 3.61a72.42 72.42 0 0 1 14.46 4.31c4.45 1.83 9.16 2.68 13.61 4.38a2.35 2.35 0 0 1 1.62 2.26 1.33 1.33 0 0 0 -.34.16c-.06 0 0 .16-.07.25l.41-.41c2.8-.15 4.87 3.77 8.06 1.46 2.63 6.21 11 2.66 14.2 8.45.74 1.34 3.84 1.65 5.92 1.93 4.49.61 7.5 3.29 11 6 6 4.66 13.27 7.75 19.48 12.21 4.68 3.35 10.21 6 12.86 11.74.19.4.81 1 1.08.93 5.48-1.33 7.62 3.84 10.28 6.34 6.22 5.88 12.61 11.73 18.31 18.06 6.08 6.76 13.88 12 18.41 20.12 1.11 2 3.89 1.34 4.88 3.59.53 1.19 2.47 1.63 1.74 3.63a2.43 2.43 0 0 0 .79 2.22c8.2 4.58 10.93 14 17.54 19.86 1.57 1.41 1.78 3.26 2.13 4.91 1.14 5.44 5.82 9.1 6.93 14.55.35 1.7 1.09 2.8 0 4.88-1.61 3.15.89 6 4.94 6.46 1.12.13 2.35.59 2 1.63-1.56 4.9 4 8.62 2 13.72-.73 1.82 2.7.85 3.44 2.78 1.88 4.93 2.38 10.19 2.62 15.21a77.16 77.16 0 0 0 1.53 9.57 92.41 92.41 0 0 1 .94 13.3 56.91 56.91 0 0 0 1.06 11c1.4 6-.79 12 .25 17.53.83 4.45-.84 8.64.55 13.11.75 2.4-.52 6.19-.52 9.28 0 5.6 1.32 11.23 1 16.79-.33 6.45-1.29 13-.25 19.29 1.79 10.86 1.84 21.85 2.2 32.66.25 7.89 2.34 15.2 3.33 22.78 1.44 11.13 3.41 22.23 7.45 32.9a31.44 31.44 0 0 1 2.48 11.41 8.92 8.92 0 0 0 2.48 5.81 9.83 9.83 0 0 1 2 3.93c1.88 6.28 3 13 6 18.66 4 7.28 3.85 16.31 10.11 22.49.58.58.4 1.89.7 2.82 1.07 3.4 1.33 7.21 4.79 9.46a3.44 3.44 0 0 1 1.37 2c2.75 13.44 11.46 24.09 16.91 36.26 3.91 8.75 9.12 16.93 12.78 25.7 3.87 9.27 9.16 17.83 12.41 27.44 2.24 6.59 4.46 13.29 7.38 19.75 2.37 5.24 3.17 11.6 5.32 17.07 1.24 3.16.81 6.83 3.42 9.84 2 2.24 2.62 5.92 1.84 9.42-1 4.25 1.32 7.81 3.12 11.38a3.84 3.84 0 0 1 .17 2.78c-.81 4.62 1.45 8.88 1.71 13.32.16 2.67 1.33 5.55-1.15 8.49-1 1.18-1.41 5.3.43 7.81 2.07 2.85 3.09 5.47-1 7.4-.68.32-1.27.84-.69 1.46 3.61 3.87.49 8.17 1 12.14.63 5.1-2.93 9.1-2.85 13.37.13 6.09-1.45 11.77-2 17.65-.33 3.46-1.48 6.83-2.07 10.28-1.17 6.82-4.3 13.09-4.87 20.23-.2 2.53-3.22 6-4.07 9.48-1.58 6.47-5.34 12-7.54 18.31-1 2.73-2 6.86-6.16 8.24-2.63.86-2.84 4.14-3 6.42-.23 3.24-.48 5.87-4.38 6 .09 2.06 2.75.62 2.66 2.46-1.16 1.83-2.86-.62-4.2.75l1.17 3.72c-3.15.66-6.63.41-6.37 5.3.08 1.55-2.77 2.48-3.69 4.61-.85 2-3.34 3.11-.69 5.53.61.55-.22 2-1 1.52-7.88-4.65-1.23 2.87-3.4 3.55-1.81-1.73-3.18-2.94-5 1.19-2 4.57-7 7.82-9 12.39-1.69 3.75-3.67 6.14-7.41 7.32.75 1.74 2.31.29 3.11 1.57-3.91-.59-3.64 3.43-5.24 5.25-7.16 8.15-15.66 15-22.37 23.63-1.52 2-3.55 5.5-7.3 5.53l-.4-.23.42.21c-.09 2.38-2.51 2.37-3.72 3.61-3 3-6.23 6.22-9.56 8.16-2.13 1.24-1.65 3.34-3.27 3.9-2.55.86-3.57 3.28-5.39 4.78-4.58 3.78-9.59 7-14.49 10.44-6.67 4.62-14.6 6.9-21.1 12.15-3.86 3.12-9.47 4.36-14.2 6.67-5.43 2.65-10.86 5.49-16.59 7.32-10.83 3.46-20.36 10.35-31.87 11.9a15.71 15.71 0 0 1 .81-2.84c10-20.4 10.85-42 7.69-63.9-2-13.57 2.15-25.51 9.52-36.28 6.77-9.9 15-18.82 22.13-28.48 8-10.81 12.51-23.12 10.8-36.6-1.91-15.1-8.75-28.74-14.91-42.49-6.48-14.48-13.95-28.52-17.43-44.23a101.66 101.66 0 0 1 -2-24.49c.3-12.63 4.1-24.86 8.24-36.83 4.89-14.11 10.52-28 12.8-42.88 2.22-14.51 2.67-28.8-2.42-42.94a335.42 335.42 0 0 0 -17.22-39.72 192.91 192.91 0 0 0 -18.54-28.91c-4.79-6.26-10.37-12-15.53-18-6.15-7.1-11.93-14.64-18.44-21.39-12.61-13.06-18.72-28.74-19.53-46.4-.64-13.87-.08-27.81.29-41.71.45-17.1.65-34.24-1.44-51.19-2-16.05-9-30.75-15.77-45.22-7.6-16.13-18.8-29.81-32.34-41.47-16.1-13.85-33.92-25.16-52.65-35-8.56-4.52-17.28-8.75-26.22-12.57-5-2.13-10.26-3.18-15.26-5-15.77-5.7-32.32-9-48.78-12.46-6.19-1.29-12.31-2.85-18.52-4-14.32-2.63-27-8.89-39.37-16.39-14.13-8.59-29.28-14-46.33-12.66-7.8.62-15.68-.91-23.41-1.52-13.52-1.08-26.57.9-39.75 2.36-10.43 1.16-20.6 4-30.88 6.09-25 5.13-49 13.1-72.6 22.43-3.62 1.43-8.22 2.14-10.34 6.37l-.6.6c-1.84-1.1-3.47-.38-5.11.54-3 1.68-6 3.31-9.06 5-16.45 9.11-32 19.17-44.76 33.47a139.74 139.74 0 0 0 -32 61.94c-4 17-8.52 33.79-16.83 49.49-10.69 20.19-26.83 35.16-43.76 49.65-12.16 10.41-25 20.11-34.91 32.88-9.43 12.17-18.1 24.81-23.36 39.46-2.76 7.7-5.56 15.33-7.59 23.32-2.85 11.24-5 22.53-5.26 34-.24 10.31-1.2 20.57-.68 31 .51 10.06.52 20.23.94 30.3.67 16.11 1.36 32.16-.31 48.21-1.87 17.91-7.32 34.82-14.2 51.42s-15 32.77-21.83 49.42c-5.69 13.75-11.43 27.35-14.82 41.92s-2.67 28.6 3 42.47a160.47 160.47 0 0 0 11 21.55c9.24 15.51 9.59 31.56 4.66 48.36a248.46 248.46 0 0 0 -9.64 50.2 94.91 94.91 0 0 0 3.28 33.18c4.24 15.19 12.75 27.18 25.25 35.55 15.2 10.18 32.56 16 50.83 18.45 1.48.2 3 .1 4.28 1 3.85 4 9.7 3.15 14.17 5.69a1.69 1.69 0 0 0 2.24-.44c.55-.79 0-1.64-.52-2.24a4.34 4.34 0 0 0 -4.48-1.26 5.69 5.69 0 0 1 -5.41-1.69c2.63-.9 5.31.25 7.91-.16 2.45-.4 3.43 1 3.73 2.86.54 3.39.78 6.83 1.15 10.25-2.92-.3-6.54 1-7.73-3.31-2.22 2.16-4.77.69-6.86.13-8.13-2.16-16.4-3.72-24.53-5.92-6.1-1.66-11.31-6-18.2-5.51-2.83.19-6.21-1.27-8.63-3a27 27 0 0 0 -14.35-4.84 2.61 2.61 0 0 1 -.85-.28c1.47-5.64-3.52-4.35-5.91-5-3.54-1-6.78-5.3-11.08-1.57-.57.49-1.73-.13-2-1-1-2.69 2.83-1 2.86-2.85-.61-1.07-1.42-.86-2.2-.57-3.5 1.3-6.73 3-8.24-2.84-.53-2.07-4.72-2.82-6.57-1.85-2.84 1.49-3.51.24-5.5-1.33-6.83-5.38-15.36-7.59-23.1-11.29-8.95-4.27-19.11-6.16-26.53-13.51-.93-.92-2.74-1.22-4.18-1.32-4.54-.33-7.07-3.53-10.36-6-3.47-2.67-6.5-6.08-11.19-7.55-4.06-1.28-8.55-3.56-10.93-7.36-1.65-2.64-4.15-3.51-6.19-5.27-6.52-5.64-14-10.44-19.42-17-6-7.31-13.32-13.3-18.62-21.38a163.83 163.83 0 0 0 -10.18-14.14c-1.64-2-1.28-4.29-2.38-6.36-4.48-8.45-10.11-16.37-12.37-25.92-.59-2.48-.44-5.08-2.19-7.46s1.26-4 2.4-5.31c-6.45-3.66-6.5-9.9-7.66-15.47-.47-2.23-.08-4.64-.08-7l.76-1.07-.39-.26-.4 1.4c-2.32-6.22-3.62-12.58-1.78-19.14.44-1.54-.35-1.56-1.16-2.08-1.35-.86-1.32-1.89.11-2.61 1-.49 2.09-1 1.16-2.09-2.82-3.4-1.17-6.54.09-9.88.55-1.48-2-3.25.06-4.9-2.59-2.17 2-6.09-1.92-8a1.69 1.69 0 0 1 .18-1.32c3.13-3.46 1.54-8.09 2.71-12.09.83-2.79.21-5.6 3.57-7a1.37 1.37 0 0 0 .29-2.44c-4.24-2-1.37-5-1.25-7.6.06-1.59 3-3.26-.25-4.75a1.52 1.52 0 0 1 .12-1.26c4.09-3.88 1.94-9.48 3.76-13.78 2.52-6 1.15-12.5 4.48-18.54 2.22-4 2.74-9.68 3.33-14.71.42-3.62 1.69-5.54 6.15-4.64-3.89-4.41-4.46-7.52.07-11.81 2.05-1.94 2.37-7.19 2.65-10.93.34-4.56 2-8.43 3.8-12.4.25-.56 1.36-1 1.31-1.4-.79-6.92 4.12-12 5.93-18 1.19-4 3.88-7.47 4.9-11.66.37-1.48 2.42-.56 4.09-1.32-3.49-1.13-3.9-2.42-.62-4.1 1.29-.66 3-.93 2-3.85-1.16-3.54 2.77-6.36 3.92-9.83 1.52-4.58 1.24-9.66 4.15-13.88 3.54-5.14 4.26-11.24 5.63-17.2.83-3.65 5.29-6.25 5.36-10.54 0-3.67 3.61-6.29 2.46-10.26-.57-2 2.42-.31 3.08-2.77 1.43-5.27 1.76-11.16 5.74-15.54-3.26-2.22 2.69-4.74-.27-7.44-.75-.69 2.94-2.33 2.91-4.69 0-4.32 4.2-7.76 2.58-12.42 5.31.19-1.31-6.6 3.81-6.53-3.83-2.93 4.11-5.38.39-8.7-.57-.51 1-3.51 1-5.75 0-4 1.63-8 2.54-12 .44-1.93 2.09-1.72 4-2-2-2-4-3-2-6.85 2.42-4.6 1.39-10.53 4-15.9 1.45-3-.78-8.85-.41-13.25.95-11.23-.63-22.39-.07-33.6.47-9.34-.2-18.74-.23-28.12 0-3 .65-6 .57-9-.07-2.42 1-5.15-2.23-7-1.83-1-.11-3.77 0-5.48.16-2.69-.24-4.38-3.32-6.1 7.83-1.25 2.75-5.05 2.33-7.51-1.18-7.05-4.49-13.68-3.83-21.15.26-2.9-1.06-5.85-1.82-8.61-1-3.68 2.42-7.14.33-10.12-2.9-4.14 2.27-9-1.68-12.7 6-2.79-3.41-10.39 4-12.77-1-1.25-1.13-2.4-1.26-4.18a25.63 25.63 0 0 1 3.86-16c3.15-5.25 3.68-11.86 7.19-17.18 6.5-9.86 12.12-20.38 20-29.25 4.87-5.5 7.39-12.35 11.71-18.13 1-1.33 1.7-2.53 3.21-3.08s2.16-1.84 2.34-3.44a11 11 0 0 1 6.12-7.87c1.1-.43 1.48-1.3 2-2.08 3.76-5.59 10.65-8.7 12.54-15.78.06-.22.53-.55.72-.5 5.7 1.4.25-2.73 1.69-3.38.76-1.63 2.42 3.35 3.8-.82.63-1.89 5.56-2.79 5.58-6.82 2.68 1.22 3.79-1.12 5.42-2.35 3.44-2.6 3.46-2.58 3-6.41 4.94 1.71 8.53-.47 10.14-5.85.58-1.95 1.55-3.7 4.41-3.2a3.17 3.17 0 0 0 3.5-1.93c1.85-3.92 5.29-6.54 8.75-9.08 1.54-1.13 1.64-4 4.85-3.1.74.21 3.33-2.33 3.17-3.26-.89-4.94 4.39-3.71 5.76-6.24.36-.66 1-.35 1.6.18 2.31 2.07 2.31 2 3.27-1.27.17-.58.52-1.42 1-1.57 5-1.63 7.49-7.06 12.92-8.28 2.84-.65 4.46-3.32 6-6 1.12-1.94 4.65-1.39 6.85-3 1.75-1.27 3.9-1.79 5.31-3.84.95-1.38 2.85-2.76 4.79-1.9s2.52.06 3.27-1.34a3.49 3.49 0 0 1 3.68-2.14c3.47.1 5.22-3.66 8.4-4.72 1.24-.41 2.36-1.08 3.73-1a2.45 2.45 0 0 0 2.41 1.24c.07 0 .22-.32.17-.41-.62-1.34-1.73-.84-2.62-1.01zm-52.47 229.19c-2.3-2.48-5.3-4.6-6.71-7.5-2.83-5.84-6.77-10.82-10.59-15.94-4.23-5.75-11.42-6.17-17.23-8.95-3.85-1.84-1.45 4.16-4.38 4.8-1.18.26-.33 2 .45 2.93 6.76 8 11.8 17.2 18 25.59 7.26 9.83 13.81 20.5 27.52 22.58 1 .15 2 1.43 2.85.11 2.15-3.46 5.54-5.91 6.63-10.32 5-20.2 15.33-37.9 26.18-55.38 6.74-10.85 13.7-21.54 21.28-31.8 1.13-1.52.05-3.92 1.16-4.13 4.51-.86 5.6-5.05 7.95-7.77 8.65-10 16.76-20.43 26.54-29.44 5.47-5 11-9.92 16.78-14.61.88-.71 2.59-1.5 1.11-3.09-2.57-2.73-10.07-2.85-10.54.17-.8 5.12-4.49 4.29-7.35 5.5a9.23 9.23 0 0 0 -2.63 1.41c-8.46 7.68-17.06 15.23-25 23.46-13.74 14.2-25.87 29.7-37.6 45.58-13.25 17.9-25.38 36.38-34.42 56.8zm847.75 453a79.34 79.34 0 0 0 -9.25-18.82c-5.23-7.89-8.7-17.75-20.14-19.54-2.23-.35-4.48-2.18-6.36-.14s-1.17 4.5.22 6.84c8.51 14.27 15.41 29.41 21.86 44.62 3 7 7.05 10.12 13.45 12a12 12 0 0 1 3.48 1.89c1.18.85 2.19.91 3-.31 2.24-3.44 5.47-6.21 6.57-10.44 2.34-9 7.38-16.83 12.67-24.09 9.33-12.79 18.9-25.5 29.72-37.14a372.07 372.07 0 0 1 47.26-42.47c4.18-3.19 10.1-4.38 12.32-10.09.56-1.44 1.67-2.93.19-4s-3.24-2.24-5-1c-4.88 3.32-10.72 5.42-14.07 10.71-.45.71-.65 1.61-1.65 1.59-6.59-.15-10.31 5.12-14.9 8.35-9.2 6.48-17.64 14-26 21.49-9.89 8.82-19.21 18.24-28.18 27.94a213.27 213.27 0 0 0 -25.19 32.6zm-1012 44c-2.78-4.38-6-8.46-8.11-13a23.66 23.66 0 0 0 -13.33-12.71c-1.12-.43-2.45-2.09-3.47-.56a4.66 4.66 0 0 0 -.27 5c3.35 7.07 7.93 13.43 10.72 20.89 2 5.5 4.69 10.91 7.06 16.37 1.26 2.88 12.9 7.67 15.62 6.43a2.18 2.18 0 0 0 .78-.6c1.83-2.28 4-4.14 5-7.22a283.22 283.22 0 0 1 14.76-35.92c9.41-19.23 19.18-38.27 31.11-56.1 10.05-15 20.23-29.93 32.13-43.59 5.08-5.84 9.94-11.88 14.88-17.84.65-.78 2.11-2.51.22-2.4-3.28.17-7-3.44-10 1a78.42 78.42 0 0 1 -11.13 12.81c-7.61 7.22-14 15.37-20.45 23.34a561.09 561.09 0 0 0 -41.12 58.91c-8.96 14.46-16.43 29.77-24.37 45.2zm940.51-340.19a33.14 33.14 0 0 1 -4.3 0c-4.19-.75-4.91 2.92-6.14 5.26-1.4 2.64 1.51 3.63 3.21 4.77 3.57 2.4 7 5 10.71 7.23 10.81 6.55 10.72 6.7 1.85 16.1-6.1 6.47-5.82 7.46 2.58 9.65a26.14 26.14 0 0 1 4.2 1.47 3.89 3.89 0 0 0 5-.89c3-3.36 7.28-4.5 11-6.59 2.34-1.3 4.11-1 5.64 1.08 3 4 7.61 5.25 12 6.55 4.62 1.37 8-2.13 7.63-6.78-.37-4-.35-7.94-1.15-11.87-.45-2.2.57-3.28 2.69-4.49 6.93-4 14.72-5.48 22-8.33 2.31-.9 3.23-2.74 4.6-4.27 1.08-1.2.61-2.25-1.18-2.87a54.93 54.93 0 0 0 -27.46-2.36c-2.39.4-3.33-.46-3.73-2.71-.51-2.93-1.39-5.8-1.91-8.73a4.92 4.92 0 0 0 -2.29-3.66c-9.84-5.83-16-3.48-19.66 7.42 0 .16-.06.33-.11.48-2 5.93-3 6.73-9 5.32-5.77-1.36-11.78.05-16.18-1.78zm-63.94-356.73c-.05-1.74-.76-2-1.62-2.25-1.91-.55-4-.86-5.63-1.87-2.46-1.54-4.29-1.7-7-.15-4.59 2.6-9.64 4.4-14.52 6.46-1.56.66-3.23 1.18-4.1-1.13-1.82-4.89-4.79-8.33-10.53-8.4a4.65 4.65 0 0 1 -2.72-1.14c-3.05-2.57-4.06-.81-5.94 1.79-3.15 4.38-1 9.37-2.62 13.88-1 2.86-1.22 5-5.14 6l-15.37 3.77a6.55 6.55 0 0 0 -4.68 5.25c-.53 2.39 2.54 2.57 4.3 3.09 4.43 1.31 9 2.28 13.41 3.57 2.12.63 5.4 1.93 4 4.26-2.06 3.48-1.71 7.41-3.34 10.74-1.72 3.49-.05 4.63 2.72 5.77 5 2.07 9.64-.15 11.63-5.75.57-1.59 8.31-5 9.87-4.29a81.19 81.19 0 0 0 12.51 4.65c2.89.85 4.29.86 6.25-1.22 2.26-2.4 1.94-4.73.67-7.3q-2.41-4.89-4.81-9.8c-1-2.17-1-4.21 1.21-5.59 6.37-4.05 11-10 16.79-14.78 1.96-1.65 3.35-3.98 4.66-5.56zm-484.29-76.06c-2.74-.21-7.13 5.79-7.56 9.27-.56 4.73-1.29 9.44-1.76 14.18a4.1 4.1 0 0 1 -3.05 3.9c-5.24 2-10.35 4.35-15.59 6.37a6.89 6.89 0 0 0 -4.37 5.56c-.41 2.66 2.66 2.47 4.31 3.26a20.48 20.48 0 0 0 10.11 2.25c3.06-.19 3.42 1.12 2.35 3.54s-2 4.84-3.18 7.17a2.26 2.26 0 0 0 .13 2.71c2.38 3.28 11.37 4 14.16 1s5.36-5.8 8-8.73c1-1.09 1.67-2.1 3.62-2a69.2 69.2 0 0 1 14.51 3c3.89 1.16 6.31 1.29 8.53-1.78 2.07-2.88 1.1-8.64-1.51-10.82-4.25-3.57-4.54-9-.69-12.94q5.4-5.47 10.77-11c1.9-1.94 2.23-3-.87-4.61-6.15-3.27-11.31-2.07-16.4 1.82-2.61 2-4.58 1.7-5.64-1.56-2.61-8.03-11.43-6.39-15.87-10.59zm-323.56 484.58c1 1.13-1.51 4.83 2.48 6.21s5.89-.48 7.93-3.63c2.39-3.69 5.41-7 7.64-10.83 1.29-2.23 3.24-2.76 6-1.75 3.37 1.25 6.43 3.25 10.26 3.63 2.32.23 3.37-.62 4.63-1.91 1.51-1.53.8-2.82-.18-4.4-2.34-3.82-4.36-7.83-6.6-11.71-1.23-2.14-1.13-3.75.57-5.79 4.45-5.34 8.57-10.95 12.78-16.48 1-1.27 2.59-2.86.26-4.1-3.58-1.9-7.78-3.66-11.18-.55-2.57 2.35-5.82 2.63-8.47 4.46-2.87 2-5.62 2-7.22-2-2.05-5.05-7.92-3.72-11.4-6.53-1.05-.85-1.77.76-2.49 1.71-3.46 4.62-1.48 9.91-2 14.89-.19 1.72.76 3.82-1.27 5-3.88 2.26-7.77 4.52-11.76 6.57-2.81 1.45-5.2 3.56-5.62 6.48s3 1.58 4.35 2.57c3.61 2.74 9.35 1.43 11.69 4.51 2.52 3.41-1.14 8.26-.4 13.65zm-15 379.09c-.13 1.9.67 4.18.76 6.42.2 5 3.75 6 7.32 6.57s4.24-2.37 5.31-5.2c1.63-4.31 2.93-9.64 6.61-12 2.9-1.85 6.89 2.17 10.56 3.07a6.26 6.26 0 0 1 1.44.4c2.82 1.51 5.09.84 7-1.65s-.92-3.81-1.74-5.52c-2-4.25-3-9-5.95-12.9-1.1-1.47 1.1-2.89 2.22-4a63 63 0 0 0 8-10.1c1.39-2.18.88-2.87-1.71-4.14-5.85-2.87-10.54-2.3-15 2.27-2.26 2.3-4.54 2.18-5.62-1.13-1.75-5.35-5.42-8.15-10.7-9.74-5.46-1.64-7.31-.67-7.43 5.19-.12 5.33-.11 10.67 0 16 .05 2.11-.55 3.32-2.69 4-5 1.71-9.87 4-15 5.41-2.61.71-2.49 2.84-3.61 4.28-.65.84.4 1.59 1.14 1.79 3.8 1.05 7.28 3.31 11.41 3.09 7.68-.42 7.68-.43 7.68 7.89zm225.39-789.88c1.93-.05 3.28.16 3.85-1.12s-.64-1.76-1.3-2.42c-1.4-1.42-2.65-3.39-4.37-4-4.95-1.78-5-5-3.5-9 .47-1.24.65-2.61 1.22-3.79 1.27-2.65.56-4.21-2.05-5.6-2.81-1.48-3.32.38-4.38 2.13a64.42 64.42 0 0 1 -5.09 6.72c-2.71 3.38-5.08-1.58-8-1.19-1.2.16-2.58-.85-3.38.8-.7 1.47 0 2.65 1.15 3.47s2.6 1.46 3.86 2.26c2.79 1.78 4.32 3.86 2.67 7.45a20.85 20.85 0 0 0 -1.64 7.64c-.2 3.71 3 2.39 4.46 3.25 2.32 1.39.91-1.5 1.54-2.28a8.72 8.72 0 0 0 1.67-3.54c.94-3.92 3.34-5 7.05-3.19 2.22 1.01 4.59 1.78 6.24 2.41zm682.61 140.49c-2.38 2.5-4.77-.84-7.55.86s-5.77 3.93-7.86-1.47c-.88-2.28-4.14-2.74-6.55-1.14-1.6 1.06-.89 2.47.05 3.87 4.47 6.6 3.35 13.47-2.9 18.51-1.26 1-3.17 2.39-2.29 3.83 1.4 2.31 3.2.42 4.54-.67 5.46-4.47 10.84-7.63 16.21.09.09.12.27.18.4.28.93.71 1.84 1.61 3 .53a2.27 2.27 0 0 0 .38-3.16c-5.25-7.6-3-14.14 2.75-20.23.11-.06 0-.28-.18-1.3zm75.15 356.7a13.69 13.69 0 0 0 6.11 2.62c1.33.18 3 1.54 4.12-.09s-.85-2.63-1.49-3.24c-5.32-5.07-3.55-9.75.11-14.74 1-1.35 3-3.25.79-5.22s-4.61-1.75-6.74.14c-1.47 1.3-3.21 2.67-3.93 4.39-1.29 3.1-3.18 3.71-6.12 2.83-1.26-.37-2.88-1.84-3.76.42-.64 1.65.3 2.85 1.69 3.74 3.45 2.22 3.18 5.09 1 7.91-2.39 3.14-2.52 7.1-4.23 10.46-.61 1.21-.56 2.13.81 2.86 1.52.83 2.48.37 3.31-1 1.65-2.66 3.38-5.27 5-8a6 6 0 0 1 3.33-3.08zm-894.87-15.56c-4.43-1.79-8.58-1.58-9.75 3-1 3.92-2.72 2.35-4.49 1.65-1-.4-1.63-1.75-2.64-2.23-1.93-.93-4.18-3.28-6.14-1-2.18 2.54 1 4.05 2.42 5 5.64 3.59 6.82 8.22 4.15 14.06-1.12 2.46-.05 4 2.08 4.67s4.58.41 5.25-2.27c1.13-4.42 3.31-5.37 7.14-2.91a4.72 4.72 0 0 0 2.42.42c1.1 0 2.5.4 3-1.08a2.06 2.06 0 0 0 -1.56-2.73c-7.12-1.49-5.89-5.62-3.62-10.41a36.73 36.73 0 0 0 1.74-6.17zm889.15 287.24c.65-3.23-4.36-3.79-2.34-7.25 1.74-3 2.81-6.34 4.43-9.41.72-1.36 1.83-2.38.31-3.86-1.35-1.3-3-1.94-4.48-.85a38.12 38.12 0 0 0 -5.15 4.27c-1.69 1.77-2 7.68-7.15 4.31-1.36-.88-3.17-1.91-4.36.07s.86 3.34 2 3.85c3.2 1.41 2.62 3.67 2.08 6.12-.38 1.77-.68 3.55-1.09 5.31-.52 2.29-1.11 5.05 1.28 6.18 3 1.43 4.41-1.4 5.53-3.59 1.94-3.72 3.56-7.63 8.94-5.15zm8.79 2.52c-3.17-.1-5-2.06-8.25-.66 2.77 1.2 4.64 3.11 8.25.66zm-227.85-821.69-.13.36h.53c0-.13 0-.28-.09-.37s-.2.02-.31.01zm-35.2-10.44-.42.12c0 .12.06.34.1.34a1.29 1.29 0 0 0 .42-.1zm-600.17 986.99c-.11.07-.27.12-.31.22s.11.2.17.31l.49-.38z" fill="#cbefec"/><path d="m461.38 213.63c2.12-4.23 6.72-4.94 10.34-6.37 23.6-9.33 47.64-17.3 72.6-22.43 10.28-2.12 20.45-4.93 30.88-6.09 13.18-1.46 26.23-3.44 39.75-2.36 7.73.61 15.61 2.14 23.41 1.52 17-1.36 32.2 4.07 46.33 12.66 12.35 7.5 25 13.76 39.37 16.39 6.21 1.15 12.33 2.71 18.52 4 16.46 3.42 33 6.76 48.78 12.46 5 1.8 10.28 2.85 15.26 5 8.94 3.82 17.66 8.05 26.22 12.57 18.73 9.88 36.55 21.19 52.65 35 13.54 11.66 24.74 25.34 32.34 41.47 6.81 14.47 13.79 29.17 15.77 45.22 2.09 16.95 1.89 34.09 1.44 51.19-.37 13.9-.93 27.84-.29 41.71.81 17.66 6.92 33.34 19.53 46.4 6.51 6.75 12.29 14.29 18.44 21.39 5.16 6 10.74 11.69 15.53 18a192.91 192.91 0 0 1 18.54 28.91 335.42 335.42 0 0 1 17.21 39.73c5.09 14.14 4.64 28.43 2.42 42.94-2.28 14.91-7.91 28.77-12.8 42.88-4.14 12-7.94 24.2-8.24 36.83a101.66 101.66 0 0 0 2 24.49c3.48 15.71 11 29.75 17.43 44.23 6.16 13.75 13 27.39 14.91 42.49 1.71 13.48-2.79 25.79-10.8 36.6-7.16 9.66-15.36 18.58-22.13 28.48-7.37 10.77-11.48 22.71-9.52 36.28 3.16 21.93 2.34 43.5-7.69 63.9a15.71 15.71 0 0 0 -.81 2.84c-2.89 1.8-1.61 7.66-6.92 7.1 1 2.84-1.48 4.25-2.58 6.24-6.11 11.1-15.06 19.31-25.74 25.92-8.41 5.21-17.23 9.07-27.17 9.86-2.56.2-2.86 2.18-3.26 3.7-4.56 17.37-10.06 34.47-14.38 51.91a197.71 197.71 0 0 1 -13.16 37.87c-7.51 15.71-12.68 32.69-23.81 46.51-8.26 10.25-17.22 20-27.43 28.21a101.7 101.7 0 0 1 -21.77 13.5c-13.51 6.12-27.89 10.66-42.87 9-12.87-1.42-26.09-.15-38.51-3.49-4.83-1.3-10.17-1.36-14.87-4s-10.44-3.9-15.36-6.43a67.24 67.24 0 0 1 -14.13-9.91 58.26 58.26 0 0 1 -10.81-16.42c-5.22-11.91-5.58-24.6-5.94-37.26-.34-11.78 2.58-23.24 3.81-34.86 1.43-13.46 4.93-26.52 7-39.85 1.93-12.57 5.85-24.65 8.4-37.08 3.69-18 8.58-35.7 12.83-53.57 2.12-8.92 3.79-17.95 6-26.86 1.05-4.25-.53-9.25 1.59-12.6 2.26-3.58 1.23-5.33-.6-8-8.64-12.4-13.51-25.87-12-41.29.46-4.8 2.69-7.71 6.9-9.77 3-1.46 4.52 1.31 6.89 1.66 5.31.78 10.72 1.83 15.08 5.35 5.4 4.35 5.34 4.42 8.58-1.42 3.58-6.47 9.5-8.67 16.46-6.15 2 .72 4 1.79 6 2.06 4.06.52 6.83 2.58 9.45 5.61 2.08 2.41 3 5.91 6.43 7.22.55.21.85 1.47 1.81.84.65-.43 1.49-1.27.85-2.05-2.33-2.84.28-3.63 1.9-4.69a25 25 0 0 1 11.64-4.24l7.88 1.43c.57 1.41 2 1.09 3 1.22 4.84.69 7.54 3.45 8.56 8.08.34 1.53.67 2.21 2.77 1.82 2.65-.5 5-1 6.64-3.26 1.57.25 3.46 1.18 4.66.62 7.86-3.64 14.31 1.27 21.08 3.38 4.41 1.38 5.91 6.65 4.11 10.87-2.31 5.39-7.27 8.51-11.41 12-8.37 6.94-15.79 14.22-19.58 24.71-.69 1.88 0 4.52-2.42 5.69-2 1-1.74 2.25-.88 4 6 12.4 6.6 26 8.45 39.26.69 5-.9 10.27.62 14.67 5.34 15.46 5.32 31.41 5.6 47.35.31 17.74-1.08 35.24-10 51.24-.58 1-.1 3.1-2.11 2.35-1.33-.51-3.13-1.74-2.56-3.47 1.66-5 1.37-10.59 3.37-15.32 2.49-5.89 2.65-12.16 2.56-17.93-.13-8.73.21-17.51-.48-26.25.33-.91 1.14-2 .91-2.71-1.6-5.16-2.06-10.48-2.93-15.77s-3.26-10.46-5-15.68l-7.62-33.43a14.51 14.51 0 0 0 -1.43-10.09c-2.66-4.42-4.34-9.19-6.23-13.78-1.26-3.06-2.64-3.9-5.33-3.55a23 23 0 0 1 -13.5-1.87 2.72 2.72 0 0 0 -1.48-.11c-8.17.93-16.12-.79-24.1-2.06a38.77 38.77 0 0 0 -4.32-.85c-6.75-.29-13.66.5-19.86-3.19-1.5-.89-2.73-1.17-3.12 1.25-1.58 9.93-3.27 19.84-4.92 29.76q-3.94 17-7.9 33.92c-3 10.21-6.06 20.4-7.13 31-3.06 13.54-5.59 27.18-8.11 40.84-4.22 22.81-7.38 45.64-7 68.94.25 14.38 2.88 27.76 11.1 39.81 4.91 7.21 11.57 13.22 19.5 15.15 17 4.13 34.52 4.23 52 3.29 4.88-.26 10-.54 14.48-1.85a93.68 93.68 0 0 0 26.87-13 138.25 138.25 0 0 0 28.18-25.76 79.75 79.75 0 0 0 10.92-18.3c6.08-13.62 12.45-27.12 17.65-41.09a219.57 219.57 0 0 0 9.22-33.8c2.61-13.14 7.71-25.58 10.9-38.55 5.08-20.61 10.32-41.17 15.07-61.85 3.63-15.81 7.27-31.67 7.31-48 0-7.77-.27-15.51-.77-23.27a111.89 111.89 0 0 0 -6.9-31.7c-6.77-18.29-15.32-35.83-28.28-50.78-3.23-4.08-5.93-8.6-9.94-12-3.64-3.92-6.91-8.21-11.28-11.41v-20.39c5.28 2.06 9.12 6.24 13.3 9.71 12.2 10.11 23.55 21.14 32.93 34 7.81 9.6 13.76 20.36 19.6 31.2 2.94 5.46 3.61 11.92 7.63 16.86-.33 4.56 1.46 8.74 2.39 13.06 4.65 21.69 4.84 43.56 1.86 65.37-2.05 15-5.73 29.71-9.34 44.42-.83 3.4-2.75 6.85-1.94 10.69 3.31-.74 5.66-2.47 8.06-4.29a94.93 94.93 0 0 0 21.5-23.55c9.53-14.44 15.19-30.17 16.16-47.54.53-9.34-.29-18.65-1.34-27.86-1.69-14.81 2.56-27.62 11-39.43 8.32-11.64 18.7-21.73 25.6-34.48 5.6-10.35 7.67-21 4.26-32.41-3.19-10.68-9-20.27-13.25-30.52-7.15-17.28-14.51-34.51-17.79-53a99.91 99.91 0 0 1 .34-39c3-13.82 8.71-26.71 13-40.1 5.07-15.9 8.84-32 7.22-48.94a36.38 36.38 0 0 0 -2.55-11.49c-9.29-21-23.31-38.67-38.6-55.46-10.92-12-21.65-24.12-30.1-38-13.84-22.7-21.52-47.27-21.84-73.92-.18-16.42 0-32.83.88-49.25a219.73 219.73 0 0 0 -.92-32.84c-1.16-12.36-6.68-22.94-13.73-32.77-7.46-10.42-17.66-18.41-26-28.06-.89-1-1.17-3-3.1-3.51-9.47-2.28-15.42-10-23.14-15.06a1.8 1.8 0 0 0 .35-.24c0-.05 0-.17 0-.26l-.26.56c-2.6.35-2.64-2.86-4.95-3.36-5.15-1.12-9.4-4.39-13.48-7.45-2.46-1.84-6.83-3.25-6.46-6.91.51-5-2.14-3.39-4.66-3.06 1.74 1.48 3.36 3 3.15 5.53-3.37-.06-5-3.2-7.35-3.7-7.14-1.5-12.94-5.93-19.93-7.92-10.55-3-20.91-6.62-31.7-8.9-14-2.95-27.93-6.44-41.77-10.22-12.25-3.34-23.09-9.39-33.44-16.28-6.83-4.55-13.55-9.16-20.87-12.93s-14.48-7.18-22.85-8.28a135 135 0 0 0 -22.44-.73c-5 .17-10-.69-15.15.25-7.72 1.43-15.64 2.2-23.39 3-11.33 1.22-22 4.88-33 7a157.54 157.54 0 0 0 -22.21 6.05c-1.92.67-3.8 1.43-5.77.42-1.25-.64-1.81.11-2.46.9-2.11 2.58-5.09 3.61-8.15 4.4-6.91 1.79-13.66 4.21-20.43 6.36-7.27 2.31-13.71 7.15-21 10.05a60 60 0 0 0 -9.37 4.42c-11.46 7.18-23.21 13.76-33.75 22.61-14.85 12.49-24.79 27.7-31.65 45.35-6.37 16.43-8.23 34.12-14 50.76a146.46 146.46 0 0 1 -21.16 40.4 214 214 0 0 1 -26.84 29.12c-8.05 7.39-16.5 14.34-24.92 21.3-8.63 7.15-17.3 14.53-23.67 23.59a120.43 120.43 0 0 0 -17.35 35.43c-3.92 13.41-7.06 26.94-8.15 41a223.91 223.91 0 0 0 -.12 33.67c.91 12.65 1.42 25.34 2 38 .73 14.88 1.06 29.75-.55 44.73-2 19-7.95 36.57-15.2 53.86-7.56 18-16.72 35.36-24.37 53.39-2.33 5.49-2.72 12.23-8.52 16-.22.14-.22 1.07 0 1.42 1.78 2.7 0 5.08-.6 7.56-1.66 6.84-3.89 13.56-4.59 20.61-1.8 18.16 6.06 33.5 14.52 48.55 7.8 13.88 12.56 27.83 8.82 44.32-4 17.41-9.32 34.52-10.73 52.56-1.26 16.08-1.19 31.76 5.65 46.61a64.81 64.81 0 0 0 25.37 28.74c4.88 3 10.47 2.75 15.58 4.51 8.88.78 17.75 1.11 26.57-.61 1.94-.38 2.94-.69 2.67-3.49-2.16-23-3.51-46-1.54-69.12 1.7-20.09 3.86-40 9-59.59 7.46-31.69 17.62-62.12 40.21-86.8 8.81-8.26 17.3-16.88 26.95-24.2 6.22-2.87 11.19-7.92 17.78-10.13.27 6.06-1.54 12-.91 18.11a26.82 26.82 0 0 0 -8.13 4.8c-6.41 4.46-11.77 10.12-17.55 15.3l-10.22 11.95c-12.4 13.77-15.87 32.14-24.64 47.77 1.32 7.62-2.92 14.13-4.32 21.21-3.45 17.41-6.64 34.83-8.18 52.56-.52 6.06-.28 12.18-1.28 18.17-1.26 7.54-1.08 15.23-.84 22.68.51 16.14 1.24 32.34 3.26 48.43 1.19 9.46 1.46 19.08 3.22 28.43 3.43 18.19 7.29 36.3 11.9 54.24 1.78 6.94 2.6 14.17 4.91 20.9 2.66 7.71 5.68 15.28 8.11 23.08a102.47 102.47 0 0 0 6.28 15.83c5.34 10.48 11 20.81 16.8 31 2.24 3.94 4.46 8.53 7.42 11.33 4.82 4.54 8.58 10 13.43 14.39 6 5.53 11.17 12.5 18 16.57 10 5.92 20.66 10.9 32.23 13.58 3 .7 7.41-.08 8.89 2.29 2.72 4.38 5.35 2.75 8.62 1.66 2.43-.81 5.31 1.81 6.71 1.32 7.21-2.47 15.19-.39 22.14-4.34 3.18-1.81 6.14-4.28 9.91-5 6.65-1.2 11.77-5.11 16.34-9.65 11.92-11.83 18.36-26.4 21.1-42.82 2.88-17.27 2-34.66 1.82-52-.16-14.67-2.05-29.22-4.16-43.69-1.88-12.88-3.62-25.85-7.46-38.37a204.74 204.74 0 0 0 -5.28-27.68c-.7-8.06-2.53-16-3.31-24-.51-5.23.44-11-2.72-15.79-.22-4.89-1.06-9.86-.47-14.65.5-4.13-.69-7.74-1.37-11.55-.36-2-1.42-1.57-2.9-1.09-7 2.29-14.05 4.43-21.09 6.6-3.86 1.18-7.95 2.61-11.82 2a52.71 52.71 0 0 0 -22.57 1.51c-3.35.9-6.64 2.3-10.18 2.07-2.58-.17-3.26 1-3.76 3.34-1.77 8.55-3.86 17-5.83 25.54-1.87 2.22-2.1 5.1-3 7.68-3.09 8.57-8.27 16.33-9.84 25.48-3.68 9.42-5.69 19.3-7.92 29.11-4.49 17.81-5.84 36.06-7.05 54.36-2.28-3.43-2.87-7.19-4-10.76-4.09-12.46-3.62-25-.89-37.57.23-1 1.35-1.84 2-2.79.32-.47 1.65-.28 1.12-1.16-2.61-4.34.94-8 1.11-12.08.25-6 3-11.55 3.69-17.22.89-7.37 3-14.38 4.29-21.58 2.46-13.46 8.42-26.11 8.8-40.12.18-6.93 1.88-13.7 10.46-16.4-2.56-2.48-4.56-4.67-6.81-6.57-7.77-6.55-15.59-13.1-22.48-20.58-6.15-6.67-11.61-14-11.34-23.8.28-10.34 1.47-12.06 9-13.41 9.48 4.49 19.08 8.78 27.06 16.35-1.89-3.43-.9-6.8-1-10-.27-8.73 7.63-13.6 15.73-10.21a43.42 43.42 0 0 1 17.16 12.33c1.78 2.16 2.11 1.59 3.32-.95 2.54-5.31 4.76-11.39 11.48-13.11 4.15-1.07 17.84 5.66 19.84 10 1.1 2.36 3.24 4.22 3.35 7.09.19 4.64 4.67 1.87 6.77 3.64 1.26 1.07 2.23-1.46 2.61-2.72 1.41-4.67 4.64-7.94 8.28-10.78 1.21-1 2.66-3 4.72-1.47 1.82 1.36 2.54-.14 3.78-.92 1-.66 1.17-2 2.76-2.31 9.82-1.73 24.31 7.35 19.67 20.47-2.32 6.59-5.36 12.75-10.55 17.63-4.23 4-8.28 8.11-10.78 13.46-1.47 3.15-3.55 7.37-1.66 9.8 4.94 6.35.69 13.16 2.27 19.53.63 2.56-3.54.92-3.37 3.11.24 2.93 3.49-.65 4.16 1.69a8.11 8.11 0 0 1 .32 2c.39 11.13 4.19 21.68 5.5 32.63.89 7.42 4.81 14.35 3 22.34-.41 1.81-1 6.28 2.92 7.92 1.14.49 1.44 2 1.7 3.43.85 4.48 1.79 9 3 13.35a272 272 0 0 1 6.83 33c1.36 9.69 2.83 19.48 3.88 29.2 1.35 12.35 1 24.9 1.24 37.36.42 19.76-3.27 38.91-8.82 57.76-4.76 11.3-12.47 20.33-21.94 27.84-3.94 3.13-7.14 7.3-12.27 8.91-9.8 3.08-19 8.79-29.33 9.23-8.48.36-17.52 2.4-25.78-3.14-2.67-1.79-7.18-.69-10.8-1.25-7.7-1.19-14.91-4.26-21.73-7.66-8.68-4.31-17.91-7.33-26.19-12.63a146.34 146.34 0 0 1 -31.32-27.27c-14.87-17-25.29-36.51-33.35-57.23-5-12.76-10.29-25.45-13.71-38.86-2.17-8.54-5-17-6.94-25.57-2.52-11.24-5.9-22.25-6.86-34a79.68 79.68 0 0 0 -3.15-17.36c-.37-3.42-.61-6.86-1.15-10.25-.3-1.9-1.28-3.26-3.73-2.86-2.6.41-5.28-.74-7.91.16l-6-.06c-1.28-.94-2.8-.84-4.28-1-18.27-2.5-35.63-8.27-50.83-18.45-12.5-8.37-21-20.36-25.25-35.55a94.91 94.91 0 0 1 -3.46-33.21 248.46 248.46 0 0 1 9.64-50.2c4.93-16.8 4.58-32.85-4.66-48.36a160.47 160.47 0 0 1 -11-21.55c-5.65-13.87-6.38-27.88-3-42.47s9.13-28.17 14.82-41.92c6.88-16.65 14.94-32.77 21.83-49.42s12.33-33.51 14.2-51.42c1.67-16.05 1-32.1.31-48.21-.42-10.07-.43-20.24-.94-30.3-.52-10.39.44-20.65.68-31 .27-11.51 2.41-22.8 5.26-34 2-8 4.83-15.62 7.59-23.32 5.26-14.65 13.93-27.29 23.36-39.46 9.89-12.77 22.75-22.47 34.91-32.88 16.93-14.49 33.07-29.46 43.76-49.65 8.31-15.7 12.79-32.53 16.83-49.49a139.74 139.74 0 0 1 32-61.94c12.72-14.3 28.31-24.36 44.76-33.47 3-1.67 6.05-3.3 9.06-5 1.64-.92 3.27-1.64 5.11-.54.22.16.56.5.64.45.6-.37.34-.72-.02-1.09zm43.83 760.44c-1.07-7.15.52-13 5-18 .67-.74.91-2.53 2.52-1.72 2.58 1.29 2.79-.12 1.94-1.84s.48-2 1.12-2.82c2-2.43 4.14-4.74 6.13-7.18a41.59 41.59 0 0 0 6.9-13.43c.58-1.75.95-4.21-.86-5.6s-3.27-.08-4.93.92c-5 3-9.67 6.21-13.52 10.84-1.6 1.92-2.78 5.29-5.87 5.55-9.29.77-16.76-2.09-21.1-11.06-.84-1.74-1.16-3.63-1.84-5.37a4.39 4.39 0 0 0 -3.55-3 3.82 3.82 0 0 0 -3.15 3.64c-.47 3.72-1.17 7.43-2 11.1-1.21 5.49-5.25 7.57-10.51 5.58a30.59 30.59 0 0 1 -10.24-6.77c-3.75-3.58-6.3-8.09-9.71-11.93-1.14-1.28-2.38-2.55-4.24-1.89-2 .72-2.23 2.64-2.24 4.47a23.21 23.21 0 0 0 .43 3.41c.71 4.9 3.33 9.14 4.88 13.75.62 1.84 1.39 4-.05 5s-3.61 2.14-6.06 1c-3.68-1.72-7.39-3.19-10.79-5.58-7.13-5-13-11.41-19.76-16.82-.7-.56-1.3-1.86-2.39-.81a2.94 2.94 0 0 0 -.82 2.23c1.52 9.22 3.07 18.38 9.36 26 7.45 9 16 17 23.69 25.76 1.51 1.72 2.38 2 4.24 1.55 15.05-3.53 30.85-1.42 45.77-6 4.62-1.43 9.4-.83 14.1-1.23 2.34-.25 4.69-1.33 7.55.25zm305.22.41c4.66-14.83 14.16-25.93 27.06-34.37 2.3-1.51 5.17-2.3 6.5-5 .47-1 1.3-1.9.21-3.13-.86-1-1.69-.61-2.68-.58a24.84 24.84 0 0 0 -16.68 6.93c-4.88 4.54-9.53 2.44-14.13.38-1.79-.8-3.92-1.5-5.2-3.55s.62-3.93-.13-6.33c-1-3.27-2.46-5.29-6-3.83-2.89 1.18-4.32 4.09-6.72 5.83-2 1.47-2.84 4-6.09 4.48-8.58 1.2-16.15-2.36-20.58-10.56-3.9-7.23-5.47-7.26-10-.69-.77 1.11-1.09 2.28-1.74 3.33-1.87 3-3.49 7.08-7.77 6.54-4.9-.63-10-1.13-14-4.93-3.18-3.05-6.66-5.78-10.45-9 1.53 11.51 3.77 22.15 8.84 32.11a49 49 0 0 1 3.46 7.79c.75 2.46 1.74 5.39 6 5.64 3.09.18 6.47.14 9.47 1 11.45 3.24 23.23 2.82 34.9 3.45 8.69.41 16.95 3.01 25.73 4.49zm-392.71 65.71c-4.57 1.68-2 5.32-2.79 8.43 5.57-1.62 1.96-5.62 2.79-8.43zm11-58.41c-.24.08-.67.14-.69.27-.11.52.16.88.73.76.26-.06.48-.32.72-.49zm-125.46 95.45c-.09.1-.27.21-.27.32s.19.2.3.3l.32-.46z" fill="#542cde"/><path d="m542.17 1239c5.55-18.85 9.24-38 8.82-57.76-.27-12.46.11-25-1.24-37.36-1-9.72-2.52-19.51-3.88-29.2a272 272 0 0 0 -6.83-33c-1.18-4.4-2.12-8.87-3-13.35-.26-1.4-.56-2.94-1.7-3.43-3.89-1.64-3.33-6.11-2.92-7.92 1.82-8-2.1-14.92-3-22.34-1.31-11-5.11-21.5-5.5-32.63a8.11 8.11 0 0 0 -.32-2c-.67-2.34-3.92 1.24-4.16-1.69-.17-2.19 4-.55 3.37-3.11-1.58-6.37 2.67-13.18-2.27-19.53-1.89-2.43.19-6.65 1.66-9.8 2.5-5.35 6.55-9.49 10.78-13.46 5.19-4.88 8.23-11 10.55-17.63 4.64-13.12-9.85-22.2-19.67-20.47-1.59.28-1.73 1.65-2.76 2.31-1.24.78-2 2.28-3.78.92-2.06-1.54-3.51.52-4.72 1.47-3.64 2.84-6.87 6.11-8.28 10.78-.38 1.26-1.35 3.79-2.61 2.72-2.1-1.77-6.58 1-6.77-3.64-.11-2.87-2.25-4.73-3.35-7.09-2-4.32-15.69-11.05-19.84-10-6.72 1.72-8.94 7.8-11.48 13.11-1.21 2.54-1.54 3.11-3.32.95a43.42 43.42 0 0 0 -17.21-12.4c-8.1-3.39-16 1.48-15.73 10.21.1 3.24-.89 6.61 1 10-8-7.57-17.58-11.86-27.06-16.35a3.86 3.86 0 0 0 -.18-1.47c-4.87-8.23-10.21-16.23-14.56-24.73-3.63-7.11-10.34-12.76-10.59-21.55a2.77 2.77 0 0 0 -1.18-2.1c-6.18-2.56-7.37-8.87-10.33-13.77-4.63-7.65-5.83-16.65-9.19-24.82l10.29-12a19.74 19.74 0 0 1 2.68 2.9c4.94 8.12 10.49 15.82 15.07 24.23 7.06 13 15.17 25.37 22.18 38.43 2.68 5 5.26 10.43 9.92 15.9-3.47-12.12-7.36-22.76-10.6-33.55-2.7-9-9.27-17.25-7.15-27.56 0-.27-.59-.92-1-1-2.12-.41-2-2-2.51-3.64-1.42-4.5-3.93-8.72-4.9-13.29-1.34-6.22-5.35-11.41-6.16-17.73a26.82 26.82 0 0 1 8.13-4.8 30.07 30.07 0 0 1 2.21 7.53 25.44 25.44 0 0 0 3.08 8.79 280.62 280.62 0 0 0 24.84 32.69c5.54 6.41 13.74 12.17 9.07 22.83a2.8 2.8 0 0 0 0 1.49c1 5.34 1.84 10.73 3.11 16 1.08 4.46 3.19 7.83 8.39 9.25 6.56 1.8 12.21 4.54 19.8 2.08 6.1-2 12.68-2.73 18.49-5.91 1-.53 2.21-.65 2.72-1.92 1.89-4.65 2.65-9.56 3.62-14.46 2.78-14 2.69-28.58 8.73-42 4.35-9.71 6.87-20.16 11.26-30 4.63-10.35 4.78-21.2.38-32.14-3.2-7.93-8.3-14.36-13.54-20.82 2-.69 4.34-.95 6-2.14 7.33-5.3 16.42-6.64 24.14-11 1.58-.9 3.64-2 5.13-.81 1.72 1.34.72 3.74.59 5.67a13.66 13.66 0 0 1 -1.1 3.72c-3.71 10.17-3.73 20.89-4.26 31.45-.63 12.46 4.52 23.78 8.65 35.21 1.52 4.21 4.4 5 8.05 2.07 10.8-8.66 19.89-19.25 31.14-27.45 8.32-6.06 16.3-12.66 25.65-17 8.73-4.09 17.52-8.08 26.47-11.7 2.88-1.17 5-1.32 7.33.13 9.09 5.58 19 9.81 27.3 16.69s16.51 13.8 24 21.6c3.08 3.23 5.65 7.11 9.18 9.72 7.1 5.23 12.37 11.92 17.38 19 .8 1.13 1.17 3 3.23 2.45-.15 2.62 1.72 4.62 2.14 7.06 2.38 14.08 10.31 25 20.76 33.91s23.06 15.52 36.17 20c10.66 3.65 21.79 6.78 33.46 4.37 4.18-.87 8.44-1.34 12.66-2-3.74 8.4-9.21 15.77-14 23.57a25 25 0 0 0 -11.64 4.24c-1.62 1.06-4.23 1.85-1.9 4.69.64.78-.2 1.62-.85 2.05-1 .63-1.26-.63-1.81-.84-3.43-1.31-4.35-4.81-6.43-7.22-2.62-3-5.39-5.09-9.45-5.61-2.06-.27-4-1.34-6-2.06-7-2.52-12.88-.32-16.46 6.15-3.24 5.84-3.18 5.77-8.58 1.42-4.36-3.52-9.77-4.57-15.08-5.35-2.37-.35-3.92-3.12-6.89-1.66-4.21 2.06-6.44 5-6.9 9.77-1.5 15.42 3.37 28.89 12 41.29 1.83 2.62 2.86 4.37.6 8-2.12 3.35-.54 8.35-1.59 12.6-2.18 8.91-3.85 17.94-6 26.86-4.25 17.87-9.14 35.59-12.83 53.57-2.55 12.43-6.47 24.51-8.4 37.08-2 13.33-5.54 26.39-7 39.85-1.23 11.62-4.15 23.08-3.81 34.86.36 12.66.72 25.35 5.94 37.26a58.26 58.26 0 0 0 10.85 16.35c-19.57 5.76-40 3.57-60 6.7-13.81 2.16-27.94 2.45-42 2.61-17.56.1-35.09 2.3-52.7 1.7zm95.83-375.07v7.49c0 3.83 1.93 4.23 5.16 3.05a120.4 120.4 0 0 0 13.61-6.39 240.5 240.5 0 0 1 30.48-13.17c3.88-1.37 7.41-6.44 5.52-8.41-2.49-2.61-3.93-6.49-8.17-7.45a27.84 27.84 0 0 1 -7-3.08c-11.58-6.43-23.1-13-34.67-19.41-3.29-1.83-5.53-.56-5.11 3.16.42 3.57-1.23 6.82-.87 10.34.25 2.39-1.74 1.76-3.15 1.92-5.46.64-10.85-.82-16.23-.7-9.4.2-18.78 1.09-28.17 1.71-9.58.64-19.23.8-28.72 2.09-12 1.63-24.2 1.67-36.1 4.53-3.35.8-5.17 2.24-5.44 5.21-.36 3.94-1.45 7.76-1.24 11.81.33 6 1.35 7.53 7.23 7.25 9.22-.44 18.44-1 27.61-2 7.72-.86 15.57-.91 23.15-2.27 10.92-2 22-2.7 32.93-4.21a116.06 116.06 0 0 1 22.57-.64c6.63.39 6.66-.09 6.59 6.67zm-268.44-30.62c.25-.87-.25-1.11-.71-1.13a3.11 3.11 0 0 0 -1.18.42c.28.34.51.85.87 1s.77-.21 1.02-.29z" fill="#fdccc7"/><path d="m387.84 778.77c-6.59 2.21-11.56 7.26-17.78 10.13a18.43 18.43 0 0 1 .06-3.49c3-15 5.88-30 9.27-45a224.31 224.31 0 0 0 5.07-57.9c-.78-22.4-2.41-44.79-6.82-66.82-2.66-13.28-5.77-26.51-11.57-38.89a88.87 88.87 0 0 1 -6.66-19.21c-1.13-5.33-1.7-10.78-2.41-16.19-.21-1.62-.55-3-2.35-3.33a3.92 3.92 0 0 0 -4.11 1.1c-7.25 8.47-8.33 18.94-8 29.21.36 11.18 2.45 22.29 4.28 33.38q3.75 22.74 5.4 45.79c1.32 18.45 2.5 36.9 2.2 55.41a166.92 166.92 0 0 1 -4.6 36.24c-2.57 10.68-5.39 21.34-6.71 32.23a170 170 0 0 0 0 41.63c-22.59 24.68-32.75 55.11-40.21 86.8-3.49-9.63-4.2-20-7.87-29.58-9.22-24.2-14.66-48.92-11.16-75.17 2.64-19.8 8.29-38.71 15.31-57.22 6-15.72 13.56-30.84 16.23-47.69 2.64-16.65 5.69-33.21.68-50-1.85-6.21-6.07-9.8-11.24-12.64-2.46-1.35-5.61 1.26-4.46 3.71 1.87 4 1.48 7.73.69 11.85-1.72 9-2.58 18.21-4.5 27.18-4.62 21.59-13.87 41.5-23.09 61.38-7.56 16.31-13.69 33-17.3 50.73-5.06 24.89-4.42 49.34 3.31 73.56 3.52 11 7.43 21.91 10.32 33.18 2.13 8.3 2.29 16.78 3.74 25.12.38 2.16.12 4.54 1.19 6.68-4.09 1.88-3 6-2.49 8.6.84 4.27-3.93 7.79-.94 11.93-3.87 5.75-4.09 12.79-6.58 18.89-4.1 10.08-5.87 20.43-6.93 31-1 10.14.69 19.81 4.21 29.41 1.44 3.91 3.85 7.56 4.2 11.87-5.11-1.76-10.7-1.53-15.58-4.51a64.81 64.81 0 0 1 -25.37-28.74c-6.84-14.85-6.91-30.53-5.65-46.61 1.41-18 6.77-35.15 10.73-52.56 3.74-16.49-1-30.44-8.82-44.32-8.46-15.05-16.32-30.39-14.52-48.55.7-7 2.93-13.77 4.59-20.61.6-2.48 2.38-4.86.6-7.56-.23-.35-.23-1.28 0-1.42 5.8-3.73 6.19-10.47 8.52-16 7.65-18 16.81-35.35 24.37-53.39 7.25-17.29 13.16-34.91 15.2-53.86 1.61-15 1.28-29.85.55-44.73-.62-12.67-1.13-25.36-2-38a223.91 223.91 0 0 1 .12-33.67c1.09-14 4.23-27.55 8.15-41a120.43 120.43 0 0 1 17.35-35.43c6.37-9.06 15-16.44 23.67-23.59 8.42-7 16.87-13.91 24.92-21.3a214 214 0 0 0 26.89-29.12 146.46 146.46 0 0 0 21.16-40.4c5.75-16.64 7.61-34.33 14-50.76 6.83-17.64 16.77-32.86 31.62-45.31 10.54-8.85 22.29-15.43 33.75-22.61a60 60 0 0 1 9.37-4.42c7.26-2.9 13.7-7.74 21-10.05 6.77-2.15 13.52-4.57 20.43-6.36 3.06-.79 6-1.82 8.15-4.4.65-.79 1.21-1.54 2.46-.9 2 1 3.85.25 5.77-.42a157.54 157.54 0 0 1 22.21-6.05c11-2.12 21.68-5.78 33-7 7.75-.84 15.67-1.61 23.39-3 5.1-.94 10.12-.08 15.15-.25a135 135 0 0 1 22.44.73c8.37 1.1 15.57 4.52 22.85 8.28s14 8.38 20.87 12.93c10.35 6.89 21.19 12.94 33.44 16.28 13.84 3.78 27.75 7.27 41.77 10.22 10.79 2.28 21.15 5.9 31.7 8.9 7 2 12.79 6.42 19.93 7.92 2.34.5 4 3.64 7.35 3.7.21-2.57-1.41-4.05-3.15-5.53 2.52-.33 5.17-2 4.66 3.06-.37 3.66 4 5.07 6.46 6.91 4.08 3.06 8.33 6.33 13.48 7.45 2.31.5 2.35 3.71 4.95 3.36l-.15.04c7.72 5 13.67 12.78 23.14 15.06 1.93.47 2.21 2.49 3.1 3.51 8.39 9.65 18.59 17.64 26 28.06 7 9.83 12.57 20.41 13.73 32.77a219.73 219.73 0 0 1 .92 32.84c-.91 16.42-1.06 32.83-.88 49.25.29 26.65 8 51.22 21.76 73.88 8.45 13.88 19.18 26 30.1 38 15.29 16.79 29.31 34.48 38.6 55.46a36.38 36.38 0 0 1 2.55 11.49c1.62 16.93-2.15 33-7.22 48.94-4.27 13.39-10 26.28-13 40.1a99.91 99.91 0 0 0 -.34 39c3.28 18.53 10.64 35.76 17.79 53 4.25 10.25 10.06 19.84 13.25 30.52 3.41 11.39 1.34 22.06-4.26 32.41-6.9 12.75-17.28 22.84-25.6 34.48-8.45 11.81-12.7 24.62-11 39.43 1.05 9.21 1.87 18.52 1.34 27.86-1 17.37-6.63 33.1-16.16 47.54a94.93 94.93 0 0 1 -21.5 23.55c-2.4 1.82-4.75 3.55-8.06 4.29-.81-3.84 1.11-7.29 1.94-10.69 3.61-14.71 7.29-29.45 9.34-44.42 3-21.81 2.79-43.68-1.86-65.37-.93-4.32-2.72-8.5-2.4-13.06a221.87 221.87 0 0 0 2.86-60.45c-1.34-15.75-2.14-31.61-3.14-47.45-.59-9.87-.79-19.78-1.47-29.65q-1.6-23.13-3.66-46.25c-.63-7.16-1.69-14.27-2.55-21.41a3.87 3.87 0 0 0 -3.55-3.56c-1.88-.33-3.67-.2-4.75 1.79-2.67 4.93-5.77 9.6-7.12 15.24-4.41 18.43-5.56 37.2-5.87 56-.42 26 0 52.09 2.77 78 .33 3.13 1.2 6.58-.73 9.65-9.38-12.88-20.73-23.91-32.93-34-4.18-3.47-8-7.65-13.3-9.71-2.17-11-6.94-20.81-13-30.11-.16-4 1.47-7.78 2.15-11.69 4.05-23.52 11.41-46.23 17.64-69.19 4.81-17.74 9.25-35.51 11.16-53.75a102.38 102.38 0 0 0 -5.16-45.48c-1.78-5-3.77-10.52-10.41-11.92-3.64-.77-6 .41-6.21 4.22-.12 3 .54 6 .5 8.9-.23 21.12-4.33 41.79-9.07 62.2-4.44 19.5-10.44 38.63-16.44 57.65-4.18 13.12-6.91 26.52-10 39.88-8.23-2.95-16.38-6.17-24.72-8.75-8.19-2.53-16.75-3.15-25.31-3.36 2.07-13.89 5.65-27.47 9.13-41 2.56-9.95 5.28-19.87 4.68-30.16-.21-3.62 1.38-10.57-6.87-8.84-.43.08-1.24-.58-1.52-1.08-2.61-4.61-4.17-1.45-5.34.87-5 10-9.79 20.24-14.89 30.25-4.44 8.74-6.35 18.34-9.45 27.51a84.7 84.7 0 0 0 -4.71 25.23 16.45 16.45 0 0 1 -7.71-3.24c-7.45-5.46-15-10.73-22.46-16.25-8.85-6.6-17.44-13.49-24.22-22.39-4.82-6.33-5.89-13.83-7.47-21.19-.24-1.09-.74-2.68 1.08-3.38 5.12-2 10.06-4.6 15.33-5.9 10.83-2.67 21.37-6.62 29.86-13.41 12.29-9.83 24.27-20.17 34.69-32.21 12.16-14.06 22-29.55 31.1-45.65 6.31-11.18 13.29-22 17.89-34.06 1-2.54 2.35-3.6 5.53-2.95 3.68.76 7.6.34 11.41.39 10.32.15 19.88-3.13 28.92-7.51 4.26-2.06 9.71-1.48 12.91-6a86.23 86.23 0 0 1 7.4-8.39 21.6 21.6 0 0 0 2.72-26.72c-7.17-11.83-29.18-20.21-43.8-16.32-3.48.92-4.38.51-4.2-3.08a179.28 179.28 0 0 0 -8.87-65.45c-2.54-7.77-4.14-15.94-8.18-23.16-8.46-15.11-21.43-25.13-36.65-32.89-12.93-6.58-26.7-9.94-40.75-12.71-6.26-1.24-12.56-2-18.88-2.8-2.78-.36-3.68 3.29-6.7 1.76-5.13-2.61-10.7-.56-15.53.67a301.94 301.94 0 0 1 -30.27 6 263.51 263.51 0 0 0 -39.83 9.36c-18.06 5.63-35.85 12.07-54 17.31a94.35 94.35 0 0 1 -25.35 3.48c-14 .11-27.43-4.12-41.09-6.56-5.92-1.06-11.94-1.74-18-.67a69.15 69.15 0 0 0 -29.67 13c-11.47 8.44-19.73 18.71-23.66 31.95a287.41 287.41 0 0 0 -8 35c-.93 5.71-1.51 12.06.22 18.17.62 2.22.72 5.39-4.05 4.58a29.45 29.45 0 0 0 -18.85 2.8c-12.64 6.69-19.92 16.92-22.64 31.41-1.22 6.52-.68 11.86 2.26 16.9 3.08 5.26 8.51 7.9 14.44 9.76a85.28 85.28 0 0 0 29.72 4.1c3.77-.18 5.44 1.22 6.53 5s1.18 7.7 2.32 11.41a140.37 140.37 0 0 0 11.14 26.12c7.1 13 16.31 24.39 25 36.25a143.6 143.6 0 0 0 33.48 33.26c16.75 11.72 36.1 18.11 55.59 23.75 4 1.16 5.22 2.69 3.89 6.53-2.8 8.07-4.84 16.51-13.83 20.55-2.28 1-3.8 3.66-6.79 3.65-.44 0-1.81.17-1.27.9 2.48 3.36-1 3-2.28 3.54-4.61 1.83-9.53 3-13.06 6.88a3 3 0 0 1 -1.32.68 170.17 170.17 0 0 0 -27.16 10.31c-4.68 2.26-10.79 2.11-13.66 7.63-4.9-2.27-8.23 2.32-12.49 2.86-6.25-3-13.16-3.65-19.71-5.6-.12-8 1.21-15.92 2.45-23.64 1.66-10.37 2.93-20.65 2.49-31.08-.35-8.48-2.05-16.76-8.2-23.26-1.75-1.84-4.07-4.43-6.71-3-2.19 1.18-2.53 4.12-1.3 6.73.17.37-.13 1-.22 1.44-1.94 10.87-3 21.87-6.15 32.57-4.21 14.25-7.81 28.7-9.35 43.56-7 3.23-14 5.89-20.56 10.34-5.95 4-11.46 7.91-15.55 13.9a71.67 71.67 0 0 0 -8.09 16.26z" fill="#cdcde5"/><path d="m777 744.7c8.56.21 17.12.83 25.31 3.36 8.34 2.58 16.49 5.8 24.72 8.75 5.53 1.78 10.13 5.08 14.89 8.33 4.44 3 6.75 7.89 11 10.91 6 9.3 10.8 19.14 13 30.11v20.31c-2.46 6.7-3.28 13.85-6 20.53-1.72 4.2-5.65 7.19-6.13 12l-.76.76a2.81 2.81 0 0 0 -2 2.25v-.08c-3.35.63-4.51 3.18-5.29 6.06l-.68.78-1.14 1.23v-.1l-1.06 1c-1 .65-2.16 1.24-1.93 2.76l-4.02 3.34.08-.07-1.08 1.07.08-.08-1.08 1.08.05-.09a119.49 119.49 0 0 1 -21.96 12.15c-4.22.64-8.48 1.11-12.66 2-11.67 2.41-22.8-.72-33.46-4.37-13.11-4.47-25.57-10.94-36.17-20s-18.35-19.84-20.71-33.92c-.42-2.44-2.29-4.44-2.14-7.06-.06-6.8-.15-13.57.87-20.38 2.22-14.81 11.42-25.93 19.19-37.84l10.6-10.49c4.72-1.41 8.23-5 12.59-7.05 8.53-2.72 16.66-6.95 25.89-7.25zm2.66 92.13c-2.26-1.2-4.16-2.91-4.75-5-1.29-4.46-4.11-8-7-11.18-5.07-5.72-9.12-13.41-18.67-12.65-1.69.14-4.18-1.17-4.89 1a5.85 5.85 0 0 0 2.12 6.21 27.29 27.29 0 0 1 6.27 8.15c5.62 10.25 14 18.55 19.59 28.76a18.69 18.69 0 0 0 5.13 5.21c2.15 1.65 4.2 2.39 7.42 1 4.42-1.88 4.68-6 5.92-9.08 6.33-15.85 13-31.35 24.63-44.3 6.92-7.71 12.92-16.2 20.93-23 3.94-3.33-.82-4.79-2.37-5.5-3-1.34-6.63-1.64-9.42.64-7.1 5.83-14.41 11.47-19.92 19-9.41 12.91-18.13 26.28-25.02 40.74z" fill="#fa5746"/><path d="m266.22 1032.71c-.35-4.31-2.76-8-4.2-11.87-3.52-9.6-5.23-19.27-4.21-29.41 1.06-10.62 2.83-21 6.93-31 2.49-6.1 2.71-13.14 6.58-18.89-3-4.14 1.78-7.66.94-11.93-.51-2.61-1.6-6.72 2.49-8.6-1.07-2.14-.81-4.52-1.19-6.68-1.45-8.34-1.61-16.82-3.74-25.12-2.89-11.32-6.82-22.21-10.32-33.21-7.73-24.22-8.37-48.67-3.31-73.56 3.61-17.71 9.74-34.42 17.3-50.73 9.22-19.88 18.47-39.79 23.09-61.38 1.92-9 2.78-18.16 4.5-27.18.79-4.12 1.18-7.83-.69-11.85-1.15-2.45 2-5.06 4.46-3.71 5.17 2.84 9.39 6.43 11.24 12.64 5 16.82 2 33.38-.68 50-2.67 16.85-10.26 32-16.23 47.69-7 18.51-12.67 37.42-15.31 57.22-3.5 26.25 1.94 51 11.16 75.17 3.67 9.62 4.38 19.95 7.87 29.58-5.12 19.54-7.28 39.5-9 59.59-2 23.13-.62 46.13 1.54 69.12.27 2.8-.73 3.11-2.67 3.49-8.77 1.73-17.67 1.4-26.55.62zm49.56-352.14c-.67-2.66-1-5.21-3.26-7.69.9 6.86.9 6.86 3.26 7.69z" fill="#9b81ea"/><path d="m387.84 778.77a71.67 71.67 0 0 1 8-16.28c4.09-6 9.6-9.85 15.55-13.9 6.61-4.45 13.61-7.11 20.61-10.34 8.85-2.36 17.77-4.06 27-3.3 6.55 1.95 13.46 2.59 19.71 5.6 4 2.57 6.18 7.17 10.33 9.62 5.24 6.46 10.34 12.89 13.54 20.82 4.4 10.94 4.25 21.79-.38 32.14-4.39 9.81-6.91 20.26-11.26 30-6 13.47-6 28-8.73 42-1 4.9-1.73 9.81-3.62 14.46-.51 1.27-1.75 1.39-2.72 1.92-5.81 3.18-12.39 3.94-18.49 5.91-7.59 2.46-13.24-.28-19.8-2.08-5.2-1.42-7.31-4.79-8.39-9.25-1.27-5.29-2.1-10.68-3.11-16a2.8 2.8 0 0 1 0-1.49c4.67-10.66-3.53-16.42-9.07-22.83a280.62 280.62 0 0 1 -24.74-32.57 25.44 25.44 0 0 1 -3.08-8.79 30.07 30.07 0 0 0 -2.21-7.53c-.68-6.09 1.13-12.05.86-18.11zm66.16 104.4 3.92-.32c1.39-.46 2.77-1 4.19-1.38 5-1.3 6.23-6 5.81-9.51-.68-5.81-5-2.36-8-1.67-17.27-1.6-12.74-.17-11.56 9 0 .26.41.48.63.71-.1 3.9 1.56 5 5.01 3.17zm8.58-32.62c2.24.11 2.52-1.28 3.23-2.06 3.4-3.74 4.33-8.71 6.49-13.07 3-6 7-11.56 9.57-17.73 4-9.7 7.4-19.68 8.59-30.22s-1.27-20.29-9.36-27.37c-10.7-9.36-23.51-10.68-37.16-8-8.65 1.69-16.89 4.37-22.48 11.27-13.38 16.53-14.68 34.94-6.2 54 4.09 9.19 10 17.22 19.39 22.67-1-7.59-1.84-14.62-2.8-21.64-.92-6.81-1.95-13.6-2.88-20.41-.17-1.29-.39-2.79.93-3.64s2.55 0 3.68.74c3.25 2 3.91 6.29 7.6 8.65-.28-2.23-.87-4.16-.68-6 .35-3.31 1.18-6.89 5.06-7.59 3.62-.65 6.19 1.23 7.4 4.94a15.51 15.51 0 0 1 .35 7.38c-.15 1.08-2.42 2.47 0 3.62 1.7.79 3.21 1.43 5.09.14 2.21-1.53 4.52-2.69 4.61-5.94.1-3.48 3.2-4.64 5.62-6 .82-.47 3.82-.75 2.65 1.65-1.46 3-.95 6.14-1.69 8.89a182.27 182.27 0 0 0 -5.34 30.84c-.41 4.88-.89 9.87-1.65 14.88zm-23.92-35.74a7.87 7.87 0 0 1 1.39 4.09 194.89 194.89 0 0 0 6.65 30.83c1.37 4.48 4.43 3.16 7.11 3.21 3.55.07 1.77-2.67 1.93-4.35.08-.81.09-1.63.2-2.44 1.39-10.29 2.83-20.57 4.14-30.87.14-1.14 1.91-4-1.4-3.09-6.59 1.81-13.59-.68-20 2.62zm-10 49.71-.35-.2v.32z" fill="#fa5847"/><path d="m828.92 1077.07c-12.13-1.33-24.24-2.78-36.38-3.94-6.42-.61-12.87-.23-19.35-.93-15.65-1.68-31.41-1.15-47.13-1.31-3.69 0-7.48.34-11.09-.93 1.07-10.65 4.15-20.84 7.13-31 1.42 1.17 3.15.78 4.76 1 5.21.59 7.09-1 7.13-6.18a64.86 64.86 0 0 1 2.28-17.51c2-7.15 1.21-8.36-6-10.81-.13 0-.19-.26-.29-.39 1.65-9.92 3.34-19.83 4.92-29.76.39-2.42 1.62-2.14 3.12-1.25 6.2 3.69 13.11 2.9 19.86 3.19a38.77 38.77 0 0 1 4.32.85c8 1.27 15.93 3 24.1 2.06a2.72 2.72 0 0 1 1.48.11 23 23 0 0 0 13.5 1.87c2.69-.35 4.07.49 5.33 3.55 1.89 4.59 3.57 9.36 6.23 13.78a14.51 14.51 0 0 1 1.43 10.09c-1.31-.17-2.64-.28-3.93-.54-5-1-5.21-.69-4.46 4.29 1.12 7.5 2.18 15 3 22.53.55 4.75 2.55 7.37 7.67 6.29 1.92-.41 3.49.84 5.3.86 1.73 5.22 4.1 10.33 5 15.68s1.33 10.61 2.93 15.77c.28.66-.53 1.72-.86 2.63zm-72-51.89c.34-4.24.87-8.62.94-13 0-1.78 1.58-4.9-2-5.06-3-.14-6.47-.52-7.47 3.8-2 8.59-4.12 17.14-6.19 25.71-.4 1.67.21 2.25 2 2.53 12.67 2 13.08 1.72 13-10.82-.02-1.01-.2-2-.2-3.16zm39.45 14.72c.33-1.18 3.62 2.09 3.45-1.26-.25-5-1.85-9.82-2.42-14.83-.49-4.34-2-9.29-3.39-13.89-.39-1.36-.83-2-2.22-2-1.62 0-1.74 1.19-1.8 2.4a251.56 251.56 0 0 1 -2.92 27c-.11.7-.67 2.32 1 2 2.78-.58 5.04 1.62 8.33.58zm-20.21-27.17c-.23-2.27.55-5.28-2.38-5.93s-3.5 2.45-3.6 4.32c-.42 8.1-1.92 16-3.2 24-.21 1.3-.72 3.43 1.37 3.69 2.58.31 5.29.85 7.83-.22.67-.29.21-1.14.07-1.77-1.76-8.01-1.1-16.05-.06-24.09z" fill="#9b81ea"/><path d="m343.11 813.1a170 170 0 0 1 0-41.63c1.32-10.89 4.14-21.55 6.71-32.23a166.92 166.92 0 0 0 4.6-36.24c.3-18.51-.88-37-2.2-55.41q-1.65-23-5.4-45.79c-1.83-11.09-3.92-22.2-4.28-33.38-.33-10.27.75-20.74 8-29.21a3.92 3.92 0 0 1 4.11-1.1c1.8.37 2.14 1.71 2.35 3.33.71 5.41 1.28 10.86 2.41 16.19a88.87 88.87 0 0 0 6.66 19.21c5.8 12.38 8.91 25.61 11.57 38.89 4.41 22 6 44.42 6.82 66.82a224.31 224.31 0 0 1 -5.07 57.9c-3.39 14.92-6.24 30-9.27 45a18.43 18.43 0 0 0 -.06 3.49c-9.65 7.28-18.14 15.9-26.95 24.16z" fill="#9b81ea"/><path d="m521.21 1078.61c-5 .64-10-.69-14.74-.23-9.14.91-18.22.07-27.3.63-9.5.59-19 1.57-28.47 1.92-12.78.48-25.24 3.07-37.8 5.09a32 32 0 0 0 -3.79 1.09c2.23-9.81 4.24-19.69 7.92-29.11a11.24 11.24 0 0 1 6.58-1.88c5.26.56 8.51-.22 6.47-6.6-.18-.56.32-1.3.27-1.94-.49-6.4 3-12.16 2.88-18.54-.06-2.56-.44-4.19-3.32-4.2 2-8.51 4.06-17 5.83-25.54.5-2.38 1.18-3.51 3.76-3.34 3.54.23 6.83-1.17 10.18-2.07a52.71 52.71 0 0 1 22.57-1.51c3.87.65 8-.78 11.82-2 7-2.17 14.09-4.31 21.09-6.6 1.48-.48 2.54-.94 2.9 1.09.68 3.81 1.87 7.42 1.37 11.55-.59 4.79.25 9.76.47 14.65-7.13 1.35-8.2 2.79-6.49 9.51a19.63 19.63 0 0 1 .5 4.86c.07 7.21 0 14.44.37 21.63.16 2.64.43 6.33 5.27 4.37 1.89-.77 4.24-.4 6.38-.55a204.74 204.74 0 0 1 5.28 27.72zm-42.21-48.61h-.17c0 2.49-.65 5.21.14 7.41 1.59 4.44-4.87 7.71-1.06 12.85 1.21 1.63 1.62 2.75 3.6 2.76 3.31 0 6.62-.08 9.93 0 1.92 0 2.37-.82 2.6-2.66.44-3.55-.8-6.84-1.15-10.26-.72-7-2.42-13.85-1.87-21 .12-1.55.27-2.92-2.66-2.47-9.13 1.4-9.17 1.14-9.36 10.37zm-18-3a36.68 36.68 0 0 0 -.57 4.22 111.59 111.59 0 0 1 -2.28 17.65c-.33 1.53-1 4 1.7 4.45a67.78 67.78 0 0 0 10 .69c.41 0 1.44-1.71 1.17-3-.23-1.14-.41-2.28-.6-3.43-1.35-8-3.2-16-2.14-24.11.55-4.28.26-4.87-3.87-4.06s-3.62 3.59-3.41 7.59zm-19.38 28c2.2-.31 4.31-.77 6.44-.87 2.62-.12 3.92-1.57 3-4.14-2.87-8.15-2-16.56-1.79-24.91 0-1.37 1.45-3-1.27-3.1-2 0-4-.38-4.07 2.8a38.33 38.33 0 0 1 -1.07 8.33c-1.4 5.87-1.13 12.08-3.62 17.73-.44 1-2.29 1.41-1.11 3.18.99 1.51 2.33.71 3.44.98z" fill="#9b81ea"/><path d="m912.09 849.89c1.93-3.07 1.06-6.52.73-9.65-2.74-26-3.19-52-2.77-78 .31-18.83 1.46-37.6 5.87-56 1.35-5.64 4.45-10.31 7.12-15.24 1.08-2 2.87-2.12 4.75-1.79a3.87 3.87 0 0 1 3.55 3.56c.86 7.14 1.92 14.25 2.55 21.41q2 23.11 3.66 46.25c.68 9.87.88 19.78 1.47 29.65 1 15.84 1.78 31.7 3.15 47.5a221.87 221.87 0 0 1 -2.86 60.42c-4-4.94-4.68-11.4-7.62-16.86-5.84-10.89-11.79-21.65-19.6-31.25z" fill="#9b81ea"/><path d="m845 868.72.68-.78c3.81-.22 4.25-3.4 5.29-6.06v.08c1.59.07 2.18-.75 2-2.25l.76-.76c2.42.28 3.61-1.57 4.69-3.09 5.1-7.21 12.42-12.06 18.74-18 4 3.44 6.71 8 9.94 12-11.32 13.32-21.6 27.5-33.11 40.68-8.33 9.54-16.22 19.47-24.23 29.3-.9 1.11-1.23 2.67-1.83 4-1.65 2.28-4 2.76-6.64 3.26-2.1.39-2.43-.29-2.77-1.82-1-4.63-3.72-7.39-8.56-8.08-1-.13-2.44.19-3-1.22 6.59-9 12.93-18.24 20.53-26.56 2.82-3.09 7.14-5.59 7.5-10.6l-.05.09 1.08-1.08-.08.08 1.06-1.01-.08.07c2.38.14 4.09-.54 4.05-3.34-.23-1.52.9-2.11 1.93-2.76 1.58 1 .93-.4 1.06-1v.1z" fill="#fdccc7"/><path d="m848.06 270.05.26-.56v.26a1.8 1.8 0 0 1 -.35.24z" fill="#cdcde5"/><path d="m461.38 213.63c.36.34.57.72 0 1.05-.08 0-.42-.29-.64-.45z" fill="#cbefec"/><path d="m489 750.17c-4.15-2.45-6.3-7-10.33-9.62 4.26-.54 7.59-5.13 12.49-2.86 2.87-5.52 9-5.37 13.66-7.63a170.17 170.17 0 0 1 27.18-10.31 3 3 0 0 0 1.32-.68c3.53-3.89 8.45-5.05 13.06-6.88 1.27-.51 4.76-.18 2.28-3.54-.54-.73.83-.9 1.27-.9 3 0 4.51-2.62 6.79-3.65 9-4 11-12.48 13.83-20.55 1.33-3.84.12-5.37-3.89-6.53-19.49-5.64-38.84-12-55.59-23.75a143.6 143.6 0 0 1 -33.49-33.27c-8.67-11.86-17.88-23.29-25-36.25a140.37 140.37 0 0 1 -11.14-26.12c-1.14-3.71-1.23-7.62-2.32-11.41s-2.76-5.16-6.53-5a85.28 85.28 0 0 1 -29.72-4.1c-5.93-1.86-11.36-4.5-14.44-9.76-2.94-5-3.48-10.38-2.26-16.9 2.72-14.49 10-24.72 22.64-31.41a29.45 29.45 0 0 1 18.85-2.8c4.77.81 4.67-2.36 4.05-4.58-1.73-6.11-1.15-12.46-.22-18.17a287.41 287.41 0 0 1 8-35c3.93-13.24 12.19-23.51 23.66-31.95a69.15 69.15 0 0 1 29.67-13c6-1.07 12.07-.39 18 .67 13.66 2.44 27.06 6.67 41.09 6.56a94.35 94.35 0 0 0 25.35-3.48c18.19-5.24 36-11.68 54-17.31a263.51 263.51 0 0 1 39.79-9.42 301.94 301.94 0 0 0 30.27-6c4.83-1.23 10.4-3.28 15.53-.67 3 1.53 3.92-2.12 6.7-1.76 6.32.81 12.62 1.56 18.88 2.8 14 2.77 27.82 6.13 40.75 12.71 15.22 7.76 28.19 17.78 36.65 32.89 4 7.22 5.64 15.39 8.18 23.16a179.28 179.28 0 0 1 8.87 65.45c-.18 3.59.72 4 4.2 3.08 14.62-3.89 36.63 4.49 43.8 16.32a21.6 21.6 0 0 1 -2.72 26.72 86.23 86.23 0 0 0 -7.4 8.39c-3.2 4.56-8.65 4-12.91 6-9 4.38-18.6 7.66-28.92 7.51-3.81 0-7.73.37-11.41-.39-3.18-.65-4.56.41-5.53 2.95-4.6 12.07-11.58 22.88-17.89 34.06-9.09 16.1-18.94 31.59-31.1 45.65-10.42 12-22.4 22.38-34.69 32.21-8.49 6.79-19 10.74-29.86 13.41-5.27 1.3-10.21 3.92-15.33 5.9-1.82.7-1.32 2.29-1.08 3.38 1.58 7.36 2.65 14.86 7.47 21.19 6.78 8.9 15.37 15.79 24.22 22.39 7.42 5.52 15 10.79 22.46 16.25a16.45 16.45 0 0 0 7.71 3.24c-.06 2.27 3.22 2.17 3.15 4.45-4.36 2.07-7.87 5.64-12.59 7.05-3.34-3-7.75-4.14-12.14-7.3a60.82 60.82 0 0 1 1.52 17.81c-7.77 11.91-17 23-19.19 37.84-1 6.81-.93 13.58-.87 20.38-2.06.5-2.43-1.32-3.23-2.45-5-7-10.28-13.74-17.38-19-3.53-2.61-6.1-6.49-9.18-9.72-7.45-7.8-15.68-14.73-24-21.6s-18.21-11.11-27.3-16.69c-2.35-1.45-4.45-1.3-7.33-.13-9 3.62-17.74 7.61-26.47 11.7-9.35 4.38-17.33 11-25.65 17-11.25 8.2-20.34 18.79-31.14 27.45-3.65 2.93-6.53 2.14-8.05-2.07-4.13-11.43-9.28-22.75-8.65-35.21.53-10.56.55-21.28 4.26-31.45a13.66 13.66 0 0 0 1.1-3.72c.13-1.93 1.13-4.33-.59-5.67-1.49-1.17-3.55-.09-5.13.81-7.72 4.36-16.81 5.7-24.14 11-1.55 1.33-3.9 1.59-5.9 2.28zm213.35 53.22c3.72-2.87-1.23-8.9 4.09-11.24.36-.16.07-.89-.51-1-2.92-.81-2-3.25-1.79-5a164.31 164.31 0 0 0 .75-26.88 72.67 72.67 0 0 0 -3.8-21.36c-1-2.88-2.23-4.25-5.41-2.41-3.5 2-7.21 3.66-10.83 5.46a250.27 250.27 0 0 1 -26.37 10.93c-4.4 1.61-9.14 2.3-14.63 3.62 5.21 1.42 8.66 4.38 12.7 6.26 13.57 6.31 24.38 16 33.61 27.6 3.67 4.63 7.71 9 11.59 13.44-.19.25-.6.64-.54.73.42.59.79.26 1.15-.15zm-119.19-108.34c-2.44 8.33-9.1 12.87-16.06 17.29 5.17 5.26 8.88 11.22 14.37 15.74 13.13 10.81 26.58 19.24 45.07 16.18 14.33-2.38 28.59-4.35 42.05-10.14 7.28-3.14 14.66-6 21.68-10.47a60 60 0 0 1 -19.73-37c-.41-2.83-2.35-2.37-3.79-2.21-7.25.84-14.52.47-21.77.7-15 .49-29.74-2.17-44.61-3.31-3.45-.26-6.82-1.81-10.37-.74-1.93-1.3-4.7-.82-4.75.88-.14 4.47-2.72 8.53-2.09 13.08zm-103.16-297.8c-4 3.42-9.09 5.26-13 9-7.38 7-13.06 14.43-14.1 25.35-1.71 17.78-3.2 35.57-3.73 53.39-.42 14.25.84 28.53 2.72 42.72 2.5 18.79 6.34 37.15 16 53.75a206.61 206.61 0 0 0 24.94 34.54 149 149 0 0 0 44.85 34.22c7.78 3.84 15.31 8.17 24.17 10.22 9.81 2.27 19.87 2.89 29.56 5.61a40.27 40.27 0 0 0 7.5 1.4c2.77.18 5.74.21 8.65.42 10.1.71 20.16 2 30.32 2.19s20.38-.91 30.56-1.61c12.77-.87 25.43-2.72 37.13-7.76 21.86-9.4 38.77-25.2 53.4-43.67 9-11.4 15.21-24.52 22.91-36.71 4.11-6.51 6.42-13.9 10.24-20.48a185.46 185.46 0 0 0 12-24.7 144.53 144.53 0 0 0 6.3-21.35c1.24-5.38 3.8-10.8 3.37-16.19-.76-9.55 2.25-18.89.7-28.42a132.69 132.69 0 0 1 -1.49-15.58 219.22 219.22 0 0 0 -6-43.38c-2.31-9.2-6.61-17.55-14-23a106.55 106.55 0 0 0 -36.43-17.21c-16.69-4.38-33-7.56-50.55-4.26-21.53 4.05-43.29 6.68-64.07 14.17-12.54 4.52-25.36 8.21-38 12.44-11.29 3.78-22.86 6.58-34.72 6.3-4.46-.1-8.83.88-13.25.3-15.11-2-29.73-6.8-45.12-7.43-8.28-.34-16.29-.41-23.85 3.47-2.78-.62-4.36 2.39-7.01 2.26zm125.5 355.37c-11.36-2.34-21.1-6.1-30.08-12.45-7-4.93-13.58-10.32-18.16-17.71-1-1.69-2.06-3.28-4.26-1.84-4.25 2.78-8.87 5.24-9.83 11a23.66 23.66 0 0 1 -1.79 5.15c-7.35 17.48-8.26 35.83-7.44 54.43.12 2.56.94 3.62 3.25 1.9a70.15 70.15 0 0 0 8.53-6.86c10.98-11.12 24.57-18.24 38.28-25.24 6.81-3.45 14.16-5.95 21.54-8.38zm-170.69-234c1-8.42-1-16.37-.61-24.35.23-4.48-2.33-5.08-5.47-4.7-4.9.58-9.53 2.41-14.22 3.91-5.53 1.78-8 5.87-9.2 11.12-1.12 5-1.51 9.9.58 15 2.53 6.1 11.67 12.45 17.6 11.33 1.16-.23 2.9 0 3.33-1.55.38-1.31-1.11-1.86-1.83-2.72-2.13-2.53-5-4.38-6.63-7.37-1.36-2.53.14-7.28 2-6.58 4.75 1.73 10.58.91 14.49 5.88zm412.24-3.43c-1.87 5.14-6.13 7.64-8 11.77-.22.49-1.07 2.11-.15 1.81 2.35-.76 4.34 3.14 4.84 1.56 1.65-5.15 6.3-3.85 9.5-5.18 13.48-5.63 19.08-15.83 8.37-27.91-3.42-3.85-8.84-5.47-12.57-3a13.76 13.76 0 0 1 -7.19 2.25c-5.46.08-7 3.19-7.46 7.52s-2.48 8.51-2.19 14.77c4.63-7.51 9.8-3.31 14.89-3.62zm-15.7 3c0 .1-.17.21-.15.29.14.42.34.43.53 0 0-.07 0-.22-.12-.29s-.13.02-.22.01z" fill="#542cde"/><path d="m638 863.93v-2.5c.07-6.76 0-6.28-6.59-6.67a116.06 116.06 0 0 0 -22.57.64c-11 1.51-22 2.24-32.93 4.21-7.58 1.36-15.43 1.41-23.15 2.27-9.17 1-18.39 1.56-27.61 2-5.88.28-6.9-1.24-7.23-7.25-.21-4 .88-7.87 1.24-11.81.27-3 2.09-4.41 5.44-5.21 11.9-2.86 24.09-2.9 36.1-4.53 9.49-1.29 19.14-1.45 28.72-2.09 9.39-.62 18.77-1.51 28.17-1.71 5.38-.12 10.77 1.34 16.23.7 1.41-.16 3.4.47 3.15-1.92-.36-3.52 1.29-6.77.87-10.34-.42-3.72 1.82-5 5.11-3.16 11.57 6.44 23.09 13 34.67 19.41a27.84 27.84 0 0 0 7 3.08c4.24 1 5.68 4.84 8.17 7.45 1.89 2-1.64 7-5.52 8.41a240.5 240.5 0 0 0 -30.48 13.17 120.4 120.4 0 0 1 -13.61 6.39c-3.23 1.18-5.12.78-5.16-3.05-.02-2.49-.02-4.99-.02-7.49z" fill="#452887"/><path d="m121.85 743.43c3.46-1.56 4.37 1.52 6.82 3.32-3.46.54-5.19-.94-6.82-3.32z" fill="#cbefec"/><path d="m852.89 776.05c-4.25-3-6.56-7.88-11-10.91-4.76-3.25-9.36-6.55-14.89-8.33 3.08-13.36 5.81-26.76 10-39.88 6-19 12-38.15 16.5-57.59 4.74-20.41 8.84-41.08 9.07-62.2 0-2.91-.62-5.92-.5-8.9.16-3.81 2.57-5 6.21-4.22 6.64 1.4 8.63 6.93 10.41 11.92a102.38 102.38 0 0 1 5.16 45.48c-1.91 18.24-6.35 36-11.16 53.75-6.23 23-13.59 45.67-17.64 69.19-.69 3.91-2.32 7.64-2.16 11.69z" fill="#9b81ea"/><path d="m751.11 751.93c.07-2.28-3.21-2.18-3.15-4.45a84.7 84.7 0 0 1 4.75-25.26c3.1-9.17 5-18.77 9.45-27.51 5.1-10 9.85-20.21 14.89-30.25 1.17-2.32 2.73-5.48 5.34-.87.28.5 1.09 1.16 1.52 1.08 8.25-1.73 6.66 5.22 6.87 8.84.6 10.29-2.12 20.21-4.68 30.16-3.48 13.56-7.06 27.14-9.13 41-9.2.33-17.33 4.56-25.86 7.26z" fill="#9b81ea"/><path d="m459 735c-9.22-.76-18.14.94-27 3.3 1.54-14.86 5.14-29.31 9.35-43.56 3.16-10.7 4.21-21.7 6.15-32.57.09-.49.39-1.07.22-1.44-1.23-2.61-.89-5.55 1.3-6.73 2.64-1.41 5 1.18 6.71 3 6.15 6.5 7.85 14.78 8.2 23.26.44 10.43-.83 20.71-2.49 31.08-1.26 7.66-2.59 15.66-2.44 23.66z" fill="#9b81ea"/><path d="m727.9 769.49a60.82 60.82 0 0 0 -1.52-17.81c4.39 3.16 8.8 4.29 12.14 7.3z" fill="#fdccc7"/><path d="m315.78 680.57c-2.36-.83-2.36-.83-3.26-7.69 2.28 2.48 2.59 5.03 3.26 7.69z" fill="#cdcde5"/><path d="m457.94 882.85q1-6.29 2-12.56c3-.69 7.36-4.14 8 1.67.42 3.55-.81 8.21-5.81 9.51-1.42.38-2.8.92-4.19 1.38z" fill="#fdccc7"/><path d="m449 880c3.15-1.32 4.23.71 5 3.15-3.45 1.85-5.11.75-5-3.15z" fill="#fdccc7"/></g><path d="m416.63 839.5-.39.11.04-.32z" fill="#fdccc7"/><path d="m605.54 752.62c-7.38 2.43-14.73 4.93-21.57 8.4-13.68 6.93-27.27 14.1-38.21 25.27a70.15 70.15 0 0 1 -8.53 6.86c-2.31 1.72-3.13.66-3.25-1.9-.82-18.6.09-37 7.44-54.43a23.66 23.66 0 0 0 1.79-5.15c1-5.81 5.58-8.27 9.83-11 2.2-1.44 3.21.15 4.26 1.84 4.58 7.39 11.2 12.78 18.16 17.71 8.98 6.3 18.72 10.06 30.08 12.4z" fill="#9b81ea" transform="translate(-12.07 -25.03)"/><path d="m701.76 802.77c-3.88-4.47-7.92-8.8-11.59-13.43-9.23-11.64-20-21.29-33.61-27.6-4-1.88-7.49-4.84-12.7-6.26 5.49-1.32 10.23-2 14.63-3.62a250.27 250.27 0 0 0 26.37-10.93c3.62-1.8 7.33-3.45 10.83-5.46 3.18-1.84 4.41-.47 5.41 2.41a72.67 72.67 0 0 1 3.8 21.36 164.31 164.31 0 0 1 -.75 26.88c-.22 1.73-1.13 4.17 1.79 5 .58.16.87.89.51 1-5.32 2.34-.37 8.37-4.09 11.24-.19-.18-.36-.36-.6-.59z" fill="#9b81ea" transform="translate(-12.07 -25.03)"/><path d="m590 681c-2.33 4.29.06 9.41-4.21 13.36l1.87.65h-4.5c-.63-4.55 2-8.61 2.09-13.13.05-1.66 2.82-2.14 4.75-.88z" fill="#cdcde5" transform="translate(-12.07 -25.03)"/><path d="m487 395c.05 2.58-.11 5.29-3.27 5.73a3 3 0 0 1 -3.69-3.47c2.61.12 4.19-2.89 6.96-2.26z" fill="#cdcde5" transform="translate(-12.07 -25.03)"/><path d="m702.36 803.39c-.34.41-.73.74-1.14.12-.06-.09.35-.48.54-.74.24.23.41.41.6.62z" fill="#9b81ea" transform="translate(-12.07 -25.03)"/><path d="m717.93 526.07c-5.66 1-11.39-.65-17.1-2.22-6.75-1.85-9-5.56-7.2-12.68 3.07-12.54 10.89-22 20.34-30.27 10.31-9 23-12.88 36.1-13.54 12.74-.64 24.83 3.73 35.57 10.9a140.06 140.06 0 0 1 11.36 8.74c4.37 3.62 4.16 7 0 10.55-15.53 13.3-33.79 20.6-53.53 24.83-8.35 1.78-16.38 5.17-25.54 3.69zm27.58-14.26c7.35-3 13.46-5.17 19.34-7.89a97.46 97.46 0 0 0 11.5-6.72c5.65-3.63 5.28-7.46-.4-11.44a25 25 0 0 0 -18.67-4.5c-5.66.92-11.91-.73-17.38 3.17 12.1 1.99 15.1 13.19 5.61 27.38z" fill="#542cde" transform="translate(-12.07 -25.03)"/><path d="m600 428c.08 5.73 1.89 11.5-2.79 16.72-3.64 4.06-10.12 7.36-15.47 6.13a195.08 195.08 0 0 0 -44.09-5c-14.4 0-28.75.27-42.9 3.17-4.79 1-9.17 3.58-14.39 3s-5.73-1.26-3.4-5.93c3.19-6.39 9-9.77 14.71-13.29a133.85 133.85 0 0 1 52.85-18.56c15-2 30.18-4.06 45.28.65 7.89 2.52 10.2 4.79 10.2 13.11z" fill="#542cde" transform="translate(-12.07 -25.03)"/><path d="m678.71 432.33c0-7.16 4.23-12.68 9.77-17.92 12.06-11.4 26.78-11.3 41.71-10.36 16.62 1.05 32.75 4.33 47.24 13 5.14 3.08 10.11 6.7 12.65 12.61 1.68 3.92.13 6.4-4.3 6.3-4.77-.1-9.3-2.34-14.11-1.93-17.24 1.45-34.35 3.8-51.39 6.9-7.81 1.43-14.89 5-22.7 6.14a23.5 23.5 0 0 1 -14.82-2.32c-4.31-2.38-3.51-7.43-4.05-12.42z" fill="#542cde" transform="translate(-12.07 -25.03)"/><path d="m530 472.08c11.3 2.28 24.69 2.86 34.5 13.66 5 5.49 8 11.47 8.53 18.8.4 5.86 1 11.71-1.62 17.3-1.54 3.24-3 5.88-7.56 5.19-4.76-.71-7.76-2.18-9-7.36-2.37-9.59-5.46-19-13.38-25.82a6.73 6.73 0 0 0 -4.85-1.69c-13.14-.22-20.44 8-26.12 18.16a50.92 50.92 0 0 0 -5.33 13.68c-2.94 13.34-12.8 12.94-20.65 8.62-6.31-3.46-12.9-6.79-17.84-12.36-.56-.62-2.37-1.47-1.2-1.83 2.21-.67.39-4.92 4-3.81 4.32 1.32 9.28.79 12.62 4.81.66.81 1.64 1.86 3 1.11 1-.58.76-1.71.91-2.68a53.74 53.74 0 0 1 4.99-15.75c.7-1.4 1.13-3.16 3.3-3.22a1.92 1.92 0 0 0 1.38-1.18c1.06-6.48 4.72-12.48 11.4-16.92 6.44-4.32 12.92-9.13 22.92-8.71z" fill="#542cde" transform="translate(-12.07 -25.03)"/><path d="m644.45 467.93c-.85 18.63-3 37.13-5.33 55.62-.73 5.69-.75 11.49-2 17.14-.31 1.38.25 2 1.73 2.36 3.15.8 6.2 2 9.35 2.89 2 .55 4.81.08 3 3.73-.47.92.45 1.53 1.43 1.09 3.09-1.38 4.14 1 5.15 2.93 4.35 8.19 3.9 16.36-9.14 22.67-6.58 3.18-12.41 2-18.28 1.11a33.46 33.46 0 0 1 -20.76-12c-1.2-1.47-1.71-3.49-2.69-5.17-1.82-3.12-.71-5.91 1.43-8 1.43-1.4 7.64 1.71 8.62 3.95 2.86 6.53 12.77 13 19.76 12.81 5.39-.11 9.4-3.37 9.3-7.53-.15-5.77-6.09-13.14-9.88-11.09-3.6 1.95-6 .89-8.83.37-3.42-.64-2.5-1.72-3.39-4.69-1.09-3.59 0-6.61.15-9.86.14-2.7-1.34-6.2 2.87-7.42.81-.24.23-.56-.06-.87-3.35-3.44-1.33-7.22-.89-11 .91-7.77 1.4-15.59 3-23.28 1.8-8.66 2.88-17.47 6-25.85.75-2 1.63-4 3.45-4.87 3.77-1.73 6.25.45 6.01 4.96zm-9.83 6c3.13.08 5.29.33 6.9-1.63-2.37-1.38-4.1.08-6.9 1.7z" fill="#542cde" transform="translate(-12.07 -25.03)"/><path d="m709.52 577.41a23.17 23.17 0 0 1 -7-4.3c-1.73-1.48-4-3.21-2.27-5.15 1.5-1.69 4.63-1.56 6.77-.08 7.48 5.17 15.34 8.69 24.77 7.18a8.9 8.9 0 0 1 4.89.48c1.07.5 3.59-.5 3.19 2.05a3.47 3.47 0 0 1 -3.34 3.19c-4.94 0-9.93 1-14.82-.49-2.68-.84-4.68-.09-6.46 2.14-6.58 8.25-13.23 16.44-23.07 21.19a241 241 0 0 1 -27.31 11.1c-21.12 7.17-42.11 4.6-63.27-.31a160 160 0 0 1 -25.64-8.69c1.89-.49 2.94-.57 3-.79 1-6.8 4.88-2.78 7.64-2a192.67 192.67 0 0 0 44.79 7c7.64.33 15-2.52 22.52-2.94 4.08-.23 6.87-2.55 10.32-3.66a123.08 123.08 0 0 0 38.52-20.54c2.25-1.79 5.86-1.86 6.77-5.38z" fill="#542cde" transform="translate(-12.07 -25.03)"/><path d="m737.1 540.17c-5.23-.17-10.25 2.17-15.52.48-.14 0-.33.12-.48.1-3-.47-6.16-2.54-6.42-4.65-.31-2.47 3.22-3 5.86-3.39 7.46-1.07 14.85-2.68 22.33-3.61a39.8 39.8 0 0 0 11.13-3.38c8.8-4 19.14-2.53 27.32-8.27 1.13-.8 2.15.47 3 1 1.07.73.34 1.72-.1 2.63-2.45 5.07-7.48 7.06-12.1 8.5-7.49 2.34-14.42 6.17-22.11 7.88-4.26 1-8.59 1.82-12.91 2.71z" fill="#542cde" transform="translate(-12.07 -25.03)"/><path d="m648.63 630c9 2.1 17-4.69 26.24-6.65 3.12-.66 6.39-.73 9.46-2.13 1.43-.65 3.58.55 4.46 2.29s-.47 2.78-1.61 3.77c-13.29 11.47-28.79 13.63-45.47 10.68a10.62 10.62 0 0 1 -3.68-1.29c-1.19-.74-4.1-1.43-3.38-2 1.71-1.46 1.76-4.74 4.86-4.65 2.66.06 5.31-.02 9.12-.02z" fill="#542cde" transform="translate(-12.07 -25.03)"/></svg>