<svg height="440" viewBox="0 0 1038 1229" xmlns="http://www.w3.org/2000/svg"><g transform="translate(-15.03 -8.85)"><path d="m219.1 1201c-1.83 0-3.74.32-4.95-1.57-.47-.74-1-1.34-2-1.19-8.81 1.37-15.75-3.65-23.36-6.58-5.87-2.26-11.63-4.69-17.39-7.2-13.57-5.9-25.19-14.71-36.37-24a324 324 0 0 1 -34.87-33.24c-14.5-16.32-28.46-32.94-39.68-51.94a290.06 290.06 0 0 1 -16.12-32.29c-4.24-9.79-6.89-20.33-9.41-30.81-4.91-20.4-6.75-41.18-7.78-62-.33-6.61.75-13.45.33-20-.68-10.8 1.6-21.24 2-31.87.45-12.29 2.76-24.44 4.09-36.66 2.63-24.26 7.18-48.22 10.55-72.36 3-21.06 6.81-42 10.29-63 1.86-11.19 3.48-22.4 4.64-33.7.68-6.54 1.91-13 2.88-19.56 4.13-3 9-3.34 13.85-4 2.31-.31 3 .75 3.55 2.89 1.75 6.76-.64 12.73-3.5 18.46-5.4 10.77-11.56 21.05-11.69 33.85-.09 8.82-2.59 17.6-2.83 26.44-.12 4.68-.32 9.78 2.19 14.42 3 5.65 7.55 8.53 13.77 9.49 2.9.44 2.83.8 4.26-1.08a1.16 1.16 0 0 1 .83-.3c4.25 0 3.88-2.42 3.08-5.38-.43-1.56-.82-3.48-.28-4.87 2.21-5.72 3.68-11.7 6.44-17.24a84.78 84.78 0 0 1 4.5-8.71c1.19-1.82-1-3-.78-4.55 4.65.84 3.29-4 5.33-5.78 4.4-3.84 7.54-8.75 10.73-13.78 6.71-10.56 11.44-21.38 12.43-34 .73-9.26-7.48-22.61-16.13-25.68-8-2.82-16.58-2.84-24.12-8-5-3.41-12.24-2.94-18.61-3.37 2.57-16.17 2.66-32.56 3.57-48.84a355.32 355.32 0 0 0 -.18-38.47c-.75-14-.65-28.11-2-42.06-2.17-22.81-4.7-45.61-9.07-68.17-3.1-16.06-5.57-32.23-8.29-48.3-2.63-15.43-5.58-30.81-7.74-46.3-1.72-12.42-2.73-25-3.59-37.48-1.44-20.87-1.71-41.8 2.51-62.39 5.77-28.13 13.71-55.62 28.76-80.41a368.86 368.86 0 0 1 29.74-42.06c3.62-4.43 7.13-9.18 11.14-13.08 5.29-5.16 10.45-10.52 16.17-15.28 9.9-8.24 20-16.19 30.56-23.59 5.58-3.91 11.66-6.86 17.4-10.42 9.24-5.75 19.21-10.31 29.26-14.53a253.72 253.72 0 0 1 55-16.12 431.23 431.23 0 0 1 47.27-5.5c21.61-1.32 43.2-.45 64.79-.8 24.33-.4 48.7 0 73-1.3 11.92-.66 23.87-.59 35.79-1.26 13.32-.76 26.73-1.13 40-2.63 18.7-2.12 37.54-2.78 56.1-6.45 11.8-2.33 24-2.58 35.9-4.49 7.24-1.16 14.56-1.28 21.73-1.46 8.16-.2 16.2-2.08 24.37-1.4 8.37.7 17 .38 25.07 2.21 15.21 3.44 31.17 1.51 46 6.9 13.53 4.91 27.25 9.22 40.7 14.39 16.82 6.45 31.69 16 46.7 25.58a155.11 155.11 0 0 1 13.38 9.32c5 3.94 10.08 7.87 14.27 12.57 5.75 6.43 12.34 12 17.69 18.84 5.52 7 12 13.39 16.93 20.8 4.5 6.77 9.16 13.56 13.86 20.08a276 276 0 0 1 18.49 29.26 397.2 397.2 0 0 1 21.42 45.44c4.21 10.8 8.56 21.57 12.22 32.57 4.05 12.19 7.33 24.62 10.32 37.14a316.62 316.62 0 0 1 6.35 35.61c.94 7.95 2 16 1.8 24.1a105.39 105.39 0 0 0 .88 13.24c1.33 13.06-.88 25.95-1.27 38.91-9.54-1.44-19.13-2.67-28.62-4.42-4.44-.82-8.87-.35-13.22-.85-6.84-.79-13.66-2-20.54-1.61-3.17.19-6.29.67-9.52.8a353.34 353.34 0 0 1 -40-1.06 224.62 224.62 0 0 0 -34 0c-23.07 1.82-46 4.65-67.63 14.29-15.75 7-25.9 18.14-30 35-.48 2 .59 3.76-.24 5.66-3 6.84-2.87 14.33-4.06 21.52a267.56 267.56 0 0 0 -2.72 30c-.4 7.93-1.36 15.88-.81 23.82.77 11.1-2.59 21-6.94 30.95-3.4 7.81-7.19 15.43-10.72 23.17-5.36 11.78-11.48 23.07-19.53 33.41-4.41 5.67-11.17 8.66-14.79 15-2.8 4.93-2.81 6 2.73 7.32s10.74 4.1 16.8 4.76c5 .54 8.87 1.79 11.93-3.16.49-.79 2.09-.6 2.16-.09.45 3.14 2.34 1.3 3.54 1 6.87-1.39 12.79-5.26 19.29-7.71 9.9-3.72 19.21-9 28.85-13.4 4.64-2.13 9.22-5.71 14.64-1.76 4 2.93 9.1 3.57 13.46 6 3.38 1.89 7.85 2 11.54 3.94a2.59 2.59 0 0 0 3.8-.94c.72-1 3.41-1.21 3 .83-.46 2.57.78 2.17 2.24 2.55 15.63 4.08 31.73 5 47.65 6.76 13.12 1.46 26.41 1.44 39.63 1.78 5.16.13 10.34.56 15.54-.31 6.82-1.14 13.71-.46 20.57-.11-1 7.85-2 15.72-3.15 23.56a200 200 0 0 0 -1.85 23.2c-.15 4.46-.48 8.87-2 13.07-.85 2.28 1.23 3.71 1.12 5.94-1 19.45 1.46 38.75 4.19 57.89a326 326 0 0 0 9.53 44.5c3.89 13.46 6.79 27.22 10.12 40.84-2.91-.3-5.87-.26-8.67-1.44a34.61 34.61 0 0 0 -23.69-1.18c-8.43 2.42-15.93 6-20.84 13.93-1.5 2.41-.66 6.12-3.29 7.25-2.3 1-2.84 1.7-2.65 4.11.21 2.68 2.06 3.41 3.8 4 4.06 1.29 8.2 2.33 12 4.32 1.11.58 1.86.88 3-.16 8.24-7.35 18.37-9.93 29-10.35 3.45-.14 8.34-1.59 10.35 3.33 1.81 4.43 3.27 9-2.33 12.24-1 .58-1.29 2.29-2.23 3.1a140 140 0 0 0 -23.08 25.2c-5.84 8.29-12.81 15.81-14.49 26.61-1.54 9.88-5.72 19.12-9.44 28.38-3.42 8.51-1.59 13.18 6.92 17 2.19 1 4.38 1.16 6.53 1.81 4.88 1.47 8.76-.52 10-5.3a16 16 0 0 1 3.39-5.88c2.89-3.54 6.1-7.26 7.79-11.19 2.44-5.69 6.69-9.72 10.2-14.33 6.49-8.5 13.15-16.93 20.82-24.47a178.38 178.38 0 0 1 -3.34 32.31c-1.92 9.69-3.63 19.49-6.55 28.87-3.56 11.47-8.71 22.43-14.14 33.19-2.64 5.22-4.9 10.72-9.6 14.6.1-4.68-1.83-9.84-6-10.11-7.44-.48-13.32-4.12-19.77-6.65-2.62-1-4.95-1.05-7.26.73-4.81 3.71-7.14 9.32-10.77 13.93-1.76 2.24.15 4.21 1.57 5.57 2.43 2.32 5 4.78 8 6.14 6.78 3.1 13.86 5.56 20.81 8.29-1.93 6.68-7.42 10.88-11.57 15.9a181.77 181.77 0 0 1 -49.91 41.91c-8.27 4.74-17.4 7.93-26.2 11.67-13.8 5.86-28 9.65-42.59 12.51-19.45 3.82-39.17 4.67-59 3.87.86-.78 1.59-2 2.58-2.27 10.94-3.24 18.63-11.53 27.17-18.17a83.15 83.15 0 0 0 27.75-38.75c2.61-7.54 6.87-15.17 3.29-23.67a1.12 1.12 0 0 1 .64-1.59c2.6-1.07 1.69-3.3 1.8-5.15.82-13.79-3.26-26.79-6.87-39.78a188.08 188.08 0 0 0 -11.93-31.64c-3.35-6.91-6.11-14.1-10.11-20.73-1.28-2.13-4.47-3.17-4.52-4.76-.22-6.85-4.63-11.55-7.83-16.75-6.29-10.21-12.75-20.34-19.84-30a315.67 315.67 0 0 0 -22.17-27.06c-5-5.45-10.15-10.85-15.41-16.07-9.47-9.41-19-18.79-28.86-27.81-10.1-9.2-20.36-18.22-30.53-27.34.38-3.62.12-7.26.53-10.91.3-2.62 1.51-5.94-1.26-8.32.17-7.84-3.65-14-8.43-19.7-5.61-6.74-11.17-13.54-20.83-14.29-4.74-.36-8.06-3.3-10.68-6.55-3.87-4.81-8-9.09-13.47-12.09a154.68 154.68 0 0 0 21.29-33.93c2.6-5.66 1.95-12.52 6.7-17.49.89-.93.64-3.84-1.31-4.84-4.94-2.52-2.65-5.21-.3-7.82 18.14-20.14 27.37-44.81 34.65-70.19a151.63 151.63 0 0 0 5.2-52.34c-.15-2.11.59-3.15 3.6-3.92 5.4-1.4 11.79-1.51 15.55-7.24 4.71-7.17 1.86-13.93-.8-20.54-1.17-2.92-1.31-3.82 1.79-5.3 10.59-5.05 19.61-12.44 27.74-20.78 8.47-8.69 15-19 20.2-29.8 6.57-13.53 11.06-27.79 9.62-43.22a4.3 4.3 0 0 1 .32-2.05c1.12-3.36 2.86-7-.94-9.93-1-.82-.15-.92.39-1 2.4-.41 1.6-2.28 1.42-3.53q-1.14-7.8-2.63-15.55c-1.82-9.5-6.8-17.62-11.69-25.73-2.09-3.48-3.34-6.66-.64-10.42a74.3 74.3 0 0 0 5.19-8.44c4.13-7.67 8.9-15.36 8.66-24.36-.5-18.44-9.53-32.74-22.94-44.81-4.18-3.76-8.84-6.91-12.92-10.68-11.79-10.9-24.29-20.45-40.1-24.77-2.12-.58-3.1-2.06-3.78-4.08-1.44-4.32-2.9-8.66-4.71-12.83-4.56-10.51-12.06-18.65-20.79-25.9-8.43-7-16.47-14.43-26.47-19.24-8.41-4-16.85-7.92-26-10.22a121.24 121.24 0 0 0 -36.68-3.54c-9.89.55-19 4.17-27.95 7.65-3.83 1.48-5.74.27-8.16-1.78-10-8.49-20.87-15-33.93-18a213 213 0 0 0 -28.47-4.45 109.48 109.48 0 0 0 -50.44 7.41c-7.86 3.1-14.75 7.77-21.82 12.13-11.44 7.05-22 15.27-30.06 26.2-1.65 2.24-3.21 2-5 1.77-14.63-2.27-29.05-3.84-44.08-1.4-18 2.92-33.21 10.67-47.32 21.39a166.49 166.49 0 0 0 -27 26.44c-6.34 7.62-11.81 15.69-14.32 25.57-1.32 5.22.52 11.22-3.91 15.82-.4-2.3-1-3.26-3.66-1.91s-5.64 2.86-8.43 4.17c-7.09 3.32-14.1 7.59-19 13.85-9.61 12.31-18.13 25.24-23.17 40.39-5.56 16.73-4.68 32.61 2.62 48.5 2.68 5.83 6.43 11.06 8.75 17.09 1.31 3.4 1 6.16-1.23 8.67-8.37 9.25-14.49 19.86-19.45 31.22-5.66 13-8.16 26.59-6.24 40.51 2.56 18.63 14.12 31.77 28.63 42.68 4.17 3.13 7.87 6.13 7.34 12.56-1.38 16.47 1.06 32.47 11.16 46 11.68 15.62 23.76 31.34 45.59 33.16 3.09.25 4.79 2.89 7.49 3.33 7.09 1.14 14.25 1.88 21.31 3.14 2.69.48 5.76 1.32 7.69 3.06a177.77 177.77 0 0 0 20 16.13c8.57 5.75 17.38 10.61 27.39 12.57a165 165 0 0 0 25.63 2.94c3 .11 5.91.68 8.79-.66 1.64-.77 2.59.31 3.75 1.47 3.1 3.1.72 6.86 1.37 10.27 1.61 8.36 0 16.93-.13 25.41-.26 13.22-1.06 26.52 1.8 39.62.49 2.24 0 3.82-2.41 5.19-5.41 3.14-11.43 4.94-16.69 8.4-3.75 2.45-6.5 4.91-5.93 9.85.39 3.28.12 6.64.52 9.93.17 1.38-.06 1.71-1.27 1.91-5.91 1-10.83 5.39-17.15 5-.29 0-.6.24-.9.35-3.36 1.17-6.67 2.55-10.09 3.48-18.94 5.13-36.36 13.68-53.21 23.5-14.41 8.4-27.62 18.49-40.24 29.39-2.43 2.1-5.38 3.62-5.24 7.44-4.53-1-5.62 3.16-7.7 5.41a136 136 0 0 0 -27.74 45.07c-4.38 11.79-6.94 24-8.73 36.32-1.69 11.62-3.8 23.3-4 35-.26 19.87-1 39.71 3.36 59.59 2.24 10.15 3.85 20.74 5.81 31.07a270.85 270.85 0 0 0 21.83 66.49c6.87 14.01 13.03 28.72 24.87 39.72.35.32.62.46.36 1.11-1.15 3 1.11 4.54 2.76 6.34 4.44 4.87 9.51 9.68 13 14.77 5.45 7.89 12.7 13.67 18.75 20.72 3.72 4.35 8.13 8.06 12.23 12.06zm644.9-931 .07.07c-.15.93.3 2.22-1 2.55-3.35.87-5.17 1.6-2.69 5.82 2 3.32 10.14 6.36 13.19 3.55 6.55-6 11.5-13.34 15.73-21 1.62-2.93 2.63-2.15 4.33-1.08 3.65 2.31 7 5.12 10.88 7 5 2.45 8.13 7.94 14.4 8.36 1.92.13 3.82.78 4.78-1.17a4.11 4.11 0 0 0 -1.54-5.3c-2.19-1.61-3.45-4-5.28-5.89-6-6.14-10-14-17.59-19.26 5-3.18 6.33-8.72 9.3-13.13 3.41-5 5.94-10.71 8.7-16.18 1.37-2.71 1-4.69-2.57-5.42-2.68-.54-5.48-.89-7.69-3.1-1.41-1.42-3.52-.94-3.61 1.29-.06 1.61-.94 2.43-1.66 3.38-5.18 6.88-10.51 13.66-15.69 20.53-1 1.37-1.9 2.49-3.52 1-7.74-7.11-18.23-8.7-27.09-13.55a1.77 1.77 0 0 0 -2.3.23c-1 1.17.36 1.1.85 1.56.74.71 0 1.31-.52 1.45-5.83 1.47-1.42 3.71-.16 5 5.88 6.11 11.76 12.22 18.4 17.54 2 1.63 2.81 3.2 1 5.89-3.61 5.33-6.73 11-10 16.56-.83 1.38-2.62 3.49 1.28 3.3zm-80.68-51.91c-2.56 4.4-2.9 8.75-3.12 13-.33 6.51 2.73 10.84 8.92 13.15 1.8.66 3.83.87 5.44 1.81 3.14 1.83 5.51 0 7.94-1.29 2.91-1.58 1.08-3.71.18-5.48-.7-1.39.45-2.08.72-3.06 1.77-6.34 5.88-11.56 8.67-17.43 1.33-2.8 2.65-5.89 5.05-8.29 7.65-7.69 15.91-14.67 24.18-21.64 4.28-3.61 6.7-8.72 11.15-12.46 3-2.51 5.06-7.93 6.19-12.51 1.71-6.95 4.26-14 1.17-21.25a32.28 32.28 0 0 0 -12-14.65c-5-3.34-11.16-3.88-16.62-5.25-4.13-1-7.91-3.07-11.4-4.62a54.91 54.91 0 0 0 -21.2-4.5c-17-.46-28.65 8.41-37 22.4-3.62 6.08-1.85 9.75 5.08 12.21 2.52.9 5.11 1.36 7.6 2.16a5.53 5.53 0 0 0 5.84-.93 53.85 53.85 0 0 1 24.74-10.24c4.76-.77 10.13-2 14.49.85 5.21 3.42 4.64 16.48-.7 19.93-10 6.44-17.15 15.35-23.54 25.12-2.55 3.9-6 7.3-6.92 12-.29 1.42-1.9 3.7 1.46 3.93 1.08.07 1.55.71 1 1.63-.37.64-1.07 1.56-2 .69-1.59-1.56-2.34.48-2.34.9 0 4.23-5 8.17-.57 12.76.89.91.73 3.33-.58 4.74-1.91-.7-.81-2.43-1.87-3.72zm-598.2 524.36c-2.94-1.14-4.27-2.94-5.94-4.1-3.29-2.29-5.34-7.06-10.8-5.61-1.5.4-.56-1-.31-2q2.61-10.1 4.91-20.28c1.72-7.55 4.59-14.89 4.06-22.88-.14-2.09-.59-3.21-2.69-4-6.07-2.37-9-1.87-11.93 3.85-4.55 8.83-10.16 17.15-13.18 26.77-.53 1.68-2.31 3.77-4.09 2.52-4.25-3-9.37-3.13-13.89-5.09-2.74-1.18-5.17-4.49-7.26 1.7-.87 2.56-.34 2.71.88 3.57 4.46 3.15 8.89 6.36 13.54 9.22 3.46 2.13 4.13 4.38 2.53 8.21a120.76 120.76 0 0 0 -8.76 30.57c-.41 3.12.34 5.1 3.57 6.68 3.46 1.7 7.47 1.33 10.67 3.55 1.33.92 2.07-.31 2.95-1a13.42 13.42 0 0 0 4.26-6.64c2.4-8.31 6-16.17 8.72-24.34 1-2.88 2.08-3 4.58-1.73 5.1 2.56 10.25 6 16.13 1.67a11.81 11.81 0 0 1 2.05-.64zm671.49 175.23c-1 .29-2.15.69-2.82-.15-1.13-1.42.51-1.88 1.24-2.65 1.5-1.61-.13-2.37-1-3.17a23.92 23.92 0 0 0 -4.27-3.39c-3.45-2-2.71-4.4-1.25-7.17 3.35-6.31 6.56-12.7 10-19a26.87 26.87 0 0 0 2.44-8c.37-2 0-4.57-2.33-4.83-2.67-.3-5.17-4-7.76-1.28s-5.94 5-8 8.54a143.72 143.72 0 0 1 -9.49 13.42c-1.46 1.93-2.79 4-5.87 1.21-5.44-5-11.43-9.33-19.16-10.31a8.65 8.65 0 0 1 -4.18-1.48c-5.93-4.81-2.93 4.09-6.12 4-.89 0 .45 1.51 1 2.12a125 125 0 0 0 20.58 19.23c1.9 1.36 3.18 2.74 1.91 4.87-4.5 7.57-7.38 15.83-10.64 23.95-2 4.94-1.26 7.81 3.3 10.06 6.22 3.06 11.82.74 14.67-5.17 2.94-6.08 6.22-12 9.42-17.94.55-1 .78-2.67 2.8-2 6.51 2.3 12.45 5.73 18.44 9.08a5.84 5.84 0 0 1 2.12 2c1.62 2.74 6.44 4.46 8.86 3 .93-.55 1.69-1.41 1-2.43-3.45-4.9-7.88-8.86-12.5-12.6a2 2 0 0 0 -2.39.09zm-37.61-620.17c.15-5.19-3.82-10.72-6.29-9.41-2.84 1.52-4.3 0-6.26-.84-5.27-2.17-10.46-4.54-15.77-6.58-3.83-1.47-8.58 1.84-7.37 5.42 1.1 3.24-.74 2.43-2.16 3.25-1 .55-4.8.5-2.41 2.68 3.38 3.08 1.79 5.89 1.56 9.22s-2.55 7.43 2.1 9.67c7 3.38 14.75 3.84 22.21 4.82 5.28.7 5.55-6.27 9.13-8.74.53-.36.8-1.08 1.31-1.48 2.95-2.34 3.54-5.66 3.95-8.01zm-718.08 514.31c.22-3.83.62-7.85-4.25-7.68s-9-2.18-13.09-3.87c-8.5-3.49-18.69 2.8-18.53 12a2.69 2.69 0 0 0 .62 1.78c5.6 5.24 10.8 11.06 19.18 12 3.23.35 6.89 1.86 9.19-1 3.24-3.92 8.42-7.21 6.88-13.23zm97.25-57.82c-5-6.81-8.95-8.2-17.2-6.21 5.18 3.54 11.03 4.9 17.2 6.21z" fill="#cbefed"/><path d="m615.92 796.3c10.17 9.12 20.43 18.14 30.53 27.34 9.88 9 19.39 18.4 28.86 27.81 5.26 5.22 10.4 10.62 15.41 16.07a315.67 315.67 0 0 1 22.17 27.06c7.09 9.66 13.55 19.79 19.84 30 3.2 5.2 7.61 9.9 7.83 16.75.05 1.59 3.24 2.63 4.52 4.76 4 6.63 6.76 13.82 10.11 20.73a188.08 188.08 0 0 1 11.93 31.64c3.61 13 7.69 26 6.87 39.78-.11 1.85.8 4.08-1.8 5.15a1.12 1.12 0 0 0 -.64 1.59c3.58 8.5-.68 16.13-3.29 23.67a83.15 83.15 0 0 1 -27.75 38.75c-8.54 6.64-16.23 14.93-27.17 18.17-1 .3-1.72 1.49-2.58 2.27-6.44.94-11.72 4.87-17.82 6.83-23.78 7.6-47.85 11.17-72.89 8.52-14.21-1.51-28.61-1.2-42.87-2.35-12.33-1-24.75-1.21-37-3.47-2.91-.55-6.78 1.59-8.19-3-.07-.23-.59-.56-.66-.51-8 6-18.44 4.61-26.93 9.13-4 2.13-5.4 6.42-8.3 9.49a284.19 284.19 0 0 1 -39 34.66 353.88 353.88 0 0 1 -37.66 24.5 147.74 147.74 0 0 1 -35 14.25c-9.48 2.39-18.92 5.34-28.47 7.39-9 2-18.08 3.88-27.52 4.09-6.18.14-12.42.71-18.61.45-17.79-.75-34.91-4.32-50.6-13.21-4.43-2.51-10.26-2.85-13.52-6.86-2.7-3.33-9-1.84-9.35-7.64-4.54 1.74-6.62-2.42-9.61-4.2-1.66-1-4-1.45-4.34-4.31-.22-1.91-2.21-.22-3.33-.61-4.1-4-8.51-7.66-12.21-12-6-7-13.3-12.83-18.75-20.72-3.51-5.09-8.58-9.9-13-14.77-1.65-1.8-3.91-3.38-2.76-6.34.26-.65 0-.79-.36-1.11-11.84-11-18-25.75-24.78-39.85a270.85 270.85 0 0 1 -21.83-66.49c-2-10.33-3.57-20.92-5.81-31.07-4.39-19.88-3.62-39.72-3.36-59.59.15-11.67 2.26-23.35 4-35 1.79-12.35 4.35-24.53 8.73-36.32a136 136 0 0 1 27.74-45.07c2.08-2.25 3.17-6.44 7.7-5.41-.14-3.82 2.81-5.34 5.24-7.44 12.62-10.9 25.83-21 40.24-29.39 16.85-9.82 34.27-18.37 53.21-23.5 3.42-.93 6.73-2.31 10.09-3.48.3-.11.61-.37.9-.35 6.32.44 11.24-4 17.15-5 1.21-.2 1.44-.53 1.27-1.91-.4-3.29-.13-6.65-.52-9.93-.57-4.94 2.18-7.4 5.93-9.85 5.26-3.46 11.28-5.26 16.69-8.4 2.37-1.37 2.9-3 2.41-5.19-2.86-13.1-2.06-26.4-1.8-39.62.16-8.48 1.74-17 .13-25.41-.65-3.41 1.73-7.17-1.37-10.27-1.16-1.16-2.11-2.24-3.75-1.47-2.88 1.34-5.82.77-8.79.66a165 165 0 0 1 -25.63-2.94c-10-2-18.82-6.82-27.39-12.57a177.77 177.77 0 0 1 -20-16.13c-1.93-1.74-5-2.58-7.69-3.06-7.06-1.26-14.22-2-21.31-3.14-2.7-.44-4.4-3.08-7.49-3.33-21.83-1.82-33.91-17.54-45.59-33.16-10.1-13.53-12.54-29.53-11.16-46 .53-6.43-3.17-9.43-7.34-12.56-14.54-10.81-26.1-23.98-28.66-42.61-1.92-13.92.58-27.55 6.24-40.51 5-11.36 11.08-22 19.45-31.22 2.28-2.51 2.54-5.27 1.23-8.67-2.32-6-6.07-11.26-8.75-17.09-7.3-15.89-8.18-31.77-2.62-48.5 5-15.15 13.56-28.08 23.17-40.39 4.89-6.26 11.9-10.53 19-13.85 2.79-1.31 5.66-2.77 8.43-4.17s3.26-.39 3.66 1.91c4.43-4.6 2.59-10.6 3.91-15.82 2.51-9.88 8-17.95 14.32-25.57a166.49 166.49 0 0 1 27-26.44c14.11-10.72 29.33-18.47 47.32-21.39 15-2.44 29.45-.87 44.08 1.4 1.8.28 3.36.47 5-1.77 8-10.93 18.62-19.15 30.06-26.2 7.07-4.36 14-9 21.82-12.13a109.48 109.48 0 0 1 50.44-7.41 213 213 0 0 1 28.47 4.45c13.06 2.94 23.95 9.48 33.93 18 2.42 2 4.33 3.26 8.16 1.78 9-3.48 18.06-7.1 27.95-7.65a121.24 121.24 0 0 1 36.68 3.54c9.12 2.3 17.56 6.18 26 10.22 10 4.81 18 12.26 26.47 19.24 8.73 7.25 16.23 15.39 20.79 25.9 1.81 4.17 3.27 8.51 4.71 12.83.68 2 1.66 3.5 3.78 4.08 15.81 4.32 28.31 13.87 40.1 24.77 4.08 3.77 8.74 6.92 12.92 10.68 13.41 12.07 22.44 26.37 22.94 44.81.24 9-4.53 16.69-8.66 24.36a74.3 74.3 0 0 1 -5.19 8.44c-2.7 3.76-1.45 6.94.64 10.42 4.89 8.11 9.87 16.23 11.69 25.73q1.49 7.74 2.63 15.55c.18 1.25 1 3.12-1.42 3.53-.54.09-1.44.19-.39 1 3.8 2.94 2.06 6.57.94 9.93a4.3 4.3 0 0 0 -.29 2.06c1.44 15.43-3.05 29.69-9.62 43.22-5.25 10.83-11.73 21.11-20.2 29.8-8.13 8.34-17.15 15.73-27.74 20.78-3.1 1.48-3 2.38-1.79 5.3 2.66 6.61 5.51 13.37.8 20.54-3.76 5.73-10.15 5.84-15.55 7.24-3 .77-3.75 1.81-3.6 3.92a151.63 151.63 0 0 1 -5.2 52.34c-7.28 25.38-16.51 50.05-34.65 70.19-2.35 2.61-4.64 5.3.3 7.82 1.95 1 2.2 3.91 1.31 4.84-4.75 5-4.1 11.83-6.7 17.49a154.68 154.68 0 0 1 -21.29 33.93c5.43 3 9.6 7.28 13.47 12.09 2.62 3.25 5.94 6.19 10.68 6.55 9.66.75 15.22 7.55 20.83 14.29 4.78 5.75 8.6 11.86 8.43 19.7a30.25 30.25 0 0 1 -1.56 10c-.97 3.13-3.9 7.54 2.22 9.21zm-293.36-251.79-1.43-1.62c1.78-2.35-.63-4-1-6-.78-3.85-.1-8-1.14-11.55-2.52-8.55-1.46-17.33-2.6-26-1.19-9 0-18.4.92-27.56 1.68-17 2.66-34.18 6.78-50.9a73.88 73.88 0 0 0 2.2-11.14 22.7 22.7 0 0 1 8.05-16.22c13.05-11.29 28.65-18 44.35-24a310.35 310.35 0 0 1 57.22-16.08 319.26 319.26 0 0 1 46.09-5.19c24.7-.8 49.43.58 73.67 6 2.88.65 9-2.17 8.49 6 .49-5.75 3.81-4.92 6.42-3.63 3 1.5 7.61-.4 9.34 4.09a2.23 2.23 0 0 0 1.76-.19c1.8-1.9 4-.82 5.6-.31 11.34 3.74 22.85 6.74 30.83 17.24 4.75 6.26 9.13 12.5 11.81 19.77a102.81 102.81 0 0 1 6.45 26.37c.57 6.09 2 12.52 2.29 18.76.5 9.65 1.55 19.45-1.66 29-1.36 4-1.79 8.85-5.6 11.17-2.61 1.59-1.34 2.21-.37 3.43 1.8 2.28 3.38.89 5.1-.25 15.39-10.19 26.64-24.16 35.3-40.13 3.18-5.87 6.84-12 6.58-19.27 2.54-3.69 2.7-8 3-12.21 1.91-3.13 1.21-6.72 1.47-10.05.64-8.25 1-16.52-.23-24.8a100.4 100.4 0 0 0 -14.2-38.16c-1.88-3-1.79-6.4.82-9.66 3.59-4.48 7.23-9.09 9.8-14.18 10.3-20.41 4.92-36.35-8.89-51.55-9-9.87-18.34-15.34-31.89-19.18-8.83-2.51-16.71-6.17-23.82-12.4-6.26-5.5-9.85-11.72-11.09-19.61a44.84 44.84 0 0 0 -9.06-20.5c-1.08-1.3-1.41-3.5-3.83-3.17v.12c.16-2.34-2-2.2-3.25-3.1a80.34 80.34 0 0 0 -24.24-11.73c-13.1-3.61-26.29-7-40.23-6.72-5.36.11-10 1.84-15.07 2.65-6.87 1.12-12.71 5.23-19.29 7.36-2.94 1-5.57.7-7.24-1.52-2.21-3-5.46-4.34-8.13-6.57a58 58 0 0 0 -6.73-4.81c-2.38-1.45-6.14-2-7.15-4-1.65-3.28-4-1-5.79-1.65a101.34 101.34 0 0 0 -17.54-4.94c-7.48-1.29-15.49 0-22.35-4.47-.88-.57-2.25-.86-2.82-.16-4 5-10 2.86-14.75 3.38-21.45 2.33-39.3 11.5-54.75 26.07-6.32 6-11.75 12.91-19.89 16.8-3.7 1.76-7.14 3.42-11.24 1.52-5.12-2.37-10.65-2.52-16.12-3.26-3.12-.42-7.1.65-9.35-1.91-2.59-2.94-3.66-1-5.2.61-7.06 1.16-14.49.12-21.18 3.51a.92.92 0 0 0 -.85.12 1.13 1.13 0 0 0 -.9 0c-5-.44-8.7 3-12.78 4.83-14.42 6.53-25.64 17.36-36.28 28.79-8.52 9.16-15.61 19.18-19.55 31.22a31.08 31.08 0 0 1 -3.14 7.62c-2.52 3.93-6.71 2.3-9.78 4.16-10.21 6.18-19.07 13.6-25.8 23.67-11 16.54-19.69 33.75-20.15 54.27a57.82 57.82 0 0 0 4.27 23.73 142.85 142.85 0 0 0 9.9 18.8c3.12 5.19 2.05 9.25-1.23 14-13.89 19.95-24.79 41-22.57 66.5.7 7.95 3.14 15.43 7.91 21.46 6.53 8.27 15.15 14.62 23.22 21.42 4.28 3.61 7.83 7.5 7 13.93a69.67 69.67 0 0 0 -.06 13.47c.95 13 3.85 25.3 13.32 35.09 3 3.74 7.06 5.3 11.6 6 4 1.32 8 2.87 12.08 3.91 7.31 1.86 14.7 3.7 22.23 4 10.35.42 15.44 9.17 22.47 14.32 6.76 5 13.26 9.85 21 13.1 11.31 4.76 23 7.65 35.3 7.47 1.57 0 3.6.92 4.58-.32s-.4-2.63-1.51-3.62c-8.07-17.48-12.05-36.08-15.22-54.92-.46-2.77 0-6.09-1.31-8.17-1.82-3-5.07 0-7.73.08a4.14 4.14 0 0 1 -1-.18 132.76 132.76 0 0 1 -30.63-10.76 40.7 40.7 0 0 1 -15.95-13.84c-5.62-8.42-2.67-17.25 1-25.41 6.38-14.2 17.76-20.49 33.32-21 5.95-.2 12 4.11 17.89-.29.12-.1.57.28.89.36 5.8 1.56 11.07 3.85 14.21 9.49 1.48 2.67 3.28 5.16 4.94 7.73 7.36 11.44 17.7 21 22.14 34.3l1.28 1.78c.21.49 0 1.58.91 1.13.56-.31.2-1.2-.24-1.74zm216.57 576.39c12.93.43 25.9-.45 38.82.94 5.37-.79 10.76 1 16.13-.1 12.49.62 25 .62 37.5.63 9.15 0 18.63.09 27.55-3.19 2.71-.39 5.64-.25 8.07-1.29 3.19-1.37 7.22.32 9.79-2.87 4.71.28 8.55-2.49 12.8-3.77 12.17-3.65 21.79-11.68 31.64-19.23 2.36-1.81 4.92-3.51 6.46-6.22a74 74 0 0 0 13.59-17.73c.81-2.66 2.84-4.62 3.84-7.26 5.74-15.19 8.3-30.68 5.73-46.91a199.54 199.54 0 0 0 -8.74-35.14 277.63 277.63 0 0 0 -24.83-51.62c-6.74-11.14-13.48-22.14-21.17-32.71-3.63-5-8.11-9.18-11.58-14.22-5.34-7.77-12.17-14.26-18.64-21q-16.38-17-33.68-33.19c-2.79-2.6-4.28-6.51-7.09-8.2-6-3.59-10.87-8.14-15.65-13-2.18-2.21-3.3-2-5.06.83-5.15 8.26-11.35 15.74-17.75 23.1-4.38 5-11.6 7.4-13.6 14.6-1.39 5-4.35 9.56-4.51 14.91-.3 9.54 1.12 19 1.55 28.52.46 10.41 1.6 20.8 1.54 31.25-.1 17.67-1.44 35.28-3.15 52.85-1.61 16.54-3.5 33-6.66 49.38-.4 2-1.81 4-.66 6.09 1.83-.13 3.6-.21 5.36-.39 7-.71 13.77-1.89 19.65-6.55a57.53 57.53 0 0 0 8.09-7.8c6-6.95 12.54-13.39 14.84-22.95 1.25-5.18 2.75-10.3 3.61-15.58.29-1.82 2.16-4.26 2.86-3.26 1.68 2.38 4.19 4 5.46 6.84 1.51 3.36.08 7.09 2 10.21a62.58 62.58 0 0 1 -1.65 12.78l-2.59 13.35c-2.69 4.54-5 9.32-9.06 12.92l-6.79 5.31a164.24 164.24 0 0 1 -21.18 9c-2.76-1-5.29.14-7.87.85-3.66-2.42-7.48 1.11-11.16-.31s-5.19 0-6.34 3.67c-4.6 14.82-9.68 29.43-17.16 43.16-5.53 10.15-11 20.32-17.38 29.94a3.82 3.82 0 0 0 -.93 3.2c.27 1 1 .87 1.94.82 5.32-.32 10.69-.47 16.06-.66zm-85.33-257c-2.15 3.94-.36 8.27-1.31 12.46-1.46 6.39-1.65 13.08-2.39 19.64-1.21 5-1.18 10.24-3 15.13q-3 17.43-6 34.88c-2 4.46-1.61 9.46-3.21 14a309.32 309.32 0 0 1 -19.27 62.27 271.49 271.49 0 0 1 -34.86 58.72c-11.91 15.24-26.67 25.1-47.93 21.26a43.15 43.15 0 0 1 -26.8-15.78 148.81 148.81 0 0 1 -17.19-25.25c-6.62-12.69-10.51-26.09-12.82-40.06s-2.19-28.06-3.08-42.11c-.39-12 6.7-21.07 11.88-31 0 19.3 4.7 38.16 4.26 57.41 0 1.57.78 3.17 1.2 4.76-1.71 15 3 28.75 7.7 42.68 3.34-2.25 6.15-4.28 9.11-6.1 10.84-6.69 22.86-10.63 35.07-13.58a98.32 98.32 0 0 1 24.39-3.2c5.82.09 11.63.51 17.45.78.41.27 1.09.47 1.17.81.33 1.38-.33 3.47 2.07 3.33 2.24-.14 2.3-2.28 2.84-3.89 6.56-10.66 11.14-22.24 15.27-34 4.39-12.47 8.69-25 10.79-38.12 2.73-3.19 2.28-7.26 3-11 2-10.52 3.8-21.1 5.92-31.6.91-4.49 1.27-9.11 3-13.44.26-.64 5.55-1.16.35-2.83-.71-.23-.54-3.7 1.84-4.11.74-.12 1.81.85 2.4-.38a2.25 2.25 0 0 0 -.78-3.09c-2.33-1.33-1.43-3-1.33-5.08.24-4.67 3-8.84 2.32-13.6 1.68-10.23 3.34-20.45 4.17-30.81.66-8.33 2.21-16.59 2.74-24.92.14-2.16 2.74-2.51 2-5.06-1.35-4.61-.51-9.41-.25-14.18.27-5 2.29-9.77 1.53-14.91-.48-3.2-2.81-5.33-4.11-8-.37-.77-3.8 1.82-5.72 3.08a27.51 27.51 0 0 1 -3 1.81c-25.46 12.42-49.06 28-72.75 43.36-7.37 4.79-14.54 10.5-23.63 11.59-4 .48-9 1.27-11.6-3.34-1.2-2.17-2.67-4.1-4-6.17-2.79-4.45-5.42-9-8.24-13.44-2.17-3.42-.91-7.85-4.74-11-1.71-1.42-3.31-5.36-4.48-8.48-3.38-9.06-6.66-18.15-9.67-27.86-3.73 3.74-8 5.5-12.15 7.39-13.27 6.08-27 11.15-39.94 17.91-19.93 10.45-38 23.62-55.13 38.42a131.35 131.35 0 0 0 -36.64 51.8c-9.07 22.72-11.57 46.83-14 70.75-1.16 11.5-.77 23.42-.45 35.18.61 21.74 5.28 42.74 9.32 63.91a57.48 57.48 0 0 0 1.61 6.49c2.74 8.81 5.16 17.7 8 26.53 6.5 20.42 14.33 40 26.92 57.59a222.51 222.51 0 0 0 31.16 34.63 178.62 178.62 0 0 0 38.43 26.58c14.77 7.65 30.3 13.37 47 15.08 7.94.81 16.14 1.88 23.93.77a263.73 263.73 0 0 0 29.82-6.12c17.18-4.53 34.23-9.1 49.95-17.72a292.66 292.66 0 0 0 26.16-16.4 309.65 309.65 0 0 0 26.07-20.48c9.37-8.12 18.48-16.66 26.05-26.55a265.32 265.32 0 0 0 17.49-25c6.93-11.61 12.87-23.8 19.35-35.68 6.3-11.54 10.55-23.85 14.09-36.44a153.8 153.8 0 0 0 8.07-27c1.54-1.77.82-4.06 1.26-6.07 1.94-8.92 4.23-17.82 4.49-27 2-6.91 2.2-14.06 2.9-21.14a257.29 257.29 0 0 0 3-30.86c-.34-8 1.85-16 1-24.06.08-17.06 1-34.12-.76-51.15 0-2-.45-4.06 0-6 1.1-5.24-2.71-7.39-6.18-8.47a55.51 55.51 0 0 1 -7.23-2.5c-4.73-2.27-10.26-1.22-14.74-3.94-8.63-5.24-18.39-8-27.43-12.4-7.08-3.46-14.26-7.32-22-9.53-3.68-1-7-3-8.9-6.66-1.31-2.59-3.83-1.44-5.64-1.53-2.18-.11-1.92 2.23-1.92 3.86 0 4.48.07 9 .11 13.44l-1.89 33.79zm73.12-46.92c2 1 3.48-.9 5.75-.5 9.54 1.68 18.14 6 27.29 8.73 3.17 1 7.85-.79 9.36-3.29 3.68-6.13 6.29-13.61 16.65-13.31-3.94-2.79-4.34-4.59-1.35-7.68 4.52-4.65 6.69-11.2 11.37-15.89l.64.5v-.44h-.7c1.53-6.68 5-13.15 2.23-20.32 0-.13.33-.61.55-.64 3.18-.45 1-1.22.09-1.76-3.44-2-7.39-2-11.16-2.41-4.49-.56-8.66-1.14-11.35-5.64-2.19-3.67-5.69-6.4-8.37-9.8-2.23-2.82-5.88-4.08-9.49-4.74-5.07-.93-9.77-.9-14.07-5.73-6.87-7.72-7.9-7.22-2.12-15.07 7.59-10.31 15.75-20.21 23.33-30.54.94-1.28 3.08-.92 2.88-2.27-.58-3.81 2.1-6.18 3.5-9.12a2.9 2.9 0 0 0 .36.25s.13 0 .2-.08l-.63-.07 3-8.8c-2.95-.87-5.18.07-7.49 1.68-19 13.26-36.34 28.87-55.71 41.68-8.15 5.39-15.69 11.81-25 15.39-1.19.46-1.59 1-.92 2.56 1.54 3.57-1.31 4.58-3.62 3.84-3.79-1.2-7.64-2.18-11.38-3.4-8.76-2.84-16.91-7.35-26.53-7.64-3.41-.11-7 .54-10.2-.28-4.1-1-4.68 1.48-5 4-.65 5.19 1.32 9.92 4.42 13.78 5 6.24 10.44 12.19 16.05 17.91 4.92 5 9.45 10.27 9.28 17.55-.13 5.85 5.24 7.85 7 12.23 5.24-3 8.1 2.72 12 4 9.35 3 17.86 8.58 26.77 13a82.55 82.55 0 0 0 13.67 5.81c3.51 1 8.42.93 8.73 6.53l-.69.46.62.17zm79.91-359.72c-5.32 1.65-10.91.68-15.69-.77-6.85-2.09-15.07-1-20.36-7.4-11.53-1.93-18.55-10.49-25.94-18.19-5.73-6-10.64-12.81-7.78-22 1.05-3.39 3.9-5.23 7.32-5.84 4-.71 2 3.08 3 4.77 1.56-2.48 3.15-3.53 5.57-1.6s5.56 2.6 8.43 3.67c12.83 4.81 25.16 10.84 38.12 15.36a58.68 58.68 0 0 1 11.91 5.83 7.84 7.84 0 0 0 7.91.36c1.61-.82.8-3.92.33-6-2.6-11.68-5.17-23.37-7.83-35-2.15-9.47-5-12.74-11.93-12.77-3.81 0-7.44-.95-11-1.63-7-1.34-14.22-2.91-21.13-3.33-8.19-.5-16.19-2-24.3-2.78-8.62-.83-9.11-2.13-6.77-10.49.06-.22-.23-.53-.36-.81-.64.55-1.53 1-1.86 1.66-3.45 7.16-4.7 8.26-12.31 6.71-8.84-1.79-18-2.1-26.72-2.41-8-.28-16.69-1.35-25 1.17-5.31 1.61-11.18.33-16.82.73-9.64.69-19 2.57-28.3 4.54-10.49 2.24-20.79 5.74-31.14 8.76-18.37 5.34-35.61 12.78-51.42 23.54-4.06 2.76-8.12 6.21-8.33 11-.43 9.75-.73 19.49-1.24 29.24-.69 13.1-.53 26.26-.8 39.38-.21 10.14.73 20.35.63 30.55-.12 12.23.18 24.37 3.92 36.22a17 17 0 0 1 .64 9.16c-.61 2.63 1 6 2.23 8.65.25.53 1.5 1.16.92 2.07a2 2 0 0 1 -2.95.74c-2.81-1.63-6-2.75-8.56-4.66a264.93 264.93 0 0 1 -30.6-26.69c-9.95-10-18.33-21.14-23.12-34.62-.61-1.72-1.24-2-3.15-1.71a107.78 107.78 0 0 0 -16.74 4.06c-2 .65-4.22 1.35-5.61 2.74-6.69 6.69-10.57 14.79-6.84 24s11.63 14.4 21.73 15.46c3.51.37 7.4-.69 10.56.45 4.48 1.62 8.79 3.39 13.61 3.65a4 4 0 0 1 3.9 2.6q6.06 18.23 12 36.49c4 12.36 6.72 25.16 16.48 35.09 9.09 9.25 16.75 19.89 25.68 29.3 13.22 14 29.49 24 45.68 34.11 8.46 5.27 18 8.31 26.8 12.82 5.45 2.79 10.86 2.78 16.59 2.28a39.43 39.43 0 0 1 23.26 4.59c5.46 3 10.82 6.21 16.26 9.25 1.5.84 2.32 1.28 3.62-.19 7.57-8.54 17.06-14.92 25.43-22.57 12.17-11.11 25.63-20.56 39.24-29.76 6.63-4.49 13.33-9.1 21.09-11.44 3-.91 6.34-1.32 8.14-3.87 6-8.53 12-17.25 15.67-27.09 7.86-21 15-42.21 19-64.37.22-1.22 1-2.82-.16-3.79s-2.71-.44-4.1.25c-4.06 2-8.77 1.36-12.89 3-4.39 1.76-8.38-1.08-12.11-1.85-4.9-1-9.48-5.48-12.73-10.16-.54-.77-1.28-2.51-.34-2.43 3 .25 4.43-3.2 8.12-2 11.4 3.83 23 1 34.52-.32 1-.11 2.57.45 2.72-1.35.23-2.55 1.22-5.53.24-7.52-.86-1.74-3.5.61-5.23 1.08-5.73 1.56-11.64-.86-17 .73-5.16 1.52-9.68.12-14.44-.72a16.87 16.87 0 0 0 -7.58 0c-5 1.37-8.8-.71-12.71-3.6-3.67-2.71-3.33-6.95-5-10.38-4.1-8.45-2.58-17 .61-25.35 4.14-10.85 12.62-17.33 22.76-21.95 14-6.37 28.1-8.7 42.46-.91 5.1 2.77 5.65 2.3 5.53-3.22a9.61 9.61 0 0 1 .59-2.75c1.85-6.4-.14-9.34-6.48-10-1.87-.21-3.89.2-5.64-1.37-2.25-2-1.38 1.15-2.21 1.58zm-294.76 326.42c3.84-1.22 4.34 1 5.08 3.37a192.87 192.87 0 0 0 11.21 28.57c.89 1.83 1.61 3.24 4 1.51 6.95-5 14.78-8.58 21.79-13.58s14.86-9 22.29-13.55c10.83-6.6 21.74-13 32.93-19 3.22-1.72 7.53-2.42 9.3-6.91-9 .17-17.46-1.57-25.95-2.8-16.15-2.33-32.24-5.29-47.39-11.65-6.57-2.75-13.42-5.6-16.24-13.79-7 3.58-12.66 9-18 14.87-.8.89-.45 2.13-.47 3.3-.1 8.37 2.4 16.35 3.89 24.44.49 2.65.27 3.62-2.44 5.22zm112.29-38.68a11.55 11.55 0 0 0 -.81-1.95c-5.72-7.65-11.9-15.08-10.57-25.64.15-1.14.15-2.22-1.6-2.46-16.86-2.32-30-12.32-42.74-22.22s-26.08-18.73-38.26-29.44c-.39.73-.85 1.17-.8 1.56q1.94 17.13 4 34.25c.79 6.78 1.29 13.74-.07 20.31-.78 3.72.45 4.9 2.79 6a37.9 37.9 0 0 0 7.89 2.56c11.79 2.63 23.6 5.22 35.44 7.66 14.76 3.05 29.71 5.29 44.73 9.37zm-58.55 301.74c-5.89.87-12.94 1.1-19.48 3a135.7 135.7 0 0 0 -34.77 15.77c-3.86 2.48-3.58 4.33-1.29 7.16 6.88 8.48 15.93 13.35 26.53 15.16 7.26 1.24 9.13.72 13.15-1.28s8.23-4.2 10.8-7.08c3.33-3.75 7-7.38 10.14-11.48 4.38-5.77 7.76-12.08 11.85-18 1.19-1.7.94-3.46-1.71-3-4.8.91-9.52.33-15.22-.21zm262.24-550.5c-8.6 7.81-18 12.36-28.49 12.4-10.33 0-17.85-6.68-23.88-14.51-6.49 6.46-9.12 14.31-10.54 22.66-.54 3.15-.36 5.49 4.37 5.31 11.74-.45 23.37-2 35.06-2.89 1.61-.12 3.79-.1 3.86 1.11.13 2.07.61 1.7 1.9 1.12 5.25-2.37 10.8-2.69 16.44-2.21 2.48.21 4-.79 4.82-3.19 2.63-7.42-1.46-13.43-3.54-19.76z" fill="#592ede"/><path d="m916 629.17c-6.86-.35-13.75-1-20.57.11-5.2.87-10.38.44-15.54.31-13.22-.34-26.51-.32-39.63-1.78-15.92-1.78-32-2.68-47.65-6.76-1.46-.38-2.7 0-2.24-2.55.37-2-2.32-1.88-3-.83a2.59 2.59 0 0 1 -3.8.94c-3.69-1.94-8.16-2.05-11.54-3.94-4.36-2.45-9.42-3.09-13.46-6-5.42-3.95-10-.37-14.64 1.76-9.64 4.44-18.95 9.68-28.85 13.4-6.5 2.45-12.42 6.32-19.29 7.71-1.2.25-3.09 2.09-3.54-1-.07-.51-1.67-.7-2.16.09-3.06 5-7 3.7-11.93 3.16-6.06-.66-11.15-3.44-16.8-4.76s-5.53-2.39-2.73-7.32c3.62-6.38 10.38-9.37 14.79-15 8.05-10.34 14.17-21.63 19.53-33.41 3.53-7.74 7.32-15.36 10.72-23.17 4.35-10 7.71-19.85 6.94-30.95-.55-7.94.41-15.89.81-23.82a267.56 267.56 0 0 1 2.72-30c1.19-7.19 1.07-14.68 4.06-21.52.83-1.9-.24-3.66.24-5.66 4.09-16.82 14.24-27.93 30-35 21.56-9.69 44.56-12.52 67.56-14.34a224.62 224.62 0 0 1 34 0 353.34 353.34 0 0 0 40 1.06c3.23-.13 6.35-.61 9.52-.8 6.88-.42 13.7.82 20.54 1.61 4.35.5 8.78 0 13.22.85 9.49 1.75 19.08 3 28.62 4.42 10.7 2.61 20.56 7.67 31.34 10.23a130.66 130.66 0 0 1 25.62 9.17c7.62 3.62 15.46 7.08 21.78 13.24 5.58 5.45 7.62 11.64 7.67 19.16 0 3.32 2.21 6.3 2.85 9.77 2.15 11.62 2.17 23.15 1.16 34.88-1.8 20.81-4.36 41.53-9.73 61.69-2.21 8.35-5.93 16.45-9.66 24.46-2.6 5.6-6.45 10.29-9.2 15.66-3 5.87-9.2 10-13.06 15.57-7.16 10.29-18 10.53-28.64 11.5-1.89.17-3.77 1.25-6 .4-1.13-.44-3.15 1.66-2.34-1.77.29-1.23-1.57-1-2.3-.65-2.8 1.18-6.16.14-8.72 2.24.72.84 2.69-.17 2.42 2.06-16.09 2.41-32.56 4.18-49.09 5.58zm17-80.17c4.35 1.48 8.71 3 13.06 4.45a14.25 14.25 0 0 0 11.63-.74c14.62-7.76 13.6-28.82.42-34.4a53.11 53.11 0 0 1 5.59-2.32 27.89 27.89 0 0 0 17.2-13.61c5-9 6.22-18.92-7.62-21.3-3.68-.63-2.1-3.24-2.19-5-.27-5.46-3.17-9.79-7.67-10a16.83 16.83 0 0 1 -7.52-2.15c-5.3-2.89-10.18-1.65-14.81 1.39a55.41 55.41 0 0 0 -17.54 19.07c-.83 1.44-1.57 4.47-4.66 2.05-2.58-2-2-3.65-.18-5.66a89.68 89.68 0 0 0 6.75-8c4.44-6.29 8.89-12.56 10-20.59.37-2.8-.73-4.6-2.87-4.84-3.24-.36-5.71-2.57-9.11-2.77 2.73-5.73 2.87-11.64 2.58-17.6-.33-6.58-3.46-10.42-9.9-11.69a20.62 20.62 0 0 1 -6.51-2.32c-5.54-3.25-10.05-1.16-13.63 2.88-10.15 11.45-15 24.78-12.29 40.17 1.33 7.58 1.64 7.52-5.46 10a44.2 44.2 0 0 0 -5.09 1.88c-3.23 1.59-4.15.49-4-2.83.16-4 .07-8-.12-12-.73-15-7.75-27.89-23.79-31.05a11.11 11.11 0 0 1 -3.52-1.67c-4.91-2.84-12.78-1.63-16.29 2.82-5 6.26-7 13.19-4.56 21.24 4.34 14.17 13.7 23.82 27.06 29.3 5 2 4.58 4.24 3.46 8.3a110.93 110.93 0 0 1 -9.26 23.24c-1.36 2.52-1.65 4.86-5.15 3.38.71-2.86 4.26-4.63 2.86-8.39-1.48-4-2.26-8.22-3.65-12.29-5.36-15.72-22.29-23.53-37-24-3.81-.11-12.08 8.42-12.08 12.14a17.39 17.39 0 0 0 .48 2.43c.52 3.52 2.78 6.51 4.79 8.83 8.25 9.49 17.85 17.48 30.16 21.32 2.95.92 4 2.41 3.58 5.4a21.1 21.1 0 0 0 .08 5.44c.25 2.15-.62 3.35-2.5 4.25s-3.38.83-4.66-1a3.48 3.48 0 0 0 -3.37-1.71c-7 1.54-13.58-2.2-20.87-1.18-9 1.26-18.31 14.11-14.93 22.7 2.6 6.63 8.37 9.09 14 11.55 10.09 4.38 20.39 6.32 30.7.41l.58.46c-1.28 4.93-3.16 9.79-3.71 14.8-1.36 12.31.45 26.27 16 30.51 5.47 1.49 11.15 3.07 15.7-.66 5.38-4.41 9.2-10.32 9.88-17.7.36-3.91.94-7.8 1.46-12 4 1.7 7.93 3.32 11.82 5a4.89 4.89 0 0 1 2.68 3.37c4.1 13 13 21.12 25.9 24.93 5.74 1.7 11.85 4.22 17.5.25 11.91-8.37 15.36-20.23 14.07-34.32a195.81 195.81 0 0 0 -3.41-20.37zm-113.8 73.58c3.3 3 7.17 1 10.66 1.51-3.27-2.09-6.81-2.34-10.68-1.48zm46.7 2c2.78 2.64 4.37 3.29 5.25.74.66-1.89 1.37-3.39 3.79-3.65-5.46-3.46-3.74 5.25-9.06 2.95z" fill="#fa5746"/><path d="m65 641.83c6.37.43 13.61 0 18.61 3.37 7.54 5.14 16.17 5.16 24.12 8 8.65 3.07 16.86 16.42 16.13 25.68-1 12.6-5.72 23.42-12.43 34-3.19 5-6.33 9.94-10.73 13.78-2 1.78-.68 6.62-5.33 5.78-.24 1.6 2 2.73.78 4.55a84.78 84.78 0 0 0 -4.49 8.68c-2.76 5.54-4.23 11.52-6.44 17.24-.54 1.39-.15 3.31.28 4.87.8 3 1.17 5.4-3.08 5.38a1.16 1.16 0 0 0 -.83.3c-1.43 1.88-1.36 1.52-4.26 1.08-6.22-1-10.72-3.84-13.77-9.49-2.51-4.64-2.31-9.74-2.19-14.42.24-8.84 2.74-17.62 2.83-26.44.13-12.8 6.29-23.08 11.69-33.85 2.86-5.73 5.25-11.7 3.5-18.46-.55-2.14-1.24-3.2-3.55-2.89-4.82.65-9.72 1-13.85 4-4.41.26-7.12 4.76-11.23 4.44.57 4.54-1.48 8.91-.17 13.21 0 .12-.16.31-.15.46.31 9.52.31 9.52-4.9 16.63-3.21-3.48-7.93-3.14-11.92-4.62-10.73-4-21.85-16.42-17.64-29.3 4.9-15 22.62-29.71 38.36-30.77 3.54-.29 7.08-.81 10.66-1.21z" fill="#452887"/><path d="m947 915.11c-7.67 7.54-14.33 16-20.82 24.47-3.51 4.61-7.76 8.64-10.2 14.33-1.69 3.93-4.9 7.65-7.79 11.19a16 16 0 0 0 -3.39 5.88c-1.24 4.78-5.12 6.77-10 5.3-2.15-.65-4.34-.83-6.53-1.81-8.51-3.83-10.34-8.5-6.92-17 3.72-9.26 7.9-18.5 9.44-28.38 1.68-10.8 8.65-18.32 14.49-26.61a140 140 0 0 1 23.08-25.2c.94-.81 1.23-2.52 2.23-3.1 5.6-3.24 4.14-7.81 2.33-12.24-2-4.92-6.9-3.47-10.35-3.33-10.61.42-20.74 3-29 10.35-1.15 1-1.9.74-3 .16-3.79-2-7.93-3-12-4.32-1.74-.56-3.59-1.29-3.8-4-.19-2.41.35-3.13 2.65-4.11 2.63-1.13 1.79-4.84 3.29-7.25 4.91-7.91 12.41-11.51 20.84-13.93a34.61 34.61 0 0 1 23.69 1.18c2.8 1.18 5.76 1.14 8.67 1.44 6.29 5.19 14.51 5.51 21.74 8.19 13.29 4.92 22.26 16.44 18.63 31.07-1.91 7.72-6.9 12.66-11.21 18.64-4.88 6.84-11.15 12.36-16.07 19.08z" fill="#452887"/><path d="m900 1042c-7-2.73-14-5.19-20.81-8.29-3-1.36-5.56-3.82-8-6.14-1.42-1.36-3.33-3.33-1.57-5.57 3.63-4.61 6-10.22 10.77-13.93 2.31-1.78 4.64-1.76 7.26-.73 6.45 2.53 12.33 6.17 19.77 6.65 4.14.27 6.07 5.43 6 10.11-1.28 7.36-6.48 12.1-11.39 17-.93-.29-1.7-.21-2 .88z" fill="#452887"/><path d="m900 1042c.32-1.09 1.09-1.17 2-.88a2 2 0 0 1 -2 .88z" fill="#cbefed"/><path d="m783.28 218.05c1.06 1.29 0 3 1.91 3.77 1.31-1.41 1.47-3.83.58-4.74-4.47-4.59.56-8.53.57-12.76 0-.42.75-2.46 2.34-.9.89.87 1.59 0 2-.69.53-.92.06-1.56-1-1.63-3.36-.23-1.75-2.51-1.46-3.93 1-4.75 4.37-8.15 6.92-12 6.39-9.77 13.58-18.68 23.54-25.12 5.34-3.45 5.91-16.51.7-19.93-4.36-2.87-9.73-1.62-14.49-.85a53.85 53.85 0 0 0 -24.74 10.24 5.53 5.53 0 0 1 -5.84.93c-2.49-.8-5.08-1.26-7.6-2.16-6.93-2.46-8.7-6.13-5.08-12.21 8.33-14 20-22.86 37-22.4a54.91 54.91 0 0 1 21.2 4.5c3.49 1.55 7.27 3.58 11.4 4.62 5.46 1.37 11.61 1.91 16.62 5.25a32.28 32.28 0 0 1 12 14.65c3.09 7.29.54 14.3-1.17 21.25-1.13 4.58-3.2 10-6.19 12.51-4.45 3.74-6.87 8.85-11.15 12.46-8.27 7-16.53 13.95-24.18 21.64-2.4 2.4-3.72 5.49-5.05 8.29-2.79 5.87-6.9 11.09-8.67 17.43-.27 1-1.42 1.67-.72 3.06.9 1.77 2.73 3.9-.18 5.48-2.43 1.32-4.8 3.12-7.94 1.29-1.61-.94-3.64-1.15-5.44-1.81-6.19-2.31-9.25-6.64-8.92-13.15.14-4.34.48-8.69 3.04-13.09z" fill="#452887"/><path d="m819 297.51c-.39 2.35-1 5.67-4 8-.51.4-.78 1.12-1.31 1.48-3.58 2.47-3.85 9.44-9.13 8.74-7.46-1-15.21-1.44-22.21-4.82-4.65-2.24-2.32-6.46-2.1-9.67s1.82-6.14-1.56-9.22c-2.39-2.18 1.46-2.13 2.41-2.68 1.42-.82 3.26 0 2.16-3.25-1.21-3.58 3.54-6.89 7.37-5.42 5.31 2 10.5 4.41 15.77 6.58 2 .81 3.42 2.36 6.26.84 2.5-1.3 6.47 4.23 6.34 9.42z" fill="#452887"/><path d="m100.92 811.82c1.54 6-3.64 9.31-6.88 13.29-2.3 2.82-6 1.31-9.19 1-8.38-.93-13.58-6.75-19.18-12a2.69 2.69 0 0 1 -.62-1.78c-.16-9.23 10-15.52 18.53-12 4.13 1.69 8.15 4 13.09 3.87s4.47 3.8 4.25 7.62z" fill="#452887"/><path d="m279 194.46c1.54-1.65 2.61-3.55 5.2-.61 2.25 2.56 6.23 1.49 9.35 1.91 5.47.74 11 .89 16.12 3.26 4.1 1.9 7.54.24 11.24-1.52 8.14-3.89 13.57-10.84 19.89-16.8 15.45-14.57 33.3-23.74 54.75-26.07 4.79-.52 10.72 1.6 14.75-3.38.57-.7 1.94-.41 2.82.16 6.86 4.45 14.87 3.18 22.35 4.47a101.34 101.34 0 0 1 17.53 4.94c1.81.66 4.14-1.63 5.79 1.65 1 2 4.77 2.57 7.15 4a58 58 0 0 1 6.73 4.81c2.67 2.23 5.92 3.61 8.13 6.57 1.67 2.22 4.3 2.47 7.24 1.52 6.58-2.13 12.42-6.24 19.29-7.36 5-.81 9.71-2.54 15.07-2.65 13.94-.29 27.13 3.11 40.23 6.72a80.13 80.13 0 0 1 24.24 11.74c.2 2 1.08 3.2 3.25 3.09v-.12c-.05 2.66 1.6 3.26 3.83 3.17a44.84 44.84 0 0 1 9.14 20.51c1.24 7.89 4.83 14.11 11.09 19.61 7.11 6.23 15 9.89 23.82 12.4 13.55 3.84 22.92 9.31 31.89 19.18 13.81 15.2 19.19 31.14 8.89 51.55-2.57 5.09-6.21 9.7-9.8 14.18-2.61 3.26-2.7 6.62-.82 9.66a100.4 100.4 0 0 1 14.2 38.16c1.25 8.28.87 16.55.23 24.8-.26 3.33.44 6.92-1.47 10.05-.13-.1-.25-.25-.4-.29s-.4 0-.43.09c-1.39 4-2.65 8.06-2.21 12.41.26 7.24-3.4 13.4-6.58 19.27-8.66 16-19.91 29.94-35.3 40.13-1.72 1.14-3.3 2.53-5.1.25-1-1.22-2.24-1.84.37-3.43 3.81-2.32 4.24-7.13 5.6-11.17 3.21-9.51 2.16-19.31 1.66-29-.33-6.24-1.72-12.67-2.29-18.76a102.81 102.81 0 0 0 -6.44-26.31c-2.68-7.27-7.06-13.51-11.81-19.77-8-10.5-19.49-13.5-30.83-17.24-1.56-.51-3.8-1.59-5.6.31a2.23 2.23 0 0 1 -1.76.19c-1.73-4.49-6.3-2.59-9.34-4.09-2.61-1.29-5.93-2.12-6.42 3.63.56-8.16-5.61-5.34-8.49-6-24.24-5.46-49-6.84-73.67-6a319.26 319.26 0 0 0 -46.17 5.21 310.35 310.35 0 0 0 -57.22 16.08c-15.7 6.07-31.3 12.74-44.35 24a22.7 22.7 0 0 0 -8.05 16.22 73.88 73.88 0 0 1 -2.2 11.14c-4.12 16.72-5.1 33.86-6.78 50.9-.9 9.16-2.11 18.56-.92 27.56 1.14 8.62.08 17.4 2.6 26 1 3.51.36 7.7 1.14 11.55.41 2 2.82 3.65 1 6l-.52.43c-4.44-13.37-14.78-22.92-22.14-34.37-1.66-2.57-3.46-5.06-4.94-7.73-3.14-5.64-8.41-7.93-14.21-9.49-.32-.08-.77-.46-.89-.36-5.84 4.4-11.94.09-17.89.29-15.56.51-26.94 6.8-33.32 21-3.67 8.16-6.62 17-1 25.41a40.7 40.7 0 0 0 15.95 13.88 132.76 132.76 0 0 0 30.72 10.75 4.14 4.14 0 0 0 1 .18c2.66-.12 5.91-3.08 7.73-.08 1.27 2.08.85 5.4 1.31 8.17 3.17 18.84 7.15 37.44 15.22 54.92-2.35.28-2.69 2.13-3.07 3.94-12.33.18-24-2.71-35.3-7.47-7.73-3.25-14.23-8.15-21-13.1-7-5.15-12.12-13.9-22.47-14.32-7.53-.31-14.92-2.15-22.23-4-4.09-1-8.06-2.59-12.08-3.91-2.4-4.83-7.6-4.26-11.6-6-9.47-9.79-12.37-22.11-13.32-35.09a69.67 69.67 0 0 1 .06-13.47c.79-6.43-2.76-10.32-7-13.93-8.07-6.8-16.69-13.15-23.22-21.42-4.77-6-7.21-13.51-7.91-21.46-2.22-25.51 8.68-46.55 22.57-66.5 3.28-4.71 4.35-8.77 1.23-14a142.85 142.85 0 0 1 -9.9-18.8 57.82 57.82 0 0 1 -4.27-23.73c.46-20.52 9.1-37.73 20.15-54.27 6.73-10.07 15.59-17.49 25.8-23.67 3.07-1.86 7.26-.23 9.78-4.16a31.08 31.08 0 0 0 3.14-7.62c3.94-12 11-22.06 19.55-31.22 10.64-11.43 21.86-22.26 36.28-28.79 4.08-1.85 7.77-5.27 12.78-4.83.33.56.63.52.9 0a.92.92 0 0 1 .85-.12c5.25.24 10.38-.82 15.49-1.73 1.83-.37 4.4.83 5.64-1.81z" fill="#cdcde5"/><path d="m275.94 979.06c-4.45-3.29-3.59-8.57-3.66-12.76-.21-14 3.29-27.68 7-41 2.34-8.36 5.58-16.55 11-24 3.28-4.5 5.61-7.34 11.18-6.19 2.41.49 4.08 2.32 6.59 3.06 10.69 3.13 20.58 7.22 29.73 14.72 8.59 7 18 13.62 27.32 20 2.6 1.76 4.31 6.13 7.19 5.34 1.86-.51 2.56-5 3.9-7.72 8.21-16.34 18.27-31.61 27.53-47.34 2.74-4.66 6.68-8.67 9.46-13.49 1.31-2.26 3.82-3.43 7.16-1.8a76.12 76.12 0 0 0 15.51 6.06c.67 4.76-2.08 8.93-2.32 13.6-.1 2-1 3.75 1.33 5.08a2.25 2.25 0 0 1 .78 3.09c-.59 1.23-1.66.26-2.4.38-2.38.41-2.55 3.88-1.84 4.11 5.2 1.67-.09 2.19-.35 2.83-1.76 4.33-2.12 8.95-3 13.44-2.12 10.5-3.88 21.08-5.92 31.6-.72 3.72-.27 7.79-3 11-1 1.17-3.61 0-3.71 1.54-.37 5.83-1.36 11.32-5.38 15.9a14.84 14.84 0 0 0 -1.94 3.44c-2.18 4.59-2.82 9.71-7.49 13.33a40 40 0 0 0 -7.39 8.43c-4.3 6.07-8.23 7.16-14 3.19-5.37-3.67-11.64-4.6-17.5-6.75a35.89 35.89 0 0 1 -9-5c-2.16-1.59-1.31-3.16.9-6.08-4.1 2.34-5.82 1.15-7.86-.64a309.74 309.74 0 0 1 -24.64-24.43c-1.52-1.67-2.72-4.15-5.31-4.78-1.48 2.41-1.32 5-2.17 7.26-4.56 11.88-9.2 23.74-14.2 35.44-1.56 3.64-2.87 7.65-6.16 10.36-.42-1.59-1.24-3.19-1.2-4.76.44-19.25-4.22-38.11-4.26-57.41-5.18 9.89-12.27 18.97-11.88 30.95z" fill="#9b81ea"/><path d="m312.07 783.68c2.71-1.6 3-2.57 2.47-5.26-1.49-8.09-4-16.07-3.89-24.44 0-1.17-.33-2.41.47-3.3 5.32-5.87 11-11.29 18-14.87 2.82 8.19 9.67 11 16.24 13.79 15.15 6.36 31.24 9.32 47.39 11.65 8.49 1.23 16.95 3 25.95 2.8-1.77 4.49-6.08 5.19-9.3 6.91-11.19 6-22.1 12.44-32.93 19-7.43 4.53-15.24 8.51-22.29 13.55s-14.84 8.57-21.79 13.58c-2.4 1.73-3.12.32-4-1.51a192.87 192.87 0 0 1 -11.21-28.57c-.77-2.37-1.27-4.55-5.11-3.33z" fill="#9a80ea"/><path d="m727.89 1085.8c-6.87-3.12-14.8-4.4-19.63-11.07a86.16 86.16 0 0 1 -6.92-10.26c-9.65-18.49-24.38-32.1-40.84-44.42-12-8.94-25.49-14.4-38.87-20.37a62.58 62.58 0 0 0 1.65-12.78c7.8.49 14.7 4.41 22.26 5.86 3.31.64 6.45 2.14 9.69 3.2.78.25 2.06 0 2.37.48 3.54 5.29 10.13 2.91 14.61 6 4.83 3.33 10.68 5.44 14.94 9.33 6.79 6.19 16.37 9 21 17.92 1.31 2.53 5.2 3 7.48 5.37a166.09 166.09 0 0 1 24.63 32.21c.22.38.82.53 1.25.8a74 74 0 0 1 -13.62 17.73z" fill="#cecee5"/><path d="m619 1013c4.43 2.87 9.74 4.09 13.75 7.83 9.14 8.53 18.14 17 24.58 28 6.67 11.43 12.76 23 17.42 35.43 2.19 5.79 4 11.33 2.51 17.8-1 4.1-.21 8.6-.22 12.92-2.57 3.19-6.6 1.5-9.79 2.87-2.43 1-5.36.9-8.07 1.29-.22-3-3.63-.34-4.74-2.93-3.76-8.81-10.87-15.91-13.76-25.16-5.41-17.37-10.86-34.7-19.71-50.7a54.58 54.58 0 0 0 -11-14.48c3.95-3.56 6.29-8.34 9.03-12.87z" fill="#cecee5"/><path d="m441.19 946a28 28 0 0 0 8.69 3.53c8.59 1.86 16.23 5.63 24.09 9.72 15.59 8.08 28.91 18.88 42.54 29.58 7.64 6 14.62 12.82 22.66 18.33a153.8 153.8 0 0 1 -8.07 27c-4-4.58-9.32-7.62-14.26-11a97.93 97.93 0 0 1 -13.67-11.35 286.88 286.88 0 0 0 -28.33-24.34c-11.85-9-23.62-18.05-35.45-27.06a4.3 4.3 0 0 0 -1.39-.41c1.58-4.57 1.19-9.57 3.19-14z" fill="#cecee5"/><path d="m581.92 1040.2a164.24 164.24 0 0 0 21.18-9c2.71 5.12 6.27 9.9 7.73 15.52a109.09 109.09 0 0 1 3.26 35.33c-.2 2.75-.37 4.83-4.59 5 3.42.57 3.87 2.42 3.39 4.58-.67 3.07-1.45 6.12-2.34 9.13-.31 1.06-.77 2.74-2 2.64-3.49-.29-2.85 1.18-1.59 3.09.4.62.71 1.37 0 1.72-4.75 2.44-6.11 8.42-11 10.57-1.54.68-2 1.47-1.92 3-5.37 1-10.76-.69-16.13.1 0-4.91.54-9.72-2.41-14.37-1.29-2-1.24-5.62-.52-8.13 5.54-19.38 5.77-39.38 6.94-59.18z" fill="#cecee5"/><path d="m450.1 896c14.08 4.07 28 8.6 40.88 15.69 5.75 3.16 11 7.2 16.7 10.48 10.05 5.77 18.95 13.14 28.22 20 4.3 3.17 8.74 6.33 11.92 10.79-.7 7.08-.93 14.23-2.9 21.14a60.29 60.29 0 0 1 -21.67-11.52c-16.58-14-34.42-26.21-52.85-37.6-1.8-1.11-3.91-2-4.46-4.43-.09-.41-.55-1.1-.8-1.08-7.56.58-11.36-6.93-18-8.31 1.78-4.96 1.75-10.16 2.96-15.16z" fill="#cdcde5"/><path d="m550.84 922c-2.22-3.21-5.35-3.74-9.1-4.46-9.07-1.74-17-6.62-24-12.51-14.62-12.24-31.37-21.19-47.37-31.29-5.44-3.43-10.62-7.34-16.58-9.91l1.41-16.94c15.07 2.38 27.9 9.43 40 18.42 4.34 3.22 10 4.69 14.76 7.36 6.18 3.43 12.78 6.44 17.78 11.47 2 2 4.25 2.23 6.25 3.11 6.46 2.81 11 8.66 17.88 10.69.82 8.06-1.37 16.06-1.03 24.06z" fill="#cecee5"/><path d="m551.12 846.82c-.71.54-2.54-.59-2.24 1.42.42 2.87-.83 5.25-3.35 5.73s-5.44 0-4.79-4.11c.15-.93-1.68-1-1.94-.58-2 3.37-4 .87-5.84.09-13.27-5.6-26.62-11-39.46-17.59q-18.21-9.31-36.4-18.65c0-4.48-.1-9-.11-13.44 0-1.63-.26-4 1.92-3.86 1.81.09 4.33-1.06 5.64 1.53 1.86 3.66 5.22 5.62 8.9 6.66 7.78 2.21 15 6.07 22 9.53 9 4.41 18.8 7.16 27.43 12.4 4.48 2.72 10 1.67 14.74 3.94a55.51 55.51 0 0 0 7.23 2.5c3.47 1.08 7.28 3.23 6.18 8.47-.36 1.9.05 3.96.09 5.96z" fill="#9a80ea"/><path d="m539.13 1120.9c-5.37.19-10.74.34-16.11.63-.91 0-1.67.22-1.94-.82a3.82 3.82 0 0 1 .93-3.2c6.41-9.62 11.85-19.79 17.38-29.94 7.48-13.73 12.56-28.34 17.16-43.16 1.15-3.71 2.67-5.08 6.34-3.67s7.5-2.11 11.16.31c-.49 6.87-2.41 13.47-3.73 20.19-2.58 13.2-9.71 24.44-14.66 36.59-3.66 8.89-11.09 15.32-16.53 23.07z" fill="#9a80ea"/><path d="m170.38 581.05c4 1.73 9.2 1.16 11.6 6-4.54-.7-8.64-2.26-11.6-6z" fill="#cbefed"/><path d="m387 1030.83c2.1-1.63 4.09-.75 6.08.25-.54 1.61-.6 3.75-2.84 3.89-2.4.14-1.74-2-2.07-3.33-.08-.34-.76-.54-1.17-.81z" fill="#cbefed"/><path d="m322.56 544.5c.42.55.8 1.44.24 1.72-.93.45-.7-.64-.91-1.13a6.28 6.28 0 0 0 .67-.59z" fill="#cdcde5"/><path d="m321.89 545.09-1.28-1.77.52-.43 1.43 1.62a7.54 7.54 0 0 1 -.67.58z" fill="#cdcde5"/><path d="m824.54 554.64c-10.31 5.91-20.61 4-30.7-.41-5.66-2.46-11.43-4.92-14-11.55-3.38-8.59 6-21.44 14.93-22.7 7.29-1 13.83 2.72 20.87 1.18a3.48 3.48 0 0 1 3.37 1.71c1.28 1.81 2.75 1.91 4.66 1s2.75-2.1 2.5-4.25a21.1 21.1 0 0 1 -.08-5.44c.42-3-.63-4.48-3.58-5.4-12.31-3.84-21.91-11.83-30.16-21.32-2-2.32-4.27-5.31-4.79-8.83a17.39 17.39 0 0 1 -.48-2.43c0-3.72 8.27-12.25 12.08-12.14 14.72.43 31.65 8.24 37 24 1.39 4.07 2.17 8.29 3.65 12.29 1.4 3.76-2.15 5.53-2.86 8.38 3.5 1.49 3.79-.85 5.15-3.37a110.93 110.93 0 0 0 9.26-23.24c1.12-4.06 1.54-6.26-3.46-8.3-13.36-5.48-22.72-15.13-27.06-29.3-2.46-8-.39-15 4.56-21.24 3.51-4.45 11.38-5.66 16.29-2.82a11.11 11.11 0 0 0 3.52 1.67c16 3.16 23.06 16.07 23.79 31.05.19 4 .28 8 .12 12-.13 3.32.79 4.42 4 2.83a44.2 44.2 0 0 1 5.09-1.88c7.1-2.48 6.79-2.42 5.46-10-2.71-15.39 2.14-28.72 12.29-40.17 3.58-4 8.09-6.13 13.63-2.88a20.62 20.62 0 0 0 6.51 2.32c6.44 1.27 9.57 5.11 9.9 11.69.29 6 .15 11.87-2.58 17.6 3.4.2 5.87 2.41 9.11 2.77 2.14.24 3.24 2 2.87 4.84-1.07 8-5.52 14.3-10 20.59a89.68 89.68 0 0 1 -6.75 8c-1.8 2-2.4 3.65.18 5.66 3.09 2.42 3.83-.61 4.66-2.05a55.41 55.41 0 0 1 17.54-19.07c4.63-3 9.51-4.28 14.81-1.39a16.83 16.83 0 0 0 7.52 2.15c4.5.2 7.4 4.53 7.67 10 .09 1.77-1.49 4.38 2.19 5 13.84 2.38 12.57 12.29 7.62 21.3a27.89 27.89 0 0 1 -17.16 13.51 53.11 53.11 0 0 0 -5.59 2.32c13.18 5.58 14.2 26.64-.42 34.4a14.25 14.25 0 0 1 -11.63.74c-4.35-1.5-8.71-3-13.06-4.45a2 2 0 0 0 -.21-.38s-.18 0-.28 0l.56.3a195.81 195.81 0 0 1 3.41 20.37c1.29 14.09-2.16 26-14.07 34.32-5.65 4-11.76 1.45-17.5-.25-12.87-3.81-21.8-11.93-25.9-24.93a4.89 4.89 0 0 0 -2.68-3.37c-3.89-1.68-7.8-3.3-11.82-5-.52 4.17-1.1 8.06-1.46 12-.68 7.38-4.5 13.29-9.88 17.7-4.55 3.73-10.23 2.15-15.7.66-15.59-4.24-17.4-18.2-16-30.51.55-5 2.43-9.87 3.71-14.8.69-.26 1-1 .51-1.34s-.81.47-1.13.86zm34-51.08c3.42-1.8 7-3.52 3-7.91-2.2 2-3 4.61-3.69 7.28l-1.41 1.64c1.27.73 1.61-.32 2.13-1.01zm-15.15 18.89c-3.56 2.09-4.5 5.45-4.43 9.27 0 .75-.26 1.76.87 2a1.81 1.81 0 0 0 2-1.2 19.54 19.54 0 0 0 2.27-9.45c.69-.3 1.14-1 .6-1.46-.7-.61-.89.47-1.28.84zm78.65 52.82c.5-3.59-.89-6.9-1.18-10.32-.2-2.3-.11-3.67-3.09-4.44s-3.47 1.09-4.34 2.63c-3.58 6.36-8.43 11.24-15.51 13.49-2.25.71-2.31 2.06-1.76 3.81 1.78 5.68 5.53 10.25 9.68 14.11 2.42 2.26 6.19 2.55 9.71-.43 6.14-5.12 5.57-12.19 6.52-18.85zm-97-73.57c-.63-9.55-3-17.4-8.65-23.75-3.08-3.46-6.17-7.59-12-7-4.72.52-7.41 4.23-5.65 8.4 4.53 10.78 12.86 17.78 22.85 23.32 3.54 1.94 3.73.78 3.52-.97zm-19.74 49.3c7.65.16 15.51-5.55 17.28-12.52.33-1.28.92-2.54-.77-3.38-5.16-2.55-10.38-5.2-16.27-5-6.45.2-12.66 3-12.54 8.64a12.67 12.67 0 0 0 12.3 12.26zm73.7-11.52c.86-3.3-1.94-5-3.32-7.34-2.75-4.61-6.37-1.64-9-.18-3.2 1.77-8.73 2-8.11 7.53 1.11 10 7.45 17 14.24 23.66.75.73 2.25 1.62 2.93 1.32 1.55-.68.55-2.19.44-3.46a21.49 21.49 0 0 1 .33-4.92c.77-5.54 1.64-11.09 2.49-16.61zm-24.8-80.48c-1.55-9.15-2.56-19.2-9.83-27-1.59-1.71-3-4.46-6.14-2.54a6.86 6.86 0 0 0 -2.92 7.83c3.08 9.09 5.57 18.7 14.12 24.73 1.28.9 2.14 3.28 3.88 2.39 1.57-.89.36-3.13.89-5.41zm40.94 27.14c-.14-7.34-3-9.41-10-7.86-3.78.85-7.54 3.09-11.7 1a1.55 1.55 0 0 0 -2.24 1.72c.93 4.87 1.95 9.73 3.19 14.54.51 2 1.71 2.7 4.13 1.77a67.06 67.06 0 0 0 15.77-8.94c.93-.7 1.48-1.21.85-2.28zm74.86 7.86c-.23-2.14.79-4.73-1.45-5.64-2.41-1-3 2.05-4.5 3.17a39 39 0 0 0 -3.5 3.54c-6.65 6.44-14.74 8.93-23.83 8.5-2.16-.1-3.54.55-3.74 2.86-.17 1.91-.25 3.63 2.51 3.81 1.44.09 2.81.74 4.37.69 7.94-.31 15.55-1.78 22.61-5.61 4.68-2.54 7.89-5.88 7.53-11.32zm-128 61.68c-4.18 11.31-6.61 21.75-2 32.64.61 1.42.49 3.65 2.68 3.54a5.26 5.26 0 0 0 4.56-4.09c1.63-10.87 2.48-21.77-5.24-32.09zm109.26-19.44a27.54 27.54 0 0 0 -.26-3.77c-.7-3.1-1.75-6.62-4.83-7.49-3.8-1.08-7.87.79-10.29 3.56-1.79 2.06 1.56 4.5 2.36 6.86a13.15 13.15 0 0 0 2.41 3.73c1.79 2.25 3.18 5.07 7.1 3.62s3.25-4.45 3.48-6.51zm-47.26-14.62c-2.14 4.69-3.48 8.59-5.59 12-2.6 4.27-1.79 7.56 1.66 10.66 1.9 1.71 3.65 4.63 5.15-.56a23.22 23.22 0 0 1 4.44-7.66c1.57-2 1.3-3.61.23-5.38-1.69-2.76-3.54-5.46-5.89-9.06zm-2.79-70.62c6.16-7.47 9.58-15.08 7.8-24.36-.2-1-.44-2.08-1.61-2.06-.89 0-1.07 1-1.42 1.81-3.34 7.61-5.9 15.38-4.77 24.61zm-17.21 56.12c-6.43.05-7 .92-4.55 6a11.9 11.9 0 0 0 .56 1.37c2.85 4.59 7.39 4.53 10.72.55s1.08-5.49-2.3-6.75a33.08 33.08 0 0 0 -4.43-1.17zm39.34-53.12c-9.17 3.86-12.89 10.75-15 18.89-.3 1.11-.23 2 .79 2.56s1.47-.48 1.95-1c5.05-5.91 9.67-12.04 12.26-20.45zm-28.8 97.53c-2.21 3.64-1.43 7.5-1.52 11.25 0 2.32.75 2.55 2.6 1.16 5.77-4.38 5.82-8.13 0-11.84-.28-.2-.62-.33-1.08-.6zm-1.36-50.17c2.74-.38 5 3.57 7.07 1.41 2.48-2.58-1.07-4.81-1.75-8.72-1.07 3.95-3.61 5-5.32 7.28zm-29.94 18.04c2.59-1.28 5.71-1 4.58-4.91-2.19.65-4.01 1.56-4.58 4.91z" fill="#452786"/><path d="m819.18 622.61c3.87-.86 7.41-.64 10.66 1.51-3.49-.5-7.36 1.49-10.66-1.51z" fill="#cecee5"/><path d="m865.88 624.62c5.32 2.3 3.6-6.41 9-2.91-2.42.26-3.13 1.76-3.79 3.65-.84 2.55-2.43 1.9-5.21-.74z" fill="#cbefed"/><path d="m864 270c2.06-5.32 2.31-5.35 7.52-.53-2.51 1.32-5.23-1.18-7.45.6z" fill="#cbefed"/><path d="m302.58 814c.49 1.67.36 3.15-1.53 2.85a6.08 6.08 0 0 1 -4.69-4.32c-.46-1.59 2-3 3.26-3 2.38.2 3.27 2.27 2.96 4.47z" fill="#cbefed"/><path d="m194.37 896.83c0 2.53 2.27 5.22-1.11 8.94 1.24-3.77-.82-6.35 1.11-8.94z" fill="#cbefed"/><path d="m293.32 814.63-.36.14-.1-.54a1.12 1.12 0 0 1 .38.09c.07.05.06.21.08.31z" fill="#cbefed"/><path d="m462 514.33c4.34 3.27 4.81 7.09.68 11.3a14.82 14.82 0 0 1 -13.26 4.59 26.59 26.59 0 0 0 -6.43-.15 10.34 10.34 0 0 1 -7.77-2.1c-1.87-1.4-3.83-1.14-6.57.44-3.95 2.28-9.3 1-13.93.34-4.06-.58-8.05-1.16-12.16-1.45-7.67-.53-15.05-2.92-22.44-5a27.29 27.29 0 0 0 -5.11-.53c-5.46-.53-11.19-1.06-15.15-5.54-1.17-1.32-4.48-2.77-1.37-5.5.72-.62-.12-1.14-.57-1.56-6.76-6.33-4.41-12.87-.3-19.29a124.22 124.22 0 0 1 9-12.94c5-6 12.36-8.76 19.27-11.59 5.59-2.3 11.5-4.56 17.9-4.37 18.3.56 33.69 7.36 46 21 2.41 2.68 5 5.26 7.44 7.88a34.61 34.61 0 0 1 8.65 17.76c.78 3.8.12 4.52-3.88 6.71zm-65.56-31.45c-11.21 4-16.29 13.91-22.22 22.91-.66 1-1 2.81 1.51 3.25a316 316 0 0 0 32 3.87c11.47.84 23 2 34.12 4.44 5.63 1.26 5.39-2.08 6.77-4.69.5-.95.26-2.29.38-3.44.36-3.58.09-5.24-4.37-3.16a35.58 35.58 0 0 1 -22.82 2.94c-3.53-.77-7.61-1.75-9-5.22a16.78 16.78 0 0 0 -4.89-6.2c-4.68-4.26-8.92-8.74-11.46-14.7z" fill="#592ede"/><path d="m437.09 446.46c-12.09-1.46-24.52-1.46-36.33-6.34-8.12-3.34-15.93-6.87-23-12.08-1.64-1.21-4-3-3.23-4.51.67-1.34 3.13-2.33 5.46-2.71 9.37-1.51 18.82-2.36 28.11-4.57 10.6-2.52 20.45-6.83 30.53-10.71 7.94-3.06 14.41-8.35 21.73-12.27 3.71-2 7.93-3 12-4.38a2.66 2.66 0 0 1 2.28.62c3.44 3.74 7.22 7.27 10 11.47 3.64 5.51 1 17.31-2.26 23.16-7.11 12.63-18.95 17.17-31.67 20.54-4.38 1.15-9.03 1.21-13.62 1.78z" fill="#592ede"/><path d="m505.49 586.81c6.14 1.3 12-1.16 18-2s13.88-15.67 11.32-21.14c-2-4.31-6.71-5.62-10.79-7-8.49-3-14.95-13.27-12.9-21.52 1.24-5 1.45-10.11 1.89-15.21 1.14-13.15.34-26.51 4-39.38 1.29-4.5 1.15-9.33 3.76-13.55 2.35-3.79 3.91-4.25 6.78-.87 3.67 4.34 3.69 9.45 3.18 14.78-1.36 14.11-2.39 28.24-3.81 42.34-.55 5.53-1.76 11-2.73 16.49-.45 2.55-.65 4 2.66 5.59 5.25 2.49 10.7 5.69 13 11.59 1.05 2.63 3.66 2.26 5.23 4.06 9.47 10.9 7 18.58.2 28.14-4.37 6.13-10.74 8.85-18 10.24s-14.19 2.95-21.63 3.07c-4.61.07-8.22-2.26-12.59-2.69-12.94-1.26-22.39-8.75-30.39-18.8-5.08-6.39-2.48-14.38 5-17.56a24.36 24.36 0 0 0 3.25-1.11c7.37-4.49 9.51-4 14.14 3.15 1.05 1.62 0 2.38-1 2.44-4.86.28-6.69 4-8.85 7.38-2.46 3.85-1 6.13 3 7.24 4.4 1.21 8.76 2.82 13.25 3.37s9.23 1.94 14.03.95zm36.72-5.33c0-2.76 2.37-4.37.84-6.83-.34-.55-1.27-.93-1.64-.24-1.12 2.08-1.41 4.25.8 7.07z" fill="#5a2fdf"/><path d="m424.74 613.33c12.65-.52 25 1.48 37.42 3.68a204 204 0 0 1 24 5.94c4.59 1.39 8.37 5.3 12.24 6.78 8.72 3.34 12.12 11.47 18.67 16.49 1 .73 4.37 1.72 1.89 3.82-1.13 1-3.21 2.47-5.71.9-6.31-4-12.66-7.86-18.91-11.83-4-2.53-9.38-5.68-15.32-5.18s-11.13-2.94-17.17-3.11c-7.16-.2-14.39-.86-21.58-1.53-11.62-1.06-23 .94-34.43 2.43-5.44.71-9.23-.68-11.95-5.54-1.41-2.51-1.46-4.44 1.89-6.32 9.09-5.1 18.95-5.98 28.96-6.53z" fill="#5a2fdf"/><path d="m372.92 532.75c9.17-5.19 17 1.77 25.43 1.4 2.72-.12.1 2.65 2.19 3.16 1-2.82 3.61-3 5.79-2.17 6.09 2.47 12.92-1.19 18.76 2.56 3.85-3.82 6.59 1.07 9.93 1.29.84.06 1.74.2 1.82 1.27s-.61 1.51-1.49 1.67c-12.08 2.19-24 7.39-36.33 5.61-10.15-1.46-19.64-5.84-26.1-14.79z" fill="#5a2fdf"/><path d="m469.92 661c-7.92-.11-15.33-2.13-22.67-4.22-4.14-1.19-6.9-4.9-10.26-7.48-1.53-1.18-3.79-3.12-2.47-5.12a6.55 6.55 0 0 1 6.46-2.64c6.95 1.2 13.9 3.68 20.81 3.56 8-.14 10.39 6.52 15.41 9.92 1.44 1 .88 2.15-.2 2.73-2.28 1.25-4.71 2.25-7.08 3.25z" fill="#5a2fdf"/><path d="m606.76 457.26.39-.16-.32.11s-.07.05-.07.05z" fill="#592ede"/><g fill="#f85646"><path d="m922.07 575.27c-1 6.66-.38 13.68-6.49 18.85-3.52 3-7.29 2.69-9.71.43-4.15-3.86-7.9-8.43-9.68-14.11-.55-1.75-.49-3.1 1.76-3.81 7.08-2.25 11.93-7.13 15.51-13.49.87-1.54 1.27-3.42 4.34-2.63s2.89 2.14 3.09 4.44c.29 3.42 1.68 6.73 1.18 10.32z"/><path d="m825.11 501.7c.21 1.75 0 2.91-3.4 1-10-5.54-18.32-12.54-22.85-23.32-1.76-4.17.93-7.88 5.65-8.4 5.78-.63 8.87 3.5 12 7 5.6 6.32 7.97 14.17 8.6 23.72z"/><path d="m805.3 551a12.67 12.67 0 0 1 -12.3-12.28c-.12-5.63 6.09-8.44 12.54-8.64 5.89-.18 11.11 2.47 16.27 5 1.69.84 1.1 2.1.77 3.38-1.77 6.99-9.58 12.7-17.28 12.54z"/><path d="m879 539.48c-.84 5.54-1.71 11.07-2.51 16.61a21.49 21.49 0 0 0 -.33 4.92c.11 1.27 1.11 2.78-.44 3.46-.68.3-2.18-.59-2.93-1.32-6.79-6.65-13.13-13.7-14.24-23.66-.62-5.55 4.91-5.76 8.11-7.53 2.65-1.46 6.27-4.43 9 .18 1.39 2.3 4.19 4.04 3.34 7.34z"/><path d="m854.2 459c-.53 2.33.68 4.57-.89 5.38-1.74.89-2.6-1.49-3.88-2.39-8.55-6-11-15.64-14.12-24.73a6.86 6.86 0 0 1 2.92-7.83c3.1-1.92 4.55.83 6.14 2.54 7.27 7.78 8.28 17.83 9.83 27.03z"/><path d="m895.14 486.09c.63 1.07.08 1.58-.85 2.27a67.06 67.06 0 0 1 -15.77 8.94c-2.42.93-3.62.18-4.13-1.77-1.24-4.81-2.26-9.67-3.19-14.54a1.55 1.55 0 0 1 2.25-1.75c4.16 2.08 7.92-.16 11.7-1 6.94-1.56 9.85.51 9.99 7.85z"/><path d="m970 494c.32 5.47-2.89 8.81-7.53 11.32-7.06 3.83-14.67 5.3-22.61 5.61-1.56.05-2.93-.6-4.37-.69-2.76-.18-2.68-1.9-2.51-3.81.2-2.31 1.58-3 3.74-2.86 9.09.43 17.18-2.06 23.83-8.5a39 39 0 0 1 3.5-3.54c1.49-1.12 2.09-4.14 4.5-3.17 2.28.88 1.26 3.47 1.45 5.64z"/><path d="m842 555.68c7.75 10.33 6.9 21.22 5.25 32.09a5.26 5.26 0 0 1 -4.56 4.09c-2.19.11-2.07-2.12-2.68-3.54-4.65-10.89-2.22-21.32 1.99-32.64z"/><path d="m951.23 536.24c-.27 2.06.27 5.11-3.51 6.51s-5.31-1.37-7.1-3.62a13.15 13.15 0 0 1 -2.41-3.73c-.8-2.36-4.15-4.8-2.36-6.86 2.42-2.77 6.49-4.64 10.29-3.56 3.08.87 4.13 4.39 4.83 7.49a27.54 27.54 0 0 1 .26 3.77z"/><path d="m904 521.62c2.34 3.6 4.19 6.3 5.89 9.1 1.07 1.77 1.34 3.41-.23 5.38a23.22 23.22 0 0 0 -4.44 7.66c-1.5 5.19-3.25 2.27-5.15.56-3.45-3.1-4.26-6.39-1.66-10.66 2.12-3.45 3.46-7.35 5.59-12.04z"/><path d="m901.21 451c-1.13-9.21 1.43-17 4.77-24.61.35-.78.53-1.8 1.42-1.81 1.17 0 1.41 1 1.61 2.06 1.78 9.26-1.64 16.87-7.8 24.36z"/><path d="m884 507.12a33.08 33.08 0 0 1 4.43 1.13c3.38 1.26 5.7 2.68 2.3 6.75s-7.87 4-10.72-.55a11.9 11.9 0 0 1 -.56-1.37c-2.38-5.08-1.84-5.91 4.55-5.96z"/><path d="m923.34 454c-2.59 8.44-7.21 14.57-12.28 20.42-.48.55-1 1.53-1.95 1s-1.09-1.45-.79-2.56c2.13-8.14 5.85-15.03 15.02-18.86z"/></g><path d="m894.54 551.5c.5.27.8.4 1.07.57 5.83 3.71 5.78 7.46 0 11.84-1.85 1.39-2.65 1.16-2.6-1.16.1-3.75-.68-7.61 1.53-11.25z" fill="#fa5746"/><path d="m893.18 501.33c1.71-2.28 4.25-3.32 5.32-7.31.68 3.91 4.23 6.14 1.75 8.72-2.08 2.16-4.33-1.74-7.07-1.41z" fill="#f85646"/><path d="m844.09 523.07a19.54 19.54 0 0 1 -2.27 9.45 1.81 1.81 0 0 1 -2 1.2c-1.13-.24-.86-1.25-.87-2-.07-3.82.87-7.18 4.43-9.27a3.94 3.94 0 0 0 .71.62z" fill="#f85646"/><path d="m857.91 502.93c.69-2.67 1.49-5.29 3.69-7.28 4 4.39.39 6.11-3 7.91a3.29 3.29 0 0 0 -.69-.63z" fill="#f85646"/><path d="m863.24 519.4c.57-3.35 2.39-4.26 4.58-4.91 1.18 3.92-1.99 3.63-4.58 4.91z" fill="#f85646"/><path d="m858.57 503.56c-.52.69-.86 1.74-2.07 1l1.41-1.64a3.29 3.29 0 0 1 .66.64z" fill="#f85646"/><path d="m824.54 554.64c.32-.39.43-1.36 1.09-.88s.18 1.08-.51 1.34z" fill="#fa5746"/><path d="m843.42 522.45c.39-.37.57-1.43 1.27-.84.54.46.09 1.16-.6 1.46a3.94 3.94 0 0 1 -.67-.62z" fill="#f85646"/><path d="m933.05 548.94-.56-.3h.28a2 2 0 0 1 .21.38z" fill="#fa5746"/></g></svg>