<svg xmlns="http://www.w3.org/2000/svg" height="440" viewBox="0 0 1050.91 1262.79"><defs><style>.cls-1{fill:#cbefed;}.cls-2{fill:#592dde;}.cls-3{fill:#452887;}.cls-4{fill:#fa5746;}.cls-5{fill:#fa5847;}.cls-6{fill:#fdccc8;}.cls-7{fill:#9b81ea;}.cls-8{fill:#cdcde5;}.cls-9{fill:#5a2fdf;}.cls-10{fill:#472b89;}</style></defs><title>Ativo 19Segmentação2</title><g id="Camada_2" data-name="Camada 2"><g id="Camada_3" data-name="Camada 3"><path class="cls-1" d="M423.1,1253.92c-11.15,2.33-22.3,4.68-33.47,7-1.25.25-2.69.46-3.64-.89a2.07,2.07,0,0,0,.34-.15c.05,0,.05-.17.08-.25l-.4.42c-4.44.34-8.12,3.13-12.67,3.69a19,19,0,0,1-7.28-.89c-4.62-1.2-7.69,2.74-12.08,2.33-8.68-.81-17.7,1.11-25.83-3.61-4.52,3.06-8.81-.27-13.16-.66-3.27-.29-6.84-.07-9.56-3.15-1.58-1.79-4.14.69-6.6-.15-6.1-2.09-12.11-4.28-18-6.88s-11.91-4.84-17.8-7.47c-13.5-6-25.11-14.78-36.28-24.14a326.89,326.89,0,0,1-34.81-33.19c-14.38-16.18-28.25-32.7-39.35-51.56a279.78,279.78,0,0,1-16.12-32.27c-4.25-10-7-20.63-9.52-31.28-4.86-20.24-6.56-40.84-7.77-61.5-.39-6.64,1.08-13.41.46-20-1-10.61,1.27-20.92,1.82-31.36.64-12.26,2.43-24.48,4-36.68,3-23,6.92-45.88,10.32-68.82,3.55-24,7.84-47.84,11.36-71.82,2.56-17.41,5.16-34.81,7-52.32,1.45-13.92,3.35-27.8,4.74-41.73.51-5.08.12-10.25.14-15.38l60,1c.16,5.8-.52,11.78.63,17.38,2.47,12,7.76,23.13,12.12,34.52,6.67,17.39,18.08,31.12,34.26,40.43,13.48,7.77,27.31,14.53,43,17.64,7.31,1.45,14.43,2.82,21.85,2.86.09,1.49.24,3,.26,4.46.1,7.64,1.87,14,10.92,15.38,1.13.17,1.71.89,2.65-.46,1.45-2.07,2.36-2,3.58.71,1.9,4.17,2.75,3.57,6.14.5s3.88-5.65,2.87-9.87c-1.05-4.39-.74-9.11-1-13.69,3.48-1.29,7.89-1.23,10.26-4,1.67-1.95,2.66-.83,4-.87-.59,1.53-.8,3.45-1.86,4.51-3.54,3.52-3.58,7.83-3.08,12.17,1.39,11.9,3.18,23.76,4.92,35.61,1.36,9.24,5.56,13.52,14,14.77,1.76.25,3.7,3.57,5.49-.41,1-2.11,3.76-3,4.1-5.93.79-6.86.22-13.61-.63-20.42-1-8-1.5-16.09-2.28-24.81,14.41,5.75,28,11.29,41.72,16.56,1.8.69,5,3.18,5.88,0,.62-2.33,2.05-2.92,3.28-4.11,3.33-3.21,3.12-5.47-1.18-6.85-14.74-4.73-28.35-12.44-43.13-16.82-7-2.08-13.39-6.12-20.87-6.57,5.87-4.53,13-7.1,18.57-12.09,2.63-.56,5.52,2.62,8-.63,1.84-2.42,4.26-4.55,3.28-8.09,14.46-15.4,27.53-31.62,34.9-51.93,6.65-18.3,9.43-36.87,6.33-56.07-3.69-22.78-14.85-41.46-32.67-56-10.4-8.51-22.61-13.31-35.36-17.36C372,570.12,364.08,568,356.11,566a49.14,49.14,0,0,1-.52-5.9c.41-16.16,1.09-32.31,1.27-48.47.05-4.23,1.77-8.89-1.54-12.8,3.09-3,1.26-6.67,1.3-10.08,0-4.58-.88-9.08-.72-13.71.26-7.66,1.56-15.9-.71-22.87-2.76-8.49-7.82-16.72-13.58-23.66-12.29-14.8-25.1-29.27-40.64-40.9-2.6-1.95-6.09-2.68-7.33-6.3-.21-.63-1.7-1.12-2.6-1.14-2.71,0-5.07-1.39-7.58-1.86-4.49-.82-8.39-4.87-13.25-3-7.35,2.75-15.07,1.38-22.56,2.62-13,2.14-26.08,1-39.14,1.23-2.68.05-6.13-1.58-7.87,2.38-.44,1-1.6.25-1.94-.44-1.26-2.55-3.54-2-5.63-2-6.72,0-13.45,0-20.17.1A421.74,421.74,0,0,1,130,376.83c-1.35-16.2-2.09-32.5-.35-48.62a266.23,266.23,0,0,1,19.06-75c10.39-24.77,25.62-46.29,42.19-67.14,3.41-4.29,8.17-7.66,10.18-13.07,1,.65.89,1.69.88,2.68-.21,12.8.84,25.53,1.93,38.27a210.82,210.82,0,0,1,.32,27.65c-.12,2.51-.55,3.53-3.4,3.28-11-.92-22.18.79-32.87-3-2.36-.84-4.15,0-5.76,1.32-1.93,1.59.41,2.84.57,4.26.27,2.38,2.23,3.59,3.11,5.52,6.27,13.77,15,26.12,22.77,39,5.72,9.47,12.49,18.26,18,27.93s10.92,19.21,23.51,21c2.32.32,4.23,1.13,6.44-.66,9.11-7.41,16.09-16.75,23.62-25.6,10.19-12,20.36-23.95,30.63-35.85,7.23-8.39,14.66-16.62,21.94-25,2.8-3.22,1.73-5.9-2.54-6.89a18.79,18.79,0,0,1-4.24-1.38,30.49,30.49,0,0,0-19.22-3.37c-4.13.7-8.2.49-12.28.86-3.27.3-4.73-.57-4.49-4.29.95-14.94.18-29.9.2-44.85.05-24.28.53-48.56.83-72.84,9.65-4.67,19.18-9.49,29.26-13.37a254.31,254.31,0,0,1,30.53-10A389.88,389.88,0,0,1,384,88.84c26.21-2.72,52.44-1.49,78.66-1.86,24.16-.35,48.36,0,72.47-1.29C547,85,559,85.13,570.89,84.43c13.15-.78,26.33-1.54,39.48-2.52,12-.89,23.93-2.81,35.93-3.72,17.17-1.31,34-5.17,51.18-6.51,8.67-.67,17.4-1.73,26.11-2.31,18.46-1.22,37-2.17,55.3,1.71A101.35,101.35,0,0,0,798.1,73c8.89.17,17,3.62,25.39,5.74a259.3,259.3,0,0,1,28.14,9.24c18.17,6.84,35.7,15,51.62,26.48,5.14,3.71,10.92,7,15.87,10.8a180,180,0,0,1,17.29,15.94c6.58,6.67,13.11,13.5,19.54,20.36,10.1,10.79,18.35,23.09,26.89,35.07,11.28,15.82,20.68,32.83,29.17,50.35a489.83,489.83,0,0,1,24.36,60.35c7.38,22.41,13,45.33,15.77,68.91,1.69,14.54,2.66,29.11,3.26,43.71s-.66,28.95-2.6,43.32c-1.88,13.91-3.41,27.89-5.91,41.7-3.38,18.71-7.39,37.3-11.39,55.89-3.24,15-7,30-10.29,45-4.31,19.34-8.85,38.65-12.57,58.11-4.63,24.25-9.31,48.52-9.72,73.35a27,27,0,0,1-1.85,10.6c-1.06,2.35,1.16,3.72,1,5.92-1,19.46,1.45,38.78,4.16,57.94a331.84,331.84,0,0,0,9.4,44c4.3,15.09,7.36,30.53,11.39,45.7,2.56,9.59,4.71,19.27,6.88,28.95,4.44,19.81,6.56,39.8,4.36,60.1-1.61,14.92-3.81,29.88-8.87,43.93-6.36,17.63-13.57,34.92-24.52,50.6a375,375,0,0,1-30.63,38.85,173.34,173.34,0,0,1-43.66,34.84,148.83,148.83,0,0,1-25.77,11.47c-4.46,1.46-8.42,4.45-13.39,4.5.91-4.41,4.86-6.82,7.1-10.41A370.17,370.17,0,0,0,919.28,1127,247.81,247.81,0,0,0,933,1090.48a270.7,270.7,0,0,0,10.22-50.71c1.37-14.51,2.33-29,1.44-43.53-.74-11.92-2-23.79-3.39-35.67-1.19-10.45-3.09-20.73-5.1-31-2.4-12.26-8-23.47-12.42-35.07-5.23-13.63-13.72-25-22-36.59-8.93-12.53-20.91-22.09-31.44-33.06-3.63-3.78-7.45-7.48-11.34-10.9-7.29-6.41-12.09-13.51-12-23.48.09-8.06.65-16.2-.24-24.16-.74-6.68-.37-13.23-.06-19.81.58-12,1.4-24,2.38-36,.55-6.77,1.52-13.51,2.49-20.24.47-3.24-.38-7.8,2.14-9.32s5.65,2.22,8.8,3c17.85,4.56,33.87.27,48.47-10.13a106.27,106.27,0,0,0,31.19-34,52.4,52.4,0,0,0,4.56-41.52c-1.23-4.2-.35-6.93,3.07-9.38,4-2.82,8.1-5.52,11.5-8.93,10.93-10.94,20.6-22.83,25.92-37.65,4.27-11.89,7.8-23.81,3.86-36.63-2.88-9.34-8-17.27-14.35-24.53-5.6-6.44-6.24-9.42-1.92-16.82C982.6,451,985.6,436.53,985,421.22c-.49-13.26-5.8-25-12.56-36.09a68.15,68.15,0,0,0-31-27.12c-3.91-1.75-5.2-4.76-3.32-8.66,1.19-2.46,2.84-4.7,4-7.17,4.53-9.44,7.92-19.4,7.57-29.85-.54-16.39-8.51-29.88-19.19-41.73-9.26-10.28-21.06-17.07-34-21.44-17.76-6-35-13.85-53.84-16.15a4,4,0,0,1-3.43-3.16c-3.49-11.22-11.62-19-20.66-25.31-12.81-8.9-28.09-12.66-42.87-17.09a138,138,0,0,0-36.84-6.33c-12.8-.28-25.6-.42-38.29,1.34-7.69,1.07-14.82,2.88-22.56-1.36-6.46-3.54-14.39-4.3-21.3-7.17a49.65,49.65,0,0,0-26-3.63c-16.5,2.19-32.12,7.7-47.25,14.56-16.27,7.38-29.86,18.35-41.89,31.37a8,8,0,0,1-6.47,2.85c-7.11,0-14.26-.67-21.35.45-18.18,2.88-32.34,12.67-44.58,25.86a161,161,0,0,0-24.61,34.52c-6.27,11.88-9.15,24.86-11.68,37.93-2,10.37-3.75,20.78-1.49,31.32,1.24,5.77.47,10.23-4.53,14.42a84.31,84.31,0,0,0-27.5,43.12c-5.19,19.08-3,38.38,1.21,57.37,1.75,7.94,5.36,15.27,9,22.64,5.73,11.68,12.21,22.69,22.59,30.62,3,2.3,1.59,5.72,4.45,7.78,6.25,4.52,12.51,8.66,20,11.06,3.28,1.05,9.68,1.41,5.37,8.1-.15.24,0,.67,0,1-2.68,14.12-5,28.16-3.13,42.72,1.25,9.76,2.3,19.51,4.76,29,.45,1.75-.23,4.54,3.41,4.18,1.37-.13,1,2.35.25,2.21-4.05-.77-2.33,2.4-2.1,3.39,2.41,10.07,4.94,20.14,9.19,29.62,7.85,17.47,17.72,33.45,33.07,45.57,13.09,10.34,26.75,19.72,42.06,26.44,7.26,3.18,14.86,5.58,22,8.89,6.66,3.07,13.84,4.26,20.72,6.52,8.54,2.82,17.58,4.14,26.39,6.16,2,.46,5.8-.24,5,2.91s1.52,7.81-3.39,9.77c-5.81,2.33-11.81,4.09-17.66,6.24-18.41,6.78-37.42,11.82-55.13,20.74-14,7.05-28.64,12.83-41.48,21.94-8.43,6-17,11.65-24.73,18.78-4.91,4.55-10.71,8.54-15.49,13.3-8,8-16.43,15.59-24.17,23.92a432.26,432.26,0,0,0-31.67,37.67c-11.27,15.32-21.21,31.39-28.69,49-5,11.77-10.42,23.33-14.22,35.59a385.75,385.75,0,0,0-14.72,69.47c-2.27,19.34-3.78,38.83-1.93,58.39a193.62,193.62,0,0,0,17.06,64.21c4.29,9.18,9.54,17.79,14.9,26.44a207.28,207.28,0,0,0,26,33.27C412.8,1246.32,418.6,1249.33,423.1,1253.92ZM189.94,739l.08.07c-2-2.44-1.88.28-2.32,1-7.84,13.43-12.62,28.22-18.53,42.49-4.5,10.84-7.78,22.17-12.15,33.07-4.25,10.61-9,21-13.91,31.36-2.29,4.86-2.43,10.27-4.52,15.17-.38.9-4.36,1.12-1.27,2.35,6,2.38,12.13,5.08,18.84,4.73,6.46-.35,12.91-.24,19.36-.26,4.09,0,4.84,1.64,4.73,5.41-.33,11.41-1.71,22.79-1.88,34.15-.18,11.93-.59,23.87-1.05,35.77-.43,11.38-.56,22.78-1,34.15-.48,12.26-.94,24.58-1.65,36.81-.43,7.53-.41,15.16-1.35,22.74-1,8.28-1.62,17,.13,25.23,2.6,12.34,8.75,23.31,15.31,34,9.14,14.85,18.52,29.56,26.76,45,2.55,4.76,4.69,9.85,11,11.09,1.52.3,3.09-.25,4.6.72,1.91,1.21,4.17,3.43,6-.26,1.12-2.29,4.09-3.23,4-6.54-.21-9.85.5-19.74-.22-29.54-1.56-21.45-2.29-42.94-3.26-64.41Q236,1017,235.44,980.73c0-2.39-1.64-4.26-.93-6.67,1.8-6.18,2.66-12.35-1.48-18.07l-.1.06c2.87-.61,2-2.91,2-4.72.09-26.37.38-52.76-1.26-79.09-.32-5.25,1.74-6.15,5.79-6.19,5.49-.06,11-.32,16.47,0,4.68.28,9.1-1.76,13.82-.94,3,.52,2.19-3.38,4-4.24,5.85-2.74,3.47-6.85,1.22-10.07-14.69-21.08-24.84-44.58-35.88-67.57-5.1-10.62-9.77-21.51-15.76-31.63-5.58-9.41-9.49-20.56-22.42-23.67-4.2-1-6.49-.63-8.48,2.64-1.17,1.93-4.27,3.74-1,6.59C192.05,737.6,191.13,738.89,189.94,739ZM354.23,384.07a4.6,4.6,0,0,0,3.84-1.54c5.51-5.72,9.43-12.67,14.77-18.49,1.17-1.28,2-3.77.94-4.58-3.71-2.93-.21-4.67.91-6.4,1.79-2.76,4.35-5,6.29-7.67s1.6-4.87-2.05-5.29c-3.11-.35-6-.54-8.64-2.78-1.3-1.12-3.53-2.59-5.36,0a2.12,2.12,0,0,1-2.77.46c-4.1-3.26-6.12,0-7.79,2.69q-8.73,13.86-17,28c-2.61,4.5-1.67,6.34,3.22,8.18,1,.39,2.84-.07,3.05,1.22C344.78,384.85,351.09,382,354.23,384.07ZM309.6,340.19c-1.21,4.66.6,10.32,1.89,16.14.78,3.51,1.61,5.93,5.75,5.78.86,0,1.79.73,2.63,1.21,1.84,1.06,3.78,1,4.89-.7,3.32-5.2,7.6-10.11,8.1-16.53a61,61,0,0,1,1.35-10.78c1-3.8.64-7.57.77-11.35.07-1.74-.17-3.44-2.3-3.84-4.43-.81-8.52-2.64-12.64-4.3-2.26-.9-4-.7-5.08,1.31-1.53,2.92-4.1,5.05-4.4,9C310.24,330.31,310,334.57,309.6,340.19Zm53.71,50.9c-4.72,1.25-11.65,0-15.78,8.06-1.88,3.69-1.28,4,1.26,4.6,7.19,1.71,13.69,6.89,21.74,4.38.78-.24,1.5.33,2.26.72,9.12,4.74,16.75,6.85,22.23-2.24,1.06-1.77,2.59-3.25,1.77-5.32a5.63,5.63,0,0,0-4.68-3.22,20.29,20.29,0,0,1-4.76-1.07C380.16,394.06,373.06,390.63,363.31,391.09Z" transform="translate(-4.64 -14.25)"/><path class="cls-2" d="M423.1,1253.92c-4.5-4.59-10.3-7.6-14.76-12.3a207.28,207.28,0,0,1-26-33.27c-5.36-8.65-10.61-17.26-14.9-26.44a193.62,193.62,0,0,1-17.06-64.21c-1.85-19.56-.34-39,1.93-58.39A385.75,385.75,0,0,1,367,989.84c3.8-12.26,9.21-23.82,14.22-35.59,7.48-17.58,17.42-33.65,28.69-49a432.26,432.26,0,0,1,31.67-37.67c7.74-8.33,16.14-15.93,24.17-23.92,4.78-4.76,10.58-8.75,15.49-13.3,7.7-7.13,16.3-12.81,24.73-18.78,12.84-9.11,27.5-14.89,41.48-21.94,17.71-8.92,36.72-14,55.13-20.74,5.85-2.15,11.85-3.91,17.66-6.24,4.91-2,2.57-6.53,3.39-9.77s-3-2.45-5-2.91c-8.81-2-17.85-3.34-26.39-6.16-6.88-2.26-14.06-3.45-20.72-6.52-7.19-3.31-14.79-5.71-22-8.89-15.31-6.72-29-16.1-42.06-26.44-15.35-12.12-25.22-28.1-33.07-45.57-4.25-9.48-6.78-19.55-9.19-29.62-.23-1-2-4.16,2.1-3.39.74.14,1.12-2.34-.25-2.21-3.64.36-3-2.43-3.41-4.18-2.46-9.54-3.51-19.29-4.76-29-1.86-14.56.45-28.6,3.13-42.72.06-.32-.1-.75,0-1,4.31-6.69-2.09-7-5.37-8.1-7.47-2.4-13.73-6.54-20-11.06-2.86-2.06-1.45-5.48-4.45-7.78-10.38-7.93-16.86-18.94-22.59-30.62-3.62-7.37-7.23-14.7-9-22.64-4.18-19-6.4-38.29-1.21-57.37a84.31,84.31,0,0,1,27.5-43.12c5-4.19,5.77-8.65,4.53-14.42-2.26-10.54-.53-21,1.49-31.32,2.53-13.07,5.41-26,11.68-37.93a161,161,0,0,1,24.61-34.52c12.24-13.19,26.4-23,44.58-25.86,7.09-1.12,14.24-.47,21.35-.45a8,8,0,0,0,6.47-2.85c12-13,25.62-24,41.89-31.37,15.13-6.86,30.75-12.37,47.25-14.56a49.65,49.65,0,0,1,26,3.63c6.91,2.87,14.84,3.63,21.3,7.17,7.74,4.24,14.87,2.43,22.56,1.36,12.69-1.76,25.49-1.62,38.29-1.34a138,138,0,0,1,36.84,6.33c14.78,4.43,30.06,8.19,42.87,17.09,9,6.27,17.17,14.09,20.66,25.31a4,4,0,0,0,3.43,3.16c18.86,2.3,36.08,10.16,53.84,16.15,13,4.37,24.78,11.16,34,21.44,10.68,11.85,18.65,25.34,19.19,41.73.35,10.45-3,20.41-7.57,29.85-1.18,2.47-2.83,4.71-4,7.17-1.88,3.9-.59,6.91,3.32,8.66a68.15,68.15,0,0,1,31,27.12c6.76,11.05,12.07,22.83,12.56,36.09.57,15.31-2.43,29.82-10.24,43.22-4.32,7.4-3.68,10.38,1.92,16.82,6.3,7.26,11.47,15.19,14.35,24.53,3.94,12.82.41,24.74-3.86,36.63-5.32,14.82-15,26.71-25.92,37.65-3.4,3.41-7.55,6.11-11.5,8.93-3.42,2.45-4.3,5.18-3.07,9.38a52.4,52.4,0,0,1-4.56,41.52,106.27,106.27,0,0,1-31.19,34c-14.6,10.4-30.62,14.69-48.47,10.13-3.15-.8-6.29-4.54-8.8-3s-1.67,6.08-2.14,9.32c-1,6.73-1.94,13.47-2.49,20.24-1,12-1.8,24-2.38,36-.31,6.58-.68,13.13.06,19.81.89,8,.33,16.1.24,24.16-.11,10,4.69,17.07,12,23.48,3.89,3.42,7.71,7.12,11.34,10.9,10.53,11,22.51,20.53,31.44,33.06,8.28,11.63,16.77,23,22,36.59,4.46,11.6,10,22.81,12.42,35.07,2,10.25,3.91,20.53,5.1,31,1.36,11.88,2.65,23.75,3.39,35.67.89,14.54-.07,29-1.44,43.53A270.7,270.7,0,0,1,933,1090.48,247.81,247.81,0,0,1,919.28,1127a370.17,370.17,0,0,1-20.71,37.33c-2.24,3.59-6.19,6-7.1,10.41a234.24,234.24,0,0,1-22.4,28.67c-6.13,6.76-12.18,13.63-18.89,19.78-11.35,10.41-23.18,20.3-37.37,26.81-2.95,1.36-6.3,1.7-9,3.65a2.35,2.35,0,0,1-3.19-.31c-.88-1-1.57-1.81-2.74-.46s1.29,1.74.65,3c-4.68-.68-8,3-12.26,4.09-11.31,2.83-22.54,5.18-34.28,6.07a122.22,122.22,0,0,1-19.8-.12,138.92,138.92,0,0,1-43.1-11.38c-12.47-5.38-25.13-10.33-36.76-17.47-.86-.52-2-1.46-2.86.2-1.77,3.55-5.11,3.51-8.41,3.83-2.28.22-4.3-.94-7,1.3-2.91,2.43-2.9-3.1-6-4.93,2.35,2.71-3.59,3.62.56,6.37-2.61-1-3.91.93-5.67,1.55-17.66,6.19-35.49,11.88-53.17,18a286,286,0,0,1-42.6,11.5c-3.53.63-7.28-.39-10.78,1.07a2.1,2.1,0,0,1-1.41-.09c-1-5.88-2.25-.38-3.53-.22-6.61.81-13.39,3.18-19.73-1-.62-.41-1.22-.77-1.75-.44-7.32,4.55-14.37.17-21-1.48-7.12-1.75-14.4-3.6-21.2-7-7.59-3.74-15.82-6.18-22.68-11.4C424.54,1254,423.75,1254.06,423.1,1253.92ZM834.9,841.13c.72-3.79,1.44-7.59,2.28-12L827,834c-.32-.26-.63-.52-1-.75a2.55,2.55,0,0,0-.3.32L827,834c-1.86,2.75-4.57,3.5-7.67,3.16-1.35-.15-3.16-.5-3.55.87-1,3.48-4,3.36-6.48,4.33-4.1,1.64-8.22,3.28-12.42,4.66-11.69,3.87-23.55,6.82-36,6-1-.07-2.42.68-1.33-1.66.64-1.37-1.45-1.06-1.87-.45-1.92,2.77-4.72,2.32-7.33,2.08s-3.6,1.34-4,3.38c-.57,3.23-.88,6.51-1.29,9.76-.39,2.29-.77,4.57-1.16,6.85q-2,8-4,16a79.16,79.16,0,0,0-5,15.07c-3.46,5.57-4.59,12-6.77,18.07l-6,15.9c-2.16,4.14-4.48,8.21-5.2,12.93a16,16,0,0,0-1.61,2.35c-6.13,13.48-12.2,27-18.32,40.47-9.35,20.57-19,41-28,61.72-8.21,18.82-15.86,37.9-20.71,57.95-2.35,9.71-4.42,19.53-5.11,29.45a176.81,176.81,0,0,0,2.74,45.9c2.28,11.76,6.7,22.44,14.34,31.79,8,9.78,19,15,30,20.2,17.75,8.46,36.49,10.63,56,8.4,14.08-1.61,27.31-5.75,40.51-10.83,16.67-6.42,31.67-14.7,44.35-27.68a431.53,431.53,0,0,0,31-35c9.25-11.8,16.76-24.66,24.12-37.6,5.58-9.83,9.75-20.4,14.1-30.84,1.9-4.57,4.27-9.26,5.3-13.82,2.32-10.26,5.86-20.22,7.5-30.67,2.33-14.83,4.82-29.62,4.86-44.71.05-13.4-.25-26.79-.48-40.19-.17-10.12-4.12-20.15-.84-30.33-4.69-3.22-2.65-8.51-3.38-12.69a196,196,0,0,0-11.18-40.08c-4.77-11.75-10.36-23.62-18.59-33.81-6.23-7.7-11.84-15.89-19-22.84-1.57-1.52-4.12-2.37-5-4.14-2.18-4.14-6.4-6.15-9-11.45-.28,2.31-.54,3-.4,3.55,2.45,9.77-.56,19.35-1.41,28.92-1,11.38-3.74,22.6-5.64,33.9-3.1,18.37-5.62,36.86-9.33,55.11-3.9,19.2-9.42,38.08-13.28,57.29-3.41,16.91-8,33.67-6.79,51.35.77,11.32,1.9,22.49,4.59,33.49,1.91,7.83,5.24,15.16,8.89,22.45-4.32.33-4.31.28-6.41-2.29-8-9.74-11.28-21.36-13.92-33.37-.67-3-1.63-6.17-2.53-9-1.66-5.25-1.85-10.61-3.16-15.81-.44-1.76,2.82-2,1.42-3.64-4.37-5-3.09-11.45-3.13-16.85A200.86,200.86,0,0,1,802,994c1.69-10.43,4.53-20.61,6.84-30.9.25-4.55,2-8.77,2.91-13.18,2.5-9.17,4.38-18.47,6.07-27.82q1-6.54,2-13.1c1.74-7.62,4.27-15.06,5-22.9,1.62-4.95,1.7-10.31,4-15.09.43-1.88.45-3.8.93-5.73C831.78,857.27,833.24,849.17,834.9,841.13Zm-205,384.73,6.4-1.49c-15.33-17.89-19.33-39-20.15-61-.23-6.22-.48-12.54.4-18.65.54-3.73-1.05-8.09,2.29-11.28-1.33-.76,1.39-3.78-1.88-3.43-7,.75-14,1.55-21,2.32l-23,5.66c-6.34-.29-12.82,3-19-.75-4.76.79-9.25-.89-13.85-1.55-2.81-.47-4.17-3.8-6.74-4a30.83,30.83,0,0,1-12.24-3.75c-11-5.08-21.18-11.26-28.76-21-2.7-3.47-6.49-6.56-7.86-10.5-4.1-11.78-7.19-23.81-6.68-36.6.58-14.35,2.79-28.2,9.19-41.16,2.78-5.62,6-11,11.06-15,2.44-1.91,4.33-1.07,6.58.21,2.55,1.45.78,3.09.44,4.62-.63,2.87-1.43,5.7-2.16,8.55l.07-.06c-.83.37-.85.73,0,1.09-1,2.8-2.19,5.54-2.9,8.41a140.47,140.47,0,0,0-3.93,44.39c1,13.57,6.42,25.69,15.25,36.17,1,.93,1.91,1.85,2.86,2.79,10.48,10.28,22.59,16.7,37.74,16.25,7.86-.24,15.32-2.35,22.9-4,9.32-2,18.64-4.35,28.08-5.42,5.94-.67,12.13-3.48,18-.19a299,299,0,0,1,19.18-53.33c1.34-.91.61-2.45,1.13-3.65,7.84-18,17.09-35.33,25.65-53,3.33-6.87,7.31-13.44,9.86-20.69,3.46-5.33,5.73-11.3,8.81-16.83,5.11-9.17,8.44-19,12-28.8,2.15-5.83,3.53-11.89,5.66-17.75,1.5-4.14,5.27-7.93,3.92-13,.15-.32.29-.63.44-.94-.6-.27-.61.2-.72.56-5.86,4.57-10.16,11-16.93,14.47-3.29,1.7-6.26,4.6-10.34,3.65-2.39-.55-4.29-1.22-5.47,1.79-.43,1.1-2.55,1.4-2.47.27.42-5.93-2.7-1.81-4.17-1.73-1.28-3.93-2.81-7.86,0-11.75a2,2,0,0,0,.09-1.44c-2.09-8.38-2.1-17.08-3.71-25.52-3-15.78-6.74-31.45-10.61-47-2.4-9.68-4.86-19.72-9.26-29-.6-1.26-.79-3.28-2-3.55-1.48-.35-2.47,1.43-3.24,2.66-7.67,12.37-15.27,24.74-21.17,38.14-6.54,14.83-10,30.5-13.54,46.14-1.08,4.84-5.57,6.9-6.58,11.31l-6.46-3c-.3-.14-.61-.39-.9-.37-8,.5-12.14-4.55-15-10.81-5.86-12.9-12.08-25.61-17-39A197.37,197.37,0,0,1,547,807.68c-.1-.91.46-2.13-.77-2.61-1-.4-1.77.19-2.65.81-8.1,5.62-16.12,11.37-24.44,16.64a213.9,213.9,0,0,0-26.82,20.38c-8.78,7.74-17.84,15.32-26,23.9-6.92,7.31-14.39,14.08-21.06,21.7-12.94,14.79-24.67,30.47-33.47,48-11.52,22.93-22.31,46.28-27.39,71.7-2.41,12.06-3.89,24.32-6.55,36.31-1.72,7.72.38,16.1-4.24,23.25-.2.31-.42.67.17,1.19,2.55,2.25,1.27,5.3,1,7.84a215.62,215.62,0,0,0,0,40.41,177.73,177.73,0,0,0,9.46,43c4.53,13.17,9.81,26.1,16.85,38.15,9.42,16.12,19.56,31.84,34.14,43.88,8.12,6.7,16.73,12.89,27.64,14.86,12.22,2.21,24.45,1.85,36.67.78,8.57-.75,17.26-1,25.53-3.86,6.71-1.44,13.72-1.7,19.93-5.1,3.33.37,6.25-.74,9.33-1.92,8.49-3.24,17.15-6,25.75-9,5.33-.14,9.75-3.57,14.95-4.19C606.62,1231,618,1227.22,629.93,1225.86ZM875,605.84c-2,1.37-4.31,1.36-6.52,1.9-3.07.74-6.54,1.06-9,2.76-2,1.36.57,4.14.66,6.42.6,15.31-2.62,30.23-4.38,45.29-.82,7-.93,7.29,6.22,7.9,13.86,1.18,25.57-3.68,36-12.31,14.42-11.89,24.59-26.1,24.86-45.7,2.32-2,3.25-5,5.54-7.16,2.82-2.67,1.4-5-2.74-5.64-1.93-.32-3.8-1-5.69-1.45.6-2.64-2-5.27-.5-7.7,2.63-4.14,4.64-8.69,8.12-12.28,4.41-4.54,9.5-8.17,14.64-11.85,10.91-7.83,16.65-19.26,20.66-31.75,3.79-11.82,4.34-23.23-1.41-34.87a42.91,42.91,0,0,0-4-6c-3.32-4.71-6.91-9.24-10.27-13.92-2.91-4.06-4-8.51-1.12-12.74,2.22-3.29,3.23-7,4.94-10.43,10-20.12,9.42-40.13-.42-60.26a72.34,72.34,0,0,0-32.3-33.07c-10.35-5.47-10.78-8.35-5.28-18.86,4.07-7.8,8.28-15.6,8.92-24.67,1.77-25.35-11.27-42.74-30.83-56.26-7.92-5.47-17.75-6.8-26.64-10.17-9.95-3.78-21.11-.88-30.84-5.88-2.11-1.09-5.14-.71-6.9-2.1-5.91-4.68-11.73-9.16-15.29-16.54-6-12.4-16.08-21-29.69-24.39-24.92-6.22-50.09-5.8-75.4-2.37-4.75.65-9.7,2.63-14.66.6-5.78-2.38-11.91-4.14-17.26-7.26a48.38,48.38,0,0,0-33-5.8c-27,4.44-51.69,14.81-73.06,32.29-4.16,3.41-8.75,7.15-11.48,11.2-2.93,4.34-5.46,4.76-9.51,4.5-9.15-.58-18.22-.35-27.16,2.12a68.69,68.69,0,0,0-31.7,18.93c-7.85,8.17-14.62,17.28-19.14,27.8a145.32,145.32,0,0,0-6.83,20.16c-3.53,13.31-7.11,26.69-5,40.5,2.06,13.66-4.27,22.61-14.38,30.05a42.81,42.81,0,0,0-11.63,13.45,88.84,88.84,0,0,0-11.68,50.59c1.52,25.43,9.43,48.47,24.73,68.77a58.7,58.7,0,0,0,18.25,16.32c-.25-9.79,4.63-16.93,10.26-23.49,2-2.33,1.84-3.85.64-6a31.74,31.74,0,0,1-3.68-11.22,143.54,143.54,0,0,1-.42-34.29c.29-2.65,1.61-3.61,3-5-4-3.1-1.13-6.85-.53-10,4.37-22.92,17.19-39.89,37.7-50.78,8.73-4.64,18.51-6.26,28.18-8.38s19.17-2.8,28.84-3.34c8.08-.46,16.24.53,24.21.25,12.25-.44,24.4,1.34,36.6.42,2.37-.18,3.63,1.19,4.05,3.44.16.87-2.56,1.7-.29,2.41,1.9.6,2.13-1,1.76-2.51-.78-3.08,1.16-3.25,3.3-3.07,6.69.56,13.39,1.12,20.06,1.83,1.42.15,3.6.53,4,1.46,1.93,4.18,4.68,2.32,7.09,1.14a7.71,7.71,0,0,1,4.33-.62c7,.59,14,1.2,21,1.91,11,1.12,21.86,2.85,32.24,6.88,7.85,3,15.9,5.51,23.78,8.49,10.33,3.92,20.65,7.91,30.48,12.8a57.29,57.29,0,0,1,24.88,24c2.74,5,5.83,10.07,6.65,15.91,1.94,13.81,2.73,27.59,1.19,41.59a256.51,256.51,0,0,1-8.53,42c-2.71,9.55-7.48,18.26-10.84,27.53-.45,1.24-1.54,2.55-.19,3.6s2.43-.26,3.41-1.12a226.37,226.37,0,0,1,19.17-14.61c1.21,1.3.88,3,1.24,4.54,1.08,4.56,1,9.54,4.53,13.29-3.06,4-6.24,7.59-11.61,8.61-2.26.43-4,2.34-5.33,4.32-6.69,9.7-17.11,14.93-29,17.13-6.35,1.17-10.93-1.07-16.19-3.1-3.51-1.36-.16-3.17-.13-3.18,4.69-2.14,5.73-6.4,7.75-10.72,4.73-10.1,8.65-20.55,13.43-30.61a129.85,129.85,0,0,0,7.65-21.58,262.55,262.55,0,0,0,7.08-35c1.87-14.36,5.08-28.84.45-43.35s-14.55-24.64-27-32.29c-7.8-4.76-16.7-7.47-25.17-11-13.94-5.76-28.9-6.74-43.41-9.57a37.06,37.06,0,0,0-12.12-.28c-7.29,1.15-14.44-2.84-21.9-1.35-.9.17-2.14,0-2.1-1.43.07-2.77-2.47-1.56-2.55-1.11-.44,2.55-2.18,1.35-3.35,1.33-12.72-.18-25.47-.48-38.16-.32-13.28.17-26.58-.71-39.9.39-9.51.78-19.07.79-28.52,2.52-16.06,2.94-31.65,6.81-44.71,17.59A34.45,34.45,0,0,0,497.13,423c-6.08,11.87-8.64,24.78-9.92,37.86-.95,9.78-2,19.64-.87,30.21,11.49-8.21,23.58-5.38,35.08-2s24.22,5.74,32.4,16.75c-2.51.33-5.2.08-6.46,2.85a2.65,2.65,0,0,0,2.83-.33c3-2.15,4.69-1.61,6.78,1.84a35.21,35.21,0,0,1,4.88,21.38c-.35,4.69-1.79,9.75-7.15,11.16-3.39.9-7.18.56-10.77.39-9.28-.45-18.55-.85-27.83-1.71-10.68-1-21.32-2.18-31.89-3.9-2.26-.37-4.49-1.33-5,1.75-.46,2.54-1.64,5.64,2.55,6.77,8.07,2.17,16.36,3,24.62,3.78,2,.19,3.94,2.91,5.83.72,1.63-1.9,3.48-1.6,5.39-1.49a138.67,138.67,0,0,1,13.85,1c4.85.77,9.59,2.22,14.37,3.37-11.87,6.3-24.27,8.29-37,8.56-10.1.22-18.57-5.1-27.63-8.23-4-1.38-4.07-.1-4.1,2.81-.06,5.16.22,10.36-.29,15.48-1,10.64.43,21,2.24,31.43,1.5,8.59,3.32,17.13,5.08,25.67.46,2.24,1.12,4.37-2.84,4.58,3.68.68,5,2.8,5.85,5.75,2.59,9.25,6.93,17.73,12,25.82,7.39,11.71,15.28,23,26.1,31.93A197,197,0,0,0,565.34,723c10.63,5.1,21.85,8.22,33.14,11.24,9.84,2.64,19.95,3.74,30,4.54a154.59,154.59,0,0,0,23.36-.3c10.17-.73,19.6-4.34,29.49-6a8.92,8.92,0,0,0,6.28-4.13c3-4.2,5.22-9.2,11.15-10.57,2-.47,2.53-2.47,1.75-4.87-1.68-5.15-2.67-10.84-.62-15.78a28.8,28.8,0,0,1,16.24-16.25c13-5.23,25.94-2.84,39-.29,7.56,1.49,14.4,5.41,22.23,6.06,3.23.27,5.12.66,5.78-3.59,2-12.73,4.28-25.58,10.48-37,7.11-13.08,12.94-26.85,22.19-38.83,8.35-10.81,15.93-14.41,29-13.28,5,.44,10.76.39,15.58-2.15,5.07-2.68,9.85-5.92,14.68-9,5.46-3.52,7.25-9.69,4.77-15.85,3.42-4.28,5.65-9.27,8.29-14a14.06,14.06,0,0,1,6.95,4.3c4.36,5.13,8.62,10.17,7.31,18.22-1.18,7.2-5.38,12.07-9.36,17.38-5.66.94-11.14-1.22-17-.33s-6.3,5.66-8.39,8.71c-1.15,1.68,4.22,2.21,6.34,3.77C874.28,605.25,874.63,605.55,875,605.84ZM747.73,829.23c1.31-.09,2.62-.21,3.94-.27a119.81,119.81,0,0,0,31.67-5.64c14.37-4.6,28.51-9.44,41.29-17.57,1.87-1.19,5.73-1.06,5.08-4.37-.5-2.58.6-5.43,0-7.14-3.48-9.41-3.17-19.2-3.57-28.86a360.74,360.74,0,0,1,1.72-50c1.39-14.1,3.93-28,6-42,2.15-14.81,6.58-29.15,8.88-43.88.81-5.17,2.51-10.66.39-16.13-.76-2-.82-4.68-3.09-5.2-2.11-.49-3.89,1.34-5.49,2.83-3.83,3.56-6.13,8.16-8.59,12.64-6.69,12.2-13.65,24.26-19.11,37.08-3.88,9.09-5.3,18.86-7.8,28.34-1.86,7.06-9.9,13.81-17.34,10-4.81-2.45-10.35-3.31-15.23-4.25-11.31-2.19-22.94-3.82-34.79-1.06-8.21,1.9-11.07,4.5-9.7,12.84a48.75,48.75,0,0,1,.87,4.83c.19,3.43,2.88,7.23.74,10.12-3.1,4.19-5.59,9.2-11.68,10.69a8.8,8.8,0,0,0-6.76,10.34,30.78,30.78,0,0,0,2.17,7c2.44,5.53,3,10.74-1.66,15.46-2.87,2.89-4.18,6.66-5.32,10.4-3.55,11.65,1.33,25.29,11.25,29.25,7.25,2.9,11.45,7.62,13.57,14.81.73,2.51,2.09,4.83,2.82,7.33.64,2.15,2.45,2.8,3.81,2.27C737.12,827,742.41,829.68,747.73,829.23ZM631.8,799.71c-9.77-3.78-10.36-11.1-9.78-18.94.05-.65.53-1.61.25-1.89-.94-1-1.48-3.85-3.46-1.9-3.68,3.62-8.73,3.93-13.07,5.66-12.43,5-24.91,10.06-38.23,12.4a2.71,2.71,0,0,0-2.29,3.27c.82,2.14,0,4.17.45,6.26a411.2,411.2,0,0,0,16.13,60.18c.63,1.75.88,4.72,2.89,4.76,2.28,0,2.11-2.8,2.66-4.65.46-1.55,1.24-3,1.81-4.56,4.44-12.27,10.52-23.71,17.26-34.91C612.65,815,621.21,807.32,631.8,799.71ZM679,903.48c1.89-.46,3.17-.55,4.24-2.41,3.07-5.37,8.4-8.85,12.24-13.75s9.37-8.65,12.75-14.11c2.55-4.14,6.64-7.73,6.91-12.82.2-3.78,3-7.7,0-11.47,3.52-5.93-.3-9-4.57-12-1-.71-1.55-2.11-2.2-3.25-2.34-4.07-3.58-8.59-4.92-13-1.87-6.13-5.38-10.65-11.32-13-1.73-.69-2.93-3.43-5.17-2-6.52,4.12-14,1.67-20.89,3.16-2.61.56-3,.77-1.78,3.25a145.49,145.49,0,0,1,8.54,20.54c4.62,14.29,8.26,28.77,7.05,43.84C679.13,885.36,679.15,894.25,679,903.48Zm.92-109.7c-.5-3-2.06-5.34-2-8.25.14-9.43,2.2-18.15,7.67-26,2.94-4.23-.05-10-4.9-11.32-3.78-1.05-5.49,2.16-8.34,2.72a122.28,122.28,0,0,1-25.68,2c-7.16-.13-7-.46-6.37,6.92.64,7.21,1.46,14.45,1.31,21.66-.11,5.63.42,7.45,5.43,8.7a11.6,11.6,0,0,1,3.25,1.13c3.49,2.11,7.18,2,11.14,2.05C667.5,793.4,673.62,790.89,679.93,793.78ZM517.1,528.69c2.29.7,4.25.31,6.24.86,5.81,1.62,11.59,3.49,17.66,4.07,1.69.16,3,.31,3-1.92.06-9.62-3.42-17.86-9.74-25-1-1.18-2.77-2.35-3.06.17C530.1,516.42,522.27,521.44,517.1,528.69Z" transform="translate(-4.64 -14.25)"/><path class="cls-3" d="M130,376.83a421.74,421.74,0,0,0,42.93,2.27c6.72-.06,13.45-.08,20.17-.1,2.09,0,4.37-.53,5.63,2,.34.69,1.5,1.44,1.94.44,1.74-4,5.19-2.33,7.87-2.38,13.06-.2,26.19.91,39.14-1.23,7.49-1.24,15.21.13,22.56-2.62,4.86-1.82,8.76,2.23,13.25,3,2.51.47,4.87,1.82,7.58,1.86.9,0,2.39.51,2.6,1.14,1.24,3.62,4.73,4.35,7.33,6.3,15.54,11.63,28.35,26.1,40.64,40.9,5.76,6.94,10.82,15.17,13.58,23.66,2.27,7,1,15.21.71,22.87-.16,4.63.76,9.13.72,13.71,0,3.41,1.79,7.06-1.3,10.08,3.31,3.91,1.59,8.57,1.54,12.8-.18,16.16-.86,32.31-1.27,48.47a49.14,49.14,0,0,0,.52,5.9c-2.28,11.4-1.49,23-1.8,34.48-.49,18.14-1.55,36.3-1.18,54.46.14,7-4.26,11.21-7.78,16.11a3.54,3.54,0,0,1-2.18.94,54.16,54.16,0,0,1-10.34,1.09c-12.35-.27-24.68-.19-37-1-11.29-.78-22.69-.09-34,0l-42.83.17-60-1c-11.94.35-22.38-4.92-33.09-9.06-5.09-2-7-6.21-7-11.67,0-13.86-.18-27.71-.32-41.56-.15-14.41-.44-28.81-.44-43.22,0-8.28.23-16.56.39-24.83.2-9.59-.63-19.23-.47-28.86.3-18.54,1-37.29-2-55.46-2.66-16.68-1.65-33.14-2.06-49.7a100.33,100.33,0,0,1,1.05-17.23C116.5,380.56,119,376.75,130,376.83ZM214,397c-1.72-2.54-1.72-2.32-4.51-.65-1.22.74-3.15.34-4.76.4-1.9.06-3.79.06-5.69.09-14.07.11-28.14.15-42.13-1.81-2.36-.33-5.05.52-6.28-2.5-3.79,3.31-7.8.87-11.75.48-1.35-.13-1.83.21-1.57,2a136.13,136.13,0,0,1,1.51,17.21c.15,16.6-.05,33.25,2.38,49.69,2.62,17.76,1.68,35.63,2.66,53.43.53,9.59.08,19.25.12,28.87q.12,33.48.3,67c.08,12.25.34,24.5.46,36.74,0,3.65-.12,5.88,5.38,5.77,15.13-.29,30.29,1,45.44,1,10.79.06,21.62-.42,32.38-.34,14,.1,28.13.21,42.19.46,16.28.29,32.57.21,48.85.82,6.36.24,8.86-2.07,8.91-7.33.1-10.9.32-21.81.58-32.72.29-11.65.75-23.3,1-34.95.31-14,.4-28,1.05-41.94.8-17,.64-34.18,2.49-51.19.38-3.47.37-7,1-10.42.65-3.75-2.22-5.5-4.31-5-5.54,1.44-11,.55-16.49.69-10.67.28-21.44.8-31.86-2-5-1.34-9.56-4.09-14.46-5.81-7.13-2.49-9.52-5.68-9.7-13.2-.36-15.21.05-30.39.73-45.59.5-11.15-.93-12-12.08-10.26-10.33,1.65-12.61,1.48-23.47-1.74-.26-.08-.82,0-.87.19C220.15,398.76,216.39,395.88,214,397Z" transform="translate(-4.64 -14.25)"/><path class="cls-4" d="M271,121c-.3,24.28-.78,48.56-.83,72.84,0,15,.75,29.91-.2,44.85-.24,3.72,1.22,4.59,4.49,4.29,4.08-.37,8.15-.16,12.28-.86a30.49,30.49,0,0,1,19.22,3.37,18.79,18.79,0,0,0,4.24,1.38c4.27,1,5.34,3.67,2.54,6.89-7.28,8.36-14.71,16.59-21.94,25-10.27,11.9-20.44,23.88-30.63,35.85-7.53,8.85-14.51,18.19-23.62,25.6-2.21,1.79-4.12,1-6.44.66-12.59-1.75-18.11-11.4-23.51-21s-12.24-18.46-18-27.93c-7.78-12.89-16.5-25.24-22.77-39-.88-1.93-2.84-3.14-3.11-5.52-.16-1.42-2.5-2.67-.57-4.26,1.61-1.34,3.4-2.16,5.76-1.32,10.69,3.78,21.9,2.07,32.87,3,2.85.25,3.28-.77,3.4-3.28a210.82,210.82,0,0,0-.32-27.65c-1.09-12.74-2.14-25.47-1.93-38.27,0-1,.15-2-.88-2.68,1.27-5.58-.26-11.17.09-16.77,1.13-17.73-1.09-35.5.53-53.24.47-5.23-.76-10.43-.64-15.71.27-11.31.65-22.63,0-33.95-.13-2.53-.92-5.34,1.41-7.53a2.1,2.1,0,0,0,.35-2.77c-3.34-3.58-1.6-7.83-1.46-11.73a31.33,31.33,0,0,0-.23-7.87c-.55-2.49.11-4.1,1.32-6.45,2-3.9,3.89-2.66,6.73-2,11.72,2.71,20,10.62,28.51,18.26,8.09,7.26,16.41,14.27,23.94,22.13-.37,1.18-3.14.24-2.19,2.34.59,1.31,1.52,1.37,2.62,0,1.36-1.66,1.84.24,2.49,1,2.8,3.15,2.9,7.24,3.39,11C270.13,86.75,270.11,103.93,271,121ZM206.37,237.87c.16-.26.51-.58.53-.93s-.28-.68-.45-1c-.26.37-.54.72-.78,1.1C205.32,237.58,205.66,237.77,206.37,237.87Z" transform="translate(-4.64 -14.25)"/><path class="cls-5" d="M29.36,320.71c.58-2,5.08-.92,3.14-4.82-.4-.81,2.28-2.21,4.45-1.54a173.51,173.51,0,0,1,41.46,18.59c3.06,1.92,5.94,4.11,9,6,3.84,2.4,5.42,1.41,5.65-3.08.11-2.11-1.13-4.88,2.09-5.95.9-.3.24-.76.1-1.09-2.93-7.16-1.32-14.64-1.79-22C92.8,296.72,95,287,95.87,277.12c.33-3.72,1.85-6.77,3.49-9.78,1.55-2.86,5,.24,5,.36-.83,4.09,2.22,2.4,3.3,1.91,4.56-2.08,6.56.86,7.13,4.17,1.64,9.58,4.57,19,4.24,28.86-.44,12.94.57,25.87-.8,38.83-.78,7.42-4.88,12.59-8.86,18-1.42,1.95-4.09,1.91-6.46,1.11-12.8-4.32-24.72-10.59-36.51-17-10.18-5.55-19.94-11.87-29.84-17.93C34,324.15,31.69,322.34,29.36,320.71Z" transform="translate(-4.64 -14.25)"/><path class="cls-5" d="M7,272c.29-4.09,1.64-5.82,6.27-4.16,12,4.29,24.23,8,36.26,12.24,3.26,1.15,3.56,0,3.67-2.63.43-10.82.63-21.67,1.55-32.45a41.67,41.67,0,0,1,7.82-20.42c1.1-1.57,1.9-1.77,3.62-1A61.06,61.06,0,0,0,76.9,227c3.49.83,2.89,4.67,3.08,7.44.71,10.41-.07,20.79-.87,31.17-.38,4.93-.13,9.84-.89,14.82-1.06,7-5.27,11.88-9.23,17.07-1.56,2.05-3.71,1.78-5.86,1.08-14-4.5-27.71-9.82-41.33-15.35-5.47-2.22-11-4.26-15.61-8.15C4.05,273.27,4,273.4,7,272l1,.71c0-.24.19-.58.09-.69C7.77,271.7,7.36,271.41,7,272Z" transform="translate(-4.64 -14.25)"/><path class="cls-6" d="M145.78,737.15c-.73-2.49-2.22-3.49-4.44-3.26a2.68,2.68,0,0,1-1-.25c-15.66-4.81-15.62-4.3-16.72-22.87-.32-5.52-.35-10.72,3.49-15.26,1.38-1.63,2.69-2.35,4.64-1.44,3.7,1.75,7.74,2.93,10.66,6.06.66.71,1.06,2,2.2,1.77,5.21-1.07,4.4,2.4,4.84,5.66.75,5.67,1,11.45,2.53,17a7.22,7.22,0,0,1-2.49,8C148.15,733.69,147.65,735.27,145.78,737.15Z" transform="translate(-4.64 -14.25)"/><path class="cls-6" d="M111.79,691.53c-3,3.56-3.79,8.9-6.91,13-1.6,2.11-3.35,4.09-5.06,6.11-7.25,8.53-9.08,8.9-21.77,4.23a40.23,40.23,0,0,1-4.52-2.1c-5-2.6-5.28-4-1.63-8.19s6.26-9.69,10.48-13.84c3.46-3.41,12.2-7,16.88-5.5,3.77,1.17,7.16,3.48,11.22,3.85C111.51,689.2,111.78,690,111.79,691.53Z" transform="translate(-4.64 -14.25)"/><path class="cls-6" d="M57.53,652c7.57-.38,16.28.6,24.33,4.93a12.08,12.08,0,0,0,6.29,1.11c1.69,0,3.72.06,4.28,1.79A4.73,4.73,0,0,1,91,664.38c-1.73,1.69-4,2.85-4.83,5.38a2.37,2.37,0,0,1-2.15.85c-1.41-.51-.11-1.17.12-1.82.11-.32-.22-.8-.35-1.2-.74.28-1.87.33-2.16.86-2.62,4.78-8.13,6.41-11.25,4.06-4.32-3.27-9.35-2.09-13.36-4.57-4.41-2.73-9.61-3.29-14.15-5.58-1.83-.93-3.6-1.21-1.07-4.05C47.13,652.31,46.83,652.05,57.53,652Z" transform="translate(-4.64 -14.25)"/><path class="cls-4" d="M233,956c4.14,5.72,3.28,11.89,1.48,18.07-.71,2.41.9,4.28.93,6.67q.56,36.25,2.15,72.48c1,21.47,1.7,43,3.26,64.41.72,9.8,0,19.69.22,29.54.08,3.31-2.89,4.25-4,6.54-1.82,3.69-4.08,1.47-6,.26-1.51-1-3.08-.42-4.6-.72-6.27-1.24-8.41-6.33-11-11.09-8.24-15.39-17.62-30.1-26.76-45-6.56-10.66-12.71-21.63-15.31-34-1.75-8.26-1.15-17-.13-25.23.94-7.58.92-15.21,1.35-22.74.71-12.23,1.17-24.55,1.65-36.81.45-11.37.58-22.77,1-34.15.46-11.9.87-23.84,1.05-35.77.17-11.36,1.55-22.74,1.88-34.15.11-3.77-.64-5.42-4.73-5.41-6.45,0-12.9-.09-19.36.26-6.71.35-12.83-2.35-18.84-4.73-3.09-1.23.89-1.45,1.27-2.35,2.09-4.9,2.23-10.31,4.52-15.17,4.87-10.35,9.66-20.75,13.91-31.36,4.37-10.9,7.65-22.23,12.15-33.07,5.91-14.27,10.69-29.06,18.53-42.49.44-.76.33-3.48,2.32-1-1,.26-1.16,1-.94,1.82,0,.16.4.24.61.36l.25-2.25c1.19-.06,2.11-1.35,1.59-1.79-3.28-2.85-.18-4.66,1-6.59,2-3.27,4.28-3.66,8.48-2.64,12.93,3.11,16.84,14.26,22.42,23.67,6,10.12,10.66,21,15.76,31.63,11,23,21.19,46.49,35.88,67.57,2.25,3.22,4.63,7.33-1.22,10.07-1.85.86-1,4.76-4,4.24-4.72-.82-9.14,1.22-13.82.94-5.47-.32-11-.06-16.47,0-4,0-6.11.94-5.79,6.19,1.64,26.33,1.35,52.72,1.26,79.09,0,1.81.82,4.11-2,4.72-.08-.2-.17-.4-.25-.61,0,.1-.08.23,0,.27A2.14,2.14,0,0,0,233,956Z" transform="translate(-4.64 -14.25)"/><path class="cls-7" d="M218.93,672.15l42.83-.17c11.34-.05,22.74-.74,34,0,12.36.84,24.69.76,37,1A54.16,54.16,0,0,0,343.17,672a3.54,3.54,0,0,0,2.18-.94c3.52-4.9,7.92-9.12,7.78-16.11-.37-18.16.69-36.32,1.18-54.46.31-11.47-.48-23.08,1.8-34.48,8,2,15.91,4.15,23.78,6.66,12.75,4,25,8.85,35.36,17.36,17.82,14.59,29,33.27,32.67,56,3.1,19.2.32,37.77-6.33,56.07-7.37,20.31-20.44,36.53-34.9,51.93-7.33-3.95-14.8-7.69-22-11.91-11.41-6.71-24.43-9-36.56-13.74-4.08-1.58-9.75-3.65-13.45,1-2.81,3.53-6.18,7-6.77,12-1.71,14.72,1.69,29.07,2.83,43.58-7.42,0-14.54-1.41-21.85-2.86-15.67-3.11-29.5-9.87-43-17.64-16.18-9.31-27.59-23-34.26-40.43-4.36-11.39-9.65-22.53-12.12-34.52C218.41,683.93,219.09,678,218.93,672.15Z" transform="translate(-4.64 -14.25)"/><path class="cls-4" d="M330.77,785c-1.14-14.51-4.54-28.86-2.83-43.58.59-5,4-8.47,6.77-12,3.7-4.66,9.37-2.59,13.45-1,12.13,4.72,25.15,7,36.56,13.74,7.17,4.22,14.64,8,22,11.91,1,3.54-1.44,5.67-3.28,8.09-2.48,3.25-5.37.07-8,.63-2.16-3-5.48-4.08-8.64-5.55-2-.94-4.4-.58-6.15-1.66-6.77-4.17-14.43-6.28-21.56-9.6-4.84-2.24-6.8-.85-5.95,4.27,1.73,10.54,1.45,21.26,3.06,31.79.28,4.58,0,9.3,1,13.69,1,4.22.43,6.86-2.87,9.87s-4.24,3.67-6.14-.5c-1.22-2.69-2.13-2.78-3.58-.71-.94,1.35-1.52.63-2.65.46-9.05-1.38-10.82-7.74-10.92-15.38C331,788,330.86,786.47,330.77,785Z" transform="translate(-4.64 -14.25)"/><path class="cls-5" d="M376.84,774.85c7.48.45,13.88,4.49,20.87,6.57,14.78,4.38,28.39,12.09,43.13,16.82,4.3,1.38,4.51,3.64,1.18,6.85-1.23,1.19-2.66,1.78-3.28,4.11-.86,3.18-4.08.69-5.88,0-13.71-5.27-27.31-10.81-41.72-16.56.78,8.72,1.29,16.8,2.28,24.81.85,6.81,1.42,13.56.63,20.42-.34,2.9-3.14,3.82-4.1,5.93-1.79,4-3.73.66-5.49.41-8.48-1.25-12.68-5.53-14-14.77-1.74-11.85-3.53-23.71-4.92-35.61-.5-4.34-.46-8.65,3.08-12.17,1.06-1.06,1.27-3,1.86-4.51C372.57,776.38,374.43,774.84,376.84,774.85Z" transform="translate(-4.64 -14.25)"/><path class="cls-6" d="M354.23,384.07c-3.14-2.07-9.45.78-10.57-6.12-.21-1.29-2-.83-3.05-1.22-4.89-1.84-5.83-3.68-3.22-8.18q8.22-14.18,17-28c1.67-2.66,3.69-5.95,7.79-2.69a2.12,2.12,0,0,0,2.77-.46c1.83-2.63,4.06-1.16,5.36,0,2.61,2.24,5.53,2.43,8.64,2.78,3.65.42,3.92,2.73,2.05,5.29s-4.5,4.91-6.29,7.67c-1.12,1.73-4.62,3.47-.91,6.4,1,.81.23,3.3-.94,4.58-5.34,5.82-9.26,12.77-14.77,18.49A4.6,4.6,0,0,1,354.23,384.07Z" transform="translate(-4.64 -14.25)"/><path class="cls-6" d="M309.6,340.19c.44-5.62.64-9.88,1-14.1.3-3.91,2.87-6,4.4-9,1.05-2,2.82-2.21,5.08-1.31,4.12,1.66,8.21,3.49,12.64,4.3,2.13.4,2.37,2.1,2.3,3.84-.13,3.78.24,7.55-.77,11.35a61,61,0,0,0-1.35,10.78c-.5,6.42-4.78,11.33-8.1,16.53-1.11,1.74-3.05,1.76-4.89.7-.84-.48-1.77-1.24-2.63-1.21-4.14.15-5-2.27-5.75-5.78C310.2,350.51,308.39,344.85,309.6,340.19Z" transform="translate(-4.64 -14.25)"/><path class="cls-7" d="M376.84,774.85c-2.41,0-4.27,1.53-6.4,2.3-1.35,0-2.34-1.08-4,.87-2.37,2.76-6.78,2.7-10.26,4-1.61-10.53-1.33-21.25-3.06-31.79-.85-5.12,1.11-6.51,5.95-4.27,7.13,3.32,14.79,5.43,21.56,9.6,1.75,1.08,4.12.72,6.15,1.66,3.16,1.47,6.48,2.57,8.64,5.55C389.84,767.75,382.71,770.32,376.84,774.85Z" transform="translate(-4.64 -14.25)"/><path class="cls-6" d="M363.31,391.09c9.75-.46,16.85,3,24,5.91a20.29,20.29,0,0,0,4.76,1.07,5.63,5.63,0,0,1,4.68,3.22c.82,2.07-.71,3.55-1.77,5.32-5.48,9.09-13.11,7-22.23,2.24-.76-.39-1.48-1-2.26-.72-8,2.51-14.55-2.67-21.74-4.38-2.54-.61-3.14-.91-1.26-4.6C351.66,391.06,358.59,392.34,363.31,391.09Z" transform="translate(-4.64 -14.25)"/><path class="cls-8" d="M893,592.83c4-5.31,8.18-10.18,9.36-17.38,1.31-8.05-3-13.09-7.31-18.22a14.06,14.06,0,0,0-6.95-4.3,15.1,15.1,0,0,1,.58-2.34c1.9-4.55,4.13-9,5.66-13.66.7-2.15,3.19-5.88-1.28-6.71-4.13-.76-7.73-2.63-11.47-4.13-3-1.22-4.44-.27-5.92,2a125.47,125.47,0,0,0-9.66,17c-7.36-2.82-15-3.37-22.83-3.16-.74-4.21-1.38-8.44-2.24-12.63-.59-2.91-1.26-5.38-5.38-5.76a23.6,23.6,0,0,1-9.22-3c-1.84-1-4.33-3-7-2.25-1.83.48-6.77,9.66-6.21,11.56,1.66,5.61,2,11.36,2.06,17.14A226.37,226.37,0,0,0,796,561.66c-1,.86-2,2.18-3.41,1.12s-.26-2.36.19-3.6c3.36-9.27,8.13-18,10.84-27.53a256.51,256.51,0,0,0,8.53-42c1.54-14,.75-27.78-1.19-41.59-.82-5.84-3.91-10.92-6.65-15.91a57.29,57.29,0,0,0-24.88-24c-9.83-4.89-20.15-8.88-30.48-12.8-7.88-3-15.93-5.45-23.78-8.49-10.38-4-21.25-5.76-32.24-6.88-7-.71-14-1.32-21-1.91a7.71,7.71,0,0,0-4.33.62c-2.41,1.18-5.16,3-7.09-1.14-.43-.93-2.61-1.31-4-1.46-6.67-.71-13.37-1.27-20.06-1.83-2.14-.18-4.08,0-3.3,3.07.37,1.48.14,3.11-1.76,2.51-2.27-.71.45-1.54.29-2.41-.42-2.25-1.68-3.62-4.05-3.44-12.2.92-24.35-.86-36.6-.42-8,.28-16.13-.71-24.21-.25-9.67.54-19.24,1.23-28.84,3.34s-19.45,3.74-28.18,8.38c-20.51,10.89-33.33,27.86-37.7,50.78-.6,3.16-3.45,6.91.53,10-1.39,1.43-2.71,2.39-3,5a143.54,143.54,0,0,0,.42,34.29,31.74,31.74,0,0,0,3.68,11.22c1.2,2.17,1.36,3.69-.64,6-5.63,6.56-10.51,13.7-10.26,23.49a58.7,58.7,0,0,1-18.25-16.32c-15.3-20.3-23.21-43.34-24.73-68.77a88.84,88.84,0,0,1,11.68-50.59,42.81,42.81,0,0,1,11.63-13.45c10.11-7.44,16.44-16.39,14.38-30.05-2.07-13.81,1.51-27.19,5-40.5a145.32,145.32,0,0,1,6.83-20.16c4.52-10.52,11.29-19.63,19.14-27.8a68.69,68.69,0,0,1,31.7-18.93c8.94-2.47,18-2.7,27.16-2.12,4,.26,6.58-.16,9.51-4.5,2.73-4,7.32-7.79,11.48-11.2,21.37-17.48,46-27.85,73.06-32.29a48.38,48.38,0,0,1,33,5.8c5.35,3.12,11.48,4.88,17.26,7.26,5,2,9.91,0,14.66-.6,25.31-3.43,50.48-3.85,75.4,2.37,13.61,3.4,23.71,12,29.69,24.39,3.56,7.38,9.38,11.86,15.29,16.54,1.76,1.39,4.79,1,6.9,2.1,9.73,5,20.89,2.1,30.84,5.88,8.89,3.37,18.72,4.7,26.64,10.17,19.56,13.52,32.6,30.91,30.83,56.26-.64,9.07-4.85,16.87-8.92,24.67-5.5,10.51-5.07,13.39,5.28,18.86A72.34,72.34,0,0,1,950.66,396c9.84,20.13,10.39,40.14.42,60.26-1.71,3.45-2.72,7.14-4.94,10.43-2.84,4.23-1.79,8.68,1.12,12.74,3.36,4.68,7,9.21,10.27,13.92a42.91,42.91,0,0,1,4,6c5.75,11.64,5.2,23.05,1.41,34.87-4,12.49-9.75,23.92-20.66,31.75-5.14,3.68-10.23,7.31-14.64,11.85-3.48,3.59-5.49,8.14-8.12,12.28-1.54,2.43,1.1,5.06.5,7.7-6.35-2.48-12.7-4.68-19.75-4C897.87,594.07,895.41,593.2,893,592.83ZM663.76,378.48c-.15-.2-.3-.56-.45-.56a2.45,2.45,0,0,0-.83.32c.14.2.29.55.44.55A2,2,0,0,0,663.76,378.48Z" transform="translate(-4.64 -14.25)"/><path class="cls-7" d="M502.92,1017c3.68-.68,3.72-4.35,5.08-6.69,7.73-13.35,15.11-26.93,24.53-39.19a46.91,46.91,0,0,1,10.7-9.53c3.12-2.15,6.71,0,9.51,1.44,3.45,1.74,6.6,3.59,10.62,3.92,5.5.46,8,5,10.12,9.2,6.32,12.24,9.81,25.52,13.52,38.7.35,1.25.8,2.48,1.36,4.21,5.37-7,10.17-13.93,15.59-20.29,6-7,10.78-15.14,18.41-20.91a105.86,105.86,0,0,0,9.86-9.11c8.46-8.3,16.88-7.24,26-2.09.72.4,1.47,1.28,2.11,1.19,9.84-1.25,11.06,7.1,14.47,12.94a38,38,0,0,1,2,5c-2.55,7.25-6.53,13.82-9.86,20.69-8.56,17.66-17.81,35-25.65,53-.52,1.2.21,2.74-1.13,3.65-2.42-3.59-.49-8.42-3.17-12.11a11.69,11.69,0,0,0-1.47,1c-9.09,9-18.23,18-27.21,27.14-3.63,3.69-7.87,6.82-10.15,11.8-1,2.17-3.08,3.86-4.7,5.73-1.76,2-3.7,2-5.49.14-.64-.67-.69-1.62-2.07-1.63-7.74-.1-13.6-4.12-18-10-3.12-4.11-8.82-7.14-7-14,.54-2-1.19-2.65-2.84-2-2,.75-2.25-.38-3.18-1.79A184.05,184.05,0,0,1,543,1046c-1.3-2.72-2.53-1.93-3.57.27-2.47,5.16-5.22,10.22-7.36,15.52-4.55,11.28-8,23-11.37,34.63-1.36,4.72-4.14,8.84-9.23,10.63-8.83-10.48-14.25-22.6-15.25-36.17a140.47,140.47,0,0,1,3.93-44.39c.71-2.87,1.92-5.61,2.9-8.41,0-.36,0-.73,0-1.09Z" transform="translate(-4.64 -14.25)"/><path class="cls-8" d="M525.07,1254c-8.38-4.15-11.27-12.29-13.81-20.23a131.66,131.66,0,0,1-5.64-26.52c-1.46-14.15-1.84-28.25.5-42.38,1.73-10.5,4.6-20.46,10.14-29.67,1.52-2.54,4.45-4.13,4.85-7.36a30.83,30.83,0,0,0,12.24,3.75c2.57.23,3.93,3.56,6.74,4a80.74,80.74,0,0,0-5.28,13.33c-5,18.92-6.52,38.15-3.6,57.43,2.22,14.66,4.81,29.45,13.75,42,.08.11,0,.32,0,.49C538.79,1252.32,531.78,1252.58,525.07,1254Z" transform="translate(-4.64 -14.25)"/><path class="cls-8" d="M922.88,612.1c-.27,19.6-10.44,33.81-24.86,45.7-10.47,8.63-22.18,13.49-36,12.31-7.15-.61-7-.86-6.22-7.9,1.76-15.06,5-30,4.38-45.29-.09-2.28-2.64-5.06-.66-6.42,2.46-1.7,5.93-2,9-2.76,2.21-.54,4.56-.53,6.52-1.9,1.4.42,2.81.81,4.2,1.24,7,2.17,13.34,6.5,20.74,7.1s15.3,5.07,22-2.14C922.05,611.89,922.55,612.07,922.88,612.1Z" transform="translate(-4.64 -14.25)"/><path class="cls-7" d="M631.8,799.71c-10.59,7.61-19.15,15.31-25.38,25.68-6.74,11.2-12.82,22.64-17.26,34.91-.57,1.55-1.35,3-1.81,4.56-.55,1.85-.38,4.7-2.66,4.65-2,0-2.26-3-2.89-4.76a411.2,411.2,0,0,1-16.13-60.18c-.42-2.09.37-4.12-.45-6.26a2.71,2.71,0,0,1,2.29-3.27c13.32-2.34,25.8-7.44,38.23-12.4,4.34-1.73,9.39-2,13.07-5.66,2-2,2.52.92,3.46,1.9.28.28-.2,1.24-.25,1.89C621.44,788.61,622,795.93,631.8,799.71Z" transform="translate(-4.64 -14.25)"/><path class="cls-7" d="M679,903.48c.14-9.23.12-18.12.83-27.08,1.21-15.07-2.43-29.55-7.05-43.84A145.49,145.49,0,0,0,664.25,812c-1.25-2.48-.83-2.69,1.78-3.25,6.91-1.49,14.37,1,20.89-3.16,2.24-1.41,3.44,1.33,5.17,2,5.94,2.38,9.45,6.9,11.32,13,1.34,4.43,2.58,9,4.92,13,.65,1.14,1.2,2.54,2.2,3.25,4.27,3,8.09,6.06,4.57,12,3,3.77.25,7.69,0,11.47-.27,5.09-4.36,8.68-6.91,12.82-3.38,5.46-8.94,9.24-12.75,14.11s-9.17,8.38-12.24,13.75C682.18,902.93,680.9,903,679,903.48Z" transform="translate(-4.64 -14.25)"/><path class="cls-8" d="M573,1137.94c.22,6-2.16,11.62-2.09,17.67.13,10.84,1.23,21.43,4.72,31.73.84,2.46,1.43,5.05.42,7.67a1.13,1.13,0,0,0-.36.14c-.06,0-.06.17-.09.27l.43-.43c4.4,1.18,4.07,5.62,5.61,8.6,5.06,9.81,8.14,20.52,13.43,30.25-5.2.62-9.62,4.05-14.95,4.19-6.53-7.44-13.86-14.23-18.7-23-7-12.62-12.68-25.65-14.45-40.17-.88-7.26-1.25-14.39,0-21.69,1-6,5.74-10.19,7.05-16C560.14,1141,566.62,1137.65,573,1137.94Z" transform="translate(-4.64 -14.25)"/><path class="cls-8" d="M629.93,1225.86c-2.51-3.49-6.88-4.61-9.75-7.49-5.39-5.39-10.89-10.25-13.92-18.19-2.25-5.92-5.48-11.74-7.43-18-5.11-16.4-6.72-33-2.89-49.89,7-.77,14-1.57,21-2.32,3.27-.35.55,2.67,1.88,3.43-3.34,3.19-1.75,7.55-2.29,11.28-.88,6.11-.63,12.43-.4,18.65.82,22.06,4.82,43.16,20.15,61Z" transform="translate(-4.64 -14.25)"/><path class="cls-8" d="M739.89,888.91q2-8,4-16c1.25,1.64,3,1,4.63,1.05,8.14.15,16.19-1.18,24.36-1.09,10.93.11,21.71-1.9,32.51-3.43,4.53-.64,9.51-3.12,13.6-.86a17.56,17.56,0,0,0,9.82,2.36c-2.3,4.78-2.38,10.14-4,15.09-9.13.15-17.91,3-27,3.5-8.13.47-16.26,1.16-24.39,1.34-6.77.15-13.54,0-20.31.54C748.55,891.79,743.71,892.9,739.89,888.91Z" transform="translate(-4.64 -14.25)"/><path class="cls-8" d="M817.84,922.05c-4.21,1.17-9,2.14-12.7.65-5.66-2.27-10.84.63-16.33-.36-5.8-1-11.95.1-17.89-.43-12.13-1.09-24.32,1.56-36.44-.72-2-.37-4.21.54-6.32.86,2.18-6,3.31-12.5,6.77-18.07,8.5.34,17,.81,25.49,1,9.45.18,18.9-.08,28.34.12,7.67.17,15.52,0,22.67,3.15a12.83,12.83,0,0,0,8.41.73Z" transform="translate(-4.64 -14.25)"/><path class="cls-8" d="M722.16,938c7.34,1,14.66,2.22,22,3,14.9,1.61,29.8,3.18,44.73,4.4,7.83.64,15.76.33,22.86,4.51-.92,4.41-2.66,8.63-2.91,13.18-14.22-.33-28.27-2.39-42.4-3.79s-28.05-3.56-42.07-5.37c-2.57-.33-5.81.05-7.43-3C717.68,946.16,720,942.09,722.16,938Z" transform="translate(-4.64 -14.25)"/><path class="cls-5" d="M845.06,555.08c-1.12,2-.61,4.46-.66,6.43-.13,4.6-5.1,5.35-5.9,9.09-.13.61-1.39.42-2.23.09-5.09-2-10.21-3.88-15.32-5.81-3.49-3.75-3.45-8.73-4.53-13.29-.36-1.53,0-3.24-1.24-4.54-.11-5.78-.4-11.53-2.06-17.14-.56-1.9,4.38-11.08,6.21-11.56,2.67-.7,5.16,1.22,7,2.25a23.6,23.6,0,0,0,9.22,3c4.12.38,4.79,2.85,5.38,5.76.86,4.19,1.5,8.42,2.24,12.63S843.68,550.82,845.06,555.08Z" transform="translate(-4.64 -14.25)"/><path class="cls-7" d="M827,834l10.19-4.87c-.84,4.4-1.56,8.2-2.28,12-9.77,5.91-19.37,12.16-29.87,16.71-4.65,2-9.71,3.21-14.65,4.48-4.78,1.22-9.84,1.56-14.43,3.22-4.38,1.58-8.66,0-13,.46-5.71.61-12,2.28-17.87.08.41-3.25.72-6.53,1.29-9.76.36-2,1.27-3.62,4-3.38s5.41.69,7.33-2.08c.42-.61,2.51-.92,1.87.45-1.09,2.34.37,1.59,1.33,1.66,12.48.86,24.34-2.09,36-6,4.2-1.38,8.32-3,12.42-4.66,2.43-1,5.5-.85,6.48-4.33.39-1.37,2.2-1,3.55-.87,3.1.34,5.81-.41,7.67-3.16Z" transform="translate(-4.64 -14.25)"/><path class="cls-5" d="M879.8,566.94c-2.29,3.09-6.68,4.49-6.76,9.51,0,1.55-3.24.69-4.85.73-1.16,0-3.47.51-4.1-1.64-.37-1.24.15-3.74-2-2.8-2.49,1.1,2.51,2.16.41,3.79-8.25-2.51-8.86-3.61-6-11.54,1.11-3.06,2.36-6.07,3.54-9.1q3-5.37,6-10.74a125.47,125.47,0,0,1,9.66-17c1.48-2.29,2.89-3.24,5.92-2,3.74,1.5,7.34,3.37,11.47,4.13,4.47.83,2,4.56,1.28,6.71-1.53,4.67-3.76,9.11-5.66,13.66a15.1,15.1,0,0,0-.58,2.34C885.45,557.67,883.22,562.66,879.8,566.94Z" transform="translate(-4.64 -14.25)"/><path class="cls-4" d="M922.88,612.1c-.33,0-.83-.21-1-.06-6.67,7.21-14.6,2.75-22,2.14s-13.75-4.93-20.74-7.1c-1.39-.43-2.8-.82-4.2-1.24-.37-.29-.72-.59-1.1-.86-2.12-1.56-7.49-2.09-6.34-3.77,2.09-3.05,2.57-7.83,8.39-8.71s11.38,1.27,17,.33c2.42.37,4.88,1.24,7.25,1,7-.67,13.4,1.53,19.75,4,1.89.49,3.76,1.13,5.69,1.45,4.14.69,5.56,3,2.74,5.64C926.13,607.13,925.2,610.11,922.88,612.1Z" transform="translate(-4.64 -14.25)"/><path class="cls-7" d="M827,834l-1.28-.41a2.55,2.55,0,0,1,.3-.32c.33.23.64.49,1,.75Z" transform="translate(-4.64 -14.25)"/><path class="cls-1" d="M214,397c-.07,6.61-5.4,3.59-7.9,3.48a9.77,9.77,0,0,1-7.06-3.64c1.9,0,3.79,0,5.69-.09,1.61-.06,3.54.34,4.76-.4C212.3,394.71,212.3,394.49,214,397Z" transform="translate(-4.64 -14.25)"/><path class="cls-1" d="M206.37,237.87c-.71-.1-1.05-.29-.7-.85.24-.38.52-.73.78-1.1.17.34.48.69.45,1S206.53,237.61,206.37,237.87Z" transform="translate(-4.64 -14.25)"/><path class="cls-1" d="M189.94,739l-.25,2.25c-.21-.12-.57-.2-.61-.36-.22-.86,0-1.56.94-1.82Z" transform="translate(-4.64 -14.25)"/><path class="cls-1" d="M233,956a2.14,2.14,0,0,1-.39-.28s0-.17,0-.27c.08.21.17.41.25.61Z" transform="translate(-4.64 -14.25)"/><path class="cls-9" d="M866,545.15q-3,5.37-6,10.74c-2.47-1.89-5.44-.5-7.89-.42a57.71,57.71,0,0,1-7.1-.39c-1.38-4.26-1.23-8.73-1.89-13.09C851,541.78,858.64,542.33,866,545.15Z" transform="translate(-4.64 -14.25)"/><path class="cls-2" d="M663.76,378.48a2,2,0,0,1-.84.31c-.15,0-.3-.35-.44-.55a2.45,2.45,0,0,1,.83-.32C663.46,377.92,663.61,378.28,663.76,378.48Z" transform="translate(-4.64 -14.25)"/><path class="cls-2" d="M736.08,558.21c-8.22-2.28-16.79-.61-25.3-1.57a125.77,125.77,0,0,0-18.2-1.11c-8.65.28-17.37-2.58-26.11-3.78-7.28-1-13.49-4.67-20.15-7.26-6-2.31-3.16-6.84-2.51-10.29.74-4,2.81-7.67,4.32-11.48.12-.31.29-.71.54-.83,5.55-2.58,5-9.81,10.1-12.95,5.32-3.24,10.64-6.27,16.24-9.09,17.87-9,34.84-5.88,52.78-.22,11.52,3.63,19.82,9.79,25.89,19.64,4.66,7.57,6.1,16.17,7.3,24.8a22.34,22.34,0,0,0,.69,4.89c1.23,3.4-1.45,5.5-3.76,5.8-3.6.46-7.09,1.43-10.59,1.88C743.65,557.11,739.93,557.69,736.08,558.21Zm-39.3-13.56c2.81,1.15,5.6,1.17,8.4,1.44,4.91.47,9.75,1.29,14.72,1.55,5.6.3,11.13.88,16.54-.82,2.54-.8,3.54-2.29,2.89-5.57-1-4.83-1.9-9.74-3.8-14.18a43.6,43.6,0,0,0-15.71-19,1.84,1.84,0,0,0-2.49-.06c-1.09.67-1.16,1.11-.76,2.3.77,2.23.31,4.44-.25,6.78-1.6,6.65-5,12.18-9.26,17.4C704.06,538.24,701.24,542,696.78,544.65Z" transform="translate(-4.64 -14.25)"/><path class="cls-2" d="M708.26,449c2-2.5-.44-6.51,2.9-7.65,7.1-2.42,14.13-6.12,22-3.75,9.18,2.78,18.34,5.67,27.33,9,3.47,1.28,7.71,2.35,8.79,7,.09.4,1,.81,1.55.87,7.49.82,17.62,16.6,15.58,24.34-1.86,7.05-7.31,9.53-15.36,7.88-8.95-1.82-18-4.07-27.06-4.17-16.48-.16-32.6-1.88-48.36-6.6-3.25-1-6.49-2-9.73-3-5.57-1.73-6.55-4.66-3.38-9.9,5-8.23,13.07-13.11,20.62-18.47C708.3,440.83,707.05,446.65,708.26,449Z" transform="translate(-4.64 -14.25)"/><path class="cls-2" d="M570.13,464c-5.38-3.84-12.82,2.38-19.5-2.41-.79-.57-5.16,0-7.7.23-7.09.58-13.49-1.58-20.16-2.8-8.51-1.56-17.15-2.39-25.26-5.89-3.93-1.69-5.88-3-3.48-7.83,5.12-10.34,13.44-16.55,23.89-20.25a68.7,68.7,0,0,1,42.88-1.19c14.12,4,26.88,9.77,34.61,23.29a18.74,18.74,0,0,1,2.45,8.4c.23,5.14-4.37,5.78-7.91,6.38C583.79,463,577.49,463.26,570.13,464Z" transform="translate(-4.64 -14.25)"/><path class="cls-9" d="M640,601.94a15.28,15.28,0,0,1-1.9,8.82c-6.1,12.19-15.84,19.86-29.41,21-6.33.51-12.86-2-19.34-2.62-8.34-.85-15.87-4.26-23.4-7.35-8-3.29-15.74-7.33-20-15.79-3.76-7.55-3-14.29,1.92-21.09,6.21-8.5,14.51-12,24.71-11.54,4.22.19,6.82-1.73,5.52-5.61-2.19-6.5-2.23-13.28-2.8-19.86-.94-10.83-.25-21.81-.21-32.72,0-7.31-.05-14.6,1.86-21.77.57-2.12.82-4.85,3-5a5.55,5.55,0,0,1,5.56,4c1.32,4.27,3.12,8.6,3.33,13,.62,13.23,2.28,26.36,2.53,39.65a157.22,157.22,0,0,0,2.21,24.2c1.85,10.53-2.93,15.56-13.51,13.51-6.7-1.29-16.64,3.81-19.26,9.88-2.91,6.74-.29,14.33,7.27,19.7,12.45,8.85,26.69,11,41,7.42,6.28-1.58,13.28-5.77,14.71-14.24a10.52,10.52,0,0,0-1.23-7.13c-1.91-3.12-2.11-5.84-.36-8.81.95-1.61,1.91-2.55,4.31-1.42a79.16,79.16,0,0,0,10.17,4.26C640.37,593.5,640.17,598.11,640,601.94Z" transform="translate(-4.64 -14.25)"/><path class="cls-9" d="M680.83,624a9,9,0,0,1,5,1c8.11,3.67,17.62,4,24.51,10.67,2,1.92,4.48,3.67,2.71,6.33-1.37,2.06-3.31,4.52-7.07,2.76-5.56-2.59-9.74-2.69-14.77,3.44-3.69,4.51-9.89,8.38-15.59,11.88-6.67,4.08-13.58,6.55-20.58,9.26-6,2.33-12.41,2.46-18.83,2.5-7.31,0-14.49-1.32-21.84-1.11-6.67.2-12.78-3.45-19.19-5.2-4.36-1.18-8.39-3.56-12.62-5.29-2.16-.89-3.65-1.81-2.59-4.59,1.18-3.09,3.19-1.56,4.82-1,9.66,3.43,19.69,4.58,29.83,5.46,7.52.65,15,1.17,22.5.06,9.48-1.38,18.46-3.89,26.69-9.07a96.6,96.6,0,0,0,17.91-14.32c2.8-2.88,1.16-3.64-1.3-4.56A13.5,13.5,0,0,0,679,632c-2.28-.55-5.36-.6-6.27-2.66S676.94,624,680.83,624Z" transform="translate(-4.64 -14.25)"/><path class="cls-9" d="M748,569.48c-3.74,5.75-9.78,8.26-15.37,11.32-2.8,1.53-3.16-3.89-4.64-2.39-1,1-.35,3.55-3.22,3.65a102.62,102.62,0,0,1-33.7-4.51c-3.22-1-7-1.27-9.56-3.7-.94-.88-4-.47-2.67-2.88,1-1.9,1.73-4.78,5.26-4,3.82.8,7.66,1.62,11.45,2.45,11.2,2.46,22.08,2.5,32.93-1.43C736.54,565.06,739.29,565.33,748,569.48Z" transform="translate(-4.64 -14.25)"/><path class="cls-3" d="M262.15,606.89a256.06,256.06,0,0,1-40,.91c-7.86-.38-15.83,1.91-23.66-1-1.75-.65-3.91,1.38-6.21,1.24-6.77-.39-13.12-2.39-19.64-4-3.42-.83-7-1-10.21-2.85-1.58-.9-1.13-.69-.26-2.33,3.85-7.26,10.45-4.19,15.82-4.73,13.63-1.36,27.33-2.18,41-3,8-.47,16-.4,24-1A425.77,425.77,0,0,1,287.42,589c5.63.16,11,1.49,16.38,2.91,5.06,1.33,4.84,3.19,2,7.31-4,5.86-10.11,4.59-15.34,5.58A126.11,126.11,0,0,1,262.15,606.89Z" transform="translate(-4.64 -14.25)"/><path class="cls-10" d="M180.68,491c14.83.77,33.71,2.05,52.62,2.59,9.73.27,19.45.39,28.95,2.49,8.05,1.79,16.52,1,24.31,4.1,1.39.55,4,.44,3.66,2.44-.28,1.8-2.08,2.83-4.36,3.35-5,1.15-10,1-15.05,1.29-6.09.38-12,2.29-18.27,1.82-3.93-.29-8.31-2.41-11.36-1.6-4.75,1.27-9-.12-13.49.27-2.35.2-4.79.94-7-1.27-.59-.6-2.39.92-4.19.75-8.39-.8-16.93-.45-25.26-1.6-9.3-1.29-19,.1-27.9-3.79-4.93-2.15-5.09-3-1.56-7.14C164.41,491.65,167.06,491,180.68,491Z" transform="translate(-4.64 -14.25)"/><path class="cls-3" d="M155,439.56c-.59-6.88,2.36-12.22,7-16.83,3.8-3.76,10.42-4.49,15.46-1.79a25,25,0,0,0,8.72,2.88,14.25,14.25,0,0,1,12.12,10.3c1.68,5.31,1.15,10.6-2.89,14.77-3,3.1-4.71,7.65-9.43,9-.46.13-1.13.8-1.23.7-3.55-3.22-8,1.42-12.21-1.86-2.84-2.21-7.5-2.41-11.14-4.54C156.27,449.15,155.06,444.8,155,439.56Z" transform="translate(-4.64 -14.25)"/><path class="cls-10" d="M275.13,545.55c-4.82-.47-9.53,2.13-14.64,2.78-4,.51-7.74,0-11.55-.3-13.77-1-27.64,1.2-41.41-1.67-4.71-1-9.9,1.47-14.82-.54-.9-.37-2-.35-2.87-.69-1.61-.62-3.5-.75-4.58-2.39,2.07-1.32,1.8-4.42,4.89-5.31a69.43,69.43,0,0,1,15.45-2.23c4.94-.26,9.8-1.13,14.72-1.47,13.89-1,27.76-1.53,41.55.42,6.74,1,13.36,3,19.93,5,4.16,1.23,1.61,3.48.06,4.94A6.6,6.6,0,0,1,275.13,545.55Z" transform="translate(-4.64 -14.25)"/></g></g></svg>
