<svg xmlns="http://www.w3.org/2000/svg" fill="none" width="241" height="70" viewBox="0 0 241 70"><defs/><path fill="#26A0F5" d="M177.758 23.121v24.041c0 .707 0 .707.707.707 1.626 0 3.181.07 4.808 0 1.485-.071 3.04-.071 4.525-.283 1.556-.212 3.04-.849 4.172-2.05 1.485-1.556 1.767-3.536 1.555-5.587-.283-2.545-1.626-4.171-3.959-5.09-.142-.071-.212-.142-.425-.212.142-.071.142-.071.213-.142 1.979-1.06 3.04-2.687 3.111-4.95.141-2.686-.99-4.737-3.465-5.727-1.626-.636-3.253-.777-4.949-.777H177.758v.07zm4.949 10.182c-.141 0-.424-.212-.424-.353v-6.647s0-.07.071-.07c0-.071 0-.142.07-.142 1.132.07 2.263.141 3.323.283 1.203.212 1.91.99 2.051 2.121.071.848.071 1.697-.071 2.475-.283 1.414-1.414 2.05-2.757 2.262-.566.071-1.132.071-1.627.071h-.636zm-.424 10.96v-3.677-3.748c0-.353.141-.565.495-.495 1.202.142 2.333.071 3.464.354 1.768.424 2.617 1.626 2.758 3.394 0 .636 0 1.343-.141 1.909-.283 1.626-1.485 2.616-3.394 2.758-.849.07-1.768.07-2.687.141h-.071c-.353 0-.424-.212-.424-.636zM91.283 22.697c-4.384 1.06-6.434 5.303-4.525 9.263.707 1.484 1.909 2.545 3.323 3.393 1.343.849 2.828 1.556 4.171 2.405.849.494 1.627 1.06 2.334 1.767.99.92 1.202 2.122.778 3.394-.354 1.202-1.344 1.697-2.475 1.91-1.697.282-3.394 0-4.95-.637-1.202-.495-2.333-1.06-3.535-1.626v4.454c0 .142.212.354.354.424.777.213 1.484.425 2.262.566 2.546.424 5.02.566 7.566-.07 4.667-1.203 7-5.728 5.091-9.97-.778-1.697-2.121-2.9-3.677-3.819-1.273-.777-2.616-1.414-3.96-2.191a14.074 14.074 0 01-2.333-1.697c-.848-.778-1.202-1.768-.778-2.9.424-1.13 1.344-1.555 2.475-1.696 1.485-.212 2.828.141 4.243.636.99.354 1.909.778 2.828 1.202v-4.384c-1.06-.141-2.121-.353-3.111-.495a19.996 19.996 0 00-2.9-.212c-.99-.141-2.05 0-3.181.283zm19.444 3.04c-2.828.213-5.02 1.556-6.363 4.101-1.132 2.263-1.414 4.667-1.485 7.142l.212 2.757c0 .425.141.849.212 1.273.707 3.606 2.687 6.93 7.495 7.283 3.747.283 6.929-1.131 8.414-5.091 1.344-3.535 1.344-7.141.495-10.818-.495-2.263-1.555-4.172-3.535-5.445-1.414-.919-2.899-1.202-4.526-1.202h-.919zm-1.697 18.738c-.848-1.06-1.202-2.263-1.343-3.536-.142-1.272-.212-2.545-.354-3.818.071-1.768.142-3.535.637-5.303.283-.919.636-1.768 1.272-2.404 1.344-1.343 3.677-1.202 4.879.283.849 1.06 1.273 2.404 1.414 3.677.425 2.828.425 5.656-.212 8.414-.212 1.131-.636 2.192-1.485 3.04a3.208 3.208 0 01-2.262.92c-.919-.071-1.909-.495-2.546-1.273zM217.141 26.09c-3.747.99-5.444 4.738-3.747 8.061.636 1.273 1.697 2.192 2.899 2.97 1.343.778 2.687 1.485 4.03 2.334.707.424 1.344.919 1.839 1.555 1.131 1.273.777 3.677-1.415 4.172-1.696.353-3.252 0-4.808-.566-.919-.353-1.838-.848-2.828-1.343v3.676c0 .425.142.637.495.708 2.687.707 5.445.99 8.202.424 3.677-.778 5.727-3.677 5.091-7.424-.283-1.91-1.485-3.253-2.97-4.243-1.202-.778-2.545-1.485-3.818-2.263-.707-.424-1.414-.848-2.05-1.414-.778-.707-1.132-1.555-.778-2.616.353-1.06 1.202-1.414 2.192-1.485 1.98-.141 3.747.495 5.444 1.344.212.141.424.212.707.353v-3.747c0-.141-.212-.283-.353-.354l-2.334-.424a15.454 15.454 0 00-2.545-.212c-1.273.141-2.263.212-3.253.495zM130.03 25.737c-3.676 0-6.434 1.839-7.636 5.303-1.273 3.607-1.273 7.354-.071 11.03 1.132 3.748 3.677 5.94 7.637 6.223 2.262.141 4.383-.142 6.434-1.202.353-.212.495-.424.495-.778v-2.97c0-.141 0-.282-.071-.424-.778.566-1.485 1.132-2.333 1.556-1.556.848-3.182 1.131-4.879.565-1.768-.636-2.545-2.12-3.04-3.747-.707-2.333-.778-4.808-.495-7.212.141-1.485.495-2.97 1.343-4.172.778-1.131 1.909-1.555 3.253-1.343 1.272.212 2.05 1.272 2.262 2.828.071.424 0 1.06.212 1.273.213.141.566.141.92.07h3.606c.07-.141.07-.141.07-.212.071-2.333-.707-4.313-2.828-5.586-1.414-.919-3.04-1.13-4.737-1.13h-.142v-.072zM163.404 26.09v21.354c0 .425.071.566.566.566h9.969c.213 0 .495-.141.566-.283.424-.848.707-1.767 1.131-2.757h-7.212c-.778 0-.778 0-.778-.778V26.798v-.707h-4.242zM153.576 26.09h-3.253c.071.425.142.779.212 1.061 0 .495.142 1.132 0 1.556l-6.788 18.667c-.07.141-.07.353-.141.565.707 0 1.414-.07 2.051 0 .565.071.777-.212.989-.707.637-1.767 1.273-3.606 1.91-5.373.141-.354.282-.425.636-.425h6.434c.425 0 .566.142.707.495.566 1.627 1.202 3.253 1.768 4.88.424 1.13.424 1.13 1.556 1.13h2.969c-.07-.282-.141-.424-.212-.565-2.475-6.788-4.949-13.576-7.353-20.364-.495-.92-.495-.92-1.485-.92zm-1.414 5.799h.141c.919 2.404 1.838 4.808 2.828 7.283h-5.656c.919-2.475 1.767-4.88 2.687-7.283zm47.727-5.798c.071.353.141.636.141.92 0 .565.212 1.201 0 1.696-1.697 4.737-3.464 9.475-5.161 14.283-.637 1.626-1.202 3.323-1.839 5.09h2.192c.495 0 .707-.14.919-.636.637-1.838 1.344-3.676 1.98-5.444.142-.353.283-.424.637-.424h6.434c.424 0 .566.141.707.495.636 1.838 1.343 3.747 1.98 5.586.141.353.283.424.636.424h3.677c-2.687-7.354-5.303-14.637-7.919-21.92h-4.384v-.07zm1.909 5.727h.141c.92 2.404 1.909 4.808 2.829 7.283h-5.657c.919-2.475 1.768-4.879 2.687-7.283zM142.687 26.09h-3.818v21.85h3.818V26.09zM228.525 26.09v21.85c.071 0 .142.07.212.07h11.596c.354 0 .425-.141.354-.424v-2.05c0-.425-.142-.566-.566-.566h-7.424c0-.142-.071-.212-.071-.283v-6.293c0-.424.283-.424.495-.424h6.788V35.14h-6.505c-.778 0-.778 0-.778-.777v-4.808-.637h7.283c.141 0 .495-.141.495-.212.071-.848 0-1.697 0-2.616h-11.879zM33.869 68.515L15.06 61.94c-11.526-3.96-17.606-16.474-13.576-28L8.06 15.131c3.96-11.525 16.545-17.606 28-13.646L54.869 8.06c11.525 3.96 17.606 16.545 13.576 28.07L61.869 54.94c-3.89 11.526-16.475 17.607-28 13.576z"/><path fill="#fff" d="M23.333 22.06c-4.525 1.132-6.646 5.516-4.666 9.617.777 1.555 1.98 2.687 3.464 3.535 1.414.849 2.9 1.626 4.313 2.475a12.046 12.046 0 012.405 1.838c.99.92 1.201 2.192.848 3.465-.354 1.273-1.414 1.768-2.616 1.98-1.768.353-3.465 0-5.091-.637-1.202-.495-2.404-1.131-3.677-1.697v4.596c0 .142.212.425.354.425.777.212 1.555.424 2.333.565 2.616.425 5.232.637 7.778-.07 4.879-1.203 7.283-5.87 5.303-10.324-.778-1.767-2.192-2.97-3.818-3.96-1.344-.777-2.758-1.484-4.03-2.262-.85-.495-1.698-1.06-2.405-1.768-.848-.777-1.202-1.838-.777-3.04.424-1.131 1.343-1.626 2.545-1.768 1.485-.212 2.97.142 4.384.637.99.353 1.98.848 2.97 1.272v-4.525c-1.132-.212-2.192-.353-3.253-.495-.99-.141-1.98-.212-2.97-.212-1.131-.07-2.262.07-3.394.354zM36.343 22.485v24.464c0 .708 0 .708.707.708 1.627 0 3.253.07 4.88 0 1.555-.071 3.11-.142 4.666-.283 1.626-.212 3.111-.849 4.242-2.05 1.485-1.627 1.768-3.607 1.556-5.657-.283-2.546-1.697-4.243-4.03-5.162-.142-.07-.212-.141-.425-.212.142-.07.142-.07.212-.142 1.98-1.06 3.04-2.757 3.182-5.02.142-2.757-.99-4.808-3.535-5.798-1.626-.636-3.323-.777-5.09-.777h-6.365v-.071zm5.02 10.394c-.14 0-.424-.212-.424-.354v-6.788s0-.07.071-.07c0-.071 0-.142.07-.142 1.132.071 2.263.142 3.395.283 1.202.212 1.98.99 2.121 2.192.07.849.07 1.697-.07 2.546-.284 1.484-1.415 2.12-2.829 2.262-.566.07-1.131.07-1.697.07h-.636zM40.94 44.05v-3.748-3.818c0-.424.142-.566.495-.495 1.202.141 2.404.07 3.536.353 1.767.425 2.687 1.627 2.828 3.465 0 .636 0 1.343-.141 1.98-.283 1.626-1.556 2.616-3.465 2.758-.92.07-1.839.07-2.687.14h-.07c-.425 0-.496-.211-.496-.636z"/></svg>
