<svg xmlns="http://www.w3.org/2000/svg" width="488" height="500" viewBox="0 0 1180.78 1203.88"><defs><style>.cls-1{fill:#cbefed;}.cls-2{fill:#562bde;}.cls-3{fill:#9b82ea;}.cls-4{fill:#fa5847;}.cls-5{fill:#9a81ea;}.cls-6{fill:#fa5948;}.cls-7{fill:#cdcde5;}.cls-8{fill:#cdcce5;}.cls-9{fill:#562cde;}</style></defs><title>Ativo 2CTAcs</title><g id="Camada_2" data-name="Camada 2"><g id="Camada_1-2" data-name="Camada 1"><path class="cls-1" d="M514.58,51c.95.12,2,.68,2.72.67,2.65-.07,3.12,7.43,7.08,2,2.87,4.05,9.68-1.67,11.63,4.69,4-1.38,6.23,2.59,9.55,3.23,1.14.22,1.59-1,2.19-1.76s2-.9,2.07-.42c.1,3.6,3.77,1.69,5.22,3.6,1.78,2.32,2.24-1,3.68-1.89-.32,7.13,4.84.62,6.56,2.92.58-1.69,1.36-1.77,2.16-.19,1.49,2.93,5,3.34,6.87,2.82,4.73-1.35,8.66,2.28,13.4,1.16,1.54-.36,4.45,4.05,7.08,2.45,2.07-1.27,3-.49,4.7,0,2.55.73,5.24,4.35,7.92.08.08-.14,1,.11,1.37.32,10.07,4.92,20.79,3.77,31.42,3.28,2.54-.12,4.91.79,7.35.93,13.07.73,26.12,1.22,39.19-.64,5.71-.82,11.64-.48,17.44-.2,9.55.45,18.85-1.7,28.31-2.27a229.48,229.48,0,0,0,33.13-4.43c8.57-1.8,17.51-.49,25.75-3.38,6.15-2.15,12.63-1.88,18.78-3.72,11.09-3.31,22.63-5,33.45-9.35,3.73-1.52,8.06-1.35,11.75-3.31.24-.12.79.23.95.09,5.5-4.8,12.73-3.17,19.05-4.92a82.57,82.57,0,0,1,20.73-2.89c5.17-.07,10.37-3,15.38.63,8-4.66,16.12,1.91,24.12-.46,2.54-.75,4.18,1.86,6.9,1.51s5.62,1.88,8.65.52a1.13,1.13,0,0,1,1,.06c5.78,4.09,13.07.61,19.06,3.85s13.54,1.51,19.48,5.58c2.12,1.45,4.72.45,8.19-2.46-3.18,5.51-.11,5.94,2.56,6.87,9.08,3.17,18.24,6.24,26.63,11,4.06,2.3,9.73,2.31,12.36,4.92,3.95,3.94,9,3.7,13.14,5.37,6.07,2.47,10.25,7.84,17.06,9.11,4.78.9,7.45,6.27,11,9.68,8.81,8.46,17.47,17.09,25.88,25.94,3.65,3.84,5.43,9,7.65,13.79a661.92,661.92,0,0,1-74.66-1.78c-4.93-.39-8.6.73-11.38,5-1.48,2.3-.88,4.76-1.07,7-.79,9.81-4.11,19.16-4.78,29-.6,8.77-1.66,17.5-2.12,26.31-.58,10.91-1.59,21.67,1,32.48,1.12,4.64,3.54,7.16,8.09,8a64.84,64.84,0,0,0,13.13,1c5.85-.11,7.49,2.55,7.33,8.46a300.84,300.84,0,0,1-3.18,33.38,2.42,2.42,0,0,0,1,2.53c3.14,2.51,10.17,2.69,13.24.13,1.88-1.57,3.71-3.2,5.44-4.93q17.11-17.18,34.17-34.42a6.62,6.62,0,0,1,4.12-2.29c11.31-1.58,22.64.18,34-.36,7.76-.37,15.75.36,23.64.52,0,6.75,2.4,13,3.85,19.53.09.43.3,1,.15,1.32-3.35,8.09,1.29,16,.42,24.08-.47,4.28,1.72,8.56-.4,13.09-.39.83-.48,5.95,2.63,7.86,1.37.84,1.84,2.7.87,3.41-5.24,3.85-2.11,9.1-2.27,13.62-.11,3-.14,5.92-.33,8.9-.15,2.26.74,4.45-.15,7-.66,1.91-.15,17.19-1.1,18.76-1.24,2.08,1,2.87,1.2,4.43.71,4.94-.51,9.84-.79,14.6-.2,3.3.66,8.29-3.28,11.37-.78.61.49,3.52.21,5.61s-.16,7.09-1.78,8.71c-.94.93-.57,1.72-.43,2.69a26.22,26.22,0,0,1-3.13,17.76c3,2.68-3,5.43.07,8.1-3.23,3.49,2.17,8.87-2.63,12a1.63,1.63,0,0,0-.58,2.16c1.53,4.59-1.8,8.32-2.24,12.58s-.13,8.76-1.77,12.46c-1.19,2.71-.69,5.47-1.62,8.16-1.16,3.36-1.55,7.32-2.41,11-.67,2.94-1.48,6.11-1.33,9.24.37,7.95-3.77,15-4.27,22.8-.14,2.2,2.23,5.33-2,6.28-.17,0-.42.74-.33.82,3,2.89-.63,5.39-.6,8.17,0,3.16-1.73,6.29-2.16,9.51-.75,5.63-3.85,11-4,16.2-.23,6.65-2.72,12.47-4.21,18.5-1.65,6.71-1.77,13.91-5,20.18-1.27,2.46,1,2.69,2,4.17-2,1.28-6.41,1.13-3.68,5.32-4.71,5.16-3.55,11.93-5.08,18-1.07,4.2-6,7.16-5.32,11.8.84,5.62-2.23,10.07-3.16,15.12-1,5.58-3.68,11-4.11,16.54-.66,8.51-5.17,16.42-3.6,25.18a1.62,1.62,0,0,1-.78,1.67c-3.33,2.6-.41,3.32,1.34,4.38-5.21,4.19-5.23,7.4,0,10.19-5.44.68-3.39,5.46-3.56,7.9-.66,9.27.4,18.69.22,27.9-.22,11.53,3.83,23.06.17,34.54a6.06,6.06,0,0,1-1-1.07c-10.07-18.85-20.57-37.42-29.54-56.91-12.4-26.93-18.43-55-20.42-84.26-.88-13-.28-26.09-.41-39.1-.22-23,3.39-45.4,6.79-67.93,1.77-11.72,4.18-23.5,4.36-35.28.36-23.66,1.7-47.42-2.72-70.93-2.67-14.19-5-28.42-9.91-42.09-4-11.27-10.55-21.2-16.89-31.19a178.25,178.25,0,0,0-16-21.06c-7.23-8.32-16.64-13.82-25.19-20.44-13.74-10.62-27.43-21.24-44.11-27.11a79.8,79.8,0,0,1-8.34-3c-10-4.74-17.91-11.92-25.26-19.85-8-8.6-16-17.15-23.47-26.22-9.71-11.87-23.25-17.62-36.5-23.67-9.66-4.41-19.62-8.27-30.27-10.22-6.66-1.22-13.06-3.88-19.59-5.86-.59-.18-1.69-.32-1.85-.05-.89,1.51-1.49,3-2.61.1-.56-1.43-2.11-1.22-3.39-1.57-9.59-2.68-19.41-1.74-29.15-1.88-5.89-.08-12.92-1.88-13.39,8-.62-7.44-.6-7.33-7.58-6.11-8.91,1.54-17.67,3.7-26.38,6.07-12.66,3.44-25.61,6-37.44,12-8.84,4.44-16.91,10.12-25.06,15.73-7.76,5.35-15.36,10.79-22,17.47-11,11.06-22.45,21.7-32,34.16-4.42,5.75-7.8,12.12-11.84,18.09a47,47,0,0,0-4.89,9.06c-1.26,3.21-3.2,6.15-4.69,9.27s-3.69,6.48-4.17,9.92c-.52,3.62-3.64,5.91-3.83,9.15-.18,3-1.92,5.08-2.66,7.66-4.82,16.75-8.72,33.74-12,50.85a242.49,242.49,0,0,0-3.91,31.9,171.32,171.32,0,0,1-5.88,37.52c-7.11,25-13.92,50.12-27.47,72.79-8.09,13.54-14.64,28.06-24.38,40.56-11.31,14.51-20,30.9-32.52,44.53-13.72,14.95-24.22,32.37-36.34,48.54-10.32,13.77-20.57,27.71-29.47,42.58-7.41,12.39-16.19,23.95-24.13,36-8.29,12.63-13.59,26.8-20.31,40.24A437,437,0,0,0,332,838.6,227.61,227.61,0,0,0,320.86,880c-3.44,20.16-5.65,40.2-2.15,60.53.5,2.94-1.27,6.43,2.19,8.61-3.89,3.06-1.38,6.92-1.1,10.35,1.91,23.18,8.59,44.84,20.94,64.69,4.13,6.64,9.69,12.32,12.57,19.85.81,2.13,2.28,5.51,6,5,1.31-.17,1.5.25.67,1.14-2.17,2.31,0,3.54,1.23,4.92,2.15,2.48,5.28,4.54,6.89,6.92,5.3,7.83,12.65,13.64,19.92,18.75,9.51,6.7,19.64,13,30.76,17.13,2.55.94,3.35,2.17,2.92,4.76-.85,5.15-1.5,10.34-2.23,15.51-3.05,2-6.1.1-9.16.06-9.86-.12-19.71,0-29.54-1-9.45-.93-18.88-2.12-28.36-2.61-13-.66-25.51-3.73-38-6.63a251.78,251.78,0,0,1-34.68-10.21c-13.77-5.35-28.21-9.87-40.07-19a214,214,0,0,1-17.47-14.89c-9.42-9-18.86-18.05-26.6-28.6-3.68-5-7-10.27-8.93-16.43-1.34-4.33-4.44-8-6.25-12.24-7.39-17.49-14.83-35.06-16.61-54.1-.94-10-2.9-20-2.19-30.22.6-8.59-1.27-17.25.27-25.88a7,7,0,0,0-1-4.3c2.68-3.94,3-8.25,1.94-12.76.7-6.16,1.25-12.34,2.13-18.48.8-5.59,2-11.13,3-16.7,8.37,8.19,15.17,5.52,20.6-.17,6.68-7,9.58-9.16-.18-17.7-1.11-1-2.53-1.66-3.35-2.82-3-4.22-6.88-3.69-11-2.27-1.06.37-1.89,1.38-3.18,1.09,1.46-12.11,3.12-24.18,5.5-36.17,2-10.17,3.19-20.52,4.51-30.82.46-3.61,2.65-6.86,2.07-10.64,1.91.45,1.82,1.91,2,3.46.9,7.61,2.09,15.18,2.88,22.79.25,2.43,2.76,4,1.74,6.91-1.43,4,.16,6.83,4.21,8.25-.52,1.68-3.06,1.53-2.79,3.82.39,3.22,1.44,6.3,2,9.47.83,4.65,8.09,6.74,10.81,3.47q12.83-15.4,25.24-31.14c1.77-2.25,3.07-3,5.88-1.84,11.36,4.7,22.84,9.12,34.24,13.73a11.42,11.42,0,0,0,5.37.73c3.35-.34,6-.31,5.61-5.88-.44-6.14,2.47-12.38,3.43-18.73,1.35-8.89,4.22-17.54,6.16-26.36q9.17-41.62,18.07-83.3c2.74-12.91,10-24.79,8.84-38.59-.12-1.42,2-2.85-.18-4.33s-3,.48-4.3,1.29c-8.81,5.64-18.1,10.39-27.36,15.24-19.1,10-37.41,21.34-55.64,32.82-10.07,6.34-19.56,13.61-30.2,19,1.46-9.18,3.56-18.25,3.38-27.66,0-2.51,1.43-5,2.09-7.57,3.57-13.58,6.18-27.37,8.6-41.17A174.37,174.37,0,0,0,215.34,574c.3-10.78.15-21.51.1-32.27-.06-9.71-.55-19.81,2.27-29.49,1-3.31-2.26-6.23-1.36-9.79,1.08-4.25,1.76-8.62,2.6-12.93.6.25,1.44.34,1.76.79,2,2.84,4.92-1,7.18,1,.37.33-.91-3.33,2.06-2.62,2.33.57,4.66,2.92,7.21.17.38-.42,1.47.42,1.75,1.33.2.65.69,1.44,1.33.89,2.21-1.92,5.14-1.43,7.64-2.17,3.37-1,7.25-.27,10.91-.25a14.34,14.34,0,0,1,1.86.16c-.35,5.5,3.79,2.2,5.72,2.68,2.35.59,4.95.16,7.45.16l7,0c2-.18,4.23.77,5.43-2.15.59-1.41,3.67-1.28,3.74-.28.25,4,3,2,4.73,2.4,5.11,1.15,10.21-3.14,15.39-.07a2.11,2.11,0,0,0,1.86-.37c3.88-3.4,4.19-3.52,7.91-.7.81.61,1.18.94,1.95.15,2.84-2.94,6.43-1.94,9.86-1.82-.21.87-1.31,2,0,2.54a4.66,4.66,0,0,0,6-1.68c1,.23,1.26,1.95,3.26.82,2.62-1.49,5.75-2.11,7.54,2.18a13.18,13.18,0,0,0,5,5.3c7.25,4.71,14.46,9.57,22.11,13.56,9.67,5,19.48,9.32,30.7,11,9.66,1.45,19,5.61,29,6.59,7,.68,14,1.1,21.06,2.24,7.79,1.27,15.93.18,23.91.4,4.13.11,7.8-1.49,11.62-2.44A4.22,4.22,0,0,0,495,524.7c-.23-2.54-6.44-7.35-9.15-7.26-2,.06-3.72-1.16-3.11-1.61,3.47-2.55,0-3.08-1-4.56-2.49-3.72-8.49-4-9-9.8-.18-2-4.19-2.26-4.75-3.79-2.43-6.56-6.93-12.16-8.45-19.15-1-4.58-1.12-9.45-4.68-13.41a4.64,4.64,0,0,1,1.7-6.63c3.92-2.22,9.12-3.13,10.41-8.64a4,4,0,0,1,1.32-2.07c7.4-5.84,9.85-15.4,16.81-21.82,4.43-4.09,7.35-10.29,9.68-16.06,4.18-10.33,10.91-19.51,13.15-30.74,1.2-6,2.76-12.08,4.27-18,2.1-8.27,1.89-17.41,1.11-26-.88-9.59,1.39-19.63-3.39-28.77-.12-.22.37-1.07.61-1.09.55,0,1.52.53,1.62.38a1,1,0,0,0-.63-1.55c-2.66-.68-1.86-2.81-1.88-4.49-.12-8.77-.83-17.51-1.77-26.23-1-9.49-4-18.31-7.79-27.09-3.89-9-6.33-18.59-9.4-27.92-.2-.62-.1-1.52-.5-1.87-4.48-3.86-6.56-10-11.68-13.06-4.5-2.7-7.64-7.22-13.15-8.64-10.18-2.63-20.13-6.2-30.33-8.74-11.1-2.76-22.66-3-33.78-6-7.45-2.05-15.45-1.35-23.12-2.36-5.43-.72-10.7.85-16.2-.46-5-1.2-10.12-2.91-15.2-3.09-6.26-.22-12.43-1.36-18.78-1.11-3.48.13-7.1.59-10.73.31-9-.69-18.12-.59-27.19-.63-9.75,0-19.52.94-29.23-.57.67-1.61-.23-4.91,3.63-3.08.93.44,1.2-1.21,1.52-2.11,1.66-4.58,2.91-9.12,6.89-12.79,1.5-1.38,1.9-5.4,3.23-8.1s2.85-4.76,6.68-4.32c-2.92-4-1.43-5.86,2.33-6.09,2.08-.13,2.5-1.11,2.7-2.71l0,0c4.36-2.22,5.68-7,8.06-10.64,3.19-4.82,7.32-8.37,11.31-12.17,6.55-6.24,13.23-12.38,20.1-18.26A269.88,269.88,0,0,1,357.4,70c9.24-5.91,20.07-8.29,28.82-15.06,2.4-1.85,6.64-2.07,10-3.51,5.7-2.46,11.05-5.62,17.18-7.32,9.42-2.62,18.45-6.19,28.63-5.41,5.15.39,10.82-2.1,15.6.31,4.61,2.3,9.39.72,14,2.23,1.91.63,4.34-1.4,4.39,2.62,0,.55,3.09-2.81,4.12.56,2.39-2.33,5,2.41,7.34-.19C489,45.61,491.08,46,492.68,47c2,1.27,2.19-.06,2.92-1h0c3.77,4.3,9.27,4.14,14.21,5.35a3.59,3.59,0,0,1,2,1c2.18,2.17,2.57.47,2.81-1.4Zm16.76,5.91-.23-.3-.28.25.38.39Z" transform="translate(-21.69 -37.94)"/><path class="cls-2" d="M419.49,1118.16c.73-5.17,1.38-10.36,2.23-15.51.43-2.59-.37-3.82-2.92-4.76-11.12-4.11-21.25-10.43-30.76-17.13-7.27-5.11-14.62-10.92-19.92-18.75-1.61-2.38-4.74-4.44-6.89-6.92-1.2-1.38-3.4-2.61-1.23-4.92.83-.89.64-1.31-.67-1.14-3.74.48-5.21-2.9-6-5-2.88-7.53-8.44-13.21-12.57-19.85-12.35-19.85-19-41.51-20.94-64.69-.28-3.43-2.79-7.29,1.1-10.35-3.46-2.18-1.69-5.67-2.19-8.61-3.5-20.33-1.29-40.37,2.15-60.53A227.61,227.61,0,0,1,332,838.6a437,437,0,0,1,18.32-42.72c6.72-13.44,12-27.61,20.31-40.24,7.94-12.09,16.72-23.65,24.13-36,8.9-14.87,19.15-28.81,29.47-42.58,12.12-16.17,22.62-33.59,36.34-48.54,12.52-13.63,21.21-30,32.52-44.53,9.74-12.5,16.29-27,24.38-40.56,13.55-22.67,20.36-47.8,27.47-72.79a171.32,171.32,0,0,0,5.88-37.52,242.49,242.49,0,0,1,3.91-31.9c3.26-17.11,7.16-34.1,12-50.85.74-2.58,2.48-4.68,2.66-7.66.19-3.24,3.31-5.53,3.83-9.15.48-3.44,2.62-6.67,4.17-9.92s3.43-6.06,4.69-9.27a47,47,0,0,1,4.89-9.06c4-6,7.42-12.34,11.84-18.09,9.58-12.46,21-23.1,32-34.16,6.64-6.68,14.24-12.12,22-17.47,8.15-5.61,16.22-11.29,25.06-15.73,11.83-5.94,24.78-8.52,37.44-12,8.71-2.37,17.47-4.53,26.38-6.07,7-1.22,7-1.33,7.58,6.11.47-9.91,7.5-8.11,13.39-8,9.74.14,19.56-.8,29.15,1.88,1.28.35,2.83.14,3.39,1.57,1.12,2.92,1.72,1.41,2.61-.1.16-.27,1.26-.13,1.85.05,6.53,2,12.93,4.64,19.59,5.86,10.65,2,20.61,5.81,30.27,10.22,13.25,6.05,26.79,11.8,36.5,23.67,7.43,9.07,15.5,17.62,23.47,26.22,7.35,7.93,15.31,15.11,25.26,19.85a79.8,79.8,0,0,0,8.34,3c16.68,5.87,30.37,16.49,44.11,27.11,8.55,6.62,18,12.12,25.19,20.44a178.25,178.25,0,0,1,16,21.06c6.34,10,12.86,19.92,16.89,31.19,4.87,13.67,7.24,27.9,9.91,42.09,4.42,23.51,3.08,47.27,2.72,70.93-.18,11.78-2.59,23.56-4.36,35.28-3.4,22.53-7,44.92-6.79,67.93.13,13-.47,26.07.41,39.1,2,29.24,8,57.33,20.42,84.26,9,19.49,19.47,38.06,29.54,56.91a6.06,6.06,0,0,0,1,1.07c4.81,10.27,11.37,19.54,16.69,29.51,7.74,14.52,13.16,30,17.2,45.84,2.79,11,5.93,22,7.49,33.32,2.31,16.74,3.58,33.44,1.84,50.37-.84,8.17-1.08,16.39-2.07,24.6-1.73,14.27-5.68,27.9-9.9,41.53-4.81,15.52-9.54,31.08-17.27,45.45-8,14.92-14.36,30.72-24.9,44.34-5.85,7.56-10.35,16.16-17.67,22.59-.92.8-1.19,2.92-3,.59-.73-.91-2.94.87-2.18,1.86,2.31,3-.25,4.14-1.63,5.71-7.65,8.66-14.88,17.64-22,26.78-2.77,3.56-6.42,7-9.73,10.35-3.85,4-5.56,9.54-9.52,13.63-6.4,6.6-12.66,13.21-20.19,18.67-9.33,6.76-17.86,14.63-27.16,21.44-11.83,8.68-25.82,11.8-40,14a131.18,131.18,0,0,1-26,1.67c-10.39-.47-20.87-.14-31.16-3.11-3.63-1-7.69-1.8-11.37-2.79-14.24-3.81-28.86-6.43-42.57-11.91-8.78-3.51-17.7-6.73-26.45-10.3-7.56-3.08-15.58-5.59-23.47-8.12A161.55,161.55,0,0,1,743.34,1193c-10.92-6.1-23.68-7.75-34.44-14.18-2.11-1.27-5.88-1.21-5.48-5.35,0-.36-1.6-1.18-2.52-1.28-11.14-1.29-20-7.72-29.56-12.65-7.63-3.93-15.79-7-23.24-11.31-5.92-3.44-12.54-5.43-18-9.91-3.07-2.5-7.91-2.3-11.73-4.19-6.16-3.06-12.68-5.3-18.39-9.38a8.55,8.55,0,0,0-7.6-.59c-4.13,1.63-8.63.22-12.74,1.79-1.31.5-2.12-.6-3-1.29-3.52-9.16-2.28-18.39-.52-27.67.83-4.37,2.8-8.72,2.76-12.9,0-3.46,2-2.47,3.36-3.38-4.33-1.94-1.72-4.75-.71-7s.3-6.27,5.28-5.53c-4.54-1.81-2.39-4.46-1.47-6.93,2.18-8.4,7.3-15.32,11.16-22.88,2.38-4.69,6-8.65,7.61-13.72a60.45,60.45,0,0,1,2.32-6.31c2-4.52,4.69-9,4.51-14.21a43.58,43.58,0,0,0,4.29-12.32c2-11.43,6.23-22.61,2.56-34.63-.93-3-1.93-3.46-4.17-2.79-1.46.43-3.42,1.5-4.22.58-3-3.4-6.8,2-9.53-1.27-8.35,3.35-16.23-.73-24.31-1.55-2.52-1.1-4.89-2.42-7.74-.33-1,.71-3.07.56-4.34.05-4.61-1.88-9.52-1.88-14.28-2.49a35,35,0,0,1-10.37-3.14c-6.53-3-13.43-5.12-19.85-8.84-.34,2.29-.6,3.92-.82,5.55-1.86,13.89-8.24,26.18-14.29,38.45-10.38,21-25.23,39.21-38.48,58.41-2.31,3.36-5.17,6.53-5.76,10.84a22.46,22.46,0,0,0-2.87,3.34,157.92,157.92,0,0,0-20.52,66.22C433.43,1121.19,421.58,1119.68,419.49,1118.16ZM827.4,714.52c3.66.58,6.42-4.34,10.42-1.71,4.94-4.82,11.8-4.24,17.76-5.95,9.88-2.83,17.81-8.77,26.17-14.13,4.83-3.09,8.82-6.44,9-13.2.25-9.09,1.79-18.13,2.44-27.22.22-3.06,1.83-6.13.66-9.52-7.64,9.71-15.84,18.63-22.25,28.69-5.7,8.95-12.89,16.34-20.44,23.32s-16.32,12.7-24.55,19l-1,1.34C826.48,715.64,827,715.36,827.4,714.52Zm128.05,505.12a16.75,16.75,0,0,0,2.7-1c13.73-8.17,26-18.31,37.92-28.82,6.81-6,13.94-11.56,18.21-19.82,5.9-6.66,9.91-14.6,14.85-21.9,5.1-7.79,11.22-14.8,15.78-23.08,9-16.31,12.59-34.33,18.11-51.75,4-11.53,8.27-23,10.34-35.08,2.12-12.37,4.28-24.71,4.66-37.27.19-6.42.75-13-.44-19.25-1.16-6.07-.79-12.18-1-18.11-.81-18.73-4.6-36.85-9.11-54.84-1-3.9-.83-8.39-2.46-11.5-5.74-10.92-8.18-23-13.22-34.09a126,126,0,0,0-15.81-30.4c-10.3-14.29-24.88-22.38-40.69-28.8-4.82-2.16-9.55-4.52-14.47-6.42-5.85-2.26-11.94-3.91-17.78-6.2-11.54-4.52-23-9.12-34.43-14-8.28-3.55-16.82-6.46-25-10.38-3.26-1.57-7.34-4.8-11.52-1.29-4,3.32-8.79,5-13.19,7.4-10.45,5.76-21.85,8.54-33.14,11-10.71,2.37-22,2.51-33,3.3-4.81.34-9.38-2.13-14-2.64-9.42-1-18.24-3.82-27.08-6.79a9.35,9.35,0,0,0-5.32-.06c-6.83,1.53-12.82,5.18-19.22,7.76-12.7,5.11-25.16,10.85-37.53,16.71-6.54,3.1-14.26,3.18-20.15,6.58-7.17,4.13-15.15,6.45-22.05,11.15-3.51,2.4-4.47,5-4.21,8.51a13,13,0,0,1-.41,4.35c-1.55,6.18-2.89,12.42-4.3,18.65C664.73,846,672.7,844,678.85,839c2.76-2.25,6.8-2.49,10.95-1.67,5.37,1.05,11.31-2.94,15.72,4.57,3.83,6.52,5.61,12.81,1.52,19.37a179.06,179.06,0,0,1-18.71,24.95c-7.54,5.75-12.26,14.09-19.49,20.32-10.21,8.78-20.65,17.36-30.32,26.78-4.37,1.67-4.75,5.36-3.72,8.94a76.62,76.62,0,0,1,2.74,24.5c-.18,4.58-.43,9.16-.65,13.73L630,1007.16c-4.11,5.43-4.89,12.15-7.2,18.29-3.1,8.25-6,16.61-11.12,24.35,3.76-.34,6.78-.42,9.87-1.52a87.59,87.59,0,0,1,40.37-4.33,84.91,84.91,0,0,0,11.74,1c6.91-.12,14-.89,20.8,2.09,10.12,4.46,20.9,7.19,30.67,12.73,5.7,3.23,12.44,3,19.22,2.67,17-.75,33.49,3,49.94,6.7,12.37,2.77,24.42,6.94,37.17,7.94,8.25,1.22,16.4,3.12,24.78,3.67,3.61.24,7.23-.15,10.87.7,12.19,2.84,23.28,1.62,33.5-7.05,9.15-7.76,16.62-16.12,19.23-28.09a133.7,133.7,0,0,0,7.48-29.53c.5-3.74,1.14-7.47,1.81-11.18,1.49-8.26,4.41-16.23,5.11-24.64.19-2.26,1.47-1.78,2.82-2.16,2-.57,2.82.25,3.16,2,1.47,7.42,3.75,14.71,3.08,22.47-.27,3.15-2.29,5.91-1.76,9.18-1.93,15.4-6.54,30.14-11.8,44.63-3,8.25-6.66,16.41-12.72,23.11-6.17,4.26-11.57,9.62-19,12.05-14.8,4.85-29.88,4.85-45,2.62-13.18-1.94-26.63-1.51-39.67-4.62-8.23-3.36-17-4.34-25.6-6.29-14.94-3.41-29.6-8.29-45.15-8.38-4.17-.94-8.13,1.22-12.31.72-4.71-.55-8.88.68-13.11,3.26-6,3.65-12.68,6.14-18.94,9.37-4.22,2.19-9.14,2.94-12.78,6.27-4.86,2-9.82,3.8-14.53,6.11-2,1-4.69-.5-5.36.41-3.15,4.3-8.14,5.06-12.37,7.1-7.69,3.7-15.43,7.26-23,11.88a13.17,13.17,0,0,0,1.86,1.56c14,7.37,27.23,16,40.64,24.44,5.48,3.44,11.09,7.11,17.78,8.12,3.79,5.07,9.92,5.28,15.13,7.49,7.29,3.09,14.78,5.76,22.18,8.46,6.9,2.52,12.67,7.35,20.1,8.73,3.95.73,7.55,3.2,11.41,4.61,9.31,3.4,18.68,6.59,28.22,9.34,6.66,1.92,13.15,4.43,19.68,6.76s12.87,4.36,19.05,7.1c6.37,2.83,12.7,5.87,19.49,7.28,6.17,1.28,10.86,6.87,17.81,5.63,2-.36,1.49,1.69,1.75,2.86-.16.17-.31.34-.47.5l.54-.42a4.53,4.53,0,0,1,4.65-2c10.86,1.92,21.75,3.59,32.58,5.64a103,103,0,0,0,38.29.36A28.62,28.62,0,0,0,955.45,1219.64ZM913.32,744.49c2.1,13.16,14.5,14.72,23.28,20,5.41,3.23,12.7,3.43,17.5,8,5.4,5.18,12.82,6.79,19,9s12.26,5.33,18.43,7.74a201.32,201.32,0,0,1,27.68,13.1c9.61,5.55,19.5,10.56,27.59,18.3,6.62,6.32,11.49,14.1,15.84,22,3,5.51,9.08,10.26,6.83,17.93a2.57,2.57,0,0,0,1.19.39c2.27-.38,2.26,1.58,2.79,2.8.83,1.92.9,4.37,2.15,5.89,6.34,7.74,9.09,17.08,11.31,26.4,2.59,10.88,3,22.19,4.46,33.27,2.49,18.57,2.62,37.24,4.24,55.83,1,12.09.23,24.15-1.36,36.25-1.3,9.94-2.27,19.9-5.45,29.43-6,18-12.25,35.92-18.39,53.87,0,.39,0,.78,0,1.17l.89-.5c8.36-10.37,13.87-22.34,20-34.06a337.16,337.16,0,0,0,23.66-57.88,231.84,231.84,0,0,0,9.78-51.57c1.39-19.6,2.44-39.37-1.06-59a330.18,330.18,0,0,0-8.41-33.93c-1.46-5-1.8-10.4-3.67-15.23-4.53-11.68-9.17-23.31-15.84-34.07-9-14.49-17.36-29.36-26-44.06a362.15,362.15,0,0,1-21.85-44.42c-6.41-15.35-12.9-30.55-14.9-47.26-.35-2.9-1.32-5.46-.72-8.72.34-1.87-1.92-5.14-2.15-8.09-1.24-15.59-3.19-31.1-2.37-46.85,1.11-21.5-.63-43.14,4.16-64.43a187.93,187.93,0,0,0,3.17-21.56c1.72-16.61,4.1-33.14,3.22-50-.77-14.57.34-29.24-2.39-43.72-3.62-19.15-6-38.64-15-56.36-8.28-16.26-17.74-31.66-31-44.54-8.08-7.86-17.73-13.53-26.58-20.3C950.92,309.75,937.56,302,922.6,297a60.19,60.19,0,0,1-18.12-9.41c-11.83-9.15-20.81-21-30.47-32.2-8.13-9.42-16.14-18.61-27.48-24.65-5.5-2.93-11.36-4.9-16.82-7.9-4.81-2.64-9.73-6.06-15.52-5.9-4.82.14-9.71.34-14.13-1.28-7.49-2.75-15.5.9-22.8-2.47-2.82,4.51-6.67-.23-10.47.83-4.74,1.33-10.51,1.75-15.73,2.68-10.49,1.89-20.69,5.11-30.9,8.23-6.13,1.87-12.83,2.17-18.71,4.56a188.4,188.4,0,0,0-66.84,46.27c-18.41,19.56-31.84,41.74-42.08,66.25-6,14.45-8.64,29.79-12.57,44.8-4.21,16.1-5.85,32.55-7.29,49-.6,6.9-1.47,13.87-2.53,20.59-3.21,20.34-9.65,40-16.54,59.4-7.51,21.08-19.2,40.16-30.21,59.55-6.45,11.35-14.81,21.29-22.09,32-6.65,9.81-12.83,19.93-21.12,28.57-7.77,8.1-14.1,17.42-20.41,26.62-8.21,12-16.67,23.79-25.44,35.31C421,715.44,410,734.56,397,752.32c-8.61,11.72-14.56,25.15-21.06,38.2a582,582,0,0,0-26.19,62.27,166.45,166.45,0,0,0-8.14,36.3c-1.34,10.92-3.39,21.74-2.87,32.8q.65,13.75,1.54,27.51c.71,10.7,1.24,21.42,3.52,31.94,3,13.95,6.53,27.86,13.27,40.45,7.47,13.94,18,25.9,28.55,37.54,8.74,9.61,20.26,15.8,31.62,21.9,2.2,1.18,5.19,2.13,7.44,1.6s1.21-4,2.3-6c.87-1.57,1.68-3.17,2.54-4.75,5.7-10.57,10.84-21.46,16-32.25,8.14-17,18.47-32.41,29.57-47.36,5.84-7.86,11.25-16,16.84-24,6.92-9.9,10.44-21.56,16.63-31.82,2.88-4.77,5.83-9.57,12.62-8.65,1.65.23,1.28-1,1.55-1.86,2.1-6.69,1.27-13.71,1.55-20.49.39-9.48-2.5-18.81-5.75-27.8-2.57-7.12-6-14-7.72-21.31-1.74-7.47-6.09-14-6.72-21.85-.48-5.87-6.1-11.59,2.65-16.63,4-2.29,6.66-4.72,11.89-4.15,5.95.65,10.77,3.88,16.39,5,5,1,9.06,3.84,12.9,7l1.38,1.19c.66-.94.11-1.45-.67-1.88-.73-5.19.89-10.21,1-15.33.35-13.16,1.38-26.24,5-39,1.75-6.25,6-10.87,10.3-15.48,2.37-2.54,5-.4,7.42-.6a15.3,15.3,0,0,1,15.83,11.47c1.14,4.32,2,8.69,3,13,1.83-4.67,5-8.54,6.23-13.21s4.83-8,7.77-11.32c3.61-4,8.42-1,13.06,0,6.51,1.39,10.08,5.07,12.72,10.43a19.35,19.35,0,0,1,1.66,9.23c3.52-4.23,6-8.13,9.4-11.22,3.74-3.35,7.77-3.92,12.3-2a15.83,15.83,0,0,0,4.14,1.49c7.75,1,10,4.66,11.12,14.81,1,8.91,0,17.54-2.51,27,3.7-1.86,6.53-3.35,9.41-4.73,17.13-8.21,34.61-15.7,51.37-24.67,5-2.66,10-5.25,15.37-6.55,4.82-1.17,9.08-3.73,13.94-4.68,1.7-.34,3.35-1.42,3.27-3.8-.06-1.71,1-3.11,2-4.39,2.59-3.22,3.16-7.28,4.64-11,.61-1.49.44-2.55-2-2.76-9.16-.79-18.49-1.14-27.37-3.29a85.64,85.64,0,0,1-30-13.89c-2.08-1.5-4.45-2.4-6.56-3.88-6-4.2-10.09-10.05-15-15.16a99,99,0,0,1-13.6-17c-7.74-12.72-15.63-25.36-22.27-38.7-6.21-12.47-12.56-24.87-17-38.15a351.41,351.41,0,0,1-13.79-52.55c-1-5.71-3.74-11.19-4.19-16.89-.32-4-2.1-4.76-5-5.8-4.44-1.58-8.76-3.51-13.1-5.38a2.82,2.82,0,0,1-1.63-2.84,41.2,41.2,0,0,1,2.42-15c2-5.3,5.09-10.51,10-13.75,3.48-2.29,4-4.25,3.36-8.48-.72-4.63-1.34-9.43-1.82-14.17a160.74,160.74,0,0,1-.29-26.78c.5-7.74,2.54-15.11,3.75-22.66a46.73,46.73,0,0,1,7.88-19.75c4.9-7,10.59-13.39,15.7-20.23,9.23-12.37,21.31-19.32,36.88-19,12.2.23,23.28,5.42,34.6,9.25,7.17,2.42,13.42,7.08,20.19,10.38,14,6.85,28.54,12.64,43,18.56A136.79,136.79,0,0,0,816,416.8a115,115,0,0,0,23.09-1c14.12-2.07,28.51-3.34,41.83-8.58,8.25-3.24,14.07.37,20,4.15s8.14,10.06,10.06,17.07c2.5,9.1,6.38,17.88,8.17,27.26,1.41,7.41,3.93,14.53,5.24,22,1.07,6.14.12,12.35,1.25,19,6.22-10.27,23.79-19.49,35.34-17.89,5.28.73,10.21,3.13,15.31,4.62,8.76,2.56,16.77,5.8,24.16,11.54,7.58,5.88,11.49,18.8,8.85,26.9-4.14,12.72-14.72,20.29-25.12,26.12-11.36,6.37-25.15,6.56-38.15,4.15-5.29-1-6.39,1.18-7.84,5a280.22,280.22,0,0,1-16.8,36.06c-3.76,6.83-8.32,14.16-7.09,22.62,1.09,7.47-.51,14.79-.14,22.19a173,173,0,0,1-.36,22.21c-1.28,16.31-4.72,32.43-3.68,48.94.31,4.92.24,9.82.85,14.76.82,6.63,2.41,13.24,1.78,20,0,.38,0,.76-.05,1.15ZM633.59,542.78c.31,4.43,3.23,5.19,6.38,6,8.9,2.38,17.95,1.61,27,1.61,1.57,0,4.36-.84,4.27,1.75-.09,2.29-1.37,4.94-4.28,5.34-7.85,1.06-15.7,2.37-23.66,2-2.43-.11-5.55-1.78-7.09-.78-2.46,1.59.47,4.42.48,6.82.06,9.51,3,18.53,5.94,27.36,3,9.18,6,18.41,9.44,27.49,4.9,13,12.66,24.25,18.47,36.61A132.49,132.49,0,0,0,685,680.28c4.62,6.15,9,12.49,14.22,18.14a108.38,108.38,0,0,0,18.59,16.46c7.25,4.9,14.66,9.52,23.2,11.41a87.56,87.56,0,0,0,35.23.43,84.29,84.29,0,0,0,40.28-18.8,252.27,252.27,0,0,0,24.59-23.46c9-10,18.95-19,26.51-30.32,8.15-12.18,15.52-24.8,22.62-37.57,6-10.84,11.8-21.84,17.42-32.91,6.31-12.42,13-24.71,18.29-37.58,6.82-16.63,17.72-29.6,31.86-40.17a8.66,8.66,0,0,1,6.28-1.8c2.41.28,4.32,1.75,3.45,3.6s-1.17,4-2.49,5.79c-5.87,8.07-11.48,16.34-18.15,23.81a5.84,5.84,0,0,0-1.41,2.45c-.16.68.7,1.09,1.41.94,4.55-.9,9.21.4,13.6-.11,8.95-1,17.44-3.71,24.66-10,5.87-5.06,9.4-10.67,7.8-18.39-2-9.47-7.71-16.84-16.82-19.34-8.53-2.33-18-3.81-25.82,3.28a2.45,2.45,0,0,1-.9.4c-5.27,1.74-8.64,4.93-10.19,10.61-3,11.11-10.86,19.33-18,28-3.88,4.72-9.22,7.23-14.13,10.41-3.14,2-6.36-.13-8.4-1.75-1.69-1.35,1.31-3.37,2.33-5.1,4.15-7.07,7.94-14.38,8.21-22.81.23-7.34.67-14.75-.13-22-.81-7.42-.42-15.14-3.81-22.18-3-6.21-4.76-12.83-6.65-19.44-2.65-9.26-4-18.93-9.36-27.35-1.84-2.91-3.59-3.28-6.35-2.2-6.25,2.44-12.53,4.58-19.38,4.91-4,.2-4.62,2.34-3.05,6a48.81,48.81,0,0,1,2.7,9.34c.42,2-.38,4.16-2.74,3.62s-4,.72-6,1.05a243.39,243.39,0,0,0-34.92,8.26c-10.55,3.44-21.61,5.19-31.88,9.61-2,.87-4.14-.24-5.57-1.3a3.61,3.61,0,0,1-1.1-4.77,5.52,5.52,0,0,0,.55-3.33c-1-6.35,2.34-10.79,6.74-14.44,2.22-1.84,3.31-5.33,7-5.28-.07-4,3.61-5.1,6-7.71-1.92.36-1.72-2-3.39-2-4.54-.05-8.47-2.42-12.74-3.52-5.22-1.35-10.53-2.33-15.59-4.33-24.24-9.57-47.14-22.21-71.59-31.36a36.32,36.32,0,0,0-21.37-1.65c-16.75,4-28.59,15.79-37.53,29.32-6.17,9.33-8.47,21.18-6.45,33.06a17.88,17.88,0,0,0,2.74-.68c14.29-6.23,28.37-3.49,41.56,2.55,8.25,3.78,16,9.7,15.52,20.85-.07,1.49.43,3.08-1.74,3.48-3.51.67-7,1.6-10.6,1.42-11.43-.56-22.86-.91-34.28-1.51a78.32,78.32,0,0,1-11.11-1.42c-1.64-.32-3.49-3-4.79-.7-2.61,4.57-1.44,9.74-1,14.69.17,1.84,1.69,1.69,3,1.61a2.76,2.76,0,0,1,1,0c3.31,1,6.73,0,10.05.56,6.84,1.14,13.19,4,19.88,5.69,6.54,1.61,9.39,9.22,16.5,9.64.41,0,.88.52,1.15.91,2.31,3.39,5,6.5,6.83,10.25,3.54,7.22,2.68,15.12,3.82,22.7.46,3.07-1.91,5.6-4.71,6.2-3.27.69-7.13,1.63-10,1.16-9.14-1.54-18.29.67-27.35-1C644.23,543.66,639.11,543.39,633.59,542.78Zm23,241.67c-.28-3.3.16-6.57-1-9.84-1-2.71-2.13-3.57-4.23-1.39-2.69,2.79-5.67,5.5-7.6,8.79-7,12-12.77,24.43-15.62,38.32-1.55,7.6-.2,16.08-5.59,22.9-1.1,1.39-1.49,4-3.55,2.63-1.3-.86-3.85-1.74-2.66-5.32,1.27-3.84.59-8.41.39-12.65a155.56,155.56,0,0,1,1.34-28.09c1.46-10.68-1-21-1-31.43,0-1.8-.66-5.45-2.72-5.57-2.36-.14-2.79,3.33-3.65,5.3-4,9.11-7.26,18.53-10.49,27.86-1.63,4.69-4.62,8.89-5.21,14.49a61.83,61.83,0,0,1-7.71,23.44,3.43,3.43,0,0,1-3.29,1.79c-.84-.11-1.26-1.63-1.56-2.82-1.58-6.2-.88-12.57-1.6-18.82-1.07-9.27,1.39-18.62-1.19-27.93-1.67-6-2-12.34-3.23-18.47-.35-1.76-1.53-4.61-2.58-4.73-2.17-.24-3.61,1.89-4.29,4.11-.33,1.09-.71,2.15-1.09,3.22-3.33,9.49-3.28,19.54-4.91,29.3s-1.66,19.83-4.81,29.45c-1.27,3.89-2.08,8.35.82,12.47,1.12,1.58,3.06,1.82,3.94,3.57a134.35,134.35,0,0,1,9.85,26.65c.17.67,2.49,2.88-.94,3.75-2.54.65-2.8-.81-3.56-2.06-4.35-7-8.56-14.19-13-21.19-6.7-10.62-17.46-17.22-26.18-25.84-3.63-3.59-8.94-4.05-14.05-1.91-1.41.6-2.31,1.19-1.89,2.89.93,3.79,1.31,7.82,2.83,11.36,3.55,8.28,4.71,17.33,9,25.41,3.11,5.83,3.57,12.8,6.73,18.79a23.65,23.65,0,0,1,2.22,8.51c.6,5.93,4.18,11.82.55,17.89,3.78,7-.38,13.42-1.73,20-.62,3-.14,3.32,2.49,4.21,8.26,2.81,16.81,3,25.3,4.14,16.12,2.18,32.16,4,48.4,2.56,3.35-.3,7.37.65,9.91-2.8,1.65-2.26,2.26-5.69,6.2-5.2a8,8,0,0,1,3.77-7.14c6-4.25,10.39-10.21,16.25-14.63a127.76,127.76,0,0,0,15.81-14.26c5.61-6,11.47-11.67,17-17.73,6.31-7,13.77-13,17.88-21.8,1.65-3.53,2.75-8.29.3-10.71s-7.24-2.18-11.22-.27a115.25,115.25,0,0,0-28.28,19.52,37.55,37.55,0,0,0-8.34,10.18c-.86,1.67-2.43,2.76-4.57,1.82-1-.43-1.28-.78-1.1-2.16.72-5.54,1.65-11.18,1.34-16.72-.42-7.65,1.46-14.75,3.09-22s2.65-14.49,3.88-21.76C653.13,804.44,656.21,794.67,656.63,784.45Zm60.49,283.1c-5.43-3.08-10.27-2.5-14.58-3.64-9.81-2.63-20-4.56-30.41-3.09-1.36.19-3-.32-4.31-.29-5.12.09-9.91-2.75-14.78-2.17-8.9,1.07-17.76,2.52-26.7,3.41-8.21.82-16.12,2.47-23,7.74-2.3,1.76-4.16,3.24-4.74,6.09-1.33,6.59-2.76,13.16-4,19.76-.62,3.26-.06,5.8,3.75,7.2,4.26,1.57,8.18,4,12.33,5.94,2.14,1,4.08,1.77,6.81.34q19.93-10.44,40.31-20C676.55,1080,695.65,1072.55,717.12,1067.55ZM645.79,501.72c-1.48-.09-2.46-.24-3.43-.19-6.2.28-11.67,3.51-17.44,4.7-7.7,1.57-11.25,6.13-13.87,12.39-2.42,5.8-1.6,7.09,4.48,9,7.94,2.54,16.29,3.24,24.28,5.66,2.35.71,5.35,2,8.5,1C637,522.1,637.25,515.53,645.79,501.72ZM827.65,770.39c6.52.1,9.87-2.72,7.94-6.95a20.39,20.39,0,0,1-1.66-7.12c-.61-8.62-1.85-17.3.68-25.88.23-.8,1.27-2.8-.53-2.8-2.44,0-6.45-2.57-7.07.5-.87,4.24-2.88,8.41-2.36,12.94,1,8.37,1.29,16.75-.15,25.11C824,769,824.44,770.9,827.65,770.39Zm-16.29-35.46c0-.83,0-1.66,0-2.48-.15-2.19.52-5.29-2.5-5.56-3.86-.35-3.05,3.08-3.57,5.58-2.22,10.77.51,21.84-2,32.55-.6,2.53.29,3.28,2.58,3.41,3.45.19,7.35,1,4.64-4.8-.39-.82-.07-2-.08-3C810.34,752.08,809.92,743.47,811.36,734.93Zm65.89,12.76c4.1-3.66,6.38-6.78,7.54-11,2.06-7.54,1.73-15.37,3.29-22.95.31-1.53-.46-2-1.86-2.23-4-.61-9.4,4.83-8.73,8.83.83,5,2,9.87.9,15.06C877.6,739,877.67,742.84,877.25,747.69ZM845.8,766.24c2.35-.6,4.23-1.11,6.13-1.55,1.73-.4,2.2-1.16,2-3.13-1-11.61-4.46-23.1-1.73-34.91.17-.72.93-2.21-1.22-2.38-5.08-.39-6.74,1.2-5.48,6.37a74.76,74.76,0,0,1,1.85,17.19A77.17,77.17,0,0,1,845.8,766.24Zm15.29-6.51c3.29-1.75,6-2.32,7.92-4.5.46-.54,1.59-.56,1.29-1.72-2.55-9.86-2.14-19.84-1.18-29.86.12-1.3-.08-2.93-1.91-2.86a2.68,2.68,0,0,0-2.81,2.31c-.13,1.15-.08,2.33-.1,3.49C864.15,737.42,865.3,748.35,861.09,759.73Zm-77.79-4.29c.26,2.8-.57,5.25,1.58,7.07,1,.85,1.83,2.17,3.34,1.67,1.71-.57,1-2.19,1.13-3.42s0-2.32,0-3.48c.25-5.78-1.83-11.8,1.85-17.24,1-1.46,2.24-3.75-.27-4.27-1.87-.4-5.37.18-5.36,3.07C785.59,744.7,783.47,750.21,783.3,755.44ZM766.48,211.77a3.35,3.35,0,0,0-.93-.28c-.09,0-.22.56-.34.86a4.89,4.89,0,0,0,1.2.33C766.89,212.68,767,212.37,766.48,211.77Zm39.3-5.75-.15.28.55,0a1,1,0,0,0-.13-.29S805.88,206,805.78,206Z" transform="translate(-21.69 -37.94)"/><path class="cls-3" d="M260.77,172.11c9.71,1.51,19.48.54,29.23.57,9.07,0,18.16-.06,27.19.63,3.63.28,7.25-.18,10.73-.31,6.35-.25,12.52.89,18.78,1.11,5.08.18,10.19,1.89,15.2,3.09,5.5,1.31,10.77-.26,16.2.46,7.67,1,15.67.31,23.12,2.36,11.12,3.06,22.68,3.26,33.78,6,10.2,2.54,20.15,6.11,30.33,8.74,5.51,1.42,8.65,5.94,13.15,8.64,5.12,3.08,7.2,9.2,11.68,13.06.4.35.3,1.25.5,1.87,3.07,9.33,5.51,18.94,9.4,27.92,3.81,8.78,6.78,17.6,7.79,27.09.94,8.72,1.65,17.46,1.77,26.23,0,1.68-.78,3.81,1.88,4.49a1,1,0,0,1,.63,1.55c-.1.15-1.07-.42-1.62-.38-.24,0-.73.87-.61,1.09,4.78,9.14,2.51,19.18,3.39,28.77.78,8.62,1,17.76-1.11,26-1.51,5.94-3.07,12-4.27,18-2.24,11.23-9,20.41-13.15,30.74-2.33,5.77-5.25,12-9.68,16.06-7,6.42-9.41,16-16.81,21.82a4,4,0,0,0-1.32,2.07c-1.29,5.51-6.49,6.42-10.41,8.64a4.64,4.64,0,0,0-1.7,6.63c3.56,4,3.67,8.83,4.68,13.41,1.52,7,6,12.59,8.45,19.15.56,1.53,4.57,1.81,4.75,3.79.53,5.81,6.53,6.08,9,9.8,1,1.48,4.49,2,1,4.56-.61.45,1.14,1.67,3.11,1.61,2.71-.09,8.92,4.72,9.15,7.26a4.22,4.22,0,0,1-3.11,4.55c-3.82,1-7.49,2.55-11.62,2.44-8-.22-16.12.87-23.91-.4-7-1.14-14-1.56-21.06-2.24-10-1-19.3-5.14-29-6.59-11.22-1.68-21-6-30.7-11-7.65-4-14.86-8.85-22.11-13.56a13.18,13.18,0,0,1-5-5.3c-1.79-4.29-4.92-3.67-7.54-2.18-2,1.13-2.21-.59-3.26-.82-1.81-1.75-4-.7-6.05-.86-3.43-.12-7-1.12-9.86,1.82-.77.79-1.14.46-1.95-.15-3.72-2.82-4-2.7-7.91.7a2.11,2.11,0,0,1-1.86.37c-5.18-3.07-10.28,1.22-15.39.07-1.69-.38-4.48,1.62-4.73-2.4-.07-1-3.15-1.13-3.74.28-1.2,2.92-3.43,2-5.43,2.15.08-4.39-3.21-2.59-5.33-2.87-2.85-.37-1.45,1.74-1.65,2.91-2.5,0-5.1.43-7.45-.16-1.93-.48-6.07,2.82-5.72-2.68a14.34,14.34,0,0,0-1.86-.16c-3.66,0-7.54-.75-10.91.25-2.5.74-5.43.25-7.64,2.17-.64.55-1.13-.24-1.33-.89-.28-.91-1.37-1.75-1.75-1.33-2.55,2.75-4.88.4-7.21-.17-3-.71-1.69,3-2.06,2.62-2.26-2-5.16,1.86-7.18-1-.32-.45-1.16-.54-1.76-.79l0,.05a.8.8,0,0,0-1.11-.68,9.2,9.2,0,0,1-8.62-.46c-2.14-1.19-4.67-2.16-6.39,1-.13.25-1,.33-1.43.15-6.81-3.05-13.94,1.62-20.78-.88-8.38-3.06-17.17.55-25.49-1.27-5.57-1.22-12.11,1.06-17-4a20.11,20.11,0,0,0-6.19-.58c-6.39.74-12.24-1.75-18.33-2.59-1.73-.23-3.86-.53-5.52-2.58s-5.17-.56-7.91-1.51c-3-1-6.34-.72-9.48-2.69a17.11,17.11,0,0,0-6.5-2.35c-9-.66-16.13-6.24-24.32-8.93C52.13,459.64,45,455.1,40.36,447s-10.44-15.36-11.84-24.36c-.74-4.81-6.87-8.12-3.5-13.7a16,16,0,0,1-2.78-14.12c1.23-4.85-2.42-9.88,1.44-14.57,1.25-1.52-1.75-4.32-1.54-6.5,1.24-12.38-.63-24.9,3.34-37.27,1.93-6,3.64-12.59,3.61-19.29,0-2.41.15-5.33,3.24-6.61a2.19,2.19,0,0,0,1.58-2.29c-1.22-7.85,3.07-14,5.73-20.86C44.11,276,51,265.93,56.89,255.26c2.18-4,4.86-7.71,7.21-11.59,1.59-2.63,4-4.83,5.67-7.77,3-5.07,4.73-11.53,11-14.23-2.07-3,1.31-4.53,2.29-5.9,4.63-6.47,9-14,15.39-18.15,8.1-5.3,14.63-13,24.73-15.75,7.23-2,14.49-3.6,21.68-5.47a226.5,226.5,0,0,1,27.89-4.9c6.19-.8,12.43-.3,18.57-.92,10.22-1,20.32.84,30.52.45,11.7-.46,23.42.64,35.1,1.71A15.55,15.55,0,0,0,260.77,172.11ZM454.33,515c-.12-1.78-2-1.16-2.53-2.12-4.21-7.46-11.1-12.86-14.8-20.93-3-6.62-6.86-12.73-7.41-20.23a10.67,10.67,0,0,0-3-6.72c-1.71-1.69-2-1.93-.61-4.7,4.23-8.45,10-15.55,15.81-22.82,3.71-4.66,7.67-9.6,9.56-15.09,2.6-7.51,7.45-13.66,10.75-20.71,2.84-6.09,5.95-12.35,8.13-18.53,3.47-9.83,4.26-20.58,6.15-30.92,1.94-10.67,2.54-21.63,3.08-32.5a198.63,198.63,0,0,0-.64-31.13c-.46-4.28-.2-8.64-.4-13s-.48-8.82-.87-13.21c-.33-3.56.54-6.92-.61-10.79-1.71-5.7-3.41-11.4-5.61-16.93-4-10.15-10.53-17.86-21.41-21.19-6.19-1.89-11.94-5.49-18.83-4.65-8.38,1-16.5-3.31-24.95-1.22a2.22,2.22,0,0,1-1.46-.17c-7.11-3.92-14.84-4.64-22.79-4.9a185.55,185.55,0,0,1-34.44-4.26c-7.13-1.6-14.25-2-21.48-2.36-8.33-.43-16.62.5-25.07-1.56-8.63-2.11-17.91-1.34-26.86-2-13.28-1-26.73-1.4-40.18-1.09-9.47.21-19.07,0-28.62-.11-10.82-.1-21.88,1.45-32.4-.33-5.86-1-10,6.11-15.44,1.44-.27.58-.39,1.4-.85,1.72a4.82,4.82,0,0,1-5.74-.07c1.27-1,1.14-2.13-.32-2.56-1.1-.33-1.38,1.13-2.06,1.75a7.29,7.29,0,0,1-3.34,2,72.78,72.78,0,0,0-18.59,5.34c-3.9,1.78-8,2.51-10.15,7a10.81,10.81,0,0,1-3.53,4.56,79.46,79.46,0,0,0-13.78,12.58c-8.21,9.22-12.47,21.07-18,32C79,261,77.64,266,74.67,269.6a17.09,17.09,0,0,0-3.74,7.85c-1.44,6.91-2.11,14.13-4.67,20.6-2.77,7-5.12,14-7.27,21.15-1.75,5.81-2.27,11.94-3.55,17.85-1,4.91-3.5,9.51-3.49,14.72,0,10.74,1.09,21.64-.41,32.17-1.32,9.25,3.1,17.36,2.55,26.18a1,1,0,0,0,.12.47c4.19,8.41,6.13,17.83,12.87,25.16,2.83,3.08,4.48,6.82,8.53,9.34,13.23,8.24,27.6,11.59,42.88,12.67,6.56.46,13.4-.19,19.63,2,6.5,2.33,13.22,1.67,19.73,2.93,5.3,1,10.9-.29,15.8,1.29,7,2.24,14.07,4.13,21.15,4.64a325.73,325.73,0,0,0,42.37.71c10.56-.61,21.14-1,31.61-.55,29.44,1.16,59.05-3.58,88.34,2.74,4.1.89,6.56,2.68,7.35,6.77.23,1.22-.17,3.22,1.59,3.18,3.62-.07,5,2.54,7,4.72,4.88,5.24,11.85,7.49,17.49,11.53,9.11,6.52,19.91,8.5,30,11.77,7.68,2.5,16.23,3.06,24.26,5.48C447.44,515.8,451.19,516.94,454.33,515ZM478,388.3c-.76-1.88.85-4.73-2.17-5.41-.5-.11-1.58.34-1.66.69C473.5,386.51,477.43,386.09,478,388.3Z" transform="translate(-21.69 -37.94)"/><path class="cls-4" d="M1163.13,245.77c-7.89-.16-15.88-.89-23.64-.52-11.35.54-22.68-1.22-34,.36a6.62,6.62,0,0,0-4.12,2.29q-17.06,17.23-34.17,34.42c-1.73,1.73-3.56,3.36-5.44,4.93-3.07,2.56-10.1,2.38-13.24-.13a2.42,2.42,0,0,1-1-2.53,300.84,300.84,0,0,0,3.18-33.38c.16-5.91-1.48-8.57-7.33-8.46a64.84,64.84,0,0,1-13.13-1c-4.55-.85-7-3.37-8.09-8-2.62-10.81-1.61-21.57-1-32.48.46-8.81,1.52-17.54,2.12-26.31.67-9.84,4-19.19,4.78-29,.19-2.27-.41-4.73,1.07-7,2.78-4.27,6.45-5.39,11.38-5a661.92,661.92,0,0,0,74.66,1.78c15.44.44,30.89,1.29,46.33,1.17,8.55-.06,17,1.81,25.68.57,3.84-.55,8,3,12.23,4.28,1.66.5.47,5.13.91,7.93,2.86,17.8,2.51,35.88,1.35,53.72a122.72,122.72,0,0,1-5.54,29.34c-3.54,11-3.83,10.66-16.15,12.15A162.79,162.79,0,0,1,1163.13,245.77Zm-47.9-29c1.42.47,2.4,0,3.55-1a61.39,61.39,0,0,0,9.87-10.88c6-8.32,12.45-16.37,15.7-26.32,1.25-3.83-.43-9.06-3.69-10.55a95.88,95.88,0,0,0-12.29-4.84c-3.61-1.09-7.89-.16-9,3.36-1.26,4.14-4.68,6.25-6.46,9.68-.87,1.67-3.12,2.3-3.35.73-.85-5.94-6.16-6.78-9.74-9.59-5.81-4.57-10.82-4.77-16.35-.45-5.37,4.2-6.24,9.61-3.41,14.95,4.4,8.33,9.23,16.41,15.36,23.46C1100.57,211.23,1106.47,216.75,1115.23,216.79Z" transform="translate(-21.69 -37.94)"/><path class="cls-5" d="M459.58,1050.72c.59-4.31,3.45-7.48,5.76-10.84,13.25-19.2,28.1-37.38,38.48-58.41,6.05-12.27,12.43-24.56,14.29-38.45.22-1.63.48-3.26.82-5.55,6.42,3.72,13.32,5.85,19.85,8.84a35,35,0,0,0,10.37,3.14c4.76.61,9.67.61,14.28,2.49,1.27.51,3.37.66,4.34-.05,2.85-2.09,5.22-.77,7.74.34-.64,3.44-2.87,6.16-4.22,9.29-4,9.37-5,18.09.66,24.57,10.29,11.74,24.19,15.88,38.94,18.11.18,5.25-2.56,9.69-4.51,14.21a60.45,60.45,0,0,0-2.32,6.31c-1.58,5.07-5.23,9-7.61,13.72-3.86,7.56-9,14.48-11.16,22.88-8.57-.1-15.79,2.85-21.53,9.32-6.2,7-11.59,14.45-14.49,23.44-3.29,10.17-3,20,3.29,29.05h0c.16,1.05.31,2.1.47,3.15-6.31,1.88-12.8,1-19.1.52-4-.28-8,.14-12-.5s-8.49-.52-12.76-1.06c-8.31-1-16.53,1.61-24.91,1-4.87-.33-9.75-.52-14.6-1.1,2.58-2.8,6.31-3.75,9.32-5.85,7.24-5,12.37-12.09,16.09-19.77,3.05-6.29,5.61-13.78,3-20.62-3.94-10.41-12.48-17-22.37-21.78C470.45,1054.61,464.26,1054.56,459.58,1050.72ZM494.53,1031c-.21,6.83,1.88,11.83,8.32,15.6,6.65,3.89,13.79,6.41,20.79,9.19,4,1.61,8.55,2.75,13.47,1.82,9.54-1.81,15.84-7.57,22.14-14.42,11.87-12.9,9.23-33.27-6.32-41.22-7.44-3.8-15.49-6.33-23.57-8.47-3.48-.92-7.48-1-10.71.93C504.76,1002.68,494.88,1013.73,494.53,1031Z" transform="translate(-21.69 -37.94)"/><path class="cls-6" d="M198.91,675.56c10.64-5.44,20.13-12.71,30.2-19,18.23-11.48,36.54-22.84,55.64-32.82,9.26-4.85,18.55-9.6,27.36-15.24,1.28-.81,2.22-2.66,4.3-1.29s.06,2.91.18,4.33c1.12,13.8-6.1,25.68-8.84,38.59q-8.85,41.68-18.07,83.3c-1.94,8.82-4.81,17.47-6.16,26.36-1,6.35-3.87,12.59-3.43,18.73.4,5.57-2.26,5.54-5.61,5.88a11.42,11.42,0,0,1-5.37-.73c-11.4-4.61-22.88-9-34.24-13.73-2.81-1.16-4.11-.41-5.88,1.84q-12.39,15.75-25.24,31.14c-2.72,3.27-10,1.18-10.81-3.47-.57-3.17-1.62-6.25-2-9.47-.27-2.29,2.27-2.14,2.79-3.82-4.05-1.42-5.64-4.29-4.21-8.25,1-2.86-1.49-4.48-1.74-6.91-.79-7.61-2-15.18-2.88-22.79-.19-1.55-.1-3-2-3.46-11.29-6.45-23.19-11.7-34.85-17.43-4.05-2-6.75-5.73-9.49-9.25-1.56-2,.33-2.38,1.51-3.16q29.17-19.23,58.33-38.49C198.63,676.21,198.74,675.83,198.91,675.56Zm86.93-41c-1.37-.8-2.22.47-3.08,1-10.69,6.47-21.6,12.62-31.9,19.67-23.63,16.2-48.07,31.18-71.49,47.71-3.9,2.75-7.2,8-13.42,6.65-.26-.06-1,.52-.95.79.13,3.06-2.78,3.29-4.34,4.77-2.12,2-5.39,2.71-7.13,6,2.8-.93,4.49.4,6.31,1.33,3.73,1.91,7.33,4.27,11.27,5.52,6.38,2,11.15,7.31,17.91,8.37a1.8,1.8,0,0,1,1.14.9c2.27,4.75,8.43,2.19,11.23,6a1.67,1.67,0,0,0,1.24-.46c1.05-2.56,3.84-3.53,5.22-5.61,4.16-6.28,8.27-12.55,12.73-18.64q24.67-33.69,50.78-66.28c4.76-6,10.64-11,14.38-17.78l.68-.43-.57-.18Zm10.25,4.22c-16.42,25-34.47,48.75-52.6,72.47-8.32,10.88-16.81,21.63-25.27,32.4-4.74,6-4.72,5.85,2.17,8.82,15,6.47,30.08,12.94,43.82,22,2.53,1.66,3.21,1,3.81-1.78,1.52-7.09,1.47-14.33,2.56-21.45,2.14-14,6.9-27.37,9.4-41.27.35-1.94-.08-5.36,3.9-5,.66.06,1.19-1.75.5-1.92-5.1-1.25-1.73-4.7-1.44-6.68.85-5.62,2.53-11.11,3.83-16.67,3.13-13.39,5.66-26.93,10.2-40,2.1-1.56,4-3.16,1.18-5.81C297.46,635.52,296.78,637.15,296.09,638.78ZM199.33,787.35c4.1-5.7,9.68-9.56,13-15.19,1.74-3,3.54-3.58,6.39-2,.13.07.46-.22.58-.28-.23-2-2.2-1-3.1-1.91.47-2.3,6-4.6.9-6.77-7.74-3.29-14.73-8.17-23.77-10.78C196.69,762.75,197,775.13,199.33,787.35Zm80.22-43.52c-3.05.9-2.52,3.47-3.31,5.32-.31.71-3.07-.37-1.42,1.66a1.81,1.81,0,0,0,3.17-.76C278.51,748.06,280,746.26,279.55,743.83Z" transform="translate(-21.69 -37.94)"/><path class="cls-7" d="M459.58,1050.72c4.68,3.84,10.87,3.89,16.09,6.43,9.89,4.82,18.43,11.37,22.37,21.78,2.59,6.84,0,14.33-3,20.62-3.72,7.68-8.85,14.73-16.09,19.77-3,2.1-6.74,3-9.32,5.85l.06,0a1.6,1.6,0,0,0-1.86.83c-11.34,2.55-21.43-1.86-31.62-5.68a157.92,157.92,0,0,1,20.52-66.22A22.46,22.46,0,0,1,459.58,1050.72Z" transform="translate(-21.69 -37.94)"/><path class="cls-8" d="M553,1126.27c-.16-1-.31-2.1-.47-3.15l1.36-1.27-.64-.38c-.24.56-.48,1.11-.71,1.66-6.28-9.1-6.58-18.88-3.29-29.05,2.9-9,8.29-16.46,14.49-23.44,5.74-6.47,13-9.42,21.53-9.32-.92,2.47-3.07,5.12,1.47,6.93-5-.74-4.28,3.33-5.28,5.53s-3.62,5,.71,7c-1.4.91-3.39-.08-3.36,3.38,0,4.18-1.93,8.53-2.76,12.9-1.76,9.28-3,18.51.52,27.67-1.73,1.94-2,4.92-6.62,3.52-4-1.22-9-.59-13.54-1.18-.37-.89-1.16-.86-1.92-.88l0,0c-.5-.94-1-.51-1.51,0Z" transform="translate(-21.69 -37.94)"/><path class="cls-6" d="M125.8,1113.83c-.88-4.09,2.72-4.94,4.57-7.28,2.44-3.07,4-4.29,7.28-1.93.13.1.57-.26.88-.38,9.12-3.56,13.05,4,18.47,8.51,2.75,2.28-1.53,5,.71,7.15-3.28,2.64-2.51,8.37-8.2,9.47-8.18,1.59-20.33-4.57-23.23-12.62A15.48,15.48,0,0,1,125.8,1113.83Z" transform="translate(-21.69 -37.94)"/><path class="cls-6" d="M170.8,822.33c1.29.29,2.12-.72,3.18-1.09,4.09-1.42,8-2,11,2.27.82,1.16,2.24,1.86,3.35,2.82,9.76,8.54,6.86,10.7.18,17.7-5.43,5.69-12.23,8.36-20.6.17C162.12,838.5,162.59,830.37,170.8,822.33Z" transform="translate(-21.69 -37.94)"/><path class="cls-6" d="M183.69,1135.85c-.92-8,10.37-11.39,16.56-9.17s10.42,7.51,14.68,12.29c2.29,2.57.78,5.5-1.38,7.46-4,3.6-8.86,5.63-13.89,7.32a3.61,3.61,0,0,1-1.9.09C192.53,1152.63,183.71,1141.32,183.69,1135.85Z" transform="translate(-21.69 -37.94)"/><path class="cls-6" d="M86.22,1079.23c.15-6.41,4-11.66,9.66-12.93,2.72-.61,5.5-.66,7.69,2,2,2.41,4.43,4.46,6.65,6.7,6.54,6.59,4.84,14.52-3.77,17.66-9,3.28-14.63,1.18-19.19-7.22C86.14,1083.34,85.29,1081.17,86.22,1079.23Z" transform="translate(-21.69 -37.94)"/><path class="cls-4" d="M162.79,879.38c1,4.51.74,8.82-1.94,12.76A16.21,16.21,0,0,1,135,882.65a3.54,3.54,0,0,1,.07-2.4c2.49-3.54,2.69-8.49,7.71-10.54,5.34-2.18,7.79-2.15,12.19,2.2C157.57,874.44,160.2,876.9,162.79,879.38Z" transform="translate(-21.69 -37.94)"/><path class="cls-6" d="M128.23,923.8c.87-2.15,1.82-3.52,3.61-1a31.68,31.68,0,0,0,3.6,3.82c4.45,4.46,2.48,14.54-3.11,17.57-1.9,1-3.58-.25-5.42-.1s-3.73,1.72-4.73,1.61c-5.7-.65-8.78-5-11.35-9.67-2-3.6-1.11-7.09,1.3-10.08,2.16-2.68,3.75-5.74,7.15-7.57C124.85,915.36,127.67,917.36,128.23,923.8Z" transform="translate(-21.69 -37.94)"/><path class="cls-6" d="M74,1029.28c0-5.91,5.62-12.25,10.79-12.07,5.42.19,17.78,9.92,17.71,13.94-.09,6.1-9.25,13.55-17.11,13.92C81.85,1045.24,74,1034.38,74,1029.28Z" transform="translate(-21.69 -37.94)"/><path class="cls-6" d="M249,1175.08c-2.46-.07-4.88.18-7.27-1-6.81-3.25-9.46-7.51-7.73-13,2.41-7.61,6.62-10.05,14.74-8.64,3.1.54,6.44-.48,9.35,1.43a11,11,0,0,1,4.79,12.24,11.82,11.82,0,0,1-10.89,8.89C251,1175.1,250,1175.08,249,1175.08Z" transform="translate(-21.69 -37.94)"/><path class="cls-4" d="M333.65,1216.1a5.54,5.54,0,0,0,2.76.42c3.95-.88,7.91-1.25,9.93,3s2,8.71.58,13.39c-1.73,5.71-6.57,5.84-10.62,5.86-3.63,0-7.65-.14-10.95-3.39-4.77-4.69-5.86-7.09-3.56-13.22C323.3,1218.07,327,1216,333.65,1216.1Z" transform="translate(-21.69 -37.94)"/><path class="cls-6" d="M119.64,980.86c0,5-3.27,8.75-8.32,10.24-8.55,2.52-20-8.16-18.38-17.11,1.29-7,10.54-10.8,16.27-6.45a74.81,74.81,0,0,1,8.53,8.18C119.2,977.25,120.75,979,119.64,980.86Z" transform="translate(-21.69 -37.94)"/><path class="cls-6" d="M296.6,1199.84c-3.56.77-6.37-.58-9.21-1.09-4.8-.86-7.55-6.22-6.43-11.14,1.52-6.75,4.55-9,10.31-8.58,3.92.32,7.94-1.77,11.81.34,3.07,1.68,6,3.21,3.89,7.87-.43,1,.56,3.39-.27,5.2C304.59,1197,302.09,1201,296.6,1199.84Z" transform="translate(-21.69 -37.94)"/><path class="cls-1" d="M495.6,46,494,45.23l.39-.6L495.6,46Z" transform="translate(-21.69 -37.94)"/><path class="cls-1" d="M514.59,51l-1.31-.34c.73-.93.93,0,1.3.36Z" transform="translate(-21.69 -37.94)"/><path class="cls-5" d="M554.51,1126.14c.76,0,1.55,0,1.92.88C555.66,1127,554.74,1127.33,554.51,1126.14Z" transform="translate(-21.69 -37.94)"/><path class="cls-5" d="M467.81,1126a1.6,1.6,0,0,1,1.86-.83C469.37,1126.12,468.59,1126.05,467.81,1126Z" transform="translate(-21.69 -37.94)"/><path class="cls-5" d="M553,1126.16c.51-.5,1-.93,1.51,0Z" transform="translate(-21.69 -37.94)"/><path class="cls-1" d="M217.81,488.87a.8.8,0,0,1,1.11.68Z" transform="translate(-21.69 -37.94)"/><path class="cls-1" d="M287.75,132.91l-.41-.42.44.39Z" transform="translate(-21.69 -37.94)"/><path class="cls-8" d="M273.82,491.62c.2-1.17-1.2-3.28,1.65-2.91,2.12.28,5.41-1.52,5.33,2.87Z" transform="translate(-21.69 -37.94)"/><path class="cls-8" d="M331.67,488.74c2,.16,4.24-.89,6.05.86a4.66,4.66,0,0,1-6,1.68C330.36,490.74,331.46,489.61,331.67,488.74Z" transform="translate(-21.69 -37.94)"/><path class="cls-5" d="M636.89,980.44c.22-4.57.47-9.15.65-13.73a76.62,76.62,0,0,0-2.74-24.5c-1-3.58-.65-7.27,3.72-8.94,6.75,1.69,13,5.32,20.24,5.17,2.29,0,5-.72,6.81.2,4.74,2.35,9.64.48,12.74-1.41,14.3-8.74,22.49-21.42,21.14-39-.53-7-4.85-11.76-11.12-12.08A179.06,179.06,0,0,0,707,861.22c4.09-6.56,2.31-12.85-1.52-19.37-4.41-7.51-10.35-3.52-15.72-4.57-4.15-.82-8.19-.58-10.95,1.67-6.15,5-14.12,7-20.36,12.61,1.41-6.23,2.75-12.47,4.3-18.65a13,13,0,0,0,.41-4.35c-.26-3.56.7-6.11,4.21-8.51,6.9-4.7,14.88-7,22.05-11.15,5.89-3.4,13.61-3.48,20.15-6.58,12.37-5.86,24.83-11.6,37.53-16.71,6.4-2.58,12.39-6.23,19.22-7.76a9.35,9.35,0,0,1,5.32.06c8.84,3,17.66,5.75,27.08,6.79,4.62.51,9.19,3,14,2.64,11-.79,22.27-.93,33-3.3,11.29-2.5,22.69-5.28,33.14-11,4.4-2.43,9.23-4.08,13.19-7.4,4.18-3.51,8.26-.28,11.52,1.29,8.15,3.92,16.69,6.83,25,10.38,11.38,4.89,22.89,9.49,34.43,14,5.84,2.29,11.93,3.94,17.78,6.2,4.92,1.9,9.65,4.26,14.47,6.42-.62,1.35-1.15,2.75-1.88,4-6.14,10.72-6.66,21.92-2.59,33.37,3.58,10.05,20.28,20.94,30.91,20.27,1.53-.09,2.92,0,3.22,1.45.45,2.24,2.16,2,3.63,2.61,8.23,3.4,15.78,1.11,23.21-2.54,5,11.1,7.48,23.17,13.22,34.09,1.63,3.11,1.49,7.6,2.46,11.5,4.51,18,8.3,36.11,9.11,54.84.26,5.93-.11,12,1,18.11,1.19,6.22.63,12.83.44,19.25-.38,12.56-2.54,24.9-4.66,37.27-2.07,12.13-6.32,23.55-10.34,35.08-3.07-2.73-7.14-3.17-10.78-4.44-11-3.83-22-5.89-33.21-.5a45.38,45.38,0,0,0-23.42,26.25c-4.41,12.46.09,24.43,7.5,34.9,6.45,9.11,15.77,14.62,26,18.62-4.94,7.3-9,15.24-14.85,21.9-1.92.27-3.5-.65-5.19-1.35-8.67-3.55-17.28-5.79-27.09-4.88-11.46,1.06-23.62,15.47-25.85,24.42-2.62,10.51-3.19,20.92-.7,31.48a28.62,28.62,0,0,1-14.61,7.47,103,103,0,0,1-38.29-.36c-10.83-2-21.72-3.72-32.58-5.64a4.53,4.53,0,0,0-4.65,2l-.08-.08c-.25-1.17.31-3.22-1.74-2.86-7,1.24-11.64-4.35-17.81-5.63-6.79-1.41-13.12-4.45-19.49-7.28-6.18-2.74-12.66-4.82-19.05-7.1s-13-4.84-19.68-6.76c-9.54-2.75-18.91-5.94-28.22-9.34-3.86-1.41-7.46-3.88-11.41-4.61-7.43-1.38-13.2-6.21-20.1-8.73-7.4-2.7-14.89-5.37-22.18-8.46-5.21-2.21-11.34-2.42-15.13-7.49a2.82,2.82,0,0,1,.23-1c6.29-9,9-19.08,9.39-30,.18-5.13-1.6-9.83-1.9-14.75s-3-9.48-7.49-11.31c-1.79-.73-3.48-1.72-5.22-2.59,3.64-3.33,8.56-4.08,12.78-6.27,6.26-3.23,12.95-5.72,18.94-9.37,4.23-2.58,8.4-3.81,13.11-3.26,4.18.5,8.14-1.66,12.31-.72-1.65,1.32-1.88,3.21-2.23,5.13-1.23,6.64-4.28,12.88-2.55,20.09,2.07,8.58,7,14.31,14.52,18.56,4.75,2.69,10.25,3.32,14.85,6.39,4.22,2.81,9.66,1.7,13.93,1.26,2.59-.27,5.09-.7,7.74-.09a5.77,5.77,0,0,0,5.5-1.5c4.83-5.94,11.4-10.63,13.9-18.29,1.83-5.59,3.4-11.25,5.09-16.88,13,3.11,26.49,2.68,39.67,4.62,15.12,2.23,30.2,2.23,45-2.62,7.41-2.43,12.81-7.79,19-12.05,5.74,1.81,11.53,2.61,17.5,1.24.8-.18,1.91.26,1-1.06-1.87-2.56,1.67-2.94,2-4.83.71,1.39,1.42,2.79,2,3.94,8-2.56,13.55-7.83,19.14-13.75,7.74-8.22,10.48-17.49,10.66-28.29.14-8.33-6.91-11.72-10.82-17.25-2.16-3-5.26-5.5-9-5.7-2.93-.15-5.35-1.31-8-2-.53-3.27,1.49-6,1.76-9.18.67-7.76-1.61-15.05-3.08-22.47-.34-1.72-1.13-2.54-3.16-2-1.35.38-2.63-.1-2.82,2.16-.7,8.41-3.62,16.38-5.11,24.64-.67,3.71-1.31,7.44-1.81,11.18a133.7,133.7,0,0,1-7.48,29.53c-3.47-5.71-8.14-9.73-15-10.72a14.71,14.71,0,0,1-2.35-.78c-10.4-3.53-20.9-5.42-31.85-2.66-2.45.62-4.56,1.05-4.31,4.24a1.39,1.39,0,0,1-1.37,1.7c-.5,0-1-.07-1-.73-.23-5.84-3.77-1.75-4.95-1.2a42.49,42.49,0,0,0-14.67,11.67c-7,8.5-12.77,17.65-12.87,29.25-12.75-1-24.8-5.17-37.17-7.94-16.45-3.67-33-7.45-49.94-6.7-6.78.3-13.52.56-19.22-2.67-9.77-5.54-20.55-8.27-30.67-12.73-6.77-3-13.89-2.21-20.8-2.09a84.91,84.91,0,0,1-11.74-1,87.59,87.59,0,0,0-40.37,4.33c-3.09,1.1-6.11,1.18-9.87,1.52,5.11-7.74,8-16.1,11.12-24.35,2.31-6.14,3.09-12.86,7.2-18.29,1.11.37,1.29,1.26,1.53,2.3,1.91,8.11,5.57,15.21,12.73,19.87,6.59,4.28,14.27,6.13,21.81,7.33,3.24.51,8.25,1.29,10.78-1.66,4.3-5,10.51-7.61,14.48-13,10.94-14.92,8-31.91-8.42-41.15-5-2.81-10.86-2.56-15.82-5.43a20.9,20.9,0,0,0-16.67-2.06C645.27,974.73,641.28,977.89,636.89,980.44ZM1045.25,950c-.29-3.22,0-5.81-.84-8.47-3.47-11.41-11.7-18.85-21.51-24.15-9.09-4.91-19.86-5.73-29.4-10-9.7-4.36-31.31,4.1-36.92,15.93-2.23,4.72-6.92,8.16-8.11,13.39A45.91,45.91,0,0,0,950.23,963c4.38,12,10.85,21.69,23.85,25.92a58.37,58.37,0,0,1,9,3.6c12.72,6.66,25.13,6.28,37.71-1,8.3-4.8,12.75-12.94,18.59-19.8,1.68-2,6.13-5.62,2.37-10-.17-.19,0-1,.26-1.19C1046.05,957.63,1044.71,953.24,1045.25,950ZM917.11,824.36c-12.81-.46-21.72,4.26-29.25,13.93-6.86,8.81-8,18.75-8.86,28.78s2.32,19.61,11,25.77c7.65,5.47,16.61,8.68,25.6,11.42a20.63,20.63,0,0,0,14.36-.58,118.31,118.31,0,0,0,13.45-6.89c9.27-5.32,16.94-11.7,21.89-20.85,7.66-14.15,4.45-30.85-9.36-40.39-6.91-4.77-15.15-5.29-22.65-8.14C927.9,825.38,922.27,823.46,917.11,824.36Zm-96.85,331c.35,6,2.89,11.06,5.83,15.88,7.24,11.88,19.08,17.1,31.34,22.11,7.79,3.18,15.46,1.3,23.18,1.64a1.61,1.61,0,0,0,.95-.24c5-3.73,11.71-4.47,15.63-10,2.55-3.63,6.38-6.39,8.76-10.1,3.82-6,6.18-12.62,5.44-20-.81-8.06-4.8-14.81-9.4-21-4.78-6.45-10.74-11.58-19.64-11.68a12,12,0,0,1-6-2.24c-6-3.93-12.28-3-18.61-1.48-13.78,3.32-23.7,11.93-31.11,23.55C823.94,1146,820.57,1150.11,820.26,1155.36Zm18.12-244.14c-21-1.74-35,18.44-38,33.93-2.24,11.45,4.2,21.94,13.5,28.54,8.73,6.19,18,12.38,30.24,10.91,4.75-.57,9.22-.64,13.53-3,17-9.41,25-27.29,20.31-44.31-1.26-4.53-.79-9.67-5.77-13.77C862.32,915.36,851.66,911.13,838.38,911.22Zm-34-90.74a28.31,28.31,0,0,0-5.05-17.88c-3.27-4.76-7.48-9-13.09-10.92-4.49-1.56-9.24-2.24-13.77-4-2.52-1-6.48-5.81-9.26.43-.53,1.2-1.21-.4-1.83-.61-4.5-1.55-8.37-.47-12.09,2.29-1.72,1.28-3.63,2-1.18,4.37a2.32,2.32,0,0,1-.09,2.25c-.64.75-1.79.09-2.05-.52-1.57-3.76-3.12-1.56-4.53,0a76.84,76.84,0,0,0-15,24.66c-4.87,12.8.7,18.42,7.9,25.65,5.11,5.12,12.55,5.85,18.53,9.25,6.66,3.78,13.71,2,20.47,2.17,7.95.21,13.46-5.73,18.57-11.17C798.76,839.16,804.8,831.32,804.33,820.48ZM743,1008c-5.46,3.28-5.4,4.33-2.17,10.29,2.6,4.81,6.91,7.64,11.14,10.19,5.7,3.43,11.65,7.31,18.53,7.54,10.47.36,19.28-4.06,26.24-11.77,12.68-14,9.13-36.37-5.77-45.3-14.65-8.77-28.49-11.38-42.33,1.91-6,5.74-10.83,11.34-11.26,20C737,1007.27,737,1007.59,743,1008Z" transform="translate(-21.69 -37.94)"/><path class="cls-7" d="M1029.13,1148.07c-10.25-4-19.57-9.51-26-18.62-7.41-10.47-11.91-22.44-7.5-34.9A45.38,45.38,0,0,1,1019,1068.3c11.19-5.39,22.26-3.33,33.21.5,3.64,1.27,7.71,1.71,10.78,4.44-5.52,17.42-9.12,35.44-18.11,51.75C1040.35,1133.27,1034.23,1140.28,1029.13,1148.07Z" transform="translate(-21.69 -37.94)"/><path class="cls-8" d="M831.42,1077c.1-11.6,5.84-20.75,12.87-29.25A42.49,42.49,0,0,1,859,1036.11c1.18-.55,4.72-4.64,4.95,1.2,0,.66.51.74,1,.73a1.39,1.39,0,0,0,1.37-1.7c-.25-3.19,1.86-3.62,4.31-4.24,10.95-2.76,21.45-.87,31.85,2.66a14.71,14.71,0,0,0,2.35.78c6.86,1,11.53,5,15,10.72-2.61,12-10.08,20.33-19.23,28.09-10.22,8.67-21.31,9.89-33.5,7.05-3.64-.85-7.26-.46-10.87-.7C847.82,1080.15,839.67,1078.25,831.42,1077Z" transform="translate(-21.69 -37.94)"/><path class="cls-8" d="M636.89,980.44c4.39-2.55,8.38-5.71,13.49-7.11a20.9,20.9,0,0,1,16.67,2.06c5,2.87,10.85,2.62,15.82,5.43,16.4,9.24,19.36,26.23,8.42,41.15-4,5.42-10.18,8-14.48,13-2.53,3-7.54,2.17-10.78,1.66-7.54-1.2-15.22-3.05-21.81-7.33-7.16-4.66-10.82-11.76-12.73-19.87-.24-1-.42-1.93-1.53-2.3Z" transform="translate(-21.69 -37.94)"/><path class="cls-8" d="M813.33,1090.16c-1.69,5.63-3.26,11.29-5.09,16.88-2.5,7.66-9.07,12.35-13.9,18.29a5.77,5.77,0,0,1-5.5,1.5c-2.65-.61-5.15-.18-7.74.09-4.27.44-9.71,1.55-13.93-1.26-4.6-3.07-10.1-3.7-14.85-6.39-7.51-4.25-12.45-10-14.52-18.56-1.73-7.21,1.32-13.45,2.55-20.09.35-1.92.58-3.81,2.23-5.13,15.55.09,30.21,5,45.15,8.38C796.31,1085.82,805.1,1086.8,813.33,1090.16Z" transform="translate(-21.69 -37.94)"/><path class="cls-8" d="M685.44,1095.11c1.74.87,3.43,1.86,5.22,2.59,4.47,1.83,7.2,6.47,7.49,11.31s2.08,9.62,1.9,14.75c-.41,10.94-3.1,21-9.39,30a2.82,2.82,0,0,0-.23,1c-6.69-1-12.3-4.68-17.78-8.12-13.41-8.39-26.62-17.07-40.64-24.44a13.17,13.17,0,0,1-1.86-1.56c7.6-4.62,15.34-8.18,23-11.88,4.23-2,9.22-2.8,12.37-7.1.67-.91,3.35.58,5.36-.41C675.62,1098.91,680.58,1097.11,685.44,1095.11Z" transform="translate(-21.69 -37.94)"/><path class="cls-7" d="M1051.74,863.1c-7.43,3.65-15,5.94-23.21,2.54-1.47-.61-3.18-.37-3.63-2.61-.3-1.46-1.69-1.54-3.22-1.45-10.63.67-27.33-10.22-30.91-20.27-4.07-11.45-3.55-22.65,2.59-33.37.73-1.29,1.26-2.69,1.88-4,15.81,6.42,30.39,14.51,40.69,28.8A126,126,0,0,1,1051.74,863.1Z" transform="translate(-21.69 -37.94)"/><path class="cls-8" d="M610.89,1004.2c-14.75-2.23-28.65-6.37-38.94-18.11-5.67-6.48-4.68-15.2-.66-24.57,1.35-3.13,3.58-5.85,4.22-9.29,8.08.81,16,4.89,24.31,1.54,2.73,3.3,6.58-2.13,9.53,1.27.8.92,2.76-.15,4.22-.58,2.24-.67,3.24-.25,4.17,2.79,3.67,12-.52,23.2-2.56,34.63A43.58,43.58,0,0,1,610.89,1004.2Z" transform="translate(-21.69 -37.94)"/><path class="cls-8" d="M941.5,1012.37c2.64.73,5.06,1.89,8,2,3.73.2,6.83,2.66,9,5.7,3.91,5.53,11,8.92,10.82,17.25-.18,10.8-2.92,20.07-10.66,28.29-5.59,5.92-11.14,11.19-19.14,13.75-.6-1.15-1.31-2.55-2-3.94-.37,1.89-3.91,2.27-2,4.83.95,1.32-.16.88-1,1.06-6,1.37-11.76.57-17.5-1.24,6.06-6.7,9.72-14.86,12.72-23.11C935,1042.51,939.57,1027.77,941.5,1012.37Z" transform="translate(-21.69 -37.94)"/><path class="cls-8" d="M955.45,1219.64c-2.49-10.56-1.92-21,.7-31.48,2.23-9,14.39-23.36,25.85-24.42,9.81-.91,18.42,1.33,27.09,4.88,1.69.7,3.27,1.62,5.19,1.35-4.27,8.26-11.4,13.85-18.21,19.82-12,10.51-24.19,20.65-37.92,28.82A16.75,16.75,0,0,1,955.45,1219.64Z" transform="translate(-21.69 -37.94)"/><path class="cls-8" d="M688.33,886.17c6.27.32,10.59,5.08,11.12,12.08,1.35,17.56-6.84,30.24-21.14,39-3.1,1.89-8,3.76-12.74,1.41-1.85-.92-4.52-.24-6.81-.2-7.23.15-13.49-3.48-20.24-5.17,9.67-9.42,20.11-18,30.32-26.78C676.07,900.26,680.79,891.92,688.33,886.17Z" transform="translate(-21.69 -37.94)"/><path class="cls-5" d="M827.65,770.39c-3.21.51-3.63-1.43-3.15-4.2,1.44-8.36,1.12-16.74.15-25.11-.52-4.53,1.49-8.7,2.36-12.94.62-3.07,4.63-.51,7.07-.5,1.8,0,.76,2,.53,2.8-2.53,8.58-1.29,17.26-.68,25.88a20.39,20.39,0,0,0,1.66,7.12C837.52,767.67,834.17,770.49,827.65,770.39Z" transform="translate(-21.69 -37.94)"/><path class="cls-5" d="M811.36,734.93c-1.44,8.54-1,17.15-1,25.74,0,1-.31,2.14.08,3,2.71,5.81-1.19,5-4.64,4.8-2.29-.13-3.18-.88-2.58-3.41,2.54-10.71-.19-21.78,2-32.55.52-2.5-.29-5.93,3.57-5.58,3,.27,2.35,3.37,2.5,5.56C811.4,733.27,811.36,734.1,811.36,734.93Z" transform="translate(-21.69 -37.94)"/><path class="cls-5" d="M877.25,747.69c.42-4.85.35-8.67,1.14-12.3,1.14-5.19-.07-10.08-.9-15.06-.67-4,4.76-9.44,8.73-8.83,1.4.21,2.17.7,1.86,2.23-1.56,7.58-1.23,15.41-3.29,22.95C883.63,740.91,881.35,744,877.25,747.69Z" transform="translate(-21.69 -37.94)"/><path class="cls-5" d="M845.8,766.24a77.17,77.17,0,0,0,1.58-18.41,74.76,74.76,0,0,0-1.85-17.19c-1.26-5.17.4-6.76,5.48-6.37,2.15.17,1.39,1.66,1.22,2.38-2.73,11.81.76,23.3,1.73,34.91.17,2-.3,2.73-2,3.13C850,765.13,848.15,765.64,845.8,766.24Z" transform="translate(-21.69 -37.94)"/><path class="cls-5" d="M861.09,759.73c4.21-11.38,3.06-22.31,3.21-33.14,0-1.16,0-2.34.1-3.49a2.68,2.68,0,0,1,2.81-2.31c1.83-.07,2,1.56,1.91,2.86-1,10-1.37,20,1.18,29.86.3,1.16-.83,1.18-1.29,1.72C867.13,757.41,864.38,758,861.09,759.73Z" transform="translate(-21.69 -37.94)"/><path class="cls-5" d="M783.3,755.44c.17-5.23,2.29-10.74,2.29-16.6,0-2.89,3.49-3.47,5.36-3.07,2.51.52,1.25,2.81.27,4.27-3.68,5.44-1.6,11.46-1.85,17.24,0,1.16.06,2.32,0,3.48s.58,2.85-1.13,3.42c-1.51.5-2.34-.82-3.34-1.67C782.73,760.69,783.56,758.24,783.3,755.44Z" transform="translate(-21.69 -37.94)"/><path class="cls-1" d="M805.78,206c.1,0,.22,0,.27,0a1,1,0,0,1,.13.29l-.55,0Z" transform="translate(-21.69 -37.94)"/><path class="cls-5" d="M865.32,1223.07l-.54.42c.16-.16.31-.33.46-.5Z" transform="translate(-21.69 -37.94)"/><path class="cls-7" d="M478,388.3c-.54-2.21-4.47-1.79-3.83-4.72.08-.35,1.16-.8,1.66-.69C478.82,383.57,477.21,386.42,478,388.3Z" transform="translate(-21.69 -37.94)"/><path class="cls-7" d="M494.53,1031c.35-17.24,10.23-28.29,24.12-36.57,3.23-1.93,7.23-1.85,10.71-.93,8.08,2.14,16.13,4.67,23.57,8.47,15.55,7.95,18.19,28.32,6.32,41.22-6.3,6.85-12.6,12.61-22.14,14.42-4.92.93-9.43-.21-13.47-1.82-7-2.78-14.14-5.3-20.79-9.19C496.41,1042.8,494.32,1037.8,494.53,1031Z" transform="translate(-21.69 -37.94)"/><path class="cls-1" d="M279.55,743.83c.43,2.43-1,4.23-1.56,6.22a1.81,1.81,0,0,1-3.17.76c-1.65-2,1.11-.95,1.42-1.66C277,747.3,276.5,744.73,279.55,743.83Z" transform="translate(-21.69 -37.94)"/><path class="cls-5" d="M552.56,1123.13c.23-.55.47-1.1.71-1.66l.64.38-1.36,1.27Z" transform="translate(-21.69 -37.94)"/><path class="cls-7" d="M1045.25,950c-.54,3.29.8,7.68-3.21,10.61-.25.19-.43,1-.26,1.19,3.76,4.34-.69,8-2.37,10-5.84,6.86-10.29,15-18.59,19.8-12.58,7.28-25,7.66-37.71,1a58.37,58.37,0,0,0-9-3.6c-13-4.23-19.47-13.88-23.85-25.92a45.91,45.91,0,0,1-1.76-26.37c1.19-5.23,5.88-8.67,8.11-13.39,5.61-11.83,27.22-20.29,36.92-15.93,9.54,4.3,20.31,5.12,29.4,10,9.81,5.3,18,12.74,21.51,24.15C1045.22,944.14,1045,946.73,1045.25,950Z" transform="translate(-21.69 -37.94)"/><path class="cls-7" d="M917.11,824.36c5.16-.9,10.79,1,16.13,3,7.5,2.85,15.74,3.37,22.65,8.14,13.81,9.54,17,26.24,9.36,40.39-5,9.15-12.62,15.53-21.89,20.85a118.31,118.31,0,0,1-13.45,6.89,20.63,20.63,0,0,1-14.36.58c-9-2.74-17.95-6-25.6-11.42-8.63-6.16-11.77-15.69-11-25.77s2-20,8.86-28.78C895.39,828.62,904.3,823.9,917.11,824.36Z" transform="translate(-21.69 -37.94)"/><path class="cls-7" d="M820.26,1155.36c.31-5.25,3.68-9.39,6.38-13.64,7.41-11.62,17.33-20.23,31.11-23.55,6.33-1.53,12.61-2.45,18.61,1.48a12,12,0,0,0,6,2.24c8.9.1,14.86,5.23,19.64,11.68,4.6,6.22,8.59,13,9.4,21,.74,7.39-1.62,14-5.44,20-2.38,3.71-6.21,6.47-8.76,10.1-3.92,5.57-10.68,6.31-15.63,10a1.61,1.61,0,0,1-.95.24c-7.72-.34-15.39,1.54-23.18-1.64-12.26-5-24.1-10.23-31.34-22.11C823.15,1166.42,820.61,1161.39,820.26,1155.36Z" transform="translate(-21.69 -37.94)"/><path class="cls-7" d="M838.38,911.22c13.28-.09,23.94,4.14,33.83,12.28,5,4.1,4.51,9.24,5.77,13.77,4.73,17-3.27,34.9-20.31,44.31-4.31,2.38-8.78,2.45-13.53,3-12.26,1.47-21.51-4.72-30.24-10.91-9.3-6.6-15.74-17.09-13.5-28.54C803.43,929.66,817.38,909.48,838.38,911.22Z" transform="translate(-21.69 -37.94)"/><path class="cls-8" d="M804.33,820.48c.47,10.84-5.57,18.68-12.44,26-5.11,5.44-10.62,11.38-18.57,11.17-6.76-.18-13.81,1.61-20.47-2.17-6-3.4-13.42-4.13-18.53-9.25-7.2-7.23-12.77-12.85-7.9-25.65a76.84,76.84,0,0,1,15-24.66c1.41-1.56,3-3.76,4.53,0,.26.61,1.41,1.27,2.05.52a2.32,2.32,0,0,0,.09-2.25c-2.45-2.34-.54-3.09,1.18-4.37,3.72-2.76,7.59-3.84,12.09-2.29.62.21,1.3,1.81,1.83.61,2.78-6.24,6.74-1.39,9.26-.43,4.53,1.74,9.28,2.42,13.77,4,5.61,2,9.82,6.16,13.09,10.92A28.31,28.31,0,0,1,804.33,820.48Z" transform="translate(-21.69 -37.94)"/><path class="cls-7" d="M743,1008c-6-.45-5.93-.77-5.62-7.12.43-8.68,5.29-14.28,11.26-20,13.84-13.29,27.68-10.68,42.33-1.91,14.9,8.93,18.45,31.26,5.77,45.3-7,7.71-15.77,12.13-26.24,11.77-6.88-.23-12.83-4.11-18.53-7.54-4.23-2.55-8.54-5.38-11.14-10.19C737.56,1012.37,737.5,1011.32,743,1008Z" transform="translate(-21.69 -37.94)"/><path class="cls-9" d="M888.27,500.77c1.35,5.06-2.35,7.73-5.73,9.78a73.07,73.07,0,0,1-18.74,8.57c-4.78,1.3-8.74,4.79-13.65,6.3C833.72,530.49,817.42,536,801,541.07a50,50,0,0,1-18.77,1.82c-4.77-.39-7.14-3.85-7.81-8.19-1.87-12.31.58-23.59,8-33.84,3.47-4.79,6.38-9.94,11.33-13.47,5.86-4.18,11.52-9.39,18.26-11.33,12.91-3.71,26.55-5.41,39.74-2.31,11,2.59,22.09,6.05,30.65,14.45C886,491.71,888.79,495.36,888.27,500.77Zm-78.35,26.31c-2.83-3-7.67-4.34-8.49-9.15-.62-3.69-1.35-7.29-3.34-10.49-.8-1.29-.57-3.78-2.81-3.54a4.72,4.72,0,0,0-3.82,3.47,137.56,137.56,0,0,0-4.59,23.35c-.13,1,.32,2.69,1.6,2.66,4.37-.09,8.46-3.08,13-1.31C802.27,526.91,807.5,529.39,809.92,527.08Zm43.75-44.17c5.88,7.2,7.78,15.64,5.3,25.12-.43,1.66-.44,3,.4,4,1.16,1.46,2.66-.14,3.5-.61a44.7,44.7,0,0,1,10.83-4.31c1.11-.29,4.34-.68,3.81-4.37C876.17,493.48,863,482.62,853.67,482.91Z" transform="translate(-21.69 -37.94)"/><path class="cls-9" d="M832.08,585c-2.81-1.75-6.21-1.37-9.11-2.57-1.24-.51-3.64-.42-3.32-2.18a4.49,4.49,0,0,1,3.24-3.88,17.29,17.29,0,0,1,10.67,0c5.63,2,11.6,3.35,15.91,8.12s5.85,14.64,3.14,20.2c-.73,1.51-1.48,3.71-3.05,3.31-2.35-.6-5.39-.35-6.79-3.2a10.92,10.92,0,0,1-1.46-6.19c.26-2,.17-4.74-1.4-5.41-1.31-.56-4.23.55-5.23,1.85-1.84,2.4-4.36,3.4-6.73,4.72-6.26,3.47-8.31,9.2-8.58,15.78-.76,18.25-8.9,33.15-20.27,46.87a48,48,0,0,1-17.56,13.7c-8.55,3.76-17.58,6.51-27.29,5.42-13.14-1.46-24.91-6.61-36.23-13-6.64-3.74-12.69-8.06-16.48-15.14a2.87,2.87,0,0,1,0-3.37,4.54,4.54,0,0,1,2.06-2.09c7.54-2.77,13.82-7.89,21.4-10.83,9-3.49,18.16-6.49,26.85-10.73,13.83-6.72,28.11-12.58,41.56-20,9.67-5.31,20.7-8.07,29.24-15.53C825.37,588.47,829.81,588.67,832.08,585ZM715.35,652.05c1.67,3.51,3.86,4.87,5.75,6.42,9.46,7.72,19.42,14.32,32.51,13,8.47-.85,16.07-4.35,23.52-8.09,2.33-1.16,5.13-1.23,7-3.3,6.15-6.62,11.91-13.63,15.67-21.83,3.46-7.55,7.58-15.18,6.2-24.63C777.62,631.2,747.43,643.63,715.35,652.05Z" transform="translate(-21.69 -37.94)"/><path class="cls-9" d="M725.17,528.09c-.49,6.31,2.33,18.76,1.25,31.32-.37,4.33-2.82,7.07-6.39,6-5.48-1.59-9.33,1.09-12.89,4.26-2.41,2.15-4.12,5.07-6.24,7.57-3.42,4.05-3.52,8.28.13,11.92,1.83,1.83,1.59,5.1,3.94,5.9,8.18,2.8,16.68,4.78,24.89.68,5.09-2.54,9.59-1.91,14.48-.13,2.17.79,1.87,2.11.91,3.27a13.35,13.35,0,0,1-3.6,2.59c-9.87,5.75-20.22,6-30.79,2.38-5.54-1.92-11.39-2.91-16.34-6.58-8.57-6.35-10.69-16-5.72-25.42,5.61-10.59,14.58-14.39,25.93-14.17,1.33,0,1.08-.48,1-1.7-.84-13.07-2.19-26.1-2.81-39.21-.54-11.52.23-23-.4-34.48a10.07,10.07,0,0,1,.91-3.82c.57-1.54.43-4.54,2.83-3.63,2,.76,4.72,1.22,5.33,4.66A217.57,217.57,0,0,1,725.17,528.09Z" transform="translate(-21.69 -37.94)"/><path class="cls-9" d="M873.91,522.86c-3,7.43-9.68,9.94-16.15,11.76-3.43,1-6,3.18-8.94,4.54-10.81,4.92-22.13,7.91-33.46,11a14.67,14.67,0,0,1-5.41.29c-1.11-.13-3.15,1.31-3.33-1.41-.13-1.92.34-3.14,2.47-3.53,7.91-1.42,15-5.51,22.75-7.33,7.53-1.75,14.42-5.29,21.74-7.56,5.95-1.84,11-5.39,16.76-7.54A5.09,5.09,0,0,1,873.91,522.86Z" transform="translate(-21.69 -37.94)"/><path class="cls-3" d="M182.79,307.7c3.88.14,6.62,1.86,8.91,3.36a27.63,27.63,0,0,0,12.42,4.7c1.68.17,2.94,1.6,2.31,2.54-3,4.43.63,3.65,3,5.07,2.72,1.64,1.81,5.34.66,8.05-.36.85-1.66,1.7-1.9,2.74-2,8.5-9.65,12.06-15.24,17.38-1.9,1.81-4.11.56-5.9-.49-4.24-2.49-8.83-4.22-13.23-6.34-11.19-5.38-14.77-18.44-5-27.87,3.39-3.27,6.9-6.43,11.48-8.1C181.38,308.34,182.32,307.62,182.79,307.7Z" transform="translate(-21.69 -37.94)"/><path class="cls-3" d="M358.45,321.35c4.88,1.72,9.74,3.49,14.64,5.14a6.38,6.38,0,0,1,4.37,5.58c.74,5.94.22,11.71-3.86,16.63a157.27,157.27,0,0,1-10.8,12c-2.58,2.53-5.07,3.09-7.56.34a10.65,10.65,0,0,0-6.37-3.33c-4.74-.84-8.06-4.24-12-6.51a4.7,4.7,0,0,1-2.05-3.83c-.46-9.25.87-17.94,8.39-24.47a4,4,0,0,1,1.22-.63C349,320.62,353.62,319.88,358.45,321.35Z" transform="translate(-21.69 -37.94)"/><path class="cls-3" d="M294.22,335.24c-2.38,5.85-4.42,11-9.05,14.35a8.87,8.87,0,0,0-3,3c-1.86,3.43-6.46,4.48-8.93,1.49-1.72-2.09-3.76-2.57-5.85-3.1-5.52-1.41-10.44-3.61-13.82-8.45a6.69,6.69,0,0,0-1.33-1.43c-5.41-4.24-5.64-8.43-1.09-13.44a132.43,132.43,0,0,0,8.7-10.88c2.35-3.21,6.48-4.43,11.1-1.78,4.8,2.75,9.33,5.81,15,6.5a2.9,2.9,0,0,1,1.75.89C291,326.3,290.8,331.72,294.22,335.24Z" transform="translate(-21.69 -37.94)"/></g></g></svg>
