<svg height="400" viewBox="0 0 1064.93 1050.34" width="480" xmlns="http://www.w3.org/2000/svg"><path d="m787.87 947.6c.21-2.59-.93-2.75-3.06-1.93-5.18 2-10.43 3.82-14.73 5.38-1 1.64-1.7 2.89-2.53 4a9.67 9.67 0 0 1 -2.42 2.66 7.43 7.43 0 0 1 -3.81 1.29c-2.89-.06-4.9.17-3.09 2.93-5 .59-10.19.86-15.2 1.86a143.22 143.22 0 0 0 -14.72 4.21c-2.71.86-5.22 2.38-7.95 3-3.62.87-7.37 1.15-11.05 1.77-7.92 1.32-15.8 3.17-23.77 3.91-9.54.88-19.15.86-28.74 1.17q-10.31.32-20.62.48c-5.85.1-11.7 0-17.55.19-4.47.12-8.94.57-13.41.68-2.21 0-4.44-.53-6.65-.46-11.68.4-23.36.92-35 1.4l-2.78 1-5.52-.77c-2.38-.26-4.76-.54-7.15-.72a9.41 9.41 0 0 0 -.38 1.59l-3 .12-5.49.77-10.25.87c-3.32.34-6.66.55-10 1-9.44 1.38-18.83 3.13-28.3 4.2-3 .33-6.15-1-9.75-1.7-3.12 5.2-9.31 3.73-14.56 4.6-9.11 1.5-18.29 2.65-27.48 3.58-6.07.62-12.2.78-18.31.82-8.1.06-16.22 0-24.31-.37-15.23-.74-30.64.81-45.63-3.52-1.79-.51-4.07 1-6.12 1-9.37-.14-18.75-.5-28.12-.75-2.42-.07-4.94.44-7.25-.06-6.48-1.4-12.89-3.2-19.33-4.82-5.83-1.47-11.72-2.76-17.5-4.42a81.66 81.66 0 0 1 -11.12-4.15c-12-5.49-24-10.8-34.74-18.71-7.56-5.56-16.62-9.05-24.31-14.46-12.4-8.73-24.58-17.85-36.21-27.58s-22.62-20.15-33.53-30.66c-7.9-7.63-15.42-15.7-22.65-24-9.35-10.73-18.63-21.55-27.2-32.89a386.71 386.71 0 0 1 -24.25-35.41c-8.43-14.22-15.53-29.26-20-45.29-3.26-11.74-6.33-23.55-8.85-35.41-2.12-10-3.21-20.3-4.93-30.44-1-5.7-2.53-11.31-3.32-17-.45-3.3.17-6.74.22-10.11.34-24 2.3-47.83 7.44-71.24 4-18.23 9-36.26 14-54.24 2.91-10.37 7.13-20.37 10.12-30.73 1.91-6.61 2.65-13.55 3.91-20.35 1-5.4 2.68-10.79 2.82-16.22.3-11.1-.33-22.22-.4-33.33 0-8 .13-16.07.36-24.1.2-7.28.64-14.55.92-21.82.36-9.19.14-18.44 1.14-27.56a222.29 222.29 0 0 1 4.88-26.37c1.87-8 4.21-16 6.79-23.83 2.71-8.2 5.58-16.39 9-24.3 5.57-12.69 11.18-25.31 17.57-37.47 5.72-10.81 12.41-21.14 19.06-31.43 7.76-12 15.52-24.05 24.08-35.49 4.93-6.58 11.24-12.18 17.27-17.86 7.11-6.69 14.85-12.7 21.84-19.5 9.62-9.34 20.65-16.6 32.1-23.36 5.47-3.23 11.39-5.83 16.46-9.59 13.6-10.06 28.52-18 42.77-26.94 8.1-5.11 16.63-9.59 25.15-14 7.76-4 16-7.15 23.61-11.34 3.41-1.87 6.61-4 10.32-5.37 1.39-.51 2.46-1.9 3.78-2.15 4-1.4 8.07-2.91 12.17-4.16 4.94-1.5 10-2.7 14.92-4.18 3-.9 5.9-2 8.81-3.15 17-6.56 35.09-8.34 52.85-11.38 13.26-2.27 26.69-3.69 40.1-4.85 12.74-1.11 25.54-1.51 38.33-2 11.95-.46 23.94-1.2 35.88-.76 12.35.46 24.66 2.16 37 3.36 9.86 1 19.72 2 29.58 3 24.84 2.41 49.48 5.77 73.57 12.66 28.47 8.16 57.22 15.41 85.51 24.16a281 281 0 0 1 43 17.68c7.87 4 14.3 10.85 21.17 16.67a101.75 101.75 0 0 1 9.47 9.56c2.55 2.82 4.88 5.85 7.18 8.87 6 7.88 12.44 15.49 17.77 23.8 8 12.45 15.23 25.37 22.6 38.19 1.26 2.19 1.6 4.91 2.39 7.37q4.4 13.63 8.79 27.25 3.76 11.79 7.47 23.62c2.2 7 4.74 13.93 6.48 21 2.15 8.8 3.44 17.81 5.48 26.64 1.39 6 3.6 11.8 5.16 17.77 2.05 7.88 3.81 15.84 5.7 23.77.58 2.45 1 4.95 1.81 7.34 2.31 6.95 4.51 14 7.26 20.73 2.09 5.15 1.14 11.66 6.76 15.35.62.41.08 2.32.51 3.36 2.26 5.52 4.34 11.14 7.09 16.42a129.1 129.1 0 0 0 10.32 17.13c5.89 8 12.43 15.49 18.71 23.19 5.25 6.44 10.57 12.83 15.79 19.3s10.44 12.9 15.46 19.5c1.26 1.65 1.61 4 2.64 5.81 2.91 5.18 6.35 10.1 8.83 15.47 2.83 6.12 4.77 12.64 7.29 18.91.37.92 1.81 1.42 2.11 1.64.72 4 1.27 7.92 2.15 11.77 2.19 9.59 4.68 19.12 6.74 28.74.76 3.56.4 7.35 1 11s1.95 7.1.38 11.25c-1.14 3 .09 7 .38 10.46.72 8.62.7 17.07-1.3 25.69-2.71 11.73-4.06 23.78-6.35 35.62q-3.37 17.48-7.49 34.81c-2.14 9.1-4.64 18.12-7.18 27.11-2.27 8-4.81 16-7.23 23.95-2 6.6-3.6 13.37-6.12 19.78-4.77 12.13-8.29 24.76-15.22 36-3.87 6.31-6.39 13.44-9.82 20-1.32 2.55-3.53 4.62-5.2 7-6.18 8.76-11.9 17.87-18.56 26.24a220 220 0 0 1 -20.58 22.68c-8.25 7.83-17.23 14.9-26.08 22.09-6.78 5.5-13.66 10.92-20.81 15.92-10 7-20.25 13.54-30.43 20.22-3 2-6.22 3.07-9.1 5.81-3.43 3.24-9.61 3.54-14.56 5.25-1 .35-1.8 1.28-3.54 2.56a13.2 13.2 0 0 0 -11.09 3c-1.06.92-3.32.29-4.85.85-8 3-16 6-23.91 9.22-2.07.84-3.86 2.39-5.78 3.61z" fill="#fdccc7"/><path d="m529 983 10.26-.88z" fill="#fddfdc"/><path d="m547.7 981.26a9.41 9.41 0 0 1 .38-1.59c2.39.18 4.77.46 7.15.72-2.16 3.34-4.98.91-7.53.87z" fill="#fddfdc"/><path d="m560.75 981.16 2.78-1z" fill="#fddfdc"/><path d="m544.74 981.38 3-.12-1.18 1.65z" fill="#fddfdc"/><path d="m787.88 947.61-1 .71-.25-.37 1.27-.35z" fill="#fdccc7"/><path d="m682.96 204.06-21.83 71.3 24.74 21.83v27.65l-30.32 8-14.79 3.64-16.01 55.29-32.01 33.47-2.91 27.65 56.75 23.28 96.04 56.75 36.38 32.01 37.83 72.76 1.45 96.04-27.64 200.81-11.64 46.56-18.92 33.47-62.57 14.55h-77.12l-85.86-17.46-50.93-13.1-66.93-17.46-142.61-8.73-29.1-113.5-14.55-187.71 21.83-94.58 34.92-33.47 168.8-103.32-52.39-34.92-16.01-59.66v-29.1l-21.82-1.46-11.64-23.28 23.28-14.55-11.64-59.66-8.73-49.48-2.91-68.39 55.29-50.93 33.47-13.09 52.39 11.64 68.39-17.46 52.38 5.82 40.74 20.37 46.57 52.38v33.47z" fill="#fff"/><path d="m267.41 965.09c-.87-2.14-1.78-4.25-2.62-6.4a52 52 0 0 1 -2.69-7.34c-1.79-8-3.36-16.15-4.94-24.2-.49-2.51-.55-5.1-1.09-7.6-2.65-12.34-5.44-24.69-8-37-.26-1.26.4-2.71-.14-2.85a20.2 20.2 0 0 1 -1.37-3.29c-3.5-15.3-6.1-30.88-10.7-45.83-3.19-10.32-3.4-20.71-4.49-31.11-1.11-10.8-1.72-21.66-2.49-32.48-.57-7.73-.76-15.49-1.64-23.16-1-8.94-2.71-17.8-3.9-26.73-.55-4.11-.66-8.3-.9-12.45-.34-6-.79-12-.86-18-.06-5.26.47-10.52.52-15.78 0-3-.61-5.93-.56-8.89.12-5.81.33-11.62.85-17.41.73-8.27 2.21-16.5 2.58-24.79.79-17.29 6.27-32.79 15.7-47.2 10.45-16 25.17-26.72 42.17-34.72 1.18-.56 2.26-1.32 3.38-2 1.2.34 3.13.35 3.49 1.09 2.84 6.1 5.4 12.35 8 18.53-3.8 1.54-7.86 2.66-11.4 4.74a230.37 230.37 0 0 0 -20.72 13.69c-5.1 3.86-9.32 8.75-9.27 15.87l-4.61 23.88-2.65 24.75q-1.26 12.15-2.52 24.32-.81 21.53-1.6 43.06l.28 13.3q1.11 16.75 2.21 33.51l1.87 18.24 3.61 24.16 3.63 19.94c.53 3.8.95 7.6 1.64 11.35 1.74 9.09 3.63 18.16 5.47 27.24l3.48 20.75c.21 2.35.34 4.7.66 7q2.41 17.61 4.93 35.15 3.67 17.47 7.34 35l1.09-.2q6.59-21.68 13.13-43.37a13.34 13.34 0 0 0 1.32-1.77q9.67-18.17 19.3-36.35l28.88-39.52c3.48-3.87 6.13-7.87 4.54-13.58-.4-1.45 1.05-3.38 1.52-5.12.09-.32-.46-.81-.71-1.22-.07-2.62 0-5.24-.22-7.86-.22-3.16-.48-6.32-1-9.49a21.91 21.91 0 0 0 -1.62-4.28q.09-9.49.17-19a5.33 5.33 0 0 0 .05-5.54c-1.06-2.21-.67-5.18-.66-7.81 0-3.63.3-7.25.46-10.88l-.06-22.44c.58-.57 1.63-1.12 1.65-1.7.15-4.4.07-8.81.12-13.22.05-4.75-.39-9.64.43-14.25.69-3.88 2.85-7.49 4.41-11.22 1.62 6 3.71 11.9 4.75 18 1.13 6.79 6.43 12.85 3.69 20.35a2.55 2.55 0 0 0 .63 2c2.41.06 1.59 1.15 1.39 2.71a40.36 40.36 0 0 0 .24 7.59c.55 9 1.38 18 1.61 27 .31 11.92.13 23.85.19 35.78 0 1.38.14 2.76.21 4l8.62-5.1 24.45-44.64 14.57-21.75c1.9-3.07 3.71-6.24 5.78-9.22 4.58-6.6 9.3-13.1 14-19.64 1.46-1.64 2.85-3.35 4.38-4.91 6-6.15 10.33-12.89 8-22.06q-.88-14.07-1.8-28.13l-1.01-27.59a26.39 26.39 0 0 1 19.58-12.29c9.62-1.24 19.34-1.64 29-2.17 1.79-.09 3.63 1 5.44 1.57l-.45.72.95-.16c1.95-.34 2.31-2.91 5.45-2.37 6.47 1.07 13.2.44 19.8.82 9 .52 18 1.2 26.91 2.09 2 .2 3.8 1.58 6.11 2.58l-1.8 1.21a36.35 36.35 0 0 1 4 3.3 23.42 23.42 0 0 1 2.45 3.7c2.31 10.27 1.1 29.45-1.31 30.48.38 2.57.72 4.91 1.07 7.24q.06 10 .13 20c0 3.3 0 6.59-.15 9.88-.86 16.86-1.9 33.71-2.65 50.57-.6 13 1.25 25.71 3.69 38.4l-7.36 14.44c-2.64 2.15-5.7 3.94-7.84 6.51-5 6-11.6 9.77-18.7 12.09-6.57 2.13-12.27 5-16.82 10.18l-18.55 19c-8.8 7.72-13.94 17.64-17.17 28.7-2.16 4-4.43 8-6.46 12-1.38 2.75-2.42 5.65-3.62 8.48l-6.8 15a92.86 92.86 0 0 1 9.38-.95c7.48-.12 14.9-1 22.47.47 6.65 1.27 13.44 5.45 20.4.33.85-.62 3.06.56 4.62 1 .52.14 1 1 1.4 1 6-1.33 11.22 2.58 17.17 2.73 6.86.18 13.64 2.54 20.52 3.42 9.14 1.18 18.38 1.58 27.55 2.85 9.45 1.27 18.77 3.5 28.23 4.63 10 1.2 20.13 1.55 30.19 2.36 4.18.35 8.55.35 12.43 1.67 2.69 1 3 .57 3.43-1.81 1.27-6.52 2.77-13 4.18-19.47 1.17-8.47 2.48-16.92 3.47-25.41 1.74-14.86 3.67-29.7 4.75-44.65s1.32-29.81 1.9-44.73c.23-5.62.19-11.28.85-16.86q2.5-21.42 5.6-42.74c.6-4.11 2.22-8.06 3.37-12.09l4.22-.53c.11 1 .27 2 .34 3q.72 10 1.43 20.06c0 1.27.07 2.54.16 3.8q.6 9.25 1.25 18.52c-.18 7.15-.55 14.31-.48 21.47 0 4.24.78 8.49 1.19 12.74q-.33 6.3-.7 12.58-.43 11.75-.89 23.47l-2.71 34.13-.88 14.54-5.42 26.84c-.35 5.13-.43 10.29-1.15 15.38-.51 3.71.88 4.92 4.3 5.57 4.05.79 8 2.26 12 3.44v4.27c-2.79.71-5.55 1.84-8.36 2a106 106 0 0 1 -12.35-.27c-10-.51-20.1-.95-30.13-1.72a109.85 109.85 0 0 1 -12.19-1.77c-3.68-.67-7.27-1.84-11-2.33-5.79-.77-11.65-.95-17.43-1.74-11.32-1.55-22.6-3.31-33.88-5-4.33-.68-9.26-.49-12.76-2.6-3.87-2.32-5.92-.53-8.9.72a27.39 27.39 0 0 1 -8.6 2c-6 .34-12.22-.49-18.14.47-5.7.95-11.15 3.5-16.72 5.34l-18.46 6.11a54.19 54.19 0 0 0 -5.69 2c-7.05 3.44-14.2 6.72-21 10.6-4.64 2.66-8.73 6.3-13.14 9.37-6.94 4.82-14.19 9.33-14.71 19.38l5.93 2.46a17.08 17.08 0 0 1 2.5.84c4.69 2.42 12.26 0 13.6 8.12 0 .16.83.16 1.25.27l11 3a5.87 5.87 0 0 0 1.52.95q15.21 3.9 30.47 7.71a7.68 7.68 0 0 0 1.9 1c8.68 1.46 17.36 2.85 26.05 4.28l35 9c3.16 1.44 8 .11 8.78 5.36h4.55l-1.95-1.38.37-1 7.6 2.85-.49.74 5.34-1a5.89 5.89 0 0 0 1.49.73q24.48 3.59 49 7.11c2.51.23 5 .41 7.52.68 8.94 1 17.87 1.9 26.8 2.9 10.81-1.34 21.85-1.68 32.36-4.27 14.91-3.69 29.44-9 44.07-13.67 2.47-.88 4.93-1.81 7.42-2.63 8.67-2.85 14.25-8.88 17.83-17.1 2.24.82 3.68 1.06 4.75-2.07 2.13-6.22 5.35-12.06 7.54-18.26 4.56-12.9 7.55-26.14 7.4-39.9q1.77-13.11 3.55-26.2l3.28-27.8q.74-12.16 1.49-24.31l1.51-15.97c.18.76.34 1.52.5 2.28l1-.19-.52-2.85a46.87 46.87 0 0 1 -1.55-5.6 42.48 42.48 0 0 1 -.21-5.53c.3-2 .71-4.08.88-6.13.55-6.54 1-13.07 1.49-19.61l.1-.19.21-1.14q.48-11.21.95-22.43a77.87 77.87 0 0 0 .78-8.34c0-4.45-.46-8.89-.72-13.3.12-3 .34-6.09.33-9.13 0-7.44-.2-14.88-.3-22.32l-.94-24.37q-.07-17.1-.13-34.19c-.23-5.94-.4-11.89-.77-17.81 0-.72-1.18-1.36-1.82-2a84.23 84.23 0 0 0 -2.85-27.86c-.22-2.79 0-5.7-.73-8.37-1.39-5.4-3.25-10.68-4.91-16a12.31 12.31 0 0 1 -1.26-2.85c-2.44-15.06-13.49-21.41-26.22-26.08l-4.44-1.8 6.36-16.35c12.07 6.14 24.51 11.66 36.09 18.63 8.11 4.89 12.92 13.37 16.81 22a124.3 124.3 0 0 1 11 49.3c.16 8.39 2 16.73 2.65 25.11.54 6.31.52 12.67.72 19 .06 2 .15 4 .05 6.07q-.83 18.66-1.77 37.29c-.32 6.33-.53 12.66-1 19-.56 7-1.46 14-2.06 21-.13 1.54.68 3.15.62 4.75-.29 6.91-.72 13.81-1.13 20.72-.59 9.7-1.23 19.42-1.82 29.13-.9 14.95-1.47 29.93-2.8 44.84-.79 8.92-2.85 17.73-4.16 26.6-.63 4.24-.76 8.55-1.36 12.79-1.35 9.49-2.85 18.92-4.29 28.38l-.52.95c-.7 3.88-.83 8-2.2 11.62-4.57 12.26-9.16 24.53-14.57 36.42-3.4 7.47-8.27 14.25-12.55 21.35-.31.52-1.18.7-1.38.81-1.64 2-2.85 4.17-4.65 5.65-4.75 4-9.41 8.26-14.77 11.2-5.8 3.2-12.35 5.15-18.6 7.39-5.93 2.11-12 4-18 5.81-5.43 1.64-10.87 3.38-16.41 4.53-6.28 1.29-12.67 2.11-19 2.85-5.44.66-10.94 1.5-16.39 1.33-8.21-.26-16.4-1.34-24.6-2-3.28-.28-6.64-.33-9.87-.75-7-1-13.91-2-20.89-3-7.44-1-15-1.66-22.32-3.21-7.84-1.65-15.47-4.35-23.27-6.28-10.34-2.57-20.73-5-31.16-7.2s-21-3.58-31.35-6.13c-12-3-23.75-7-35.67-10.22-5-1.35-9.5-3.92-15.38-2.85-3.6.65-7.78-2.12-11.74-3.24-6.64-1.9-13.29-3.93-20-5.39-2.18-.46-4.7.82-7.1 1.17a40.57 40.57 0 0 1 -4.27.22l-7.91-3.48 5.62-11.73 1.9-4.45q3.09-8.6 6.17-17.21c.74-1.62 1.51-3.24 2.21-4.88q4.58-10.63 9-21.09c1.23-3.08 2.43-6.14 3.67-9.21 1.53-3.8 3.09-7.6 4.63-11.4l6-15.48 9.71-19 13-20.56c-32.66-9.22-63.08-22.33-90.57-42-4.41 5.43-8.45 10.19-12.26 15.14-2.85 3.72-5.43 7.66-8.13 11.51l-16.59 21.84-.26.26-1.02 1.26-10.08 14.33-10.54 16.32-15.62 35-7.23 18.83q-3.9 9.51-7.82 18.94l-2 14.16c-.95.45-2.4 1.56-2.85 1.26-3.47-2.54-4.28.51-6.11 3.43-1.72-1.83-3.54-3.2-4.6-5-1.95-3.27-3.38-6.77-5.03-10.18zm231.53-236.24-1.05-.18.48.77a52.41 52.41 0 0 1 -2.75 4.84c-4.8 6.72-9.86 13.3-14.48 20.1-3.8 5.7-3.62 5.85-10.3 3.73-.26-.08-.52-.21-1.14-.46.46-1.68.56-3.59 1.45-5 4.49-7.13 6.48-15.71 12.57-21.91-1.47-4.75 2.54-7.38 4.28-10.88 3.18-6.43 6.48-12.8 9.5-19.3.95-2.07 1.25-4.46 1.85-6.65l-1.9-1.22c-7.78 6.65-16.21 12.76-23.14 20.23-6.49 7-11.45 15.4-16.91 23.33-1.9 2.76-4.38 4-7.06 2.49-.83-.47-.53-4.18.22-6 1.9-4.68 5.32-9 6.26-13.74s4.31-8.55 5.27-13.37c.85-4.36 4-8.22 5.27-12.55 1.41-4.75 1.9-9.7 2.85-15-2.47.91-3.92 1.1-4.94 1.9-9 6.85-16.15 15.57-22.6 24.7-7.52 10.68-14.6 21.68-21.85 32.56-6 9-12.5 17.7-17.63 27.14-6.58 12.09-12 24.79-17.92 37.18 28 16.49 55.67 31.61 87.82 38.17a67.71 67.71 0 0 0 5.7-6c7.25-9.5 14.18-19.23 21.63-28.55a16 16 0 0 1 8.18-5.29c6.47-1.57 12.85-3.11 18.58-6.65 2.37-1.44 4.8-2.77 7.19-4.15l.26.83q6.51-7.41 13-14.83l-.59-1.18c-4.75 1-9.5 1.53-14.09 2.85a256.48 256.48 0 0 0 -24.65 8.12c-5.58 2.27-10.57 3.07-15.72-.15a25.8 25.8 0 0 1 1-4.85c1.78-4.22 3.8-8.34 5.7-12.53 3.31-7.38 6.38-14.86 9.92-22.12 3.3-6.75 7.46-13.11 10.53-19.94 2-4.48 2.78-9.5 4.1-14.25l-1.9-1.25q-8.36 7.13-16.72 14.25c-2 1.6-4.21 3.16-6.27 4.81zm-7.94 182.15c-10.57-.82-20.47-1.72-30.39-2.28-2-.11-5.4.49-6 1.76-2.9 6.2-5.07 12.74-7.5 19.16 13.3-9.39 28.06-14.64 43.89-18.64zm129.78 120.15c-.59-.39-1-.79-1.21-.76s-.43.54-.65.83c.3.19.57.49.88.52s.48-.29.95-.59zm16.79-103.65-.32.23c.09.1.17.25.26.26s.21-.12.31-.2z" fill="#542cde"/><path d="m432.64 435.88a27.92 27.92 0 0 0 -3.56-3.57c-12.74-8.9-24.14-19.14-31.2-33.24a124.62 124.62 0 0 1 -8.17-20.67c-1.75-6-2-12.49-3.12-18.73-.42-2.41-1.5-4.7-1.95-7.1-.28-1.53-.57-3.73.25-4.64 1.43-1.6 2.18-2.12-.49-2.74-.25-.06-.2-1.65-.2-2.53v-18.11c-1.48 0-3.8.5-5.84-.09-11.53-3.41-22.61-7.87-29.09-18.86-3.63-6.17-3.18-13.18.11-19.25 4.18-7.7 9.38-14.78 19.05-16.56.89-.17 2.2-2.42 2-3.48q-5.2-29-10.81-58c-2.31-12.07-4.85-24.09-7.21-36.16a82.69 82.69 0 0 1 -1.43-10c-.12-1.76.52-3.6.95-6.1-3.9-3.73-2.61-9.73-2.61-14.92a196.66 196.66 0 0 1 2.59-30.16c1.88-11.63 4.23-23.35 12.61-32.53 3.79-4.11 6.32-9.06 10-13.23 7.12-6.4 14.16-12.93 21.37-19.24a49.47 49.47 0 0 1 8.4-5.7c1.45-.8 3.39-.75 4.32-1 3.35-2 6-4.38 9.13-5.4 9.86-3.25 19.86-6.4 30.47-3.8 3.28.8 6.48 1.9 9.7 2.94a92 92 0 0 0 34.09 4.4c7.06-.47 14.12-2.35 21-4.37 27.63-8.15 55.36-16.15 84.53-12.73 11.57 1.37 22.8 5.49 34.2 8.15 13 3 22.94 10.87 32.3 19.85 2.45 2.35 5.32 4.28 8 6.4 6.91 6.79 13.19 14.41 20.9 20.15 10 7.47 12.35 18.8 17 28.93 3.8 8.25 6.17 17.16 8.62 25.94.71 2.55-.35 5.7-.95 8.45a82.76 82.76 0 0 1 -2.48 9.43c-6.13 18.78-12.26 37.56-18.54 56.31-3.42 10.21-7.19 20.3-10.68 30.49-4.6 13.44-9.06 26.93-13.61 40.38-.66 2-1.48 3.88-2.44 6.37 1.39.53 2.85 1.48 4.48 1.67 10 1.25 20.08 12.35 22.21 22.28 3.05 14.15-5.7 21.54-14.72 29a9.56 9.56 0 0 1 -5.88 1.73c-7.33-.09-14.66-.55-22.5-.89-1.26 4.9-2.26 10.3-4 15.45-3.37 9.92-7.7 19.52-10.66 29.55-4.26 14.43-14.48 24.4-24.29 34.79-6.15 6.53-12.39 13-21.12 16.22-.45.16-.68.95-1 1.41l-5.42 1.67c5.7 8 10.74 15.72 16.37 22.93 8.73 11.2 18.3 21.48 31.35 28.1 11.35 5.77 22.36 12.25 33.52 18.42-2.72 0-5.43 0-8.15 0q-34.67-.55-69.34-1.15c-2.46-7.6-5.37-15.08-2.57-23.63l-59.44 41.44a17.23 17.23 0 0 0 2.08 1.64c9.11 5 18.22 10 27.38 14.95a57.13 57.13 0 0 0 6.23 2.52l-1.72 12.11-17.1-6.65-1.9-1h.06l-18-10.22c-.33 3.47-.58 6.37-.85 9.29q-.48 10.89-.95 21.76c-1.1 7.2 1.2 15-3.8 21.51l-6-.95c-4.05-2.08-6.55-4.63-5.19-9.91.89-3.38.32-7.13.39-10.73l.95-24.36c.43-4.49.85-9 1.31-13.89-5.35 3.07-9.93 5.57-14.39 8.28-2.79 1.7-5.38 3.71-8.06 5.58a12.87 12.87 0 0 0 -2 .62c-6.25 3-12.45 6-18.72 9-5.53 2.57-11.15 5-16.73 7.44-3.11 1-6.16 2.3-9.33 3.05-10.56 2.49-21.25 4.52-31.73 7.29-4.65 1.22-8.11-.58-11.67-2.58-.84-.47-1.44-2.47-1.19-3.56 1.56-6.88 3.19-13.77 5.16-20.54 2.3-8 4.84-15.83 7.49-23.67 1.6-4.75 3.58-9.3 5.7-14.77l-31.69 15.76-1.85-14.55c-.87-6.87-.21-7.52 5.83-10.84 9.59-5.27 19.18-10.61 28.35-16.56a192 192 0 0 0 21.55-16.32c4.87-4.26 8.75-9.66 13.3-14.87l-17.17-10.45zm21.69-8c7.41 4.06 14.77 8.3 22.88 10.82 7.13 2.21 14.36 5.14 21.68 5.54 8.63.46 17.45-1.07 26.08-2.45a118.73 118.73 0 0 0 18.74-4.9c6.35-2.12 12.48-4.92 18.71-7.43 6-2.74 12.26-4.92 17.76-8.37 6.44-4.07 11.77-9.93 18.3-13.79 9.77-5.77 17.61-12.9 21.73-23.6 1.59-4.12 2.85-8.38 4.21-12.58 3-9.5 6.58-18.91 9-28.59 2.09-8.55 2.77-17.35 4.25-26 .88-5.24 2.08-10.45 3.13-15.61a8.51 8.51 0 0 0 .83-2c.67-5.26 1-10.58 2-15.78.43-2.24 2.15-4.24 3.28-6.35l-2.25-.45c.23-2.16 0-4.21.72-5.89 1.18-2.85-1.33-7.15 3.38-8.55-2.85-2.85.2-5.81.37-8.55.46-7.3 3-14.46 3.53-21.76.67-8.74.16-17.57.16-26.11-1.9 1.42-3.37 3.28-5.23 3.8-8.07 2.32-16.24 4.29-24.4 6.28-1.51.37-3.91-.38-4.57.45-3.06 3.8-4.75 1.24-6.83-1.65-.43 1.9-.71 3.1-1 4.08-4.62 1-9.07 2.4-13.63 2.91-11.06 1.23-22.15 2.25-33.25 2.93-3.25.2-6.65-1.44-9.91-1.52-11.92-.26-23.83-.13-35.73-.34-3.68-.06-6.89-2.2-11-2-4.68.23-9.5-3.06-14.25-2.9a50.54 50.54 0 0 1 -20.31-3.8c-6.34-2.41-13-4.08-19.1-6.94-6.76-3.17-12.93-7.55-19.58-11-7.1-3.62-14.11-7.11-17.19-15.5a263.29 263.29 0 0 0 -13.65 98c0 10.61-.19 21.21 0 31.81.12 8.55.36 17.1.95 25.65s1.76 16.92 2.68 25.39c-1 17.39 6.47 34.73 19.41 46.54 5.7 5.18 11 10.7 17.7 14.53 3.41 2 6.92 3.79 10.37 5.62zm-67.83-158c2.32-13.73 4.52-27 6.84-40.24 1.08-6.24 2.38-12.45 3.63-18.65.95-5 1.67-10 3.22-14.81a108.43 108.43 0 0 1 6.22-14.24 49.12 49.12 0 0 1 4.82-7.42c2-2.76 4.58-2.41 7.18-.66 8.72 5.86 17.27 12.05 26.28 17.44 6.82 4.09 13.91 8.55 21.48 10.45a350.56 350.56 0 0 0 42.34 7.25 302 302 0 0 0 40.19 2.6 311.73 311.73 0 0 0 42.16-3.71c12.64-1.9 25-5.57 37.49-8.37 7.16-1.61 14.25-3.89 21.53-4.29 5.24-.31 10.63 2 16.66 3.23-.95 19.84-1.82 39.32-2.74 58.8 1.12-3.42 1.77-7 2.81-10.45 3.48-11.71 7.29-23.33 10.63-35.08 2.85-10.06 4.75-20.43 8-30.39 3.5-10.76 8.15-21.16 12.09-31.78 1.58-4.29 2.29-8.84.59-13.3-4.55-12.13-8.84-24.38-13.92-36.28-3.06-7.16-6.17-15-11.4-20.36-11.4-11.76-24-22.2-36.38-33-4.18-3.64-8.32-7.41-14.25-8.45-16.15-2.79-32.4-2.65-48.66-1.07-4.41.42-9 0-13.22 1-10.8 2.58-21.38 5.9-32.09 8.51a245.61 245.61 0 0 1 -26 4.85c-6 .76-12-1.31-17.89-2.1-7.43-1-14.57-2.12-21.3-5.37a45.27 45.27 0 0 0 -24.63-3.88c-9.68 1.08-19.64 3.12-27.39 10.21-5.27 4.83-10.92 9.29-15.7 14.56-4.05 4.47-7.12 9.84-10.6 14.84-5.92 8.55-11.4 17.31-13.71 27.54-3.18 13.82-2.3 27.73-.95 41.69 1.37 14.29 2.29 28.63 3.69 42.93.95 9.71 2.29 19.39 3.67 29.05 1.95 13.73 3.86 27.48 6.37 41.11.44 2.6-1.48 7.37 2.94 7.83zm75.94 195.21c4.44 3.85 9 7.67 13.4 11.62q16.49 14.7 32.89 29.45c1.58 1.43 3.63 2.66 4.57 4.45 2 3.91 4.25 2.41 6.55.71 4.14-3.08 8.23-6.25 12.29-9.43 5.62-4.38 11.19-8.82 16.81-13.2 5.33-4.15 11.9-6.28 17-10.94s10.85-8.21 15.92-11.94c-3.29-9.16-6.37-17.71-9.55-26.6-4.93 5.58-35.93 15.08-38.47 13.06-2.27 1.2-5.23 3.56-5.94 3-4.66-3.65-8.81.89-13.13.26-.16 0-.31-.15-.43-.13-2.13.39-4.24.84-6.37 1.19-1.9.32-3.88 1-5.7.69-8.92-1.81-17.8-3.87-26.67-5.93-3.51-.82-6 0-7.7 3.4s-3.47 6.58-5.5 10.33zm40.63 49.71c-2.63-2.12-5.38-4.32-8.14-6.53-3.33-2.7-6.82-5.23-10-8.13-9-8.34-17.86-16.89-26.9-25.21-1-.95-3.71-1.7-4.17-1.2-3 3.31-6.42 6.65-8.27 10.62-3.67 7.87-6 16.36-9.62 24.27-6.07 13.23-12.07 26.46-16.34 40.4-.45 1.45-.26 3.09-.42 5.45 30.68-9.04 59.48-19.89 83.86-39.68zm152.81-194c1.58 4.64 5.1 3.24 7.81 3.63 8.31 1.17 16.65-4.97 16.31-12.43a29.44 29.44 0 0 0 -8.13-19.14c-3-3.25-6.46-5-11.28-4.34-.85 5.83-1.7 11.58-2.51 17.1l16.81 8.05c-5.06 6.23-13.01 3.74-19.01 7.1zm-268.88-41.8a21.76 21.76 0 0 0 -4 .95c-4.59 2.38-10.26 3.9-13.39 7.6-4.91 5.75-5.3 14.25 1.37 21.78 3.67 4.13 7.69 4.53 12.35 4.08 1-.11 2-1.46 3-2.24a23.85 23.85 0 0 0 -2.83-2.17c-3.17-1.81-6.65-3.17-9.5-5.38s-3.47-5.39-.38-8.44l12.49 2.71c.26-6 .54-12.14.87-18.87z" fill="#542cde"/><path d="m286 975.6 2-14.14c9.62 0 19.24-.22 28.83.12 8.31.28 16.62 1.08 24.89 1.9 10.68 1 21.31 2.85 32 3.3a170 170 0 0 1 38.2 6.39l-5.61 11.73 7.88 3.39c-9.35-.58-18.71-1.21-28.07-1.73-2-.12-4.12.31-6.16.15-13.65-1.1-27.29-2.38-40.94-3.43-4.85-.37-9.77.06-14.62-.41-6.26-.61-12.49-1.65-18.7-2.7-5.87-.95-11.7-2.18-17.54-3.37a8.68 8.68 0 0 1 -2.16-1.2z" fill="#cecee5"/><path d="m810.39 928.22.51-1z" fill="#fdccc7"/><path d="m668 503.53c-11.16-6.17-22.17-12.65-33.52-18.42-13-6.65-22.58-16.9-31.35-28.1-5.59-7.24-10.63-14.89-16.33-22.93l5.5-1.69c7.34 2.19 14.8 4.1 22 6.65 9.67 3.41 19.1 7.47 28.72 11 6.65 2.42 13.58 4.05 20.17 6.65 7.83 3.05 15.4 6.75 23.13 10.09 3.37 1.46 6.74 3.47 10.26 3.9 6.58.79 10.27 5.45 14.74 9.22 3.28 2.78 6.55 5.62 10 8.18 7.36 5.43 15.79 9.78 22 16.25 7.88 8.17 14.56 17.71 18.34 28.73 1 3.06 1.12 6.44 1.63 9.68l-6.29 16.33c-.59.39-1.39.64-1.74 1.19-5.29 8.22-10.51 16.5-15.79 24.7-7.3 11.4-15.05 22.51-21.85 34.19a346.51 346.51 0 0 0 -16.75 32.59c-5.79 12.8-10.7 26-15.72 39-1.45 3.8-3 8-2.66 11.87.28 3.61-.39 5.83-3.09 7.79-1.15 4-2.77 8-3.37 12.09q-3.12 21.35-5.61 42.74c-.65 5.58-.61 11.24-.84 16.86-.62 14.92-.83 29.86-1.9 44.73s-3 29.76-4.75 44.65c-.95 8.49-2.3 16.94-3.47 25.41-5.15-3.23-4.93-9.4-7.66-13.95q-3.27-10.26-6.54-20.51c-.47-1.55-1-3.08-1.42-4.65q-2.94-11.12-5.83-22.25-1.8-11.77-3.61-23.54-1.78-9.81-3.6-19.65c.19-4.75.5-9.4.53-14.1 0-4-.28-8.08-.44-12.1.52-1.65 1.48-3.3 1.48-4.94 0-6.78-.44-13.58-.47-20.36 0-1.73.87-3.45 1.35-5.18l-.53.2c-.32-2.79-.65-5.57-1-8.36q1-10.83 1.84-21.68a21.31 21.31 0 0 0 .95-2.93q2.21-13.75 4.35-27.54c.23-1.61.41-3.22.72-4.81q2.34-12.11 4.75-24.2c1.9-6.49 3.72-13 5.7-19.46 1-3.42 2.27-6.76 3.42-10.13.61-1.66.89-3.57 1.9-4.93 2-2.73 4.43-5.14 6.65-7.69l1 .89-1.37-2.59c4.84 0 9.69 0 14.53-.19 11.88-.54 23.75-1.44 35.65-1.74 4.67-.12 6.83-2 7.35-6.36.13-.95.62-1.9.83-2.94 1.84-9 4-17.9 5.35-27 .73-4.82.27-9.84.11-14.77-.44-13.66-1-27.33-1.48-40.39-4.4-1.72-8-4.15-11.76-4.42-9.18-.63-18.42-.17-27.63-.34-5.58.02-11.09-.45-16.58-.74z" fill="#9a81ea"/><path d="m432.64 435.88 1.61-1.31 17.21 10.43c-4.59 5.21-8.47 10.61-13.3 14.87a192 192 0 0 1 -21.55 16.32c-9.17 6-18.76 11.29-28.35 16.56-6 3.32-6.7 4-5.83 10.84l1.81 14.55c.51 3.8.64 7.74 1.57 11.46 3.32 13.17 5.9 26.43 6.6 40 .22 4.34 1.08 8.64 1.65 13-.09 5.55-.61 11.13-.14 16.63.6 6.82 2 13.58 3.07 20.36.24 1.45.52 2.91.7 4.37q1.4 12.59 2.78 25.16 1.36 13.1 2.72 26.19l.42 7.41q.57 9.35 1.12 18.67-1.19 13.56-2.4 27.08h-.07l-.77.88-2.9 20.9-24.45 44.64-8.66 5.11c-.07-1.23-.21-2.61-.21-4-.06-11.93.11-23.86-.19-35.78-.23-9-1.07-18-1.62-27a41.11 41.11 0 0 1 -.24-7.6c.2-1.55 1-2.65-1.38-2.7a2.59 2.59 0 0 1 -.64-2c2.75-7.5-2.55-13.56-3.68-20.35-1-6.09-3.1-12-4.75-18-2.41-10.45-3.2-21.32-8.25-31.05l-7.3-14.1q-4.53-10.32-9.05-20.62-7.08-14.48-14.14-29c-3.09-5.9-6.22-11.78-9.23-17.72-2.47-4.86-4.75-9.81-7.17-14.71-2.64-6.2-5.19-12.43-8-18.53-.35-.74-2.29-.75-3.49-1.09-3.33-8-1.71-15.25 3.24-22.15 5.7-7.95 10.37-16.76 16.84-24 9.31-10.39 19.48-19.95 32.39-26.31 13.18-6.46 27.22-10 41.11-14.25 7.94-2.42 15.68-5.52 23.55-8.18a89.56 89.56 0 0 1 29.37-4.98z" fill="#9a81ea"/><g fill="#cecee5"><path d="m768.58 989.43c-3.54 8.19-9.15 14.24-17.82 17.09-2.49.82-5 1.75-7.42 2.64-1.68-.95-3.43-1.7-5-2.74a88.26 88.26 0 0 1 -8.55-6c-3.11-2.53-8.42-5.34-8.44-8.07 0-4.75-3.28-5.83-5.34-8.09a102.58 102.58 0 0 0 -11.48-10.57c-8.91-7.19-18-14.19-27-21.23-2-1.55-4.11-3-6.93-5v10c0 18.76.2 37.51-.2 56.25-.1 4.49-2.2 8.94-3.37 13.42-8.94-.95-17.87-2-26.81-2.91-2.5-.26-5-.44-7.51-.67-1.1-2.22-2.85-4.36-3.17-6.65-.55-4-.24-8.15-.2-12.23.06-7.78.07-15.56.34-23.33s.76-15.39 1.27-23.09c.41-6.26 1-12.51 1.48-18.76l-1.43-.49c-1.48 3-2.8 6.07-4.46 9-3.8 6.7-7.85 13.29-11.77 19.94-5.43 9.26-10.82 18.55-16.25 27.82a26.48 26.48 0 0 1 -2.47 3.73c-4.58 5.45-9.21 10.85-13.83 16.26l-5.34 1 .5-.74-7.6-2.85-.37 1 1.94 1.37h-4.55c-.75-5.25-5.62-3.92-8.77-5.35.21-3.67-.53-7.73.8-10.93 4.49-10.79 9.58-21.33 14.71-31.85 3.31-6.81 7.09-13.4 10.66-20.09l.37-.4-.42.36a49.75 49.75 0 0 0 -5 3.51c-11.52 10.32-23 20.72-34.46 31-7.18 6.47-14.42 12.88-21.64 19.32q-13-2.12-26.05-4.28a7 7 0 0 1 -1.9-.95c1.55-3.1 2.67-6.51 4.75-9.22 9.21-12.24 18.67-24.28 28.07-36.38 1-1.34 2.17-2.61 3.27-3.91l-1-1c-23.42 12.21-47.37 23.56-67 41.93l-11.17-3.11c-.42-.12-1.22-.12-1.25-.27-1.34-8.08-8.91-5.7-13.6-8.12a16 16 0 0 0 -2.5-.84 70.31 70.31 0 0 1 4.84-6c4.61-4.67 10.33-8.55 13.84-13.92 5.36-8.16 13.64-11.88 21.11-17 3.07-2.09 5.88-4.58 8.82-6.89l18.45-6.11c5.57-1.84 11-4.41 16.72-5.34 5.92-1 12.1-.13 18.14-.47a27.28 27.28 0 0 0 8.62-2c3-1.24 5-3 8.9-.71 3.5 2.11 8.43 1.9 12.76 2.59 11.28 1.74 22.56 3.5 33.88 5 5.78.79 11.64 1 17.43 1.74 3.69.49 7.28 1.66 11 2.33a109.85 109.85 0 0 0 12.11 1.82c10 .72 20.08 1.2 30.13 1.72a106 106 0 0 0 12.35.27c2.85-.19 5.57-1.32 8.36-2a23.59 23.59 0 0 0 3 2.9c2.4 1.59 5.1 2.78 7.4 4.51 9.27 7 18.24 14.4 27.73 21.07 3.8 2.65 6.57 6.24 10.67 8.71 5.87 3.52 10.45 9.09 15.82 13.59 3.62 3.09 6.16 8.05 11.83 8.67z"/><path d="m679.4 710.45c2.7-2 3.37-4.18 3.09-7.79-.31-3.87 1.21-8.08 2.66-11.87 5-13 9.93-26.25 15.71-39a347.57 347.57 0 0 1 16.75-32.58c6.81-11.67 14.56-22.79 21.85-34.19 5.28-8.24 10.45-16.52 15.79-24.7.35-.55 1.15-.8 1.74-1.19l4.43 1.8c-3.93 5.35-8.67 10.3-11.54 16.15-2.77 5.65-8.78 9.82-7.85 16.69l46.87-4c1.66 5.32 3.53 10.61 4.91 16 .7 2.68.52 5.59.73 8.38-12.26-.16-24.37 3.71-36.68 1.72-8.29-1.34-16.5-3.17-25.89-5l-14.35 30.25a36.8 36.8 0 0 0 3.93 0c10.3-1.34 20.6-2.75 30.92-4.07 3.34-.43 6.7-.84 10.06-.95 7.39-.24 14.85-2.13 22.13.87 4.21 1.73 8.46 3.38 12.7 5.06.63.67 1.78 1.32 1.82 2 .37 5.93.54 11.87.77 17.81l-2.45-1c-2.4.78-3.91 1.58-5.49 1.71-8.44.72-16.9 1.15-25.33 1.9-7.55.7-15.06 1.81-22.6 2.6-6.65.69-13.36 1.08-20 1.78a23.46 23.46 0 0 1 -16.34-3.8c-5.37 13.1-14.44 24.7-16.85 40 7-.78 13.12-1.38 19.27-2.19 19.75-2.61 39.47-5.51 59.25-7.86 9.75-1.17 19.67-3.27 29.33.86a3.36 3.36 0 0 0 1.34 0l.88 24.32c-6.17.89-12.35 2-18.51 2.64-13.46 1.39-27 2.12-40.4 3.87-17.35 2.27-34.65 3.6-51.3 1.33l-5.4 5q-.72-10-1.43-20.06c-.07-1-.23-2-.34-3z"/><path d="m337.29 637.49 7.29 14.09c5.05 9.74 5.84 20.61 8.24 31-1.53 3.74-3.72 7.35-4.4 11.23-.83 4.64-.38 9.5-.44 14.25-.05 4.41 0 8.82-.12 13.21 0 .58-1.07 1.13-1.65 1.7a44.21 44.21 0 0 0 -6.58-.95c-17.81.22-35.61.61-53.41.81-1.9 0-3.86-.79-6.44-1.37a4.09 4.09 0 0 1 -2 1c-7.47.09-15.13 1.49-22.11-2.73-.79-.49-2-.29-3-.34-2.44-.14-4.89-.23-7.33-.34l-.29-13.3c7.23-.86 14.43-1.89 21.68-2.54 11.52-1 23.07-1.61 34.61-2.3 6.93-.42 13.86-.57 20.78-1 6.48-.46 12.94-1.2 19.81-1.9-1-11.11-2-22.14-3.08-33.25a12.9 12.9 0 0 0 -2-.31c-9.78 0-19.56.21-29.34 0-20.3-.47-40.6-1.17-60.89-1.77q1.26-12.17 2.52-24.32z"/><path d="m397 619.62c-1.05-6.78-2.47-13.54-3.07-20.37-.47-5.49.05-11.07.14-16.62a11 11 0 0 1 3-.88c15.3-.08 30.61-.3 45.91 0 9.35.17 18.7 1.2 28.06 1.74 7.23.4 14.46.64 21.69 1l21.32.83 6 1c13 .63 25.92 1.24 38.89 1.9a19.69 19.69 0 0 1 3.46.79c1 7.44 5.78 10.38 12.72 10.72a70.08 70.08 0 0 0 9.72.12c2.63-.25 3.56.79 3.6 3.08.1 4.66.1 9.33.14 14-3.8-.29-7.6-.73-11.47-.82-5.7-.13-11.4 0-17.1 0a23.51 23.51 0 0 0 -2.42-3.67 37.21 37.21 0 0 0 -4-3.29l1.83-1.25c-2.27-1-4.13-2.37-6.11-2.57-8.95-.89-17.93-1.57-26.91-2.09-6.61-.38-13.3.25-19.8-.83-3.14-.53-3.5 2-5.45 2.38a4.68 4.68 0 0 0 -.53-.56c-1.81-.55-3.65-1.66-5.44-1.57-9.69.52-19.41 1-29 2.17a26.38 26.38 0 0 0 -19.64 12.17c-.43 2-.86 3.9-1.43 6.54z"/><path d="m645.2 862.48q3.25 10.24 6.53 20.51c-13 .67-25.94 1.48-38.94 1.9-21.14.74-42.29 1.29-63.44 1.82-6.56.17-13.13.08-19.7 0q-19.95-.29-39.89-.75c-3.75-.1-7.49-.68-11.23-.74-4.26-.05-8.55.29-12.77.29-.5 0-1-1.07-1.49-1.64 1.2-2.85 2.24-5.7 3.62-8.49 2-4.07 4.29-8 6.46-12 6.17-.27 12.35-.62 18.52-.78 13.79-.38 27.55-.62 41.34-1 6.5-.17 13-.7 19.5-.78 8.46-.09 16.92.17 25.37.17 7.17 0 14.33-.38 21.48-.18 14.88.4 29.75 1.09 44.64 1.67zm-100.69 21.52v.64h7.14a5.71 5.71 0 0 0 -.07-1.09z"/><path d="m638 835.58-48.64 2.57h-.89c-23.12.61-46.24 1.36-69.34 1.72a89.31 89.31 0 0 1 -16.79-1.81c-3.67-.65-7.18-2.25-10.75-3.43l18.54-19c4.24-.6 8.45-1.44 12.7-1.74 14.11-.95 28.22-2.22 42.34-2.51 15.06-.3 30.13.41 45.2.59 8 .09 16 0 24 0q1.82 11.83 3.63 23.61z"/><path d="m687.48 789.58c-.41-4.25-1.15-8.55-1.19-12.75-.07-7.15.3-14.31.48-21.46 5.09 0 10.23.35 15.26-.24 9.43-1.1 18.76-3 28.19-4.15 17-2 34-3.92 51-5.46 3.32-.31 6.91 1 10.22 2.05a97 97 0 0 1 9.43 4.2c.26 4.44.67 8.89.72 13.3a77.87 77.87 0 0 1 -.78 8.34c-5 .46-10 1-15.07 1.37-9.2.76-18.4 1.35-27.55 2.21-7.84.73-15.65 2.44-23.49 2.48-11.31 0-22.63-1-33.94-1.57-1.07 0-2.62-.25-3.15.34-2.32 2.58-4.29 5.48-6.53 8.15a31.51 31.51 0 0 1 -3.6 3.19z"/><path d="m799.63 797.21c-.5 6.53-1 13.07-1.49 19.6-.18 2.06-.58 4.1-.89 6.14-4.6.3-9.2.51-13.79.88-6.53.53-13 1.27-19.58 1.7-2.47.17-5.62 1.37-6.42-2.73-1.17 1.39-2 3.4-3.12 3.54a196.71 196.71 0 0 1 -20.41 1.9c-11.1.3-22.23.13-33.35 0a26.54 26.54 0 0 1 -7.47-1c-1.38-.41-2.4-2-4.09-3.47l-3.1 1.82q.44-11.73.89-23.47c11.2-.59 22.42-1 33.6-1.83 9.12-.65 18.2-1.76 27.3-2.67 11.52-1.14 23-2.5 34.56-3.29 5.9-.33 12.21-1.89 17.36 2.88z"/><path d="m788.28 929.16c-8.9.28-17.81 1.13-26.67.74-17.41-.78-34.78-2.27-52.17-3.42-5.81-.39-11.62-.64-17.43-1-4-1.18-7.9-2.65-12-3.44-3.42-.66-4.81-1.9-4.3-5.58.71-5.08.8-10.25 1.15-15.37 8.28 0 16.59-.22 24.87-.06 12.8.24 25.65.79 38.4 1 7.73.15 15.47-.21 23.19 0 4.45.14 8.88 1.28 13.3 1.4 5 .13 10.08-.35 15.12-.57q-1.67 13.2-3.46 26.3z"/><path d="m683.21 859.76c15.2-5.85 31.17-5.61 47-6.27 13.08-.55 26.19-2.07 39.21-1.45 7.3.35 14-.81 21-2 2-.32 4.09.48 6.15.78q-.75 12.15-1.49 24.31c-2.14-.09-4.35-.72-5.64 2a3.78 3.78 0 0 1 -2.91 1.46c-14.78.37-29.56.64-44.34.9a4.9 4.9 0 0 1 -1.39-.54v-3.8c-1.29.66-2.52.88-3 1.59-2.28 3.43-5.58 2.91-8.87 2.58-2.07-.21-4.13-.62-6.19-.64-9.93-.08-19.87.18-29.79-.18-3.8-.15-8.21-.15-10.66-4.29zm15.79 18.24.28-.68-4.3-1.08-.23 1.07z"/><path d="m303.05 923.69c5.7.88 11.4 1.7 17.1 2.68 16.23 2.85 32.59 5.14 48.65 8.77 14.3 3.24 28.31 7.87 42.37 12.11 3.09 1 5.89 2.85 8.82 4.26q-3.08 8.6-6.18 17.21c-10.81-2.58-21.58-5.48-32.48-7.67-17-3.4-34.11-6.65-51.29-9.32-11-1.74-22.16-2.1-31.64-8.94-.62-.46-1.75-.2-2.65-.27q3.67-9.4 7.3-18.83z"/><path d="m256.54 814.88q-1.8-10-3.63-20a45 45 0 0 1 5.29-.79c2.85-.1 5.7.45 8.43 0s5.34-2.17 8.11-2.69c15.2-2.77 30.4-5.57 45.66-7.85a47.56 47.56 0 0 1 15.2.37c3.8.67 7.18 3.08 10.75 4.75a21.58 21.58 0 0 1 1.65 4.33c.49 3.13.75 6.29.95 9.5.18 2.61.15 5.23.22 7.86-2.51.27-5 .45-7.54.85-5.37.87-10.7 2-16.1 2.75-10.3 1.41-20.62 3.07-31 3.8-10.66.74-21.38.56-32.08.58-1.22 0-2.47-1.28-3.68-2-.77-.5-1.5-1-2.23-1.46z"/><path d="m249.3 770.83-1.82-18.13c2.93-.42 5.87-.78 8.78-1.28 11.09-1.9 22.12-4.34 33.24-5.7s22.6-2.23 33.93-2.62c7.66-.26 15.69-2.12 22.89 2.47-.17 3.63-.44 7.25-.47 10.88 0 2.63-.4 5.6.67 7.81a5.37 5.37 0 0 1 -.06 5.55c-3.85.31-7.7.74-11.54 1-13.52.65-27 1.34-40.54 1.8s-27.11.72-40.67.83c-1.44-.15-2.92-1.78-4.41-2.61z"/><path d="m431.09 925.66c-6.15-2.12-12.3-4.29-18.48-6.33-16.4-5.42-32.81-10.75-49.19-16.21a8.91 8.91 0 0 1 -2.6-2c-2.41 0-4.51.38-6.4-.08-6.52-1.56-13-3.16-19.39-5.23-3.68-1.2-7.06-3.37-10.62-5-1.85-.83-3.8-1.39-5.7-2.07l10.55-16.32c18.58 2 36.18 8.4 53.41 14.66s35.95 8.62 51.85 18.21l4.92-.23q-2.32 5.7-4.63 11.4c-1.29 3.01-2.49 6.08-3.72 9.2z"/><path d="m445.43 889.57c-13.3-3.9-25.21-10.79-37.58-16.85-11.9-5.82-25-9.16-37.53-13.75a103.13 103.13 0 0 1 -12.62-5.5c-3.71-2-6.83-3.16-10.45.3-1.62 1.53-4.36 1.9-6.59 2.75l16.6-21.85 10.08 2.85c3.35 1 6.88 2.09 10.32 3.14 10.29 3.1 20.72 5.81 30.83 9.42 9.54 3.41 18.76 7.74 28.09 11.73 3.9 1.67 7.71 3.54 11.58 5.26 2.41 1.06 3.45 4.82 7 3.52z"/><path d="m559.76 653.68c8.2-.95 16.39-2.06 24.6-2.9 7.64-.79 15.31-1.39 23-2 8.29-.62 16.58-1.1 24.87-1.64l12-.78c-1.58 8.06-3.18 16.14-4.75 24.2-.32 1.59-.49 3.2-.73 4.81-7 .24-14 .75-21 .7q-20.76-.17-41.53-.87c-5.47-.19-10.92-1.07-16.37-1.63q-.02-9.92-.09-19.89z"/><path d="m267.13 874.22-3.48-20.76c1.22-.55 2.42-1.17 3.68-1.64 17.95-6.76 35.93-13.43 53.84-20.25 7.44-2.85 15-2.68 22.61-1.38l-28.88 39.52c-4.55 1.21-9 2.68-13.67 3.58-8.77 1.68-17.61 3.06-26.44 4.47a5.23 5.23 0 0 1 -2.79-.76c-1.66-.85-3.25-1.84-4.87-2.78z"/><path d="m314.11 587.92q7.06 14.48 14.14 29a29.13 29.13 0 0 0 -4.82-.85c-8.67-.1-17.33-.07-26-.09-11.4 0-22.8.16-34.2-.14-3.8-.1-7.6-1.38-11.46-2.11l4.62-23.89c8.41-.14 16.82-.24 25.23-.43q15.93-.36 31.86-.85c.2-.06.41-.43.63-.64z"/><path d="m630.73 792.39c-9.17.25-18.34.86-27.55.65-10.09-.22-20.18-1.25-30.28-1.8a63 63 0 0 1 -19.53-4.34l7.36-14.44c23.19-3.86 46.47-6.76 70-6.27.16 4 .46 8.06.43 12.1.07 4.71-.24 9.4-.43 14.1z"/><path d="m400.47 649.15c10.65-.95 21.3-1.9 31.94-2.95 3.7-.36 7.36-1.07 11-1.62q.9 14.05 1.81 28.13c-13.35.59-26.69 1.16-40 1.78a7.11 7.11 0 0 0 -2.05.85q-1.33-13.09-2.7-26.19z"/><path d="m404.73 701.42c6.76-.9 13.49-2 20.26-2.63 2.59-.24 5.28.56 7.91.89-4.67 6.54-9.39 13-14 19.64-2.07 3-3.86 6.14-5.78 9.22h-10.79z"/><path d="m272.72 916.44c4.75-5 11-7.14 17.28-9.21 1.22-.4 2.85.37 4.28.6q-6.55 21.69-13.13 43.37l-1.09.2q-3.67-17.47-7.34-34.96z"/><path d="m340.37 856.74-1.08 1.32z"/><path d="m799.72 797c.08-.38.14-.76.22-1.14-.08.4-.14.78-.22 1.14z"/><path d="m497.12 604.6-.95.16.45-.72a5.27 5.27 0 0 1 .5.56z"/><path d="m637.57 927.5.25.29c-.1.08-.21.22-.31.2s-.17-.16-.26-.26z"/></g><path d="m621 617.67c-6.71 6.65-13.34 13.46-20.17 20-5.11 4.92-8 5-14.55 1.14.77-7.31 1.55-14.68 2.34-22.06 0-4.66 0-9.34-.14-14 0-2.29-1-3.33-3.6-3.08a68.55 68.55 0 0 1 -9.72-.12c-6.94-.34-11.74-3.28-12.72-10.72-.21-2-.28-4.08-.64-6.08-1-5.78 1.32-11.59-.17-17.35q.45-7 1-14l1.68-12.12c1-5 2-10 2.77-15 .79-5.4 1.23-10.87 1.9-16.29.31-2.68 4.85-6.36 7.55-6.24 4.75.22 9.41.41 14.13.62l69.34 1.15h8.15c5.49.29 11 .76 16.48.86 9.21.17 18.45-.29 27.63.34 3.8.27 7.36 2.7 11.76 4.42.49 13.06 1 26.73 1.48 40.39.16 4.93.62 10-.11 14.77-1.37 9.05-3.51 18-5.35 27-.21 1-.7 1.9-.83 2.94-.52 4.4-2.68 6.24-7.35 6.36-11.89.3-23.75 1.2-35.65 1.74-4.84.22-9.69.15-14.53.19-6-.32-12.1-.88-18.15-.87-2.65 0-5.94.4-7.81 2-5.33 4.24-9.93 9.26-14.72 14.01zm27.1-41.42a5.4 5.4 0 0 0 2.35-1.09c3.09-3.13 6.47-6.12 8.86-9.74 5-7.53 9.62-15.32 14-23.25a7.46 7.46 0 0 0 -3.22-9.78 104.19 104.19 0 0 0 -10.62-4.21 7.16 7.16 0 0 0 -8.66 2.91c-2 2.93-3.73 6.09-5.81 9-.41.57-1.9.37-2.85.52-.46-5.47-5.53-6.35-8.87-9-5.12-4-10.35-4-15.1.22-4.34 3.88-5.24 8.55-2.48 12.81 4.65 7.18 8.66 14.86 14 21.47 4.18 5.25 9.57 10 18.42 10.14z" fill="#fa5747"/><path d="m503.07 514.79c-24.38 19.79-53.2 30.64-83.82 39.67.16-2.36 0-4 .42-5.45 4.27-13.94 10.27-27.17 16.34-40.4 3.62-7.91 5.95-16.4 9.62-24.27 1.85-4 5.24-7.31 8.27-10.62.46-.5 3.17.28 4.17 1.2 9 8.32 17.88 16.87 26.9 25.2 3.14 2.9 6.65 5.43 10 8.13z" fill="#cecee5"/><path d="m454.33 427.86c7.78-6.71 16.74-10.82 26.51-14.09 9.59-3.2 19.11-5.15 29.12-4.82a36.94 36.94 0 0 1 9.41 1.41c9 2.67 18 5.08 26.67 8.72 5.87 2.48 11 6.84 16.38 10.36-6.23 2.51-12.35 5.31-18.71 7.43a118.73 118.73 0 0 1 -18.74 4.9c-8.63 1.38-17.45 2.91-26.08 2.45-7.32-.4-14.55-3.33-21.68-5.54-8.11-2.52-15.47-6.76-22.88-10.82z" fill="#cecee5"/><path d="m590.51 502.38c-4.75-.21-9.41-.4-14.12-.62-2.7-.12-7.24 3.56-7.56 6.24-.64 5.42-1.08 10.89-1.9 16.29-.74 5-1.83 10-2.77 15a58.8 58.8 0 0 1 -6.23-2.52c-9.16-4.91-18.27-9.93-27.38-14.95a17.23 17.23 0 0 1 -2.08-1.64l59.45-41.44c-2.78 8.56.13 16.08 2.59 23.64z" fill="#cecee5"/><path d="m403.24 278.36c5 13.84 10 27.71 15.11 41.52 2.93 7.89 6.06 15.72 9.17 23.54 1.9 4.69.34 7.85-5.7 11.51-4.67 2.85-9.34 5.7-15 6.28-.95-8.47-2.07-16.91-2.68-25.39s-.86-17.1-.95-25.65c-.14-10.6.02-21.17.05-31.81z" fill="#cecee5"/><path d="m509.2 564.63c-14.57-1-29.15-1.65-43.69-2.85-3.33-.28-6.49-2.33-9.76-3.47-1.4-.41-2.83-.75-4.26-1 5.58-2.48 11.2-4.87 16.73-7.45 6.27-2.9 12.47-6 18.72-9a13.16 13.16 0 0 1 2-.61h21.14z" fill="#cecee5"/><path d="m624.42 371.1-20.42-10.85c3.18-5.07 5.9-9.39 8.6-13.72 3.93-6.3 7.87-12.59 11.75-18.91 4.51-7.34 9-14.7 13.44-22.05.95-1.58 2-3.13 2.93-4.69-1 5.19-2.25 10.37-3.13 15.61-1.48 8.67-2.16 17.51-4.25 26-2.34 9.7-5.88 19.1-8.92 28.61z" fill="#cecee5"/><path d="m561.59 565.44h-9.16c.39-2.47 1.43-5 1.05-7.39-1.24-7.77-8.54-6.77-13.71-8.73a5.14 5.14 0 0 0 -6.83 2.49 4.51 4.51 0 0 0 -.31.87c-1.43 4.15-2.29 8.49-3.4 12.76l-5.36-.75q.46-10.89 1-21.76l18.8 1h-.06l1.9 1 17.1 6.65q-.51 6.84-1.02 13.86z" fill="#cecee5"/><path d="m631.68 727.55c-10-.11-19.95-.19-29.86-.39-.74 0-3.39.42-1.32-1.9a4.92 4.92 0 0 0 -2-.11c-1.24.5-2.38 1.81-3.57 1.82-6 0-12.09.51-17.91-.58-4.5-.85-8.62.37-12.92.26-2.42 0-3.39-.71-3.51-3.31-.62-12.91-.61-13 14.8-14.41 12.12-1.08 24.24-2.2 36.38-2.91 7.23-.43 14.5-.12 21.76-.14q-.95 10.8-1.85 21.67z" fill="#cecee5"/><path d="m621 617.67c4.83-4.75 9.43-9.77 14.61-14.09 1.9-1.56 5.16-2 7.81-2 6.05 0 12.1.55 18.15.87l1.37 2.59-.95-.89c-2.25 2.55-4.67 5-6.65 7.69-1 1.36-1.29 3.27-1.9 4.93z" fill="#cecee5"/><path d="m402.26 728.51-.77.88z" fill="#cecee5"/><path d="m497 363.83c-6.21-2.61-12.65-4.83-17.26-10.1-1.75-2-4.53-3.53-3.09-7.1 1.75-4.3 3.49-8.59 8.11-10.52a86.22 86.22 0 0 1 8.62-2.58c-.33-5.58-1.21-11.4-.88-17.15.61-10.56 1.68-21.12 3-31.61a152.08 152.08 0 0 1 4-17.64c.37-1.42 1.64-2.6 2.49-3.9 1.3 1.17 3.13 2.1 3.8 3.57 4 8.55 2.41 17.68 2.58 26.59.18 10.45.13 20.83 0 31.25a120.08 120.08 0 0 1 -.87 12.57c-.39 3.42-4.69 5.77-8 6.05-2.62.23-5.9 1.46-7.43 3.39-2.21 2.79 1.49 4.1 3.11 5.7 3.08 3.09 7 3.09 11.09 3.45 8.55.78 16.15-1.63 23.15-6.21 1.07-.7 1.7-2.1 2.53-3.17-1.12-.55-2.23-1.13-3.37-1.63-2-.87-4.07-1.68-6.65-2.75.88-2.25 2-4.27 2.37-6.41.21-1.34-1.3-2.85-1.26-4.33.44-15.64 1-31.29 1.6-46.93.17-4.46-1-9.35 3.86-12.65l9.88 4.6c-.62 18.81-1.15 38.08-2 57.35-.16 3.72.95 5.21 4.44 6.26 2.6.78 6.73 2.73 6.81 4.33.16 3.47-.78 8.18-3.15 10.34-4.75 4.36-10.8 7.37-16.3 10.93a72.6 72.6 0 0 1 -31.18-1.7z" fill="#542cde"/><path d="m413.16 244.6c7.31-7.88 14.33-15.38 24.59-18.42 2.31-.68 4.81-1.43 7.13-1.23 9.46.85 18.88 2 28.29 3.16a65.8 65.8 0 0 1 7.05 1.71c6.16 1.42 12.35 2.76 18.46 4.25 2.64.65 2.61 2.7 2 4.83-2.72 9.77-8.23 13.71-17.24 14.14-4.9.24-9.87-1.81-14.86-2.28-2.34-.22-4.85 1.42-7.22 1.25-12-.85-24-1.76-36-3.22-4.06-.54-7.95-2.73-12.2-4.19z" fill="#542cde"/><path d="m641.23 258.2c-3.14.6-5.06.95-7 1.33a36.4 36.4 0 0 1 -4.85 1c-1.72.1-3.47-.37-5.21-.39-7.19-.08-14.4.24-21.57-.17-13.47-.77-26.81-3-40.42-2.61-4.23.12-8.55-2.66-12.82-4.23a2.79 2.79 0 0 1 -1.25-1.72c-.64-2.17 3.62-14 5.7-14.6a41.85 41.85 0 0 1 10.85-1.52c4.54 0 9.07.73 13.61 1.08 7.37.56 14.73 1 22.08 1.61 5.7.46 11.27 1.37 16.93 1.68 8 .43 12.52 5.77 17.09 11.28 1.82 2.21 3.92 4.19 6.86 7.26z" fill="#542cde"/><path d="m546.58 397.21c.06 1 .09 1.66.16 2.8l-3-1.9.09.95-4.93 1.06a48 48 0 0 1 -6.18 1.37c-4.83.43-10.45 2.27-14.33.44-4.47-2.14-8.55 1.62-12.3-1.12a7.54 7.54 0 0 0 -4.24-1.42c-3.25-.22-6.65.08-9.72-.75-7.49-2-14.95-4.29-22.2-7-4.6-1.75-10.33-2.52-11.29-9.5l2.39-3.8c5.7 2.24 11.12 4.94 16.85 6.44 4.75 1.26 10 .95 14.94 1.6 3.46.43 6.86 1.52 10.33 1.74 3.14.2 6.31-.42 9.5-.63 8.88-.6 17.91.75 26.6-2.85 7-2.85 14.33-4.86 19.81-10.45 2.54-2.58 5.14-1.31 7.7-.31 2.84 1.11 5.64 2.42 8.85 3.8.25 6.72-21.68 22.45-29.03 19.53z" fill="#542cde"/><path d="m614.75 304.16c-6.51 6.29-12.79 13-22.11 15.47-1.84.49-4.09-.35-6.11-.74-4.3-.85-8.61-1.72-12.87-2.71-7.46-1.71-11.46-7.67-15.61-13.3-.77-1-.53-3.56.25-4.75s2.85-1.76 4.26-1.66c10.54.83 21.08 1.78 31.6 2.94 6.7.74 13.35 1.9 20 2.9.18.69.41 1.25.59 1.85z" fill="#542cde"/><path d="m480.49 296.65 3.47 5.06c-8.7 6.41-18.17 12.71-30.21 11.83-11.75-.85-21.76-5.6-28.23-17.37.34-2.44 3.13-2.54 6.11-2.5 12.66.14 25.32.12 38 .42 3.8.08 7.5 1 11.26 1.55z" fill="#542cde"/><path d="m497 363.83a72.69 72.69 0 0 0 31.12 1.7c1.9 2.28 4 4.45 5.7 6.86 2.27 3.12 1.48 6.32-2.2 7.25-13.62 3.44-27.32 7.1-40.7-1.07a59.35 59.35 0 0 0 -6.84-3c3.05-5.78 7.11-9.69 12.92-11.74z" fill="#cecee5"/><path d="m470.55 285.83c-2.42 2.17-4.35 4.54-6.84 5.78-.95.49-3.27 0-4.92 0-5.1-.13-10.16-1.48-15.27-1.95-3.8-.34-5.11-2.15-4.75-5 10.43-5.15 20.74-4.66 31.78 1.17z" fill="#542cde"/><path d="m571.79 291.75c1.1-3.3 3.44-4.44 6.87-4.69 5.9-.44 11.72-.95 17.22 1.95.78.41 1.66.65 2.45 1.05 1.19.59 2.34 1.25 3.5 1.9-1.18 1.22-2.41 3.54-3.56 3.51-8.94-.27-18.27 2.09-26.48-3.72z" fill="#542cde"/><path d="m529.23 565.42c1.11-4.27 2-8.61 3.4-12.76a5.13 5.13 0 0 1 6.26-3.67 4.6 4.6 0 0 1 .88.31c5.16 2 12.47 1 13.71 8.73.38 2.35-.66 4.92-1.05 7.39-6.28 7.91-11 7.66-21.47.28-.42-.31-1.16-.19-1.73-.28z" fill="#542cde"/></svg>