<svg xmlns="http://www.w3.org/2000/svg" width="480" height="400" viewBox="0 0 1064.93 1050.34"><defs><style>.cls-1{fill:#fdccc7;}.cls-2{fill:#fddfdc;}.cls-3{fill:#fff;}.cls-4{fill:#5c30df;}.cls-5{fill:#9c82ea;}.cls-6{fill:#452888;}.cls-7{fill:#fa5948;}</style></defs><title>PRANCHETACORAÇÃO</title><g id="Camada_1" data-name="Camada 1"><path class="cls-1" d="M787.87,947.6c.21-2.59-.93-2.75-3.06-1.93-5.18,2-10.43,3.82-14.73,5.38-1,1.64-1.7,2.89-2.53,4a9.67,9.67,0,0,1-2.42,2.66,7.43,7.43,0,0,1-3.81,1.29c-2.89-.06-4.9.17-3.09,2.93-5,.59-10.19.86-15.2,1.86A143.22,143.22,0,0,0,728.31,968c-2.71.86-5.22,2.38-7.95,3-3.62.87-7.37,1.15-11.05,1.77-7.92,1.32-15.8,3.17-23.77,3.91-9.54.88-19.15.86-28.74,1.17q-10.31.32-20.62.48c-5.85.1-11.7,0-17.55.19-4.47.12-8.94.57-13.41.68-2.21,0-4.44-.53-6.65-.46-11.68.4-23.36.92-35,1.4l-2.78,1-5.52-.77c-2.38-.26-4.76-.54-7.15-.72a9.41,9.41,0,0,0-.38,1.59h0l-3,.12-5.49.77L529,983c-3.32.34-6.66.55-10,1-9.44,1.38-18.83,3.13-28.3,4.2-3,.33-6.15-1-9.75-1.7-3.12,5.2-9.31,3.73-14.56,4.6-9.11,1.5-18.29,2.65-27.48,3.58-6.07.62-12.2.78-18.31.82-8.1.06-16.22,0-24.31-.37-15.23-.74-30.64.81-45.63-3.52-1.79-.51-4.07,1-6.12,1-9.37-.14-18.75-.5-28.12-.75-2.42-.07-4.94.44-7.25-.06-6.48-1.4-12.89-3.2-19.33-4.82-5.83-1.47-11.72-2.76-17.5-4.42a81.66,81.66,0,0,1-11.12-4.15c-12-5.49-24-10.8-34.74-18.71-7.56-5.56-16.62-9.05-24.31-14.46-12.4-8.73-24.58-17.85-36.21-27.58S143.34,897.51,132.43,887c-7.9-7.63-15.42-15.7-22.65-24-9.35-10.73-18.63-21.55-27.2-32.89a386.71,386.71,0,0,1-24.25-35.41c-8.43-14.22-15.53-29.26-20-45.29C35.07,737.67,32,725.86,29.48,714c-2.12-10-3.21-20.3-4.93-30.44-1-5.7-2.53-11.31-3.32-17-.45-3.3.17-6.74.22-10.11.34-24,2.3-47.83,7.44-71.24,4-18.23,9-36.26,14-54.24,2.91-10.37,7.13-20.37,10.12-30.73,1.91-6.61,2.65-13.55,3.91-20.35,1-5.4,2.68-10.79,2.82-16.22.3-11.1-.33-22.22-.4-33.33,0-8,.13-16.07.36-24.1.2-7.28.64-14.55.92-21.82.36-9.19.14-18.44,1.14-27.56a222.29,222.29,0,0,1,4.88-26.37c1.87-8,4.21-16,6.79-23.83,2.71-8.2,5.58-16.39,9-24.3C88,269.67,93.61,257.05,100,244.89c5.72-10.81,12.41-21.14,19.06-31.43,7.76-12,15.52-24.05,24.08-35.49,4.93-6.58,11.24-12.18,17.27-17.86,7.11-6.69,14.85-12.7,21.84-19.5,9.62-9.34,20.65-16.6,32.1-23.36,5.47-3.23,11.39-5.83,16.46-9.59,13.6-10.06,28.52-18,42.77-26.94,8.1-5.11,16.63-9.59,25.15-14,7.76-4,16-7.15,23.61-11.34,3.41-1.87,6.61-4,10.32-5.37,1.39-.51,2.46-1.9,3.78-2.15,4-1.4,8.07-2.91,12.17-4.16,4.94-1.5,10-2.7,14.92-4.18,3-.9,5.9-2,8.81-3.15,17-6.56,35.09-8.34,52.85-11.38,13.26-2.27,26.69-3.69,40.1-4.85,12.74-1.11,25.54-1.51,38.33-2,11.95-.46,23.94-1.2,35.88-.76,12.35.46,24.66,2.16,37,3.36,9.86,1,19.72,2,29.58,3,24.84,2.41,49.48,5.77,73.57,12.66,28.47,8.16,57.22,15.41,85.51,24.16a281,281,0,0,1,43,17.68c7.87,4,14.3,10.85,21.17,16.67a101.75,101.75,0,0,1,9.47,9.56c2.55,2.82,4.88,5.85,7.18,8.87,6,7.88,12.44,15.49,17.77,23.8,8,12.45,15.23,25.37,22.6,38.19,1.26,2.19,1.6,4.91,2.39,7.37q4.4,13.63,8.79,27.25,3.76,11.79,7.47,23.62c2.2,7,4.74,13.93,6.48,21,2.15,8.8,3.44,17.81,5.48,26.64,1.39,6,3.6,11.8,5.16,17.77,2.05,7.88,3.81,15.84,5.7,23.77.58,2.45,1,4.95,1.81,7.34,2.31,6.95,4.51,14,7.26,20.73,2.09,5.15,1.14,11.66,6.76,15.35.62.41.08,2.32.51,3.36,2.26,5.52,4.34,11.14,7.09,16.42a129.1,129.1,0,0,0,10.32,17.13c5.89,8,12.43,15.49,18.71,23.19,5.25,6.44,10.57,12.83,15.79,19.3s10.44,12.9,15.46,19.5c1.26,1.65,1.61,4,2.64,5.81,2.91,5.18,6.35,10.1,8.83,15.47,2.83,6.12,4.77,12.64,7.29,18.91.37.92,1.81,1.42,2.11,1.64.72,4,1.27,7.92,2.15,11.77,2.19,9.59,4.68,19.12,6.74,28.74.76,3.56.4,7.35,1,11s1.95,7.1.38,11.25c-1.14,3,.09,7,.38,10.46.72,8.62.7,17.07-1.3,25.69-2.71,11.73-4.06,23.78-6.35,35.62q-3.37,17.48-7.49,34.81c-2.14,9.1-4.64,18.12-7.18,27.11-2.27,8-4.81,16-7.23,23.95-2,6.6-3.6,13.37-6.12,19.78-4.77,12.13-8.29,24.76-15.22,36-3.87,6.31-6.39,13.44-9.82,20-1.32,2.55-3.53,4.62-5.2,7-6.18,8.76-11.9,17.87-18.56,26.24A220,220,0,0,1,938,859c-8.25,7.83-17.23,14.9-26.08,22.09-6.78,5.5-13.66,10.92-20.81,15.92-10,7-20.25,13.54-30.43,20.22-3,2-6.22,3.07-9.1,5.81-3.43,3.24-9.61,3.54-14.56,5.25-1,.35-1.8,1.28-3.54,2.56a13.2,13.2,0,0,0-11.09,3c-1.06.92-3.32.29-4.85.85-8,3-16,6-23.91,9.22-2.07.84-3.86,2.39-5.78,3.61Z"/><path class="cls-2" d="M529,983l10.26-.88Z"/><path class="cls-2" d="M547.7,981.26a9.41,9.41,0,0,1,.38-1.59c2.39.18,4.77.46,7.15.72C553.07,983.73,550.25,981.3,547.7,981.26Z"/><path class="cls-2" d="M560.75,981.16l2.78-1Z"/><path class="cls-2" d="M544.74,981.38l3-.12-1.18,1.65Z"/><path class="cls-1" d="M787.88,947.61l-1,.71-.25-.37,1.27-.35Z"/></g><g id="Camada_3" data-name="Camada 3"><path class="cls-3" d="M571.64,56.63,543.25,17.79l-49.31,7.47L462.57,59.62,428.2,44.68l-44.82-1.49L349,80.54l-4.49,29.88v10.46L301.2,134.33l-23.9,34.36L262.36,206l7.47,35.86,9,17.93-32.87,19.42-1.49,32.87L240,368.9l25.4,22.41-7.47,32.87,16.43,64.25,32.87,13.44s26.89,6,34.36,4.49,35.86,25.39,35.86,25.39l64.25,44.83L328.1,613.93s-153.89,124-115,227.1l-7.47,40.34L225,942.63,241.44,983l46.32,11.95,164.35-3,189.75-6,59.76-4.48,10.46,10.46s70.22,10.46,103.09-46.32l-3-50.8,4.48-115.05-14.94-83.66-50.8-49.31-64.25-35.86L612,569.11l-7.47-19.43,22.41,6,32.87-4.48,31.37-32.87,43.33-1.5,28.39-28.38,6.72-46.32,35.11-31.38L794.26,367.4,783.8,342l20.91-40.34L794.26,241.9,756.9,219.49V182.14l-10.46-46.32-34.36-10.46-22.41,4.48-3-25.4-25.4-43.33-28.39-7.47-31.37-4.48Z"/><g id="Camada_1-2" data-name="Camada 1-2"><path class="cls-4" d="M595.65,42.51c3.77-1.18,7.49-3.13,11.32-3.36,7.65-.45,15.45-.68,23,.38,5.57.78,10.73,4.08,16.27,5.64,9.75,2.76,17.7,8.48,25.58,14.44q.95.62,1.95,1.14c3.85,5.1,7.62,10.25,11.58,15.25,1,1.21,3.08,1.62,3.79,2.93,5.45,9.63,7.52,20.22,8.06,31.14.12,2.41-.2,4.83-.31,7.42,4.55-.63,8.7-1.68,12.84-1.66,3.42,0,6.83,1.15,10.22,2.08a43.77,43.77,0,0,1,9.35,3.33c4.6,2.47,8.89,5.54,13.34,8.32,2.48,1.54,5.48,2.55,7.45,4.58,6.17,6.38,12.61,12.68,17.69,19.9,3.3,4.67,7.25,9.88,6.13,16.58a2.9,2.9,0,0,0,.67,2.06c3.77,4.65,3.9,10.22,3.77,15.71-.07,3.68-.91,7.35-1.37,11-.42,3.33-.55,6.73-1.28,10-.6,2.69-2,5.21-2.92,7.93,4.71,2.24,9.12,3.77,12.88,6.28a61.11,61.11,0,0,1,12.06,10.23A48.17,48.17,0,0,1,806.11,247c2.8,6.83,4.52,14.15,6.56,21.29.41,1.44-.06,3.13.36,4.56a53,53,0,0,1,2,22.43c-1.44,10.9-6.5,20.28-11.28,29.74-4,8-9.11,15.54-13.77,23.41,2.34,1.95,4.15,3.13,5.44,4.69,3.15,3.85,7.28,7.48,8.77,11.95a127.52,127.52,0,0,1,5.17,24.58c.8,6.37,1,12.91-2.09,19.14a78.58,78.58,0,0,1-14.5,19.88,63.56,63.56,0,0,1-15.14,11.92c-3.84,2-4,4.17-3.14,7.09a36,36,0,0,1,0,22.51,133.87,133.87,0,0,1-5.75,15c-2.2,4.7-4.41,9.71-7.8,13.47-4.61,5.05-10.31,9.11-15.67,13.46-7.48,6.08-16.58,7.56-25.74,8-8.31.39-16.68-.53-24.51-.85-7.22,14.28-17.76,25.8-31.21,35.11-14.63,10.17-30.88,8.68-47.59,7.39a8.63,8.63,0,0,0,2.45,4,53.13,53.13,0,0,0,5,3.67c6.46,4.44,12.68,9.25,19.45,13.18,8.26,4.82,16.95,8.89,25.45,13.28,6.83,3.53,12.22,9.53,19.93,11.71,2.21.61,4.16,2.2,6.27,3.24,8.72,4.3,17.44,8.62,26.21,12.82,5.42,2.61,11,4.88,16.36,7.63,3.36,1.73,6.34,4.19,9.57,6.19,4.88,3,10.34,5.38,14.72,9a283.84,283.84,0,0,1,25.27,23,96.73,96.73,0,0,1,14.41,20.07c3.74,6.89,5.85,14.63,8.6,22.08a115.47,115.47,0,0,1,7.32,36.88c1.31,52.9-2.49,105.84,1.48,158.71.64,8.32,1.68,16.58,2.45,24.92.44,4.7.69,9.42,1,14.13l4,2.48-11.7,7c-5.58-8.1-11.39-17-17.72-25.56-4.33-5.85-9.44-11.09-14.09-16.71-3.91-4.68-7.45-9.61-11.37-14.26-4.93-5.85-10.15-11.43-15.12-17.24-2.1-2.44-3.79-5.23-5.86-7.73-4.41-5.38-9-10.6-13.41-16-6.23-7.71-12.31-15.55-18.47-23.32-2.8-3.53-5.85-6.89-8.39-10.57-4-5.8-7.54-12-11.7-17.68s-9.17-10.79-13.15-16.58c-7.65-11.2-15.28-22.44-20-35.35-3-8.25-7.22-16.17-9.34-24.63-1.45-5.72-.74-12.19,0-18.22s2.51-11.7,4.08-17.55a99.22,99.22,0,0,1,4.12-12.34c1.95-4.55.09-8.22-2.31-11.7-.42-.62-2.7-.4-3.9.06-2.19.84-4.08,2.48-6.3,3.18-2.92,1-4.82,2.19-6.27,5.27-2.21,4.72-5.78,8.78-8.32,13.37-2.21,4-3.72,8.37-5.68,12.51-2.31,4.87-3.9,10.42-7.35,14.34-9.09,10.37-11.27,11.71-25.15,6.74-12-4.32-21.68-11.56-31-19.89-5.19-4.66-11-8.67-16.74-13.18-1.89,4.63,1,6.39,2.8,9,3,4.23,4.78,9.32,7.46,13.8,3.61,6,6.44,12.53,12.37,17,2.51,1.89,4.28,4.88,6.09,7.54s.54,4.36-2.36,3.82a25.24,25.24,0,0,1-9.17-3.25c-5.79-3.9-12.26-7.51-16.38-12.84a23.84,23.84,0,0,0-12.08-8.78c-2.84,5.07.79,8.78,2.33,12.68,3.84,9.67,12,16.23,19.59,22.12,4.63,3.58,6.77,9.84,13,11.62,1.17.34,1.42,3.9,2.17,6.13-5,2.75-8.39-.17-11.81-3-5.06-4.22-10-8.65-15.15-12.68-5-3.9-10.21-7.34-15.37-10.93a18.25,18.25,0,0,0-3.23-1.43c-1.17,5.34.36,9.45,3.2,13.27,5.24,7,8.54,15.6,15.93,21,2.31,1.7,4.42,3.69,6.65,5.51,5.58,4.54,11.22,9,16.72,13.65.73.62.77,2,1.12,3.09-1.09.28-2.45,1.12-3.25.74-4.42-2-8.78-4.16-13-6.53-7.27-4.07-14.44-8.33-22.57-13,1.55,4.14,2.37,7.91,4.27,11a119,119,0,0,0,10.81,15.11c3.44,4,7.81,7.26,11.49,11.08,2.93,3,5.35,6.55,8.31,9.55,8.92,9,18.24,17.7,26.94,26.93,8.94,9.49,17.22,19.59,26,29.26,5.65,6.23,11.71,12,17.43,18.2,3.19,3.45,5.91,7.33,9,10.82,4.38,4.88,9.05,9.5,13.41,14.38,5.86,6.49,11.4,13.2,17.23,19.69,2.87,3.18,6,6.07,9.13,9.06,5.85,5.65,11.7,11.33,17.55,16.91,5.21,4.88,10.39,9.89,15.85,14.51,2.86,2.43,1.86,3.71-.67,4.88-3.6,1.72-7.12,4.12-11.46,2.27-3.72-4.05-7.37-8.16-11.17-12.14-3.63-3.8-7.4-7.44-11.11-11.16-3.44-3.46-6.82-7-10.36-10.36-3.22-2.92-3.82-8.42-9.05-9.43-.13-.57-.09-1.31-.43-1.7q-10-11.14-20.11-22.25c-2.23-2.44-4.57-4.78-6.82-7.17a11.92,11.92,0,0,0-1.34-2.22c-5.37-5.79-10.84-11.47-16.2-17.29s-10.52-11.76-15.83-17.64q-5.76-6.35-11.56-12.68L580.8,853.16c-5.59-6-11-12-16.83-17.82-2.92-2.92-6.41-5.27-9.62-7.89,1.2-3.67-2.44-4.34-4-6.26-6.15-7.8-13.12-15-18.44-23.3-4.75-7.41-10.42-15.43-5.27-25.25l9.65.43a.92.92,0,0,0-.09-.76c-4.55-5.85-9.34-11.63-13.65-17.7-3.22-4.5-1.54-9.05,1.64-12.81,2.45-2.93,5.6-4.61,9.43-1.66a1.91,1.91,0,0,0,2.49-2.84c-3-4.56-6.14-8.82-7.4-14.52-1.33-6,1.17-11,7.4-10.91,3.12,0,6.23.51,10.8,1-2.44-5-4.38-9-6.14-12.68l-12.93,7.12a22.89,22.89,0,0,0-3.66-1.86c-2.83-.83-6-1-8.55-2.25-2.78-1.4-5.09-3.79-8-6.08-.84,6.69-1.55,12.57-2.35,18.44-.18,1.29-.78,2.51-1.05,3.79-.49,2.48-.9,5-1.34,7.47-.65,1.81-1.64,3.59-1.88,5.45-1.23,9.35-5.06,17.71-10,25.53-1.25,2-4.34,4.19-6.39,4a18,18,0,0,1-14.37-8.86c-.8,1.67-1,3-1.85,3.71a92,92,0,0,1-9.29,6.91c-.7.44-2.41-1-3.45-.72-1.33.34-2.45,1.51-3.67,2.33-1.25,1.17-2.83,2.13-3.69,3.54-3.11,5.1-5.93,10.39-8.94,15.55-5.19,8.87-10.6,17.63-15.61,26.59-2.92,5.24-5.36,10.73-7.91,16.22-1.88,4.05-3.58,8.17-5.36,12.27-.72.65-1.71,1.16-2.13,2-2.21,4.28-4.37,8.58-6.37,13-2.77,6.12-5.38,12.3-8.06,18.45-.3.07-.77.06-.86.24-3,6.36-5.91,12.82-9.12,19.1-4.07,8-8.41,15.83-12.63,23.74L360,937c-.49.35-1.14.6-1.44,1.08q-6.12,9.51-12.12,19.08c-2.54,4-5,8.09-7.52,12.14a33.7,33.7,0,0,1-3.81,3.46c-10.37,7-18.14,17.12-29.21,23.53-6.07,3.52-10.72,9.39-18.66,8.94-.56,0-1.17,1.08-1.76,1.67-9.05,1.62-17-2.14-25-5.23-4.94-2-10.24-2.6-14.45-6.74-4.38-4.29-9.31-7.92-12.18-13.55-.38-.75-1.25-1.25-1.89-1.87l-1.42-1.3.12.08c-1.5-2-3.32-3.9-4.44-6.1-4.45-8.86-8.85-17.75-12.93-26.79-1.63-3.64-1.79-8-3.61-11.48-5.85-11.24-7.9-23.65-10-35.74-2.36-13.85-2.39-28.13-3-42.24-.21-4.65.89-9.35,1.33-14,1.07-11.46,1.95-22.94,3.23-34.38a143.69,143.69,0,0,1,2.74-15c2-9.06,4.1-18.08,6.22-27.11,1.29-5.55,2.45-11.16,4.1-16.58a96.2,96.2,0,0,1,4.88-11.9q5-10.9,10.32-21.66c5.48-11.2,10.37-22.75,16.78-33.39a193.87,193.87,0,0,1,20-26.71c5.6-6.42,12.51-11.7,18.89-17.43,4.42-4,8.78-8,13.42-11.7,5.56-4.39,11.32-8.52,17.15-12.54,4.2-2.93,8.61-5.52,13-8.16,6.15-3.69,12.26-7.5,18.53-10.89,5.85-3.17,12-5.85,18.07-8.78,5.1-2.48,10-5.33,15.29-7.42,10.23-4.06,20.63-7.7,31.75-11.79-1.53-1.46-1.95-2.26-2.57-2.38-11-2.44-18.8-10.37-27.47-16.58s-16.76-13.66-24.86-20.83c-3.51-3.09-6.31-7-9.69-10.22-2.43-2.35-5-4.07-9.08-3.69-5.18.47-10.15,1.72-15.79,1a216.28,216.28,0,0,1-24.57-4.94c-9.6-2.43-18.7-5.85-25.59-12.82a154.46,154.46,0,0,1-19-23.33,81.87,81.87,0,0,1-9.48-21.15c-2.32-7.54-3.16-15.54-4.35-23.41-.15-.92,1.6-2.12,2.47-3.19.06,1.24.13,2.48.19,3.72l1.95-.72L242.28,425c-.76-1.95-2.26-4-2.13-5.85a159.1,159.1,0,0,1,2.34-19c.72-3.9,2.47-7.57,3.54-10.73-4.54-3.24-9.45-6.16-13.65-9.89-5.8-5.16-9.25-12-12.68-19-4.17-8.4-5.34-17-5.95-26-.68-9.86,1.65-19.16,4.43-28.4A54.08,54.08,0,0,1,222,295.72a158.69,158.69,0,0,1,10.59-17.43c5.35-7.46,9.91-15.74,18.53-20.34,4.52-2.43,8.9-5.11,13.54-7.81-.16-.67-.09-1.78-.62-2.4a74.61,74.61,0,0,1-13.27-22.43,60.22,60.22,0,0,1-3.24-32.1c1.81-10.21,5.24-20.2,8.78-30,3.48-9.52,8.56-18.53,15.79-25.69,6.38-6.29,13.86-11.51,21.11-16.87,10.78-8,22.84-12.18,36.45-11.12,2,.16,4.06,0,5.78,0-.36-2.65-.75-4.65-.91-6.67a74,74,0,0,1,2.73-25.55c2.38-3.9,4.48-8,7.22-11.65a129.67,129.67,0,0,1,9.61-10.54c2.09-2.18,4.34-4.22,6.51-6.33,6-5.85,13.38-9.58,21-13.06,14-6.46,28.75-5.67,43.39-4.17,6.09.62,12,3.29,17.91,5.32,2.65.91,5.06,2.52,7.58,3.82L457.33,49c1.88-3.7,3.8-7.45,5.7-11.19,5.85-5.8,11.4-12,17.73-17.26,3.42-2.82,8-4.55,12.4-5.85C499,13.09,505,12.36,511,11.24c6-.05,12.07,0,18.1-.21.73,0,1.42-1.12,2.13-1.72h1.85c1.23.65,2.4,1.69,3.72,1.95a55.74,55.74,0,0,1,23.05,9.27c6.68,4.56,12.48,9.39,14.87,17.42.13.43,1,.67,1.46,1,1.14,3.9,2.26,7.89,3.43,12,1.88-.49,4.41-.39,4.94-1.39C587.05,44.91,592.12,45.06,595.65,42.51ZM469.54,551.87c-.75.3-2.12.54-2.15.9a37.37,37.37,0,0,0,.16,5.29l3.9,1v-4.3h.39l.37.12,2.11,1.47c6.94,1.56,13.82,4.07,20.81,4.43,7.39.38,14.85.76,22.3.79a175,175,0,0,0,44.43-5c6.42-1.64,12.76-3.6,19.57-5.53-4-5.78-8-10.73-11.11-16.15-2.36-4.06-4.6-5.19-8.51-2.26a9.34,9.34,0,0,1-4,1.77c-9.75,1.52-19.51,3.6-29.26,4.11-8.78.44-17.71-.86-26.57-1.46-.68,0-1.31-.83-2-.89-3.59-.28-7.9-1.76-10.62-.32-4.15,2.21-7.07,6.64-10.73,9.76Q474.24,548.94,469.54,551.87Zm59.82,107.58,9.17,10c1.17,3.9,2.21,7.91,3.55,11.78.85,2.43,2.15,4,5.43,4.26a23.67,23.67,0,0,1,14.54,6.5c3.39,3.15,7.58,5.41,11.25,8.29,5.66,4.44,11.29,8.94,16.75,13.65,4.46,3.83,9.27,6.19,15.3,6.38a8.24,8.24,0,0,0,8.18-4.74c2.48-5.25,3.79-11,6-16.41,2.43-5.85,4.53-12.14,8.27-17.14,4.66-6.22,10.87-11.28,16.32-16.94a18.94,18.94,0,0,0,2.27-3.7l2.57,2.1a29.3,29.3,0,0,1,11.22-1.6c3.95.3,7.8,1.47,11.75,2.26a16.86,16.86,0,0,0,.68,2.53c1.21,2.86,3.57,5.7,3.51,8.51-.1,5.23-1.49,10.46-2.62,15.6-.21,1-1.67,1.67-2.55,2.49l1.26.28c-.73,3.33-1.63,6.62-2.14,10-1.14,7.34-2.11,14.77-.93,22.14a67.11,67.11,0,0,0,4.15,14.91,135.81,135.81,0,0,0,9.06,17.89c1.59,2.67,4.57,4.52,6.92,6.76a24.42,24.42,0,0,1,2,3.81c2.82,9.28,8.42,17,13.74,24.88,1.66,2.46,2.57,5.42,4.31,7.8,4.66,6.3,9.68,12.32,14.35,18.6,4.88,6.61,9.5,13.46,14.41,20.08,2.58,3.49,5.69,6.61,8.31,10.09,3.54,4.71,6.66,9.75,10.28,14.38,5.61,7.23,11.46,14.3,17.3,21.36,3.33,4,6.89,7.87,10.3,11.84,2.83,3.32,5.44,6.83,8.44,10,3.9,4.15,8.18,8,13,12.75-.36-3.08-.53-5-.83-7-1.61-10.57-3.48-21.09-4.75-31.69-.63-5.29-.16-10.73-.17-16.06,0-36,.18-71.95-.17-107.92-.1-10.9-.65-22-2.92-32.62-2.17-10-7-19.37-10.5-29.08-3.37-9.46-9.46-17.15-15.81-24.6a136.38,136.38,0,0,0-14-13.94,175,175,0,0,0-16-12.41A161.43,161.43,0,0,0,723,634.85c-5-2.64-10.59-4.34-15.91-6.47-2.7-1.22-5.44-2.34-8.08-3.7-6.74-3.45-13.36-7.14-20.15-10.49-7.8-3.83-15.71-7.28-23.4-11.15-2.76-1.38-5.07-3.68-7.75-5.27-3.82-2.3-7.86-4.25-11.7-6.53-3.12-1.85-6-4.07-9.14-6-2.37-1.46-5-2.5-7.32-4.07-9.29-6.37-18.49-12.89-27.69-19.34-3.9,2.1-8,4.48-12.32,6.57a76,76,0,0,1-8.38,3.25c-5.29,1.84-10.25,5.06-16.21,4.16-3.56-.54-7,3.44-10.59.16-6.14,2.86-12.68,1.71-19.09,2.14a174.38,174.38,0,0,1-46.65-3.27c-3.13-.63-6-3.15-9.08-3.4a32.68,32.68,0,0,1-17.43-6.66,3.61,3.61,0,0,0-3.18-.37c-2.73,1.47-5.13,3.58-7.9,4.94-8.77,4.35-17.6,8.78-26.64,12.61-8.1,3.45-16.58,6-24.75,9.25-8.43,3.37-16.85,6.83-25,10.8-7.25,3.49-14.15,7.67-21.21,11.55-4.88,2.93-10.06,5.57-14.68,8.91-6.75,4.88-13.27,10.08-19.63,15.45-7.7,6.49-15.53,12.92-22.57,20.1-6.17,6.31-11.44,13.53-16.86,20.48a122.62,122.62,0,0,0-8.1,12.1q-5.25,8.79-10.06,17.76c-3.22,6.07-7,12-9,18.53-2.3,7.33-6,14.25-6.48,22.28-.35,5.7-2.76,11.25-4.14,16.88-2.93,12-6,23.92-8.63,36-1.51,6.9-2.27,14-3.31,21-1.48,10-3.27,19.95-4.21,30-.43,4.54,1.06,9.24,1.28,13.88.14,2.76-1,5.63-.66,8.32,1.06,7.65,2.65,15.23,4,22.85.23,1.31.09,2.69.32,4,1.62,9.11,2.93,18.3,5.08,27.31a121.14,121.14,0,0,0,6.6,19.34c2.82,6.63,5.65,13.47,9.88,19.19,4.76,6.42,10.73,12,16.84,17.31,2.42,2.1,6.39,2.93,9.75,3.3,9.34,1.11,18.47-.79,27.31-3.56,3.1-1,7-2.74,8.34-5.28,3.34-6.53,9.47-10.31,14.48-14.48,6.19-5.15,9.44-12,14.32-17.73,3.85-4.55,6.6-10,9.76-15.15s6.45-10.54,9.53-15.91c6.36-11,12.61-22.13,18.9-33.22q2.25-4,4.42-8.08c2.76-5.23,5.61-10.42,8.17-15.74,3.07-6.37,5.69-13,8.84-19.29,3.35-6.69,6.83-13.33,10.73-19.72q9.48-15.6,19.6-30.8c2.8-4.23,6.48-7.9,9.46-12,3.62-5,6.59-10.59,10.5-15.37,2.51-3.08,3.22-5.48.27-9.12a28,28,0,0,1-3.13,4.23c-2.72,2.52-5.31,5.85-8.59,6.93-4.07,1.31-13.94-6.38-15.09-10.65-1.06-3.9-2.4-7.87-2.92-11.9a80.78,80.78,0,0,1-.16-13.29c0-.92,1.53-1.77,2.37-2.66a10.49,10.49,0,0,1-.31-11,65.75,65.75,0,0,0,3-8.12l-.6-.11,6.14-6.54c-1.16,40.32-.93,43,4.75,56,.66-.34,1.59-.51,1.95-1,2.68-4.33,6.13-8.44,7.67-13.16,2.85-8.78,4.56-17.92,6.76-26.9l5-.21c.66,4.66,1.62,9.3,2,14,.48,7.16.35,14.35.82,21.51.14,2.11,1.4,4.15,2.17,6.25,1.22-.54,1.62-.59,1.76-.8,7-11.29,12.75-23,12.88-36.76,0-2.31,1.73-4.6,2.62-6.91.45-1.17.82-2.37,1.33-3.91.3.28,1.95,1.08,2.31,2.27a51,51,0,0,1,2.43,11.13c.38,5.06-.14,10.18,0,15.27.14,4.83.65,9.64,1,14.47l1.2.68c1-1,2.54-1.78,2.93-2.93,2.07-5.85,3.9-11.88,5.75-17.85,2-6.54,4.78-13,5.85-19.67,1.53-9.24,1.76-18.68,2.7-28,.15-1.49.83-3.71,1.87-4.14a6.24,6.24,0,0,1,5.08.55c2.59,1.71,5.9,3.67,6.82,6.26,2,5.36,6.61,6.4,10.55,8.71,2.8,1.65,9.11.7,9.23-1.45.29-4.65,1.33-10-.5-13.85A105.15,105.15,0,0,0,517.61,659c-9.61-11.86-22.94-17.8-37.52-20.7-10.65-2.11-21.3-.68-32,1.35-13.34,2.54-24.69,9-35.28,16.58-6.47,4.65-11.82,11.09-16.93,17.34-8.17,10-15.76,20.43-23.52,30.75-6.23,8.28-12.44,16.58-18.48,25-4.22,5.85-8.2,12-12.21,18-5.3,8-10.51,16-15.77,24-4.36,6.63-8.84,13.17-13.11,19.84-3.9,6.15-7.52,12.51-11.55,18.6-5,7.63-10.21,15.21-15.66,22.54-3.64,4.88-7.88,9.34-11.86,14l-1.18-.79c.31-1.77.16-3.79,1-5.27,3.65-6.57,7.49-13,11.43-19.43,1.46-2.36,3.62-4.29,5-6.68,3.52-6.08,6.6-12.42,10.2-18.44,2.88-4.82,6.41-9.25,9.37-14s5.22-9.6,8.1-14.24c5.24-8.42,10.73-16.73,16.06-25.07,4.4-6.83,8.78-13.66,13.29-20.4,2.68-4,5.53-7.87,8.31-11.8,1.58-2,3.27-4,4.73-6q12.47-17.91,24.71-35.9a27.2,27.2,0,0,0,2.11-4.82c3.26-1,3.9-4.55,6.05-6.36a204,204,0,0,1,20.55-15.55c13-8.54,26.94-14.56,42.8-16,7.8-.71,15.6-1.38,22.72,1.32,8,3,15.35,7.66,23,11.46C512.59,643.45,521.3,651.05,529.36,659.45ZM431,261.28v.05c9-3.61,16.82-9.88,26.8-11.16,3.9-.51,7.92-2.31,11.7-1.95,6.22.54,12.31,2.31,18.44,3.66,1.24.27,2.34,1.18,3.57,1.48,5.23,1.26,6.66,6.51,10.18,9.52,6.48,5.53,13.58,10.42,19.56,16.43s12.8,8.77,21.1,7.95a79.75,79.75,0,0,0,11.88-1.95c5.75-1.48,11.39-3.38,17.08-5.15,9.36-2.92,18.53-7,28.11-8.47,15.85-2.44,31.64-1.29,45.89,7.54,1.65,2,3.66,3.82,4.88,6.06,5,9.09,7.57,19,9.81,29.09.51,2.31,1.7,4.61,1.62,6.87-.25,6.95-.91,13.87-1.53,20.8-.33,3.61-1,7.19-1.44,11.09h13.47c2,.63,3.91,1.33,5.92,1.88,9.93,2.71,19.57,6,26.33,14.46,3.35,4.23,6.45,8.89,5.73,14.49-1,7.62-13.11,19.3-20.72,20.67-5.37,1-10.73,2.71-16.11,2.66-7.33-.07-14.63-1.37-21.94-2.41-3.28-.48-4.62.44-5.27,3.75a96,96,0,0,1-4,14.89c-3.53,9.35-7.23,18.65-11.39,27.73a226.8,226.8,0,0,1-11.44,21.36,198,198,0,0,1-12.08,17.89c-5.23,6.95-10.85,13.65-16.4,20.31-2.46,2.92-5.26,5.67-7.68,8.69-.59.73-.78,2.71-.26,3.22,5.43,5.45,10.39,11.8,16.84,15.61,4.35,2.57,8.71,5.28,13.15,7.74s9.89,4.12,15.26,2.62c6.83-2,13.73-3.9,20.36-6.52a124.51,124.51,0,0,0,18.09-8.55c7.8-4.58,11.82-11.49,11.24-20.93-.26-4.22,2.84-8.58,6-9.11,6.74-1.1,13.82-1,20.29,2.92,5.71,3.45,12.33,2.57,18.12.62,4.38-1.47,8-5.21,11.89-8.1,9.55-7.14,19.56-13.28,24.19-25.81,3.27-8.85,2.41-16.84.6-25.07-1.31-5.94,1-13.65,6.83-15.9,4.87-1.9,9.47-3.85,13.65-7.25,7.3-5.85,11.94-12.9,13.11-22.1,1.6-12.54-1-24.68-5-36.38-2-5.68-3.24-12.38-10-15.31-.74-.33-1.28-2.69-.9-3.73,1.7-4.58,3.32-9.3,5.8-13.48,4.29-7.2,9.51-13.85,11.36-22.32.69-3.16,2.3-6.12,3-9.28,1.06-4.58,2.36-9.25,2.36-13.9A56.31,56.31,0,0,0,797,273.14c-1.79-6.34-3.64-13-7.06-18.48-5.85-9.51-15.76-14.73-25.42-19.83a20.6,20.6,0,0,0-3.9-2c-8-2-10.11-5.85-8.37-13.65a117.29,117.29,0,0,0,2.27-17.09c.19-2.58-1-5.22-1.25-7.86-.84-9.61-1.43-19.24-7.72-27.31-4.07-5.22-7.64-10.87-12.11-15.7-5.28-5.73-9.93-12.68-19-13.12-4.24-.2-8.44-.85-12.68-1.12-6-.39-11.77,3.29-18.24.25-3.68-1.74-4.42-3.47-3.9-6.76.86-5,2.16-9.93,2.62-14.94,1.13-12.46-1.3-24.29-9-34.3a61.75,61.75,0,0,0-35.86-22.92c-16.37-3.59-33-2.85-48.68,4.58a27.33,27.33,0,0,0-5.21,2.69c-2.64,2.07-5,4.56-7.56,6.7-.67.55-2.36,1-2.75.59-2.33-2.27-5-4.5-6.42-7.32-1.66-3.47-1.58-7.81-3.2-11.24-2.93-6.17-5.65-12.79-10.1-17.77S542.8,28.3,537,24.89c-3.11-1.84-7-2.53-10.61-3.29-1.42-.3-3.12,1-4.66,1-13.25-.51-24.82,3.84-35.05,12-8.78,7-14.77,16.11-19.56,26.05-2.92,6.05-4.34,6.71-10,3.31a15.94,15.94,0,0,1-1.42-1.16c-6.38-5.12-13.9-7.81-21.45-10.6-8.95-3.27-18.15-2.82-27.16-2a73.89,73.89,0,0,0-21.73,5.45c-6.06,2.56-11.53,6.83-16.79,11-10.57,8.3-17.29,19-18.12,32.75a15.54,15.54,0,0,1-.44,3.11c-1.49,5.26-2.59,10.37.08,15.74a8.34,8.34,0,0,1-.32,6.36c-1.28,2.68-3.72,2.55-6.08.74-.52-.39-1.49-.2-2.26-.21-8.36-.13-16.3,1.2-23.48,6-4.06,2.73-9,4.25-12.74,7.34A185.34,185.34,0,0,0,280.16,164a53.36,53.36,0,0,0-10.67,23c-2.11,9.71-1.45,20.11-1.18,30.19.18,7.67,2.92,15,7,21.45,2.1,3.35,5.48,5.86,7.86,9.06a10.05,10.05,0,0,1,2,6c-.05,1-2.62,2-4.15,2.7-1.31.66-3,.75-4.13,1.58-4.28,3.15-8.09,7.08-12.68,9.61-6.63,3.68-8.63,10.51-12.36,16.11-2.44,3.68-3.9,8-5.59,12.17s-3.71,8.18-4.1,12.4a233.89,233.89,0,0,0-1,28.87c.25,7.6.85,15.49,3.16,22.66,3.28,10.19,10.94,17.46,20.63,22,3.9,1.82,4.11,4.8,2.4,6.88-4.61,5.63-4.75,12.68-5.35,18.88a105.76,105.76,0,0,0,1.46,31.21c2.11,10.22,7.08,19.85,10.73,29.76,2.69,7.34,9.06,11.79,13.76,17.55,4.87,5.94,10.48,10.91,19,10.73,9.25-.22,18.64,1.46,27.55-2.61a40.77,40.77,0,0,1,7.6-2.66c4.87-1.15,11.62,2.45,14.29,6.53,3.9,6,7.85,12,12.59,17.23s10.2,9.56,15.54,14.07q9.42,7.95,19.24,15.45c1.7,1.31,4.19,1.58,6,2.81,6.75,4.69,14.46,6.36,22.37,7.09a17,17,0,0,0,7.88-1.55c3.53-1.49,6.6-4.22,10.2-5.42,9.51-3.14,16.82-9.57,24.7-15.23,2.19-1.58,2.16-2.93.5-4.26-2.74-2.17-5.85-3.9-8.68-5.94-3.72-2.61-8.07-4.73-11-8.09a205.6,205.6,0,0,1-14.41-19.69c-5-7.48-9.75-15.17-14.36-22.9-1-1.74-.89-4.15-1.8-6-2.57-5.24-6.28-10.09-7.86-15.61-1.17-4-4.14-6.67-5.46-10.19-3.05-8.19-5.34-16.68-8-25-1-3.19-1.82-5.8-6.11-2.79a11.73,11.73,0,0,1-7.85,1.52c-12.18-1.95-24-3.9-30.36-17.29-3.95-8.35-4.7-15.49,0-23.24,1.53-2.49,3.75-4.74,4.59-7.43,2.1-6.7,6.57-9.13,13.16-8.69l2.93-1.51,3.63-.18,7.5,1.28c.84-6.92,1.49-13.92,2.57-20.86,1.46-9.28,2.57-18.72,5.07-27.74a74.91,74.91,0,0,1,19-32.85c3.67-3.74,7.27-7.55,10.91-11.34ZM416.26,403.82c.42.38,2.09,1.15,2.46,2.32,1.85,5.93,3.11,12.05,5,17.94,3.12,9.48,6.15,19,10.08,28.2,4.09,9.55,7.8,19.33,14,27.91,5.91,8.22,11.58,16.58,18.71,23.88a78.08,78.08,0,0,0,19.7,14.53c6.35,3.35,12.92,7.52,19.78,8.42,18.23,2.39,36.68,2.87,54.05-5,4-1.8,7.59-4.77,10.91-7.72a111.55,111.55,0,0,0,9.29-10c4.88-5.48,9.75-10.87,14.31-16.58,4-5,7.5-10.34,11.06-15.6,2.27-3.38,4.31-6.91,6.33-10.45s3.75-6.92,5.95-11a6.64,6.64,0,0,1,.23-2.13c1-2.82,2.16-5.56,3.1-8.39q5.29-15.75,10.48-31.53c1-3.1,2-6.2,2.92-9.35,2.6-9.31,5.49-18.58,7.56-28a163.94,163.94,0,0,0,3-22c1.23-15,2.37-30-1.76-44.79-2.07-7.46-4.16-15.05-10.39-19.92-3.65-2.86-8.77-5.38-13.23-5.32-6.83.09-13.74,2.18-20.48,4.07-5.68,1.6-11,4.29-16.64,6.18-3.32,1.12-6.83,1.67-11.14,2.68-1.49,4-7.32,4.23-11.21,4.52-15.55,1.1-31.35,1.79-45.08-8.08-2.93-2.12-6.15-3.9-8.91-6.19-7.63-6.38-15.45-12.59-22.43-19.61-3.61-3.61-7.1-4.72-11.71-3.84a77.61,77.61,0,0,0-31.15,13.15,42.72,42.72,0,0,0-9.47,9,131.9,131.9,0,0,0-11.32,18.2c-3.38,6.69-6.94,13.65-8.4,20.86A175.76,175.76,0,0,0,409,350.91a122.82,122.82,0,0,0,2.09,23c1.16,7,3.59,13.73,5.07,20.68C416.76,397.34,416.26,400.32,416.26,403.82Zm255.27-26.33a53,53,0,0,1-4.55,4.06c-2.66,1.79-5.74,3.06-8.08,5.16-1.76,1.58-2.88,4.27.33,5.93,3.4,1.76,6.67,4,11,3,4.66-1.13,9.76-1.16,14-3,3.76-1.67,8.19-4.61,9.64-8.12,3-7.32-5.76-19.23-13.8-19.79a122.7,122.7,0,0,0-15.1-.15c-8.13.4-10.73,4.07-9,13.07,4.57-4.5,9.18-1.69,15.57-.11ZM399.17,400c1.07-4.43-.52-7.13-4.55-8.56a75,75,0,0,1-7.41-2.93c-3.5-1.68-6.83-3.59-10.55-5.53,6.25-9.25,13-.13,19.74-1.77-.81-4.78-1.32-9.59-2.61-14.17-.35-1.27-3.18-2.93-4.53-2.64-3.23.66-6.82,1.66-9.26,3.75-5,4.36-7.4,10.39-7.6,17.09-.23,8.3,4.62,16.7,12.1,16C389.29,400.79,394.09,400.39,399.17,400Z"/><path class="cls-5" d="M531.19,9.29c-.71.6-1.4,1.7-2.13,1.72-6,.23-12.06.16-18.09.23v-2Z"/><path class="cls-5" d="M285.47,1007c.59-.59,1.2-1.7,1.76-1.67,8,.45,12.59-5.42,18.66-8.94C317,990,324.73,979.85,335.1,972.83a34.68,34.68,0,0,0,3.81-3.46c5.11-1,10.6-1.17,15.21-3.27,4.1-1.86,6.46-1.33,9,1.71.15.17.55.15.81.22l2.5-3.06c1.22,1,2.11,2.28,3.12,2.38a119.25,119.25,0,0,0,14.63.82c4.79-.12,9.56-1.12,14.36-1.38,3.06-.16,6.16.54,9.24.49,9.6-.12,19.2-.54,28.81-.64,9.34-.1,18.68.3,28,0,7-.22,14-1.34,21-1.68,7.3-.35,14.63-.36,21.93-.3,10.82.09,21.52-2.8,32.38-1a5.24,5.24,0,0,0,1.37,0c5.09-.49,10.16-1,15.23-1.49,8.91-.81,17.85-.1,26.82-1.85,9.75-2,19.8-2,29.71-2.93,8.86-.84,17.71-1.85,26.58-2.72,10.06-1,20.14-2,30.23-2.85,5.23,1,5.85,6.48,9,9.43,3.59,3.31,6.93,6.9,10.37,10.36,3.71,3.72,7.48,7.37,11.11,11.16,3.79,4,7.45,8.09,11.17,12.14-8.63,1.87-17.23,3.81-25.87,5.62-9.8,2.06-19.63,4-29.45,6l-1.35.25c-8.88,1.51-17.7,3.41-26.64,4.43-8.34,1-16.81.7-25.18,1.5-6.35.61-12.59,2.27-18.93,3-6.55.74-13.17,1.13-19.75,1.27-10.26.23-20.53-.12-30.77.22-8.14.26-16.24,1.62-24.38,1.73-17.8.28-35.61,0-53.41.09-14.8.1-29.59.68-44.4.65-13.55,0-27.12-.19-40.64-1.1-7.73-.51-15.34-2.82-23.05-4-7.92-1.19-15.91-1.83-23.84-2.92-9.94-1.4-19.84-3.08-29.79-4.48A81.49,81.49,0,0,0,285.47,1007Z"/><path class="cls-1" d="M595.65,42.51c-3.53,2.55-8.65,2.4-11.14,6.94-.53,1-3.06.9-4.94,1.39-1.17-4.08-2.29-8-3.43-12C582.6,40.34,589.79,37.89,595.65,42.51Z"/><path class="cls-1" d="M463.06,37.84c-1.91,3.74-3.78,7.54-5.73,11.19l-6.83-8.36Z"/><path class="cls-1" d="M230.49,978.28l1.42,1.3Z"/><path class="cls-5" d="M687,295.22c-2,9.84-3.45,19.79-6,29.48-1.44,5.54-5,10.5-6.83,16-1.32,3.9-1.43,8.26-2.07,12.42H658.63c.51-3.9,1.11-7.48,1.44-11.09.62-6.93,1.28-13.85,1.53-20.79.08-2.27-1.11-4.57-1.62-6.88-2.24-10.05-4.81-20-9.81-29.08-1.23-2.25-3.24-4.06-4.88-6.07q-1.11-5.24-2.23-10.45c-1-4.87-15.07-23.79-18.53-27.54a90.12,90.12,0,0,0-21.64-17.12c-9.48-5.36-18.93-10.9-29.83-13-6.51-1.24-13.11-2-19.64-3.12-2.11-.36-4.14-1.64-6.19-1.62-3.2,0-6.4,1.27-9.58,1.17-4.25-.13-8.17-1.11-12.75,0-8.73,2.18-17.88,2.68-26.82,4a32.82,32.82,0,0,0-6.33,2c-2.08.77-4.07,1.79-6.14,2.56-5.27,2-11,3-15.74,5.79-5.46,3.2-10.06,7.8-15,11.84l-9.49,7.65c-2.71,3.59-5.3,6.93-7.8,10.35-2.27,3.13-4.43,6.36-6.63,9.55v-.05L429,263.61c-3.64,3.79-7.24,7.6-10.92,11.35a75,75,0,0,0-19,32.84c-2.49,9-3.6,18.46-5.06,27.74-1.08,6.94-1.73,13.94-2.57,20.86l-7.5-1.28a61.25,61.25,0,0,1-4.11-7.35c-3.3-8.3-7-16.5-9.32-25.08a84.22,84.22,0,0,1-1.85-33.56c1.37-9.57,4.25-19,7.27-28.24,1.82-5.55,5.12-10.64,7.92-15.85,3.3-6.13,6.3-12.5,10.29-18.16A249.07,249.07,0,0,1,412,204.62c3.08-3.45,7.8-5.4,11.09-8.7,7.11-7.16,15.65-12.2,24.3-17A139.45,139.45,0,0,1,469,168.62a190.57,190.57,0,0,1,29-7.8c9.2-1.68,18.69-1.73,28-2.62,3.1-.29,6.2-1.53,9.24-1.32,4.4.31,8.77,1.52,13.09,2.39.55.11,1.09.8,1.55.73,10.52-1.9,20.12,1.67,29.81,4.87,2.85,1,5.85,1.26,8.78,2.18A170.27,170.27,0,0,1,605,172.79a203.36,203.36,0,0,1,20.75,10.32c6.82,4,13.65,8.14,19.6,13.26a178.59,178.59,0,0,1,19.92,20.22c4.26,5,7.6,11,10.67,16.89,2.52,4.87,4.14,10.23,6,15.45a58.58,58.58,0,0,1,2,8.19c.11.57-.6,1.29-.83,1.74,4.32,2,2.92,6.07,3.23,9.52.13,1.67.35,3.32.51,5Z"/><path class="cls-5" d="M707.09,628.38c-2.47,7.67-5.06,15.28-7.33,23-1.23,4.15-1.75,8.51-2.88,12.68-4.88,18.21-4.77,36.83-4.88,55.47-.09,12.52-.5,25-1,37.53-.11,2.75-1.11,5.47-1.68,8.21-2.35-2.24-5.33-4.09-6.93-6.76a135.75,135.75,0,0,1-9-17.89,67.11,67.11,0,0,1-4.15-14.91c-1.18-7.37-.22-14.8.92-22.14.52-3.37,1.42-6.66,2.15-10L671,693.3c.88-.82,2.34-1.52,2.55-2.49,1.13-5.18,2.51-10.41,2.62-15.6.06-2.81-2.3-5.65-3.51-8.51a16.86,16.86,0,0,1-.68-2.53c1.86-6.21,3.26-12.61,5.72-18.53,1.95-4.81,5.28-9.12,8.57-14.63-7.08,1.42-12.68,0-17.46-4.26-.27-.24-.89-.08-1.34-.14-4.13-.66-8.26-1.47-12.41-1.91-1.66-.17-3.41.43-5.1.69-3.27-1.27-6.47-2.82-9.83-3.76-7.31-2-14.73-3.73-22.09-5.67-12-3.15-23.93-6.4-35.91-9.53-2.16-.57-4.59-.35-6.6-1.18-5-2.08-14-.34-17.14,4.07-2.85,4-5.22,8.31-7.8,12.49-6.51-.36-13-.65-19.51-1.13-5.46-.39-10.89-1.14-16.35-1.48-7.31-.46-14.63-.53-21.94-1-6.92-.46-13.81-1.61-20.73-1.79-10.54-.26-21.09.22-31.62.1-7.8-.1-15.61-.75-23.41-.9-2.18,0-4.58,1.75-6-1.37-3.31,4.24-7.8,1.68-11.75,1.84-8.95.35-17.94.11-27,.11a19.55,19.55,0,0,0,0,3.58c1.3,4.11,3.31,8.1,4,12.31,1.41,8.77,2.34,17.67,3.05,26.54.24,3.13,1.21,4.48,4.27,4.46a31.1,31.1,0,0,1,3.18.31,27.29,27.29,0,0,1-2.11,4.83Q372.49,686.16,360,704.11c-1.46,2.1-3.15,4-4.73,6-.74-.77-2-1.48-2.13-2.33-.83-7.8-2.64-15.68-1.74-23.28.68-5.85-2.23-10.36-2.37-15.61-.15-5.65-.52-11.3-1-16.93-.83-9.75-1.73-19.5-2.78-29.26-.34-3.09-1.25-6.11-1.9-9.17,7.06-3.91,14-8.07,21.21-11.56,8.17-3.9,16.58-7.43,25-10.8,8.18-3.26,16.65-5.8,24.75-9.25,9-3.84,17.84-8.26,26.64-12.61,2.77-1.36,5.17-3.47,7.9-4.94a3.61,3.61,0,0,1,3.18.37,32.68,32.68,0,0,0,17.43,6.66c3.1.25,5.95,2.77,9.08,3.41a174.79,174.79,0,0,0,46.65,3.26c6.44-.43,13,.72,19.09-2.14,3.57,3.28,7-.7,10.59-.16,6,.9,10.92-2.32,16.21-4.16a76,76,0,0,0,8.38-3.25c4.28-2.09,8.42-4.47,12.32-6.57,9.2,6.45,18.4,13,27.69,19.34,2.29,1.58,5,2.61,7.32,4.07,3.1,2,6,4.13,9.14,6,3.83,2.28,7.87,4.23,11.7,6.53,2.68,1.6,5,3.9,7.75,5.27,7.73,3.9,15.68,7.32,23.4,11.15,6.83,3.35,13.41,7,20.15,10.49C701.65,626,704.39,627.16,707.09,628.38Z"/><path class="cls-5" d="M597.49,870.94q5.78,6.31,11.56,12.68c5.32,5.85,10.56,11.82,15.93,17.64s10.82,11.5,16.2,17.29a11.87,11.87,0,0,1,1.33,2.22,14.57,14.57,0,0,1-2.53.79c-5.38.66-10.73,1.25-16.15,1.88-4.47.52-9,1.68-13.38,1.42a60.88,60.88,0,0,0-9.06.38c-8.12.71-16.27.87-24.39,1.47-8.59.63-17.16,1.56-25.76,2.27-3.83.32-7.7.21-11.5.66-6.53.8-13,2.29-19.51,2.77-10.42.78-20.88.88-31.32,1.46-5.53.3-11.05,1-16.58,1.54-.61.06-1.23,0-1.83.08-4.52.48-9,1.18-13.55,1.4-1.82.09-3.72-1.28-5.56-1.2-3.24.13-6.48,1.41-9.67,1.25-18.39-.92-36.88,2.36-55.18-1.49-.39-.09-.85.18-1.28.28-2.14.47-4.27,1-6.4,1.38-6.28,1.2-12.56-2.16-18.85,0l11.32-21.28c4.22-7.91,8.56-15.76,12.63-23.73,3.21-6.29,6.08-12.74,9.12-19.1.09-.18.56-.17.86-.25.77.5,1.59,1.48,2.32,1.42,2.48-.21,5-1.23,7.41-1.12,6.53.3,13,1,19.56,1.58,2.86.25,5.95,1.38,8.5.63,3.21-1,4.65-.1,5.54,2.93,2.6-4.21,6.7-3.11,9.68-3,10.51.3,21,1.58,31.5,2.22,5.43.33,10.9.11,16.36.1q20.67,0,41.35-.16c2.92,0,6,.56,8.66-.33,4.5-1.52,8.57-2.1,13.06,0,1.59.75,4.66.81,5.7-.2,3.36-3.27,7.61-2.21,11.33-2.82,6.28-1,12.76-.76,19.15-1.23C595.23,872.61,596.34,871.55,597.49,870.94Z"/><path class="cls-6" d="M550.59,621.79c2.59-4.18,5-8.5,7.8-12.49,3.15-4.41,12.13-6.15,17.14-4.07,2,.84,4.44.61,6.6,1.18,12,3.13,23.94,6.38,35.91,9.54,7.36,1.95,14.78,3.61,22.09,5.66,3.36,1,6.56,2.49,9.83,3.76.56,5.72,5.85,10.43,1.46,17.42-3.26,5.19-3.45,12.32-5,18.59a19.16,19.16,0,0,1-2.27,3.69c-5.45,5.66-11.7,10.73-16.32,16.94-3.74,5-5.86,11.27-8.27,17.14-2.23,5.38-3.54,11.16-6,16.41a8.22,8.22,0,0,1-8.18,4.74c-6-.19-10.84-2.55-15.3-6.38-5.46-4.69-11.09-9.19-16.75-13.65-3.67-2.93-7.86-5.14-11.25-8.29a23.63,23.63,0,0,0-14.54-6.47c-3.28-.25-4.58-1.83-5.43-4.26-1.34-3.9-2.38-7.85-3.55-11.78l4.5-11.83q2.84-13.59,5.68-27.19C549.31,627.55,550,624.71,550.59,621.79Z"/><path class="cls-5" d="M554.35,827.47c-7.36,3.83-15.48,1.95-23.2,3.12-6.93,1.06-13.83,2.51-20.8,3.32-6.06.7-12.2.65-18.29,1.14-4.18.33-8.32,1.22-12.5,1.4-1.12,0-2.33-1.57-3.34-2.3-1.69.73-4,2.44-6.38,2.65q-16.38,1.43-32.82,2.11c-8.84.38-17.7.3-26.54.43,1.78-4.1,3.48-8.22,5.36-12.27,2.55-5.45,5-11,7.91-16.22,5-9,10.43-17.72,15.61-26.6,3-5.15,5.85-10.44,8.94-15.54.86-1.41,2.44-2.37,3.69-3.54.76.56,1.48,1.55,2.29,1.62,2.92.25,5.8.07,8.69.27,4.32.3,8.63.79,14.38,1.33,2.44-1.76,14.63-2.16,18.81.33.78.46,2,1,2.67.66,5.4-2.67,11-2.25,16.69-1.46l11.15,4.74c-5.15,9.82.52,17.84,5.27,25.25,5.32,8.3,12.29,15.52,18.44,23.3C551.94,823.13,555.55,823.8,554.35,827.47Z"/><path class="cls-6" d="M515.53,767.92c.74-5.59,1.41-11.2,2.28-16.77.26-1.7,1.24-3.29,1.56-5,1.06-5.55,2-11.13,2.93-16.69.47-.3,1.27-.53,1.34-.91,1.46-7.07,2.81-14.16,4.2-21.25l12.93-7.12c1.76,3.62,3.7,7.61,6.14,12.68-4.57-.42-7.68-.91-10.8-1-6.22,0-8.73,4.87-7.4,10.91,1.26,5.7,4.39,10,7.4,14.52a1.91,1.91,0,0,1-2.49,2.84c-3.83-2.93-7-1.25-9.43,1.66-3.18,3.76-4.88,8.31-1.64,12.81,4.32,6.07,9.11,11.81,13.66,17.7a1,1,0,0,1,.08.76l-9.65-.43Z"/><path class="cls-5" d="M527.87,707.31c-1.39,7.09-2.74,14.18-4.2,21.25-.08.38-.88.61-1.34.91-1.13-.92-2.23-2.55-3.4-2.61-5.33-.26-10.73-.07-16,0,.44-2.49.85-5,1.34-7.47.27-1.28.87-2.5,1.05-3.79.8-5.85,1.51-11.7,2.35-18.44,2.92,2.29,5.24,4.68,8,6.08,2.57,1.29,5.71,1.42,8.54,2.25A21.9,21.9,0,0,1,527.87,707.31Z"/><path class="cls-5" d="M529.36,659.45c4.6-.27,9.48,1.54,13.65-1.81l-4.5,11.83Z"/><path class="cls-5" d="M445.23,714.86v-9.2l1.52-.46q1.72,4.71,3.46,9.42Z"/><path class="cls-5" d="M469.54,551.87l1.95,2.85V559l-3.9-1a37.37,37.37,0,0,1-.16-5.29C467.42,552.41,468.79,552.17,469.54,551.87Z"/><path class="cls-1" d="M242.26,425l2.23,2.92-2,.73c-.06-1.24-.13-2.48-.19-3.72Z"/><path class="cls-5" d="M377.45,356.82l2.93-1.51Z"/><path class="cls-5" d="M472.2,554.82l2.11,1.47Z"/><path class="cls-1" d="M687,295.22l-.12-21.93c.85.76,2.4,1.49,2.43,2.28q.3,8.63,0,17.25C689.27,293.64,687.79,294.42,687,295.22Z"/><path class="cls-4" d="M510.84,417.77c-1,1.46-1.66,2.24-2.16,3.1-1.06,1.82-3.26,4.06-2.82,5.44.89,2.74,2.29,5.85,6.63,5.43,5.62-.57,11.6.45,16.89-1.08,3.18-.92,7-1.26,10.22-4.54,2.44-2.48,4-5.32,6.34-7.69l-3.74-5.34c-4.8,3.54-9.1-.63-13.65-1.2-.77-.09-1.75-2.71-1.74-4.14.18-18.95.24-37.89,1-56.8.23-6.22,1.51-12.4,1.26-18.7,0-1.24,1.62-2.55,2.5-3.82.86,1.17,2.35,2.28,2.45,3.52.55,6.47.64,13,1.09,19.45.19,2.65,1.23,5.27,1.2,7.89,0,3.53-1.33,7.09-1.07,10.55.68,9.14,2,18.22,2.86,27.31.27,3.1-.26,6.27-.43,9.67,4.46,1.87,9.55,3.75,14.41,6.11,3.6,1.75,4.42,11,1.31,13.56-11.7,9.56-24.93,14.89-40.24,11.59-5.5-1.18-12.2-1.19-15.48-7a13.48,13.48,0,0,1-1.41-9.19,10.47,10.47,0,0,1,5.78-6.48C504.15,414.72,507.26,416.73,510.84,417.77Z"/><path class="cls-4" d="M449.46,389.8c-3.9,9.09-4.61,9.57-10.41,7.8.4-3.43.88-6.77,1.11-10.13a5,5,0,0,0-1.07-2.76c-1.82-2.74-3.9-5.32-5.62-8.14-4.23-7.07-1.73-12.95,5.75-14.84a44,44,0,0,1,4.66,3.62c2.93,2.92,5.3,6.44,8.49,8.94,5.37,4.22,11.64,3.66,17.73,1.64,1-.33,1.73-2.21,2.18-3.52,1.7-5,4.82-8.34,10.06-9.59,4.1-1,10.3,1.36,10.73,5.06.32,2.93-1.4,6.36-2.83,9.25-1.59,3.21-4,6-5.79,9.13a5.72,5.72,0,0,0-.15,3.47c.73,4.22,1.61,8.42,2.45,12.68-6.13.54-8.59-.91-10.48-6.59-1.16-3.49-3.74-3-6.21-3.09-2.74-.09-2.93,1.89-3.14,4a21.23,21.23,0,0,1-1.21,4.2c-.44,1.4-.89,2.82-1.38,4.34-4,.72-6.82.49-6.82-4.88a13.72,13.72,0,0,0-2.26-7.48C454.08,391.4,451.48,390.84,449.46,389.8Z"/><path class="cls-4" d="M618.84,364.92c5.58.47,5.77,1.66,4.21,6.83-1.7,5.61-4.69,10-8.4,14.37-.86,1-.16,3.65.3,5.43a20.74,20.74,0,0,0,2.38,5.61c2.24,3.63-.32,4.41-2.65,3.69-2.64-.83-5-2.81-7.24-4.6a76.17,76.17,0,0,1-5.94-6c-4.06,6.31-.88,14.32-7.13,19.2-5.22-3.73-4.87-9.63-6.36-14.77-5.55-2-8,1.36-9.9,5.85-1.05,2.49-2.4,5-6.72,3.33a69.4,69.4,0,0,1,1.8-8.85c1.41-4.27-1-6.43-3.59-9.15-2.38-2.54-4.74-5.75-5.37-9-.42-2.12,1.66-5.86,3.69-7.05,3.23-1.85,7.18-2,10.31,1.54s5.85,7.47,9.75,9.36c2.57,1.26,7-.26,10.18-1.48,6.08-2.32,9-7.75,11.27-13.46a8.16,8.16,0,0,1,1-1.49c1.15.09,2.92-.25,3.34.35C615.54,367.23,617.15,365.61,618.84,364.92Z"/><path class="cls-4" d="M479.36,345c-8.69,0-17.4.26-26.07-.11-3.81-.17-7.62-1.41-11.31-2.55-4.17-1.28-5.1-4.88-2.38-8.3s5-7.35,8.34-9.86a30.27,30.27,0,0,1,11.85-5,33.19,33.19,0,0,1,12.68-.11,98.69,98.69,0,0,1,16.46,5c3.5,1.35,8.05,13.54,6,16.44-1.47,2-4.4,3.39-6.94,4.18-2.7.84-5.7.62-8.57.87Z"/><path class="cls-4" d="M605,346c-.89.46-1.82,1.35-2.7,1.31-11.81-.5-23.62-1-35.4-1.87-1.75-.13-3.36-2.13-5.29-3.45,4-5.78,4.28-14.19,13.29-16.74-.38-6,6.15-4.95,9.34-5.42,9.88-1.45,19.65-.17,27.63,7.05,4.63,4.19,8,12.92,6.69,18.53l-8.31.57c-.59-5.33-4.7-1.71-7.25-2.53Z"/><path class="cls-4" d="M492.19,472.56c-1.25-4-.84-5.85,1.87-7.4,1.85-1.07,2.69-4.05,4.56-4.87,11-4.69,22.43-6.13,34-2.47,5.15,1.63,9.87,4.71,15.05,6.1,6.2,1.67,12.68,2.16,18.53-1.84a80.78,80.78,0,0,0,8.08-5.91c3.53-3.15,2.79-5.71-1.55-7.46-1-.4-1.45-2.08-2.17-3.16l1.26-1.13c4.32,2.34,8.78,4.47,12.92,7.09,6.45,4.08,7,5.85,4.7,14.38-1.82-1.23-3.76-1.95-4.88-3.4-1.77-2.35-3.11-2.18-5-.31-5.06,4.92-11.71,6-18.2,7.8-13.18,3.56-26.55,2.2-39.85,2.49C511.76,472.76,502,472.56,492.19,472.56Z"/><path class="cls-4" d="M522.82,498.55c-6.82.72-14-2.2-20.27-7.25-1.24-1-1.47-3.25-2.15-4.88,2-.34,4.57-1.65,5.85-.86,8.07,4.87,16.32,5.14,25,2.26a67.87,67.87,0,0,1,10.4-2.78c1.61-.26,3.43.75,5.16,1.18-.53,1.75-.53,4.07-1.68,5.17C539.36,496.89,532.17,499,522.82,498.55Z"/><path class="cls-5" d="M618.84,364.92c-1.69.69-3.3,2.32-5.05-.23-.41-.59-2.19-.25-3.34-.34C613.21,361.23,616.8,361.48,618.84,364.92Z"/><path class="cls-5" d="M605,346l-2-2.56c2.55.82,6.66-2.8,7.25,2.53Z"/></g></g><g id="Camada_5" data-name="Camada 5"><path class="cls-3" d="M697.36,501.3H665.19l1.32,32.33L692.77,561l38.29,1.53,26.05-41.36s1.53-21.44-3.07-23-36.76-4.59-36.76-4.59Z"/></g><g id="Camada_4" data-name="Camada 4"><path class="cls-7" d="M744.94,573.51c-5.34.47-10.65,1.08-16,1.38-8.61.48-17.31.73-26,1.17a6.15,6.15,0,0,0-3.63,1.05c-3.46,3.27-6.7,6.75-10,10.22-3.59,3.83-7.08,7.76-10.63,11.62-3.7,4-7.58,7.91-11.13,12.06-3.83,4.5-6.29,5.54-11.49,3.51-2.13-.84-3.75-1.92-2.68-5.3,1.18-3.83.78-8.12.9-12.22.11-4.44,0-8.88,0-13.32,0-6-3.26-8.18-9.25-7.4-3.76.49-7.77-.17-11.49-.95-1.31-.28-2.54-2.33-3.23-3.83-3.09-6.81-3.47-14-3.06-21.39.16-2.88,0-5.75,0-8.55l-1.47-10.17c.44-1,1.22-1.83,1.28-2.79.46-6.39.64-12.79,1.18-19.15.39-4.61,1.23-9.17,1.86-13.76,1.36-4.79,2.72-9.62,4-14.18,4.54.56,7.91,1.37,11.27,1.3,8.88-.19,17.74-.77,26.61-1.19,1.82-.09,3.64-.14,5.46-.21l2.58.69L694,480.42c7.66-.16,15.23-.44,22.84-.42,2.75,0,5.51,1.14,8.24,1,9.67-.34,19.32-1,29-1.52q6.87-.37,13.72-.67a4,4,0,0,1,1.7.35c3.17,1.39,6.33,2.83,9.4,4.2.44,4.78.8,10,1.42,15.2s1.8,10.12,2.11,15.22c.45,7.66.36,15.32.5,23q-.9,5.81-1.82,11.62a86.5,86.5,0,0,1-1.2,9.88c-.95,4.1-2.44,8.08-3.69,12.11h0C765.92,572.27,755.54,574,744.94,573.51Zm-42.52-56.69c-2.08-5.1-5.95-8.16-12.84-10.35-2-.65-4.52-1.91-6.18-1.31-5.75,2.16-9.73,10.86-6.13,16.34,4.94,7.51,10.53,14.62,15.84,21.89,3.5,4.79,8.78,6.55,14.16,7.81,1.42.33,3.56-.7,4.85-1.75,6.56-5.31,9.82-13.09,14.29-20,2.44-3.75,4-8.09,5.89-12.19,1.37-3-1.68-9.79-4.63-10.63q-4.17-1.15-8.27-2.59c-3.27-1.13-10,.69-9.89,3.41.22,5.46-4.41,6.07-7.07,9.32Z"/></g></svg>
