<svg height="400" viewBox="0 0 1064.93 1050.34" width="480" xmlns="http://www.w3.org/2000/svg"><path d="m787.87 947.6c.21-2.59-.93-2.75-3.06-1.93-5.18 2-10.43 3.82-14.73 5.38-1 1.64-1.7 2.89-2.53 4a9.67 9.67 0 0 1 -2.42 2.66 7.43 7.43 0 0 1 -3.81 1.29c-2.89-.06-4.9.17-3.09 2.93-5 .59-10.19.86-15.2 1.86a143.22 143.22 0 0 0 -14.72 4.21c-2.71.86-5.22 2.38-7.95 3-3.62.87-7.37 1.15-11.05 1.77-7.92 1.32-15.8 3.17-23.77 3.91-9.54.88-19.15.86-28.74 1.17q-10.31.32-20.62.48c-5.85.1-11.7 0-17.55.19-4.47.12-8.94.57-13.41.68-2.21 0-4.44-.53-6.65-.46-11.68.4-23.36.92-35 1.4l-2.78 1-5.52-.77c-2.38-.26-4.76-.54-7.15-.72a9.41 9.41 0 0 0 -.38 1.59l-3 .12-5.49.77-10.25.87c-3.32.34-6.66.55-10 1-9.44 1.38-18.83 3.13-28.3 4.2-3 .33-6.15-1-9.75-1.7-3.12 5.2-9.31 3.73-14.56 4.6-9.11 1.5-18.29 2.65-27.48 3.58-6.07.62-12.2.78-18.31.82-8.1.06-16.22 0-24.31-.37-15.23-.74-30.64.81-45.63-3.52-1.79-.51-4.07 1-6.12 1-9.37-.14-18.75-.5-28.12-.75-2.42-.07-4.94.44-7.25-.06-6.48-1.4-12.89-3.2-19.33-4.82-5.83-1.47-11.72-2.76-17.5-4.42a81.66 81.66 0 0 1 -11.12-4.15c-12-5.49-24-10.8-34.74-18.71-7.56-5.56-16.62-9.05-24.31-14.46-12.4-8.73-24.58-17.85-36.21-27.58s-22.62-20.15-33.53-30.66c-7.9-7.63-15.42-15.7-22.65-24-9.35-10.73-18.63-21.55-27.2-32.89a386.71 386.71 0 0 1 -24.25-35.41c-8.43-14.22-15.53-29.26-20-45.29-3.26-11.74-6.33-23.55-8.85-35.41-2.12-10-3.21-20.3-4.93-30.44-1-5.7-2.53-11.31-3.32-17-.45-3.3.17-6.74.22-10.11.34-24 2.3-47.83 7.44-71.24 4-18.23 9-36.26 14-54.24 2.91-10.37 7.13-20.37 10.12-30.73 1.91-6.61 2.65-13.55 3.91-20.35 1-5.4 2.68-10.79 2.82-16.22.3-11.1-.33-22.22-.4-33.33 0-8 .13-16.07.36-24.1.2-7.28.64-14.55.92-21.82.36-9.19.14-18.44 1.14-27.56a222.29 222.29 0 0 1 4.88-26.37c1.87-8 4.21-16 6.79-23.83 2.71-8.2 5.58-16.39 9-24.3 5.57-12.69 11.18-25.31 17.57-37.47 5.72-10.81 12.41-21.14 19.06-31.43 7.76-12 15.52-24.05 24.08-35.49 4.93-6.58 11.24-12.18 17.27-17.86 7.11-6.69 14.85-12.7 21.84-19.5 9.62-9.34 20.65-16.6 32.1-23.36 5.47-3.23 11.39-5.83 16.46-9.59 13.6-10.06 28.52-18 42.77-26.94 8.1-5.11 16.63-9.59 25.15-14 7.76-4 16-7.15 23.61-11.34 3.41-1.87 6.61-4 10.32-5.37 1.39-.51 2.46-1.9 3.78-2.15 4-1.4 8.07-2.91 12.17-4.16 4.94-1.5 10-2.7 14.92-4.18 3-.9 5.9-2 8.81-3.15 17-6.56 35.09-8.34 52.85-11.38 13.26-2.27 26.69-3.69 40.1-4.85 12.74-1.11 25.54-1.51 38.33-2 11.95-.46 23.94-1.2 35.88-.76 12.35.46 24.66 2.16 37 3.36 9.86 1 19.72 2 29.58 3 24.84 2.41 49.48 5.77 73.57 12.66 28.47 8.16 57.22 15.41 85.51 24.16a281 281 0 0 1 43 17.68c7.87 4 14.3 10.85 21.17 16.67a101.75 101.75 0 0 1 9.47 9.56c2.55 2.82 4.88 5.85 7.18 8.87 6 7.88 12.44 15.49 17.77 23.8 8 12.45 15.23 25.37 22.6 38.19 1.26 2.19 1.6 4.91 2.39 7.37q4.4 13.63 8.79 27.25 3.76 11.79 7.47 23.62c2.2 7 4.74 13.93 6.48 21 2.15 8.8 3.44 17.81 5.48 26.64 1.39 6 3.6 11.8 5.16 17.77 2.05 7.88 3.81 15.84 5.7 23.77.58 2.45 1 4.95 1.81 7.34 2.31 6.95 4.51 14 7.26 20.73 2.09 5.15 1.14 11.66 6.76 15.35.62.41.08 2.32.51 3.36 2.26 5.52 4.34 11.14 7.09 16.42a129.1 129.1 0 0 0 10.32 17.13c5.89 8 12.43 15.49 18.71 23.19 5.25 6.44 10.57 12.83 15.79 19.3s10.44 12.9 15.46 19.5c1.26 1.65 1.61 4 2.64 5.81 2.91 5.18 6.35 10.1 8.83 15.47 2.83 6.12 4.77 12.64 7.29 18.91.37.92 1.81 1.42 2.11 1.64.72 4 1.27 7.92 2.15 11.77 2.19 9.59 4.68 19.12 6.74 28.74.76 3.56.4 7.35 1 11s1.95 7.1.38 11.25c-1.14 3 .09 7 .38 10.46.72 8.62.7 17.07-1.3 25.69-2.71 11.73-4.06 23.78-6.35 35.62q-3.37 17.48-7.49 34.81c-2.14 9.1-4.64 18.12-7.18 27.11-2.27 8-4.81 16-7.23 23.95-2 6.6-3.6 13.37-6.12 19.78-4.77 12.13-8.29 24.76-15.22 36-3.87 6.31-6.39 13.44-9.82 20-1.32 2.55-3.53 4.62-5.2 7-6.18 8.76-11.9 17.87-18.56 26.24a220 220 0 0 1 -20.58 22.68c-8.25 7.83-17.23 14.9-26.08 22.09-6.78 5.5-13.66 10.92-20.81 15.92-10 7-20.25 13.54-30.43 20.22-3 2-6.22 3.07-9.1 5.81-3.43 3.24-9.61 3.54-14.56 5.25-1 .35-1.8 1.28-3.54 2.56a13.2 13.2 0 0 0 -11.09 3c-1.06.92-3.32.29-4.85.85-8 3-16 6-23.91 9.22-2.07.84-3.86 2.39-5.78 3.61z" fill="#fdccc7"/><path d="m529 983 10.26-.88z" fill="#fddfdc"/><path d="m547.7 981.26a9.41 9.41 0 0 1 .38-1.59c2.39.18 4.77.46 7.15.72-2.16 3.34-4.98.91-7.53.87z" fill="#fddfdc"/><path d="m560.75 981.16 2.78-1z" fill="#fddfdc"/><path d="m544.74 981.38 3-.12-1.18 1.65z" fill="#fddfdc"/><path d="m787.88 947.61-1 .71-.25-.37 1.27-.35z" fill="#fdccc7"/><path d="m777.93 443.42-48.4-167.22-22-117.34-23.47-45.47-42.54-30.81-45.47-44-49.87-2.94-102.68 24.94-58.67 61.61-23.47 68.94-61.61 107.08-49.87 79.2-41.07 60.14-44.01 111.45-1.46 107.08 26.4 55.74 30.8 41.07 35.21 24.93 8.8 63.08 7.33 77.74 19.12 68.97s135 14.67 140.81 10.27 33.74 22 33.74 22l38.14-19.07 16.13-5.87s234.69 4.4 302.17-73.34l1.46-46.94-5.86-123.21 36.67-66 10.26-27.86-23.52-79.22-33.74-67.48z" fill="#fff"/><path d="m276.63 972c-.06-6.81-.4-13.57-3.1-20-.58-1.41.06-3.28-.18-4.9-.73-4.92-1.69-9.82-2.41-14.75-.29-2 0-4.18-.34-6.24-1.42-9.62-3.12-19.21-4.38-28.85-.81-6.32-.77-12.75-1.6-19.06-.89-6.71-2.37-13.33-3.58-20a4.23 4.23 0 0 1 -.17-1.77c1.24-4.53-.37-9-.54-13.4-.53-13.84-1.46-27.67-2.45-41.48a150.58 150.58 0 0 0 -2.18-16.79 7 7 0 0 0 -3.23-4.13c-6.82-3.94-13.94-7.4-20.73-11.41-4.78-2.8-8.82-6.83-13.75-9.23-12.83-6.25-21.2-17.23-30.09-27.57-10.11-11.73-17.09-25.5-22.79-39.86-1.78-4.48-2.62-9.32-4.2-13.89-1-2.67-2.87-5-3.62-7.66a187.94 187.94 0 0 1 -4.73-20.57c-2-12.89-3.83-25.85-4.93-38.85-.47-5.52 1-11.2 1.55-16.81.32-3.17.47-6.38 1-9.57 1.1-7 2.87-13.91 3.49-20.94 1.18-13.22 6.7-25.06 10.94-37.34 2.25-6.47 3.83-13.17 6.41-19.5 5-12.45 10.43-24.7 15.74-37 3.83-8.89 7.31-18 11.81-26.55 4.2-8 9.74-15.27 14.3-23.08 3.77-6.42 6.75-13.28 10.54-19.71 2.47-4.25 5.74-8 8.48-12.13 6-9.19 11.72-18.63 18-27.67 6.49-9.39 13.53-18.4 20.24-27.62 6.09-8.36 12.21-16.69 18-25.24 2.58-3.83 4.38-8.13 6.57-12.19q6.57-12.1 13.19-24.18c4.16-7.66 8.51-15.12 12.45-22.84 2.54-5 4.3-10.38 6.83-15.4 3.17-6.29 6.89-12.3 10.11-18.57 2-3.83 4.1-7.81 5.09-12 1.19-5.05 3.6-9.26 6-13.76 3.19-6.06 4.64-13 7.25-19.42 2.41-5.91 5.38-11.61 8.1-17.4 2.64-5.61 5.07-11.32 8-16.8 2.61-5 5.94-9.57 8.62-14.5 6.52-12.21 13.1-24.5 22.41-34.74 8.33-9.18 17.77-17.37 27-25.72 5.52-5 11.49-9.49 17.32-14.2 2.57-1.23 5.11-2.57 7.75-3.65 2.08-.85 4.36-1.25 6.44-2.11a76.15 76.15 0 0 0 8.61-4.09 44.48 44.48 0 0 1 22.18-6.32c21.93-.19 28.49-4.95 50.45-5.09 11.4-.07 38.3 3.92 49.57 5 5.28.48 10.38 4 15.32 6.57 5.75 3 11.23 6.39 16.83 9.57 2.27 2.61 4.61 5.15 6.78 7.83 5.38 6.7 10.54 13.54 16.09 20 3.43 4 6.92 7.84 12 10.26 5.67 2.69 10.71 6.71 16 10.16 4.38 2.87 9.19 5.17 13 8.62 3.63 3.25 6.42 7.54 9.31 11.57a83.39 83.39 0 0 1 6.5 10.4c4.28 8.23 8.29 16.59 12.45 24.9 3.45 6.89 5.69 14 5.82 21.88.07 4.07 2.62 8 3.55 12.17 2.21 9.86 4.29 19.77 6.11 29.68q2.4 13 4.1 26.13c.61 4.67.43 9.46.88 14.17a97.75 97.75 0 0 0 1.76 11.14c1.55 7.3 3.34 14.55 5 21.84 2.34 10.45 4.49 20.95 7 31.36 2.64 11.12 5.3 22.25 8.48 33.22 3.66 12.62 7.92 25.07 11.85 37.61 2.13 6.76 4 13.59 6.2 20.33 2.32 7.2 4.7 14.36 7.37 21.47 3.31 8.79 7 17.43 10.46 26.16 3.65 9.17 7 18.45 11 27.5 4.29 9.86 9.16 19.46 13.58 29.27 1.85 4.11 3 8.51 4.78 12.68 2.36 5.67 5 11.22 7.42 16.89 3.6 8.53 7.22 17.06 10.53 25.69 4.59 11.74 9.5 23.41 13.21 35.42 3 9.65 4.74 19.72 6.36 29.69 1.41 8.75 2.81 17.7 2.48 26.5-.29 8-2.64 16-4.59 23.83a170.26 170.26 0 0 1 -6.65 21.04c-3.33 8.56-7.11 17-11.24 25.19-3.83 7.66-8.86 14.66-12.34 22.4-1.67 3.71-1.07 8.47-1.33 12.76-.25 3.92-.46 7.86-.4 11.79.08 5.32.44 10.64.67 16v11.66c0 11.74-.06 23.47-.21 35.2-.08 6.15-.56 12.3-.59 18.45 0 4.91.63 9.82.5 14.71-.13 4.45-1 8.87-1.38 13.31a11 11 0 0 0 .32 3.07c1.32 6.7 2.13 13.32-.18 20.1-.62 1.86.35 4.37.9 6.49 1.28 4.87-.95 7.91-6 7.75h-1.34c-2.42.15-5.08-.29-7.22.55-5.66 2.22-13.54-.19-16.59-5.41-.81-1.36-2.24-2.36-3.39-3.52a96.25 96.25 0 0 0 -5.63-8.86c-3.41-4.32-7.19-8.34-10.82-12.45-5.56-7.85-11.08-15.73-16.68-23.55-3.31-4.59-7.66-8.7-9.86-13.75-2-4.73-5.91-7.53-8.53-11.49a46.83 46.83 0 0 0 -3.5-6.39c-3.14-4.12-6.59-8-9.88-12-2.44-3-4.79-5.93-7.24-8.88-3.32-2.64-3.88-7-7.22-10.08-5.75-5.25-10-12.15-14.79-18.48-.79-1.06-.8-2.71-1.23-4.06a3.08 3.08 0 0 0 -.78-1.23c-3.47-3.39-7-6.7-10.45-10.12-1.15-1.13-2.15-2.41-3.22-3.61-1 1.28-2.65 2.45-2.87 3.83-1.39 7.8-6.53 13.62-10.8 19.62-5.75 8.08-12.65 15.32-18.91 23a115.47 115.47 0 0 1 -28 24.82l13.11 14.47c4 5.13 7.88 10.3 11.86 15.41 2.6 3.33 5.28 6.59 7.92 9.88.6 1.78.83 3.83 1.92 5.28 2.7 3.63 6 6.84 8.61 10.53 6.94 9.38 13.68 18.9 20.48 28.37a8.14 8.14 0 0 0 .67 2q4.86 6.65 9.81 13.2c2.12 2.82 4.29 5.6 6.42 8.41 2.17 3.23 4.41 6.41 6.45 9.71a31 31 0 0 1 1.91 4.62c-2.33.87-3.83 1.82-5.31 1.92a6.63 6.63 0 0 1 -4.56-1.32c-5-5.05-9.89-10.18-14.59-15.54-2.77-3.16-4.89-6.87-7.46-10.21q-5.92-7.73-12.06-15.23c-5.48-6.71-11.05-13.3-16.62-19.92-1.39-1.66-3-3.12-4.28-4.85-4.91-6.7-9.57-13.45-14.58-20.05-7.81-10.37-15.83-20.6-23.66-31-5.23-6.93-10.37-13.93-15.32-21.07-1-1.31-.8-3.35-1.65-4.53-2.87-3.32-6-6.5-8.66-10-5.26-6.71-10.27-13.62-15.5-20.34-1.05-1.34-2-2.4-4.66-1.72-3 .78-6.59-.6-9.93-.65a33.58 33.58 0 0 0 -6.11 1.06c-2.41.45-4.86.77-7.22 1.42a5.09 5.09 0 0 0 -2.66 1.92c-3.91 6-7.79 12.13-11.49 18.31-2.75 4.58-5 9.43-7.86 14-2 3.21-4 6.7-6.85 9-5.62 4.62-4.83 10-2.87 15.59 4.29 12 8.45 24.09 13.41 35.81a206.39 206.39 0 0 0 13.4 25.93c2.87 4.72 7.41 8.39 11 12.69 2.69 3.21 5 6.7 7.66 10 1 1.16 2.65 1.7 3.89 2.67 5.08 3.94 10.19 7.82 15.13 11.91 2.73 2.25 4.87 5.31 7.79 7.19s3.13 4.2 2 6.4-2.87 2.39-6 1.2c-7.78-3-13.35-8.21-19.15-15.1l-9.49 12.09c7.32 5.84 14 10.94 20.41 16.42 1.83 1.57 4.29 4 1.91 6.89s-4.94 1.39-7-.38c-3.74-3.18-7.25-6.63-10.85-10a72.46 72.46 0 0 0 -7-6.3c-.82-.57-3.19-.14-4 .67-3.43 3.53-6.54 7.36-9.65 11l17.24 15.13c4.2 3.67 4.7 6.58.89 7.9-2 .7-5.52-.66-7.5-2.19a120.18 120.18 0 0 1 -13.91-12.42c-2.68-2.82-4.27-3.6-7.27-.45-7.66 8-7.82 7.94-.16 15.86 3.59 3.71 7.55 7.07 11 10.9.95 1.11 1.64 3.91.95 4.87-1.26 1.79-3.25 3.09-6.15 1.59-7.49-3.83-14.64-7.85-18.27-16-.41-1-1.67-1.49-2.4-2.09l-13.71 10.06 20.3 18.27c-2.57 5.65-9.16 5.33-13 .49-3.15-3.94-6.5-7.66-10-11.35-2.47-2.58-5.74-1.91-9.57 1.4a10.24 10.24 0 0 1 -1.13 1c-5.75 3.83-5.81 3.83-1.07 9.24 3.31 3.76 7 7.21 10.31 11 .81 1 1.44 3.4 1 3.73-1.4 1.11-3.88 2.64-4.93 2.08-4.68-2.5-9.35-4.21-13.12-9.27-4.53-6.11-9.67-13.19-18.19-15.58-1.61-.45-3-2.66-4-4.34-4-6.7-7.83-13.54-11.73-20.32l-3.39-6.37c.34-.79.68-1.6 1-2.4l.4-.87-.71-.14a12.44 12.44 0 0 1 -.16-3.22c.51-2.36 1.28-4.66 1.92-7h.62v-.39l-.55.44c-.25-.45-.81-1-.7-1.36q4.39-14.92 8.9-29.79c1.6-5.28 3-10.62 4.93-15.78 3.37-9.18 7-18.19 10.59-27.35 1.52-3.31 2.5-7 4.68-9.82 2.66-3.45.7-4.41-1.92-5.28-4.22-1.41-8.53-2.57-12.81-3.83-2-.59-4.1-1.11-6.15-1.66-.11-.44-.13-1.16-.38-1.26-5.34-2-10.74-3.83-16.07-5.84a120.8 120.8 0 0 1 -13.4-5.74c-5.52-2.95-10.73-6.46-16.06-9.75-6.06-3.74-13.4-5.45-18.05-11.49-.4-.51-1.63-.38-2.64-.58-1.05 4-1.78 8-3.12 11.72-2.25 6.21-4.9 12.27-7.38 18.4-.43.11-1.14.12-1.24.37-2.32 5.88-4.57 11.8-6.83 17.7-2.74 4.73-5.46 9.46-8.23 14.17-1 1.72-2.4 3.25-3.28 5-3 6.06-5.49 12.45-9 18.2-1.37 2.26-2.67 4.12-2.36 6.78-4.61 5.41-8 11.39-8.95 18.56-2 3.11-4.24 6.12-6 9.36-2.37 4.35-4.22 9-6.7 13.3-1.05 1.81-3.37 4.47-4.67 4.24-2.88-.5-5.54-2.41-7.94-4.21-.58-.42-.11-2.87.48-4.1 2.77-5.88 5.79-11.65 8.66-17.48 3.74-7.58 7.33-15.23 11.13-22.78 7.13-14.16 14.36-28.27 21.54-42.42a3.76 3.76 0 0 0 .14-1.34c.28 0 .76 0 .84-.12 4.74-9 9.38-18 14.15-26.92 3.2-6 6.22-12.11 10-17.69 1.18-1.75 4-2.45 3.59-5.38-.32-2.36-.52-4.73-1-7-1-4.6-2.28-9.13-3.31-13.72-.34-1.45-.15-3-.44-4.46-1.34-6.81-2.77-13.61-4.16-20.41.61-5.44 1.11-10.91 1.86-16.34a39.9 39.9 0 0 1 1.73-5.8c-.38-1-1.52-2.63-1.59-4.31-.21-5.29 0-10.58 0-15.87a23.43 23.43 0 0 0 .67-4.79c-.76-13.35-1.76-26.55-2.76-39.77-.87-10.41-1.7-20.84-2.67-31.25a72.08 72.08 0 0 0 -1.53-8.27c-1.31-6-2.68-12.07-4-18.1-.45-2.42-1.37-4.86-1.26-7.27.57-12.6-2.87-24.4-6.65-36.18 2.31-2.09.12-4.2-.07-6.25-.47-5-1.18-10-1.92-14.92q-2.17-14.13-4.56-28.25c-.48-2.87-1.3-5.63-2.06-8.9-6.71 4.9-12.74 8.84-18.2 13.46-4.35 3.68-7.89 8.29-12 12.27-4.79 4.6-10.28 8.52-14.51 13.53-6 7.09-12.08 14.29-14.8 23.51-.44.27-1.21.46-1.28.81q-3.35 14.7-6.55 29.44a81.54 81.54 0 0 0 -1.69 10.66c-.59 6.88-2.68 13.63-1.75 20.73a50.44 50.44 0 0 1 .4 8.86 41.16 41.16 0 0 1 -1.23 6.33c.05 4.28.3 8.56.12 12.83-.18 4.44-1.09 8.85-1.13 13.28-.09 7.6.09 15.21.52 22.79.16 2.82 1.35 5.56 2.07 8.34q.45 19.72.95 39.44l.21 8.07q.58 6.27 1.2 12.51.41 8.13.81 16.28v3.63c.34 1.83.67 3.66 1 5.49l.05 2.62c.37 5.39.71 10.79 1.12 16.17 1 12.7 1.92 25.4 3 38.1q.6 4.54 1.65 9c.66 6.33 1.11 12.69 2 19 1.09 7.39 2.88 14.69 3.78 22.11.81 6.66.73 13.41 1.24 20.11.14 1.91 1.11 3.67 1.45 5.55.95 5.15 1.84 10.31 2.49 15.5.09.8-1.78 2.65-2 2.55-2.65-1.44-6.51-1-7.53-5-.79-3.36-2-6.72-3.04-10.08zm199.67-262.93h3.7c1.86-6.09 1-12 .59-17.82-.19-2.74-.54-5.46-.83-8.19l-.15-2.87c0-.78 0-1.57 0-2.34-.45-2.23-.89-4.45-1.34-6.66v-1.56l.74-3.72-.26-3.42.06-4.87c-.23-3.36-.67-6.7-.63-10.07.11-11.58.5-23.15.55-34.72 0-5.46-.48-10.91-.74-16.36-.31-4.31-1.05-8.62-.82-12.91.45-8.56-3.49-15.94-5.74-23.77-1.18-4-3-7.89-4-12-1.1-4.33-1.68-8.68-6.36-11-1.05-.51-1.49-2.28-2.39-3.76-3.37 3.59-6 .45-9-1.12-4.22-2.21-8.62-4.12-12.89-6.15-2.37-2.32-4.79-4.62-7.09-7-3.68-3.7-7.66-7.16-10.93-11.21-3.37-4.21-3.34-4.46-6.7.16-2.08.59-4.53 2.2-6.15 1.59-4.74-1.78-7.72 1.59-11 3.23-9.88 4.9-19.55 10.24-29.14 15.7-3.14 1.79-6.7 3.94-8.44 6.88a31.36 31.36 0 0 0 -3.73 22.87 131.63 131.63 0 0 1 1.65 14c.21 2.38-.09 4.79.14 7.19.1 1 1 1.84 1.51 2.76 1 6.7 2 13.49 3.09 20.22.07.47 1.07.79 1.64 1.19a33.16 33.16 0 0 0 .2 6.7c1.91 9 4.36 17.91 5.89 27 1.46 8.62 2 17.32 2.92 26a35.34 35.34 0 0 0 .28 4.48c2 8.44 4.79 16.72 4.32 25.59-.15 2.69.07 5.4.13 8.1q.76 5.75 1.51 11.55l.73 1.92.22 3.48c-.84 5.06-1.7 10-1 15.32.85 6.18.69 12.45 1.15 18.74.07 1.05 1.05 2 1.62 3.06-1.83 22-2.88 44 .3 66 2.67-4.79 4.5-9.84 7.14-14.43 4.36-7.66 9.41-14.9 13.87-22.5 2-3.45 3.3-7.33 4.92-11 2.15-2.57 4.34-5.09 6.42-7.72 5.68-7.2 11.18-14.56 17-21.63 4.28-5.17 8.85-10.14 13.58-14.91 3.3-3.32 7.1-6.16 10.68-9.21 2.7-2 5.83-3.61 8-6.06 3.09-3.5 5.51-3.09 8.83 1.37l2.32-6.14 1.59-.08zm-17.41 241.14c-.95 2.5-1.91 5-2.71 7.5-3.31 10-6.57 20-9.93 29.93a3.74 3.74 0 0 1 -1.7 2.2c-2.58 1-2.11 2.16-.78 4 3.83 5.44 7.38 11 11.08 16.55 1.52 2.25 3.13 4.42 4.38 6.18 11.25-4.79 20.24-11.76 29.52-18.19 1.28-.4 2.93-.44 3.77-1.28 6.15-6.16 12.14-12.45 18.19-18.74 2.45-1.92 5.06-3.62 7.31-5.75 3.49-3.28 6.7-6.85 10.06-10.25 5.45-5.47 11-10.82 16.36-16.4 1.71-1.78 1.83-3.37-.8-5.41-6.57-5.12-13.27-10.34-16.42-18.65-.53-1.39-2.53-2.21-3.83-3.3-.64-1.58-1.28-3.17-1.91-4.79-4-8.38-8.19-16.67-11.92-25.16a177.51 177.51 0 0 1 -6.23-17.16c-1.81-5.67-3.23-11.49-4.95-17.6-3.46 5.86-6.87 11.56-10.22 17.24-3 5.22-9.27 9.18-6.7 16.69a1.47 1.47 0 0 1 -.15.87l-7.76 20c-1.14 3.59-2 7.29-3.47 10.73-2.93 6.93-3.06 14.65-7.05 21.46-1.55 2.71-2.03 6.53-4.14 9.33zm354-118.2-.23-4.47-.66-37.08c-.23-1.74-.6-3.47-.67-5.2q-.51-15.1-.85-30.22a8.22 8.22 0 0 1 .75-2.47l.59-.25-.65-.59-.17-4.53c-.42-7.83-.75-15.66-1.3-23.46-.54-7.57-1.33-15.1-2-22.65.47-.81 1.42-1.67 1.34-2.42-.61-5.5-1.84-11-2.08-16.47-.36-8.42-.48-16.79-2.94-25-2.16-7.23-3.72-14.64-5.54-22l-1.48-4.02c-3.08-8.82-6.13-17.65-9.27-26.44-.18-.53-1-.82-1.55-1.23-.28-1.14-.25-2.51-.89-3.39-5.28-7.12-10.72-14.11-16-21.2-8.15-10.91-18.83-18.84-30.16-26l-9-6.7q1-5.82 1.82-11.64 7.71 5 15.43 10.05c8.38 5.45 17.43 10.12 25 16.56s14 14.51 20.33 22.29a79.38 79.38 0 0 1 9.82 15.32c3.68 7.5 6.64 15.37 9.67 23.19 1.91 4.85 3.34 9.87 4.87 14.85 1.72 5.59 3.72 11.14 4.79 16.87 1.15 5.92 1.29 12 2 18 .52 4.23 1.43 8.41 1.91 12.66s.87 8.82 1 13.25c.14 8.11 0 16.22 0 24.33l1.92.35c.42-1.3.55-2.87 1.32-3.88 5.47-7.56 5.13-17 8.37-25.32a159.36 159.36 0 0 0 6.2-19.1 52.82 52.82 0 0 0 1.83-15.22c-.38-7.2-1.92-14.36-3-21.52-.64-4.35-1-8.8-2.1-13q-4.31-15.44-9.31-30.6c-3.6-10.86-7.38-21.66-11.49-32.34-2.44-6.41-5.74-12.5-8.4-18.83-3.91-9.29-7.42-18.74-11.43-28-3.83-8.87-8.44-17.45-12.17-26.38-4.6-11-8.68-22.19-12.92-33.32-4.47-11.74-9-23.44-13.25-35.25-3.56-9.95-6.71-20-10-30.08-4.23-13-8.53-26-12.51-39.12-2.87-9.39-5.36-18.9-7.77-28.42-1.92-7.36-3.33-14.84-5-22.25-.73-3.25-1.75-6.44-2.35-9.7-1.33-7.21-2.6-14.45-3.66-21.71-.5-3.44-.17-7-.72-10.42-1-6.65-2.72-13.21-3.6-19.87-1.05-8-1.54-16-2.29-23.94a5.27 5.27 0 0 0 -.22-1.93c-5.19-10.53-5.27-22.41-8.62-33.44-2-6.6-3.26-13.41-5.6-19.91a171.71 171.71 0 0 0 -10.06-23.48 202.43 202.43 0 0 0 -15.4-23.67c-2.63-3.57-6.61-6.19-10.2-9-3.17-2.42-6.9-4.14-9.94-6.7-5.21-4.36-12.2-6.2-16.38-12.08-1.1-1.55-4-1.68-5.6-3-7.6-6.43-15-13.07-22.54-19.64-2.74-2.4-5.44-4.84-8.16-7.26a4.12 4.12 0 0 0 -1.31-1c-4.64-1.68-9.86-2.48-13.83-5.14-7.16-4.78-14.84-6.7-23.14-6.87-4-.09-8 .57-12 .55-6 0-12-1.18-17.84-.42-11.49 1.52-22.9 4-34.33 6.11-3.93.72-8 1-11.79 2.19-11.71 3.92-22.71 9.47-33.38 15.64-2.69 1.56-5.41 3.1-8 4.89-3.73 2.63-7.38 5.37-10.91 8.25-5.1 4.27-10.27 8.48-15.08 13-2.46 2.34-3.68 6.09-6.31 8.09-5.8 4.41-8 11-11.42 16.84-2.38 4-3.66 8.62-6 12.71-2.92 5.1-7 9.57-9.51 14.85-4.44 9.11-8 18.62-12.12 27.87-1.77 3.94-4.36 7.51-6.05 11.49-3.77 8.91-7 18-10.84 26.94-3.36 7.79-7.17 15.4-10.92 23s-7.66 15.15-11.49 22.72c-3.13 6.16-6.16 12.39-9.42 18.48-2.45 4.57-5.35 8.92-7.8 13.5-2.7 5.05-4.78 10.53-7.76 15.32-5.64 9.15-12.15 17.78-17.53 27.07-4.66 8-12.56 13.51-16.45 22.08-1 2.16-3.06 3.83-4.42 5.83-5 7.51-10 15.08-14.95 22.64-5.9 9-13 17-17.4 27.18-3.83 8.87-10.53 16.54-15.89 24.75a16.05 16.05 0 0 0 -1.13 2.08c-1.15 2.56-2.13 5.21-3.42 7.66-2.88 5.58-6.1 11-8.82 16.68-2.6 5.4-4.66 11-7.07 16.53-3 6.88-6.51 13.57-9.16 20.59-4 10.53-7.45 21.3-11.08 32-3.21 9.46-7.16 18.77-9.28 28.48-2.45 11.21-5.85 22.22-6.11 34-.31 14.76-2.65 29.46.16 44.23 1.25 6.5 1.54 13.22 3.14 19.62 1.75 6.93 1.58 14.22 5.16 20.87 4.62 8.62 8.24 17.73 12.3 26.61 1.74 3.83 2.87 8.15 5.45 11.24 5.1 6.07 11 11.44 16.66 17 2.5 2.5 5.07 4.93 7.66 7.3q6.62 6 13.34 11.87a51.9 51.9 0 0 0 6.36 5.2c4.7 2.93 9.58 5.55 15.14 8.73.12-2.46.22-3.34.19-4.22-.39-11.71-.78-23.41-1.24-35.12-.17-4.32-.58-8.62-.81-12.95-.1-1.69 0-3.4 0-6.17-2.26-1.56 0-4.33.44-7.49 1.07-7.86.95-15.87 1.43-23.82.28-4.73.6-9.48 1.23-14.17.89-6.7 1.85-13.4 3.22-20 1.25-6 3-11.94 4.79-17.81.61-2 2.34-3.61 3.18-5.55 2.36-5.4 3.47-11.7 7-16.15 6.49-8.29 14.14-15.69 21.67-23.09 3.72-3.67 8.37-6.38 12.37-9.79 2.72-2.32 5-5.12 7.54-7.66 6.05-6.24 15.52-7.77 20.78-15.19 1.55-2.17 4.65-3.44 5.69-5.75 3.54-7.77 9.79-12.83 16.58-17.23 7-4.52 14.43-8.47 21.81-12.45 4.38-2.33 8.86-5 13.61-6a51.3 51.3 0 0 0 20.56-9c2.75-2 3.13-4.19 3.53-7 .75-5.21 1.76-10.39 2.88-15.53a52.58 52.58 0 0 1 2.33-6.55c1-2.62 1.55-5.42 2.88-7.79 2.38-4.15 5.16-8.1 7.92-12a46.42 46.42 0 0 1 4.39-4.59c.1-.53 0-3 .73-3.25 5.54-1.83 1.13-4.15.09-5.45-5.07-6.36-10.6-12.35-15.67-18.71-3.44-4.28-7-8.62-9.41-13.51-3-6.13-5-12.78-7.2-19.27-1.07-3.11-1.57-6.4-2.49-9.57-1.84-6.31-3.78-12.58-5.67-18.87.64-1.24 1.21-2.52 1.91-3.71a10.92 10.92 0 0 1 1.53-1.66c-.87-.27-1.79-.88-2.58-.75a8.28 8.28 0 0 0 -2.53 1.45q-1-7.65-1.91-15.22c0-1 .1-2.07.17-3.42 3.15 9 6.34 17.56 14.21 23.17 3.06 2.18 6 4.3 6 8.62 0 .2.75.39 1.14.59 1.84 6.92 4.19 13.74 5.42 20.77 2.63 15.05 10.6 27.11 20.76 37.81 5.93 6.25 12.65 11.77 19.29 17.29 5.75 4.78 11.42 10.23 18.07 13.4 9.46 4.47 18.56 10.53 29.76 10.59 4 0 8 1.85 12.06 2.11 3.18.21 6.47-.57 9.65-1.21a28.6 28.6 0 0 0 6.37-2.14c3.09-1.44 5.93-3.42 9.07-4.69 4.3-1.73 9.58-2 13-4.7 6.71-5.2 15.41-7.2 21.15-14 3.31-3.89 8-6.54 11.49-10.34 4.59-5.07 8.56-10.7 12.75-16.13a25 25 0 0 0 2.59-3.94c4.05-7.95 8.21-15.84 12-23.94 2.35-5 4.07-10.35 6.07-15.54a25.43 25.43 0 0 0 2.81-2.48c4.6-5.34 9.14-10.73 14.17-16.65.18 2.07.31 3.37.42 4.68-1 5-1.56 10.25-3.17 15.11-2.44 7.33-5.74 14.36-8.48 21.63-3.83 10.28-9.8 19.33-16.19 28.15-2.25 3.1-4.38 6.3-7.26 10.45 5.55-2.19 7.8.59 9.78 4a8.1 8.1 0 0 0 1.83 1.82c5.56 4.54 11.29 8.91 14.11 15.89a57 57 0 0 0 2.94 6.87 53.58 53.58 0 0 1 7.12 22.76l-14 1.69 4.18-1.55v-.84l-5.66-.69c-3.71-17.92-12.38-32.45-26.89-43.73a32.28 32.28 0 0 0 -3 3.48c-3.43 5.33-7.39 10-13.76 11.95-.51.15-.77 1.12-1.14 1.7l-9.85 7.15a65.51 65.51 0 0 1 -6.79 4.63c-9.66 5-19.27 10.21-29.19 14.68-3.54 1.6-7.89 1.72-11.89 1.87-4.79.17-9.58-.38-14.31-.61-1.09-1.13-2-2.81-3.32-3.28-5.89-2.07-11.87-3.83-17.87-5.58a27.63 27.63 0 0 0 -5.14-.49c-1.2-1.33-2.15-3.43-3.62-3.83-9.21-2.83-16.28-9-23.72-14.62-2.82-2.11-5.08-5-7.9-7.09-1-.75-3.74-.89-4.24-.22-1.7 2.27-2.78 5-4.06 7.59-2.2 4.48-4.41 9-6.51 13.49a44.5 44.5 0 0 0 -1.64 4.93c-1.18 4-2.46 8-3.49 12-.7 2.74-.83 5.62-1.61 8.33-1.76 6.19-2.27 12.07 2.48 17.3 1.92 2.15 3.75 4.46 5.6 6.71.07.44 0 1.18.22 1.27 6.79 2.57 10.6 10.13 18.45 11 .73.09 1.3 1.24 2.08 1.59 4.64 2.12 9.18 4.61 14 6.06 4.2 1.27 8.79 1.27 13.19 1.92a85.72 85.72 0 0 1 9.37 1.85c4.29 1.18 8.88-2.94 13 .83 3.14.56 6.27 1.47 9.42 1.6a86.57 86.57 0 0 0 11.49-.61c7.29-.69 14.79.09 21.78-3.15 2.09-1 4.6-1 6.92-1.48 5.14-2.06 10.25-4.24 15.48-6.06 1-.34 2.48.77 3.75 1.22.48 3.39 1 6.78 1.47 10.17-2.87 1.18-5.57 3-8.5 3.41-6.7.85-13.31 1.13-19.89 3.27-3.89 1.27-8.61 0-12.95 0-.74 0-1.49.11-2.23.16-5.85.36-11.7 1-17.55 1-3.83 0-7.58-1.05-11.38-1.46s-7.85-.47-11.73-1c-2.52-.37-4.93-1.41-8.56-2.5 1.05 4.94.76 9.41 2.8 12.14 5.34 7.15 5.45 15.53 6.65 23.53 1.25 8.19 1.06 16.6 1.51 24.89a14.59 14.59 0 0 0 1.75.16c11.37-1 22.73-2.13 34.11-2.74 4.12-.23 8.39 1.58 12.45 1.18 4.67-.45 8.83-3 14.08-2.27 3.83.57 8.07-1.11 12.17.36.83.3 2-.42 3-.37 4.23.19 8.53-1.26 12 3.42 4.71 6.34 5.55 13.71 7.26 20.88.76 3.13.67 6.45 1.09 9.66.32 2.35.15 5.21 1.42 6.92 5.09 6.87 10.53 13.48 16.12 20 4.09 4.79 8.62 9.14 12.83 13.84 3.83 4.37 7.54 8.93 11.29 13.41 5.75 6.81 11.73 13.4 17 20.52 4.49 6.07 7.74 13 12.22 19.15 4.65 6.33 10.15 12 15.19 18.07 4.6 5.5 9.07 11.11 13.66 16.62.45.55 1.27.78 2.61 1.56-.73-8-1.31-15.16-2.08-22.35-.3-2.75-1.17-5.44-1.49-8.2-1-8.4-1.65-16.83-2.75-25.21-.62-4.79-2-9.48-2.73-14.26-.42-2.75 0-5.64-.32-8.42-1.18-11.6-4.65-22.93-4-34.74l4.73-3.41c5.55 1.53 6.08 6.29 7.43 10.53 1.65 5.1 3.26 10.21 4.89 15.32 0 2.4-.49 4.92.13 7.14a117.8 117.8 0 0 1 4.33 33.51c.56 1.26 1.55 2.51 1.62 3.83.5 9.85.81 19.71 1.26 29.58a10.51 10.51 0 0 0 .87 2.68c0 1.5.09 3 .14 4.5l.69 7.26c.07 1.18.15 2.38.21 3.57l1.2 8.61c.42 5.55-.41 11.42 3.34 16.21 2.4 3.05 5.17 5.81 7.79 8.71 1.14 1.36 2.38 2.65 3.42 4.1 3.73 5.22 7.4 10.48 11.09 15.73 2.15 3.11 4.14 6.34 6.46 9.32 3.71 4.79 7.85 9.27 11.4 14.17 3.26 4.47 5.42 9.83 9.06 13.9 6.85 7.66 14.56 14.5 21.61 22 4.63 4.93 8.62 10.41 13.07 15.54 4.25 4.95 8.7 9.7 12.93 14.66a33.12 33.12 0 0 1 2.87 5 85.31 85.31 0 0 0 1-13c.21-6.84.77-13.65.8-20.49 0-6.09-.46-12.19-.72-18.29-.22-5.05-1.24-10.24-.37-15.09.55-3.09 1.45-5.69-.26-8.52zm-215.66-102.01c-1.17.19-2.45.75-3.5.47s-1.76-1.4-2.62-2.15c-4.38-3.83-8.83-7.52-13.09-11.49-4.73-4.37-8.41-10.08-16.46-12.44 2.17 4.72 4 8.11 7.58 10.39a18.1 18.1 0 0 1 4.31 3.54c2.54 3.08 4.79 6.39 7.19 9.57 5.52 7.36 12.08 14.16 14.57 23.27.74 2.73.08 6.3-1.12 9-1.12 2.48-12.34 3.93-14.79 2.39-2.22-1.4-4.17-3.23-6.41-4.63-3-1.91-6.29-3.47-9.33-5.37-4.36-2.71-8.62-5.59-13.84-9 .49 2.22.4 3.71 1.08 4.6 4.88 6.35 9.94 12.54 14.88 18.84 3 3.83 6.1 7.58 8.76 11.63s4.92 8.75 7.49 13a42.5 42.5 0 0 0 4.85 6.91c4.37 4.79 9.27 9 13.4 13.94 4.79 5.56 9.1 11.49 13.33 17.46 1.83 2.59 3.3 2 5 .33 1.91-1.91 3.66-4.07 5.62-6 6.63-6.4 13.71-12.38 19.9-19.15a101.29 101.29 0 0 0 18.29-28.63 153.19 153.19 0 0 0 6-18.59c.62-2.22 1.16-5.45 0-7-5.62-7.87-12-15.21-17.76-23-8.17-10.9-16-22-24.14-33-4.23-5.7-8.87-11.09-13.18-16.72-6.13-8-12-16.19-18.19-24.16a84.85 84.85 0 0 0 -6.85-7.01l-1.71 1c1.31 4.44 2.64 8.88 3.94 13.33a50.32 50.32 0 0 0 7.43 15.46c4.29 6 7.73 12.65 11.66 18.93 2.33 3.73 4.88 7.3 7.33 10.94-6 3.83-8.24 3.23-11.67-1.42a144.71 144.71 0 0 0 -10.13-11.86c-3.25-3.55-6.64-7-10.16-10.29-3.28-3.08-6.78-5.94-10.27-8.79-.58-.45-1.62-.34-4.13-.8 3.2 6.13 5.75 11.21 8.48 16.14 3.62 6.44 7.39 12.79 11.22 19.1 3.19 5.26 6.56 10.42 9.85 15.63-.92 1.86-1.85 3.75-2.81 5.63zm-117.23-10-1-1.38a64 64 0 0 0 -5.48 3.47c-1.82 1.41-3.17 3.71-5.19 4.57-9.5 4-16.15 11.58-22.42 19.15s-12.82 14.69-17.88 23.3c-5.54 9.43-13.11 17.53-17.75 27.76-3.53 7.8-9.15 14.65-13.83 21.93-3.29 5.11-6.59 10.21-9.83 15.32a34.32 34.32 0 0 0 -2.87 5.3c-.39 1-.56 2.81-.05 3.19 4.65 3.32 9.35 6.62 14.28 9.49a141.25 141.25 0 0 0 12.8 6.23c12.62 5.67 25.22 11.34 37.88 17.04a40.26 40.26 0 0 0 4.66 2.3c4.65 1.41 9.44 2.38 14 3.94 4.79 1.62 8.77.31 8.83-4.49.09-8.34 6.76-13.4 9.18-20.61s8.94-13.28 13.5-20c2.95-4.31 5.65-8.8 8.36-13.26 2.19-3.63 5.35-6.38 6.5-11 1-3.83 4.95-7 7.66-10.36 3.36-4.22 6.92-8.3 10.11-12.66 1.32-1.8 1.35-5.12 3-6 5.56-3.23 6.37-10 10.94-13.76.32-.26.13-1.12.18-1.62-10.41-1.76-16.61 6-23.82 10.82-4.57 3.06-7.56 8.44-11.49 12.61-2.21 2.37-5.25 2.61-7.42.37-.86-.9-.51-4 .39-5.38 4.56-7 9.39-13.75 14.36-20.42 1-1.34 3.07-1.91 5-3-4.07-3.28-.38-5.82 1.78-9s3.6-7 5.63-11.09c-1.81 0-2.88-.31-3.53 0-4.31 2.17-8.51 4.54-12.8 6.75-1.6.82-3.67 1-4.94 2.16-2 1.78-3.49 4.15-5.25 6.22-3.6 4.24-7.52 8.25-10.81 12.72-3.63 5-5.21 5.51-10.92 2 .72-1.25 1.43-2.52 2.2-3.74 1.57-2.54 3.32-5 4.73-7.59 2.35-4.38 4.24-9 6.76-13.3 3.43-5.82 7.33-11.36 10.85-17.13.5-.81-.06-2.26-.16-4.14-6.86 4.79-13.6 8.42-18.84 13.54-6.31 6.17-11.39 13.47-18.46 19.1-4.1 3.27-7.37 3.57-12.23 1.58 7.93-13.83 15.67-27.41 23.39-40.93zm-27.46-188c.26-.12.63-.19.7-.38s-.13-.48-.22-.74l-.95.47zm32.28 5.75c-.12-.22-.21-.57-.37-.62s-.45.17-.68.26l.51.84z" fill="#5a30df"/><path d="m361.64 799.72c1.39 6.8 2.81 13.6 4.16 20.41.28 1.47.1 3 .43 4.46 1 4.59 2.29 9.13 3.32 13.72.51 2.31.72 4.69 1 7 .4 2.93-2.4 3.63-3.6 5.38-3.83 5.58-6.82 11.71-10 17.7-4.79 8.94-9.42 18-14.15 26.91-.08.16-.56.09-.86.13-5.44-1.79-10.89-3.56-16.32-5.39-2.87-1-5.66-2.53-8.62-3-5.15-.84-7.28-4.67-9.74-8.5-3.08-4.79-6.39-9.5-10.16-15a21 21 0 0 0 -2.34 3.68c-2.81 7.66-4.9 15.62-8.42 22.91-2.13 4.41-6.41 7.79-9.73 11.63-.7-3-1.26-6-1.66-9-1.09-12.7-2-25.39-3-38.1-.41-5.38-.75-10.77-1.12-16.16a15.21 15.21 0 0 1 1.34 3.83c.21 2.77.07 5.56.07 8.35l1.28.36c.68-1.26 1.29-2.56 2-3.83 2.41-4 4.22-8.62 7.5-11.76 3.64-3.45 8.9-3 13.52-1.08s8.82 4.79 14.19 4.33c.91-.08 2 1.31 2.87 2.17.56.56.76 1.85 1.34 2 4.22 1.17 6.85 3.91 9.07 7.6 1.42 2.34 3.92 4 6.09 6.17 2.6-6.42 4.83-12.21 7.28-17.91a120.79 120.79 0 0 1 5.37-11.11c3.35-6 7.46-11.67 10.26-17.91 2.07-4.4 4.34-7.89 8.63-9.99z" fill="#cecde6"/><path d="m432.25 992.92 3.39 6.37c-2.83-.13-5.66-.24-8.49-.41q-5.82-.37-11.63-.86c-2.72-.24-5.44-.59-8.16-.91-2.35-.29-4.7-.62-7.1-1-2.16-5.15-4.2-10.33-6.5-15.39-1.13-2.48-3-3-5.54-1.42-6 3.83-11.91 7.82-18.19 11.14a21 21 0 0 1 -9.71 2.17 63.25 63.25 0 0 1 -14.89-1.72c-4.26-1-9.26-2.39-12-5.37s-3-8.08-4.34-12.29-2.5-8.27-3.75-12.44c1-7.17 4.34-13.15 8.94-18.56l9.84 2.19 11.62 21.37c5.48-3 10.54-5.18 14.83-8.32 5.9-4.29 12.87-2.75 19.15-3.83 4.62-.76 10 3.08 15 4.7 2.4.76 5.35 2.22 7.28 1.45 3.06-1.22 3.62.3 4.63 2.15.63 1.14 1.37 2.26 1.91 3.45 3.35 7.43 6.59 14.93 10.05 22.32.91 1.99 2.41 3.53 3.66 5.21z" fill="#cecde6"/><path d="m775.18 894.5c3.62 4.16 7.4 8.18 10.82 12.5a92.65 92.65 0 0 1 5.62 8.85c-1.45 7-3 14-4.31 21.07-.52 2.77-.48 5.66-1 8.43-.22 1.23-.83 2.82-1.78 3.39-5.9 3.59-11.75 7.38-18 10.14-2.5 1.1-6.36.5-9.11-.58-8.74-3.44-17.43-7.13-25.79-11.41-4.19-2.14-7.54-5.85-11.4-8.62-2.56-1.92-5.36-3.39-8.62-5.41-4 4.95-8.62 9.82-9.58 16.92-2.14-2.8-4.31-5.59-6.42-8.4-3.3-4.39-6.58-8.77-9.81-13.2a7.4 7.4 0 0 1 -.67-2c.6-.09 1.54 0 1.72-.29 1.47-2.72 2.75-5.54 4.21-8.26.81-1.52 1.52-3.41 2.87-4.26 5.27-3.38 10.48-4.14 16.54-.77a69.46 69.46 0 0 0 19.16 7.4 19.41 19.41 0 0 1 8.22 3.83c2.94 2.23 6 4.13 8.42 7.21 1.91 2.48 5.3 3.83 8 5.68.59-2.33 1.5-5.24 2.05-8.22 1.58-8.52 2.65-17.24 9.75-23.45a2.76 2.76 0 0 0 1-1.91c-.64-6.14 3.78-7.31 8.11-8.64z" fill="#cecde6"/><path d="m826.82 805.15v-11.72l4.09.25c.55 4.71 1.26 9.13-4.09 11.47z" fill="#cecde6"/><path d="m692.19 570.61c-5.33.46-10.65 1.08-16 1.37-8.62.49-17.31.74-26 1.18a6.19 6.19 0 0 0 -3.63 1.05c-3.45 3.27-6.7 6.75-10 10.22-3.6 3.83-7.08 7.76-10.63 11.62-3.71 4-7.59 7.9-11.14 12.06-3.83 4.5-6.29 5.53-11.49 3.5-2.12-.83-3.74-1.91-2.68-5.29 1.19-3.83.79-8.12.9-12.22.12-4.44 0-8.88 0-13.33 0-5.95-3.26-8.17-9.25-7.39-3.75.49-7.76-.17-11.49-1-1.3-.27-2.54-2.32-3.23-3.83-3.09-6.8-3.46-14-3.06-21.39.16-2.87 0-5.74 0-8.55l-1.46-10.17c.44-1 1.21-1.82 1.28-2.78.46-6.39.63-12.79 1.18-19.15.39-4.61 1.22-9.18 1.85-13.76 1.36-4.79 2.72-9.62 4-14.18 4.53.55 7.9 1.37 11.27 1.3 8.87-.19 17.74-.78 26.6-1.2 1.82-.08 3.64-.13 5.46-.2l2.59.69 13.94-1.68c7.66-.17 15.22-.44 22.84-.42 2.74 0 5.5 1.13 8.24 1 9.66-.35 19.31-1 29-1.52q6.87-.37 13.72-.67a4 4 0 0 1 1.71.35c3.17 1.39 6.33 2.82 9.39 4.19.44 4.79.81 10 1.43 15.21s1.8 10.12 2.11 15.21c.45 7.66.35 15.32.49 23q-.9 5.82-1.82 11.63a86.47 86.47 0 0 1 -1.19 9.88c-1 4.1-2.44 8.08-3.7 12.11-10.24 1.92-20.62 3.6-31.23 3.16zm-42.51-56.69c-2.08-5.1-6-8.17-12.84-10.35-2-.65-4.52-1.91-6.19-1.31-5.74 2.16-9.73 10.86-6.13 16.33 4.94 7.52 10.54 14.62 15.84 21.9 3.5 4.79 8.78 6.55 14.16 7.81 1.43.33 3.56-.7 4.86-1.75 6.55-5.31 9.81-13.1 14.28-19.95 2.44-3.76 4-8.09 5.89-12.19 1.38-3-1.67-9.8-4.62-10.63-2.78-.77-5.55-1.64-8.28-2.59-3.26-1.13-10 .69-9.89 3.4.22 5.47-4.4 6.08-7.06 9.33z" fill="#fa5948"/><path d="m623.33 365.43a51.36 51.36 0 0 1 -38.8 8.38c-8.8-1.53-17.82-2.73-25.69-7.5-9.48-5.74-18.5-11.6-24.34-21.91-2.78-4.89-3.62-10.29-6.41-15a3.82 3.82 0 0 1 -.12-2.22c.63-5.36-1-7.14-7.06-7.42-.32 2.3-.66 4.64-1 7l-2-8.93-1.21-.45c-.89 1.76-1.68 3.56-2.39 5.39-.82 2.5-1.3 5.12-2.07 7.66-1.11 3.59-2.34 7.15-3.52 10.72-2.87 3-5.94 5.85-8.4 9.16-5.83 7.87-13.79 12.7-22.71 15.79-6.43 2.23-13.35 4.63-20 4.37-8.53-.33-17.09-2.81-25.41-5.16-5.26-1.48-10.07-4.52-15.18-6.59-.78-.31-2.15.88-3.25 1.38-.39-.2-1.14-.4-1.14-.6 0-4.28-2.95-6.39-6-8.61-7.87-5.62-11.07-14.16-14.21-23.18-.07 1.35-.12 2.39-.18 3.41-.9-2.87-2.17-5.74-2.6-8.73a92.31 92.31 0 0 1 -1-14c0-2.64 1.15-5.26 1.78-7.9 1.38-2 2.87-4 4.13-6.12 3.28-5.55 6.46-11.16 9.68-16.74 6.59-7 13.59-13.41 23-16.54q7.39-2.5 14.77-5c.58.58 1.2 1.67 1.72 1.63 1.55-.13 3.11-1.18 4.58-1 6.45.64 13 1 19.24 2.58 5.87 1.5 12.34 1.63 17.33 6 1 .82 2.8.59 4.23.85a55.53 55.53 0 0 1 5.75 4.61q6.79 7 13.28 14.24c2.87 3.22 3 8.34 7.27 10.69-.62 1.09-2 2.46-1.71 3.24.79 2.23 1.68 4.93 5.11 4.19 2.35.32 5 .14 7 1.11 3.28 1.54 3.83-.07 4.79-2.6a93.82 93.82 0 0 1 6.41-13.8c3.65-6.16 8.14-11.72 14.25-15.8 1.29-.87 1.86-2.8 2.76-4.24 1.06.43 2.33 1.47 3.15 1.19a185.81 185.81 0 0 0 17.39-6.57c6.26-2.87 12.61 2.36 18.72-.75a4.23 4.23 0 0 1 .43.07l12.87 1.62c3.54 1.21 7.37 1.87 10.53 3.73 5 2.94 9.53 6.7 14.29 10.08 1.27.9 2.67 1.65 4 2.46l10.47 16.94a40.06 40.06 0 0 1 .32-5.36 19.74 19.74 0 0 1 1.57-3.59c-.41 3.63-1.22 7.27-1.13 10.89.1 3.46 1.63 6.89 1.66 10.33a119 119 0 0 1 -1 18.77c-1.08 7.08-3.1 14-4.79 21a8.38 8.38 0 0 1 -1.62 2.37c-.12-1.3-.24-2.6-.42-4.67-5 5.92-9.57 11.31-14.17 16.65a28.08 28.08 0 0 1 -2.95 2.48zm-21.6-92.43c-.23-.78-.23-2.07-.7-2.28-6.56-2.87-12.94-2.82-18.93 1.55-3.23.9-6.49 1.73-9.67 2.73a38.29 38.29 0 0 0 -14 8.34 15.06 15.06 0 0 0 -2.87 3q-4.32 6.8-8.29 13.74c-6.45 11.29-4.13 22.84-.53 34.25 3.35 10.6 11.55 17.71 19.38 24.82 3 2.7 7.66 5.13 11.49 5 8.49-.34 17.32-1.26 25.25-4.07 6.7-2.36 12.59-7.31 18.19-11.93 3.22-2.67 5.68-6.7 7.37-10.62s2.26-8.39 2.87-12.68c.7-4.62 1.86-9.47 1.16-13.95-1.34-8.62-3.7-17.31-9.84-23.94-5.82-6.2-10.61-14.23-20.88-13.96zm-167.73.17c-12 6.14-23.12 13.32-25.2 28.08-1 7.4-1.67 15.16-.6 22.48.87 6 2.74 12.4 8 17 4.11 3.61 7.17 8.45 11.42 11.86 3.74 3 8.23 5.74 12.81 6.81 8.53 2 17.31.28 25.32-2.69a80.39 80.39 0 0 0 18.88-10.71 32.33 32.33 0 0 0 8.74-10.86 45.62 45.62 0 0 0 4.92-14.52c.89-6.13 1.53-12.71.19-18.63-1.75-7.73-4.27-15.7-11.19-21-4-3-8-6-12-9-.35-.73-.52-1.92-1.07-2.12-5.75-2.36-11.39-4.73-18-3.06-5.54 1.4-11.33 1.82-16.92 3.08-1.92.44-3.57 2.12-5.34 3.24z" fill="#9b81ea"/><path d="m692.19 570.61c10.59.44 21-1.24 31.32-3.16-1.67 5.14-3.23 10.31-5 15.39-3 8.62-6.28 17.07-9.29 25.65a24.61 24.61 0 0 0 -.74 5.18c2.46 0 4.35-.38 6 .08 3.52 1 6.88 2.48 10.36 3.58 1.68.53 4 1.45 5.14.77 3.2-1.86 4.73 0 6.42 1.91 5.5 6.31 10.94 12.67 16.51 19.15 1.91-1.41 3.83-2.15 4.68-3.54 4.29-6.92 8.41-14 14.85-19.21a3.52 3.52 0 0 0 1-1.47c2-5.65 6.59-8.89 11.2-12.12.53.4 1.36.69 1.55 1.22 3.14 8.79 6.2 17.62 9.27 26.44l1.42 4c-3.58 4.54-7.27 9-10.7 13.65-2.06 2.81-3.51 6-5.57 8.85-3.95 5.39-8 10.69-12.27 15.86-1.74 2.11-3.67 4.21-7.21 2.39-3.3-1.7-7-2.65-10.47-4-3.67-1.48-7.4-2.87-10.91-4.68-6.58-3.4-8.52-10.75-13.08-15.9-2.93-3.3-6-6.48-9.2-9.92-2 3.89-3.23 6.71-4.83 9.19-2.76 4.34-5.57 8.68-8.74 12.71-2.33 3-2 8.13-7.07 8.9-1.63-5.11-3.24-10.22-4.89-15.32-1.35-4.2-1.91-9-7.43-10.49l-4.7 3.43c-.17-6.54-.27-13.09-.53-19.63-.54-13.16 3.46-25.23 8.43-37.15 1.18-2.82 1.13-6.13 1.92-9.14.72-2.72 2-5.31 2.71-8a19.07 19.07 0 0 0 -.15-4.62z" fill="#cecde6"/><path d="m363.67 757.4c-.61-2.26-1.24-4.51-1.63-6-4 6.92-8.39 14.23-12.52 21.67-2.19 4-3.56 8.44-6.06 12.18a73.93 73.93 0 0 1 -9.77 11.28c-.68.66-3.23-.34-4.79-.88-2.69-1-5.2-2.51-7.94-3.16-5.51-1.3-11.23-2.33-14.81-7.08-2.23-3-3.32-6.78-5.06-10.14-3.58-6.9-7.25-13.76-11.19-21.18-3.52 7.66-7.75 14.62-9.87 22.15-2.21 7.84-6.36 14.28-10.71 20.8-.29.43-1 .59-1.48.87l-.2-8.08q-.47-19.73-1-39.44c-.34-4.72 2.33-8.84 3-13.06.9-5.82 3.57-10.32 6-15.24 3.13-6.41 7.55-6.7 13.4-3 3 1.92 5.56 3.83 9.58 3.13 2-.33 5.53 1 6.55 2.64 6.32 10.47 12.13 21.24 18.49 32.56a36.05 36.05 0 0 0 2.75-4.16c3.34-7 6.38-14.15 9.91-21.06 3.08-6 6.5-11.85 10.07-17.58 3.06-4.9 5.74-5.27 11.21-2.52 1.14.58 2.59.52 3.91.75.95 13.21 1.91 26.42 2.8 39.63a23.09 23.09 0 0 1 -.64 4.92z" fill="#cecde6"/><path d="m701.21 712.14c3.32-1.8 4.79-4.78 6.36-8.14 2.23-4.94 4.36-10.11 9.85-13 4.16-2.22 8.27-.32 10.79 1 5.16 2.72 9.75 5.54 15.93 5a7.79 7.79 0 0 1 5.75 2.64c6.35 8 12.29 16.28 18.51 24.41 1 1.24 2.55 2 5.4 4.54 1.91-2.64 3.57-5.54 5.8-7.87 5.08-5.33 10.45-10.38 15.69-15.54a8.7 8.7 0 0 0 1-1c2.63-2.87 5.31-5.55 9.73-3.77.68 7.54 1.47 15.08 2 22.63.56 7.82.87 15.65 1.3 23.47-.5-1.23-1.39-2.46-1.45-3.72-.2-3.68-.07-7.37-.07-11.05l-1.21-.47c-3.37 4.12-6.64 8.32-10.13 12.35-4.25 4.92-8.53 9.84-13.13 14.44-1.24 1.23-4 2.24-5.5 1.7-7.85-2.87-15.5-6.22-23.24-9.37-5.93-2.4-8.78-7.84-12.45-12.45-4-5-7.82-10-12-14.81-.74-.83-3.55-1.12-4.29-.45-2.5 2.28-5.67 4.79-6.44 7.78-1.64 6.45-8 8.36-10.9 13.3a38.45 38.45 0 0 1 -3.51 4.44 11.43 11.43 0 0 1 -.87-2.69c-.44-9.85-.74-19.71-1.25-29.57-.16-1.29-1.12-2.53-1.67-3.8z" fill="#cecde6"/><path d="m353.3 655.36c-3.72 4.13-4.9 10.14-10.13 13.23-1.47.87-2.05 3.12-3.3 4.48-2.76 3-6.71 3.26-9.52.52-4-3.88-9.49-2.87-14.11-4.69-6-2.32-11.32-5.21-15.11-10.89-3.08-4.6-7.32-8.42-12.05-13.72-1 2.79-1.54 4.51-2.29 6.13-3 6.43-6.14 12.78-9.05 19.24-2.57 5.74-4.71 11.63-7.46 17.23-1.15 2.37-3.4 4.21-5.16 6.29a41.65 41.65 0 0 0 1.24-6.33 52.56 52.56 0 0 0 -.36-8.85c-1-7.1 1.15-13.85 1.75-20.73a83.24 83.24 0 0 1 1.68-10.66q3.23-14.73 6.54-29.44c.09-.35.85-.54 1.3-.81 2.33.3 5.16-.12 6.91 1 4.43 3 9.79 2.25 14.36 4.39 3.52 1.66 7.45 2.88 10.38 5.22 3.83 3.12 6.8 7.3 10.27 10.9 2.8 2.87 4.34 2.49 6.38-.89 3.83-6.28 7.53-12.64 11.87-18.55 2-2.7 5.32-4.41 8-6.57 3.78 11.78 7.22 23.59 6.64 36.19-.15 2.45.78 4.89 1.22 7.31z" fill="#cecde6"/><path d="m359.84 602.72c4.79-3.5 9.35-.74 13.94.59 4.32 1.25 8.69 2.42 12.86 4a26.71 26.71 0 0 1 7.4 4.34c7.39 6.16 12.19 14.27 15.14 23.23 1.4 4.26.73 9.16 1.32 13.73 1.29 9.88-1.71 18.84-5.64 27.6-1.05 2.33-3 4.27-4.39 6.47-4.6 7.14-10 13.54-18 16.88-2.65 1.1-5.91.71-8.9 1-.05-2.7-.27-5.41-.12-8.1.48-8.88-2.32-17.16-4.31-25.6a35.22 35.22 0 0 1 -.28-4.48c-1-8.67-1.47-17.41-2.92-26-1.53-9.07-4-18-5.9-27-.46-2.1-.16-4.38-.2-6.66z" fill="#9b81ea"/><path d="m451.78 719.21c-.54-.57-1.07-1.62-1.6-1.61-8.53.1-16.28-3.15-23.94-6.19-2.62-1-4.67-3.71-6.7-5.85-1.18-1.23-1.55-3.33-2.87-4.32-8.62-6.71-7.58-15.19-3.95-23.62 3.34-7.77 7.66-15.24 14.66-20.34 2.62-1.92 6.13-2.56 9.26-3.71.82-.29 1.92 0 2.61-.46 5.07-3.19 9.71-.58 14.36 1 4.15 1.41 8.22 3.07 12.34 4.57 5.31 1.92 6.95 6.34 7.79 11.38a72.67 72.67 0 0 0 2 8.49c.13.46 1.41.6 2.17.88l.14 2.88c-1.3 4.58-3.36 9.13-3.63 13.77-.15 2.82-.91 4.59-2.81 5.88-2.92 2-2.87 4-.76 6.35-.64 1.72-1.29 3.43-2.31 6.14-3.33-4.45-5.75-4.87-8.83-1.37-2.11 2.52-5.23 4.14-7.93 6.13z" fill="#9b81ea"/><path d="m410.27 507.09c3.62 4.31 1.92 9.65 2.73 14.48.59 3.38.18 7 1.24 10.2 1.64 5 1.23 9.4.2 14.55-1.81 8.95-7.29 14.79-14 19.46-9.47 6.58-19.75 12-31.84 11.65-2.63-.08-5.21-1.64-7.83-2.45-1.61-.5-3.25-.88-5.26-1.43-.15 3.06-.28 5.4-.4 7.76-.53-1-1.42-1.8-1.51-2.76-.23-2.38.06-4.79-.16-7.19a131.89 131.89 0 0 0 -1.63-14 31.31 31.31 0 0 1 3.72-22.87c1.77-2.94 5.31-5.09 8.45-6.88 9.57-5.46 19.25-10.8 29.12-15.7 3.32-1.64 6.28-5 11-3.23 1.65.61 4.1-.99 6.17-1.59z" fill="#9b81ea"/><path d="m458.56 905.12c-3 1.26-6 2.42-8.9 3.83q-14.24 6.7-28.41 13.56c-2.57 1.24-5 2.75-7.72 3.83-5.11 4.66-10.53 8.66-17.53 10.85-6.48 2-11.33-1.92-16.75-3.49-4.79-1.41-9.22-3.91-13.86-5.8-3.12-1.28-4.72-3-4.78-6.81-.11-7.09-1-14.15-1.76-21.21-.06-.61-1.1-1.12-1.67-1.68 2.26-5.9 4.51-11.82 6.83-17.7.09-.25.81-.26 1.24-.38 2.35.63 5.92.53 6.82 2a248.31 248.31 0 0 1 11.93 22.75c2.56 5.5 5.3 6.61 9.11 2.23 5.75-6.57 13.78-8.51 21.26-11.6 6-2.49 12.24-4.53 18.34-6.86 3.25-1.24 6.43-2.69 9.65-4 2.05.56 4.1 1.07 6.14 1.67 4.28 1.23 8.62 2.4 12.82 3.83 2.59.87 4.55 1.82 1.91 5.27-2.23 2.69-3.23 6.4-4.67 9.71z" fill="#cecde6"/><path d="m634.28 856.67c1.91-2.28 4.32-4.31 5.48-6.9 2.24-5 9.75-8.48 16.27-6.44 5.09 1.6 10 3.83 15 5.46 2.8.88 5.91.79 8.79 1.5 6.1 1.51 12.16 3.18 18.19 4.91 4.56 1.31 4-3.14 4.68-4.78 2.14-5.69 3.06-11.84 5.09-17.58.88-2.5 4-4.2 4.91-6.71 1.33-3.61 2.87-6.53 6.77-7.66 2.41 3 4.79 5.94 7.24 8.89 3.29 4 6.7 7.88 9.88 12a47.31 47.31 0 0 1 3.5 6.38c-1.17 1.72-3.6 3.73-3.28 5.09 1.48 6.3-2.27 11.31-3.53 16.87-.46 2.06-3 3.59-4.34 5.52-1.08 1.55-1.43 4-2.87 4.85-2.27 1.42-5.28 2.87-7.73 2.53a108 108 0 0 1 -16.51-4.13c-7.66-2.34-15.77-2.29-23.09-6.49-4.32-2.47-10.1-2.48-15.26-3.27-.84-.13-2.75 1.44-2.79 2.3-.31 5.4-3.69 9.07-6.71 13-2.63-3.3-5.31-6.55-7.9-9.89q-5.89-7.72-11.79-15.45z" fill="#cecde6"/><path d="m721.06 797c.31-3.49 6.61-12.45 9.63-12.45 3.54 0 7.13 1.2 10.62 2.11s6.7 2.78 10 2.87c3.83.14 6.43 1.91 8.92 4.25 7.12 6.79 14.24 13.58 21.27 20.44.87.85 1.24 2.2 2 3.65 1.71-2.16 3.71-3.83 4.59-5.94 3.48-8.29 10.74-12.66 17.4-17.74a64.69 64.69 0 0 0 4.85-4.52l.66 37.11c-.58-.07-1.54-.42-1.7-.2-2.44 3.43-5.14 6.71-7.08 10.44-2.87 5.58-9.31 9.13-13.76 7.41-5-1.91-10.29-3.39-15.39-5.2a14.58 14.58 0 0 1 -5-2.64c-7.93-7.41-15.85-14.85-23.47-22.59-3-3-5.17-3.62-8-.17a22.18 22.18 0 0 1 -3.74 2.95c-3.7-5.24-7.37-10.53-11.1-15.72-1-1.45-2.28-2.74-3.42-4.11l2.77-.06.33.23z" fill="#cecde6"/><g fill="#9b81ea"><path d="m476.26 595.74c-11.21-.29-22.2-2.2-31.59-8.43-7.24-4.78-15.23-9.16-20-16.95-6-9.85-4.23-20.41-1.51-30.59 1.22-4.52 4.59-8.53 7.36-12.51.84-1.18 3-1.47 4.48-2.16 4.3 2 8.68 3.94 12.89 6.15 3 1.57 5.62 4.7 9 1.12.91 1.49 1.35 3.25 2.41 3.76 4.68 2.29 5.25 6.64 6.35 11 1 4.07 2.88 7.93 4 12 2.27 7.82 6.22 15.2 5.74 23.76-.17 4.22.61 8.54.87 12.85z"/><path d="m434 512.42c1.91.28 3 .29 3.74-2.28 3.1-11.33 11.42-19.35 24-18.52 5.17.35 10.27 0 15.08 2.87 2.87 1.72 6.47 2.34 9.77 3.34 10.75 3.29 15.61 11.44 17.82 21.66a68.49 68.49 0 0 1 1.59 11.67c.08 1.91-1.1 3.87-1.7 5.81-4.08-3.77-8.68.35-13-.84a82.77 82.77 0 0 0 -9.36-1.84c-4.4-.69-9-.69-13.2-1.92-4.83-1.45-9.37-3.94-14-6.06-.79-.36-1.35-1.51-2.09-1.59-7.84-.85-11.65-8.42-18.44-11-.15-.12-.11-.87-.21-1.3z"/><path d="m457.27 949.56c3.42 1.44 6.87 2.87 10.29 4.35a19 19 0 0 1 4.64 2.27c5.28 4.34 10.71 9 13.15 15.32 2.5 6.49 5.68 13.41 2.27 20.88-.71 1.54-.36 3.55-.5 5.35-9.29 6.46-18.27 13.4-29.52 18.19-1.25-1.76-2.87-3.93-4.37-6.18-3.72-5.51-7.29-11.11-11.1-16.55-1.31-1.91-1.79-3 .79-4a3.8 3.8 0 0 0 1.71-2.2c3.35-10 6.6-20 9.93-29.93.84-2.52 1.8-5 2.71-7.5z"/><path d="m571.24 456.66c.27 1.08.18 2.6.87 3.17 4.13 3.49 5.83 8.57 4.17 13.2-2.51 7-4.78 14.13-10 19.85-3.59 3.95-7.25 6.84-13 7.28-14.41 1.12-32.27-7.57-40.44-14.8-2.06-1.81-2.58-5.36-3.83-8.12 4.79.23 9.57.77 14.3.6 4-.14 8.35-.27 11.9-1.87 9.92-4.47 19.53-9.64 29.19-14.68a67 67 0 0 0 6.84-4.63z"/><path d="m519.84 913.24c-4.52 1.26-9 2.72-13.6 3.7a19.12 19.12 0 0 1 -6.62-.08c-4-.58-8-1-11.8-2.31-4.44-1.5-8.62-3.83-12.91-5.74a14 14 0 0 0 -3-.62q3.87-10 7.7-20.07a1.46 1.46 0 0 0 .17-.87c-2.58-7.5 3.66-11.49 6.7-16.69 3.34-5.74 6.75-11.42 10.22-17.29 1.71 6.16 3.14 11.94 5 17.61a174.82 174.82 0 0 0 6.18 17.12c3.75 8.57 7.95 16.86 11.96 25.24z"/><path d="m509.07 977.72c-3.33-5.75-6-11.8-5.52-18.62.43-6.5.71-13.1 2.12-19.42.87-3.9 3.65-7.41 5.74-11a30.71 30.71 0 0 1 4.26-6 51.48 51.48 0 0 1 6.07-4.64c1.33 1.09 3.33 1.91 3.83 3.3 3.17 8.29 9.82 13.53 16.41 18.63 2.63 2 2.51 3.63.8 5.41-5.33 5.58-10.91 10.93-16.35 16.4-3.38 3.4-6.58 7-10.07 10.25-2.27 2.07-4.84 3.79-7.29 5.69z"/><path d="m482.73 467.88c-.8 1.33-1.3 3-2.41 3.91-10.89 9.13-24.24 11.63-38.22 5.75a22.38 22.38 0 0 1 -11.05-9.54 41.53 41.53 0 0 1 1.63-4.87c2.09-4.53 4.31-9 6.51-13.49a46.29 46.29 0 0 1 4.05-7.59c.51-.67 3.24-.53 4.24.21 2.82 2.12 5.08 5 7.91 7.09 7.44 5.59 14.51 11.8 23.72 14.62 1.47.49 2.43 2.58 3.62 3.91z"/><path d="m624.85 478.5c-1.39-.72-2.78-2.06-4.15-2.05-10.15.15-18.73-3.6-26.38-9.94a6.84 6.84 0 0 0 -2.51-1.66c-6.1-1.46-9.74-4.89-9.89-11.49a20.15 20.15 0 0 0 -.84-3.83c.37-.59.63-1.55 1.14-1.71 6.38-1.91 10.32-6.61 13.76-11.95a33.42 33.42 0 0 1 3-3.48c14.51 11.29 23.19 25.85 26.88 43.73l5.67.7v.84l-4.16 1.54z"/><path d="m377.84 754.63a3.24 3.24 0 0 1 .88.06c4.28 1.23 8.82 1.91 12.77 3.83 5.95 2.87 9.39 8.52 12.59 14.13-1.62 3.68-2.88 7.56-4.93 11-4.46 7.6-9.5 14.86-13.88 22.5-2.63 4.6-4.45 9.66-7.12 14.43-3.15-21.99-2.15-43.97-.31-65.95z"/><path d="m554 533.32c2.09-5.87 3.52-12.09 6.45-17.5 3.91-7.2 8.92-13.81 13.61-20.57.77-1.1 2.31-1.66 3.49-2.47-.63 4.59-1.47 9.15-1.86 13.76-.54 6.37-.72 12.77-1.18 19.15a8.23 8.23 0 0 1 -1.28 2.78c-1.26-.45-2.76-1.57-3.75-1.22-5.27 1.81-10.38 4.01-15.48 6.07z"/></g><path d="m737.48 552.2c-1.92 2.06-3.83 4.11-5.69 6.18l-8.22 9.08c1.25-4 2.75-8 3.69-12.11a86.5 86.5 0 0 0 1.2-9.88z" fill="#cecde6"/><path d="m376 717.55c.34.6 1 1.18 1 1.79.31 11.75.56 23.52.83 35.28-.56-1-1.55-2-1.63-3.06-.45-6.24-.28-12.56-1.14-18.74-.76-5.25.13-10.21.94-15.27z" fill="#9b81ea"/><path d="m598.44 723.68 4.12 7.05c-4 3.61-4.79-.83-6.95-1.36z" fill="#9b81ea"/><path d="m269 810.45c.46.81 1.33 1.64 1.32 2.45 0 4.6-.32 9.19-.51 13.8z" fill="#cecde6"/><path d="m395.86 351c-.54-1.55-1.08-3.11-1.63-4.66a8 8 0 0 1 2.53-1.46c.9-.13 1.71.48 2.58.76a10.33 10.33 0 0 0 -1.53 1.64c-.72 1.24-1.31 2.51-1.95 3.72z" fill="#9b81ea"/><path d="m706 763.53 1.2 8.62z" fill="#cecde6"/><path d="m705.1 752.7q.36 3.63.7 7.26c-.23-2.42-.47-4.84-.7-7.26z" fill="#cecde6"/><path d="m477.93 677.11c-.45-2.21-.89-4.43-1.34-6.65.41 2.22.89 4.44 1.34 6.65z" fill="#9b81ea"/><path d="m477 661.76c-2.27-1.65-2.32-3.27 0-4.86.07 1.62.05 3.24 0 4.86z" fill="#9b81ea"/><path d="m269.82 830.34 1 5.48z" fill="#cecde6"/><path d="m810.66 836c.21-1.56.42-3.12.62-4.68-.2 1.6-.36 3.18-.62 4.68z" fill="#cecde6"/><path d="m476.54 668.9.75-3.72z" fill="#9b81ea"/><path d="m451 531.31-.44-.65c.3-.16.61-.31.95-.47.09.26.31.56.23.74s-.54.25-.74.38z" fill="#9b81ea"/><path d="m375.08 712.14.73 1.92z" fill="#9b81ea"/><path d="m483.22 537-.54.46c-.17-.27-.35-.54-.51-.82.23-.09.49-.3.68-.26s.25.42.37.62z" fill="#9b81ea"/><path d="m472.51 708.3.89-1.27 1.26 1.35z" fill="#9b81ea"/><path d="m809.62 751.88a2 2 0 0 1 -.06-.84l.65.59z" fill="#cecde6"/><path d="m433.26 990.52c-.1-.34-.21-.68-.32-1l.71.14c-.13.27-.25.57-.39.86z" fill="#cecde6"/><path d="m647.65 287.61a18.44 18.44 0 0 0 -1.57 3.59 40.07 40.07 0 0 0 -.33 5.36c-3.75-6.09-7.11-11.49-10.46-16.94-1.08-11.32 1.8-22.67-.5-34-1-5.06-.8-10.37-1.17-15.57-.24-3.44-3.14-5.55-5.56-4.09-3.2 1.92-6.14 4.53-9.58 5.75-8.93 3.11-16.77 9.94-27.16 8.25a3.46 3.46 0 0 0 -1.77.23c-10.15 4.1-20.62 2-30.78.77-7.74-1-15.19-4.11-22.78-6.27-4.79-1.37-9.92-2.14-14.42-4.22-5.94-2.75-11.49-6.42-17.08-9.86-6.05-3.7-12.28-7.2-17.9-11.49-6.13-4.63-11.62-10.19-17.5-15.16a6.39 6.39 0 0 0 -3.72-1.24c-11.64-.28-21.57 4.78-31.21 10.4a43.75 43.75 0 0 0 -9.72 7.11c-4.11 4.35-9.79 7.53-11.36 14-1.82 7.45-3.83 14.85-5.46 22.34-.77 3.56-.77 7.29-1.16 10.93q-1.09 10.13-2.23 20.24c-3.22 5.59-6.4 11.2-9.68 16.75-1.25 2.12-2.75 4.09-4.13 6.12-.56-1-1.68-2.09-1.6-3.05.67-7.71 1.72-15.4 2.33-23.12.3-3.83-.39-7.73-.09-11.56.36-4.33 2.37-8.79 1.78-12.91-.85-5.86 2.08-10.53 2.87-15.74 1-6.93 4.66-12.12 8.33-17.57a21 21 0 0 0 3.33-7.83c.85-4.92 4.49-7.49 7.66-10.48s6.49-6.4 10.24-8.85a49 49 0 0 1 12-5.62c6-1.91 12.14-3.93 18.31-4.26 9.47-.51 18.5 2.81 26.56 7.47 4.79 2.76 8.19 7.83 12.52 11.49 5.34 4.42 9.89 9.82 16.85 12.42 4.2 1.53 7.71 4.89 11.74 7 5.2 2.76 10.4 6 16 7.4 3.83 1 8.41-.71 12.67-1 2.87-.22 5.67-.08 8.52-.19 7.31-.29 14.64-.79 22-.9 9-.13 17.3-3.27 25.65-5.93a58.72 58.72 0 0 0 19-10.12c4.23-3.37 9.48-5.44 12-10.67 1.43-2.88 3.19-5.68 4.26-8.71 2.62-7.53 5.1-15.13 7.28-22.81.82-2.87.63-6 1-10.48 2.46 2.21 4.18 3.25 5.18 4.79 4.78 7.21 6.34 14.62 4.11 23.54a70.47 70.47 0 0 1 -10.89 23.79c-2.12 3-3.24 6.53-7 8.18-.61.26-1 2.22-.67 3.22a95.75 95.75 0 0 1 2.65 27.4c-.26 6.18.5 12.45.89 18.62.62 7.78 1.2 15.63 1.75 23.48z" fill="#5a30df"/><path d="m452.81 395.52c8.76 1.78 14.87.5 18.7-6.36a11.06 11.06 0 0 1 2.06-3.09c.82-.68 2.24-1.37 3.12-1.12a72.86 72.86 0 0 1 7.54 3.11c1.17 5.43-3.56 8-6.9 11.75 7 5.75 12.93 13 22.07 15.76a19.31 19.31 0 0 0 6.25.46c6.26-.24 12.55-.36 18.75-1.16a21.94 21.94 0 0 0 8.6-3.47c3.34-2.12 6.2-5 9.32-7.41a2 2 0 0 1 1.67-.16c3.54 1.19 7 2.47 10.74 3.83-1.66 5.33-5.37 8.34-9.83 11.4-3.44 2.36-6.4 5.33-10.64 5.93-9.45 1.32-18.91 2.6-28.41 3.42-2.42.21-5-1.35-7.49-2.16a45.61 45.61 0 0 1 -7.43-2.58 135.06 135.06 0 0 1 -12.75-7.67c-4-2.76-8.14-5.48-9.95-10.54-.38-1.07-2.87-1.51-4.44-2-2.63-.79-5.52-1-7.88-2.21-1.28-.71-1.7-3.01-3.1-5.73z" fill="#5a30df"/><path d="m508.74 341.13c1.18-3.57 2.41-7.12 3.52-10.72.77-2.51 1.25-5.13 2.07-7.66.71-1.83 1.5-3.63 2.39-5.39l1.21.45 2 8.93.71 3.38c.22 1.24.45 2.5.67 3.74.51 6.54.8 13.11 1.57 19.61 1.18 9.78-1.84 15-11.36 18.19-3.07 1-4.64 1.68-2.34 5.46 3.95 6.47 6.78 7.14 13.16 2.52 3.65-2.65 7.84-4.57 11.92-6.88 3.09 7.46-4.26 15.32-10.53 18.61-7.36 3.93-12.53 4.56-17.94-1.62a37.74 37.74 0 0 1 -4.54-7.51c-1.27-2.46-1.91-5.27-3.45-7.54-2.33-3.51.07-5.39 2.1-7.3a11.41 11.41 0 0 1 4.62-2.6c5.39-1.49 5.67-5.45 5.28-9.92s-.7-9.16-1.06-13.75z" fill="#5a30df"/><path d="m521.3 333.89c-.22-1.24-.45-2.5-.67-3.74.22 1.24.45 2.5.67 3.74z" fill="#9b81ea"/><path d="m553.93 267.79a45.66 45.66 0 0 1 18.19-15.79c6.54-3.23 11.9.46 17.84 1.52 6.48 1.14 10.45 6.4 16.22 8.55.22.08.2.84.28 1.27l-12.86-1.62c-.15 0-.33-.12-.44-.07-6.1 3.11-12.44-2.14-18.71.75q-8.54 3.72-17.4 6.57c-.83.29-2.05-.75-3.12-1.18z" fill="#5a30df"/><path d="m443.8 254.31c6.71-2.14 12.81-7.83 20.39-5.15s16.39 2.22 21.61 9.65c1.5 2.15 2.18 4.86 3.24 7.32-1.44-.26-3.3 0-4.24-.85-5-4.4-11.49-4.53-17.33-6-6.22-1.6-12.79-1.91-19.23-2.58-1.48-.15-3 .9-4.59 1-.52 0-1.14-1.05-1.71-1.63z" fill="#5a30df"/><path d="m475.26 272c-9.36.7-18.7 1.6-28.07 2-4.38.19-8.82-.56-13.23-.87 1.77-1.12 3.42-2.8 5.34-3.24 5.59-1.26 11.38-1.68 16.92-3.08 6.58-1.67 12.22.7 18 3.06.52.27.69 1.43 1.04 2.13z" fill="#5a30df"/><path d="m601.73 273-4.38.24-11-.75-4.3-.22c6-4.37 12.37-4.43 18.93-1.55.52.22.52 1.51.75 2.28z" fill="#5a30df"/><path d="m515.34 295.67c1.14 2.47 2.27 4.94 3.4 7.43-3.43.74-4.32-1.92-5.11-4.19-.27-.78 1.1-2.15 1.71-3.24z" fill="#5a30df"/><path d="m443.8 254.31-1.8 1.76z" fill="#9b81ea"/><path d="m483.45 338.92c-6-4.44-12.19-8.86-20.35-2.54-.33 2.39-.81 6-1.29 9.62-5.45.42-7.85-1.18-6.62-8 1.08-6-2.63-5.07-5.36-6.27a14.31 14.31 0 0 0 -1.4-.46c-4.38 2.73-4.45 10.93-12.32 8.61-2.12-5.61.41-10 3.73-14.09-3.17-7.18-5.65-14.46-5-22.46.25-2.88 1.28-5.28 4.59-4.74 2.87.47 5.9.95 6 5.35.18 7.29 2.64 13.7 8.91 18.19 3.67 2.61 6.8-.35 10.1-1 2-.35 3.95-1.71 5.74-2.93 1.12-.77 2.47-2 2.62-3.21.51-3.95 3.31-7.45 1.69-12-.48-1.33 2.15-4.13 3.83-5.75.72-.69 2.87-.36 4.1.11 2 .75 5.54 2.06 5.5 3a93.25 93.25 0 0 1 -2.22 16c-.42 2-2.43 3.63-3.23 5.62a4 4 0 0 0 .64 3.55c3.69 4.01 3.98 9.76.34 13.4z" fill="#5a30df"/><path d="m582.34 336.19c-1.57 4.11-3.22 8.47-5 13.14-1.31-1-1.85-1.67-2.45-1.73-6.08-.61-7.26-5.64-7.91-10-.59-3.9-3.14-4.31-5.75-6.13-1.38 3.6-2.56 6.9-7.05 5.9-2.94-.66-5-3.37-3.45-5.75 2.52-3.92 2.18-7.73.43-11.49-2.71-5.84-.73-11.42.83-16.89.76-2.61 2.29-6.21 6.59-3a7.37 7.37 0 0 0 3.72 1c2.53 6.83 4.46 13 7.07 18.83 2.38 5.36 7.75 5.62 14.52 2.65 7.4-3.26 8.45-9.93 9.71-16.28.68-3.44.95-6.2 4.78-7 4.56-1 6 2.78 7 5.75 2.42 7.23 1 14.1-3.48 20.35-.42.59 0 2.09.45 2.93 1.6 2.92 5.19 4.74 4.23 9.05-.74 3.34-2.31 4.2-5.66 3-5.92-2.08-11.38-6.52-18.58-4.33z" fill="#5a30df"/><path d="m586.4 272.5 11 .75c-3.83 1.11-7.54 2.3-11-.75z" fill="#9b81ea"/></svg>