<svg fill="none" height="11" viewBox="0 0 7 11" width="7" xmlns="http://www.w3.org/2000/svg"><path d="m1.49994 10.9999c-.13161.0008-.26207-.0244-.38391-.0742-.121835-.0498-.232651-.1231-.326091-.2158-.093728-.0929-.168123-.2035-.218891-.3254-.050769-.1219-.076907-.2526-.076907-.38457 0-.13201.026138-.26272.076907-.38458.050768-.12186.125163-.23246.218891-.32542l3.310001-3.29-3.180001-3.31c-.186251-.18736-.290792-.44082-.290792-.705 0-.26419.104541-.51764.290792-.705.092961-.09373.203561-.16812.325421-.21889s.25257-.076909.38458-.076909.26272.026139.38458.076909.23246.12516.32542.21889l3.86 4c.18323.18693.28586.43825.28586.7s-.10263.51307-.28586.7l-4 3.99997c-.08976.097-.19783.1751-.31798.2301-.12015.0549-.24999.0855-.38202.0899z" fill="#8b8f9d"/></svg>