<svg xmlns="http://www.w3.org/2000/svg" width="440" height="528" viewBox="0 0 978.1 1198.51"><defs><style>.cls-1{fill:#fdccc7;}.cls-2{fill:#512bde;}.cls-3{fill:#fa5948;}.cls-4{fill:#452887;}.cls-5{fill:#f95848;}.cls-6{fill:#9b81ea;}.cls-7{fill:#532cde;}.cls-8{fill:#cdcde5;}.cls-9{fill:#cccce5;}</style></defs><title>Ativo 20Segurança</title><g id="Camada_2" data-name="Camada 2"><g id="Camada_3" data-name="Camada 3"><path class="cls-1" d="M78.89,447a2.62,2.62,0,0,1-1.76-2.22c-.27-9.85-5.2-18.86-5.14-28.76,3.58,4.51,7.83,5.53,13.07,2.87,4.63-2.34,8.86-5.7,9.19-10.72.25-3.77-3.75-6.39-7.21-8.65-8.45-5.53-9.13-5.7-18.14.17C64.57,388.74,64,377,62.53,365.56c-.92-7.09-.52-14.83.16-22.33.55-6.21-.13-12.59.16-19,.62-13.37.86-26.87,3.45-39.93,2.44-12.35,5.14-24.73,8.83-36.89,2.56-8.45,8-15.64,9.43-24.42.94-5.87,5.51-10.75,6.47-15.84,1.28-6.82,6.62-9.57,9.34-14.6.85-1.57,2.61-2.59-.87-2.16-.63.08-1.16-.61-.51-1.38,1.46-1.74,1.69-4.67,4.09-5.35,4.32-1.21,5.62-4.37,6.25-8.22.07-.43.34-1.15.59-1.19,6.62-.9,8.44-7.73,13.4-10.76,6.55-4,12.46-9,19.14-12.82,5.66-3.26,12.08-5.49,15.94-11.32.21-.32,1-.71,1.11-.61,3.79,3,5.51-1,8-2.31,3.26,1.14,5.27,2.56,5.79,6.82.59,4.82.16,10.12,1.94,14.41,2.63,6.34-1.06,14.45,5.69,19.4.39.28.53.35.22.63-3.85,3.34.16,6.74-.18,9.89-.48,4.45,2.31,4.74,4.83,5.88,2.93,1.33,5.05,0,6.87-2.23,3.25-4,6.4-8,9.8-11.86,1.82-2.06,4.83-3.16,5.62-6,1.26-4.61,5.76-6.72,7.84-10.68.74-1.41,2.11-.87,3.47-.85,5.77.1,10.07,3.64,15,5.82,6.27,2.78,13,4.47,19.15,7.66,5.83,3,10.54.11,10.47-6a5.87,5.87,0,0,1,.45-2.43c3.53-7.78,2.53-16.56,5.52-24.49,3.46-9.16,2.84-19.24,6.2-28.45,5.64-.16,11.77-1.21,16.81,0,6.74,1.64,13.51,0,20.27,2.5,7,2.53,14.88,2.86,22.43,3.37,4.25.28,8,1.82,12,2.67,13.86,3,27.59,6.53,41.45,9.52,13.41,2.89,27.11,4.33,40.53,6.83,7.19,1.34,14.58,4,22,5.43,17,3.4,34,7,51.64,6.94,9.05-.05,18.13,2.09,27.27,1.71,12.65-.53,25.35-.07,38-1.61,3.78-.46,7.64-.23,11.46-.35,6.7-.2,13.29-1.77,19.9-2.21,10-.66,19.89-2.33,29.77-3.84,14.41-2.2,29-2.81,43.42-4.39,11.87-1.3,23.82-2,35.75-2.42,8.63-.31,17.32-2.05,25.73-1.57,8,.46,15.65-1.2,23.57-.83,10.52.5,21.11,1.69,31.71.44,3.18-.38,6.28,1.19,9.59,1.48,16.24,1.45,32.65.38,48.75,3.43,8.47,1.6,17.46,2.27,24.92,6.37,5.25,2.88,11.24,4.48,15.91,8.81s10.36,7.35,15.45,11.16a70.31,70.31,0,0,1,13.94,13.79c5.28,6.95,11.39,13.32,16.17,20.59,5.33,8.11,6.69,17.62,7.43,27.26.8,10.43,1.31,21,.23,31.24-1.31,12.49-.51,25.24-4.18,37.55-1.87,6.29-2,13.19-2.34,19.64-.39,7.13-3.75,13.51-3.51,20.47.15,4.41-3.34,8.44-1.1,13,.14.29-.23.84-.39,1.26-3,7.91-3.79,16.22-5.22,24.47a81.66,81.66,0,0,1-3.63,13.4c-2,5.51-4.72,10.91-4.22,16.91.19,2.26-1.78,2.42-2.27,4.2-3.46,12.49-7.67,24.78-11.64,37.13-2.11-1.92-4.07-4-7.3-4a10.54,10.54,0,0,1-6.93-2.24c-1.38-1.08-3.79-2.64-6-1.86-1.59.57-3.18,2-1.85,4.23,0,0-.15.29-.27.32-6.3,1.9-1.25,4.6-.18,6.46,1.29,2.23,3.48,3.95,5.29,5.88,3.6,3.83,7.93,7,10.55,11.68-.49,4.48-3.25,8.61-2,13.35l0-.08-1,1.2c-2.16,5-6.39,8.48-9.23,13-4,6.45-4.29,6.29,2.11,9.82-3.7,7.59-2.66,15.78-3,23.8-5.27,1.73-10.44,3.94-15.83,5.1-11.54,2.46-22.76,5.32-33.22,11.31-10,5.7-17.3,13.79-23.74,22.84-3.11,4.36-8.92,7.92-6.35,14.87.07.19-.7.6-.84,1-1.66,4.52-4.93,8.5-3.23,14,.55,1.8,3.12,5.29-1.34,6.86-8.4,3-15.48,8.51-23.54,12.18-2,.93-4.3,1.69-5.05,4.35-.39,1.37-1.47,1.67-2.53.36-5.31-6.56-13.27-7.4-20.62-9.53,1.08-8.42.16-16.88.15-25.3,0-8.06.81-16.05.89-24,.07-6.72.27-13.52.6-20.19.45-8.9.11-17.79.4-26.68.18-5.54-1.47-11.12-1.55-16.7-.07-4.88-2.61-8.92-3.6-13.48a36.35,36.35,0,0,0-7.81-15.95c-1.35-1.59-3.45-1.79-4.47-3.7-3.81-7.18-11-11.42-15.56-18.3-4.67-7-13.1-11.28-18.76-18,4.86-4.61,10-9,14.52-13.88,5.21-5.62,10.72-11.12,13-18.87,1.09-3.69.33-5.91-3.7-6.19a18,18,0,0,1-9.13-3.33c-3.18-2.25-5.8-1.63-8.73-.1-11.67,6.08-20.8,14.73-26.85,26.5-4-5.34-9.75-8.66-14.64-13-2-1.74-4.44-1.95-6.18-3.79-7.3-7.72-16.6-13.37-22.87-22.16-1.4-2-5-1.12-5.6-4.36-.4-2.12-2.14-3.12-4.07-4-5.42-2.47-9.52-7-14.2-10.46-2.52-1.89-6.8-2.68-7.74-6.67-3.93,2.06-3.53-2.28-5.2-3.55-.66-.49-1.1-1.43-1.81-1.69-5.53-2-8.17-7.59-13.11-10.28-4.3-2.34-7.34-6.86-11.7-8.5-7.9-3-16-5.51-23.82-8.68-3.24-1.32-6.5.08-9.76.08q-69.45-.12-138.91,0c-12.91,0-25.82.38-38.72.58-15.73.24-31.55,1.5-47.25-.74-8.43-1.21-16.66,1.2-25,1-8.94-.17-17.55,8.51-18.57,17.4-.81,7.07-.6,14.18-1.74,21.25-1.79,11.16-1,22.52-1.52,33.78-.52,11.79-.13,23.58-.26,35.34-.15,13.77.4,27.61-.09,41.39-.55,15.45.4,30.87.18,46.31-.19,12.32,1.1,24.66,1.74,37-.87,4-2.21,8.09.94,11.8L265,614c-3-.11-6,0-8.93-.35-13.21-1.4-26-1.17-36.83,8.18-1.15,1-3.09,2.55-4,.23-1.19-2.92-3.84-3.55-6-4.74-7.18-3.93-14.44-7.72-21.86-11.15-2.49-1.15-2.81-2.37-2.33-4.67a25.82,25.82,0,0,0-.07-11c-.64-3-3.55-4.76-3.08-7.74a9,9,0,0,0-2.12-7.75c-2.7-3.25-6.06-6.3-8-9.76-7.27-13-19.88-18.31-32-24.81-6.75-3.62-14.25-2.9-21.16-5.29-5.06-1.75-10-3.93-15.42-4.82-2.7-.45-5.75.68-8.16-1.43-2-8.42-4.75-16.75-5.93-25.29-1.29-9.38-4.24-18.43-5-27.84-.39-4.82-3.83-8.89-3-13.91a33.76,33.76,0,0,1,5.17,3.76c3.87,3.28,9.46,2.21,15.85-2.09,4.47-3,3-6.71,2-10.49s-4.16-5.73-6.74-8.18c-5.67-5.38-8.61-5.43-14.85-.38C81.39,445.42,80.11,446.17,78.89,447ZM761.18,243.06c-5-1.26-10.27,1.44-15.69,2.57-11.14,2.32-21.16,7.84-31.58,12.17-9.67,4-17.73,10.85-24.38,18.71a93.44,93.44,0,0,0-20,39c-1.71,7.22-.69,10.75,5.65,14.1,1.46.77,2.92,1.55,4.32,2.41A199,199,0,0,0,718.58,350a153.44,153.44,0,0,0,21.5,5.2c7.08,1.34,14.25-1,21.19,1.28,2.11.69,2.36-2.92,2.69-2.28,1.5,2.94,2.19.89,3.49,0,.61-.41,2.69-.85,2.7.74,0,2.65,1.64,2.08,3,1.92,9.33-1.1,18.83-.46,28.05-2.66,16.31-3.88,31.12-11.33,45.53-19.6,3-1.71,5.22-4.66,8.13-6.52,6-3.85,8.39-8.63,6.94-15.44-.75-3.52-1.56-7-2.47-10.49-3.24-12.29-11.23-22.17-17-33.17-2.1-4-5.86-6.5-9.46-9.25-6.48-4.93-14.2-6.7-21.48-9.33A124.65,124.65,0,0,0,761.18,243.06Zm-523.4,27.76c1.28,11.08.91,21.63,2.15,32.15.65,5.6,3.5,9.3,8.87,11.11,3.41,1.15,7.38.62,10.25,3.37a1.24,1.24,0,0,0,2.08-.23c3.27-4.55,6.79-8.56,6.06-15.19-1.52-13.77-3.26-27.54-3.35-41.47A179.68,179.68,0,0,0,262,234.07c-.27-1.71-.53-3.87-2.47-3.66-5.23.57-9.27-2.27-13.43-4.38-2.74-1.39-4.42-.93-6,1.11-3.47,4.6-7.4,9-10.06,14-6.1,11.6-12.22,23.22-17.19,35.39-5.39,13.19-7.32,10.32,6.73,15.84,1.33.53,2.74,1,3.53-.43,1.88-3.36,5.3-5.39,7.07-8.93C232.37,278.78,235.24,274.88,237.78,270.82ZM271,269.14a29.19,29.19,0,0,0,1.56,12.68c2.61,7.74,6.14,15.18,13.13,20.24s15.56,5.1,23.39,7.47c1.27.39,1.67-.63,2.48-1,4.85-2.05,8.23-5.86,11.73-9.49,4.44-4.63,8.82-9.57,10.55-15.79a54.15,54.15,0,0,0,1.25-23.13c-1.65-10.45-5.58-19.48-14.93-25.44-6.39-4.06-14-4.77-20.72-7.89-4.4-2-8.64-.85-12.11,1.69a29.9,29.9,0,0,0-10.19,12.54A76.66,76.66,0,0,0,271,269.14Zm118.3,30.63c1.77-1.82,2.27-4.53,4.66-5.73,3.21-1.61,2.63-4.3,1.69-6.85-.43-1.19-1.34-2.19-1.67-3.54A227.07,227.07,0,0,1,388,240c-.33-8.06-2.64-15.57-5.55-22.95-.48-1.21-.93-2.74-2.54-2.7-5,.12-9.11-2.43-13.33-4.49-3.19-1.56-5.24-.85-7.75,1.58-7.45,7.21-11.21,16.45-14.79,25.77-2.41,6.28-4.16,12.77-4.19,19.67,0,5.86,4.29,6.59,8.3,8.12s6.12-.46,7.81-3.81c2.4-4.75,5-9.39,8.06-15a233,233,0,0,1,2.86,29.4c.36,8.86.76,17.3,11.95,19.32,2.06.37,4.07,1,6.12,1.45S388.73,297.51,389.29,299.77ZM798.66,387.1a13.16,13.16,0,0,0,2.77-1c3.24-1.87,6.9-3.07,10.2-4.64,6.24-3,13.13-4.33,19.6-7.83A111.6,111.6,0,0,0,848.47,362c6-4.9,6-5.64-1-7.6-3-.83-5.79-4.41-8.83-2.42-8.83,5.8-18.93,8.86-28.15,13.68-13.34,7-27.72,7.59-42.08,7.92-7.78.18-15.63-1.12-23.46-1.66-8.5-.58-17.13-1.64-25.09-4.7-10.59-4.06-21.49-7.16-32.15-11-1.05-.37-3.63-2.6-4,.06-.2,1.57-1.84,3.9,1.43,6.14,5.75,3.94,12,6.72,18.07,9.85,12.33,6.34,25.41,10.49,38.8,14,3.82,1,7.58.5,11.41,1.33a90.62,90.62,0,0,0,35.76.12C792.24,387.15,795.05,385.89,798.66,387.1ZM647,216.92a20.41,20.41,0,0,0,.56,5c5.48,16.94,17.39,26.74,34.26,31.1,3.27.85,6.3,2.58,9.58-.76,4.54-4.63,5.73-8.65,3.41-14.73-3-7.84-8.57-13.63-14.79-18.92-7.68-6.53-17.94-7.09-26.56-11.45-1-.51-1.91.29-2.52,1.15C648.91,211.08,646.23,213.57,647,216.92Zm130.12-17.23c.19-2.39-1-6.18-1.81-10-1.12-5-3.27-8.4-9-8.77a12.39,12.39,0,0,1-6.4-2.26c-4-3.06-5.7-.6-7.89,2.28a18.46,18.46,0,0,0-3.71,8.48,157.82,157.82,0,0,0-2.08,22.07c0,4.5-1.11,9.78,3.63,13.32,4.94,3.68,10.9,4.42,16.52,6.14,1,.31,1.86-.42,2.59-1.18,3.66-3.84,6.73-7.95,7-13.55C776.27,211.22,776.64,206.27,777.07,199.69Zm98,16.45c.78-3.63-1.4-5.15-4-6.06-3.22-1.12-6.55-1.81-9.54-3.64a5.8,5.8,0,0,0-5.32-.07c-13,6-22.77,15.34-28.65,28.47-1.12,2.51-1.11,4.93,2.15,6.56,5.22,2.61,10.33,5,16.41,4.9,3.23-.05,6.44,1.77,9.25-1.55,3.17-3.74,6.94-7,10.06-10.78A58.25,58.25,0,0,0,875.11,216.14ZM754,419.59c0,2-.1,3,0,4,1.37,11.76,3.75,18.9,14.61,20.59,6.57,1,11.62-1.76,13.37-8.22,1.89-7,2.32-14.22,2.63-21.38a25.47,25.47,0,0,0-2.84-12.4c-1.66-3.32-5.15-1.48-7.47-3-1.6-1.06-3.86-1.11-5.47-2.15-2.93-1.91-4.91-.82-6.86,1.4C756.39,404.73,753.52,412,754,419.59Zm111-4.38a6.77,6.77,0,0,0-.86-3.6c-2.18-5-6.59-8-10.14-11.84-5.46-5.86-13.34-6.6-20-9.93-4.67-2.34-7.87.71-11.07,2.31-1.41.71-4.84,4.1-3,7.11,6.39,10.31,12.61,21,24.64,25.89,4,1.63,8.9,4.61,12.54,2.17C861,424.69,864.72,420.52,865,415.21ZM153.35,224c-.36,3.84,2.47,6,4.68,8.53,6,6.94,13.59,4.37,19.34-1.39,7-7,6.6-9.72-1.2-16.45-.87-.76-1.94-1.3-2.76-2.1-4.68-4.56-9.59-4.95-14.16-.62C155.89,215.18,152.93,218.77,153.35,224Zm30.67,273c-8.83-.08-14.64,6.64-11.74,13.4,5.51,12.82,15,15.55,26.23,7.56.54-.38,1.12-.73,1.63-1.15,3.46-2.85,3.77-5.68.74-8.83a74.07,74.07,0,0,0-7.64-7.08C190.52,498.84,187.72,496.56,184,497.05Zm-67-11.44c-.3,2.72,1,4.85,2.77,6.64,4.44,4.41,8.26,9.52,16.09,8.14,2.66-.47,6.49.07,7.45-2,1.82-4,5-8.18,3.27-12.89-2-5.56-9.86-9.53-15.76-8.65a11.81,11.81,0,0,1-3.38.44A8.68,8.68,0,0,0,117,485.61ZM101,314.44c0,4.64,7,12.67,11.66,13,1.94.15,3.49-1.61,5.53-2,1.6-.3,2.37,1.68,4.27.49,5.13-3.21,7.5-12.28,3.27-16.29-1.76-1.67-2.25-4.76-5.49-5.13-1.9-.22-2.53-2.7-4.15-3.72a2.66,2.66,0,0,0-1.35-.46C109.7,300.3,101.06,309.19,101,314.44ZM137.46,255a17.2,17.2,0,0,0-8.75,3.88c-2.59,2.19-2.87,5.89-3.37,8.66-.9,4.91,9.78,13.52,15.53,13.48,6.09-.05,12-5.91,11.83-11.79C152.57,264.4,143.27,255,137.46,255Zm99.1,288a7.55,7.55,0,0,0,2.23,0c4.73-.82,8.37-2.94,9.38-8.13.86-4.44-.11-8-4.29-10.42-5.1-2.9-10.74-2.49-16.11-1.93-4.43.45-7.83,6.06-7.79,10.78,0,5.08,2.39,7.88,7.5,8.91A36.54,36.54,0,0,0,236.56,543ZM110.77,360.62c.64-1.84-.56-3.18-1.5-4.79-1.85-3.17-5.62-4-7.7-6.8-2.75-3.7-6.32-4-10-1.76-3.92,2.42-7.89,5.2-6.39,10.75,1.74,6.46,6.16,10.69,12.44,12.68C102.39,372.22,110.75,365.71,110.77,360.62Zm788.79,13c-2.93,1.25-.43,3.28-1,4.82-.26.69-2.68,0-1.05,1.65a2.19,2.19,0,0,0,1.79.5,1.78,1.78,0,0,0,1.27-2.32C900.24,376.77,899.91,375.24,899.56,373.64Z" transform="translate(-9.26 -8.21)"/><path class="cls-1" d="M897.9,623.92c3.68,8.56,7.34,17.14,13.89,24,2.6,2.74,2,6.64,4.17,9.8,7.53,10.87,12.48,23.26,19.81,34.38C945.6,707.05,951.32,724,957,740.91c4.15,12.36,8.08,24.81,12.62,37.06,1.77,4.76,1.46,10.33,3.9,15.28,1,2.07,2.83,4.47,1,8-1.23,2.39,3.65,4.84,3.84,8.76.36,7.46,3.92,14.41,4.44,22,.13,1.94,2,4.39,2.57,6.61,1.06,3.89,2.36,8,.18,12.06-.35.66.11,1.93.48,2.79.82,1.92,2.74,3.42-.57,5.39-2,1.18,1.55,3,1.06,5.63-1.14,6.15-1.73,12.7-.79,18.81.51,3.29-1.53,5.08-1.82,7.71-.24,2.3-.94,4.73-.7,7.15a17.41,17.41,0,0,1-1.33,9.34c-.85,1.89-3.39,4.2-.09,6.51,1.16.81-.69,1.06-.85,1.68-.6,2.25-3,4.55.34,6.74,1.06.69,1,2.87.06,3-6.37.76-5.79,7.61-5.73,9.94.15,5.93-3.7,9.72-5.48,14.34-2.07,5.37-4.2,10.84-6.55,16.16-1.1,2.49,2,1.74,2,3.63-3.47-.44-5.42,1-6.35,4.6-.75,2.95-4.12,5.59-4.26,8.07-.28,4.9-5.91,6.49-5.63,11.38.11,1.8-3.62,1.85-3.33,4.46h0c-2.37.38-3.18,3-5.65,3.61s-.65,3-.61,4.76c-1.31-.16-2.42-1.5-3.73-.38a1.71,1.71,0,0,0-.17-.33c-.05,0-.17,0-.26-.06l.41.41c2.75,4.42-3.36,4.93-3.72,5-5.44,1.81-6.11,7.81-10,10.8-2.7,2.06-3.66,5.85-7.19,7.26-5.53,2.2-7.79,8.9-14.06,10.31-1.51.34-.84,2.28-.94,3.54l0,0c-4.81,1.06-8.75,3.34-11,7.93-.21.43-.28,1.27-.52,1.31-4.88.77-6.27,6.19-10.77,7.83a15.46,15.46,0,0,0-8.36,7.87c-.92,1.84-3.81.57-5.88,1.73-6,3.33-11.8,7.25-19.26,7-1.41-.05-1.74,3.65-4.83,3.75-.93,0-2.52,2.6-4.8,2.29-.06,0-.33,1.47-.49,2.26l-.07.07c-4.65.64-7.81,4.28-12.05,6-7.43,2.94-15,5.35-22.48,8.08-6.36,2.32-13.21,3.39-19,7.3-1.47,1-3.84.84-5.8.88-6.27.1-11.72,3-17,5.66-10.25,5.16-21,5.14-32,5.11-1.6,0-3.18-.28-4.71.94-2.33,1.85-5.12,1.9-7.92,1,1.36-2.38.71-5.29,2.66-7.75,1.62-2-.49-4.4-2-6.36a5.07,5.07,0,0,0-5.91-1.94c-10.66,4.22-22.32,5.47-32.59,10.62-4.37,2.19-6.3.24-9.22-2.3-3.68-3.21-4.7-7.86-7.49-11.55-3.91-5.17-8-10.23-11.15-16a9.37,9.37,0,0,0-7.36-5.13c-3.14-.31-4.41,1.3-5.08,4.25-.26,1.15-2,2-3.13,2.94-1.83,1.59-4.09,2.86-5.45,4.77-5.53,7.79-13.21,13.28-20.23,19.47-8.48.15-16.66-2.52-25.12-2.58-11.7-.09-23.47.43-35.1-.63-13.52-1.23-26.91.27-40.36.37-12.38.1-24.77.9-37.16,2.23-11.17,1.2-22.34,2.62-33.54,3.64-14,1.28-28,2.09-41.88,4.18-13,2-26.19,1.86-39.25,3.54-17.77,2.29-35.79,2.11-53.71,2.77-5.9.22-11.74.56-17.62-.12-4-.46-7.81,1-11.81,1.24-9.68.53-19.29-.17-28.92-.21-13.87-.06-27.59-2.46-41.46-3-3.7-.15-7.45-3.48-11.46-5-11.73-4.3-22.59-10.72-34-15.59a119.55,119.55,0,0,1-22.5-12.06c-9.7-6.87-20-13-28.1-22-2.28-2.55-5.39-4.34-7.92-6.69-7.24-6.73-12.68-15-19-22.53-1.91-2.28-3.6-4.92-6.52-5.47-3.22-.61-1.76-3.44-3-5-2.77-3.73-4.8-8.17-7.18-12.13-5.09-8.52-7.37-18.16-12.22-26.65-1.26-2.2-1.14-4.63-1.73-6.86-2.44-9.24-5.2-18.65-5.62-28.09-.27-6.11-2-11.74-2.51-17.65a37.53,37.53,0,0,1,.24-5l-3.79,1.8c-.57-.7-.3-1.1.14-1.38,3-1.94,3.91-4.41,3.64-8.17-.82-11.58-1.29-23.2-1.76-34.79-.23-5.73-.76-11.64.5-17.69,1.76-8.4,1.05-17.28,2-25.89.54-4.81,2.35-9.48,3.58-14.22,1.59-1.17,3.35.28,4.67-.06,9.16-2.33,16.93-7.07,21.28-15.69,5.75-11.4,5.72-23.6,3.28-35.84-1.59-8-6-14.59-11.3-20.6,1.22-5.83,3.9-11.38,4.75-17.14,1-6.51,4.84-11.9,5.36-18.58.43-5.6,2.94-11,5.35-16.19,2.19-4.75,4.59-9.49,5-14.86.09-1.26,1.35-1.36,1.86-2.15,1.15-1.78,2.9-3.48,1.17-5.85-2.05-2.81,1.09-4.76,1.75-6.73,2.53-7.52,4.94-15.16,7.38-22.68a95.58,95.58,0,0,0,4.6-25.69c8.9,6.34,18.89,10,29.36,13,10.83,3.09,20.57.85,30.29-3.53,1.48-.66,2.85-2.12,4.56-1.52,7.11,2.46,13.89,6,20.53,9.23,4.49,2.2,9,5.45,13.73,7.9,1.79.93,1.82,1.59,1.09,3.49-1.81,4.71-4.66,9.43-3.56,14.67,2.64,12.54,7.84,23.65,18.33,31.84,3,2.39,6.74,3.16,9.82,5.37,11.53,8.26,24.89,11.49,38.65,13.51.57,9.07-.54,18.1-.8,27.15-.43,14.7-.34,29.4-.88,44.1-1,27.06-.1,54.16-1.11,81.24-.62,16.75.31,33.57-.51,50.31-.61,12.39-.12,24.76-.55,37.13-.29,8.07.42,16.23-.51,24.21-.5,4.38,2.24,8.28.66,12.54-.3.82.93,1.21,1.59,1.69,6.52,4.75,13.93,7,21.89,7.48,2.06.13,3.58.11,3,3-.47,2.28,1.19,2.92,3.37,3,5.25.19,10.5.69,15.75,1s10.64,1,15.85.46c8.12-.83,16.22,0,24.28.09,5.21.07,10.6.12,15.7-.15,24.66-1.27,49.33-.25,74-.82,12.47-.28,25.07-1.33,37.71-.26,7.6.65,15.6-.39,23.38-.24,7.58.15,15.13-1.08,22.72-.08,7,.91,14-1.38,21.1-.18,8.83,1.49,17.62-.8,26.4-1.69,2.28-.23,4.46,1.54,6.28.92,6.44-2.16,13-.63,19.4-.85,15.14-.52,30.31-.13,45.46-.2,3.12,0,6.36-1,9.34-.48,7.2,1.32,14.38,0,21.49-.1,6.44-.08,13.17-.53,19.56-.58,11.76-.09,23.61-.47,35.37.31,5.43.36,8.4-1.31,9.17-6.69a2.58,2.58,0,0,1,2-2.44c6.94-2,9.43-7.79,10.94-14,1.39-5.63.84-11.45.74-17.22-.2-11.72,1.77-23.33,2.24-35,.68-16.63-.15-33.28.84-49.93,1-16.24.07-32.53.9-48.81.43-8.25.18-16.66-.18-25-.3-6.75.28-14,.39-21,.39-24.65.2-49.3.23-74,.72-.39,1.45-.75,2.15-1.18,11.3-7,24.79-10.06,32.82-22.84,3.83-6.08,5.66-12.45,8.52-18.63,1.5-3.25.91-6.52-.18-10-.86-2.77-2.13-5.39-2.87-8.2-.24-.93-1.06-1.57.3-2.37,4.94-2.91,10-6.07,14.86-8.57s10.6-4.9,15.85-7.39a10.62,10.62,0,0,1,10.57.21c14.25,8,28.12,4,41.93-1.15C881.32,634.54,889.06,628.2,897.9,623.92Zm-55.83,408.14L842,1032c-3-2.66-12.68-.27-12.91,3.52-.21,3.54-1.92,6.69-1,10.7,1.8,7.65,3.77,10.26,11.49,10.78,4.72.31,10.88-3.42,12.63-7.66.81-2-1.17-13.41-2.62-14.64-.69-.58-2.19-1.43-2.33-1.27C844.56,1036.41,843.86,1032.11,842.07,1032.06Zm-692.6-46.2c11.43,11.78,22.26,24,39.29,26.73-.2-1.51,1.93-2.89,3.59-4.14s2-2.3,1.5-3.69c-.75-2-2.12-.26-3.24-.23-.7,0-1.41-.58-2.38-1,1.7-1,3.6.25,5-1.34-2.06-3.26-5.15-5.24-7.22-8.19-6.07-8.62-13.74-15.77-21.85-22.44-.94-.77-1.45-1.58-.46-2.37,8.9-7.09,13-18.08,21.16-25.79,1.82-1.73,1.44-3.75.68-5.8-3.2,1.51-6.66-4-9.56.58-1.5-1.36-1.38-3.27-3.29-4.35-3.86-2.18-6.36-.12-8.88,2-5.8,4.85-9.64,11.48-14.73,17-2.15-2.16-3.13-5.31-5.91-6-8.49-2.16-16.49-5.78-24.41-9.24-5.66-2.47-5.52,1.87-7.65,3.89s-.37,3.45.87,5c6.26,7.71,13.11,14.88,20.07,21.95,1.63,1.66,1.87,2.54,0,4.16C122,981.32,116.4,993,111.47,1005c-.71,1.74-.36,2.55,1.18,3.61,4.81,3.29,10.91,2.82,15.85,5.68.23.13,1.07-.28,1.23-.62,1.37-2.89,4.32-4.44,5.78-7.36C139.16,999,144.35,992.63,149.47,985.86Zm649.95-33.48c3,5,4.23,5.45,8.6,1.87,5-4.09,9.45-9.16,11.82-15,5.23-13,5.58-26.76,2.61-40.35-2.27-10.41-8.22-17.75-18.86-21.81-4.12-1.57-8.74-2-12.58-4.53-3.38-2.27-7.11-4.06-9.57,1.45-.21.45-1.24,1-1.59.86-3.87-1.74-4.92,1.9-6.58,3.7s-2.72,4.46-4,6.78c-2.77,5.19-6.89,10.15-7.89,15.67-1.57,8.6-3.55,17.56-2.23,26.3,1.7,11.3,5.67,21.62,18.55,25.14,2.09.57,3.83,2.53,6,.44.16,3.62,3.4,2,5,3C794.42,959.6,797.47,958.83,799.42,952.38ZM138,763.79c.73-13.54-4.8-23.35-16.18-29.15-6.16-3.14-13.25-4.47-19.88-6.71a12.46,12.46,0,0,0-6.73-.59c-10.14,2.07-15.6,9.28-19.12,18.09-1.93,4.83-2,10-1.38,15.42.67,6.27.55,12.61,2.09,18.84,2.7,11,10.94,17,19.9,22A38.17,38.17,0,0,0,116,806.37c7.52-.11,11-6.38,14.29-12A56.7,56.7,0,0,0,138,763.79Zm59.61,24.33c1.08-1.62,1.59-2.92,2.54-3.72,2.5-2.1,4.18-4,1.53-7.32-.78-1-.57-2.81-.69-4.26-.45-5.79-2.52-11.16-4.5-16.52a186.45,186.45,0,0,0-13.9-29.55c-3.68-6.27-6-14.28-15.76-14-1.58.06-3.22-1.48-4.83-2.29-1.43-.73-2.94-1-4.16.19-4.57,4.37-8.58,9.3-10.78,15.2-3.36,9.05-2.61,18.83-4,28.25-.26,1.75-.49,4.52.47,5.26,3.13,2.41,6.86,4.16,11,3.61,3.19-.41,4.34-3,5.46-5.65,2.79-6.45,4.33-13.28,5.85-20.55,6.16,8.74,14.58,30,16.19,40,.52,3.19,2,5.09,5.71,6.38C190.94,784.29,195.61,783.39,197.64,788.12ZM856.92,907.69a186,186,0,0,1-3.58,41.86c-.72,3.62-.29,5.23,3.72,6.84,3.76,1.5,8.64.41,11.39,4.84,2-3.75,5.12-6,5-11-.1-7,.86-14.19,1.69-21.22a156.2,156.2,0,0,0-.25-35.12c-.49-4.59-.7-9.85-7.71-9.52-1.19.06-2.47-.78-3.64-1.36-5.88-2.93-8.2-2.1-12.78,2.73-8.36,8.8-14.58,18.73-17.42,30.58-.48,2-2.81,5.48.88,6.1s7.44,5.61,11.32.21C849,917.86,852.69,913.24,856.92,907.69ZM744.11,1105c8,.17,14.79-4.67,14.94-10.62.27-10.32-3.72-15.54-12.55-15.3-8,.22-14.57,2.71-14.54,8.29C732,1098,736.5,1104.86,744.11,1105Zm188.76-210.9c.22-8-3.15-14.73-10.66-18.81-3.86-2.09-6.88.27-10.31,2.7-3.17,2.23-5,3.81-4.91,7.93.2,6.54,2.14,11.62,8.67,14a4.62,4.62,0,0,1,2.32,1.72c3,4.27,7.32,1.54,10.4,1C930.89,902.15,933.46,898.52,932.87,894.12ZM899,848.43c-.77-5.55-1.38-9.5-1.85-13.46-.32-2.7-1.37-4.71-4.13-5.54a35.7,35.7,0,0,0-14.25-1.36c-4.52.5-6.15,3.33-5,7.71.81,3,1.43,6.1,2.45,9,1.28,3.71,2.58,7.55,6.6,9.37,3.68,1.65,8,3.14,11.36,1.19C896.61,854,899.4,850.89,899,848.43Zm37.47,104.74c2.41-.11,5.26-.13,7.29-2.55,4.43-5.27,6-10.59,2.57-17.42-2.93-5.82-8-6.17-13-7.08-4.43-.8-6.89,2.2-8.42,5.7-1.8,4.12-.11,8.1.84,12.25C927.34,951.17,928.93,953.05,936.42,953.17ZM792.94,1056c-6.49,0-11,4.53-11,10.83.14,11.2,4.4,16.14,13.93,16.13,4.43,0,10.62-5.48,10.69-9.46C806.78,1064.2,800.37,1056,792.94,1056Zm127.68-58.12c2.31,0,4.68.41,6.69-1.27,4.59-3.82,5.72-15.85,1.88-20.61a3.63,3.63,0,0,0-1.6-1c-3.29-1.07-6.49-2.25-10.11-2-8.48.51-11.81,4.95-9.4,13C910.41,993.63,915,998,920.62,997.91ZM856.16,784c-7.91-.1-12.14,6-9.52,13.36,1.93,5.41,7.06,7.38,11.08,10.19s8.63,1.17,12.12-2a9.49,9.49,0,0,0,2.93-9.91C871.54,791.24,861.08,784.06,856.16,784ZM810,701.1c0,1.17-.09,2.37.8,3.3,4.51,4.71,9.91,8.26,16.35,8.94,4.89.51,10-7.48,8.71-12a15.92,15.92,0,0,0-10-11.16c-2.1-.83-3.75-2.78-6.4-2C815.26,689.57,810,696.6,810,701.1Zm79,316.34c.06-8-3.71-12-12.66-13.48-5.43-.91-9,2.25-9.44,7.66-.41,5.23,3.35,9.27,3.54,14.35,0,1.43,2.31,2.54,4.13,3C883.36,1031.17,889.7,1027.4,889,1017.44ZM848.7,753.38c.11-3.34-6.27-11.11-12.43-12.76-3.82-1-7.74,1.22-10.43,3.67-6.28,5.7-4.83,11.1,3.43,15.1,1.31.63,2.93,1.14,3.75,2.21,2.75,3.57,6,2.73,9.05,1.09A11.5,11.5,0,0,0,848.7,753.38Z" transform="translate(-9.26 -8.21)"/><path class="cls-2" d="M897.9,623.92c-8.84,4.28-16.58,10.62-25.85,14.05-13.81,5.13-27.68,9.11-41.93,1.15a10.62,10.62,0,0,0-10.57-.21c-5.25,2.49-10.88,4.83-15.85,7.39s-9.92,5.66-14.86,8.57c-1.36.8-.54,1.44-.3,2.37.74,2.81,2,5.43,2.87,8.2,1.09,3.51,1.68,6.78.18,10-2.86,6.18-4.69,12.55-8.52,18.63-8,12.78-21.52,15.86-32.82,22.84-.7.43-1.43.79-2.15,1.18-14.9,3.85-29.89,7.24-45.32,8.13a6.69,6.69,0,0,0-1-.2c-8.73-.51-17.84,1.4-25.52-5.13-1.7-1.44-1,1.25-1.3,2.09l0,0c-2.74.47-5.15.09-7.08-2.24-5.28-6.38-9.58-13.26-11.41-21.73-11.27,4.59-23.29,5-35,6.81-2.88.44-2.68,1.81-2.71,3.55-.22,12.87.91,25.69,2.31,38.44a448,448,0,0,1,2.86,47.3c0,10.67.1,21.33-.06,32-.09,5.5-1,11-.88,16.5.22,8.31-.41,16.57-.64,24.85s-3.23,15.7-5.37,23.45c-5.89,21.27-20.54,34.25-39.78,43.17-12.43,5.77-25.7,8.65-38.82,12.25-9.57,2.63-19.28,3.09-28.82,3.32-12.76.31-25.6.31-38.42-.46-25.69-1.53-49.89-7.94-72.36-20.51-11.17-6.24-20.29-15-25.43-26.71-6.18-14.07-10.66-28.9-10.32-44.53.28-13.15-.81-26.22-1-39.32-.28-15.12-.05-30.23.91-45.32.25-3.93-.07-7.83.74-11.84,1.32-6.55,1.42-13.34,2.11-20,1.12-10.84.55-21.8,2.1-32.62.23-1.61.44-3-2.2-3.44-11.56-2-23.5-1.9-34.59-6.34-1.1-.44-1.8-.7-2.08.81-1.27,6.85-4.92,12.45-8.85,18.1-2.52,3.62-5.08,5.19-9.24,4.52l.07.06c.32-1.08,1.52-2.67-1.08-2.24a4.32,4.32,0,0,0-3.84,3.31c-15.14,3.23-30.19,2.35-45.19-1-13.76-2-27.12-5.25-38.65-13.51-3.08-2.21-6.77-3-9.82-5.37-10.49-8.19-15.69-19.3-18.33-31.84-1.1-5.24,1.75-10,3.56-14.67.73-1.9.7-2.56-1.09-3.49-4.7-2.45-9.24-5.7-13.73-7.9-6.64-3.26-13.42-6.77-20.53-9.23-1.71-.6-3.08.86-4.56,1.52-9.72,4.38-19.46,6.62-30.29,3.53-10.47-3-20.46-6.62-29.36-13A127.61,127.61,0,0,1,62,601.31c-14.33-15.77-17.76-39.66-5-57.38,7-9.8,16.26-11.6,26.25-14,4-1,7.86-.72,11.79-1,2.41,2.11,5.46,1,8.16,1.43,5.41.89,10.36,3.07,15.42,4.82,6.91,2.39,14.41,1.67,21.16,5.29,12.1,6.5,24.71,11.84,32,24.81,1.94,3.46,5.3,6.51,8,9.76a9,9,0,0,1,2.12,7.75c-.47,3,2.44,4.75,3.08,7.74a25.82,25.82,0,0,1,.07,11c-.48,2.3-.16,3.52,2.33,4.67,7.42,3.43,14.68,7.22,21.86,11.15,2.18,1.19,4.83,1.82,6,4.74,1,2.32,2.89.76,4-.23,10.83-9.35,23.62-9.58,36.83-8.18,3,.31,5.95.24,8.93.35a71.56,71.56,0,0,1,16.06,1.74c8.88,1.77,17.29,5.95,26.62,5.42,3.68,4.46,11.37,1.57,14.12,7.72,7.24-1.68,10,4.58,13.59,8.4,2.89,3.07,3.83,7.9,6.2,11.59,3.29,5.13,2.46,10.21-1.46,15.09,8.54.85,16.65,3,25.1,3,3.08,0,4.12-1,4.87-4,3.52-13.81,4.92-28.13,10.78-41.38,4.94-11.18,10.82-21.71,21.45-28.12,11.08-6.69,23.31-11.09,35.84-14.42a127.36,127.36,0,0,1,35.18-4c18.24.32,36.55-.9,54.7.4,17.86,1.29,34.92,7,50.89,15.41,3.18,1.68,6.83,2.93,9.34,5.33,12.47,11.93,19.33,26.9,22.78,43.63,1.65,8,3.55,15.95,5.44,23.9.38,1.58.31,3.49,3.19,3.35a182.74,182.74,0,0,0,26.11-3.4c-2.92-4.06-4.45-8.38-2.33-12.24,2.3-4.19,4.19-8.58,6.61-12.7s5.58-7.86,10-9.88a108.09,108.09,0,0,1,21.54-7.53c7.13-1.56,14.39-2.68,21.21-5.46a250.43,250.43,0,0,1,44.79-2.62c7.35,2.13,15.31,3,20.62,9.53,1.06,1.31,2.14,1,2.53-.36.75-2.66,3-3.42,5.05-4.35,8.06-3.67,15.14-9.23,23.54-12.18,4.46-1.57,1.89-5.06,1.34-6.86-1.7-5.55,1.57-9.53,3.23-14,.14-.4.91-.81.84-1-2.57-7,3.24-10.51,6.35-14.87,6.44-9.05,13.76-17.14,23.74-22.84,10.46-6,21.68-8.85,33.22-11.31,5.39-1.16,10.56-3.37,15.83-5.1,3,.56,5.89-.68,8.78-.74,9.47-.21,19.08,1.18,27.17,5.79,9.85,5.61,15.24,15.5,17,26.57,3.28,20.54-6.8,35.52-21.27,48.59A212,212,0,0,1,897.9,623.92ZM883,562.43c-22.33-.19-36.17,13.08-47.72,30,11.6,3.12,11.63,3.11,17.63,15.44.77,1.58,2,1.25,2.86.78,10.81-5.72,22.85-9.43,31.22-19.13a37.34,37.34,0,0,0,4.11-4.24c5.6-7.92,8.07-13.22,3.84-22-.49-1-.83-2.49-2.09-2.37C889.59,561.24,886.32,561.9,883,562.43ZM100,562.15c-2.82.57-6-3.58-8.6,1-3.21,5.57-2.79,10.83,0,16.32A38.18,38.18,0,0,0,102,592.17c8.09,8.16,19.06,11.37,28.82,16.64,1.54.83,3.09.34,3.22-2.19.31-5.81,3.18-9.78,9-11.43,2.84-.82,5.62-1.87,8.52-2.84-1.77-2.12-3.42-4-4.94-5.94-7.9-10.23-16.94-19-30-22.21C111.17,562.87,105.65,561.68,100,562.15ZM264.2,638.87a23.88,23.88,0,0,1-3.15-1.22c-2.9-1.62-5.69.12-8.09.89s.09,3.43.11,5.28c0,5.13-.29,10-2.7,14.81-5.91,11.8-6.22,12.14-19.06,9.38-4.88-1-5.52-.23-4.47,4.69a12.63,12.63,0,0,0,2.15,4.87c8.08,11.59,19,18.75,32.89,21.27,9.58,3,19.24,3.49,28.76.06,4.64-1.68,9-4.15,13.43-6.37,1-.51,2.95-.14,2.78-2.2-.12-1.45-1.49-1.71-2.43-2.24-9.73-5.42-10.21-20.05-.26-25.2,3.09-1.6,2.6-4.46,4.7-5.92-1.64-2.26-2.21-5-5.43-6.42-4.26-1.86-8.69-3.12-13-4.82A102.74,102.74,0,0,0,264.2,638.87Zm438.63,62c16.65,1.09,32-2.48,45.3-13,4.94-4,9-8.64,11.18-14.61,1.72-4.68.56-6-4.13-5.19-2.72.5-5.38,1.37-8.07,2.08a7.77,7.77,0,0,1-6.05-2.93c-5.46-6.74-8.64-14.24-8.11-23.13.12-1.95,3.08-4.75-.61-5.81-2-.58-4.26-1.36-6.76-.67-8.55,2.36-17.57,2.94-25.78,6.65-5.94,2.27-11.8,4.85-17.87,6.7-3.61,1.09-2,4.89-4.33,6.41,2.81.77-.75,4.25,1.49,4.44,4.69.38,6.2,4,8.19,7.07,3.93,6,2.1,15.73-3.44,18.14a56.25,56.25,0,0,0-6.83,3.8c4.1,1.84,8.27,2.41,11.69,4.76A33.43,33.43,0,0,0,702.83,700.82ZM392.38,886.63c3.83,3.2,3.93,3.17,4.95,6.38,7.16,22.45,23.49,34,45.63,39.09,5.49,1.26,11.11-.34,16.45,1.49,11.38,3.92,23.22,3.76,35,4.66,16.1,1.22,31-5,46.74-6.12A50.34,50.34,0,0,0,572,918.82c8.9-8.35,17.54-22.73,20.3-35.47,1.77-8.18,3.88-16.3,5.42-24.55a181.53,181.53,0,0,0,3.45-32c.15-16.45-2.9-32.73-2.06-49.17.31-6-.59-12.06.66-18.23.44-2.16-.31-5.93-.71-8.94-.45-3.27-1.35-6.68-.79-9.79.44-2.43.06-4.45-.1-6.74-.43-6.13-.16-12.31-.13-18.47a20.34,20.34,0,0,0-.86-5.35c-1.06-4.1-4.11-1.56-6.16-2-2.34-.5-3,1.11-3,3.34-.18,6.3-1.07,12.6-.81,18.87.23,5.39-3.22,9.73-9,10.46-7.18.91-14.29,2.75-21.68,2.07-4.23-.39-8.68-1.26-12.76.29-3.18,1.21-6.17.62-9.27.45-3.36-.18-6.77-.83-10.06-.45-9.91,1.12-19.85.67-29.75.71-11.12,0-22.25-.06-33.38-.67-7-.39-14.09.73-21.26-.1-10.09-1.16-20.34,0-30.48-2-7.2-1.37-10.38-4.29-10.52-11.62-.12-6.13.16-12.24-.81-18.39-.53-3.33-2.26-3.21-4.39-3.06-1.95.14-3.95-1.16-5,2.66-2.56,8.93,2.52,18.32-2.21,26.91,3,5.44.73,11,.67,16.61-.21,22-.48,44-2,66-1.54,21.8,3.37,43,9.32,63.79C395.43,887.3,392.85,885.64,392.38,886.63Zm20.76-179.3c-.12,6.91,1.11,13.32,2.06,19.74.34,2.35,1.28,4.15,4.74,4.06,12.52-.33,25.06-.19,37.59-.11,11.71.07,23.42.55,35.1.6,9.14,0,18.38-.44,27.57-.57,15.35-.21,30.7-.08,46,0,2.06,0,3.72.13,4.38-2.62,1.54-6.41,2-13,2.91-19.44.17-1.16-.53-2.2-1.67-1.41-3.21,2.25-4.56-1-6.73-1.93-11.06-5-9.45-11.16-7.06-20.88.92-3.77,5.06-3.68,6.72-6.45,1.07-1.78,3.83-2.52,3.07-5.44-2.61-10-3.67-20.27-7.79-29.88-3.5-8.14-11.39-15.37-18.42-14.77-4.37.37-8.23-.57-12.25-1.59a15.78,15.78,0,0,0-3.41-.5q-33.13-.66-66.28,0c-3.83.07-7.2,2.92-10.8,2.29-9.4-1.66-15.27,2.9-20,10.07-6.64,10.06-7.54,21.93-10.3,33.2-.62,2.51.27,4.69,2.69,6.29,4.73,3.13,9.24,6.55,8.37,13.28,0,.13.22.28.22.42.16,3.57.4,7.66-2.77,9.72C423,704,419.78,709.51,413.14,707.33ZM599.61,668.6c-1.9-8.37-3.74-16.75-5.71-25.09-2.19-9.31-4.71-18.52-9.15-27.06-2-3.82-4.36-7.41-8.1-9.78-20.42-12.92-43-18.2-66.85-19.83-8.56-.58-17,.42-25.54-.13-10.72-.68-21.52.73-31.73,2.8a125.93,125.93,0,0,0-34.47,12.11c-9,4.85-15.57,11.09-19.15,20.78-4,10.89-7.51,21.87-8.94,33.43a6,6,0,0,1-.77,2.29c-4,6.72-2.39,10.8,4.94,12.66l9,2.32c-.93-11.38.93-22,3.66-32.64,3.37-13.17,10-22.54,23.79-25.31,14.4-2.89,28.85-5.25,43.66-5.73,26.95-.87,53.7-.59,80.16,5.5,11.3,2.6,20,8.08,23.28,19.52,3,10.42,6.8,20.82,5.59,32-.14,1.24.71,2.58.65,3.85-.14,3,1.36,2.72,3.42,2C591.37,671.06,595.46,669.87,599.61,668.6Zm19.09,90.93c.62-1.73-.15-3.66,1-5.31a1.61,1.61,0,0,0-1.19-2.23c-1.62-.31-1.48.8-1.52,1.75C616.93,755.82,616.72,758,618.7,759.53Zm-250,42.27c-2,1.84-1.32,4-.75,6.07.28,1-1.9.83-1,2,.22.29,1.27.17,1.83-.05a1.59,1.59,0,0,0,1-2.37C368.5,805.65,369.49,803.58,368.68,801.8Zm248.56-.25c-.73,1.9.25,4.08-1,6.09-.62,1,.57,2.07,1.83,2.3a3.8,3.8,0,0,0,1.37-.33C615.94,807.65,621.41,803.28,617.24,801.55ZM367.15,759.87c2.45-1.79,1.77-3.93,1.82-5.84,0-.85.33-2.26-1.31-1.93-1.18.24-1.35,2.27-1.28,2.33C368,755.88,367.11,757.75,367.15,759.87Z" transform="translate(-9.26 -8.21)"/><path class="cls-3" d="M276.2,113.93c-3.36,9.21-2.74,19.29-6.2,28.45-3,7.93-2,16.71-5.52,24.49a5.87,5.87,0,0,0-.45,2.43c.07,6.13-4.64,9-10.47,6-6.17-3.19-12.88-4.88-19.15-7.66-4.92-2.18-9.22-5.72-15-5.82-1.36,0-2.73-.56-3.47.85-2.08,4-6.58,6.07-7.84,10.68-.79,2.89-3.8,4-5.62,6-3.4,3.84-6.55,7.89-9.8,11.86-1.82,2.22-3.94,3.56-6.87,2.23-2.52-1.14-5.31-1.43-4.83-5.88.34-3.15-3.67-6.55.18-9.89.31-.28.17-.35-.22-.63-6.75-5-3.06-13.06-5.69-19.4-1.78-4.29-1.35-9.59-1.94-14.41-.52-4.26-2.53-5.68-5.79-6.82-6.53-6.31-15.91-6.72-23.37-11.32-5.33-3.29-10.47-6.55-14.81-11.1-1.72-1.8-1.36-2.23.52-3.52,10.38-7.19,21.62-13.11,31.78-20.49,9.79-7.12,20.09-13.54,30.26-19.89,11.89-7.41,23.68-15.1,35.7-22.36,14.4-8.7,29.21-16.57,43.8-24.87,8.1-4.61,17.43-7,24.29-13.9,1.62-1.62,4.14-.68,4,1.49-.32,4.74-.52,9.5-1.84,14.21-5.2,18.44-10.16,36.93-14,55.74C281.56,91.65,278.18,102.64,276.2,113.93Zm-6.13-78.88a7.12,7.12,0,0,0-4.69.89c-9.82,5.61-19.55,11.59-28.75,17.91-10.18,7-21.31,12.5-31,20.28-4.91,4-11.23,6.17-16.16,10.11-9.23,7.35-19.82,12.63-29,19.9-2,1.56-5.68.66-5.88,1.4-1.46,5.46-7.65,5.19-10.05,9.32,6.15,2.67,12.34,5.85,18.59,8.87,3.94,1.91,7,5.76,11.82,6.1,1.86.13,3,.94,4.4,2.44,2.36,2.54,6.9,1.65,9.46,4.56a1.8,1.8,0,0,0,1.1-.67c1.4-3.3,4.95-4.5,6.86-7.46,5-7.65,9.87-15.41,15.71-22.38,9.52-11.38,18.14-23.45,27.5-35,9.92-12.2,19.6-24.59,30-36.38l.7-.38-.56-.24Zm9.26,3.22c-2.71,3.87-4.53,8.4-7.38,12-9.11,11.54-16.94,24-26.33,35.31-7.85,9.41-14.7,19.56-22.42,29.05-6.63,8.16-13.39,16.24-19.5,24.85-2.37,3.35-1.62,4.31,1.55,5.45a120,120,0,0,1,11.4,4.43c11.67,5.7,23.25,11.6,34.89,17.44,1.88-7.12,2.15-14.33,3.15-21.44,1.73-12.22,5.72-23.94,8.68-35.87.79-3.17-.67-8.31,5-9.24.68-.11.92-1.78,0-2-4.8-1-1.4-4.3-1.14-5.78,1.18-6.58,3.75-12.93,4.65-19.52a182.05,182.05,0,0,1,8.33-33.8c.61-.55,1.19-1.13,1.82-1.65,1.14-.93,1.37-2.06.07-2.8-1.71-1-1.56.9-2,1.69A11.64,11.64,0,0,0,279.33,38.27ZM182.14,144.38c1.5,10.45,4,20.56,3.81,31,0,2.24,1.28,3.1,3.08,1.09,3-3.4,6.35-6.61,8.81-10.39,1.92-2.94,3.75-5,8.29-4.48-3.57-.17-3.07-1.15-1.64-2.66,2.62-2.78,2.31-4.5-1.65-5.86C196,150.7,190.08,146,182.14,144.38Zm81.59-6.9c-3.07.81-2.31,3.56-3.39,5.24-.4.62-3.1,0-1.09,1.84a1.67,1.67,0,0,0,2.78-.89C262.52,141.67,264.19,140,263.73,137.48Z" transform="translate(-9.26 -8.21)"/><path class="cls-3" d="M606.06,1111c7-6.19,14.7-11.68,20.23-19.47,1.36-1.91,3.62-3.18,5.45-4.77,1.11-1,2.87-1.79,3.13-2.94.67-3,1.94-4.56,5.08-4.25a9.37,9.37,0,0,1,7.36,5.13c3.11,5.79,7.24,10.85,11.15,16,2.79,3.69,3.81,8.34,7.49,11.55,2.92,2.54,4.85,4.49,9.22,2.3,10.27-5.15,21.93-6.4,32.59-10.62a5.07,5.07,0,0,1,5.91,1.94c1.53,2,3.64,4.31,2,6.36-2,2.46-1.3,5.37-2.66,7.75-.89,2.52-2.75,2.21-5.62,1.2,3.64,3.43,3.68,6.6.44,9-2.64,2-1.65,4.82-2.56,7.16-2.58,6.6-7.07,12.26-9.15,19.08-.56,1.86-1.47,3.2.5,5.18,1.73,1.74,2.3,4.64,3.34,7,.39.9.41,2.11,1,2.73,6.15,6,9,14.13,13.56,21.14,2.6,4,1.25,8.76,3,12.91.35.82-1.1.86-2.17.89-11.84.25-23.71-.61-35.5-.18-12.31.44-24.61-1.09-36.92.35-3.14.37-6.83.47-9.77-1.74a2.28,2.28,0,0,0-2.2-.39c-9.52,2.17-19,1.64-28.68.56a99.67,99.67,0,0,0-18.75-.25c-7.77.61-15-1.88-22.56-1.65-12,.35-23.69-3.4-35.73-3.21-1.37,0-2.56.62-3.73.62-1.46,0-4.36-1.69-3.34-2.36,3.21-2.08,1.68-6.58,5.61-8.42,3.66-1.71,6.48-5.26,9.57-8.11,10.53-9.73,21.08-19.44,31.51-29.27q19.51-18.42,38.79-37.11C604.74,1114.21,606.36,1113,606.06,1111Zm-12,28.28c-1,0-3.25-.22-.52,2.87.44.5.58,1-.29,1.49-3.87,2-5.87,6.06-9.12,8.81-4.07,3.44-8.54,6.47-11.86,10.73-6.67,8.54-14.45,15.8-24.27,20.6-1.11.54-2.52.64-1.89,2.08.81,1.88,1.9.5,3-.08,4.84-2.53,9.53-5.69,14.69-7.22,13.82-4.11,26.91-10.11,40.42-15,9.46-3.4,19-6.54,28.42-10,12.33-4.59,25.25-8,37.72-12.53,1.89-.69,3.34-.87,1.28-3.52-10.3-13.3-17.71-28.38-25.92-43-.74-1.31-1.72-2.08-3.12-.66-2.36,2.38-5.32,4.39-7,7.18-4,6.66-9.46,11.81-15.08,16.94-7.14,6.51-14.12,13.18-21.34,19.61C598.28,1138.47,597.36,1140.45,594.1,1139.28Zm110.51,55.28c-.94-2.35-1.26-5.5-3-7-3.68-3.12-5.48-7.7-7.29-11.41-2-4.14-3.75-8.14-7.05-11.39a3.31,3.31,0,0,1-1.37-2.52c.12-4.44-5.44-5.81-5.61-10.28,0-1.11-1.09.41-1.51.45-7.69.74-14.27,4.64-21.37,7.08-10.4,3.59-20.69,7.53-31.17,11-15.68,5.12-31,11.38-46.82,16-5.93,1.76-11.93,4.31-18.42,4.31a3,3,0,0,0-2.49,2.66c.07,1.92,1.71.7,2.66.75,4.58.23,9.21.9,13.73.48,7.53-.7,15.11,2.1,22.2.89,12.68-2.15,25.15,1.3,37.79-.48,9.14-1.29,18.5,1.57,28,.1,7.41-1.16,15.08.77,22.63-.24,2.45-.32,5.25,2.49,6.21,1.76C695.8,1193.62,700.58,1196.59,704.61,1194.56Zm-15.53-44.07c1-1.22,1.68-1.72,1.92-2.37,3.31-8.91,7-17.65,12.21-25.62a3.11,3.11,0,0,0,.49-3.18c-.56-1.22-1.8-.26-2.5-.07-4.76,1.3-9.78,1.76-14.2,4.21a4.64,4.64,0,0,1-3.91.57c-2.44-.65-5.29.78-7.09,2.37-1.32,1.16.71,3.16,1.64,4.56a55.81,55.81,0,0,1,6.39,11.52C685.07,1145.27,688.77,1146.35,689.08,1150.49Z" transform="translate(-9.26 -8.21)"/><path class="cls-4" d="M60.91,759.08c5.33,6,9.71,12.61,11.3,20.6,2.44,12.24,2.47,24.44-3.28,35.84-4.35,8.62-12.12,13.36-21.28,15.69-1.32.34-3.08-1.11-4.67.06-5.29-1.16-9.37-5.15-15.14-5.71-3.49-.34-6.35-3.83-8.75-6.89C13.16,811.11,8.78,802.6,9.3,793A225.41,225.41,0,0,1,12.73,763c1.18-6.13,4.16-13.94,12.34-14.81a27.27,27.27,0,0,1,17,3.56c1.78,1.08,3.83,2,5.42,2C52.88,753.51,56.63,756.82,60.91,759.08Zm-7,34.82c-.37-9.9-2.53-19.34-8.27-27.63-3.42-4.94-8.87-5.25-12.12-.32-6,9.09-10,18.87-7.84,30.22,1.21,6.42,4.09,12.06,7.52,17.47,1.71,2.69,3,6.24,7.31,5.38,5.06-1,9.74-3,11.2-8.47S54.66,799.67,53.92,793.9Z" transform="translate(-9.26 -8.21)"/><path class="cls-4" d="M886.94,506.06c-6.4-3.53-6.14-3.37-2.11-9.82,2.84-4.53,7.07-8,9.23-13,.57-.2,1.15-.4,1-1.2l0,.08c1.35-1.6,2.74-3.19,4.06-4.82,3.72-4.61,3.52-5.41-2-8.53-2.62-4.7-7-7.85-10.55-11.68-1.81-1.93-4-3.65-5.29-5.88-1.07-1.86-6.12-4.56.18-6.46.12,0,.29-.28.27-.32-1.33-2.26.26-3.66,1.85-4.23,2.17-.78,4.58.78,6,1.86a10.54,10.54,0,0,0,6.93,2.24c3.23,0,5.19,2.07,7.3,4,9,8.89,9,8.89,16.52-.88.51-.66,1.13-1.22,1.67-1.85,8-9.27,8-9.27,19.36-4.48a9,9,0,0,0,2.23.89c4.29.58,5.44,2.44,2.45,5.94-4.81,5.62-8.24,12.2-13.12,17.71-4.36,4.94-4.23,7.68,1.09,11.34,4.53,3.1,7.44,7.74,11.36,11.43s2.53,8.83-1.87,11.87c-.73.51-1.48,1-2.26.61-6.78-3.36-14.92-3.89-20.29-10.22-2.08-2.45-4.25-3.21-6.63.72-3.53,5.83-9.19,9.9-14.41,14.18C895.87,508.83,891.31,507.15,886.94,506.06Z" transform="translate(-9.26 -8.21)"/><path class="cls-5" d="M78.89,447c1.22-.82,2.5-1.57,3.64-2.49,6.24-5.05,9.18-5,14.85.38,2.58,2.45,5.74,4.45,6.74,8.18s2.46,7.48-2,10.49c-6.39,4.3-12,5.37-15.85,2.09a33.76,33.76,0,0,0-5.17-3.76C77.28,457.37,79.63,452,78.89,447Z" transform="translate(-9.26 -8.21)"/><path class="cls-5" d="M68.9,399.68c9-5.87,9.69-5.7,18.14-.17,3.46,2.26,7.46,4.88,7.21,8.65-.33,5-4.56,8.38-9.19,10.72-5.24,2.66-9.49,1.64-13.07-2.87C66.45,411.55,65.41,406.06,68.9,399.68Z" transform="translate(-9.26 -8.21)"/><path class="cls-1" d="M408.36,1119.47c-.3.15-.57.4-.83.39s-.53-.25-.79-.39c.26-.15.52-.41.79-.42S408.06,1119.31,408.36,1119.47Z" transform="translate(-9.26 -8.21)"/><path class="cls-1" d="M900,1043l1.28.41c-.09.12-.24.36-.26.36-.36-.23-.71-.47-1.07-.72Z" transform="translate(-9.26 -8.21)"/><path class="cls-1" d="M946,998l.43.42c-.09,0-.22,0-.27-.06A1.09,1.09,0,0,1,946,998Z" transform="translate(-9.26 -8.21)"/><path class="cls-1" d="M834,1085l.38.46L834,1085Z" transform="translate(-9.26 -8.21)"/><path class="cls-6" d="M747.63,613.25a250.43,250.43,0,0,0-44.79,2.62c-.11-2.33-4.39-3.82-2.5-5.67s.93-3,.48-4.19c-.78-2.12-.63-4.14-.59-6.31.12-6.71.95-13.6.49-20.06-.58-8.1.72-16.13-.34-24.27a166.45,166.45,0,0,1-1-19c0-4.45-1.17-9,.12-14.32,1,2.81-.28,5.19,1.46,6.93l.33.19L701,529c.75-3.34,1.66-6.55-1.87-9.23-1.41-1.07-1.45-3.4-1-5.2.7-2.91.16-4.29-3.06-3.13a7,7,0,0,1-2.91.09c-5.49-.28-11-.23-16.46-.14-3.58,0-6.86,2.24-10.45,1-3.82-1.32-7.85-1.09-11.78-1.58-4.24-.53-8-.73-12.48.73a25.63,25.63,0,0,1-16.46-.78,6.14,6.14,0,0,0-6.1.54c-2.09,1.38-4.76,1.17-6.77.56-3.86-1.17-7.82-1.11-11.68-1.89-2.35-.48-4.08,1.41-6.49,1.25-7.39-.49-14.69-2.93-22.19-1.2a1.59,1.59,0,0,1-1,0c-8.15-4-17.19-2.39-25.71-4.07-4.15-.82-9.27-3.2-10-6.23-1.47-5.88-5-12.49.21-18.74.87-1,.69-4.66-.13-5.13-3-1.71-1.68-4.23-1.45-6.08,1.1-8.78.46-17.48.27-26.24-.1-4.38-1.54-9-.22-13.22,1-3.38-.11-6.45.13-9.65.57-7.66-1.22-15.29.51-23.07,1-4.47,1.77-9.35-.42-14.2-1.15-2.55-1.38-6.29.08-8.75a5.64,5.64,0,0,0,.41-5c-1.64-4.55-.92-9.26-.77-13.71.17-5.06-1.15-6.06-5.89-6-37.17.18-74.35,0-111.53.21-4.39,0-8.78,1.45-13.16,2.29-6.86,1.31-13.84.78-20.75,1.29-14.89,1.09-29.88-.36-44.8,1-8.46.8-16.85-.59-25.29-.61-1.47,0-3.28-.76-3.74,1.94a130.65,130.65,0,0,0-1.29,31.48c1.12,15.13,1.54,30.27,2.09,45.39.68,18.64.22,37.33.21,56,0,23.33-.07,46.66-.06,70,0,8,.14,16,.22,24-7.53,4-8.22,11.82-1.56,17.22a13.13,13.13,0,0,1,1.57,1.89,124,124,0,0,1-1.48,19.15c-9.33.53-17.74-3.65-26.62-5.42A71.56,71.56,0,0,0,265,614l2.1-50.74a13.26,13.26,0,0,0,2.49,1.59c9.56,3.45,17.23,4,20.57-6.2,1.62-5,.86-8.76-2.61-10.66-6.13-3.36-16.8-1.63-21.39,3.47-.64-12.33-1.93-24.67-1.74-37,.22-15.44-.73-30.86-.18-46.31.49-13.78-.06-27.62.09-41.39.13-11.76-.26-23.55.26-35.34.49-11.26-.27-22.62,1.52-33.78,1.14-7.07.93-14.18,1.74-21.25,1-8.89,9.63-17.57,18.57-17.4,8.36.16,16.59-2.25,25-1,15.7,2.24,31.52,1,47.25.74,12.9-.2,25.81-.54,38.72-.58q69.45-.18,138.91,0c3.26,0,6.52-1.4,9.76-.08,7.84,3.17,15.92,5.71,23.82,8.68,4.36,1.64,7.4,6.16,11.7,8.5,4.94,2.69,7.58,8.31,13.11,10.28.71.26,1.15,1.2,1.81,1.69,1.67,1.27,1.27,5.61,5.2,3.55.94,4,5.22,4.78,7.74,6.67,4.68,3.49,8.78,8,14.2,10.46,1.93.88,3.67,1.88,4.07,4,.61,3.24,4.2,2.39,5.6,4.36,6.27,8.79,15.57,14.44,22.87,22.16,1.74,1.84,4.21,2.05,6.18,3.79,4.89,4.3,10.64,7.62,14.64,13-.2,1.11-.86,2.41-.51,3.31,1.06,2.76-1.69,6.55,1.79,8.41s7.31,3.82,11.4,4.45c2.73.43,5.55,1.49,8.22-.3,5.66,6.68,14.09,10.93,18.76,18,4.57,6.88,11.75,11.12,15.56,18.3,1,1.91,3.12,2.11,4.47,3.7a36.35,36.35,0,0,1,7.81,15.95c1,4.56,3.53,8.6,3.6,13.48.08,5.58,1.73,11.16,1.55,16.7-.29,8.89.05,17.78-.4,26.68-.33,6.67-.53,13.47-.6,20.19-.08,8-.9,16-.89,24C747.79,596.37,748.71,604.83,747.63,613.25Z" transform="translate(-9.26 -8.21)"/><path class="cls-2" d="M761.18,243.06a124.65,124.65,0,0,1,50.22,7.31c7.28,2.63,15,4.4,21.48,9.33,3.6,2.75,7.36,5.26,9.46,9.25,5.78,11,13.77,20.88,17,33.17.91,3.47,1.72,7,2.47,10.49,1.45,6.81-.91,11.59-6.94,15.44-2.91,1.86-5.16,4.81-8.13,6.52-14.41,8.27-29.22,15.72-45.53,19.6-9.22,2.2-18.72,1.56-28.05,2.66-1.38.16-3,.73-3-1.92,0-1.59-2.09-1.15-2.7-.74-1.3.88-2,2.93-3.49,0-.33-.64-.58,3-2.69,2.28-6.94-2.26-14.11.06-21.19-1.28a153.44,153.44,0,0,1-21.5-5.2A199,199,0,0,1,679.49,332c-1.4-.86-2.86-1.64-4.32-2.41-6.34-3.35-7.36-6.88-5.65-14.1a93.44,93.44,0,0,1,20-39c6.65-7.86,14.71-14.69,24.38-18.71,10.42-4.33,20.44-9.85,31.58-12.17C750.91,244.5,756.15,241.8,761.18,243.06Zm38.3,90.58c3.86-.92,7.28-2.86,10.74-4.67,8.37-4.38,17.53-7.12,25.35-12.7,2.46-1.77,2.48-3,1.82-5.62-1.89-7.46-5.87-14-8.25-21.28-2.08-6.31-6.1-11.19-10.23-16.28-5.25-6.46-12.61-6-20.69-8.87,6.33,8.77,7.2,17.79,9.15,26.47,1.78,7.9,1.22,15.77,0,23.73-1.1,7.06-4.62,12.8-8.4,18.53l-.66.76ZM719.91,335A18.29,18.29,0,0,1,726,336.5a35.83,35.83,0,0,0,19.92,2.24c-6.17-4.48-10.64-9.35-12.62-16.31-.41-1.43,1.33-2.59-.28-4-3.53-3-3.38-7.5-3.18-11.46.64-12.26,1.05-24.57,4.05-37a150.09,150.09,0,0,0-23.14,12.38c-11.12,7-15.75,17.51-19.89,29-1.75,4.87.64,7.74,3.24,10.35a19.26,19.26,0,0,0,8.72,5.12c6.42,1.54,11.46,5.59,17.24,8.22-.67.08-1.67-.5-1.75.75,0,.29.6.9.85.87C720.15,336.53,720.85,336.07,719.91,335Z" transform="translate(-9.26 -8.21)"/><path class="cls-4" d="M237.78,270.82c-2.54,4.06-5.41,8-7.54,12.23-1.77,3.54-5.19,5.57-7.07,8.93-.79,1.43-2.2,1-3.53.43-14-5.52-12.12-2.65-6.73-15.84,5-12.17,11.09-23.79,17.19-35.39,2.66-5.05,6.59-9.44,10.06-14,1.55-2,3.23-2.5,6-1.11,4.16,2.11,8.2,4.95,13.43,4.38,1.94-.21,2.2,2,2.47,3.66a179.68,179.68,0,0,1,1.81,26.49c.09,13.93,1.83,27.7,3.35,41.47.73,6.63-2.79,10.64-6.06,15.19a1.24,1.24,0,0,1-2.08.23c-2.87-2.75-6.84-2.22-10.25-3.37-5.37-1.81-8.22-5.51-8.87-11.11C238.69,292.45,239.06,281.9,237.78,270.82Z" transform="translate(-9.26 -8.21)"/><path class="cls-4" d="M271,269.14a76.66,76.66,0,0,1,6.14-28.09,29.9,29.9,0,0,1,10.19-12.54c3.47-2.54,7.71-3.73,12.11-1.69,6.72,3.12,14.33,3.83,20.72,7.89,9.35,6,13.28,15,14.93,25.44a54.15,54.15,0,0,1-1.25,23.13c-1.73,6.22-6.11,11.16-10.55,15.79-3.5,3.63-6.88,7.44-11.73,9.49-.81.34-1.21,1.36-2.48,1-7.83-2.37-16.4-2.41-23.39-7.47s-10.52-12.5-13.13-20.24A29.19,29.19,0,0,1,271,269.14Zm31.24,29.77c-1-5.07,2.79-6.32,5.64-8.35.53-.38.88-1,1.38-1.43,7.67-6.5,6.77-15.51,7-24.13a31.46,31.46,0,0,0-8.69-22.92c-.84-.91-1.64-2.51-3.18-1.87-4,1.69-8.86,2.52-10.45,7.42a57.58,57.58,0,0,0-1.44,32.44C294.18,287,299,292.15,302.23,298.91Z" transform="translate(-9.26 -8.21)"/><path class="cls-4" d="M389.29,299.77c-.56-2.26-2.3-3-4.3-3.44s-4.06-1.08-6.12-1.45c-11.19-2-11.59-10.46-11.95-19.32a233,233,0,0,0-2.86-29.4c-3,5.65-5.66,10.29-8.06,15-1.69,3.35-3.66,5.39-7.81,3.81s-8.33-2.26-8.3-8.12c0-6.9,1.78-13.39,4.19-19.67,3.58-9.32,7.34-18.56,14.79-25.77,2.51-2.43,4.56-3.14,7.75-1.58,4.22,2.06,8.32,4.61,13.33,4.49,1.61,0,2.06,1.49,2.54,2.7C385.4,224.44,387.71,232,388,240A227.07,227.07,0,0,0,394,283.65c.33,1.35,1.24,2.35,1.67,3.54.94,2.55,1.52,5.24-1.69,6.85C391.56,295.24,391.06,298,389.29,299.77ZM364.4,244.48a5.85,5.85,0,0,0-.26.94c0,.11.19.25.3.37.14-.23.38-.45.4-.68S364.58,244.71,364.4,244.48Z" transform="translate(-9.26 -8.21)"/><path class="cls-7" d="M798.66,387.1c-3.61-1.21-6.42,0-9.42.61a90.62,90.62,0,0,1-35.76-.12c-3.83-.83-7.59-.33-11.41-1.33-13.39-3.51-26.47-7.66-38.8-14-6.09-3.13-12.32-5.91-18.07-9.85-3.27-2.24-1.63-4.57-1.43-6.14.33-2.66,2.91-.43,4-.06,10.66,3.8,21.56,6.9,32.15,11,8,3.06,16.59,4.12,25.09,4.7,7.83.54,15.68,1.84,23.46,1.66,14.36-.33,28.74-.94,42.08-7.92,9.22-4.82,19.32-7.88,28.15-13.68,3-2,5.88,1.59,8.83,2.42,7,2,7,2.7,1,7.6a111.6,111.6,0,0,1-17.24,11.7c-6.47,3.5-13.36,4.84-19.6,7.83-3.3,1.57-7,2.77-10.2,4.64A13.16,13.16,0,0,1,798.66,387.1Z" transform="translate(-9.26 -8.21)"/><path class="cls-2" d="M647,216.92c-.72-3.35,2-5.84,3.94-8.61.61-.86,1.51-1.66,2.52-1.15,8.62,4.36,18.88,4.92,26.56,11.45,6.22,5.29,11.79,11.08,14.79,18.92,2.32,6.08,1.13,10.1-3.41,14.73-3.28,3.34-6.31,1.61-9.58.76-16.87-4.36-28.78-14.16-34.26-31.1A20.41,20.41,0,0,1,647,216.92Z" transform="translate(-9.26 -8.21)"/><path class="cls-2" d="M697.92,431c-2.67,1.79-5.49.73-8.22.3-4.09-.63-7.81-2.54-11.4-4.45s-.73-5.65-1.79-8.41c-.35-.9.31-2.2.51-3.31,6.05-11.77,15.18-20.42,26.85-26.5,2.93-1.53,5.55-2.15,8.73.1a18,18,0,0,0,9.13,3.33c4,.28,4.79,2.5,3.7,6.19-2.27,7.75-7.78,13.25-13,18.87C707.89,422,702.78,426.35,697.92,431Z" transform="translate(-9.26 -8.21)"/><path class="cls-2" d="M777.07,199.69c-.43,6.58-.8,11.53-1.07,16.49-.31,5.6-3.38,9.71-7,13.55-.73.76-1.59,1.49-2.59,1.18-5.62-1.72-11.58-2.46-16.52-6.14-4.74-3.54-3.64-8.82-3.63-13.32a157.82,157.82,0,0,1,2.08-22.07A18.46,18.46,0,0,1,752,180.9c2.19-2.88,3.89-5.34,7.89-2.28a12.39,12.39,0,0,0,6.4,2.26c5.69.37,7.84,3.79,9,8.77C776.12,193.51,777.26,197.3,777.07,199.69Z" transform="translate(-9.26 -8.21)"/><path class="cls-2" d="M875.11,216.14A58.25,58.25,0,0,1,865.44,234c-3.12,3.79-6.89,7-10.06,10.78-2.81,3.32-6,1.5-9.25,1.55-6.08.1-11.19-2.29-16.41-4.9-3.26-1.63-3.27-4.05-2.15-6.56,5.88-13.13,15.66-22.46,28.65-28.47a5.8,5.8,0,0,1,5.32.07c3,1.83,6.32,2.52,9.54,3.64C873.71,211,875.89,212.51,875.11,216.14Z" transform="translate(-9.26 -8.21)"/><path class="cls-2" d="M754,419.59c-.48-7.55,2.39-14.86,8-21.2,2-2.22,3.93-3.31,6.86-1.4,1.61,1,3.87,1.09,5.47,2.15,2.32,1.53,5.81-.31,7.47,3a25.47,25.47,0,0,1,2.84,12.4c-.31,7.16-.74,14.36-2.63,21.38-1.75,6.46-6.8,9.24-13.37,8.22-10.86-1.69-13.24-8.83-14.61-20.59C753.9,422.57,754,421.56,754,419.59Z" transform="translate(-9.26 -8.21)"/><path class="cls-2" d="M865,415.21c-.24,5.31-3.94,9.48-7.84,12.11-3.64,2.44-8.54-.54-12.54-2.17-12-4.9-18.25-15.58-24.64-25.89-1.87-3,1.56-6.4,3-7.11,3.2-1.6,6.4-4.65,11.07-2.31,6.64,3.33,14.52,4.07,20,9.93,3.55,3.81,8,6.83,10.14,11.84A6.77,6.77,0,0,1,865,415.21Z" transform="translate(-9.26 -8.21)"/><path class="cls-5" d="M153.35,224c-.42-5.27,2.54-8.86,5.9-12,4.57-4.33,9.48-3.94,14.16.62.82.8,1.89,1.34,2.76,2.1,7.8,6.73,8.17,9.46,1.2,16.45-5.75,5.76-13.35,8.33-19.34,1.39C155.82,230,153,227.88,153.35,224Z" transform="translate(-9.26 -8.21)"/><path class="cls-5" d="M184,497.05c3.7-.49,6.5,1.79,9.22,3.9a74.07,74.07,0,0,1,7.64,7.08c3,3.15,2.72,6-.74,8.83-.51.42-1.09.77-1.63,1.15-11.26,8-20.72,5.26-26.23-7.56C169.38,503.69,175.19,497,184,497.05Z" transform="translate(-9.26 -8.21)"/><path class="cls-5" d="M117,485.61a8.68,8.68,0,0,1,10.44-8.34,11.81,11.81,0,0,0,3.38-.44c5.9-.88,13.75,3.09,15.76,8.65,1.7,4.71-1.45,8.93-3.27,12.89-1,2.09-4.79,1.55-7.45,2-7.83,1.38-11.65-3.73-16.09-8.14C118,490.46,116.73,488.33,117,485.61Z" transform="translate(-9.26 -8.21)"/><path class="cls-5" d="M101,314.44c.06-5.25,8.7-14.14,13.74-14.07a2.66,2.66,0,0,1,1.35.46c1.62,1,2.25,3.5,4.15,3.72,3.24.37,3.73,3.46,5.49,5.13,4.23,4,1.86,13.08-3.27,16.29-1.9,1.19-2.67-.79-4.27-.49-2,.38-3.59,2.14-5.53,2C108,327.11,101,319.08,101,314.44Z" transform="translate(-9.26 -8.21)"/><path class="cls-5" d="M137.46,255c5.81,0,15.11,9.41,15.24,14.23C152.84,275.1,147,281,140.87,281c-5.75,0-16.43-8.57-15.53-13.48.5-2.77.78-6.47,3.37-8.66A17.2,17.2,0,0,1,137.46,255Z" transform="translate(-9.26 -8.21)"/><path class="cls-5" d="M236.56,543a36.54,36.54,0,0,1-9.08-.82c-5.11-1-7.47-3.83-7.5-8.91,0-4.72,3.36-10.33,7.79-10.78,5.37-.56,11-1,16.11,1.93,4.18,2.37,5.15,6,4.29,10.42-1,5.19-4.65,7.31-9.38,8.13A7.55,7.55,0,0,1,236.56,543Z" transform="translate(-9.26 -8.21)"/><path class="cls-5" d="M110.77,360.62c0,5.09-8.38,11.6-13.17,10.08-6.28-2-10.7-6.22-12.44-12.68-1.5-5.55,2.47-8.33,6.39-10.75,3.7-2.28,7.27-1.94,10,1.76,2.08,2.82,5.85,3.63,7.7,6.8C110.21,357.44,111.41,358.78,110.77,360.62Z" transform="translate(-9.26 -8.21)"/><path class="cls-5" d="M266.16,551.44c4.59-5.1,15.26-6.83,21.39-3.47,3.47,1.9,4.23,5.69,2.61,10.66-3.34,10.21-11,9.65-20.57,6.2a13.26,13.26,0,0,1-2.49-1.59C264,559.53,265.29,555.47,266.16,551.44Z" transform="translate(-9.26 -8.21)"/><path class="cls-6" d="M702.78,726.25c15.43-.89,30.42-4.28,45.32-8.13,0,24.65.16,49.3-.23,74-.11,7-.69,14.22-.39,21,.36,8.34.61,16.75.18,25-.83,16.28.07,32.57-.9,48.81-1,16.65-.16,33.3-.84,49.93-.47,11.68-2.44,23.29-2.24,35,.1,5.77.65,11.59-.74,17.22-1.51,6.19-4,12-10.94,14a2.58,2.58,0,0,0-2,2.44c-.77,5.38-3.74,7.05-9.17,6.69-11.76-.78-23.61-.4-35.37-.31-6.39.05-13.12.5-19.56.58-7.11.1-14.29,1.42-21.49.1-3-.54-6.22.47-9.34.48-15.15.07-30.32-.32-45.46.2-6.43.22-13-1.31-19.4.85-1.82.62-4-1.15-6.28-.92-8.78.89-17.57,3.18-26.4,1.69-7.13-1.2-14.09,1.09-21.1.18-7.59-1-15.14.23-22.72.08-7.78-.15-15.78.89-23.38.24-12.64-1.07-25.24,0-37.71.26-24.66.57-49.33-.45-74,.82-5.1.27-10.49.22-15.7.15-8.06-.11-16.16-.92-24.28-.09-5.21.53-10.57-.19-15.85-.46s-10.5-.76-15.75-1c-2.18-.08-3.84-.72-3.37-3,.62-2.93-.9-2.91-3-3-8-.52-15.37-2.73-21.89-7.48-.66-.48-1.89-.87-1.59-1.69,1.58-4.26-1.16-8.16-.66-12.54.93-8,.22-16.14.51-24.21.43-12.37-.06-24.74.55-37.13.82-16.74-.11-33.56.51-50.31,1-27.08.12-54.18,1.11-81.24.54-14.7.45-29.4.88-44.1.26-9,1.37-18.08.8-27.15,15,3.3,30.05,4.18,45.19,1-.31,8.79-.9,17.59-.88,26.38,0,13.06-.43,26.13-.68,39.17-.21,10.48-.25,21.07-1.32,31.58-.89,8.8-.22,17.7-1,26.55-.19,2.13-2.44,3.91-1.11,6.08,3,4.92-3,10,.37,14.83-3.4,6.69-1.5,14-2,21-1.26,18.76-1.1,37.61-1.63,56.42q-.51,18.08-1.4,36.14c-.08,1.74-.44,2.9,1.89,2.82,7.9-.26,15.79-.84,23.72-.79,2.94,0,4.75.2,5.29,3.89,1-3,2.57-5.59,4.85-4.86,3.64,1.16,6.85-.37,10.27-.31,9.32.18,18.65-.21,28,0,6,.16,12.48-2.87,17.45-.93,7.53,3,14-1,21-.6,5.33.3,11,.93,16.7.07,3.41-.52,7.38.78,11.25.2,5.86-.88,12.2.73,17.54-.15,8.82-1.45,17.48-.13,26.16-.69,12.71-.82,25.64-.59,38.48-.45,16.45.19,32.9-.15,49.34-.39,11.25-.16,22.5-.19,33.73-.37,3.78-.06,9.31-2.34,12.41,2.85a2.06,2.06,0,0,0,1.7,0c2.15-5,6.37-2.78,9.78-2.67,10.36.31,20.67-1.17,31.06-.55,8.11.47,16.27-.26,24.41-.31,8,0,16-.32,23.93.39,3.3.29,4.13-.49,3.39-3-1.61-5.55.13-11.29-1.84-17-1.05-3.05.27-8-.32-11.2-1.16-6.47.2-12.8-.78-19.25-1.84-12.23-.11-24.72-.5-37.13-.43-13.51-1.21-27-.92-40.62.32-14.58-1.19-29.19-1.37-43.8-.25-19.27.71-38.54-.11-57.81C702.63,741.77,704.14,734,702.78,726.25ZM563,1008l-7.92,2.06c4.16,1.09,7.25,3.13,7.87-2.11l.26-.35ZM742.64,802.15c-2.43,1.85-3,3.2-2.08,5s.26,3.19-.37,4.76C745.42,809.7,740.43,805.77,742.64,802.15Z" transform="translate(-9.26 -8.21)"/><path class="cls-4" d="M149.47,985.86c-5.12,6.77-10.31,13.1-14,20.43-1.46,2.92-4.41,4.47-5.78,7.36-.16.34-1,.75-1.23.62-4.94-2.86-11-2.39-15.85-5.68-1.54-1.06-1.89-1.87-1.18-3.61,4.93-12,10.5-23.66,20.54-32.42,1.86-1.62,1.62-2.5,0-4.16-7-7.07-13.81-14.24-20.07-21.95-1.24-1.53-3.14-2.83-.87-5s2-6.36,7.65-3.89c7.92,3.46,15.92,7.08,24.41,9.24,2.78.7,3.76,3.85,5.91,6,5.09-5.55,8.93-12.18,14.73-17,2.52-2.12,5-4.18,8.88-2,1.91,1.08,1.79,3,3.29,4.35,2.9-4.59,6.36.93,9.56-.58.76,2,1.14,4.07-.68,5.8-8.13,7.71-12.26,18.7-21.16,25.79-1,.79-.48,1.6.46,2.37,8.11,6.67,15.78,13.82,21.85,22.44,2.07,2.95,5.16,4.93,7.22,8.19-1.35,1.59-3.25.32-5,1.34,1,.45,1.68,1,2.38,1,1.12,0,2.49-1.74,3.24.23.52,1.39,0,2.55-1.5,3.69s-3.79,2.63-3.59,4.14C171.73,1009.82,160.9,997.64,149.47,985.86Z" transform="translate(-9.26 -8.21)"/><path class="cls-4" d="M799.42,952.38c-1.95,6.45-5,7.22-10.66,3.48-1.59-1.05-4.83.61-5-3-2.2,2.09-3.94.13-6-.44-12.88-3.52-16.85-13.84-18.55-25.14-1.32-8.74.66-17.7,2.23-26.3,1-5.52,5.12-10.48,7.89-15.67,1.24-2.32,2.23-4.9,4-6.78s2.71-5.44,6.58-3.7c.35.15,1.38-.41,1.59-.86,2.46-5.51,6.19-3.72,9.57-1.45,3.84,2.57,8.46,3,12.58,4.53,10.64,4.06,16.59,11.4,18.86,21.81,3,13.59,2.62,27.33-2.61,40.35-2.37,5.89-6.81,11-11.82,15C803.65,957.83,802.46,957.37,799.42,952.38Zm-3.86-12.15a18.92,18.92,0,0,1,.5-4.33c4.48-12.46,4.45-25.53,5.24-38.46.55-8.87-2.45-12.76-10.46-16.56-3.86-1.83-5.88-.52-6.49,3-.8,4.6-2.87,8.69-4.37,13a57.76,57.76,0,0,0,.21,39.39c2.56,7.19,5,8,11,3.82C793.13,938.73,794.12,939.77,795.56,940.23Z" transform="translate(-9.26 -8.21)"/><path class="cls-4" d="M138,763.79a56.7,56.7,0,0,1-7.74,30.62c-3.32,5.58-6.77,11.85-14.29,12a38.17,38.17,0,0,1-19.27-4.63c-9-5-17.2-11.08-19.9-22-1.54-6.23-1.42-12.57-2.09-18.84-.58-5.43-.55-10.59,1.38-15.42,3.52-8.81,9-16,19.12-18.09a12.46,12.46,0,0,1,6.73.59c6.63,2.24,13.72,3.57,19.88,6.71C133.23,740.44,138.76,750.25,138,763.79Zm-19,6.51c0-3.38.07-5.38,0-7.38-.27-6-1.62-12-5-16.65-5.22-7.15-19.19-3.88-23.09,4.31-4.72,9.94-3.66,19.46,0,29.26a33.07,33.07,0,0,0,12.51,15.9c2.46,1.71,5.4,2.37,7.78.43,3.73-3,5-8.13,6.35-12.16C119,779.53,119.87,774.08,119,770.3Z" transform="translate(-9.26 -8.21)"/><path class="cls-4" d="M197.64,788.12c-2-4.73-6.7-3.83-9.87-4.93-3.71-1.29-5.19-3.19-5.71-6.38-1.61-10-10-31.25-16.19-40-1.52,7.27-3.06,14.1-5.85,20.55-1.12,2.6-2.27,5.24-5.46,5.65-4.18.55-7.91-1.2-11-3.61-1-.74-.73-3.51-.47-5.26,1.43-9.42.68-19.2,4-28.25,2.2-5.9,6.21-10.83,10.78-15.2,1.22-1.17,2.73-.92,4.16-.19,1.61.81,3.25,2.35,4.83,2.29,9.79-.33,12.08,7.68,15.76,14a186.45,186.45,0,0,1,13.9,29.55c2,5.36,4,10.73,4.5,16.52.12,1.45-.09,3.28.69,4.26,2.65,3.28,1,5.22-1.53,7.32C199.23,785.2,198.72,786.5,197.64,788.12Z" transform="translate(-9.26 -8.21)"/><path class="cls-4" d="M856.92,907.69c-4.23,5.55-7.9,10.17-11.34,15-3.88,5.4-7.72.39-11.32-.21s-1.36-4.09-.88-6.1c2.84-11.85,9.06-21.78,17.42-30.58,4.58-4.83,6.9-5.66,12.78-2.73,1.17.58,2.45,1.42,3.64,1.36,7-.33,7.22,4.93,7.71,9.52a156.2,156.2,0,0,1,.25,35.12c-.83,7-1.79,14.19-1.69,21.22.08,5-3,7.23-5,11-2.75-4.43-7.63-3.34-11.39-4.84-4-1.61-4.44-3.22-3.72-6.84A186,186,0,0,0,856.92,907.69Z" transform="translate(-9.26 -8.21)"/><path class="cls-5" d="M744.11,1105c-7.61-.16-12.09-7.06-12.15-17.63,0-5.58,6.52-8.07,14.54-8.29,8.83-.24,12.82,5,12.55,15.3C758.9,1100.35,752.09,1105.19,744.11,1105Z" transform="translate(-9.26 -8.21)"/><path class="cls-5" d="M932.87,894.12c.59,4.4-2,8-4.49,8.51-3.08.58-7.39,3.31-10.4-1a4.62,4.62,0,0,0-2.32-1.72c-6.53-2.39-8.47-7.47-8.67-14-.12-4.12,1.74-5.7,4.91-7.93,3.43-2.43,6.45-4.79,10.31-2.7C929.72,879.39,933.09,886.16,932.87,894.12Z" transform="translate(-9.26 -8.21)"/><path class="cls-5" d="M899,848.43c.45,2.46-2.34,5.54-4.79,7-3.39,2-7.68.46-11.36-1.19-4-1.82-5.32-5.66-6.6-9.37-1-2.94-1.64-6-2.45-9-1.18-4.38.45-7.21,5-7.71A35.7,35.7,0,0,1,893,829.43c2.76.83,3.81,2.84,4.13,5.54C897.57,838.93,898.18,842.88,899,848.43Z" transform="translate(-9.26 -8.21)"/><path class="cls-5" d="M936.42,953.17c-7.49-.12-9.08-2-10.72-9.1-1-4.15-2.64-8.13-.84-12.25,1.53-3.5,4-6.5,8.42-5.7,5,.91,10.07,1.26,13,7.08,3.45,6.83,1.86,12.15-2.57,17.42C941.68,953,938.83,953.06,936.42,953.17Z" transform="translate(-9.26 -8.21)"/><path class="cls-5" d="M842.07,1032.06c1.79,0,2.49,4.35,5.19,1.35.14-.16,1.64.69,2.33,1.27,1.45,1.23,3.43,12.68,2.62,14.64-1.75,4.24-7.91,8-12.63,7.66-7.72-.52-9.69-3.13-11.49-10.78-.94-4,.77-7.16,1-10.7.23-3.79,9.93-6.18,12.91-3.52-.25.2-1,.25-.22.74C841.86,1032.5,842,1032.28,842.07,1032.06Z" transform="translate(-9.26 -8.21)"/><path class="cls-5" d="M792.94,1056c7.43,0,13.84,8.17,13.67,17.5-.07,4-6.26,9.46-10.69,9.46-9.53,0-13.79-4.93-13.93-16.13C781.91,1060.56,786.45,1056.07,792.94,1056Z" transform="translate(-9.26 -8.21)"/><path class="cls-5" d="M920.62,997.91c-5.64.09-10.21-4.28-12.54-12-2.41-8,.92-12.45,9.4-13,3.62-.21,6.82,1,10.11,2a3.63,3.63,0,0,1,1.6,1c3.84,4.76,2.71,16.79-1.88,20.61C925.3,998.32,922.93,997.9,920.62,997.91Z" transform="translate(-9.26 -8.21)"/><path class="cls-5" d="M856.16,784c4.92.06,15.38,7.24,16.61,11.6a9.49,9.49,0,0,1-2.93,9.91c-3.49,3.21-8.24,4.75-12.12,2s-9.15-4.78-11.08-10.19C844,790,848.25,783.9,856.16,784Z" transform="translate(-9.26 -8.21)"/><path class="cls-5" d="M810,701.1c0-4.5,5.25-11.53,9.49-12.86,2.65-.83,4.3,1.12,6.4,2a15.92,15.92,0,0,1,10,11.16c1.28,4.51-3.82,12.5-8.71,12-6.44-.68-11.84-4.23-16.35-8.94C809.92,703.47,810,702.27,810,701.1Z" transform="translate(-9.26 -8.21)"/><path class="cls-5" d="M889,1017.44c.69,10-5.65,13.73-14.43,11.53-1.82-.46-4.08-1.57-4.13-3-.19-5.08-4-9.12-3.54-14.35.42-5.41,4-8.57,9.44-7.66C885.3,1005.46,889.07,1009.47,889,1017.44Z" transform="translate(-9.26 -8.21)"/><path class="cls-5" d="M848.7,753.38a11.5,11.5,0,0,1-6.63,9.31c-3.08,1.64-6.3,2.48-9.05-1.09-.82-1.07-2.44-1.58-3.75-2.21-8.26-4-9.71-9.4-3.43-15.1,2.69-2.45,6.61-4.7,10.43-3.67C842.43,742.27,848.81,750,848.7,753.38Z" transform="translate(-9.26 -8.21)"/><path class="cls-8" d="M392.38,886.63c.47-1,3.05.67,2.1-2.65-6-20.82-10.86-42-9.32-63.79,1.55-22,1.82-44,2-66,.06-5.57,2.35-11.17-.67-16.61,4.73-8.59-.35-18,2.21-26.91,1.1-3.82,3.1-2.52,5-2.66,2.13-.15,3.86-.27,4.39,3.06,1,6.15.69,12.26.81,18.39.14,7.33,3.32,10.25,10.52,11.62,10.14,1.93,20.39.81,30.48,2,7.17.83,14.22-.29,21.26.1,11.13.61,22.26.72,33.38.67,9.9,0,19.84.41,29.75-.71,3.29-.38,6.7.27,10.06.45,3.1.17,6.09.76,9.27-.45,4.08-1.55,8.53-.68,12.76-.29,7.39.68,14.5-1.16,21.68-2.07,5.78-.73,9.23-5.07,9-10.46-.26-6.27.63-12.57.81-18.87.07-2.23.7-3.84,3-3.34,2,.43,5.1-2.11,6.16,2a20.34,20.34,0,0,1,.86,5.35c0,6.16-.3,12.34.13,18.47.16,2.29.54,4.31.1,6.74-.56,3.11.34,6.52.79,9.79.4,3,1.15,6.78.71,8.94-1.25,6.17-.35,12.18-.66,18.23-.84,16.44,2.21,32.72,2.06,49.17a181.53,181.53,0,0,1-3.45,32c-1.54,8.25-3.65,16.37-5.42,24.55-2.76,12.74-11.4,27.12-20.3,35.47a50.34,50.34,0,0,1-30.77,13.31c-15.76,1.11-30.64,7.34-46.74,6.12-11.83-.9-23.67-.74-35-4.66-5.34-1.83-11-.23-16.45-1.49-22.14-5.05-38.47-16.64-45.63-39.09C396.31,889.8,396.21,889.83,392.38,886.63Zm101.1-106.4c-11.15-2-19.43,2.95-26.31,11.6-4.24,5.34-5.59,14.24-2.48,20.48a33.33,33.33,0,0,0,11.52,13.31c4.15,2.68,3.39,5.43,2.08,8.93-4.54,12.1-8.77,24.3-12.21,36.78-.8,2.91.27,4.69,2.43,5.12,4.07.82,7.55,3.06,11.64,3.87,5,1,9.84-.57,14.59.25,8.66,1.49,16.21-1.49,23.8-4.72,1.59-.68,2.39-1.46,1.65-3.69-2.21-6.66-3.8-13.52-5.93-20.21-2.25-7.05-4.87-14-7.23-21-.42-1.24-1.38-2.71.72-3.75,4.71-2.33,7.54-6.72,11.06-10.38,5.88-6.12,5.39-17.5,1.8-22.69C514.15,784.82,506.21,778.05,493.48,780.23Z" transform="translate(-9.26 -8.21)"/><path class="cls-9" d="M599.61,668.6c-4.15,1.27-8.24,2.46-12.28,3.79-2.06.67-3.56,1-3.42-2,.06-1.27-.79-2.61-.65-3.85,1.21-11.23-2.64-21.63-5.59-32-3.24-11.44-12-16.92-23.28-19.52-26.46-6.09-53.21-6.37-80.16-5.5-14.81.48-29.26,2.84-43.66,5.73-13.77,2.77-20.42,12.14-23.79,25.31-2.73,10.67-4.59,21.26-3.66,32.64l-9-2.32c-7.33-1.86-8.91-5.94-4.94-12.66a6,6,0,0,0,.77-2.29c1.43-11.56,4.91-22.54,8.94-33.43,3.58-9.69,10.11-15.93,19.15-20.78a125.93,125.93,0,0,1,34.47-12.11c10.21-2.07,21-3.48,31.73-2.8,8.5.55,17-.45,25.54.13,23.83,1.63,46.43,6.91,66.85,19.83,3.74,2.37,6.11,6,8.1,9.78,4.44,8.54,7,17.75,9.15,27.06C595.87,651.85,597.71,660.23,599.61,668.6Z" transform="translate(-9.26 -8.21)"/><path class="cls-6" d="M699.8,644.23c8.21-3.71,17.23-4.29,25.78-6.65,2.5-.69,4.73.09,6.76.67,3.69,1.06.73,3.86.61,5.81-.53,8.89,2.65,16.39,8.11,23.13a7.77,7.77,0,0,0,6.05,2.93c1.78,5.82.31,11.83,1,17.72-13.33,10.5-28.65,14.07-45.3,13-.2-7,.25-14-.65-21.07a59.45,59.45,0,0,1-.4-13.54C702.59,658.65,701.42,651.47,699.8,644.23Z" transform="translate(-9.26 -8.21)"/><path class="cls-6" d="M264.2,638.87a102.74,102.74,0,0,1,26.25,6.86c4.29,1.7,8.72,3,13,4.82,3.22,1.4,3.79,4.16,5.43,6.42-2.1,1.46-1.61,4.32-4.7,5.92-10,5.15-9.47,19.78.26,25.2.94.53,2.31.79,2.43,2.24.17,2.06-1.74,1.69-2.78,2.2-4.43,2.22-8.79,4.69-13.43,6.37-9.52,3.43-19.18,3-28.76-.06C262.2,678.83,264.42,658.9,264.2,638.87Z" transform="translate(-9.26 -8.21)"/><path class="cls-1" d="M100,562.15c5.69-.47,11.21.72,16.63,2.05,13,3.21,22.08,12,30,22.21,1.52,2,3.17,3.82,4.94,5.94-2.9,1-5.68,2-8.52,2.84-5.79,1.65-8.66,5.62-9,11.43-.13,2.53-1.68,3-3.22,2.19-9.76-5.27-20.73-8.48-28.82-16.64.68-2.69,1.29-5.23.31-8.14-.89-2.65-1.8-6.43-1.26-8.26C102.48,570.79,100.05,566.66,100,562.15Z" transform="translate(-9.26 -8.21)"/><path class="cls-1" d="M887,589.56c-8.37,9.7-20.41,13.41-31.22,19.13-.9.47-2.09.8-2.86-.78-6-12.33-6-12.32-17.63-15.44,11.55-17,25.39-30.23,47.72-30.05C883,571.67,883.17,580.89,887,589.56Z" transform="translate(-9.26 -8.21)"/><path class="cls-1" d="M264.2,638.87c.22,20-2,40-2.32,60-13.93-2.52-24.81-9.68-32.89-21.27a12.63,12.63,0,0,1-2.15-4.87c-1.05-4.92-.41-5.73,4.47-4.69,12.84,2.76,13.15,2.42,19.06-9.38,2.41-4.82,2.73-9.68,2.7-14.81,0-1.85-2.64-4.46-.11-5.28s5.19-2.51,8.09-.89A23.88,23.88,0,0,0,264.2,638.87Z" transform="translate(-9.26 -8.21)"/><path class="cls-1" d="M748.13,687.84c-.71-5.89.76-11.9-1-17.72,2.69-.71,5.35-1.58,8.07-2.08,4.69-.85,5.85.51,4.13,5.19C757.11,679.2,753.07,683.89,748.13,687.84Z" transform="translate(-9.26 -8.21)"/><path class="cls-8" d="M368.68,801.8c.81,1.78-.18,3.85,1,5.62a1.59,1.59,0,0,1-1,2.37c-.56.22-1.61.34-1.83.05-.87-1.14,1.31-.94,1-2C367.36,805.76,366.65,803.64,368.68,801.8Z" transform="translate(-9.26 -8.21)"/><path class="cls-1" d="M263.73,137.48c.46,2.5-1.21,4.19-1.7,6.19a1.67,1.67,0,0,1-2.78.89c-2-1.83.69-1.22,1.09-1.84C261.42,141,260.66,138.29,263.73,137.48Z" transform="translate(-9.26 -8.21)"/><path class="cls-5" d="M309.15,582.88c4.62-1.63,9.41-.34,14.11-.8,2.27-.22,3.47,1.87,4.47,3.48,2.55,4.1,1.53,12.24-1.65,15.86-2.43,2.78-5.95,1.86-8.8,2.09a13.45,13.45,0,0,1-8.13-1.52,12.45,12.45,0,0,0-1.56-1.89C300.93,594.7,301.62,586.93,309.15,582.88Z" transform="translate(-9.26 -8.21)"/><path class="cls-1" d="M302.23,298.91c-3.24-6.76-8.05-11.94-9.78-18.84a57.58,57.58,0,0,1,1.44-32.44c1.59-4.9,6.44-5.73,10.45-7.42,1.54-.64,2.34,1,3.18,1.87A31.46,31.46,0,0,1,316.21,265c-.19,8.62.71,17.63-7,24.13-.5.43-.85,1.05-1.38,1.43C305,292.59,301.2,293.84,302.23,298.91Z" transform="translate(-9.26 -8.21)"/><path class="cls-1" d="M364.4,244.48c.18.23.44.44.44.63s-.26.45-.4.68c-.11-.12-.32-.26-.3-.37A5.85,5.85,0,0,1,364.4,244.48Z" transform="translate(-9.26 -8.21)"/><path class="cls-1" d="M742.64,802.15c-2.21,3.62,2.78,7.55-2.45,9.71.63-1.57,1.25-3.1.37-4.76S740.21,804,742.64,802.15Z" transform="translate(-9.26 -8.21)"/><path class="cls-1" d="M563,1008c-.62,5.24-3.71,3.2-7.87,2.11L563,1008Z" transform="translate(-9.26 -8.21)"/><path class="cls-1" d="M563,1008l.21-.4-.26.35Z" transform="translate(-9.26 -8.21)"/><path class="cls-1" d="M795.56,940.23c-1.44-.46-2.43-1.5-4.36-.16-6,4.16-8.45,3.37-11-3.82a57.76,57.76,0,0,1-.21-39.39c1.5-4.31,3.57-8.4,4.37-13,.61-3.5,2.63-4.81,6.49-3,8,3.8,11,7.69,10.46,16.56-.79,12.93-.76,26-5.24,38.46A18.92,18.92,0,0,0,795.56,940.23Z" transform="translate(-9.26 -8.21)"/><path class="cls-1" d="M119,770.3c.87,3.78,0,9.23-1.47,13.71-1.3,4-2.62,9.11-6.35,12.16-2.38,1.94-5.32,1.28-7.78-.43a33.07,33.07,0,0,1-12.51-15.9c-3.67-9.8-4.73-19.32,0-29.26,3.9-8.19,17.87-11.46,23.09-4.31,3.39,4.65,4.74,10.68,5,16.65C119.07,764.92,119,766.92,119,770.3Z" transform="translate(-9.26 -8.21)"/><path class="cls-1" d="M842.07,1032.06c-.11.22-.21.44-.31.66-.73-.49,0-.54.22-.74Z" transform="translate(-9.26 -8.21)"/><path class="cls-6" d="M367.75,404.91c2,.82,4-1.22,6.15-.11.34.18,1,.79,1-.12,0-2.66.74-4.6,3.84-4.65,4.45-.08,9.14-1,13.07,1.72a31.32,31.32,0,0,0,15.08,5.41c4.46.51,8,2.71,11,6.92,3.34,4.67,7.2,8.72,8.6,14.57,4.12,17.19-1.09,32-12.11,44.8A27,27,0,0,1,402.83,481c-1,.33-1.89.31-2.48,1.28-2,3.26-5.07,3.92-8.57,3.66-5.27-.39-11.26.73-15.66-1.42-9.89-4.84-21.26-6.42-29.91-14.1-9.55-8.49-14.75-27.74-8.58-39.07,3.14-5.77,6-11.89,11.45-16.79,4-3.61,7-7.72,12.64-8.95A27,27,0,0,1,367.75,404.91Z" transform="translate(-9.26 -8.21)"/><path class="cls-1" d="M375.05,511.67c-1.46-1.3-4.26.43-4.93-2.3-.5-2.05,1.56-2.87,2.65-1C373.47,509.63,374.93,510,375.05,511.67Z" transform="translate(-9.26 -8.21)"/><path class="cls-1" d="M371.94,942l2.58,5.29C369.7,947.37,369.4,946.87,371.94,942Z" transform="translate(-9.26 -8.21)"/><path class="cls-2" d="M310.94,723c.42,1-.31.91-.88.9-.12,0-.22-.31-.33-.48L311,723Z" transform="translate(-9.26 -8.21)"/><path class="cls-2" d="M675,723l1.68.55c-.13.1-.27.29-.4.29-.6,0-1.38.18-1.23-.89Z" transform="translate(-9.26 -8.21)"/><path class="cls-2" d="M493.48,780.23c12.73-2.18,20.67,4.59,27.13,13.9,3.59,5.19,4.08,16.57-1.8,22.69-3.52,3.66-6.35,8-11.06,10.38-2.1,1-1.14,2.51-.72,3.75,2.36,7,5,13.95,7.23,21,2.13,6.69,3.72,13.55,5.93,20.21.74,2.23-.06,3-1.65,3.69-7.59,3.23-15.14,6.21-23.8,4.72-4.75-.82-9.64.74-14.59-.25-4.09-.81-7.57-3.05-11.64-3.87-2.16-.43-3.23-2.21-2.43-5.12,3.44-12.48,7.67-24.68,12.21-36.78,1.31-3.5,2.07-6.25-2.08-8.93a33.33,33.33,0,0,1-11.52-13.31c-3.11-6.24-1.76-15.14,2.48-20.48C474.05,783.18,482.33,778.2,493.48,780.23Z" transform="translate(-9.26 -8.21)"/></g></g></svg>
