<?xml version="1.0" encoding="utf-8"?>
<!-- Generator: Adobe Illustrator 23.0.3, SVG Export Plug-In . SVG Version: 6.00 Build 0)  -->
<svg version="1.1" id="Camada_1" xmlns="http://www.w3.org/2000/svg" xmlns:xlink="http://www.w3.org/1999/xlink" x="0px" y="0px"
	 viewBox="0 0 166 58" style="enable-background:new 0 0 166 58;" xml:space="preserve">
<style type="text/css">
	.st0{fill:#FFFFFF;}
</style>
<g>
	<path class="st0" d="M54.67,12.97c2.85,0.05,5.51,0.72,7.84,2.42c1.29,0.94,1.5,2.08,0.63,3.24c-0.66,0.88-1.49,1.08-2.46,0.52
		c-1.37-0.79-2.72-1.61-4.31-1.89c-1.61-0.28-3.2-0.26-4.73,0.4c-2.77,1.2-3.19,4.3-0.83,6.19c1.23,0.98,2.68,1.56,4.1,2.17
		c1.82,0.78,3.64,1.53,5.32,2.61c2.86,1.84,4.31,4.43,4,7.85c-0.31,3.39-2.09,5.85-5.25,7.09c-4.79,1.87-9.39,1.38-13.6-1.7
		c-1.24-0.91-1.53-1.83-1.07-2.88c0.61-1.38,1.81-1.76,3.06-0.93c1.34,0.89,2.65,1.81,4.26,2.18c1.97,0.46,3.89,0.37,5.7-0.57
		c2.82-1.47,3.16-4.97,0.7-6.99c-1.15-0.94-2.5-1.54-3.85-2.13c-1.91-0.84-3.86-1.59-5.62-2.73c-1.69-1.09-3.02-2.47-3.58-4.46
		c-1.17-4.18,1.06-8.23,5.35-9.71C51.73,13.16,53.18,12.96,54.67,12.97z"/>
	<path class="st0" d="M32.09,36.42c-0.06,2.99-1.11,5.61-3.25,7.76c-3.27,3.29-6.56,6.55-9.82,9.84c-0.39,0.39-0.57,0.45-0.95-0.04
		c-1.68-2.23-1.5-5.17,0.54-7.24c2.11-2.14,4.24-4.25,6.36-6.37c2.41-2.41,2.4-5.63-0.01-8.04c-2.14-2.14-4.3-4.27-6.42-6.43
		c-1.96-1.99-2.12-5.1-0.45-7.18c0.33-0.41,0.52-0.45,0.91-0.05c3.28,3.31,6.6,6.59,9.87,9.9C31,30.72,32.05,33.35,32.09,36.42z"/>
	<path class="st0" d="M4.92,21.64c0.02-3,1.05-5.61,3.16-7.74c3.29-3.34,6.63-6.63,9.93-9.96c0.41-0.42,0.59-0.32,0.9,0.08
		c1.7,2.15,1.5,5.18-0.52,7.23c-2.16,2.19-4.36,4.35-6.53,6.54c-2.18,2.2-2.17,5.5,0,7.7c0.38,0.38,0.76,0.76,1.14,1.14
		c1.8,1.8,3.61,3.59,5.4,5.4c2.01,2.04,2.22,5.1,0.53,7.23c-0.3,0.38-0.48,0.52-0.91,0.09c-3.29-3.33-6.63-6.62-9.93-9.96
		C5.98,27.26,4.93,24.59,4.92,21.64z"/>
	<path class="st0" d="M90.16,37.07c0.1-1.87-0.2-4.1,0.27-6.3c1.1-5.22,5.01-8.31,10.37-8.14c6.04,0.18,9.95,4.22,10.1,10.5
		c0.07,3.05,0.02,6.11,0.01,9.17c0,1.16-0.56,1.76-1.72,1.94c-0.4,0.06-0.8,0.07-1.2,0.02c-1.21-0.17-1.74-0.75-1.74-1.98
		c0-2.84,0-5.68,0-8.52c0-1.46-0.17-2.89-0.81-4.22c-0.99-2.06-2.63-3.1-4.93-3.09c-2.26,0.01-3.88,1.04-4.87,3.06
		c-0.6,1.23-0.81,2.54-0.81,3.9c-0.01,2.89-0.01,5.79,0,8.68c0.01,0.9-0.19,1.65-1.11,2.02c-0.98,0.4-2.53,0.18-3.11-0.44
		c-0.35-0.37-0.46-0.83-0.45-1.33C90.17,40.69,90.16,39.05,90.16,37.07z"/>
	<path class="st0" d="M148.73,37.14c0.05-2.13-0.16-4.57,0.43-6.97c1.18-4.73,5.15-7.74,10.02-7.55c1.12,0.04,1.89,0.79,1.9,1.86
		c0.02,1.12-0.74,1.91-2,1.94c-1.81,0.04-3.28,0.69-4.33,2.18c-0.97,1.38-1.31,2.97-1.31,4.63c-0.01,2.84,0,5.67,0,8.51
		c0,2.19-1.69,3.23-3.71,2.28c-0.83-0.39-1.01-1.12-1.01-1.93C148.72,40.54,148.73,38.99,148.73,37.14z"/>
	<path class="st0" d="M120,33.67c0,2.81,0,5.62,0,8.44c0,1.51-0.64,2.15-2.14,2.18c-1.62,0.03-2.41-0.6-2.41-2.1
		c-0.03-5.76-0.03-11.52,0-17.27c0.01-1.47,0.82-2.12,2.36-2.08c1.5,0.05,2.19,0.71,2.19,2.16C120,27.88,120,30.77,120,33.67z"/>
	<path class="st0" d="M114.9,16.46c-0.01-1.68,1.11-2.82,2.79-2.84c1.71-0.02,2.9,1.14,2.89,2.82c0,1.67-1.15,2.83-2.8,2.85
		C116.07,19.31,114.91,18.16,114.9,16.46z"/>
	<path class="st0" d="M73.22,34.99c1.71,0.03,3.43,0.01,5.14,0.01c1.71,0,3.43,0.02,5.14-0.01c1.88-0.03,2.81-0.91,2.93-2.69
		c0.31-4.5-2.47-8.41-6.71-9.43c-4.56-1.1-9,0.98-10.78,5.14c-1.43,3.36-1.52,6.83-0.32,10.27c0.99,2.86,2.99,4.79,5.92,5.65
		c2.7,0.79,5.4,0.67,8.04-0.29c1.06-0.38,2.06-0.92,2.86-1.74c0.72-0.74,0.77-1.84,0.15-2.64c-0.6-0.77-1.61-0.96-2.52-0.45
		c-0.33,0.18-0.63,0.4-0.95,0.6c-3.93,2.47-8.64,0.72-9.6-3.56C72.38,35.21,72.56,34.98,73.22,34.99z M72.64,30.39
		c0.72-2.97,3-4.49,5.83-3.89c1.95,0.41,3.5,2.37,3.5,4.37c0,0.55-0.3,0.61-0.72,0.6c-1.34,0-2.68,0-4.02,0c-1.26,0-2.52,0-3.78,0
		C72.46,31.46,72.4,31.37,72.64,30.39z"/>
	<path class="st0" d="M133.7,22.62c-2.7,0.04-5.61,1.12-7.65,3.97c-1.86,2.59-2.21,5.56-1.95,8.65c0.46,5.5,4.49,9.25,10,9.27
		c4,0.02,7.27-1.38,9.29-5.02c1.12-2.02,1.41-4.23,1.37-6.51C144.65,26.75,140.51,22.6,133.7,22.62z M139.2,37.68
		c-0.99,2.19-2.84,3.09-5.21,2.98c-2.12-0.1-3.91-1.52-4.74-3.75c-0.41-1.12-0.55-2.28-0.54-3.95c-0.01-0.83,0.18-2.13,0.74-3.33
		c0.92-1.99,2.47-3.11,4.7-3.18c2.25-0.07,4,0.84,4.97,2.87C140.42,32.05,140.46,34.9,139.2,37.68z"/>
</g>
</svg>
