<svg fill="none" height="119" viewBox="0 0 21 119" width="21" xmlns="http://www.w3.org/2000/svg"><path d="m5.50002 6.00003c-.223 0-.437.034-.65.065.069-.232.14-.468.254-.68.114-.308.292-.575.469-.844.148-.291.409-.488.601-.737.201-.242.475-.403.692-.604.213-.21.492-.315.714-.463.232-.133.434-.28.65-.35l.539-.222.474-.197-.485-1.9380007-.597.1439997c-.191.048-.424.104-.689.171-.271.05-.56.187-.882.312-.318.142-.686.238-1.028.466001-.344.218-.741.4-1.091.692-.339.301-.748.562-1.05.945-.33.358-.656.734-.909 1.162-.293.408-.492.856-.702 1.299-.19.443-.343.896-.468 1.336-.237.882-.342997 1.72-.383997 2.437-.034.718-.014 1.31497.028 1.74697.014997.204.042997.402.062997.539l.025.168.026-.006c.17786.8309.58731 1.5944 1.18097 2.2022.59366.6079 1.34727 1.0352 2.17367 1.2327.8264.1974 1.69181.1568 2.49612-.117.80431-.2739 1.51465-.7699 2.04885-1.4306s.87044-1.4592.96981-2.303c.09936-.8438-.04218-1.69851-.40828-2.46525-.36611-.76673-.9418-1.41416-1.66048-1.86737-.71869-.45322-1.551-.69371-2.40066-.69365zm10.99998 0c-.223 0-.437.034-.65.065.069-.232.14-.468.254-.68.114-.308.292-.575.469-.844.148-.291.409-.488.601-.737.201-.242.475-.403.692-.604.213-.21.492-.315.714-.463.232-.133.434-.28.65-.35l.539-.222.474-.197-.485-1.9380007-.597.1439997c-.191.048-.424.104-.689.171-.271.05-.56.187-.882.312-.317.143-.686.238-1.028.467001-.344.218-.741.4-1.091.692-.339.301-.748.562-1.05.944-.33.358-.656.734-.909 1.162-.293.408-.492.856-.702 1.299-.19.443-.343.896-.468 1.336-.237.882-.343 1.72-.384 2.437-.034.718-.014 1.31497.028 1.74697.015.204.043.402.063.539l.025.168.026-.006c.1779.8309.5873 1.5944 1.181 2.2022.5936.6079 1.3473 1.0352 2.1737 1.2327.8264.1974 1.6918.1568 2.4961-.117.8043-.2739 1.5146-.7699 2.0488-1.4306s.8705-1.4592.9698-2.303c.0994-.8438-.0421-1.69851-.4082-2.46525-.3661-.76673-.9418-1.41416-1.6605-1.86737-.7187-.45322-1.551-.69371-2.4007-.69365z" fill="#51b3f7"/><path d="m10 27c2.6667 3.0333 2.6667 6.0667 0 9.1-2.66666 3.0333-2.66666 6.0667 0 9.1 2.6667 3.0333 2.6667 6.0667 0 9.1-2.66666 3.0333-2.66666 6.0667 0 9.1 2.6667 3.0333 2.6667 6.0667 0 9.1-2.66666 3.0333-2.66666 6.0667 0 9.1 2.6667 3.0333 2.6667 6.0667 0 9.1-2.66666 3.0333-2.66666 6.0667 0 9.1 2.6667 3.033 2.6667 6.067 0 9.1-2.66667 3.033-2.66667 6.067 0 9.1" stroke="#51b3f7"/></svg>