<svg xmlns="http://www.w3.org/2000/svg" fill="none" viewBox="0 0 16 46"><defs/><path fill="#2FCB5A" d="M2.5 17.531c1.52-1.52 3.354-2.281 5.5-2.281s3.969.76 5.469 2.281c1.52 1.5 2.281 3.323 2.281 5.469 0 2.146-.76 3.98-2.281 5.5-1.5 1.5-3.323 2.25-5.469 2.25-2.146 0-3.98-.75-5.5-2.25C1 26.98.25 25.146.25 23S1 19.031 2.5 17.531zm9.906 1.063C11.198 17.364 9.73 16.75 8 16.75c-1.73 0-3.208.615-4.438 1.844C2.354 19.802 1.75 21.27 1.75 23c0 1.73.604 3.208 1.813 4.438C4.792 28.645 6.27 29.25 8 29.25c1.73 0 3.198-.604 4.406-1.813 1.23-1.229 1.844-2.708 1.844-4.437 0-1.73-.615-3.198-1.844-4.406zm-.031 2.218c.188.188.188.365 0 .532L7 26.687c-.188.188-.365.188-.531 0l-2.844-2.843c-.188-.188-.188-.365 0-.532l.719-.718c.166-.167.343-.167.531 0L6.719 24.5l4.437-4.406c.167-.167.344-.157.531.031l.688.688z"/></svg>