<svg fill="none" height="20" viewBox="0 0 20 20" width="20" xmlns="http://www.w3.org/2000/svg"><path d="m14 8.27-5-2.89c-.30388-.17545-.64858-.26786-.99948-.26795s-.69565.09214-.99963.26744c-.30398.17529-.55648.42748-.73217.73123-.17568.30375-.26836.64838-.26872.99928v5.78c.00036.3507.09295.6952.26847.9988.17551.3037.4278.5558.73153.7312.30404.1755.64893.2679 1 .2679.35108 0 .69597-.0924 1-.2679l5-2.89c.3031-.1758.5547-.4282.7295-.7318.1749-.3036.267-.6478.267-.9982 0-.35038-.0921-.69461-.267-.99823-.1748-.30361-.4264-.55596-.7295-.73177zm-1 1.73-5 2.89v-5.78zm-3-10c-1.97781 0-3.91121.58649-5.5557 1.6853-1.64449 1.09882-2.92621 2.6606-3.683091 4.48787-.75687616 1.82726-.95491 3.83793-.569057 5.77773.385852 1.9398 1.338258 3.7216 2.736788 5.1202 1.39852 1.3985 3.18035 2.3509 5.12016 2.7368 1.93981.3858 3.9505.1878 5.7777-.5691 1.8273-.7569 3.3891-2.0386 4.4879-3.6831s1.6853-3.5779 1.6853-5.5557c0-1.31322-.2587-2.61358-.7612-3.82683-.5025-1.21326-1.2391-2.31565-2.1677-3.24424-.9286-.92858-2.031-1.66518-3.2443-2.167725-1.2132-.502547-2.5136-.761205-3.8268-.761205zm0 18c-1.58225 0-3.12896-.4692-4.44456-1.3482-1.31559-.8791-2.34097-2.1285-2.94647-3.5903s-.76393-3.07037-.45525-4.62222 1.07061-2.97731 2.18943-4.09613 2.54428-1.88075 4.09613-2.18943 3.16042-.15026 4.62222.45524c1.4618.60551 2.7112 1.63088 3.5903 2.94648.879 1.31559 1.3482 2.86231 1.3482 4.44456 0 2.1217-.8428 4.1566-2.3431 5.6569-1.5003 1.5002-3.5352 2.3431-5.6569 2.3431z" fill="#9d81eb"/></svg>