<svg fill="none" viewBox="0 0 16 46" xmlns="http://www.w3.org/2000/svg"><path d="m2.5 17.531c1.52-1.52 3.354-2.281 5.5-2.281s3.969.76 5.469 2.281c1.52 1.5 2.281 3.323 2.281 5.469s-.76 3.98-2.281 5.5c-1.5 1.5-3.323 2.25-5.469 2.25s-3.98-.75-5.5-2.25c-1.5-1.52-2.25-3.354-2.25-5.5s.75-3.969 2.25-5.469zm9.906 1.063c-1.208-1.23-2.676-1.844-4.406-1.844s-3.208.615-4.438 1.844c-1.208 1.208-1.812 2.676-1.812 4.406s.604 3.208 1.813 4.438c1.229 1.207 2.707 1.812 4.437 1.812s3.198-.604 4.406-1.813c1.23-1.229 1.844-2.708 1.844-4.437 0-1.73-.615-3.198-1.844-4.406zm-.031 2.218c.188.188.188.365 0 .532l-5.375 5.343c-.188.188-.365.188-.531 0l-2.844-2.843c-.188-.188-.188-.365 0-.532l.719-.718c.166-.167.343-.167.531 0l1.844 1.906 4.437-4.406c.167-.167.344-.157.531.031l.688.688z" fill="#2fcb5a"/></svg>