<svg xmlns="http://www.w3.org/2000/svg" fill="none" viewBox="0 0 16 46"><defs/><path fill="#BDBDBD" d="M2.5 17.531c1.52-1.52 3.354-2.281 5.5-2.281s3.969.76 5.469 2.281c1.52 1.5 2.281 3.323 2.281 5.469 0 2.146-.76 3.98-2.281 5.5-1.5 1.5-3.323 2.25-5.469 2.25-2.146 0-3.98-.75-5.5-2.25C1 26.98.25 25.146.25 23S1 19.031 2.5 17.531zm1.063 9.907C4.792 28.645 6.27 29.25 8 29.25c1.73 0 3.198-.604 4.406-1.813 1.23-1.229 1.844-2.708 1.844-4.437 0-1.73-.615-3.198-1.844-4.406C11.198 17.364 9.73 16.75 8 16.75c-1.73 0-3.208.615-4.438 1.844C2.354 19.802 1.75 21.27 1.75 23c0 1.73.604 3.208 1.813 4.438zm7.624-6.375L9.25 23l1.938 1.938c.166.187.166.364 0 .53l-.72.72c-.166.166-.343.166-.53 0L8 24.25l-1.938 1.938c-.187.166-.364.166-.53 0l-.72-.72c-.166-.166-.166-.343 0-.53L6.75 23l-1.938-1.938c-.166-.187-.166-.364 0-.53l.72-.72c.166-.166.343-.166.53 0L8 21.75l1.938-1.938c.187-.166.364-.166.53 0l.72.72c.166.166.166.343 0 .53z"/></svg>