<svg xmlns="http://www.w3.org/2000/svg" width="414" height="400" viewBox="0 0 1358.39 1314.01"><defs/><defs><style>.cls-2{fill:#cbefed}.cls-3{fill:#fa5746}.cls-4{fill:#542cde}.cls-5{fill:#fdcdc8}.cls-6{fill:#fddfdc}.cls-7{fill:#9b81ea}.cls-8{fill:#fa5948}.cls-9{fill:#522bde}</style></defs><g id="Camada_2" data-name="Camada 2"><g id="Camada_3" data-name="Camada 3"><path fill="#fff" d="M534.88 108.98l-79.66 42.89-33.7 58.21-39.83 110.3-39.83 58.21-107.23 49.03-125.62 134.8-52.09 98.05L90.63 844.3l125.61 79.66 134.81 101.1 45.96 94.98 73.53-3.06 35.75 26.55 45.95 32.68h8.17l1.02-22.47 32.69 17.37 13.27 1.02 7.15-15.32 23.49 3.06-6.13-23.49 70.47 24.51 110.3 52.09 114.38 54.13 149.11 16.33 49.02-23.48 63.32-45.96 26.55-54.13 28.6-106.21-31.66-163.41-38.81-265.53 26.55-20.42 147.07-146.05-89.88-154.21-157.27-71.49-69.45-24.51-70.47-20.42-23.49-5.11-81.7-63.32-37.79-58.21-40.85-42.9-71.49-3.06-64.34 12.25-34.72 14.3-15.32 11.24-22.47 11.23-13.28 20.43-19.4 24.51z"/><path d="M1218.15 1296c-3.61 4.37-7.49 8.41-12.49 11.24-6.17 3.5-11.37 9-18.2 10.87-5.17 1.45-9.11 5.5-14.56 5.88a7.13 7.13 0 00-2.73.92c-7.13 3.5-14.85 5.25-22.38 7.62-6 1.89-12.09 3-18.09 4.7-2.62.74-5.24 1.69-8 .22-3.08-1.64.16 2.81-2.3 2.38-5.78-1-11.19 2-17 1.87-5.2-.08-10.41.67-15.62.9-10.08.43-20.13.32-30.22-.17-7.06-.35-14.21.33-21.31-.43-16.66-1.78-33.45-2.93-49.74-6.89-3.39-.83-6.54-.88-9.76-1.43-7.38-1.26-14.55-3.7-21.82-5.55-1.26-.32-1.84-.45-2-2.06-.26-2.52-3.57-2.75-4.16-1.88-2.2 3.22-4.11 1-6.23.4-.7-.18-1.69.49-2.27-.36-.84-1.25 1.06-1.39 1-1.5-.86-1.26-2.52-1.94-3.48-1-1.8 1.72-3 .2-4.46-.16-7.5-1.86-14.65-5-21.61-8-7.25-3.11-16.16-4.33-21-12.06-.42-.68-2.15-1.38-2.56-1.09-3.07 2.22-4.72-.31-6.67-1.77-9.94-7.43-21.88-11.44-31.86-18.85-7.06-5.25-14.49-10-21.84-14.84-10.31-6.79-20.88-13.21-31-20.26-9.17-6.4-18.62-12.32-28.13-18.15-.4-.24-.71-.77-1.1-.83-5-.71-7.15-4.15-8.26-8.61-.22-.9-.47-1.94-1.57-2.29-2.1.8-.59 2.61-1.22 4.2-6.27-3.42-12.49-6.75-18.65-10.19-9.41-5.25-19-10.28-28.11-16-7.08-4.41-15.2-6.17-22.46-10-4.81-2.5-9.55-5.13-14.29-7.75-1.56-.87-2.92-2.35-5-1.29a.35.35 0 01.36-.42c-.18-1.11-1-1.21-1.92-1.3l-6.56-7.59c6.09 2.07 11.47 1.91 16.28 3.18 5.88 1.56 8.82-.4 12.69-4.19 4.21-4.12 4.62-9.1 4.28-13.82-.23-3.27-.24-8.59-6.06-8.91l-.94-1c-.07-1 1.63-1.81.75-2.59-3.43-3-6-7.49-11.38-7.45-1.16 0-1.7-.6-1.63-1.1.53-3.58-2.78-4.3-4.55-4.75-4.48-1.15-7.66-3.66-11.34-6.29-7.92-5.65-16.78-10.1-25.61-14.3-4.88-2.33-10.12-3.68-12.85-8.94 1.46-1 2.79-2.45 4.41-3 14.39-5.27 26.87-14.33 40.84-20.47 10.43-4.58 20.34-10.35 30.47-15.6q16.58-8.57 33.13-17.14 14.83-7.6 29.63-15.11c11.09-5.58 22.41-10.73 33.28-16.7 20.55-11.3 41.9-21 62.58-32.06 14.06-7.5 28.42-14.44 42.73-21.46 10-4.92 20-9.87 30-15 13.66-7.13 27.67-13.6 41.44-20.53 13-6.56 25.9-13.44 38.93-20s26.31-12.33 39-19.38c16.36-9.1 33.22-17.26 49.44-26.6 12.92-7.43 25.75-15 38.17-23.31 6.27-4.19 11.78-9.55 18.93-12.49 1.77-.73 2.66-.93 3.66.56 1.4 2.09 2.79 4.2 4.09 6.36 2.79 4.65 5.53 9.44 8.66 13.77 5.41 7.51 11 14.88 15.58 23.49 1-2.38 2.25-6.49 4.84-2.9 2.18 3 2.84 1.2 3.93 0 3.51-3.73 5.83-8.34 8.78-12.45 8.22-11.49 16-23.27 23.67-35.1 5.54-8.55 11.15-17.08 16.21-26 3.23-5.7 7.24-11.05 10.79-16.65 3.69-5.8 6.71-12.14 10.58-17.58 4-5.6 6.63-12 10.86-17.27 3.55-4.45 5-10.17 8.9-14.33a410.54 410.54 0 00-11.52 69.94 332.65 332.65 0 00-1.1 39.72c.44 12.45 1.28 24.89 2.06 37.29.47 7.66 1.65 15.41 2.8 23.08 2.78 18.42 4.82 37 7.59 55.38 2.45 16.29 5.79 32.46 7.83 48.76 1.54 12.26 3.77 24.38 5.54 36.58.68 4.67 1.44 9.33 1.89 14 .14 1.46 1.39 3.33-1.24 4-1.76.49-.5 1.07.11 1.36 2.89 1.42 2.89 4 3.19 6.74 1.07 9.76 2.65 19.47 3.53 29.24.65 7.21.5 14.49.76 21.74.54 15.65-1.08 31.16-3.4 46.6-1 7-2 14.14-4.06 20.87-3.79 12.2-6.31 24.83-12.3 36.33-8.49 16.3-17 32.49-28.37 47.12-7.94 10.22-15.91 20.36-24.67 29.88-3.63 3.94-7.15 8.13-12.51 9.94l-.36-1.34-.39.26zm-221.88-141.9a47.92 47.92 0 004.35 21.75c3 6.41 4 14.79 12.52 17.4.12 0 .18.49.16.75-.22 3.73 2.91 5.09 5.05 7.13 7.78 7.41 17.58 11.6 26.84 16.62a52 52 0 0026.09 6.22 58.15 58.15 0 0026-7c12-6.27 21.53-15.37 29.41-26.13 6.07-8.27 8.41-18.11 10.74-28.07 2.37-10.13.24-19.89-1.78-29.22a57.93 57.93 0 00-18.47-31.6c-7.24-6.4-15.91-10.1-24.19-14.47-8.93-4.73-18.43-8.1-29-5.41-2.52.64-4.69 2-7.45 2.34-4.38.5-8.87 1-13.1 2.68a77.46 77.46 0 00-27.22 18.34c-13.46 13.72-19.38 29.99-19.95 48.71zm87.52 142c2.91-1.13 4.69-2.53 3.94-6.28-1.88-9.35-.85-12.2 4.21-15 1.42-.79 3-.35 4.28-1 2-1.08 4.75-1.79 5.09-4.35s-2.65-2.36-4.12-3.37a13.57 13.57 0 00-5.3-2.56c-3.35-.46-3.82-2.28-3.71-5.13.15-4.15.34-7.94-4.92-10.17-5.56-2.36-6.28-2.69-8.52 3-2.35 6-6.58 8.83-13 8.81a24.71 24.71 0 01-8.72-1.72c-3-1.12-3.87 1-5.27 2.67-1.63 2 .72 2.23 1.27 3.2 1.92 3.42 5.21 5.49 8.24 7.73 2.09 1.54 2.56 2.83.77 4.82-.88 1-1.42 2.29-2.37 3.17-1.94 1.79-2.81 4.32-1.08 5.92s3.6 3.5 7.16 1.44c6.87-4 7.14-3.52 12.28 2.89 2.48 3.19 6.18 4.33 9.77 5.96zm-139.92-221.78c-.21 0-.81 1.59-2.51 1.1-1.92-.56-3 1.44-3.52 2.79s1.16 2.2 2.28 2.88c2.26 1.38 4.55 2.72 6.89 4 1.35.71 2.14 1.38 1.37 3.07-1.54 3.43-2.89 7-4.4 10.41-.92 2.1-2.56 4.28.38 6 2.6 1.51 4.88 2.13 7.07-1.28 2.7-4.2 8.92-2.8 12.21-6.65.37-.43 2.23.94 3 2.17 1.39 2.28 3.8 3.28 6.13 4s5.55-1.15 4.18-2.75c-2.43-2.85 0-5.37-.89-7.46-2.47-5.92 1.39-8.43 5.07-11.3 1.43-1.11 2.8-2.31 4.15-3.54a2.32 2.32 0 00.72-2.76c-.67-1.62-7.2-3.8-9.07-3.28-2.16.6-4.56 2.21-5-2.33s-5.38-5.16-8.55-6.68c-2.35-1.13-4.24 2.09-5.32 4.28-2.67 5.62-5.8 10.19-14.19 7.33zm193.29-26.08a18.13 18.13 0 01-2.79 0 6.51 6.51 0 00-7.3 4c-1.07 2.44 2.74 2.88 3.67 4.85.36.75 1.6 1.09 2.45 1.61 2.62 1.61 3.86 3.37 1.73 6.47-1.52 2.21-2.57 5.1.7 6.81 2.72 1.42 5.38 4.75 8.87.57 2.33-2.79 5.26-4.28 8.49-.33 1.26 1.54 3.74 2 5.59 3.15a3.66 3.66 0 004.59-.33c1.45-1.16 1-2.7.78-4.14-1.66-9.2-1.6-9.07 6.13-13.77 2-1.21 5.92-2 5.4-4.27-.64-2.77-4.82-5-7.18-4.24-9.37 2.87-6.52-4.69-7.92-8.56-.33-.9 0-2-.26-3-1.22-4.4-5.67-5-8.86-6.26-2.71-1-.79 2.62-1.52 3.91a7 7 0 01-2.46 2.38c-1.46.86-2.51 2-2 3.62 1.07 3.13-2.78 3.34-3 5.68-.49 4.4-3.82.61-5.11 1.85zm91.95 137.14c.21-1.35-.53-3.19-1.89-3.38-5-.73-8.48-4.3-12.79-6.24a2.83 2.83 0 00-2.82.16c-4.1 2.4-6.78 5.86-7.4 10.61s3.1 6.12 6.36 7.79c1 .53 2.07 1.08 3.11 1.6 7.21 3.56 15.51-1.92 15.43-10.54zm-394.49-139.16c-3.68-.1-11.26 7.39-11.15 11a2.85 2.85 0 001.26 2.55c5.31 3.18 10.44 6.86 17.26 5.49 3.52-.7 7.4-5 7.92-9.17s-2.57-4.64-5.49-5.45c-1.22-.33-2.22-1.4-3.38-2-2.04-1.08-3.94-2.52-6.42-2.42zm221.65-41c5 .18 7.88-1.78 11.28-6.76 2.45-3.59.93-5.87-2.23-6.88-2.62-.83-4.65-2.37-7-3.56s-5.45-3.1-7.86-1.09-5.24 4.4-5.27 8.32c0 5.63 4.51 9.75 11.08 10.01zM958.17 1272a16.31 16.31 0 008.37-6.52c2.6-4 1.76-6.08-2.89-7.72a21.59 21.59 0 01-5.55-3.13c-4.24-3.07-9.81-2-11.81 2.06-3.63 7.31 2.18 15.59 11.88 15.31zm-73.87-105.79c2.61-.68 4.87-1.35 6.79-3.21 6-5.85 5.63-9-1.85-12.45a20.66 20.66 0 01-2.55-1.52c-6.38-4.14-8.45-3.49-11.21 3.63-.35.91-.27 2-1.29 2.53-2.68 1.47-1.47 3.88-.4 5.07 2.8 3.11 6.67 4.74 10.51 5.95z" class="cls-2" transform="translate(-22.74 -28.9)"/><path d="M1282 717.4c-3.94 4.16-5.35 9.88-8.9 14.33-4.23 5.32-6.87 11.67-10.86 17.27-3.87 5.44-6.89 11.78-10.58 17.58-3.55 5.6-7.56 10.95-10.79 16.65-5.06 8.9-10.67 17.43-16.21 26-7.66 11.77-15.46 23.59-23.66 35.08-3 4.11-5.27 8.72-8.78 12.45-1.09 1.16-1.75 3-3.93 0-2.59-3.59-3.85.52-4.84 2.9-4.61-8.61-10.17-16-15.58-23.49-3.13-4.33-5.87-9.12-8.66-13.77-1.3-2.16-2.69-4.27-4.09-6.36-1-1.49-1.89-1.29-3.66-.56-7.15 2.94-12.66 8.3-18.93 12.49-12.42 8.29-25.25 15.88-38.17 23.31-16.22 9.34-33.08 17.5-49.44 26.6-12.66 7-26 12.85-39 19.38s-25.9 13.45-38.93 20c-13.77 6.93-27.78 13.4-41.44 20.53-9.92 5.18-19.94 10.13-30 15-14.31 7-28.67 14-42.73 21.46-20.68 11-42 20.76-62.58 32.06-10.87 6-22.19 11.12-33.28 16.7q-14.82 7.47-29.58 15.07-16.59 8.54-33.13 17.14c-10.13 5.25-20 11-30.47 15.6-14 6.14-26.45 15.2-40.84 20.47-1.62.6-3 2-4.41 3-5.33-4.89-10.84-9.59-15.94-14.7-9-9-18.18-17.82-27.31-26.66-8-7.72-15.55-15.87-23.53-23.6-4.1-4-7.32-9.3-10.48-14.32-2.8-4.44-6.24-8.36-9-12.89a198.16 198.16 0 01-16.85-35.47 112.53 112.53 0 01-6.67-26c6.74-4.24 14.24-7 21-11.24 4.68-2.92 9.91-5 14.89-7.42a46.29 46.29 0 016.22-3.61 177.08 177.08 0 0027.17-14l4.57-2.14a1.85 1.85 0 002-.9l-.09.06 1.28-1.06c.68.13 1.36.28 1.76-.51 9.75-4.84 19.57-9.54 29.19-14.6 2.67-1.41 5.87-2.14 7.82-4.78 6.9-1.91 12.66-6.14 19-9.27 4-2 8.08-3.9 12.08-5.91 8.82-4.43 17.65-8.84 26.42-13.37 12.26-6.33 24.44-12.81 36.71-19.12 9.13-4.69 18.34-9.2 27.52-13.79 1.75-.84 3.55-1.59 5.23-2.55 6.85-3.87 14.49-6.2 20.92-10.88l7.86-2.56c3.8.16 6.84-2.13 10.27-3.15 2.43-.72.55-2.24.9-3.33l2.9-2c1.46.81 1.52.1 1.16-1.07v.07c7.45-2.41 14.12-6.46 21-10.06 4.32-1.09 7.79-4 11.9-5.56 5.89-2.22 10.85-6.46 17.12-7.84 1 1.54 1.94 2.36 4.27 1.62 3.93-1.24 7.06-3.94 10.77-5.26 4.58-1.63 7.31-3.55 4.91-8.75 2.81.44 4.57-1.64 6.82-2.64 2.77-1.22 4.48-6.15 8.74-2.92 2.52-3.92 8.14-2.6 10.74-6.36a3.17 3.17 0 00.47-.89c.63-2.26 3.8-.93 4.46-3.15 4.41 2.59 6.47.65 8-3.63.49-1.37 2.84-3.17 4.5-2.4 4.69 2.19 7.61-2.22 11.55-2.58 1.07-.1 1.41-1 1.51-2.12.28-3.13 5.29-6.06 8.06-4.43 1.12.66 1.68.88 2.34 0 1.43-1.79 2.86-3.15 5.47-2.45.88.24 2.23-.47 1.91-1.65-.74-2.76.93-2.23 2.58-2.42 2.42-.27 5.54.61 6-3.58.1-.86 2.48-2.55 4.65-1.55s3.75-.33 5.72-.89c3.62-1 3.17-5.14 6.85-6.26 6.21-1.89 12-5.24 17.84-8.27 4.41-2.3 9.62-2.39 13.61-6.41 1.82-1.83 6.07-2.46 9.12-3.74 5.8-2.44 11.82-4.21 17.32-7.66 5.23-3.27 11.57-4.7 17.06-7.92 4-2.34 8.41-4 12.4-6.46 1.54-.95 2.34-1 .68-3.34-2-2.76-4.8-4.62-6.58-7.74-3.2-5.61-5.24-11.86-10.13-16.72-4.19-4.16-4.73-11-8.64-15.65-2.5-3-2.91-6.32-3.14-9.48 1.58-2.38 2.66 2.84 3.8-.17s2.83-1.71 4.2-.82a5.1 5.1 0 004.12.84 162.66 162.66 0 0117.52-2.6c20.75-1.44 41.53-2.59 62.3-3.83 7.26-.43 14.54-.58 21.78-1.21 7-.6 14 1.3 20.87-.94 1.76-.57 2.63 1 3.74 2 .66.56 2.29 1.49 2 0-.58-3.49 2.08-2.06 3-2.11 12.53-.67 25.09-.92 37.62-1.75 7.77-.52 15.56-.44 23.35-1 22-1.52 44-2 66-3.24 12.11-.67 24.21-.93 36.32-1.11a3.85 3.85 0 00.49.08c3.83.27 3.35.47 5.41 5.38a18.76 18.76 0 003.72 4.84c1.42 1.42 1.74 2.38-.46 3.08s-3.22 1.4-2.29 4.22c1.22 3.76-1.57 6.91-3.2 10-4.18 7.92-8.73 15.65-13.18 23.42-.29.51-1 .77-1.55 1.15-.13-4.32-2.54-3.19-5-2.07-.12-.36-.2-.87-.72-.52-.1.07.16.67.26 1 .5 1.46.89 3 2.06 4 1.57-.41 1-3.47 3.41-2.5-3.64 7.47-6.84 15.19-12.95 21.2-.84.83-.36 3-1.24 4.38q-11.4 18.46-22.68 37c-.71 1.39-1.37 2.92-2.11 4.32zm-197.23-96.18c-.21-2.4-2.2-2.39-3.82-3-.75-.27-.62-2.21-2-1.32-1.07.69.22 2.23-.93 3.4-.47.48 1.38.56 2.24.28 1.54-.5 2.5 1.73 4.5.64z" class="cls-3" transform="translate(-22.74 -28.9)"/><path d="M319.91 1038.32c-2.18-.76-4.42-1.38-6.52-2.31-1.28-.57-3.34-.41-3-3 .16-1.24-1.51-2.1-2.59-1.45-3.09 1.89-5.17.87-7.05-1.77-.68-1-1.69-1.82-2.95-.86-1.43 1.09-2.45 1-2.9-.83-.4-1.61-1.22-1.71-2.56-1.1-.68.3-2.06 1-2.15.24-.65-5.83-4.61-2.78-7.44-3-4.09-.39-6.48-4.5-11-4.71-5.27-.24-9.66-4-14.55-5.89-3.06-1.21-4.5-6.49-8.59-6s-6.75-1.75-10.09-2.66c-7-1.91-12.34-7.15-19.41-8.84-2.95-.7-4.52-3.79-6.55-5.87-2.54-2.6-5.39-3.31-8.71-3.42a6.21 6.21 0 01-5.78-3.27 7.56 7.56 0 00-8.05-3.83c-1.95.31-4.39-1.87-6.46-3.14-3.5-2.14-8.06-2.75-9.76-7.54-.47-1.3-3-2.48-4.77-2.08-3.45.77-5.91-1.28-8.2-2.85-10.19-7-20.13-14.28-30.17-21.47-.79-.56-1.9-.87-.86-2.21s-.08-2.13-1-1.65c-1.46.75-1.63 1.1-1.78-.92-.14-1.81-.81-4.45-3.8-2.1-.77.6-1-.4-1.47-.81-8.11-7.39-17-14.12-24.08-22.37-4.37-5.09-8.77-10.7-13.2-15.48-8.43-9.1-15.67-19-22.83-28.92a169.85 169.85 0 01-19.68-34.34c-2.76-6.64-5.81-13.12-8.08-20-4.49-13.6-8.48-27.26-9.89-41.6a227.22 227.22 0 01-.9-35c.6-11 3-21.64 5.6-32.3a278.65 278.65 0 0117.59-50.39 462 462 0 0125.35-46.94c7.63-12.64 15.59-25.2 24.27-37.17 6.13-8.45 11.45-17.66 18.61-25.18 4.55-4.77 6.52-10.87 10.86-15.52 4.6-4.93 8.34-10.57 12.57-15.78 7.63-9.38 15.78-18.36 24-27.21 6.7-7.18 13.78-14 20.84-20.86 6.6-6.39 13.22-12.83 20.07-18.89a455.41 455.41 0 0138.51-30.61c18.24-12.9 37.1-24.92 57.51-34.24 8.22-3.76 16.24-8 24.66-11.24 12.2-4.66 23.95-10.56 36.63-13.93 9.7-2.57 19.11-6.19 29-8-7 14.44-17.08 27-25.77 40.34-6.32 9.72-12.81 19.39-18.56 29.45-8.05 14.09-13.05 29.55-18.15 44.88A401 401 0 00310 535.54c-1.44 10.39-2.9 20.65-.26 31.09 2 8 5.92 14.79 10.48 21.5 6.68 9.84 15.07 17.94 24.11 25.5 9.2 7.69 18.95 14.81 29.59 20 14.29 7 26.31 16.25 35.14 29.41 9.67 14.4 23 24.95 36.21 35.68 4.51 3.66 9.05 7.12 14.36 9.56 2.42 1.12 2.88 2.35.58 4.7a63.61 63.61 0 01-7.66 6.21c-4.07 3.06-7.64 6.78-11.47 10.14-14.54 12.77-26.08 27.97-37.41 43.41-8.46 11.55-15.19 24.16-21.58 37-4.76 9.53-9 19.27-11.22 29.69a95.52 95.52 0 01-3.64 13.19c-1.53 4.16-5.61 9.66-.56 14.66.11.11-.32 1.15-.6 1.2-3.31.65-3.1 3.8-3.13 5.69-.07 4.48-.88 8.85-1.23 13.27-1.13 14.24.36 28.42 1.25 42.58.43 6.81 2.6 13.5 3.81 20.28 1.14 6.34 4 12.2 5.08 18.54 1.17 6.81 4.79 12.77 6.52 19.43 1.42 5.49 4.14 10.64 6.29 15.95-5.62 3.08-11.22 6.2-16.85 9.24-7.71 4.17-15.41 8.35-23.19 12.39-8.19 4.22-16.1 9.05-24.71 12.47zM237 784.5c0 3.4.14 6.27 3.61 6.84s6.91.61 10.34 1.08c7.11 1 13.85-1.51 20.56-2.88 3.68-.76 7.58-2.07 11.38-2.85 2.81-.57 2.3-4.33 5-4.19 7.87.39 11.23-8.21 18.41-9.12 11.37-11 22.11-22.19 27.11-37.86 8-25 3.65-47.21-14.45-66.22-11.36-11.95-26.42-17.51-41.93-21.71-6.25-1.69-12.84-2.16-19.19-3.22-11-1.85-21 .35-30.89 3.94-2.89 1.05-4.82 4.16-8.11 5.48-22.26 8.89-38.27 24.29-47.46 46.61-3.23 7.83-3.83 15.78-3.87 24.29s1.11 16.31 4.49 23.79c10.81 24.38 31.55 35.33 56.1 40.91 3.84.88 9.01 3.67 8.9-4.89zM175.19 589c-5.62 1.94-7.28 7.3-9.12 11.61-2.22 5.22-.14 7.7 4.24 8.67 3.41.75 3.75-2.77 5.92-3.78 2.78-1.29 5.12-4 8-4.58 2.33-.52 2.72 3.35 4.49 4.65a12.33 12.33 0 013.31 3.69 8.82 8.82 0 007.47 4.23c2 0 3.49-.6 3-3.3-1-6.23-2.58-12.42-1.72-18.87.24-1.81 1.16-2.32 2.48-3.18 3.37-2.19 7.75-1.9 10.82-4.69 1-.93 2.54-2.14 1.25-3.15-2.14-1.67-4.21-4.38-7-4.23-2.95.16-6.17 1.34-8.71-.11-3.2-1.81-1.95-5.85-2.24-8.75-.51-5-4.91-5.39-7.68-7.06-1.78-1.07-3.88 2.38-5.4 4.3a20.31 20.31 0 00-4.27 8.36c-.73 3.8-2.76 5-6.24 4.73s-6.91-.51-10.32-1.05c-2.3-.37-1.19 2.37-2.93 2.73-.76.16.4 1.24 1 1.64 4.59 2.74 9.09 5.43 13.65 8.14zm122.59 229.68c0-5.53 0-5.53-2.29-6.93-5.93-3.66-8.49-2.88-12.22 3.71-4.45 7.84-4.67 7.93-13.34 5.12a14.87 14.87 0 01-3.68-1.49c-3.29-2.18-4.61 1.27-6.08 2.54-1.73 1.5 1.13 2.44 2 3.51s2.4 1.76 3.47 2.79c5.55 5.32 5.15 6.52 0 10.25a19.75 19.75 0 00-2.87 2.77c-2.45 2.68-1.78 4.48 1.86 5.42a19.57 19.57 0 0010.23-.3c3.13-.91 4.58.06 6.08 2.49 2.2 3.57 5.73 5.5 9.64 6.57s5.75-.75 5.39-4.82c-.23-2.64 0-5.32-.21-8-.25-3.11 1.11-4.49 4.11-5a90.31 90.31 0 0010.08-2.59c1.18-.35 3.23-2 2.26-2.48-3-1.59-6.55-5.59-8.36-5.16-7.62 1.8-7-2-6.07-6.92a6.74 6.74 0 000-1.48zm71-136.3c0 4.93 5.95 10.11 11.55 10.07 4.39 0 10.11-6.24 9.91-10.76s-6.84-10.09-12.4-10.13c-4.26-.03-9.08 5.74-9.08 10.82zM187.87 881c-.83 4.31 3.29 5.22 5.85 7.33 3.93 3.25 7.7 2.29 11.22-.59 3.27-2.68 6.27-5.67 4.63-10.53-.61-1.8-11.11-8.07-12.77-7.79-4.01.63-8.88 6.75-8.93 11.58zm-74.58-139.5c3.07-.56 7.09-1.81 8.35-6s-2.74-5.5-5.64-7.02c-.58-.31-1.1-.74-1.68-1.06-3-1.64-10.13-.1-12.17 2.59-1.36 1.79-1.53 4.35-.32 5.51 2.91 2.78 5.79 6.1 11.46 5.94zM1332.11 598.39c-12.11.18-24.21.44-36.32 1.11-22 1.21-44 1.72-66 3.24-7.79.55-15.58.47-23.35 1-12.53.83-25.09 1.08-37.62 1.75-1 0-3.62-1.38-3 2.11.24 1.51-1.39.58-2 0-1.11-1-2-2.53-3.74-2-6.87 2.24-13.92.34-20.87.94-7.24.63-14.52.78-21.78 1.21-20.77 1.24-41.55 2.39-62.3 3.83a162.66 162.66 0 00-17.52 2.6 5.1 5.1 0 01-4.12-.84c-1.37-.89-3.1-2.11-4.2.82s-2.22-2.21-3.8.17c.23 3.16.64 6.5 3.14 9.48 3.91 4.64 4.45 11.49 8.64 15.65 4.89 4.86 6.93 11.11 10.13 16.72 1.78 3.12 4.6 5 6.58 7.74 1.66 2.31.86 2.39-.68 3.34-4 2.46-8.4 4.12-12.4 6.46-5.49 3.22-11.83 4.65-17.06 7.92-5.5 3.45-11.52 5.22-17.32 7.66-3 1.28-7.3 1.91-9.12 3.74-4 4-9.2 4.11-13.61 6.41-5.82 3-11.63 6.38-17.84 8.27-3.68 1.12-3.23 5.22-6.85 6.26-2 .56-3.62 1.85-5.72.89s-4.55.69-4.65 1.55c-.5 4.19-3.62 3.31-6 3.58-1.65.19-3.32-.34-2.58 2.42.32 1.18-1 1.89-1.91 1.65-2.61-.7-4 .66-5.47 2.45-.66.84-1.22.62-2.34 0-2.77-1.63-7.78 1.3-8.06 4.43-.1 1.13-.44 2-1.51 2.12-3.94.36-6.86 4.77-11.55 2.58-1.66-.77-4 1-4.5 2.4-1.53 4.28-3.59 6.22-8 3.63-.66 2.22-3.83.89-4.46 3.15a3.17 3.17 0 01-.47.89c-2.6 3.76-8.22 2.44-10.74 6.36-4.26-3.23-6 1.7-8.74 2.92-2.25 1-4 3.08-6.82 2.64-.62-.54-1.67-1-1.79-1.62-1.71-8.87-6.45-16.34-11.18-23.75-1.33-2.09-1-3 1-3.55a222.75 222.75 0 0031.78-12.34q13-6.21 25.47-13.57c7.08-4.17 12.66-10.07 19.13-14.84a100.41 100.41 0 0022.31-21.91c5.83-8.07 11.8-16 15.31-25.6 2-5.52 3.66-11.12 5.46-16.69a142.18 142.18 0 006.33-28.41c1.67-15.85.26-31.69-.85-47.52-1.07-15.11-2.23-30.21-3.1-45.33-.68-11.93-.71-23.91-1.5-35.83a151.15 151.15 0 015.3-50.81c5.23-18.93 15.33-35.29 26.07-51.22 6.65-9.84 13.13-19.6 16.62-31 4.82-15.69 6.64-31.95 1.84-47.67-5.59-18.3-16-34.39-27.35-49.79-6.33-8.6-14.3-15.7-21.19-23.8-4.81-5.67-8.73-13-17.52-14-.65-.08-1.76-1.22-1.68-1.68.88-4.63-3.44-5-5.73-6.75a11.42 11.42 0 01-2.94-3c6.28-.29 12.44 1.39 18.56 1.57 7.57.22 15.1.65 22.61 1.44 3.35.36 6.9.07 10.07 1.75.41.22 1.38.1 1.41.26 1.27 7.43 4.58 2 7.13 1.15.16-.05.41-.14.48-.07 4.78 4.72 10.76 1.25 16.14 2.16 13.71 2.34 26.88 6.88 40.55 9.26 1.92.33 4.58-.05 5.13 3 .16.86.9.79 1.58.58 6.73-2.06 12.4 2.18 18.38 3.64 15.24 3.74 30.53 7.86 45 13.72 10 4 20.74 5.57 30.43 10.72 5.14 2.73 11.33 4.19 17.11 6 7.83 2.45 14.91 6.59 22.68 9.3 11.15 3.89 21.72 9.46 32.5 14.38 5.28 2.42 10.5 5 15.75 7.48.44.22 1 .49 1.18.89 2.58 6.06 9.59 4.63 13.48 7.92 4.86 4.1 12.06 4.88 15.58 9.61 4.1 5.49 11.38 4.94 15 10.12 3.08 4.33 10.17 4.23 11.49 10.52.12.57 1.19 1.09 1.92 1.35a18.83 18.83 0 019.31 7c3.27 4.71 8.31 7.69 11.63 12.18 6.57 8.86 15.47 16.34 17.92 27.79 1.06 4.95 6 7 7.62 11.58 1.94 5.5 5.81 10.34 7 16.11 1.21 5.93 5 10.66 6.55 16.5 2.2 8 5.14 15.85 6.33 24.09 1 7.07 3.2 13.92 3.29 21.16a182.28 182.28 0 01-4 41.85c-3.88 17.73-10.49 34.31-16.66 51.09-2.67 7.25-6.87 14.21-10.52 21.21-3.82 7.32-8.26 14.34-11.55 21.92-1.91 4.16-5.6 7.43-6.34 12.2zM1172.83 465.3l.05-.35a5.57 5.57 0 004.33 2.92c5.09.5 10.15 1.41 15.25 1.66 2.24.1 5.72 1.83 6.36-2.72.12-.86 1.48-.73 2.16-.25 3.89 2.74 7.77 1.32 11.72.19a4.5 4.5 0 014.64 1.22c3.56 4.15 8.43 6.44 13 9.09 7.15 4.18 14.6 7.83 22 11.63 2.47 1.27 5.4 2 7.38-.32s-.93-4-2.06-5.71c-6.89-10.34-9.49-22.08-11.42-34.05a3 3 0 011.21-3.05c6.23-5.2 10.45-12 14.15-19 7.84-14.93 9.78-30.79 4.79-46.84a56.71 56.71 0 00-16.21-25.25 68.89 68.89 0 00-14.91-10c-9.49-5-18.34-11.5-29.27-13.16-3.27-.49-7.69.13-9.83-.75-6.12-2.49-8.7 2-12.62 4-.48.24 0 1.5-1.06 1.11-4.77-1.75-6.45-2.13-8.63-1.59-10.17 2.53-20.18 5.49-28.73 11.86-7 5.24-13.63 10.94-17.89 18.84a18.14 18.14 0 01-2.44.13c-8.61-.59-17.38-.29-25.34 2.6-13.64 4.94-24.87 13-32.85 26.06-9.11 14.9-10.8 29.64-4.13 45.5 1.93 4.58.37 8-3.42 10-3.53 1.9-6.8 4.47-11.16 4.92-1.7.18-5.61 1.06-4.35 3.75 1.35 2.88 3.7 6.23 7.26 6.89a54.07 54.07 0 0019.17.45c5.35-.91 11.53-3.53 16.31.09 3.49 2.65 6.91 4.94 11 6.16 5 1.51 10 3.14 14.8 5 11.92 4.68 23.82 3.51 35.69 1.52 8.83-1.47 16.59-6 23.47-11.87.75.6 1.53.96 1.58-.68zm14.08 39.43c-2.35-1.42 1.48-1.9 0-2.88-.87-.55-1.85.32-2.37 1.27-6 10.81-6 10.85-17.16 8.4-1.83-.4-3.22-.49-4.11 1.46s-1.18 3.91 1.1 5.12 3.88 3.1 5.63 4.85c.84.85 1.83 2.13.72 3-2.79 2.21-3.41 6-6.33 8.11-1.92 1.41-4.62 3.46-3.6 6s4.48 2.38 7 2.82c2.4.4 3.79-1.62 5.47-2.84 8.2-6 8.19-6 12.54 2.79a7.43 7.43 0 00.43.9c2.23 3.4 9.65 4.13 10.73.83.73-2.24.24-5.19-.5-7.57-2.32-7.44-1.48-9.74 5.72-13.49 1.79-.93 3.9-2.18 3.68-4.26-.27-2.63-3.23-2-4.87-2.19-5.74-.7-7.9-2.73-7.86-8.35s-1.29-6.41-6.22-3.97zM1062.24 544c.09-5.2-7.75-11.2-14.83-11.36a11 11 0 00-11.15 10.8c-.11 6.1 7 12.25 14.07 12.18 6.11-.1 11.82-5.62 11.91-11.62zM1333 476.88c0-1.7.07-3.65-2-4-3.27-.55-5.66-2.65-8.34-4.21a5.45 5.45 0 00-5.18-.64c-4.29 1.9-7.81 4.82-8.28 9.72-.43 4.39 3.18 6.15 6.53 7.76.75.36 1.48.76 2.24 1.09 6.03 2.7 14.96-3.05 15.03-9.72zm-248-210.13c-2.83 0-8.75 3.36-8.84 6.48-.11 4 3.31 5.62 6.35 7.23 1 .55 2.07 1.08 3.14 1.53a9 9 0 0012.11-5.45c.55-1.61 1.08-4-.38-4.62-3.64-1.66-6.38-5.38-12.33-5.17z" class="cls-2" transform="translate(-22.74 -28.9)"/><path d="M947.22 187a11.42 11.42 0 002.94 3c2.29 1.72 6.61 2.12 5.73 6.75-.08.46 1 1.6 1.68 1.68 8.79 1 12.71 8.33 17.52 14 6.89 8.1 14.86 15.2 21.19 23.8 11.33 15.4 21.76 31.49 27.35 49.79 4.8 15.72 3 32-1.84 47.67-3.49 11.39-10 21.15-16.62 31-10.74 15.93-20.84 32.29-26.07 51.22a151.15 151.15 0 00-5.3 50.81c.79 11.92.82 23.9 1.5 35.83.87 15.12 2 30.22 3.1 45.33 1.11 15.83 2.52 31.67.85 47.52a142.18 142.18 0 01-6.33 28.41c-1.8 5.57-3.43 11.17-5.46 16.69C964 650 958 658 952.15 666.07A100.41 100.41 0 01929.84 688c-6.47 4.77-12.05 10.67-19.13 14.84q-12.48 7.33-25.47 13.57a222.75 222.75 0 01-31.78 12.34c-2 .59-2.31 1.46-1 3.55 4.73 7.41 9.47 14.88 11.18 23.75.12.63 1.17 1.08 1.79 1.62 2.4 5.2-.33 7.12-4.91 8.75-3.71 1.32-6.84 4-10.77 5.26-2.33.74-3.22-.08-4.27-1.62-.92-8-4.84-14.66-9.88-20.74.41-1.65 2.6-.24 3.52-1.76-2.3-.93-4.86.52-6.27-2.08-4.45-8.23-11.8-13.64-19.07-19.06-8.31-6.19-16.33-12.81-26.3-16.48-5.53-2-10.74-4.95-16.1-7.47l-19.88-6.05c-7.95-2.32-16-4.25-23.81-7.1-4.29-1.58-9.11.3-12.81-2.14-8.48-5.59-18.66-6.91-27.51-11.52-1.12-.58-2.84-1.77-4.46.06-4.28 4.85-10 7.87-15.51 10.92-3.19 1.76-7.87 3.42-10.85 2.32-3.8-1.4-6.18.19-9.3.69-4.43.72-9 .41-13.59.37-9.32-.09-17.61-4.7-26.72-6.06a88.35 88.35 0 01-41.55-18.05c-2.09-1.63-4.14-.39-5.2.21C555 669 551 674.33 544 673a1 1 0 00-.75.55c-.79 4.31-5.11 4.65-7.7 6.92-4.64 2.19-9.77 3.42-13.74 6.94-12.26 8.42-26.15 14.56-36.27 26-5.22.75-8.17 4.94-11.94 7.89-7 6-14 11.79-20.88 17.88-4.52 4-6.4 11.59-14.34 11.34-.23 0-.77.77-.7 1.08 1 4.61-2.87 6.54-5.05 9.38-6.79 8.81-13.85 17.43-18.83 27.48-5.75 7.22-9 15.78-12.94 24-7.61 16.65-12.12 34.24-15.9 52.06l-1.71 18.73a4.68 4.68 0 00-.48 1.37c-.69 24.22.23 48.27 7 71.75a11.38 11.38 0 00.52 3.87c3.1 13 7.64 25.56 12.57 38 6.36 15.85 15 30.52 23.54 45.22 5.54 9.47 10.52 19.28 18.1 27.39a101.69 101.69 0 0015.07 19.47c4.5 6 8.27 12.78 13.66 17.84 8.83 8.28 16.94 17.23 25.45 25.79 6.33 5.79 12.64 11.6 19 17.36.52.47.57 2.21 2 .94.71-.46 1.78-.71 1.17-2l.14.28a5.19 5.19 0 003.66-1c8.44-7 18.12-12.2 27.15-18.35 2-1.39 6-1 6-4.92h-.16a11.58 11.58 0 005.06-1.79c12.81-8.23 25.66-16.38 38.6-24.62L571.72 1073c-7.24-7.73-14.22-15.7-22-22.89-6.34-7.46-12.8-14.84-19-22.44-3.08-3.78-5.22-8.3-9-11.56-2.3-6.16-7.13-10.89-9.56-17 .33-.91 2.7-2.46.36-2.62-3.91-.26-3.82-3.53-5.49-5.45-3.12-7.65-7.15-14.91-9.57-22.85-3.76-12.48-7.27-25-9.13-38l-.74-1q-.56-14-1.12-28.07c.15-9 1.38-17.85 2.28-26.75a3.5 3.5 0 002.69-3.16c.3-8.77 1.08-10.57 7.48-17.37a2.77 2.77 0 00.52-2.26c-.53-1.83.61-3 1-4.49.94-3.4 4.93-4.33 5.22-7.79a2.34 2.34 0 011-.12 15.36 15.36 0 01-.11 2.36c-.26 1.38-.16 3.23 1.28 2.91 1-.22 3-1.65 2.64-3.58-.41-2.34-2.4-1.5-3.88-1.62-1.13-4 2.39-6 3.74-8.93 2.7-5.9 4.91-12 7.33-18l3.87.31c-3-1.51-3.11-3.36-1-5.52 1.34-1.36 2.82-3.49 4.19 0 .85 1.5-.81 2.31-1 3.47-1.45 11-7.06 20.6-10.79 30.83-1.65 4.51-3.74 8.85-3.35 13.82a53.09 53.09 0 00-3 14c-.85 1.57-2.68 3.39-2.36 4.67 1.4 5.48-.44 10.91.29 16.31a2 2 0 00-1 2.09c.65 12.48.9 25 2.23 37.42.37 3.49.32 7.68 2.88 10.85a112.53 112.53 0 006.67 26 198.16 198.16 0 0016.85 35.47c2.78 4.53 6.22 8.45 9 12.89 3.16 5 6.38 10.35 10.48 14.32 8 7.73 15.55 15.88 23.53 23.6 9.13 8.84 18.32 17.66 27.31 26.66 5.1 5.11 10.61 9.81 15.94 14.7 2.73 5.26 8 6.61 12.85 8.94 8.83 4.2 17.69 8.65 25.61 14.3 3.68 2.63 6.86 5.14 11.34 6.29 1.77.45 5.08 1.17 4.55 4.75-.07.5.47 1.11 1.63 1.1 5.33 0 8 4.42 11.38 7.45.88.78-.82 1.61-.75 2.59-.65.26-1.71.32-1 1.43.92 1.38 1.42.37 1.91-.43 5.82.32 5.83 5.64 6.06 8.91.34 4.72-.07 9.7-4.28 13.82-3.87 3.79-6.81 5.75-12.69 4.19-4.81-1.27-10.19-1.11-16.28-3.18l6.56 7.59c.37.83.68 1.75 1.92 1.3a.35.35 0 00-.36.42c4.31 5.1 3.25 10.81-1.78 16.81a4.85 4.85 0 01-7.9-1.14c-.43-.88-.9-1.48-1.8-1.13-5.38 2.08-10.55 0-16.58-1.31 4.18 7.34 1.11 11.78-4.22 15.88a6 6 0 01-5.82 1.4c-12.68-2.48-24.1-7.85-35.21-14.14a33 33 0 00-4.53-1.78c-.88-1.27-2-1.72-3.39-.88.35 1.44 1.48 1.6 2.69 1.66-1.42 1.86 4.3 5.54-1.77 6.23a4.79 4.79 0 00.85 1.23c1 .71 3.46.5 2.09 2.73-1.13 1.84-2.49.23-3.85-.11-1.14-.29-1.77-2.26-3.07-1.16a2.38 2.38 0 00-1 2.61 1.83 1.83 0 001.92 1.29 8.75 8.75 0 014.8.39c-2.57 4.68-2.81 4.55-8.63 3-1.82-.47-3.86.76-6.13.18-8.32-2.1-14.73-7.45-21.3-12.31-9-6.64-17-14.49-26.13-20.92-4.47-3.16-10.87-3.63-14.54-8.29-3.48-4.41-9.14-6.25-12.27-10.95-6.58-4-11.77-9.77-17.17-15.07-11.41-11.2-22.58-22.63-33.21-34.63-8.33-9.4-15.38-19.73-23.47-29.3-7.59-9-13.53-19.37-20-29.29-8.34-12.87-14.89-26.68-21-40.7-2.15-5.31-4.87-10.46-6.29-15.95-1.73-6.66-5.35-12.62-6.52-19.43-1.09-6.34-3.94-12.2-5.08-18.54-1.21-6.78-3.38-13.47-3.81-20.28-.89-14.16-2.38-28.34-1.25-42.58.35-4.42 1.16-8.79 1.23-13.27 0-1.89-.18-5 3.13-5.69.28 0 .71-1.09.6-1.2-5.05-5-1-10.5.56-14.66a95.52 95.52 0 003.64-13.19c2.21-10.42 6.46-20.16 11.22-29.69 6.39-12.79 13.12-25.4 21.58-37 11.3-15.44 22.87-30.64 37.38-43.36 3.83-3.36 7.4-7.08 11.47-10.14a63.61 63.61 0 007.66-6.21c2.3-2.35 1.84-3.58-.58-4.7-5.31-2.44-9.85-5.9-14.36-9.56C432 688 418.7 677.49 409 663.09c-8.83-13.16-20.85-22.37-35.14-29.41-10.64-5.24-20.39-12.36-29.59-20-9-7.56-17.43-15.66-24.11-25.5-4.56-6.71-8.47-13.55-10.48-21.5-2.64-10.44-1.18-20.7.26-31.09a401 401 0 0116.75-71.86c5.1-15.33 10.1-30.79 18.15-44.88 5.75-10.06 12.24-19.73 18.56-29.45 8.72-13.4 18.8-25.95 25.8-40.4a358.9 358.9 0 0023.8-49.54c6.6-16.92 9.84-34.71 13.79-52.32 3.54-15.76 5.22-32 12-46.93 3.61-7.91 8.71-14.48 14.75-20.67 11.25-11.52 25-19.26 39.25-25.92 9-4.23 18.56-7.51 27.66-11.73 12-5.56 23.88-11.29 35.51-17.66 5.86-3.21 10.77-7.4 12.58-12.49 4.53-12.68 12.71-22.33 22.11-31.06 13.6-12.63 28.67-23.3 45.91-30.6 15.38-6.51 30.72-13.42 47.24-16.24 7.06-1.21 13.68-4.08 20.75-4.66 6.35-.51 12.77-.17 19.16-.2 10.35 0 20.62.95 30.91 1.93 9.39.89 18 4.69 27.12 6.33 11.2 2 20.46 8.17 30.3 13.13 5.57 2.81 11.52 5.15 16.48 8.8 8.25 6.07 16.53 12.15 23.55 19.82 12.82 14 19.93 31.44 29.52 47.39 4.26 7.08 8.63 14 14.78 20.07 6.78 6.7 14.27 12.63 21.4 18.73 8.74 7.5 17.24 15.71 27.65 21.19a10 10 0 001.8.63zM717.49 665.52c5.5 2.48 10.94 5.12 16.93 6.22 3.84 2.48 8.58 3 12.67 4.08 5.45 1.39 11 3 16.56 4.11 9.28 1.84 17.59 6.57 26.77 8.66v-.05c.28 1.1 1.11 1 1.93.85 3.71 3.46 8.72 3.52 13.16 5.07 7.38 4.75 15.92 7.63 22.37 13.88 1.27 1.23 2.67.95 4.12.52.63.09 1.34.43 1.88.24 12.54-4.27 25.85-6.35 37.47-13.23 11.2-6.87 23.3-12.27 33.65-20.78 6.55-5.4 12.91-11.13 17.68-17.86 6.37-9 11.88-18.56 15.13-29.55 4.77-16.12 8.93-32.15 9.11-49.07.11-10.11-.41-20.17-1.29-30.22-1.16-13.41-2.85-26.75-3.21-40.26-.31-11.7-.66-23.43-1.36-35.11-.94-15.45-1-30.83 1.6-46 1.75-10.06 5.14-19.85 8-29.69.49-1.68 1.34-4.71 3.52-4.09 4.77 1.35 4-1.68 4.15-4.27.19-3.22-1.32-6.51.87-9.65a114.61 114.61 0 006.46-10.39C971 359.25 978.45 351 984 341.5c6.7-11.48 9.5-23.91 10-36.78.62-17-5.57-32.34-14.06-46.71-6.37-10.77-13.35-21.18-21.73-30.53-7.83-8.73-15.38-17.8-23.88-25.85-9.52-9-20.31-16.64-30.4-25-14-11.69-29.41-22-40.58-36.89-6.76-9-11.49-19.19-16.15-29.29-4.79-10.37-10.2-20.31-17.2-29.1a62.73 62.73 0 00-16.89-14.88c-6-3.52-11.2-8.22-18.76-9.43-6.06-1-11.92-4.14-17.86-6.18-9.51-3.27-20.3-.8-29.74-5.44a1.45 1.45 0 00-1.25.3c-4 3.46-8.9-2.29-12.91 1.2a.58.58 0 01-.46-.07c-.49-3.74-1.9-1.27-3.43-.72a15.06 15.06 0 01-5.86.76c-2.41-.12-5.54-1.11-7.13-.47-7 2.81-14.42 3.24-21.65 4.63-4.69.89-9.15 2.48-14.2 2.56-2.83 0-5.71 3-8.85-.38 0 4.3 0 4.32-4.71 6.12-6.67 2.55-13.48 4.79-20 7.68-11.9 5.28-23.81 10.61-34.15 18.79a8 8 0 01-3.85 1.91c-2.5.23-2.7 0-2.91 2.08a3.34 3.34 0 01-2 2.63c-7.86 4.4-11.27 12.25-15.41 19.53-4.93 8.69-10.2 17.08-18.18 23.45-8.69 6.93-18.17 12.67-27.81 18.09-4.8 2.69-10.08 4.67-15.13 6.9-3.84 1.69-7.49 4.85-11.37 6.88-9.07 4.72-19.07 7.28-27.76 13.21-5.47 3.74-10.71 7.37-15.17 12.31-8 8.86-11.92 19.48-13.85 30.9-3.49 20.75-9.25 41-14.82 61.15-6.44 23.36-16.35 45.43-27.65 66.87-7.84 14.88-17.64 28.49-27 42.38-6.55 9.71-13 19.44-18.58 29.75-8.74 16.18-14.53 33.54-20.39 50.87-2 6-4.21 12.1-5.39 18.32-2.71 14.28-6.63 28.3-8.87 42.68-1.38 8.8-4 17.79-1.74 26.39a71.21 71.21 0 0020.46 33.66c2.72 5.53 8.4 8.24 12.22 12.73.21.26.94.08 1.42.1 3.4 6.27 9.21 10.21 14.88 13.77 7.79 4.88 16.05 9 23.45 14.55 4.18 3.61 9.48 5.94 12.4 11 .29.51 1.44.52 2.2.76a9.21 9.21 0 00.87 1.75c5.51 6.94 10.85 14 15.69 21.41 2.29 3.53 4.12 7.53 7.21 10.51 4 3.82 7.95 7.64 12.22 11.1 4.91 4 9.29 9.33 16.75 8.19l9.61-6.18c1.17-.2 2.93 1.64 3.41-1.38.1-.68 2-2.6 3.57-3.57A295.5 295.5 0 01524 672.78c3.78-1.65 7.6-5.74 12.71-3 .42.22 2-.49 2-.88.9-7.27 8-4.52 11.86-6.72 1.62-.92 4.27-4.81 7.2-2.19 0-8.66.15-17.19-.11-25.71-.06-1.82 3.56-2.06 1.62-3.27-2.47-1.52-1.55-3.37-1.58-5.09-.12-7.77.12-15.55-.11-23.32-.21-7.09.67-14.14.21-21.26a97.22 97.22 0 01.14-12.42 15.39 15.39 0 00-4.59-12.58c-3-3.23-5.76-7-8.61-10.55-3.26-4-4.89-9.17-9.09-12.44A79.52 79.52 0 00524 514.59c.07-1.94-1.12-3.41-1.91-5-7.78-15.74-13-32.38-17.15-49.38-.75-3.11-2.13-2.72-4-2.07-6.6 2.26-12.88-.23-19.33-.9-4.39-.46-7.52-4-11.91-3.82-2.59-2.32-5.34-4.33-8.94-4.74a4.61 4.61 0 00-2.1-2c-13.71-9.06-16.7-22.51-12.88-34.79 1.94-6.21 6.29-11.06 10.33-16 3.24-3.94 7-7.59 12.06-9.17 9.93-3.13 20.15-2.83 30.17-.92 8.54 1.62 16.31 5.33 23.77 10.15 3.82 2.48 7 6 11.24 7.91 1.6-3.11-1.22-4.8-1.87-7-2-6.85-.44-13.83-1.35-20.76-1-7.27-1.93-14.74-2.78-22.05a95.67 95.67 0 013.19-37.28c3.53-12.67 8.18-25.1 15.77-36.07 4.84-7 6.91-15.54 14.17-21.37 3.26-2.63 5.76-6.69 9.83-8.83 7.21-3.8 15.07-4.91 23-6 11.45-1.63 22.82-.77 34.05.91 7.57 1.13 15.22 1.87 22.8 3.1 9.81 1.58 19.75 2.91 29.4 5.11 12.85 2.93 25.4 7.12 37.93 11.42 14.27 4.91 28.33 10.47 43 14.46 19.52 5.32 38.7 11.91 59.09 13.34 1.09.07 3.06.71 3.06 1.09 0 5.34 3.12 1.52 4.44 1.29s2.62-.8 4.23-.63c5.08.52 10.2.54 15.29 1 14.06 1.34 28 1.74 42-1.5 2.71-.63 5.94 0 6.4 4l1 .52c.29-.59-.1-.74-.55-.85.14-5.34 4-5.06 7.68-5.08 1.73 0 3.71 1.37 5.1-.87-.88-1.83-3.68.64-3.51-1.28.1-1.09.51-4.32 2.32-3.84 3.51.94 4.66-2.74 7.35-2.87a21.08 21.08 0 003.66-.92c1.28-.29 3.41.35 1 2.32-1.72.59-2 1.85-2 4 1.57-1.1 2.52-1.86 2.34-3.41.94.1 2.39-.51 2.69.54.46 1.61-.12 4-1.36 4.43-3.43 1.29-4.41 4.78-6.52 7-8.12 8.58-18.17 12.4-29.29 13.79-3.93.49-3.66 3.86-3.09 4.56 2.73 3.37 1.4 7.27 1.92 10.81 1.15 7.78 3.34 16-4.14 22.21 2.26 1.31 3.88-.31 5.74 0-.45 4.55 1.56 9.16-2 13-.32.35-1.07.88-.36 1.61 3.92 4 2.42 9.32 2.15 13.72-.61 9.93-.12 19.92-1.68 29.8-1.78 11.29-3.27 22.6-5.86 33.77-2.39 10.27-6 20.15-8.78 30.31-.95 3.51-2.2 6.7-7.25 7.67 2.82.72 4.09.92 3 3.63-1.48 3.81-3.47 7.39-4.79 11.24-2.42 7.08-7.41 13-8.78 20.56-.43.22-1.06.34-1.25.69a326.1 326.1 0 01-24.24 37.55 6.47 6.47 0 00-.15.88v-.06a36.54 36.54 0 00-4.27 4.06c-10.75 14-24 25.52-37.42 36.7a127.81 127.81 0 01-27.7 17.5c-5.1 2.38-10.28 4.58-15.42 6.86l-11 4.63c-2.86.36-5.62 2-8.63.55-.56-.27-1-.17-1.8.51-4.69 4.17-11.62 4.65-16.2 3.32-4-1.14-6.78 2.67-10.66.06-1.88-1.26-10.1-.23-13.84-1.58-1.69-.6-1.84 1-1.76 2a25.82 25.82 0 001 6.78c2 5.7 1.5 12.35 6.46 17a42.23 42.23 0 009.51 6.3c7.45 3.95 15.31 6.85 23.87 7.31zM835.9 425.27c4.74.12 9.26.84 13.18 3.9 6.74 5.26 7.7 4.82 9.4-3.51.94-4.64 2.1-9.23 3.31-13.8.07-.26-.09-2.29 1.55-1.27.44.28-.84 3.64 1.44.77.74-.93 1.88-1.58.29-2.46-2.39-1.32-1.51-3.07-1.2-5.06 1.22-8 3.22-15.93 4.66-23.92 1.19-6.6 1.26-13.4 1.86-20.11.08-.91-.53-2.15.68-2.64 4.06-1.66 4.34-2.59 1.61-6.22a6.56 6.56 0 01-1.28-3.56c-.68-6.57 3.25-13.33-.8-19.75a1 1 0 010-.95c2.73-2.4 0-8.85 6.64-8.36-2.13-.6-4.46-.93-5.13-2.41-1.75-3.9-4.91-3.22-7.93-3.12-8.61.27-17.14-.73-25.69-1.37-6.93-.52-13.83-1.87-20.67-2.24-7.46-.4-14.75-2.46-22.09-2.09-2.72.13-2.11-2.19-4.14-2.71-4.17-1.06-8.38.19-12.58-1.69a98.1 98.1 0 00-20.18-6.24c-7-1.44-13.55-3.87-20.34-5.68-6.12-1.62-12.39-2.94-18.09-5.53a133.86 133.86 0 00-23.3-7.57c-13.57-3.33-27-7.29-40.88-9.69-12.3-2.14-24.55-4.79-37-5.93-15-1.38-30.25-2.11-43.94 6.59-3.36 2.13-6.14 4.36-7.9 8.25-7.34 16.18-11.54 33.33-15.58 50.47-4.93 20.93-9.5 42-8.53 63.77.07 1.65 2.15 3.1.38 5-2.9 3.09-1.63 6.62.42 9.19 1.18 1.46.11 2.39.56 3.44-3.51 1.49-.64 3.24-.27 5 .9 4.1 4.23 7.29 4.07 11.88a8.75 8.75 0 00.29 4.27c2.41 6 6.59 11.07 8.16 17.49.69 2.82-.54 3.69-2.3 3.44-3.76-.52-7.85-1.5-10-4.87-3-4.77-5.81-9.68-8.86-14.46-5.17-8.1-10.3-16.22-16.31-23.7-2.37-2.95-4.39-6.88-8.61-7.74-11.42-2.35-22.53-2.63-33.16 3.72-3.15 1.88-5.65 3.73-7.09 7-3.88 8.87-2.61 17.28 2.12 25.48 2.7 4.66 6.15 7.7 11.88 8.06 5.19.32 10.26-.42 15.44-.82a7.92 7.92 0 00-2.37-4.23q-7.74-8.69-15.39-17.44c-.46-.53-1.86-2-.65-1.86 2.81.3 1.49-4.94 3.91-3 3.47 2.81 8.22 3.83 10.93 7.29 3.09 4 6.76 7.2 10.35 10.61 9.13 8.67 17.49 18.07 20.11 30.85a88.27 88.27 0 008.11 24c7.37 14 12.73 29 21.47 42.4 4.77 7.31 9.42 14.67 14.77 21.61 4.1 5.32 8.62 10.28 12.78 15.28-1.53 1.52-4.3-.72-5.25 3 7.28-3.52 10.56 1.76 14.34 5.86a81.71 81.71 0 0011.9 10.04c6.62 4.87 13.12 10.06 20.43 14a85.47 85.47 0 0022.48 8.57 165.19 165.19 0 0028.38 3.52c6 .25 12.07.9 18.24-.48 17-3.8 34-7.25 49.77-15.6a183.61 183.61 0 0037.14-26.27c13.31-12 23.87-26.31 34-40.9a85.76 85.76 0 008.67-14.72c2.15-5 6.29-8.65 7.81-14.19 1.68-6.15 5.58-11.66 7.87-17.69 4.6-12.09 8.82-24.33 13.07-36.55 1.13-3.24.61-5.77-3.75-5.43-.79.06-1.85.4-2.32 0-2.29-1.83-6.08-3.06-7.46-2.06-2 1.45-2.07 5.28-3.54 7.76-4 6.7-5.7 12.79 2.93 17.26.27.14.43.5.63.77 1.76 2.46 1.88 4.21-.89 6.55-3.71 3.15-6.31 1.33-9.29-.6-5.6-3.61-6.38-3.43-10.31 1.83-2.37 3.17-5.25 5.81-9.18 6.86-1.31.35-2.1.77-2.23 2.17-.27 3.06-1.94 5.76-1.84 9 .1 3.46-2.1 4.66-5.33 3.13s-6.13-3.79-6.87-7.77c-.93-5-3.77-8.15-8.35-10.67-10.6-5.84-16-15.43-17.75-27.28-.35-2.43-.94-4.65-.37-7.28 1.74-8.18 4.17-15.87 9.33-22.71 2.2-2.92 4.47-5.74 7.83-4.92 5.78 1.42 9.16 6.48 8.25 10.83-1.13 5.45-3 10.81-3.52 16.3-.61 6.42-1.94 13 .91 19.37 1.27 2.83 2 6.54 5.76 6.57s7.32-.79 9.88-4.42c7.44-10.52 14-21.47 18.08-33.75 1.81-5.42 6.76-7.27 11.88-4.58l-.68.58zM573.57 578.62a32.79 32.79 0 000 3.67c1.85 14.33.39 28.78 1.82 43.15.89 9 .17 18.08.19 27.13 0 1.79-.23 3.53 1.54 4.93 8.64 6.82 17.11 13.85 28.56 15.53 9.56 1.4 18.53 5.45 28.66 4.69 9.28-.69 18.42-1.59 27.24-4.46 3-1 5.46-2.56 3.68-7.46-2-5.54-5.17-10.89-5.16-17.22 0-2.51 1.14-6 .72-6.88-2.18-4.71-1.48-9.1-.44-13.69.76-3.34-1-5-4-4.82a14.79 14.79 0 01-8.22-1.87c-6.3-3.93-13.73-4.47-20.18-8-7.38-4-15.25-7.27-22.65-11.4-11.33-6.34-20.78-15.19-31.76-23.3zm102.81 574.13a17.1 17.1 0 01-1.86-1.12 2.23 2.23 0 01-.85-1.17c-1.23-8.55-8-12.34-14.09-16.86-10.4-7.67-23.1-11.26-33.39-19.09-.57-.44-1.62-1.69-2.92-.4-3.65 3.61-8.84 4.83-12.84 7.63-12.35 8.65-25.68 15.71-37.93 24.55a185.94 185.94 0 01-35.85 20.78c-1 .41-1.91.91-1.88 2s1 1.53 1.87 2c6.12 3.36 10 9.58 16.09 12.88 1.93 1-.17 3.6 2.45 4.26 4 1 7.29 3.68 10.17 6.43 2.51 2.41 5.94 2.8 8.39 5 .73.65 2.24.28 2.18.06-.75-2.75.67-7-.67-8-4.34-3.23-4.88-8.16-7.12-12.27-1.08-2 2.9-8.82 4.31-8 5.66 3.29 12.82 3.13 17.88 7.16 4.58 3.64 9.69 6 14.84 8.3 2.22 1 1.5 4.62 5 4 2.36-.4 4.47 1 6.49 2.73 4.28 3.67 8.57 2.25 9.85-2.56 1-3.6-2.85-2.26-3.68-4-2.7-5.65-8.45-8.29-12.48-12.63-2.22-2.39-5.39-4.21-6-7.49 1.32-2.36 3.66 1.17 4.86-1.47-.56-1.07-3.53.22-2.55-2.24.6-1.52 2.25-1.44 3.5-1 2.26.79 4.46 2.73 6.62 2.64 5.41-.21 9 3.21 12.12 6.23 6.92 6.6 15.88 8.15 23.84 11.87-.49-7.19-6.34-10.81-10-15.34-4-5-9.52-9.11-13.06-14.78-.93-1.47-3.17-4.11 1.45-4 1.12 0 1.31-.92.4-1.59-1.91-1.4-.53-2.33.51-3s1.88-1.54 3.54-.63c7.85 4.28 16.78 5.84 24.77 10.06a14.81 14.81 0 0016.04-.94zm172.15-394.43a4.07 4.07 0 00.77-1 6.45 6.45 0 00-.56-5.94c-.33-.57-.87-.84-1.55-.18-2 1.88.52 3.3.47 5-.01.67-.5 1.72.87 2.12zm-28.16-315.07c-.14-.49-.41-.83-.94-.55a.82.82 0 00-.29.71c.1.38.24 1 .85.63.21-.11.26-.52.38-.79z" class="cls-4" transform="translate(-22.74 -28.9)"/><path d="M384.66 1004.17c6.12 14 12.67 27.83 21 40.7 6.43 9.92 12.37 20.32 20 29.29 8.09 9.57 15.14 19.9 23.47 29.3 10.63 12 21.8 23.43 33.21 34.63 5.4 5.3 10.59 11 17.17 15.07L451 1177c-10.24 5-20.51 10-30.73 15-18 8.94-36 18.08-54.1 26.85-6.6 3.19-13.27 6.29-20.59 7.89-5.38 1.18-8.74-2.26-9.43-5.67-1.42-7.08-7.72-9.42-11.31-14.26-5.08-6.84-11.18-12.86-16.69-19.36-7.6-9-15.59-17.67-23.14-26.69-12.28-14.67-24.59-29.31-36-44.68-6.43-8.64-9.78-18.4-13.7-28.25 2.91-.85 3.54 1.65 5.59 2.11-1.4-4 .36-5.8 3.37-8.4 8.65-7.48 19-11.94 28.64-17.5 11.27-6.47 22.83-12.43 34.25-18.65a26.63 26.63 0 018.65-3.19c.14.24.28.47.41.71l.24-.61h-.73c-.29-3.1 3.57-1.84 4.19-4 8.61-3.42 16.52-8.25 24.71-12.52 7.78-4 15.48-8.22 23.19-12.39 5.62-3.02 11.18-6.14 16.84-9.22z" class="cls-3" transform="translate(-22.74 -28.9)"/><path d="M746.33 819c-1.09-4.32-4.82-6.84-7.17-10.31-4.37-6.47-8.18-13.24-12.07-20-3.51-6.1-4.3-6.29-8.83-1-6.48 7.53-11.55 16.08-17.15 24.25-5.88 8.6-11.89 17.12-20.21 23.7-1.76 1.39-3.08 1.26-4.94.71-12.25-3.6-18.07-13-22.68-24-4.42-10.56-9.79-20.72-14.63-31.11-1.19-2.56-1.91-1.82-3.44-.26-10.38 10.56-20.74 21.15-31.38 31.46-4.25 4.12-9.18 7.56-13.83 11.28-.89.71-1.71 1.63-3 1.55-3.9-.21-14.57-9.54-15.32-13.44q-3-15.79-6-31.6c-.21-1.11.18-2.56-1.11-3.08s-2 .91-2.77 1.63c-9.38 8.34-18.7 16.73-28.11 25-2.48 2.2-5.12 4.35-8.87 3.42-1.37-3.51-2.85-1.38-4.19 0-2.14 2.16-2.07 4 1 5.52l-3.87-.31c-3.47-1.39-3.45-3.8-1.82-6.56.37-.62 1.32-.72.47-1.85-5.72-7.62.18-16-1.25-24-.79-4.47 1.36-9.57.65-14.54a15 15 0 01.42-6.39c1-3.25-1.49-6-.72-9.21.24-1-1.34-.77-1.94-.42-4.31 2.43-9.56 1.89-13.83 5.06-3.32 2.46-7.65 3.92-11.76 4.83-5.9 1.32-10.39-2.11-15.15-5.29-4.24-2.83-4.2-5.76-3.11-9.87a134.25 134.25 0 004-22.88c3.77-2.95 6.72-7.14 11.94-7.89-.08 2.32 1.56 4.43.91 6.83-1.83 6.8-.29 13.84-1.65 20.75-1.06 5.39-.13 5.74 5.14 4.24a37.79 37.79 0 004.19-1.57c6.86-2.85 13.57-5.94 21.24-6.4 5.3-.31 14.19 5.06 14.53 10.22.59 9-.33 18-.75 27-.27 5.63-3.2 11.19-.55 16.91-.59 1.63.6 2.4 1.7 2.92.22.1 1.62-1.34 1.71-2.15.17-1.67-1.48-1.25-2.47-1.53a32.2 32.2 0 016.13-7.77c6.76-6.37 13.53-12.74 20.18-19.23 7.08-6.91 7.68-6.58 16.6-3 5.54 2.24 7.21 6.07 8.12 11.08.29 1.62.72 3.22 1 4.84 1.46 8.45 2.85 16.91 4.35 25.35.52 2.86 1.38 4.11 4.33 1.47 6.8-6.08 13.4-12.35 19.64-19 5.75-6.13 11.33-12.4 18.22-17.32 2.26-1.62 5.23-3.18 7.25-2 6.5 3.93 14.9 5.18 19.11 12.39 3.25 5.56 6.11 11.36 8.92 17.16 3.25 6.71 6.26 13.55 9.38 20.33 1 2.17 1.87 2.84 3.75.44 4.28-5.49 8.23-11.19 12-17 6.1-9.5 12.51-18.74 20.88-26.47 5.48-5.06 8.8-5.35 15.12-1.05a17.41 17.41 0 004.76 2.66c8.55 2.34 12.56 9.05 16.35 16.19 2.41 4.54 5.29 8.83 8.29 13.81 2-4.08 3.42-7.47 5.33-10.53 3-4.8 3.82-11.17 9.82-13.82 2.77 6.44 8.11 11.51 9.89 18.48-5.69-.27-5 4.74-6.49 7.9-6.43 4.68-14.07 7-20.92 10.88-1.79 1.02-3.59 1.77-5.34 2.59zm-216.87-22.7l-.19-.38c-.11.08-.31.2-.3.23a5.33 5.33 0 00.32.56c.06-.12.11-.26.17-.39zM509.67 855.38c8.09-2.46 14.15-8.36 21-12.81q7.65-5 15.32-10c3.9-2.55 8-.38 11.58 1.45 2.47 1.25 4.41 3.39 7.53 3.49 2.29.07 3.46 2.13 4 4 3.24 12.24 6.5 24.49 6.85 37.27a2.37 2.37 0 00.64 1.69c1 .65 1.32-.37 1.82-1 10.12-12.68 21.09-24.55 33.66-34.87 3.26-2.68 6.4-2.88 9.81-.06a16.84 16.84 0 006.07 3.37c12 3.25 12.68 14 15.67 23.23-6.3 3.13-12.06 7.36-19 9.27-1.39-5.67-2.34-11.5-6.21-17.66-1.46 1.94-2.47 3.46-3.66 4.83-6.78 7.82-13.69 15.54-20.37 23.44-2.38 2.81-6.34 4.44-6.77 8.77-.4.79-1.08.64-1.76.51l-1.28 1.06.09-.06c-.81 0-1.61 0-2 .9l-4.57 2.14c-1.87-1.32-3.56-3.18-5.63-3.86-7.48-2.44-12.35-7-14.23-14.83-1.71-7-3.82-14-5.48-21.05-.9-3.83-1.2-7.79-1.82-11.69-.34-2.1-1-2.8-3.23-1.35-8.08 5.25-16 10.91-24.61 15.1-4.79 2.33-10.5 4.42-16.36 2.62a53.09 53.09 0 012.94-13.9z" class="cls-5" transform="translate(-22.74 -28.9)"/><path d="M504.63 890.33c5.72-1.68 11.14-1.84 15.6 3a2.82 2.82 0 001.22.85c14.43 3.7 16.79 17.46 23.22 27.83-5 2.44-10.21 4.5-14.89 7.42-6.77 4.23-14.27 7-21 11.24-2.56-3.17-2.51-7.36-2.88-10.85-1.33-12.41-1.58-24.94-2.23-37.42a2 2 0 01.96-2.07z" class="cls-6" transform="translate(-22.74 -28.9)"/><path d="M835.62 749.3c5 6.08 9 12.7 9.88 20.74-6.27 1.38-11.23 5.62-17.12 7.84-4.11 1.55-7.58 4.47-11.9 5.56a39.25 39.25 0 01-9.93-7.38c-1.65-1.64-3.52-2.71-4.49.34-1.86 5.84-5.46 11-6.58 17.1v-.07l-1.16 1.07-2.9 2c-1.71-1.37-1.05-4.61-4-5l-.72-.72c2.23-2.86-2.13-1.63-2.16-3.58-.09-4.53-3.55-7.8-5.25-11.75 3.24-6.66 3.29-14.73 9.87-20 3.38-2.7 6.52-2.88 8.78 1 .41.7-.26 3.18 1.77 1.93s3.38.34 5 .73c8 1.92 13.3 7.67 18.87 13.06.9.88 1.68 2.41 3.25 1.86s1.18-2.12 1.54-3.38c2.18-7.22 3.13-14.82 7.25-21.35z" class="cls-5" transform="translate(-22.74 -28.9)"/><path d="M779.38 775.45c1.7 3.95 5.16 7.22 5.25 11.75 0 1.95 4.39.72 2.17 3.58l-2.51 1.34c1.48.19 2.51.74 3.22-.62 2.91.41 2.25 3.65 4 5-.35 1.09 1.53 2.61-.9 3.33-3.43 1-6.47 3.31-10.27 3.15.67-2-2.3-3.18-1.33-5.31-1.78-7-7.12-12-9.89-18.48-1.28-2.61-2.07-5.68-4-7.71-2.28-2.46-2.71-5.19-1.07-7.18.84-1 4.19-.21 6.2 1.39 3.54 2.83 5.92 6.68 9.13 9.76z" class="cls-4" transform="translate(-22.74 -28.9)"/><path d="M1084.76 621.22c-2 1.09-3-1.14-4.52-.62-.86.28-2.71.2-2.24-.28 1.15-1.17-.14-2.71.93-3.4 1.39-.89 1.26 1.05 2 1.32 1.63.59 3.62.58 3.83 2.98z" class="cls-5" transform="translate(-22.74 -28.9)"/><path d="M1171.15 465.9c-6.88 5.83-14.64 10.4-23.47 11.87-11.87 2-23.77 3.16-35.69-1.52-4.75-1.86-9.8-3.49-14.8-5-4.06-1.22-7.48-3.51-11-6.16-4.78-3.62-11-1-16.31-.09a54.07 54.07 0 01-19.17-.45c-3.56-.66-5.91-4-7.26-6.89-1.26-2.69 2.65-3.57 4.35-3.75 4.36-.45 7.63-3 11.16-4.92 3.79-2 5.35-5.42 3.42-10-6.67-15.86-5-30.6 4.13-45.5 8-13 19.21-21.12 32.85-26.06 8-2.89 16.73-3.19 25.34-2.6a18.14 18.14 0 002.44-.13c6.24 1.8 12.63 3.43 18.63 5.56 9.07 3.22 18.35 5.88 26.45 12.36 15.23 12.16 22.72 37.82 17.12 55.83-3.23 10.41-10.34 18.08-16.49 26.5l-.05.35z" class="cls-3" transform="translate(-22.74 -28.9)"/><path d="M771.4 702.45c-2.32 10.65-4.82 21.26-6.89 31.95-1.12 5.74-5.07 9-9.13 12.41-1.48 1.23-2.6 0-3.93-.81a95.47 95.47 0 01-24.28-20.72c-1.33 5-2.86 9.14-3.46 13.41s-2.92 7.48-5.6 10.78c-3.34 4.1-6.08 3.63-10.42 1.4-12.05-6.17-17.9-17.69-25.35-27.86-1.85-2.52-3.48-5.22-5.53-8.31-3.53 7.32-7.06 14.24-10.24 21.32-2.61 5.83-5.62 11.23-11 15-.94.65-2 2-3 .82-3.77-4.52-10.16-4.67-14.18-8.87s-7-9.23-10.13-14.12-6-9.83-9.14-15.05c-6.5 7.34-12.62 14.87-20.12 21.11-2.47 2.06-4.31 2.21-7.49 1.29-13.33-3.88-17.35-15.45-22.61-26.09-.21-.44-.21-1-.41-1.43-2.89-6.7-3.21-6.7-8.67-2-6.37 5.54-12.91 10.89-19.35 16.35a4.35 4.35 0 01-3.07 1.4c-6.72-.25-14.6-8.55-14.84-15.23-.27-7.26 1-14.58-.75-21.79 4-3.52 9.1-4.75 13.74-6.94a58.52 58.52 0 011.93 18.62c-.1 1.38-.54 2.67.88 3.5s2.42-.26 3.26-1.3c3.72-4.62 8.86-7.47 13.72-10.59 5.28-3.39 8.2-3 13 1.08a6.36 6.36 0 003.46 1.76c5 .57 7.71 4 9.71 8.24 2.53 5.37 5.24 10.66 7.72 16.05 1.32 2.87 3 3.16 4.68.7 2.43-3.61 6.08-5.94 8.72-9.4 7.35-9.61 11.64-10.5 20-6.6A34.59 34.59 0 01639 718c2.63 4.78 5 9.95 9.2 14.69 2.09-6.8 5.68-12.06 8-17.87a53.35 53.35 0 0111.92-17.44c2.19-2.22 4.43-2.52 7.1-.71 2.47 1.67 5 3.89 7.75 4.34 5 .83 7.26 4.23 9.62 7.79 4.16 6.28 8.2 12.65 12.45 19.23.88-3.17 1.94-5.84 2.29-8.59s1.49-5.49 1.65-8.24c.23-4.12 3.71-5.66 5.72-8.33 3.07-4.07 5.71-.9 8.73.54 7.11 3.35 14.7 5.78 17.91 14.18a7.27 7.27 0 003.78 4.34c.85-3.09 1.67-5.95 2.51-8.78 1.62-5.52 1.33-11.45 3.85-16.72z" class="cls-5" transform="translate(-22.74 -28.9)"/><path d="M832 708.86c.82-6.31 6.65-8.6 10.28-12.6 14.11-15.53 23.67-33.52 30.15-53.37 3.53-10.83 7.2-21.61 9.25-32.81 1.86-10.21 2.94-20.53 3.86-30.88a214.25 214.25 0 00.74-29.85c-.89-17.55-2.39-35.09-1.74-52.66.53-14.44 1.18-29 5-43 3.44-12.53 7.32-25 15.17-35.87 2.25-3.12 3-7.14 7.31-8.52.72-.23 0-2.91 2-1.38.94.72 1.76 1.86 1.16 3.05-3.75 7.48-4.22 15.87-6.63 23.73a116 116 0 00-4 18.48c-2 15.18-1.77 30.52-1 45.73.86 16.8 3.55 33.49 4.6 50.28a322.81 322.81 0 010 36.41c-.88 17.48-4.59 34.56-10 51.17A285.6 285.6 0 01878 684c-2.15 4-4.44 7.91-6.66 11.86-11.62 6.88-24.93 9-37.47 13.23-.57.2-1.28-.09-1.87-.23zM354.74 595.78c5-10.82 12.23-20.38 17.85-30.85 5.22-9.71 7.73-20.26 9.11-31.1 1.63-12.79 1-25.44-.67-38.31-1.79-13.79 0-27.6 4.5-41.11 3.88-11.73 8-23.4 13.34-34.44 2.4-4.94 3.12-11.43 8.79-14.57 5.64-15 18.07-25.13 27.34-37.49 5.28-7 9.84-14.63 15.6-21.42 2.44-2.87 4.58-7.41 6.1-11.59 1.32-3.66 3-2.68 4.64.32-.88-5.17-4.33-11.69 7.07-11.2-7.41-2.62-1.8-6.28-2.36-9.37-.12-.7 1.31-1.1 2-.56 1.54 1.14 3.85 2.22 3.08 4.54-2.27 6.75-2.46 13.89-5.11 20.68-7.74 19.81-19.44 37.13-32.1 53.9-12 15.88-20.09 33.64-26.16 52.45-5 15.47-9.9 31-8 47.54 1.33 11.82 3.58 23.56 3 35.53-.76 14.61-3 28.86-10 42-6 11.2-13.33 21.54-20.13 32.21-1.2 1.88-1.06 5.13-4.18 5.67-.48 0-1.21.16-1.42-.1-3.89-4.51-9.57-7.2-12.29-12.73zM469.66 453.41c-.69 6.71-3.28 13.09-3.47 19.91s-.29 13.49-1 20.17a51.16 51.16 0 001.17 17.18c.52 2.26-3.43 3.89-2.75 6.91 2.13 0 1.4-2.13 2.4-2.92.36-.29.48-.16.53.35 1.49 17 2.27 34-1 50.78A94.46 94.46 0 01450.33 602c-10.52 15.06-19.16 31.25-29 46.69-.76-.24-1.91-.25-2.2-.76-2.92-5.07-8.22-7.4-12.4-11 .81-11.38 6.84-20.52 13-29.49 10.15-14.82 19.65-29.72 23.17-47.89 2.92-15.11 2.79-30.24 2.78-45.42 0-17.05 1.38-33.87 6.91-50.14 1.89-5.56 4.15-10.91 8.17-15.32 3.56.41 6.31 2.42 8.9 4.74z" class="cls-7" transform="translate(-22.74 -28.9)"/><path d="M488.78 874.55c-6.67-9.53-3.28-20-2.54-30.11.7-9.45 1.41-18.93 3.64-28.24l-1.24-.58c-6.46 5.55-12.87 11.15-19.37 16.64-4.42 3.74-9.19 7.1-13.37 11.08-4.7 4.48-8.21.18-11.49-1.53-7.67-4-7.4-4.35-5.29-13.2 2.24-9.45 4.39-18.93 6.38-28.43.52-2.49 1.25-4.15 5.28-3.53-6.19-2.8-1.55-6.72-2.86-10-3.6 2.26-7.1 4.62-10.74 6.71-10.55 6.06-19.81 14.11-30.68 19.64-.91.47-2.45 2.07-2.81-.63.08-.13.16-.26.23-.39l-.19.43h-2.85c3.93-8.2 7.19-16.76 12.94-24a5.56 5.56 0 003.27-.94c11.57-7.9 23.2-15.73 34.76-23.64 2.57-1.76 4.65-2.8 7.93-.76 2.3 1.43 4.65 3.52 7.4 3.88 4 .52 3.93 3 3.39 5.71-1.51 7.43-3.22 14.81-4.91 22.2s-3.48 15-5.44 23.42c1.46-.9 2-1.18 2.51-1.55q10.47-7.92 20.91-15.85c8.21-6.27 10.24-6.4 18.75-1.09.83.52 1.68 1.37 2.55 1.42 3.56.19 4 2.48 3.67 5.2-.85 7.19-2.17 14.36-2.56 21.57-.21 3.79-2.44 7.6-.35 11.46-.29 3.46-4.28 4.39-5.22 7.79-.4 1.45-1.54 2.66-1 4.49A2.77 2.77 0 01499 854c-6.4 6.8-7.18 8.6-7.48 17.37a3.5 3.5 0 01-2.74 3.18zM507.05 991.11c-7.65-2.63-14.09-7.27-19.75-12.83-4.84-4.77-11.58-7.11-15.67-12.8-.91-1.27-2.68-1.58-3.12.89a36.54 36.54 0 00-.81 4.35c-.31 5.88-.27 5.88-7.2 7.69 8.16-.37 5.84 3.66 5.3 7.13-1.17 7.48-2.38 15-3.05 22.51-.49 5.42-4.37 8.23-7.57 11.65-.79.85-1.88.49-2.68-.23-4.61-4.11-11.24-5.47-15.19-10.08-3.68-4.3-7.76-8.2-11.31-12.58-5.4-6.66-10.69-13.41-16.54-20.77-1.58 8-1.35 16-6.56 22.15-4.93-12.42-9.47-25-12.57-38a11.38 11.38 0 01-.52-3.87c2.8-.69 1.85-3.72 3.2-5.52 3.34-4.47 7.31-4 10.35-1.75a66.54 66.54 0 0011.46 6.56c2.73 1.27 4.59 4.63 6.57 7.25 6.44 8.53 12.75 17.16 19.55 26.33 2.39-5.33 2.92-10.65 3.41-15.57.81-8.12 4.08-15.64 4.59-23.79.24-3.85 4.46-5.64 6.88-8.12 3.41-3.51 6.64.4 8.9 2.82 3.36 3.58 8.57 2.89 12 6.22 5.6 5.38 11.59 10.37 17.41 15.54 1 .88 1.79 2 3.32 2 2.45 7.91 6.48 15.17 9.6 22.82z" class="cls-5" transform="translate(-22.74 -28.9)"/><path d="M535.61 533.33a116.5 116.5 0 01-11.39 45c-10.11 21.49-20.39 42.89-30.62 64.32-6.79 14.22-10.75 29.11-11 44.93a24.23 24.23 0 001.05 7.86l-9.61 6.18c-9-12.95-11.58-26.95-7.91-42.38 4.85-20.43 13.73-39.25 22.79-58 6.52-13.48 14.48-26.26 21.22-39.64s10.54-27.73 12.44-42.59c.2-1.58-.39-3.41 1.4-4.5a79.52 79.52 0 0111.63 18.82zM790.42 688.59a15 15 0 00-2.21-7.53c-1.54-2.84-4.25-6.22-1.26-9.91-5-4.78-2.33-10.89-2.31-16.27 0-11 3-21.58 6.64-32.12 5.68-16.62 15.29-31 24-45.89 3.47-6 6.22-12.36 9.32-18.54a7.75 7.75 0 00.81-4.81v.06l.77-.3c-.2-.2-.41-.39-.62-.58a326.1 326.1 0 0024.25-37.58c.19-.35.82-.47 1.25-.69 1.39 11.71-.91 23.1-3.29 34.44-2.63 12.48-6.29 24.71-12.44 35.92-1.94 3.53-3 7.39-5.16 10.8-2.47 3.9-4.31 8.2-6.79 12.09-6.17 9.73-10.27 20.44-13.26 31.35-2.83 10.38-5.18 21-5.87 31.93-.5 8-1 15.76 1.28 23.5-4.44-1.55-9.45-1.61-13.16-5.07-.4-.82-.87-1.49-1.93-.85z" class="cls-7" transform="translate(-22.74 -28.9)"/><path d="M385 864.49c7-3.84 11.27-10.54 16.88-15.85 6.38-6 5.72-4.81 13.81-1.65 11.66 4.56 8.38 14.39 9.81 22.39a83 83 0 011.31 18.81c-.09 1.68.13 4.09 2 4.63 1.66.48 1.93-1.93 2.89-3q10-10.77 20.71-20.72c2.23-2.08 4-2.08 6.49-.21 2.93 2.16 5.66 4.58 9.69 5.38 2.6.51 4.38 3.74 5.83 6.47 3.72 7 7.36 14.1 12.1 20.53q.57 14 1.12 28.07c-6.46-2.22-9.84-7.63-12.88-13.07-4.86-8.67-9.34-17.54-13.8-26.42-1.71-3.41-3.05-3.34-5.69-.73A155.57 155.57 0 00435 914.71c-1.63 2.48-2.88 6.26-7 2.88-.3-.23-1.18.25-1.78.39.2.59.24 1.49.64 1.7 1.5.76 3.24 1.07 1 3.14-1.61 1.47-2.55 2.55-4.78.52a21.39 21.39 0 00-7.35-3.94c-4.41-1.54-5.51-5.14-5.82-8.95-.88-10.71-1.64-21.44-2-32.18-.15-4.45-1.25-8.69-1.3-13.82a143.36 143.36 0 01-20.95 18.11 3.14 3.14 0 01-2.29.66zM521.74 1016.15c-2.86 1.29-2.62 4.29-2.86 6.48-1.31 11.67-2.47 23.37-3.17 35.1-.55 9.23-3.12 17.1-11.16 22.53-3 2-5.7.65-7.82-.78-9-6.12-19-10.88-27.22-18.25a7.37 7.37 0 00-2-1.48c-1.77-.71-3.57-3.13-5.27-1.75-1.42 1.15-.62 3.75-.29 5.72 1.08 6.38 2.08 12.76 1.68 19.26-.18 3-.71 6-4 7.29a101.69 101.69 0 01-15.07-19.47c.7-5.39-.85-10.51-2.43-15.48-1.9-6 .7-10.49 4.55-14 2.68-2.47 6.64-1.39 9.84.38 11.36 6.32 23.28 11.67 33.64 19.69.22.18.64.1 1 .14 2-3.19.44-7.72 4-10.3-2.3-2.38-1.46-5.3-1.47-8.12 0-9.81 1.81-19.43 3.39-29 1.37-8.28 7-13.09 15.18-14.85 2.35 6 7.18 10.74 9.48 16.89zM498.72 1133.9c-1.84-8.22-3.33-16.55-5.65-24.64-1.67-5.86 1-9.56 4.73-13 3.13-2.89 6.68-2 10.26-.81 11 3.65 21.39 8.91 32.15 13.21 3.34 1.34 4.32.24 4.33-2.67 0-12.94 2.69-25.66 3.17-38.57.22-5.76 1.3-11.49 2-17.23 7.8 7.19 14.78 15.16 22 22.89a3.11 3.11 0 00-1.12 2.61c-1 10.79-1.79 21.61-3.15 32.36-.45 3.62-.62 8.24-3.85 10.3s-4.53 4.94-6 8h.16c-2.08-.1-3.93 1.44-6.26.28-4.81-2.41-9.87-4.34-14.73-6.65-6.17-2.92-12.29-5.94-19.08-7.21-1.25-.23-3-1.2-2.61 1.25 1.88 12.2 3.9 24.38 5.87 36.56l-.14-.28c-1.11.23-1.19 1.07-1.17 2-1.4 1.27-1.45-.47-2-.94-6.27-5.86-12.58-11.67-18.91-17.46z" class="cls-5" transform="translate(-22.74 -28.9)"/><path d="M717.49 665.52c1.86-4.37 3.51-8.84 5.61-13.09 3.74-7.55 3.55-15.91 5.35-23.86.4-1.76.73-3.53 1.09-5.3l11-4.63c4.1 17 2.1 33.43-4.89 49.35-.53 1.21-.85 2.5-1.26 3.75-5.96-1.1-11.39-3.74-16.9-6.22z" class="cls-7" transform="translate(-22.74 -28.9)"/><path d="M848.53 758.32c-1.37-.4-.88-1.45-.87-2.1.05-1.7-2.44-3.12-.47-5 .68-.66 1.22-.39 1.55.18a6.45 6.45 0 01.56 5.94 4.07 4.07 0 01-.77.98z" class="cls-5" transform="translate(-22.74 -28.9)"/><path d="M506.61 839.43c1.48.12 3.47-.72 3.88 1.62.34 1.93-1.67 3.36-2.64 3.58-1.44.32-1.54-1.53-1.28-2.91a15.36 15.36 0 00.11-2.36z" class="cls-6" transform="translate(-22.74 -28.9)"/><path d="M686.12 1140.78c-.49.8-1 1.81-1.91.43-.74-1.11.32-1.17 1-1.43z" class="cls-2" transform="translate(-22.74 -28.9)"/><path d="M488.35 930.3l-.74-1z" class="cls-5" transform="translate(-22.74 -28.9)"/><path d="M1105.82 1167.86c1.85-.8 1.46.73 1.34 1.48a70.15 70.15 0 01-6.87 20.28c-1.27 2.5-2.53 3.51-5.68 2.65-2.28-.62-4.8-.89-7.16-1.52-1.79-.47-2.36-1.37-1.31-3.52 7.63-15.66 6.65-31.53.33-47.27-3.11-7.74-6.51-15.44-11.43-22.22-1.93-2.65.76-3.9.81-5.92s2.42-.61 3.69-.55c10.65.54 15 9.14 19.34 16.62a69.23 69.23 0 019.28 31.28c.15 3 .95 6.46-3.25 7.69-.62.44-.92 1.2-.46 1.67.7.71.92-.39 1.37-.67zM1078.25 1166.54c.81 7-2.32 13.57-6.29 19.93-2.07 3.31-11.53 3.62-13.87.46a2.4 2.4 0 01-.32-2.76c6.65-12.8 1.76-25.42-.9-38a54.58 54.58 0 00-6.54-17c-1.7-2.79 1.57-3.89 1.22-6.14-.07-.49 2.17.19 3.31.39 6.87 1.23 11.06 6.1 14.46 11.52a55.06 55.06 0 018.93 31.6z" class="cls-8" transform="translate(-22.74 -28.9)"/><path d="M1035.25 1167.68c-.78-5.57-2.37-12-6.47-17.55-1.4-1.91-2.65-3.61-1.53-6.47 1-2.4 1.62-2.06 3.81-1.75 7.29 1 13.06 3.87 16.11 10.92 2.73 6.33 3.9 12.83 2 19.64a27.82 27.82 0 00-.72 2.86c-1.37 7.38-7.47 10.26-13.78 6.49-2.28-1.36-1.62-3.53-1.17-5.34.62-2.55 1.85-4.95 1.75-8.8z" class="cls-3" transform="translate(-22.74 -28.9)"/><path d="M528.62 791.4l.94-.76c1 .28 2.64-.14 2.47 1.53-.09.81-1.49 2.25-1.71 2.15-1.1-.52-2.32-1.32-1.7-2.92zM529.46 796.32c-.06.13-.11.27-.17.41a5.33 5.33 0 01-.32-.56s.19-.15.3-.23z" class="cls-4" transform="translate(-22.74 -28.9)"/><path d="M787.51 791.5c-.71 1.36-1.74.81-3.22.62l2.51-1.34z" class="cls-5" transform="translate(-22.74 -28.9)"/><path d="M265.07 694.82c-6.11-3.33-3.82-7.39-1.9-10.94 2.8-5.14 8.42-7.89 12.51-6.33a48.6 48.6 0 0110.52 5.06 8.26 8.26 0 013.46 9.11c-1.16 4.76-4.79 7-8.88 8.54-1.26.45-3.43 1.37-4.17.85-8.66-6.06-11.84 3.13-16.76 6.27-8 5.13-15.3 11.39-23 17.07a7.94 7.94 0 00-2.28 2.44c-3.31 5.66-2.72 6.88 3.47 8.5 8.07 2.09 16.06 4.48 24 6.91 2.18.66 3.69.9 5.58-1 4.25-4.37 7.7-4.59 13.4-2 2.66 1.21 5 3 7.94 3.77 4 1.09 3.84 8-.28 11.49-8.73 7.32-12.16 8.52-22.18.42-7.49-6-16-7.9-24.18-11.26-2.66-1.1-5.53-2.19-8.09-3.39-5.79-2.71-12.11-1.69-17.91-3.63-5.54-1.84-10-6.74-9.51-10.55.73-5.63 7.24-12.19 12.47-12.57A4.44 4.44 0 01223 715c4.55 5 9 2.07 12.77-.64 8.53-6.18 16.49-13.15 25.83-18.2a35.19 35.19 0 013.47-1.34z" class="cls-8" transform="translate(-22.74 -28.9)"/><path d="M575.05 372.32l4.17-1.17-5.05-3.62c1.9-1.2 4.59-.1 4-3.46-.16-.91 3.52-3 6.26-2.84 9.42.7 18.28 3.51 25.8 9a11.28 11.28 0 014.43 8.59 153.71 153.71 0 00.56 16.87c.68 6.09 3.24 11.34 5.6 16.72 1.61 3.66 7.38 4.84 10.32 2.07a69.34 69.34 0 0018.37-28.32c1.17-3.43 4.72-4.71 6.17-7.85.54-1.16 1.47 0 2.34.5 3 1.74 5.23 4.47 8.48 5.94 2.16 1 1.36 3.75.9 5.33-4.74 16.32-12 31.32-25.73 42-6.15 4.78-13.7 5.35-20.92 2.12-3.18-1.43-5.42-1.54-7.76 1.09a16.59 16.59 0 01-2.91 1.9c-2.4 1.71-5.24 4.77-7.55 4.05-3.65-1.14-6.7-4.26-9.94-6.64-1.36-1-1.19-2.25 0-3.4.47-.47.92-1 1.39-1.44 2.58-2.57 7.31-5.18 7.25-7.69-.09-3.8-3.56-7.5-5.47-11.31-1.16-2.32-2.38-2.36-4.72-1.3-8.68 3.91-9.07 3.68-15.29-4.45-1.61-2.1-1-4.48 2.15-5.9 2.27-1 4.34-2.82 6.58-3.26 8.06-1.58 8.27-7.85 9-13.9.35-2.74-2.28-3-3.67-3.1-5.35-.46-9.34-3.66-14.76-6.53z" class="cls-9" transform="translate(-22.74 -28.9)"/><path d="M710.73 483.42c-2.76-3.23-3.76-7.05-4.92-10.58-4.14-12.61 1.34-24.43 3.92-36.37 1.52-7 3-14.19 5-21 3-10 4.15-20.46 8.55-30.06 1.62-3.54 2.42-7.49 3.3-11.32.59-2.53 2-5.53 3.78-5.84 2.88-.5 5.77 1.8 8.2 3.52 2.16 1.53.15 3.83-.13 5.85-1.44 10.79-5.17 21-8 31.41-1.07 3.95-.35 9-5.55 10.95-.18.06-.34.63-.25.87 2.82 8.29-2.66 15.21-4 22.78-1.25 7.09-3.79 14.18-3.75 21.26 0 4.86 3.49 9.72 5.49 14.55.23.56 1 .91 1.33 1.44 5 6.78 4.68 10.38-2.13 15.06-5.63 3.86-11.33 7.69-17.79 10.27-2.81 1.12-5.29 1.1-7.57-.24-5.94-3.5-12.18-6.74-15.54-13.3-1.49-2.91-3.91-5.06-6.07-7.42a7.6 7.6 0 01-1.89-4.92c2.07 0 3.6-1.87 6-1.2 4.89 1.36 7.5 5.12 10 8.94 5.7 8.92 5.61 9 13.55 2.51 2.87-2.4 5.74-4.83 8.47-7.16z" class="cls-4" transform="translate(-22.74 -28.9)"/><path d="M696.6 345.57a13.92 13.92 0 01-2.22 8.06c-1.42 2.07-3.15 3.64-6.17 2.77-12.94-3.75-26.4-5.45-39.32-9.07-11.1-3.11-22-7.63-31.2-15-4-3.2-3.89-5.05-.31-8.83 5.6-5.91 11.64-10.79 19.51-13.88 13.53-5.32 25-1.37 35.86 6.22 2.76 1.93 5.77 3.06 8.6 4.55 10.34 5.4 14.32 14.3 15.25 25.18zm-42.13-23.78c-7 2-15.52 1.09-22.57 6.63-3 2.35-1.89 3.19.35 4.36a18.63 18.63 0 003.76 1.14c13.47 3.79 27.41 5.92 40.46 11.24 1.11.46 2.37 1.1 3.29.27 1.23-1.12.88-2.77.43-4.22-4.95-16.1-9.11-17.47-25.72-19.42z" class="cls-9" transform="translate(-22.74 -28.9)"/><path d="M690.45 542.66c4.5-1.32 6.6 3.11 10.08 4.31 2.11.74.19 1.85-.54 2.39a28.32 28.32 0 01-18 5.5c-13-.52-25.68-2.91-37.83-8.65-20.49-9.69-38.5-22.19-52.07-40.51-2.49-3.35-3.84-7.19-9.24-3.52-1.83 1.25-5.84-.48-6.29-3-.52-2.86 2.16-5.62 5-5.81 2.54-.18 4.4-1.45 6.59-2 12.32-3 22.69 2.26 32.75 8.39a1.75 1.75 0 01.27 2.65c-1.43.94-2.35 3-4.77 2.2-4.19-1.33-8.11-3.54-12.58-3.95-.58-.06-1.17 0-2.18 0 10.9 8.41 19.14 19 29.8 26.91a100.88 100.88 0 0020.25 11.23c4.37 1.92 9.7 3.71 13.18 3.42 7-.59 13.86 2.13 20.47-.07 2.2-.73 3.31 3.82 5.15.42z" class="cls-4" transform="translate(-22.74 -28.9)"/><path d="M813.28 351.88c1.74-.73 3.5.26 5.06.92 10.24 4.38 20.6 8.76 27.9 17.65 4 4.88 5.25 11.1 6.14 17.26.16 1.15-.06 2.35.11 3.49.83 5.53-2 8.66-7.31 7.25-3.82-1-8-.35-11.58-3.29-1.46-1.21-4.62-.28-7-.46a60.13 60.13 0 01-18.6-4.65c-7-2.88-14.33-4.71-20.65-9.05-5.33-3.65-5.47-4.67-2.52-9.64 5.62-9.48 12.79-16.57 24-18.92a36 36 0 014.45-.56zm23.13 34.83a1.34 1.34 0 00.19.4c0 .06.2 0 .31.05l-.52-.43c.18-6.42-2.48-11.92-5.77-17.11-3.5-5.53-9.22-5.52-14.69-4.74A23.09 23.09 0 00799 375.82c-.69 1.1.09 2.47.91 2.25 4.63-1.27 7.84 2.61 12.19 3a98.8 98.8 0 0124.31 5.64z" class="cls-9" transform="translate(-22.74 -28.9)"/><path d="M690.54 542.59a1.85 1.85 0 01-.37-.19v-.25l.31.51z" class="cls-4" transform="translate(-22.74 -28.9)"/><path d="M654.47 321.79c16.61 1.95 20.77 3.32 25.72 19.42.45 1.45.8 3.1-.43 4.22-.92.83-2.18.19-3.29-.27-13.05-5.32-27-7.45-40.46-11.24a18.63 18.63 0 01-3.76-1.14c-2.24-1.17-3.35-2-.35-4.36 7.1-5.54 15.61-4.66 22.57-6.63zM836.41 386.71a98.8 98.8 0 00-24.32-5.66c-4.35-.37-7.56-4.25-12.19-3-.82.22-1.6-1.15-.91-2.25a23.09 23.09 0 0116.94-10.94c5.47-.78 11.19-.79 14.69 4.74 3.29 5.19 6 10.69 5.77 17.11zM836.39 386.73l.52.43c-.11 0-.26 0-.31-.05a1.34 1.34 0 01-.19-.4z" class="cls-7" transform="translate(-22.74 -28.9)"/></g></g></svg>
