<svg xmlns="http://www.w3.org/2000/svg" width="477" height="400" viewBox="0 0 1217.26 1020.48"><defs/><defs><style>.cls-2{fill:#fdccc7}.cls-3{fill:#532cde}.cls-4{fill:#9a81ea}.cls-5{fill:#fa5746}.cls-6{fill:#9b81ea}.cls-8{fill:#472a88}</style></defs><g id="Camada_2" data-name="Camada 2"><g id="Camada_3" data-name="Camada 3"><path fill="#fff" d="M805.79 98L655.66 46 638.3 66.38l-18.39 12.26-3.06 20.42-22.47 1-15.32 29.64-31.66 2s-81.7-3.06-230.8 43.92-228.77 67.4-228.77 67.4L57.19 290l-6.13 134.85 20.43 67.41 75.57 38.8S143 706.72 179.74 710.81s46.47 4.59 46.47 4.59l26 37.79 11.23-7.66 10.21-8.17 15.83 23.24 14.56-8.43 8.42-14.81L343.15 768l53.11 44.94 167.48 171.57L743.49 1007l140.94-138.91L988.6 721l98-73.53 91.95-71.47 24.51-140.94-6.12-81.7-44.94-89.87-124.6-42.89-198.12-73.54" transform="translate(-9.94 -14.39)"/><path d="M151 526.44c-1.06 12.63-1.75 25.09.29 37.89 1.47 9.18 2.95 18.49 4.19 27.76.74 5.54 2.73 11.18 4.33 16.73.29 1 1.6 2.2.37 3.16s-2-.51-2.83-1.18c-8.63-6.63-17.36-13.14-25.9-19.89-10.1-7.91-20.14-15.91-29.88-24.19C92 558.57 82 550.71 74.18 540.9c-9.33-11.73-20.52-21.9-28.83-34.41A263.8 263.8 0 0125 470.93c-7.74-16.82-11.14-34.51-12.67-52.7a60.29 60.29 0 01.47-17c.55-2.76-.84-5.43-1.28-8-4-23.83-.11-46.87 7-69.34a183.84 183.84 0 0128.54-55.81c5-6.63 11-12.59 16-19.1 10.13-13.3 23-23.57 35.58-33.85a162.85 162.85 0 0135.36-22.4c9.26-4.2 17.78-10.15 27.22-13.79 13.71-5.28 26.79-12.15 41.12-16 4-1.08 8.25-2.81 12.34-4.35 6.76-2.56 13.64-5.08 20.7-6.45 6.29-1.23 12.2-3.65 18.56-4.64 8.71-1.36 17.26-3.71 25.86-5.67 9.94-2.26 20-3.77 30.07-5.22 8.09-1.16 16.12-2.77 24.21-4 13-1.91 26-3.81 39.12-4.93 13.37-1.15 26.68-3.15 40-4.59 8.51-.92 17-1.76 25.58-2.2 13.72-.7 27.4-2.52 41.09-2.81 18.24-.37 36.46-1.62 54.75-1.16 7.47.19 15.1-.58 22.66-.92 5.35-.23 10.72 1.42 16-.19.09 2.76 2.17 6-.39 8.13a15.17 15.17 0 01-8 3.68c-8.62.65-14.16 5.87-18.64 12.18s-6.43 13.29-1.77 20.6c1.26 2-.46 2-1.64 2.38-6.92 2.21-13.7 4.67-19.63 9.1-8.58 6.41-16.34 13.38-20.2 23.84-1.83 4.95-1.41 9 3.17 11.93 1.84 1.2 1.42 3.32.36 3.43-4.49.49-5.05 5.57-8.67 6.88-.2.07-.17.81-.28 1.46 1.26.42 3-1.81 3.86 1.05-3.92-.17-6.85 1-9.27 4.23-5.07 6.77-10.69 13.12-16 19.71s-10.18 13.35-15.59 19.77c-5.1 6-9 12.9-14.09 19-15 18-29.09 36.71-42.69 55.8-8.22 11.53-16.45 23.08-25.32 34.11-8.73 10.87-16 22.79-25 33.47A235.5 235.5 0 00335.18 431c-3.67 5.73-10.82 9.42-10.77 17.45 0 .33-.66 1-.91.95-3.33-.66-3.58 2.38-5.13 4-5 5.23-7.66 12.16-12.83 17.29-3.8 3.77-6.25 8.64-9.57 12.86-7.39 9.38-13.81 19.5-21.33 28.8-1.09 1.35-2.69 3.85-2.2 4.63 1.61 2.52-.55 3.24-1.58 3.38-2.83.38-3 2.53-3.95 4.39-1.21 2.31-1.82 6.33-5.23 5.54-4.52-1.06-9.11-1.28-13.6-2.16a445.52 445.52 0 00-46.72-6.65c-7-.62-13.92-1-20.86-1.6-6.67-.6-14.39-3.85-20 3.24-1.26-1.28.39-2.55-.09-3.29-2.94-4.49-7.83.21-11.38-2.26-1.75-1.21-2.62.35-3.07 1.84-1.32 4.39 1.78 5.76 5.04 7.03zm31.11-220.67l-1.42 1.23c-1.41-1.54-3.26-1.48-5.07-1.27a97.28 97.28 0 00-20.89 4.61c-18.06 6.29-28.58 19.8-35.71 36.25-6.24 14.41-2.06 27.52 8.26 38.77 2.2 2.39 2.93 3.94 1.24 7.2-3.45 6.65-6.34 13.61-11 19.56-2.61 3.35-1.53 4.59 2.15 5.71 15.12 4.59 27.45-1.23 38.65-10.45 2.72-2.24 4.63-2.87 7.6-1.27a21.44 21.44 0 009.81 2.12c6.41.16 12.51-1.22 18.74-2.14 9.7-1.43 17.26-5.52 24.62-11 7.77-5.79 13.53-13.38 18.61-21.53 1.62-.15 3.52-.91 4.83-.34 7.95 3.46 15.3-.16 22.78-1.7 2-.42 3.84-1.05 5.67.22 12.18 8.47 26.74 8.8 40.52 11.78 1.72.37 3.47 0 4.36-1.67s-.73-3.05-1.72-3.69c-8-5.23-11.84-13.43-15.78-21.58-1.67-3.46-2.29-6.6.35-10.18a82.08 82.08 0 007.19-10.62c5.83-11.18 7.38-23 7-35.47-.36-12.79-5.68-23.38-13.26-32.91a43 43 0 00-20.95-14.07c-3.55-1.15-7.46-1.45-10.72-3.51-8.23-5.19-17.81-4.49-26.62-4.42-10.53.09-20.45 4.84-29 11.29-9.78 7.37-17.27 17-23.43 27.37-3.88 6.54-7.63 13.69-6.85 21.94zm225.02-104.45c2.13 1.47 3.95 3.74 5.94 3.9 5.38.44 3.93 3 2.63 6-1 2.39-1.56 4.86 1.17 6.59a5.86 5.86 0 008.11-1.16c3.58-4.37 7.08-6.49 12.09-2.19.78.68 2 1.34 3.13.23s1.73-2 1.17-3.5c-.4-1.08-.3-2.48-1-3.29-3.47-4.24-1.58-7 2.17-9.63 1.15-.81 2.91-2.3 1.72-3.61-1.46-1.59-4.85-3.81-5.58-3.28-4.71 3.49-4.81-.91-6.18-3.14-1.68-2.73-4.42-4.63-7.21-4.67s-2.78 3.46-3.83 5.65c-1.59 3.33.58 5 1.92 6.47-5.48 1.4-11.38 1.15-16.25 5.63zm-297.75 273.9a3.83 3.83 0 00-.34-.94c-1.58-2.29-3.2-4.56-4.79-6.84-1.41-2-2.74-3.46.56-5.7 4.53-3.09 3.74-7.35-1.15-7.15-6.13.25-8.23-3.74-11.61-6.79a3.18 3.18 0 00-3.68-.82c-1.39.74-1.45 2.11-1.45 3.47a21.15 21.15 0 01-.83 7.36c-.58 1.6-1.36 2.77-3.1 2.66-3.2-.21-5.65 1.63-8.41 2.67-1.69.64-3.27 1.36-3.25 3.22 0 2.33 2.28 2.7 4 3a49.85 49.85 0 015.25 1.34c2.91.93 4.27 2.5 3 5.47-.87 2.11-.41 3.4 1.62 4.44 2.18 1.12 4.28 1.36 5.8-.73 3.83-5.27 8.31-6.47 14-2.94 2 1.3 3.35-.02 4.38-1.72zm242.34-273c0-3.26-7.77-10.2-11.65-10.4-4-.22-10.22 6.4-10.33 11-.08 3.58 7.51 10 11.65 9.86s10.33-6.42 10.33-10.41zM97.84 286.34c1-3.41-4.59-7.33-12.37-8.54-3.31-.51-8.18 5-8.5 9.39-.26 3.64 4.83 8.8 9.09 9.21a10.8 10.8 0 0011.78-10.06zm161.94 168.31c0-5.06-9.77-10.66-13.82-8.5s-7 7.33-5.73 10.09c1.67 3.64 9.5 7.28 13.13 5.93s5.99-4.01 6.42-7.52zM973.16 164.84c9.45 1.28 18.39 5 27.79 6.28 10.83 1.51 21.22 4.83 31.3 8.48 15.55 5.63 31.59 10.56 45.39 20.21 2.15 1.5 5 .05 6.57 1.67 3.12 3.15 7.53 2 11.17 4s7.22 4.62 11.12 6.2a84.2 84.2 0 0118.85 10.15 209.75 209.75 0 0116.4 13.26c13.74 12.52 27 25.54 38.75 39.86 10 12.14 20.61 24 27.17 38.57a123.72 123.72 0 016.2 16.85c2.15 7.52 3.72 15.21 5.43 22.84a51.4 51.4 0 01.88 12.26c0 1.17-.21 2.22.79 3.19 1.89 1.85 1.7 3.33-.66 4.93-1.85 1.26-.46 3.35-.26 5.09l-.26.37.22-.41c3.49 2.64 3.12 6.78 3.79 10.39 1.1 5.95 2.5 12 2.26 18-.22 5.41 1.39 10.52 1.1 15.86-.33 6-.72 12-1.25 17.95a429.11 429.11 0 01-8.23 52.52c-3.76 17.38-8.36 34.7-14.88 51.32a292 292 0 01-29.09 55.6c-1.21 1.81-1.39 6.08-5.62 3.67-.08 0-.88.74-.81.92 2.7 6.62-3.69 9.43-6.3 13.25-8.18 12-17.82 23.26-29.07 32.3-6.43 5.17-10.4 12.71-18.36 16.59-3.74 1.83-7.3 6.34-11.15 9-7.81 5.41-15.28 11.31-23.49 16.28-7.46 4.52-14.69 9.84-22 14.91-3.28 2.3-6.5 4.56-10.79 4.19-4-7.67-8.38-15.16-12-23-9.7-21.35-20.39-42.22-30.61-63.32-1.36-2.78-5.11-6.08-5-7.25.8-7.07-4.6-11.28-6.89-16.68-5.69-13.41-12.82-26.22-19.39-39.27q-9-17.83-18-35.65c-6-11.76-12.13-23.45-18-35.26-7.46-14.93-14.61-30-22.16-44.91-6.22-12.25-12.25-24.61-18.24-37q-8.1-16.68-15.92-33.56c-6.11-13.22-13.15-26-19.79-39 3.84-7.47 9.16-14 13.72-21 9.7-14.91 19.27-29.92 29-44.8q20.19-30.8 40.59-61.47c9.91-14.8 19.84-29.58 29.73-44.38zm108.51 376c3.92-.56 7.73 0 11.54-.88 12.19-2.88 21.34-10.16 30.07-18.87 15.83-15.79 19-42.12 9.86-60.24-4.44-8.81-11.62-14.88-19.61-19.65-5.74-3.43-12.74-4.83-19.24-6.92-8.47-2.71-17.18-4.13-26-2.55-3.32.59-6.29 2.95-9.6 3.77a50.42 50.42 0 00-26.14 16.11c-11.55 13-16 28-13.13 45a41.7 41.7 0 0014.83 25.18c13.62 11.29 29.75 17.41 47.42 19.05zm-97.06-190.12a62.57 62.57 0 007.79-.6 60.17 60.17 0 0036.69-22.87c10.58-13.61 12.58-28.88 6.9-44.7a31.48 31.48 0 00-12.8-16.42c-4.86-3.08-9.07-7.48-14.22-10.49-7.61-4.44-16.34-3.79-24.44-4.46-9.22-.76-18.58 2.49-26.74 7-12.85 7.1-21.77 17.61-25.8 32.28-3.46 12.57-2.55 24.56 4.73 34.94 11.53 16.45 27.81 25.19 47.89 25.32zm154.85-49.14c-4.6 2.54-3.75 5.84-2.12 8.39 1 1.6 4 1.32 5.29-.45 3.17-4.18 6.46-5 10.54-1.35a3.36 3.36 0 001.88.5c2.69.21 3.93.1 3.57-3.72s-4.75-7.72-1-12.05c.57-.65-.79-1.32-1.49-1.63a7 7 0 01-4.29-5c-.62-2.41-3.2-3.45-5.55-3-2.06.43-4.56 1.77-3.9 4.36 1.1 4.25-1.79 4.79-4.46 5.61-2 .62-4.2.87-6.27 1.41-1 .27-3-.75-2.79 1.57.14 1.6.14 3.36 2.47 3.69s4.52.92 8.12 1.67zm-88.53 286.87c1.56 0 2.74 0 3.55-1.05 1-1.33-.22-2-.81-3-1.9-3.07-3.89-6.08-2.57-10a2.82 2.82 0 00-1.74-3.7 108.45 108.45 0 00-11.22-4c-2.81-.72-4.68 1.2-3.84 3.89 1.41 4.48.08 6.44-4.4 7.29-1.58.3-3.85 1.45-3.82 3.45s2.07 2.84 3.87 3.07c2.23.28 3.43 1.35 3.23 3.54-.25 2.81 2.45 2.9 3.8 4 1.06.86 3-.44 3.69-1.74 1.83-3.58 4.82-2.9 7.78-2.48a14.45 14.45 0 012.48.73zm38-321.91c-.26-5-5.42-9.12-11-8.84-3.67.19-9.29 7.06-9.1 11.14.16 3.37 6.86 7.21 12 6.87 3.23-.21 8.31-5.94 8.17-9.17zm-124.06 129c0-4.75-5.42-8.65-12.35-8.9-3.06-.11-7.14 4.57-7.2 8.25-.08 4.82 5.61 10.05 11 10.14 3.75.12 8.6-5.28 8.59-9.44zm193.17 30.06c0 5.12 4.31 8.68 10.82 8.84 4 .09 8.22-4.65 8.13-9.16-.08-3.91-4.91-6.69-11.77-6.76-5.36-.02-7.09 1.68-7.14 7.13zm-23.33 165.78c3.45.09 8.17-4.34 8.34-7.84s-5.64-8.11-10.32-8c-2.08 0-7.23 5.58-7.48 8-.31 3.55 4.8 7.75 9.5 7.89z" class="cls-2" transform="translate(-9.94 -14.39)"/><path d="M860.16 336.48c6.64 13 13.68 25.78 19.79 39q7.8 16.86 15.92 33.56c6 12.36 12 24.72 18.24 37 7.55 14.89 14.7 30 22.16 44.91 5.91 11.81 12.05 23.5 18 35.26s12 23.76 18 35.65c6.57 13 13.7 25.86 19.39 39.27 2.29 5.4 7.69 9.61 6.89 16.68-.13 1.17 3.62 4.47 5 7.25 10.22 21.1 20.91 42 30.61 63.32 3.57 7.86 7.94 15.35 12 23q7.89 16.1 15.76 32.2a64.25 64.25 0 014.79 11.82l-10.54-9c-.4-1.2-1.6-1.61-2.37-2.43-4.36-4.71-10.65-7.53-13.76-13.43-6.15-11.65-12-23.46-18.24-35.07-1.07-2 1.62-4.34-.62-5.47-5.5-2.77-5.68-9-9-13.09-2.8-3.53-3.36-6.95.17-10.35.35-.19.94-.28.58-.85-.06-.1-.74.19-1.13.3-3.4 1.14-5.74 0-7.29-3.19-1.3-2.67-3-5.19-4-8-2.93-7.61-7-14.62-11.07-21.62-3.91-6.83-6-14.38-10.28-21.16-5.43-8.65-9.79-18.07-14.45-27.23-12.3-24.18-24.07-48.64-36.33-72.85-1.14-2.25-1.08-4.74-1.92-7-1.56-4.16-5.15-6.38-6.76-10.09-3.29-7.63-7.44-14.81-11.28-22.16-11.57-22.14-22.74-44.49-34.36-66.6-2.7-5.14-4.69-10.66-7.62-15.54-9.11-15.19-16-31.46-24.19-47.1-1.38-2.65-3.5-5.32-2.09-8.76.34-.82.15-1.6-1.13-1.56-2.24.06-2.45-2-3.1-3.37-1.69-3.54-3.15-7.19-4.86-11.18a39.69 39.69 0 00-3.49 3.31c-5.13 6.28-10.35 12.34-17 17.18-6.92 5-14.24 9.56-20.79 14.95-14.25 11.73-30.07 21.05-45.51 30.93a151.46 151.46 0 01-36.58 17.1c-7.57 2.36-14.8 5.28-22.83 5.44-4.77.09-6.62 3.3-4.13 7.45 1.62 2.71 2.72 5.71 4.33 8.35 13 21.22 23.42 43.82 36.28 65.09 3.5 5.78 5.5 12.44 8.52 18.18 2.39 4.56 5.48 9.35 8.16 14.07 12 21.08 19.91 44 30 65.94 4.82 10.5 9.46 21.07 15.09 31.18 2.08 3.74 3.54 5.23 8 2.31 9.83-6.36 19.85-12.45 29.67-18.83 10.15-6.6 19.68-14 29.44-21.15 9.59-7 18.94-15.46 32.69-9.8 5.72 2.36 12.22 9 10.92 13.69-2.11 7.6-.27 15.74-4.11 22.89 6.23 1.48 12.29.75 17.55 3.44s11.15 4.48 11.28 12.23c0 2.6-1.21 4.58-1.52 7-.91 7.24-1.59 14.68-4.73 21.42-1.62 3.49-.64 5.1 2.82 5.28 6.23.32 11.43 3.14 16.44 6.39 2.78 1.8 4.79 4.73 4.37 7.9-.71 5.37-.54 11-3 16-1.87 3.88-1.27 5.48 3.42 5.89s7.66 3.44 9 8.37c1.66 6 .31 11.62-1.57 17-4.19 12-12.05 21.92-20.37 31.31a177 177 0 01-44 36.47c-4.27 2.46-4.43 5.21-1.56 9.06a110.18 110.18 0 0111.92 21.19c5.34 12 9.17 24.61 15 36.43 2.67 5.44 1.79 6.36-4.47 5.82-1.71-2.41-3.27-4.93-4.86-7.42-1.74-2.72-2.23-6.4-4.24-8.35-7.39-7.16-12.19-15.94-16.79-24.84-3.29-6.37-7.36-12.35-9.71-19.24-.88-2.59-4.17-3.44-5.87-1.91-3.91 3.54-8.73 5.43-12.86 8.31-5.47 3.8-11.91 1.46-17.18 4.51-4.09 2.36-8.82 2.86-13.28 3.13-5.29.33-10.41 2.43-16.12.29-3.74-1.41-8.72-.89-12.77.19-7.81 2.1-11.3 1.74-16.28-3.85a1.75 1.75 0 00-2.13-.67c-.94.38-.16 1 0 1.54 1 4.48-2.24 4.11-4.26 3-5.38-3-12.18-.23-17.08-4.58-5.19 2.88-5.06-1.46-5.91-5.55-.7 4.17-2.92 4-5 3.26-1.72-.64-4.15-2.4-5-2.16-6.43 1.85-11.85-1.48-17.47-3-9.49-2.63-18.92-5.87-28.75-6.34-10.76-.52-21.12-3-31.6-4.89-15.79-2.87-31.41-6.76-47.28-9.06-15.41-2.25-30.41-6.26-45.69-9-11.26-2-22.17-5.7-33.54-7.23-6.21-3.69-13.38-3.86-20.15-5.39a257.32 257.32 0 00-32.9-5.42 29.56 29.56 0 00-11.05-1.93c-15.31-2.73-30.51-6-46.4-10.08 2.62 6.36.94 11.77-.65 17.33-4 13.85-16.23 16.18-26.76 10a45.53 45.53 0 01-14.24-13.41c-3.23-2.45-4-6.59-6.45-9.63a78.31 78.31 0 00-1.54 10.93c-.44 9.47-6.9 14.26-16.2 15.4-5 .61-8.47-1.67-12.6-2.75l-1.09-1a3 3 0 00-2.09-1.79c-8.15-5.56-13.41-13.72-19.82-22.33.17 7.12-1 12.94-4.85 18-1.43 1.87-3.21 3.44-5.22 2.86-2.57-.74 1.62-3.07-1.32-5-.33.59-.84 1.45-1.3 2.34-1.92 3.63-4.71 4.43-8.19 2-6.83-4.73-13.38-9.77-18.11-16.8a59.57 59.57 0 00-4.47-5.23c-1.9 3.69-1.4 7.85-4.4 10.85a8.6 8.6 0 01-3.46 2.43c-8 2.44-14.72 0-20.62-5.62-9.32-9-17.35-18.84-22.08-31-.65-1.67-1.77-1.62-3.11-1.75A489.43 489.43 0 01152 706.18c-1.48-.35-4.25 0-4.26-3a.88.88 0 00-1.44-.63c-4.71 3.24-8.64-.79-12.89-1.54-1.61-.29-2.38-2.31-2-4.37.56-3.11 2.23-5.74 3.34-8.6.46-1.22 1.72-2.23 2.7-1.58 3.27 2.19 8-1 10.77 3.39 1.53 2.46 1.77-1.7 3.58-1.36 6 1.11 12 1.87 18 2.76 14.17 3.37 28.66 5.27 43.09 9.95a381.29 381.29 0 01-6-47.78l-.1-13c.38-6.11.87-12.22 1.11-18.33a63.61 63.61 0 014.1-20.19c2.13-5.64 6.22-10.28 8.05-16.06 7.82-9.28 15.66-18.55 22.79-28.39.41.8.6 2 1.92 1.4.3-.14.62-1 .48-1.21a1.47 1.47 0 00-2.47-.07c2.75-3 5-6.56 9-8.19 1.61-.65-.1-1.87.48-2.94s-.9-.9-1.57-.93c-6.24-.33-12.47-.62-18.7-.92-13.07-2.33-26.34-3.49-39.22-7-9.51-2.56-19.1-4.85-28.66-7.26l-13.1-3.89c-3.21-1.27-6.31-2.64-5-7.08.45-1.49 1.32-3.05 3.07-1.84 3.55 2.47 8.44-2.23 11.38 2.26.48.74-1.17 2 .09 3.29 5.6-7.09 13.32-3.84 20-3.24 6.94.63 13.91 1 20.86 1.6a445.52 445.52 0 0146.72 6.65c4.49.88 9.08 1.1 13.6 2.16 3.41.79 4-3.23 5.23-5.54 1-1.86 1.12-4 3.95-4.39 1-.14 3.19-.86 1.58-3.38-.49-.78 1.11-3.28 2.2-4.63 7.52-9.3 13.94-19.42 21.33-28.8 3.32-4.22 5.77-9.09 9.57-12.86 5.17-5.13 7.81-12.06 12.83-17.29 1.55-1.61 1.8-4.65 5.13-4 .25.05.91-.62.91-.95-.05-8 7.1-11.72 10.77-17.45a235.5 235.5 0 0118.31-24.42c9-10.68 16.27-22.6 25-33.47 8.87-11 17.1-22.58 25.32-34.11 13.6-19.09 27.68-37.81 42.69-55.8 5.07-6.08 9-12.94 14.09-19 5.43-6.42 10.46-13.17 15.74-19.71s10.94-12.94 16-19.71c2.42-3.23 5.35-4.4 9.27-4.23-.88-2.86-2.6-.63-3.86-1.05.11-.65.08-1.39.28-1.46 3.62-1.31 4.18-6.39 8.67-6.88 1.06-.11 1.48-2.23-.36-3.43-4.58-3-5-7-3.17-11.93 3.86-10.46 11.62-17.43 20.2-23.84 5.93-4.43 12.71-6.89 19.63-9.1 1.18-.37 2.9-.39 1.64-2.38-4.66-7.31-2.67-14.35 1.77-20.6s10-11.53 18.64-12.18a15.17 15.17 0 008-3.68c2.56-2.16.48-5.37.39-8.13 2.32-2.85 2.13-6.7 4.28-9.78 5.43-7.73 13.89-10.08 22-12.79 3.35-1.11 6.75-2.61 10.61-2.66 2.72 0 2-3.44 2.12-5.34a30 30 0 012.89-11.77c3.06-6.07 7.71-9.68 14.52-10.66 3.27-.47 6-1.63 7.37-5.43 2.35-6.58 8.7-9.78 13.59-14.09 6.69-5.91 14-11.1 20.89-16.8 2.58-2.13 5.7-3.41 8.09-5.89 1.28-1.34 3.48-3.12 5.51-.62 1.48 1.83 4.28 3.31 1.37 6.48-.76.83-2.55 1.69-2.27 3.47a21.33 21.33 0 00-2.62 2.18c-5.5 6.3-11 12.64-16.42 19-3.52 2.55-4.79 6.84-7.64 10-1.41 1.55 1.2 2.1 2.09 2.42 9.67 3.44 17.6 9.77 25.5 15.91 9.65 7.5 18.65 15.85 27.93 23.83 0 2.28 1.56 3.56 3 4.92 3.5 3.25 7.35 6.22 10.45 9.82 6.17 7.15 12 14.64 17.85 22 4.41 5.52 8.77 11.1 13.15 16.65.87 1.1 1.61 3.05 3.29 1 3.53-4.26 8.74-6.53 12.41-10.6 5.19-4.42 10.55-8.67 15.51-13.34 2.74-2.59 7.91-2.71 8.15-7.85 1.69.15 2.64-1 3.78-2q12.1-10.14 24.3-20.21c.59-.58 1.14-1.59 1.78-1.65 2.63-.27 5.2-4.33 8-.15 2.66 4-1.31 6-3 7.95-6.54 7.82-13.71 15.1-20.39 22.81-1.11 1.27-3.2 2-3.23 4.13-7.31 6.73-13.16 14.78-19.82 22.11-2 2.24-5.47 4.18-6.29 6.06a23.76 23.76 0 01-6.18 8.62c-3.09 2.69-3.47 4.24-.82 8.16a646.71 646.71 0 0142.32 72.38c7.69 16.54 14.72 33.35 20.79 50.56.25.73 0 1.58 1.1 2 4.36 1.6 5.92 5.9 8.55 9.16 5.02 6.29 7.02 14.4 12.18 20.65zM531.5 756.2c-3 .27-5.07 1.29-3.9 5.31 1.7-1.55 3.85-2.29 4.67-4.57.34-.84 2-.14 1.81-1.51a1.55 1.55 0 00-1-.92c-1.48-.38-1.4.8-1.58 1.69zm91.09-455.54l-.06.65.57-.13-.62-.44-.92-1.1a72.93 72.93 0 018.29-10.79c.73-.8 2.22-1.75 1.11-2.85-3.42-3.43-3.12-8.56-5.89-12.25-1.9-3.37-2.81-7.11-5.13-10.46a120.23 120.23 0 00-10.69-12.87c-8.11-8.79-16.22-17.69-29.56-19-6.74-.64-13.4-2.85-19.94-4.86-13.82-4.25-28.73-4.8-41.59-12.23a1.44 1.44 0 00-2.31.86c-1.43 4.23-4.6 7.47-6.35 11.51-5.51 8.32-11.9 16-16.9 24.73-5.9 7-11.61 14.15-16 22.27a8.09 8.09 0 00-3.11 3.06c-6.2 8.7-13.28 16.75-19 25.83-3.81 4.31-5.82 10.77-13.06 11-.71 1.43-2.21 4-2 4.13 4.05 2.8 0 4-1.05 5.68-3.25 5.05-7.84 9.15-10.55 14.6-.44.16-1.12.18-1.3.49-4.11 7.16-10.19 12.61-15.89 18.39-.3.3-.91.69-1.19.58-2.58-1-2.06.29-1 1.47s.15 2.58.89 3.68c-3.49.53-4.44 3.78-6.14 6-4.62 6.14-10.57 11.34-13.55 18.68a119.17 119.17 0 00-17 21.22c-7.14 7.36-12.84 15.86-19 24l-17.11 22c-.69.91-1.37 1.82-2.06 2.72-5.07 6.62-10.78 12.77-14.88 20.11-7.41 5.55-9.66 16-18.82 19.86 1.23 3.62-2.81 5.23-3.14 8.26-6.63 5.85-11.1 13.48-16.69 20.19-1.76 2.11-1.49 3.19 1.53 3.94 16.38 4.07 32.22 10.08 48.71 13.78 16.2 3.64 32.5 6.83 49 8.86 4.21.52 8.28.32 10.84 5.56a6.45 6.45 0 016.36-4.71c9.48-.51 18.95-1.48 28.47-.75 3.91.29 6.5 0 9-4.47 3.88-6.88 6.81-14.36 11.66-20.66a33.06 33.06 0 005.16-9.56c3.17-2.35 4.55-6.05 6.8-9.09 2.58-3.43 5.22-6.81 7.73-10.28 5.33-7.35 11.19-14.33 15.47-22.39a82.48 82.48 0 0013.1-16.38c1.8-.39 3.69-.31 3.87-3.13.15-2.28 2.12-3.88 3.46-5.72 3.73-5.11 8.43-9.49 11.41-15.16 3.85-1.31 3.81-6.39 8.2-7.79 2.79-.9 3.11-5.43 4.85-8.16 6.94-6.14 12.29-13.59 17.11-21.39 1.45-2.36 4.56-3.34 4.89-6.45l11.93-15c2.85-4.37 5.53-8.84 8.82-12.95 1.6-2 4.44-3.57 4.24-6.8 6.29-4.79 10.68-11.34 15.86-17.16 6.12-7 12.12-14.12 17.1-22 2.93-3.61 5.52-7.59 8.9-10.72 2.32-2.18 2.58-6.79 7.17-6.41zm-61 279.62c6.54 2.08 13 4.43 19.66 6.07 1.69.42 2.22 2.13 3.18 2.09 9.3-.43 11.64 0 17.29 4a1.53 1.53 0 00.55.2c2.59-5.1 6.65-1.12 9.26-.72 18 2.78 35.33 8.67 53.39 11.17 5.6.77 11 3.58 16.42 3.4 7.07-.24 13.68 2 20.72 1.92a68 68 0 0019.73-3.41c11.81-3.63 17-14.32 22.79-24.12.53-.91.18-1.34-.19-2.1-6.18-12.82-11.31-26.15-18.8-38.33-3.7-9.67-9.41-18.34-14-27.55-5.45-10.87-11.31-21.64-17.87-32-4.77-7.54-8.26-15.9-12.31-23.89-1.77-6.31-4.69-12.14-7.54-18-7-14.45-10.87-30.24-19.06-44.22-3.4-5.79-6.63-11.77-8.57-18.32-1-3.23-8.68-6.87-11.74-5.4a73 73 0 01-24.56 7.21c-6.78.65-13.5 2.66-20.37-1.71-6.29-4-6.93-3.29-11 2.91-8.33 12.68-18 24.32-27.62 36-10.11 12.35-20.59 24.41-30.28 37.11C509 467.88 497.9 483.38 486.89 499c-8.89 12.7-19.18 24.5-26.99 38-3.41 5.87-9.75 10.34-9.44 18.35.06 1.59-.44 1.85 1.39 2.26 4.32 1 8.72 1.51 13.06 2.3 6.43 1.17 12.69 3.39 19.32 3.47 1.82 1.6 4.18 1.66 6.37 2.1 14.1 2.8 28.22 5.49 42.2 8.9 9.5 2.27 19.2 3.94 28.75 5.9zm61.79 28.27a19.52 19.52 0 00-3.25-1c-11-1.49-21.82-3.41-32.67-5.69-13.46-2.86-26.77-6.12-40.18-8.86-4.27-.87-8.61-2.54-13.17-1.76-3.71-1.19-7.46-2.29-11.14-3.57-6.71-2.34-14.34-1.45-20.44-5.88-10.36 1.48-19.52-3.74-29.34-5.1-5.9-.82-11.4-3.56-17.47-3.23-4.56-2.44-10.14-1.67-14.55-4.75-1.2-.84-1.9.82-2.43 1.81-3.48 6.62-7.11 13.18-10.39 19.91-3.69 7.58-8.22 14.8-10.6 23-1.12 2.88-2.26 5.75-3.35 8.65a113.43 113.43 0 00-6.56 25.85c-1.89 15.08-1.35 30.33-.09 45.51l3 18.85a43.13 43.13 0 01.92 4.32c.86 7.71.84 7.7 8.69 8.84 1 .14 1.87.63 2.82.86 5.22 1.3 10.44 2.57 15.66 3.86.39.3.75.81 1.18.88 11.54 1.78 23.11 3.32 34.61 5.32 12.93 2.26 26 3.63 38.7 7.37a264.68 264.68 0 0033.33 7.92c8 2.74 16.35 3.55 24.49 5.52 4.77 1.15 9.33 3.55 14.45 3.12.19.25.33.68.56.74q24.3 5.49 48.61 10.92l44 10.5c1.21.29 2.41 1.5 3.52 0 .44-.61 1-1.45.11-2.16-2.51-1.89-.57-6.63-4.79-7.46a1.59 1.59 0 01-.84-1.16c-.42-4-2.26-7.32-4.16-10.83-4.08-7.55-4.61-16.16-6.07-24.47.13-3.3 1.43-7.17.17-9.8-3-6.37-2.22-12.6-1.39-19 .11.61-.32 1.84.8 1.46.74-.25.37-1.34-.28-1.93-.52-3.92-1.09-7.74-.41-11.8 1.59-9.54 2.68-19.16 4-28.74 2.42-15.25 4.13-30.67 9.74-45.19 1.69-4.38.24-5.12-3.69-4.93a48.34 48.34 0 01-10.42-.21c-13.98-2.46-27.84-5.13-41.72-7.69zM258.83 739.26c.62 0 1.69-.59 1.14-.87-2.71-1.43-2.24-3.64-1.78-5.84.56-2.66-.11-5.21-.36-7.82-1.46-14.9-4.22-29.6-6.61-44.37-1.22-7.54-3.72-15.27-1.36-23.11.32-1.06-.24-1.72-.49-2.6-1.28-4.47 1.43-8.74 5-8.26 6.67.9 8.13 3 6.77 9.72a17.36 17.36 0 00-.35 3.94 142 142 0 003.45 26c2.06 9.43 3.48 19.09 5.45 28.61.84 4 .11 8.77 2 12.09 4.92 8.62 9.89 17.35 16.83 24.63 3.47 3.63 8.15 2.41 10-2.12 3.89-9.55 1.4-19.94 4.16-29.61.1-.38 0-1.11-.74-.77-2.57 1.18-1.91-1.39-2-2.09-1.2-6.3-2.14-12.64-3.21-19-1-5.68-1-11.78-3.22-16.9-3-6.77-1.47-14-3.63-20.65a2.57 2.57 0 011.61-3.26c.75-.25.95-.3.62-1.21-1.71-4.69.56-8.5 3-12.23.31-.47 1.84-.35 1.36-.94-3.44-4.09 1.18-6.25 2-9.3.29-1.08-.48-3.47 1.38-2.56 1.32.63 3.42-.35 4.23 2 .6 1.71 1.53 3.32 1.64 5.16a33 33 0 01-1.17 12.25c-3.39 10.79-2.89 20-2.49 30.11.22 5.72 2.4 10.58 3.79 15.55a142.68 142.68 0 006.4 18.5c.67 1.56 4 5.77-1.44 7-.06-.95 0-2.15-1.46-1.8-.54.13-.95.82-1.42 1.25l2.43 1.2c1.43.67 3.48.94 4.18 2.06 3.23 5.23 6.28 10.59 9 16.09 3.63 7.27 8.05 13.94 14.73 18.63 4.44 3.12 9 1.52 13.22-1.28 3-2 0-4.07.23-6.09a8.12 8.12 0 010-1.49c2-6.28.78-12.88 1.94-19.25.52-2.84 1.18-5.48.37-8.66-1.25-4.82-3.54-9.13-5.21-13.71-4.23-11.57-6.64-23.64-9.93-35.46-1.79-6.41-3-13.24-1.83-20 .74-4.37 1.91-8.75 1.56-13.16-.43-5.46 4-6.65 7.12-9 .59-.45 1.49 0 1.85 1 2.26 6.45 3.38 12.86 1.13 19.64-3.77 11.35-3.09 23.06.53 34 4.93 14.95 9 30.27 18.08 43.73 7.22 10.67 14.3 21.11 25.06 28.49 2.51 1.72 4.9 2.72 8.13.66 7.93-5.07 8.33-13.58 7.62-20.75-1.27-12.77-5.72-25.12-8-37.86-1.74-9.89-2.33-19.88-3.22-29.8-.78-8.68 0-17.58.53-26.39a130.56 130.56 0 012.73-19c2.64-12.66 8.13-24.34 13.43-36 2.66-5.86 4-12.4 8.48-17.31 2.64-2.85 1.46-3-1.59-3-9.13 0-18.26-.23-27.38-.59-4-.16-8.77.36-11.66-1.64-4.59-3.18-9.46-1-14-2.7-6.6-2.54-14.18-1.13-20.71-4.47.36-.15 1-.15.65-.75-.09-.16-.8 0-1.23.07-1.75.85-3.16-1.06-4.22-1-7.13.57-13.43-2.71-20.15-3.83-5.83-1-10.21-5.7-16.18-6.09-8.69-.55-16.1-5.22-24.32-7.23-3.61-.88-6.92-4-10.66 1.23-9 12.58-18.93 24.55-28.11 37.07-10.83 14.76-20.12 29.88-20.88 49-.72 18.23-1.7 36.33.86 54.58 1.69 12 3 23.83 8 35.07 4.42 9.8 8.47 19.71 15.63 28 2.83 3.26 8.5 3 10-.94.57-1.43 2.27-2.21 2-4a5.21 5.21 0 00.69-.57zm579.42-37.07l.07.08a106.33 106.33 0 0118.22-18.13c10.8-8.42 21.55-16.83 33.3-23.9 8.65-5.21 8.61-5.27 13.47-14.92.29-.59.86-1.06 1.05-1.66 1.16-3.71 3-7.23 2.93-11.28 0-1.67-.36-2.58-2.33-3.08-10-2.51-19.64-3.39-29 2.71-7.26 4.72-15.06 8.6-21.93 13.94s-14.64 8.77-20.7 14.86c-2.07 2.08-5 2.22-7.35 4-3.4 2.59-6.57 6-11.29 6.75a22.65 22.65 0 00-8.58 2.91c-2.8 1.69-4.21-.75-5.72-2.61-1.86-2.28-.37-3.55 1.32-4.76q8-5.77 16.12-11.51c6.86-4.88 14.66-8.85 20.36-14.82 8-8.42 18.08-14.11 26.36-22 4.57-4.38 11.55-6.19 13.92-12.93 1-2.93 1.88-5.93 2.91-8.86 1-2.73 2.92-6.64.92-8.07-2.3-1.65-5.79.84-8.42 2.55-.13.09-.23.24-.37.33-16.8 11.87-33.65 23.56-51.65 33.7-14.18 8-28.23 15.3-44.64 16.85-3.58.34-7 .27-10.36-1.93-2.93-1.93.17-3.93-.77-5.7a17.75 17.75 0 01-.72-1.8c7.53-.94 6.84-1.85 3.87-6.72-7.09-11.6-12.29-24.19-19.51-35.78-.72 1.87-.15 3.83-.88 5.73-6.05 15.8-15.79 27.52-33.52 30.13-8.76 1.29-17.61 1.77-26-1.88-2-.84-1.67.4-1.9 1.47-1.62 7.37-3.71 14.68-4.8 22.12-1.62 11-3 22-4.3 33.1-1.88 16-.06 31.6 2 47.32 1.85 14.52 7.08 28 12.51 41.42 2.44 6 6.42 11.22 9.08 17.12.22.5 1.34 1.14 1.58 1 3.82-2.39 5 1.44 7 3a19.58 19.58 0 006.36 3.48c9.25 3 18.91 3.2 28.36 4.57 10.42 1.51 20.83 3.22 31.48 3.24 9.61 0 19.24.34 28.85 0 2.91-.1 4.55.94 5.22 3.46 2.35-.47 1.09-3 1.58-3 4 .38 7.53-1.41 11.26-2.34 8.37-2.09 16.76-3.94 24.07-9 .53-.36 2.8-4.65 4 .05.17.63.61-.13.7-.5 1.08-4.57 5.74-5.51 8.74-7.75 10.53-7.9 21.76-14.83 32.24-22.87 17-13 32.32-27.53 44.1-45.51 1.2-1.83 2.07-4.31 1.37-6.42-.56-1.69-3-2.16-4.65-2-8.2.56-16.15 1.62-21 9.82-1.27 2.17-3.65 3.8-5.76 5.37-13.47 10-28.31 17.69-43.39 24.94-.72.34-1.47 1-1.76-.42-1.8 1.18-5.56-3.46-6.13 2.14-.07.7-3.33 1.9-5 .75-1-.7-2-1.82-.4-3.9 3.23-4.26 7.65-6.9 11.75-9.83 8-5.73 17.32-9.4 25-15.83 5.75-4.81 12.74-8.23 18.14-13.36 7.6-7.22 14.88-14.86 20.67-23.77a7.9 7.9 0 00-5.2-12.13c-5.45-.86-11.31.18-16.28-3.06-1.4-.91-1.6.42-2.36.82-6.94 3.62-12.09 9.61-18.74 13.79-10.78 6.77-19.11 17.59-33 19.07-3.59 5.25-7.99 3.67-12.47 1.44zM685.51 134.81c-4.25-.24-7.9 2.72-12.88.63-4.14-1.75-6.85-5.44-11.21-6.5-1.4-.34-1.61-1.47-.23-2.54s2.48-2.2 4.29-3.84c-3 .84-6.27-1.07-7.13 3-.41 2-1.71.53-2.12.22a118.4 118.4 0 00-19.47-12c0-1.6 2.58 0 1.93-2.15s-1.43-.72-2.35-.26a4.48 4.48 0 01-4.65-.4 67 67 0 00-20.85-8.42c-5.34-1.23-10.29-3.35-15.86 1.82-3.58 3.32-3.4 7.63-6.16 10.81-.93 1.06.71 2.74 2.06 3.91 6.31 5.45 12.43 10.41 21 13 15 4.47 28.81 12 42.41 19.78 4.39 2.51 9.38 4.92 11.52 9.46 1.38 2.91 6.35 3 5.14 7.3h1c4.18.36 4.61 1 3.53 5.19l.11-.08c-6.89-1-11.67-6.32-18-8.73-8.91-3.39-17.33-8.05-25.93-12.23-11.66-5.67-24.49-7.71-36.68-11.76-2-.67-4-.48-2.8-3.5.12-.29-1-1.49-1.58-1.57-1.17-.16-1 1-1.05 1.78-.13 1.73-.52 2-2.46 1.46a109.6 109.6 0 00-15.4-3.18c-2.6-.33-5.82-1.41-8 1.26s-4 5.84-6.14 8.61c-2 2.51-.88 4.14.78 6.29 6.52 8.48 15.87 13 25 17.45 14.54 7 28.55 15 42.29 23.37 3.62 2.22 8 4.2 10.35 8 2.18 3.47 5.07 6.26 7.53 9.43.8 1 2 2 1.6 3.38-.49 1.7-2.25 1-3.46 1.23a4 4 0 01-4.18-1.84c-1.75-2.55-4.42-4.16-6.25-6.86-1.49-2.22-5.7-3.63-8.63-5.59-15.28-10.2-30.73-19.91-49.32-23.38-7-1.3-14-1.74-20.54-.17-4.46 1.06-8.91 3.7-13.37 5.64-7.4 3.22-13.38 8-16.85 15.51-1.55 3.36-2.33 6.3 2.87 6.86 11.58 1.24 22.69 4.91 34.19 6.61 12.5 1.84 23.38 7.95 34.68 13.12 20.29 9.27 34.66 24.16 44.19 44 2 4.18 4.15 8.34 6 12.57s2.58 9.71-1.92 11.9a5.83 5.83 0 00-2.88 2.27c-11.48 18.49-23.5 36.61-37.18 53.58-3.2 4-6.43 7.94-10.47 12.92 7-1.9 12.64-3.55 18.35-5 10-2.49 20-4.1 30.24-1 4.66 1.42 8 5.38 12.8 6.3a14.14 14.14 0 0110 7.47c3.67 6.57 7.31 13.16 10.59 19.92 1 2.14 1.19 2.92 4 2 9.07-3 17.55-7.25 26.28-11 16.34-7 31.2-16.34 45.68-26.41 12.75-8.86 25.23-18.07 37.77-27.21 8.92-6.49 17.67-13 25.3-21 1.59-1.66 2-4.55 4.27-5.27 3.68-1.16 2.84-3.88 1.8-5.71-5-8.75-8.55-18.14-12.75-27.24-3.35-7.28-10-13.29-9.11-22.33 0-.29-.67-1-.84-.91-4.29 1.49-4.22-2.82-5-4.49-3.69-8.3-9-15.71-13.73-23.26-5.24-8.42-10.63-17.03-16.53-25.27-8.75-12.34-17.91-24.37-26.59-36.74a87.54 87.54 0 00-7-8.43c-9.65-10.67-18.58-22-28.76-32.21-7.05-7.1-14.77-13.47-21.77-20.65a64.83 64.83 0 00-18-12.8c-6-2.87-11.6-6.43-17.9-8.73-3.9-1.43-8.7.22-11.91-4.37-.38 2.26.31 3.74-.75 5.25-3.33 4.77-4.11 10.41-5.27 16-.51 2.48 0 2.42 1.93 3 11.26 3.68 21.43 9.48 31.26 16 10.05 6.69 18.41 15.29 27.46 23.1 1.37 1.18.74 2.64 1.65 3.67zm145.38 671.35l.33-.29-.29-.32c-.11.14-.22.29-.34.43z" class="cls-3" transform="translate(-9.94 -14.39)"/><path d="M462.58 751.46a29.64 29.64 0 0111.06 1.93c1.62 1.25 3.56 1.53 5.5 1.93 6.93 1.42 13.86 2.81 20.77 4.31 8.82 1.91 17.69 4 26.77 4.57 11.37 1.53 22.28 5.18 33.54 7.23 15.28 2.78 30.28 6.79 45.69 9 15.87 2.3 31.49 6.19 47.28 9.06 10.48 1.9 20.84 4.37 31.6 4.89 9.83.47 19.26 3.71 28.75 6.34 5.62 1.56 11 4.89 17.47 3 .81-.24 3.24 1.52 5 2.16 2.06.78 4.28.91 5-3.26.85 4.09.72 8.43 5.91 5.55 4.9 4.35 11.7 1.61 17.08 4.58 2 1.11 5.31 1.48 4.26-3-.12-.53-.9-1.16 0-1.54a1.75 1.75 0 012.13.67c5 5.59 8.47 5.95 16.28 3.85 4.05-1.08 9-1.6 12.77-.19 5.71 2.14 10.83 0 16.12-.29 4.46-.27 9.19-.77 13.28-3.13 5.27-3.05 11.71-.71 17.18-4.51 4.13-2.88 9-4.77 12.86-8.31 1.7-1.53 5-.68 5.87 1.91 2.35 6.89 6.42 12.87 9.71 19.24 4.6 8.9 9.4 17.68 16.79 24.84 2 2 2.5 5.63 4.24 8.35 1.59 2.49 3.15 5 4.86 7.43l1 4c-4.06 2.77-4.4 7.78-6.8 11.58-8.11 12.85-16.11 25.84-22.89 39.41-6.17 12.36-13.58 23.94-20.55 35.78a104.24 104.24 0 01-8.65 13.16c-9 10.9-17 22.59-27.76 32-7.73 6.83-15.49 13.62-24.52 18.58a124.64 124.64 0 01-28.36 11.71c-7.31 1.92-14.58 4.15-21.94 6-10.54 2.65-21.13 4.57-32.14 4.39-6.25-.11-12.55-.82-18.86.12-2 .29-4.2-1.68-6.31-1.7-7.92-.06-15.6-1.55-23.37-2.85-5.27-.88-10.09-3.24-15.54-3.47-8.08-.33-15.67-3-23.35-5.53-5.24-1.75-10.58-3.37-15.88-5-29.63-9.28-56.38-23.8-81.53-42-16.43-11.88-31.5-25.19-46.26-38.89a488.18 488.18 0 01-43.3-46.5c-7.51-9.08-15.93-17.51-22.19-27.72-1.84-3-5.13-5.35-6.7-8.84 4.91-9.89 10.94-19.15 16.28-28.78 8-14.42 16.61-28.46 24.78-42.77 5.61-9.75 11.37-19.52 17.07-29.29zm425.66 113.66c-1.14.3-2.68-.52-3.53 1.41 1.73.7 3.14 1.19 3.66-1.27.9-.15 2 .22 2.45-1 .06-.2-.47-.83-.8-.9-1.32-.23-1.61.74-1.78 1.76zm-166.58 30.57c.4-2.46-1.07-6.61-2.31-10.69-4.1-13.54-11.87-23.8-25.12-30.15-7.19-3.43-14.74-5.3-22.12-7.7-17.53-5.72-34.53-3.13-49.75 7-9.43 6.28-16.69 15.13-23.23 24.5-8.64 12.39-10.68 26.05-8.54 40.53.84 5.69 4.66 10.16 7.27 15.13 3.86 7.33 9.78 11.5 16.13 15.43a81.44 81.44 0 0045.77 12.46c6.66-.16 12.44-3 18.51-4.7 10.52-2.92 18.15-10.49 25.58-18.47 11.03-11.81 16.81-25.41 17.81-43.34zm124.71-10.25c-3.93-.78-6.36-5.9-3.49-8 5.27-3.93 1.75-5.5-1.45-6.94-1.78-.8-2.26-2.22-3.27-3.46-1.91-2.35-4.72-4.58-7.36-4.37-2.43.2-4.23 3.11-4.83 6.14-.71 3.55-3.24 4.8-6.67 3.85-2.55-.71-4.81 1-7.31.56-1.81-.33.74 2.12-1.35 2.19-1.11 0 0 1 .37 1 3.06.21 4 4.45 7.55 3.86a1.45 1.45 0 011.44 2.33c-1.35 2.07.63 4.91-2 6.75-1.31.92-.53 2.25 1.11 2.89 2.19.85 3.76 1.28 5.44-1.28 2-3.07 5.68-6.36 9-3.85 5 3.82 8.53 4.27 12.25-1 .2-.22.37-.43.57-.67zM552 912.59c-2.82-1.35-4.23-5.37-7.08-4.13-3.66 1.59-4.89-.43-6.82-2.32-1.78-1.74-3.8-3.67-6.52-2.73-3 1-2.12 4-1.81 6.07.52 3.4-1.18 4.3-3.89 4.57a31.16 31.16 0 01-3.49.09c-2 0-3.89.68-4.34 2.62-.49 2.18 1.93 2.31 3.22 3.16a5.92 5.92 0 002.26 1c3.6.49 6 1.32 4.41 6-.9 2.6 1.69 4.21 3.91 4.92 2 .63 3.22-.11 3.54-2.72.26-2.14 2.36-2.39 4.27-1.36s4 2.23 6 3.34c1.67.91 3.54 1.69 5 0 1.77-2-.69-2.83-1.51-4-4.27-6.22-4.22-7.32.93-12.82.44-.39.92-.78 1.92-1.69zm-4-63.9c-.08-4-5.5-8.7-9.76-8.48-5.78.31-12.66 6.62-12.62 11.58 0 4.24 6.23 9.34 11.36 9.36 4.76.02 11.1-7.15 11.02-12.46zm165.41 117.54c0 5.38 6.76 11.19 12.58 10.83 7.4-.46 10.44-6.09 7.68-12.76-1.63-3.95-5.11-3.72-7.82-5.25-6.37-3.58-12.45-.05-12.44 7.18zm77-126c-.07-2.09-8.49-7.95-11.41-7.93-3.29 0-7.7 4.73-7.58 8.1.16 4.59 5.8 9.8 10.44 9.64 3.51-.04 8.66-5.99 8.55-9.77z" class="cls-2" transform="translate(-9.94 -14.39)"/><path d="M901.33 862.11c-.34-1.32-.67-2.64-1-4 6.26.53 7.14-.39 4.47-5.83-5.8-11.82-9.63-24.44-15-36.43a110.18 110.18 0 00-11.92-21.19c-2.87-3.85-2.71-6.6 1.56-9.06a177 177 0 0044-36.47c8.32-9.39 16.18-19.26 20.37-31.31 1.88-5.39 3.23-11 1.57-17-1.35-4.93-4.25-8-9-8.37s-5.29-2-3.42-5.89c2.44-5 2.27-10.63 3-16 .42-3.17-1.59-6.1-4.37-7.9-5-3.25-10.21-6.07-16.44-6.39-3.46-.18-4.44-1.79-2.82-5.28 3.14-6.74 3.82-14.18 4.73-21.42.31-2.38 1.56-4.36 1.52-7-.13-7.75-6.14-9.6-11.28-12.23s-11.32-2-17.55-3.44c3.84-7.15 2-15.29 4.11-22.89 1.3-4.67-5.2-11.33-10.92-13.69-13.75-5.66-23.1 2.8-32.69 9.8-9.76 7.13-19.29 14.55-29.44 21.15-9.82 6.38-19.84 12.47-29.67 18.83-4.51 2.92-6 1.43-8-2.31-5.63-10.11-10.27-20.68-15.09-31.18-10.08-21.94-18-44.86-30-65.94-2.68-4.72-5.77-9.51-8.16-14.07-3-5.74-5-12.4-8.52-18.18-12.86-21.27-23.32-43.87-36.28-65.09-1.61-2.64-2.71-5.64-4.33-8.35-2.49-4.15-.64-7.36 4.13-7.45 8-.16 15.26-3.08 22.83-5.44a151.46 151.46 0 0036.58-17.1c15.44-9.88 31.26-19.2 45.51-30.93 6.55-5.39 13.87-9.94 20.79-14.95 6.68-4.84 11.9-10.9 17-17.18a39.69 39.69 0 013.49-3.31c1.71 4 3.17 7.64 4.86 11.18.65 1.36.86 3.43 3.1 3.37 1.28 0 1.47.74 1.13 1.56-1.41 3.44.71 6.11 2.09 8.76 8.18 15.64 15.08 31.91 24.19 47.1 2.93 4.88 4.92 10.4 7.62 15.54 11.62 22.11 22.79 44.46 34.36 66.6 3.84 7.35 8 14.53 11.28 22.16 1.61 3.71 5.2 5.93 6.76 10.09.84 2.22.78 4.71 1.92 7 12.26 24.21 24 48.67 36.33 72.85 4.66 9.16 9 18.58 14.45 27.23 4.26 6.78 6.37 14.33 10.28 21.16 4 7 8.14 14 11.07 21.62 1.06 2.76 2.74 5.28 4 8 1.55 3.16 3.89 4.33 7.29 3.19.18.19.36.37.55.55-3.53 3.4-3 6.82-.17 10.35 3.28 4.14 3.46 10.32 9 13.09 2.24 1.13-.45 3.47.62 5.47 6.23 11.61 12.09 23.42 18.24 35.07 3.11 5.9 9.4 8.72 13.76 13.43.77.82 2 1.23 2.37 2.43-4 13.72-9.14 27-14.3 40.36-3.71 9.6-6 19.83-11.09 28.92-7.28 13.08-14.77 26.09-24.95 37.23a46.84 46.84 0 01-8.05 6.55c-16.66 11.57-35.54 17.29-55.41 19.24-7.73.77-15.59.73-23.33 2-3.7.6-9-2.88-9.67-6.52-.35-1.93-2.14-3-2.19-4.91 3.21-.36 5.25.34 4.24 4.28a2 2 0 001.88 2.45 3.23 3.23 0 002.33-.27c1.15-1 .18-2.1-.32-3.09-1.84-3.65-3.7-7.28-6.12-12 .36 4.12-2 4.65-4 5.59-2.08-.68-1.97-3.37-3.88-4.14z" class="cls-4" transform="translate(-9.94 -14.39)"/><path d="M860.16 336.48c-5.15-6.25-7.16-14.36-12.24-20.64-2.63-3.26-4.19-7.56-8.55-9.16-1.07-.39-.85-1.24-1.1-2-6.07-17.21-13.1-34-20.79-50.56 2.49-1.18 2.63-4 4.08-5.9 10.52-14 19.8-28.87 29.5-43.45 9.23-13.87 18.89-27.46 27.87-41.49 3-4.65 7.34-8.59 8.51-14.33 5.35-4.17 7.74-10.55 11.62-15.81 5.64-7.66 10.31-16 15.72-23.88 1.61-2.35 1.33-3-1-4.19-8-4.21-16.08-8.23-23.37-13.62-1-.77-3.74-1.41-2.91-2.2 1.72-1.64 1.09-4.21 3.33-5.59 21.25-13 43-25.19 64.86-37.09 10.23-5.57 20.49-11.21 31-16 5.71-2.62 10.46-6.89 16.57-8.66 3.4-1 6.58-2.69 9.91-3.91 1-.36 2-.48 2.15-1.67.41-2.78 2-2 3.61-1.25s4.46.15 4.24 3.5c-.59 9.17.12 18.38.51 27.48.5 11.75-.17 23.55 1.18 35.29a121.51 121.51 0 01.19 20.37c-.29 5.36-1.22 11.36-.28 16a59.87 59.87 0 01.7 15.85c-.5 7.83 2.23 16.26-2.36 23.82-.09.16.73 3 .22 4.86s-1.63 1.94-2.93 1.26c-10.58-5.53-21.19-11-31.65-16.76-2.2-1.2-3.15-1.52-4.61.94-3.45 5.86-7.29 11.48-11 17.2-9.89 14.8-19.82 29.58-29.66 44.41q-20.36 30.7-40.59 61.47c-9.76 14.88-19.33 29.89-29 44.8-4.57 6.95-9.89 13.43-13.73 20.91zM462.58 751.46c-5.7 9.77-11.46 19.51-17.07 29.33-8.17 14.31-16.78 28.35-24.78 42.77-5.34 9.63-11.37 18.89-16.28 28.78a297.17 297.17 0 00-27.85 50c-2.47 5.74-4.84 6.47-10 3.2-17.7-11.3-36.3-21-54.47-31.45-3.44-2-4.31-3.49-1.79-7.29 5.12-7.74 9.28-16.11 14.2-24 4.81-7.69 9.41-15.51 14.24-23.18 5.55-8.81 10.19-18.06 15-27.24 2.54-.27 1.33-2.65 2.18-3.9 7.16-10.52 12.32-22.17 18.51-33.23a45.53 45.53 0 0014.24 13.41c10.53 6.2 22.8 3.87 26.76-10 1.59-5.56 3.27-11 .65-17.33 15.95 4.15 31.15 7.4 46.46 10.13z" class="cls-5" transform="translate(-9.94 -14.39)"/><path d="M887.44 149c-1.17 5.74-5.53 9.68-8.51 14.33-9 14-18.64 27.62-27.87 41.49-9.7 14.58-19 29.44-29.5 43.45-1.45 1.92-1.59 4.72-4.08 5.9a646.71 646.71 0 00-42.32-72.38c-2.65-3.92-2.27-5.47.82-8.16a23.76 23.76 0 006.18-8.62c.82-1.88 4.25-3.82 6.29-6.06 6.66-7.33 12.51-15.38 19.82-22.11 12.28 1.08 24.42 3.34 36.5 5.44 12.44 2.17 25 3.56 37.36 6.43 1.79.39 3.61-.94 5.31.29zm-63 27.83c-5 0-9.26 3.57-9.15 7.67.09 3.14 6.24 9 9.48 9 4.17 0 9.51-5.61 9.55-10 .04-3.45-4.76-6.66-9.87-6.69z" class="cls-2" transform="translate(-9.94 -14.39)"/><path d="M825.12 103.73q-12.17 10.09-24.3 20.21c-1.14 1-2.09 2.13-3.78 2-3.72-1-5.22-5.16-8.23-6.58-7.45-3.53-13.86-8.62-20.95-12.66-19.19-10.95-37.92-22.7-58.38-31.22-15.62-6.5-30.79-13.77-44.16-24.34 5.47-6.33 10.92-12.67 16.42-19a21.33 21.33 0 012.62-2.14c12.9 2.16 24.9 7.34 37.32 11.08 11.83 3.57 23 8.67 34.39 13.4 9.27 3.87 17.55 9.59 26.07 14.81 9.37 5.71 18.51 11.86 27.86 17.6a101.15 101.15 0 0111.79 9 8.49 8.49 0 013.33 7.84zM164.06 530.38c9.56 2.41 19.15 4.7 28.66 7.26 12.88 3.46 26.15 4.62 39.22 7 .61 14.26-7.83 22.39-19.12 28.87-10.65 6.1-21.23 6.44-30.84-1.18-6.31-5-10.16-12.43-14.17-19.46s-4.24-14.72-3.75-22.49z" class="cls-6" transform="translate(-9.94 -14.39)"/><path d="M206.85 653.4a381.29 381.29 0 006 47.78c-14.43-4.68-28.92-6.58-43.09-9.95 2.31-14.35 7.94-26.81 21.69-33.46 4.67-2.26 9.64-5.19 15.4-4.37z" class="cls-4" transform="translate(-9.94 -14.39)"/><path d="M220 585.84c-1.83 5.78-5.92 10.42-8.05 16.06a63.61 63.61 0 00-4.12 20.18c-.24 6.11-.73 12.22-1.11 18.33-11.52-3.26-16.77-12.47-18.57-22.83-1.89-10.89 3.33-19.88 12.91-25.87 5.82-3.62 11.79-6.71 18.94-5.87z" class="cls-6" transform="translate(-9.94 -14.39)"/><path d="M374.53 755.28c-6.19 11.06-11.35 22.72-18.53 33.23-.85 1.25.36 3.63-2.18 3.9-2.86-6.38-9-10.4-12-16.59-1.17-2.34-3.82-3.72-4.05-6.59 4.13 1.08 7.55 3.36 12.6 2.75 9.3-1.14 15.76-5.93 16.2-15.4a78.31 78.31 0 011.54-10.93c2.39 3.04 3.19 7.18 6.42 9.63z" class="cls-2" transform="translate(-9.94 -14.39)"/><path d="M905.21 866.19c2-.94 4.35-1.47 4-5.59 2.42 4.74 4.28 8.37 6.12 12 .5 1 1.47 2.09.32 3.09a3.23 3.23 0 01-2.33.27 2 2 0 01-1.88-2.45c1-3.94-1-4.64-4.24-4.28-.95-.82-2.2-1.42-1.99-3.04z" class="cls-3" transform="translate(-9.94 -14.39)"/><path d="M334.62 766.53a3 3 0 012.09 1.79 1.86 1.86 0 01-2.09-1.79zM336.69 768.3l1.09 1z" class="cls-2" transform="translate(-9.94 -14.39)"/><path fill="#442787" d="M182.11 306c9.38.28 17.56 4.66 26.14 7.69 8 2.86 15.64 6.53 21.76 12.68 12.89 13 15.21 28.95 7.93 45.72a5.86 5.86 0 00-.22 1.47c-5.08 8.15-10.84 15.74-18.61 21.53-7.36 5.49-14.92 9.58-24.62 11-6.23.92-12.33 2.3-18.74 2.14a21.44 21.44 0 01-9.81-2.12c-3-1.6-4.88-1-7.6 1.27-11.2 9.22-23.53 15-38.65 10.45-3.68-1.12-4.76-2.36-2.15-5.71 4.64-5.95 7.53-12.91 11-19.56 1.69-3.26 1-4.81-1.24-7.2-10.3-11.22-14.52-24.36-8.3-38.74 7.13-16.45 17.65-30 35.71-36.25a97.28 97.28 0 0120.89-4.61c1.81-.21 3.66-.27 5.07 1.27 1.64.87 1.18-.55 1.37-1.26z" transform="translate(-9.94 -14.39)"/><path d="M681.38 457.05c4 8 7.54 16.35 12.31 23.89 6.56 10.36 12.42 21.13 17.87 32 4.62 9.21 10.33 17.88 14 27.55-2.47 3.84-4.9 7.71-7.4 11.52-9 13.65-18 27.21-26.85 41-2.48 3.87-5.23 5.2-9.44 3.21s-8.36-3.86-12.51-5.86q-29.49-14.28-59-28.61c-9.18-4.47-18.37-8.93-27.49-13.52-1.83-.92-3.26-.93-4.23.83-5.76 10.39-11.43 20.83-17.14 31.26-9.59-2-19.25-3.63-28.75-5.95-14-3.41-28.1-6.1-42.2-8.9-2.19-.44-4.55-.5-6.37-2.1Q494.1 546 504 528.59c8.19-14.51 18-28 26-42.64 6.26-11.48 13.7-22.33 19.69-34 1.2-2.35 2.83-2.58 5.28-2.27 7.26.93 12.47 5.83 18.27 9.36 14.74 9 29.09 18.61 43.65 27.88 7.38 4.71 15.11 8.9 22.28 13.9 9.33 6.51 8.83 6.54 14.89-3.26 8.58-13.84 17.74-27.33 27.32-40.51z" class="cls-5" transform="translate(-9.94 -14.39)"/><path d="M681.38 457.05c-9.58 13.18-18.74 26.67-27.31 40.51-6.06 9.8-5.56 9.77-14.89 3.26-7.17-5-14.9-9.19-22.28-13.9C602.34 477.65 588 468 573.25 459c-5.8-3.53-11-8.43-18.27-9.36-2.45-.31-4.08-.08-5.28 2.27-6 11.67-13.43 22.52-19.69 34-8 14.66-17.85 28.13-26 42.64q-9.83 17.4-19.74 34.74c-6.63-.08-12.89-2.3-19.32-3.47-4.34-.79-8.74-1.35-13.06-2.3-1.83-.41-1.33-.67-1.39-2.26-.31-8 6-12.48 9.44-18.35 7.81-13.45 18.08-25.25 27-37.92 11-15.65 22.15-31.15 33.75-46.36 9.69-12.7 20.17-24.76 30.28-37.11 9.58-11.7 19.29-23.34 27.62-36 4.07-6.2 4.71-6.9 11-2.91 6.87 4.37 13.59 2.36 20.37 1.71a73 73 0 0024.56-7.21c3.06-1.47 10.78 2.17 11.74 5.4 1.94 6.55 5.17 12.53 8.57 18.32 8.19 14 12 29.77 19.06 44.22 2.8 5.86 5.72 11.69 7.49 18z" class="cls-2" transform="translate(-9.94 -14.39)"/><path d="M548.64 391.76c-.33 3.11-3.44 4.09-4.89 6.45-4.82 7.8-10.17 15.25-17.11 21.39a53 53 0 00-6.83-.76 275.71 275.71 0 01-53.8-5c-23.32-4.36-46.1-10.1-67.61-20.2-3.17-1.49-7.55-1.78-8.7-6.26 3-7.34 8.93-12.54 13.55-18.68 1.7-2.27 2.65-5.52 6.14-6 3.47-.06 7.12-.1 10.14 1.49 6.88 3.62 14.55 4.28 21.84 6.27a143.35 143.35 0 0020.44 3.68c13.65 1.65 27.19 4.17 40.76 6.45 10.34 1.73 20.89 2.92 30.58 7.14 5.05 2.15 9.85 4.52 15.49 4.03zM481.75 475.94c-4.28 8.06-10.14 15-15.47 22.39-2.51 3.47-5.15 6.85-7.73 10.28a136.51 136.51 0 01-32 1.11c-16.7-1.4-32.78-5.32-48.8-9.7-8.78-2.41-17.38-5.51-26.06-8.27-11.23-3.57-23.1-5.72-32.06-14.35 4.1-7.34 9.81-13.49 14.88-20.11.69-.9 1.37-1.81 2.06-2.72 8.51 2.26 16.9 4.9 25.35 7.35 9.5 2.76 19 5.54 29 6.82 8.47 1.08 16.92 2.07 25.43 2.4 11.71.46 23.39 1.2 35.14.91 10.23-.26 20.51-.13 30.26 3.89zM606.52 317.77c-5 7.9-11 15-17.1 22-8.35-.54-16.72.31-25.08-.82-9.62-1.31-19.09-3.26-28.55-5.34-14.79-3.22-29.19-7.61-43.54-12.26a117.06 117.06 0 01-21.95-9.12c-5.29-3-11.91-4.11-15.71-9.6 5.67-9.08 12.75-17.13 19-25.83a8.09 8.09 0 013.11-3.06c3.32.22 5.26 3.41 8.39 4 8 1.4 15.26 4.92 22.92 7.26 13.46 4.1 26.66 9.05 40.09 13.24 14.11 4.39 28.47 8 42.52 12.59 5.38 1.74 11.57 2.39 15.9 6.94z" class="cls-6" transform="translate(-9.94 -14.39)"/><path d="M561.55 580.28c5.71-10.43 11.38-20.87 17.14-31.26 1-1.76 2.4-1.75 4.23-.83 9.12 4.59 18.31 9 27.49 13.52q29.49 14.32 59 28.61c4.15 2 8.35 3.89 12.51 5.86s7 .66 9.44-3.21c8.81-13.75 17.89-27.31 26.85-41 2.5-3.81 4.93-7.68 7.4-11.52 7.49 12.18 12.62 25.51 18.8 38.33.37.76.72 1.19.19 2.1-5.77 9.8-11 20.49-22.79 24.12a68 68 0 01-19.81 3.39c-7 0-13.65-2.16-20.72-1.92-5.38.18-10.82-2.63-16.42-3.4-18.06-2.5-35.42-8.39-53.39-11.17-2.61-.4-6.67-4.38-9.26.72a1.53 1.53 0 01-.55-.2c-5.65-4-8-4.41-17.29-4-1 0-1.49-1.67-3.18-2.09-6.63-1.62-13.1-3.97-19.64-6.05z" class="cls-2" transform="translate(-9.94 -14.39)"/><path d="M451.75 517.7a33.06 33.06 0 01-5.16 9.56c-4.85 6.3-7.78 13.78-11.66 20.66-2.52 4.45-5.11 4.76-9 4.47-9.52-.73-19 .24-28.47.75a6.45 6.45 0 00-6.36 4.71c-2.56-5.24-6.63-5-10.84-5.56-16.48-2-32.78-5.22-49-8.86-16.49-3.7-32.33-9.71-48.71-13.78-3-.75-3.29-1.83-1.53-3.94 5.59-6.71 10.06-14.34 16.69-20.19 15.46 1.86 30.19 7 45.37 10.15 9 1.87 17.85 4.64 27 5.83 14.53 1.89 29.06 1.31 43.65.75 12.84-.5 25.27-3.63 38.02-4.55zM513.59 435.55c-3 5.67-7.68 10.05-11.41 15.16-1.34 1.84-3.31 3.44-3.46 5.72-.18 2.82-2.07 2.74-3.87 3.13-6.06-.74-12.11.47-18.09.81a212.51 212.51 0 01-26.59 0c-16.59-1.14-32.61-5.85-48.83-9.24a75.12 75.12 0 01-8-2.39c-9.13-3-18.15-6.4-27.43-8.85-5-1.32-9.28-2.93-12.22-7.27 6.18-8.12 11.88-16.62 19-24 9 1.43 17.36 5.38 26.15 7.65 12.57 3.24 25.15 6.36 38 8.65a487.57 487.57 0 0048.46 6.14c9.5.71 19.29.39 28.29 4.49zM625.07 273.75c2.77 3.69 2.47 8.82 5.89 12.25 1.11 1.1-.38 2.05-1.11 2.85a72.93 72.93 0 00-8.29 10.79c-6.33.64-12.63-.3-18.74-1.4-12.91-2.33-25.29-6.53-37.63-11.19-18.36-6.93-36.6-14.11-54.2-22.72-6.61-3.23-14.34-5.64-18.39-12.86 5-8.68 11.39-16.41 16.9-24.73a14.8 14.8 0 001.86 1.61c10.27 6.21 21.88 9.44 32.93 13.67 12.86 4.93 25.43 10.56 38.34 15.35 14.22 5.27 28.3 10.91 42.44 16.38zM573.56 357c.2 3.23-2.64 4.8-4.24 6.8-3.29 4.11-6 8.58-8.82 12.95-3.14 0-6.21-.71-9.3-1-21.39-1.78-42.1-7.07-62.79-12.28-11.4-2.87-23-5.62-33.7-10.32-9.29-4.08-20-6.35-26.8-15.08 2.71-5.45 7.3-9.55 10.55-14.6 1.05-1.64 5.1-2.88 1.05-5.68-.19-.13 1.31-2.7 2-4.13 7.49 2.29 15 4.61 22.47 6.88 16.75 5.06 33.71 9.5 50.19 15.32 17.74 6.27 35.45 12.54 53.45 18 2.04.63 4.56.95 5.94 3.14zM546.63 751.64c.32-2.23-1.42-3.26-2.73-4.44-7.29-6.59-10.71-14.79-10.75-24.59a9.2 9.2 0 011.73-5.46c3.77-4.61 6.57-10.13 12.55-12.81s11.26-7.55 18.6-7c6.69.49 11.77 3.6 16.83 8 4 3.48 6.88 7.93 11.71 10.84 12.26 7.38 12.07 18.77 6 30.4-3.2 6.08-6.7 12.75-15 13.75-5.12.43-9.68-2-14.45-3.12-8.12-2.02-16.53-2.83-24.49-5.57zM534.11 591.23c2.65 2.52.72 4.84-.4 7.1-3.79 7.6-8.09 14.92-15.84 19.14-10.62 5.79-21.65 10.49-34.12 6.72-3.14-1-7-1.78-7.55-6.2-5.4 1.79-2.61-5.88-7.45-6.29-2.87-.24-5.45-4.88-8-7.69-7.27-8-10.14-17.26-7.09-28a3.3 3.3 0 012.05-2.61c6.07-.33 11.57 2.41 17.47 3.23 9.82 1.36 19 6.58 29.34 5.1 6.1 4.43 13.73 3.54 20.44 5.88 3.69 1.33 7.44 2.39 11.15 3.62zm-78.33-16.1c.78 1.18 1 1.61 1.32 2 1.12 1.27 2.42 2.3 4.23 1.79.49-.14 1.24-1.06 1.13-1.37-.62-1.87-2.68-.55-3.83-1.53-.44-.41-1.19-.41-2.85-.89zM669.36 666.49c-2.75.28-5.92 1.57-8.16.64-5.36-2.24-11.05-3.62-15.53-8.18-8.74-8.88-18.4-16.84-23.2-28.89a25.34 25.34 0 01.87-21.51c13.88 2.56 27.74 5.23 41.65 7.61a48.34 48.34 0 0010.42.21c3.93-.19 5.38.55 3.69 4.93-5.61 14.52-7.32 29.94-9.74 45.19zM417.75 613.41c7.1 4.61 11.59 11.66 16.41 18.25 5.85 8 6 17.86 4 26.65A48.81 48.81 0 01412.43 692a9.45 9.45 0 01-4.68 1.44c-1.26-15.18-1.8-30.43.09-45.51a113.43 113.43 0 016.56-25.85c1.09-2.92 2.23-5.79 3.35-8.67zM634.74 771.94c-2.63-18 5.73-26.94 19.75-33.82 3.92-1.92 7.65-3.51 12-1.8 1.46 8.31 2 16.92 6.07 24.47 1.9 3.51 3.74 6.83 4.16 10.83a1.59 1.59 0 00.84 1.16c4.22.83 2.28 5.57 4.79 7.46.93.71.33 1.55-.11 2.16-1.11 1.54-2.31.33-3.52 0q-21.97-5.24-43.98-10.46zm10.35-24.31a4.36 4.36 0 00-.79-.32c-.07 0-.19.2-.28.3.18.16.35.41.55.45s.32-.26.52-.43zM713.2 103.27c7.9 5.23 17.67 7.71 23.51 16 7.59 1.19 12.44 7.26 18.35 11.15 5.5 3.64 10.5 8.63 15.25 13.55l3.07 3.16c-3.67 4.07-8.88 6.34-12.41 10.6-1.68 2-2.42.08-3.29-1-4.38-5.55-8.74-11.13-13.15-16.65-5.9-7.39-11.68-14.88-17.85-22-3.1-3.6-6.95-6.57-10.45-9.82-1.47-1.43-3.06-2.71-3.03-4.99zM410.72 712.27c13 .2 22.22 6.43 28.09 17.88-5.22-1.29-10.44-2.56-15.66-3.86-.95-.23-1.86-.72-2.82-.86-7.85-1.14-7.83-1.13-8.69-8.84a43.13 43.13 0 00-.92-4.32z" class="cls-6" transform="translate(-9.94 -14.39)"/><path d="M830.89 806.16l-.3-.18.34-.43.29.32z" class="cls-2" transform="translate(-9.94 -14.39)"/><path d="M1011.85 666c.39-.11 1.07-.4 1.13-.3.36.57-.23.66-.58.85-.19-.17-.4-.35-.55-.55z" class="cls-4" transform="translate(-9.94 -14.39)"/><path d="M1047 493.24c-.06-5.29 4.74-9.19 9.63-7.44 2 .7 3.16.83 4.88-.51 6.68-5.18 15.08-7.4 21.85-12.56 2.07-1.58 5.7-1.37 3.95-5.63-.64-1.57 1.22-2.66 2-3.78 3.36-4.87 14-4.37 17.23.65 1.53 2.42.74 4.84-.62 6.94-2 3.1-5 5.24-8.71 4.28-2-.5-2.84-.05-4.31 1-6.42 4.39-12.58 9.23-19.75 12.45a24.93 24.93 0 00-3 1.69c-2.74 1.72-1.9 3 .6 3.84 5.11 1.71 10.25 3.32 15.36 5a3.19 3.19 0 003.19-.26c4-2.68 13.58-1.78 16.6 1.61 2 2.27 1.67 5 .19 7.39-2.16 3.56-5.1 6.54-9.57 5.26-4.17-1.2-7.86-2.92-10.94-7s-9.43-4.68-14.42-6.55c-3.23-1.22-6-3-10.27.5-5.09 4.24-13.79-.84-13.89-6.88zM992.44 322.33c4.44-4.69 8.79-9.21 9.5-15.52.6-5.32 2.49-11.08-2.37-15.77a16.87 16.87 0 01-.87 3c-1 2-1 5.38-4.71 4-2.54-1-5.94-.61-4.6-5.84 1-3.79-.1-8.34.26-12.56.29-3.21 2.92-5.24 5.08-4.37 5.5 2.21 11.43 1.29 16.87 3.28 1.33.49 3.25.36 3.21 2.17 0 1.36-1.66 2.15-3 2.26-5 .43-3.66 2.2-1.67 5.19 7.7 11.57 3.72 27.3-7.54 35.21-3.35 2.44-6.6.07-10.16-1.05zM974.21 321.63v-3.56c0-2.57-.41-6.23 2.85-6.16 3.06.06 7.79.09 7.49 5.67a20.44 20.44 0 00.53 3.41c1 8.13-.74 10.42-8.85 9.58-5.33-.55-10.78-.13-16-2-.92-.32-2.79-.2-2.4-1.95.35-1.59 1.16-2.93 3.3-3 2.87-.12 5.77 1.09 8.88-.36-6.78-2.68-13.06-5.54-15.42-13.26a17.83 17.83 0 01.28-9.88c2-7 4.62-13.77 10.85-18.7 3.91-3.1 7.76-3 12-2.51.85.1 2.13.8 2.32 1.47.37 1.31-.91 1.83-2 2.38-8.26 4.24-12.16 11.32-13.04 20.34-.83 9.29 1.81 14.71 9.21 18.53z" class="cls-8" transform="translate(-9.94 -14.39)"/><path d="M685.42 134.9c2.76 2.39 7.26 3 7.44 8 0 1.22 1.76 1.43 3 1.81 2.22.7 3.34 2.69 2.29 4.59-.89 1.6-2.94 1.58-4.49 0-4.24-4.29-10.93-4.89-14.69-10.18.76-3.1 6-.47 6.57-4.33zM675.43 173.86l.74.45-.64.22v-.75zM838.25 702.19c0 3.23-3.37 6.8-6.52 7a1.78 1.78 0 01-1.7-.63c-.8-1 .17-1.36.62-1.92a11.91 11.91 0 017.67-4.37zM262.26 622.1c4 3.87 2.81 8.06 2.15 12.17s-1.28 8.08-2 12.41c-1.92-2-4.32-1.06-6.55-1.3-1.2-.13-2.37.28-3.33-1.31-1.32-2.19 1-1.82 1.36-2.68 2.85-6.25 6.31-12.22 8.37-19.29zM258.31 739.79c-.08-.37-.32-1-.21-1.07.54-.35.61.17.73.54a5.21 5.21 0 01-.52.53z" class="cls-3" transform="translate(-9.94 -14.39)"/><path d="M569.34 613.53c8-1.67 13.89 3.86 18.83 8.92 2.48 2.55 4.09 7 7.46 8.74a23.57 23.57 0 017.67 6c4.92 5.87 4.63 12 2.46 18.4A38.55 38.55 0 01593 673.48c-6.87 5.51-14.27 9.24-23.33 8.89-3-.11-5.36-1.5-7.7-3.1-7.09-4.85-11.8-12.11-18-17.82-4.33-4-8.15-8.24-10.35-13.67-4-9.93 3.94-22.19 11.65-25.61 3.29-1.46 5.63-4 8.73-5.55a27.47 27.47 0 0115.34-3.09zM485.32 722.62c-19.27-.62-37.26-16.14-38.94-31-.58-5.13 1.42-9.59 4.21-13.78 4.42-6.66 6.74-14.65 13.64-19.75 8.63-6.37 16.79-5.73 24.91-1.13 5.72 3.25 10.69 7.61 15.51 12.06 6.82 6.28 9.63 13.92 7.85 23.21s-5.24 17.57-12.9 23.49c-5.15 4.01-10.82 6.96-14.28 6.9zM616.51 700.34a20.71 20.71 0 014.94-15.34c3-3.7 12.12-5.85 16.65-4.53 5.39 1.57 10.52 2.74 14.31 7.69 2.46 3.21 3.11 6.85 4.44 10.28 3.63 9.38 1.06 19.43-6.48 23.08-8 3.9-16.64 5.39-24.91-.19-6.65-4.48-9-11-9-18.68z" class="cls-6" transform="translate(-9.94 -14.39)"/><path d="M682.39 902.89c.73 10.68-2.09 19.54-5.9 28.11-1.94 4.36-6.59 5.34-10.66 2.7-1.9-1.23-1.29-2.43-.49-4.17 4.2-9.16 6.63-18.94 5.89-28.91-.66-8.88-3.05-17.71-8.27-25.2-1.87-2.69-.92-4.23.56-6s2.67.4 4 .73c6.42 1.59 8.48 7.17 11 12.29 3.48 6.81 4.17 14.08 3.87 20.45zM659.48 906c.21 5-1.13 10.56-3.35 15.92-1.72 4.17-4.52 3.13-7.62 1.74s-3.26-3.08-2.16-6.23a39.19 39.19 0 00-1.22-29.16c-1.06-2.45-3.15-4.87.38-6.54 2.8-1.32 5.43.37 7.18 2.49a29.4 29.4 0 016.78 17c.09 1.33.01 2.67.01 4.78zM638.25 909.72c-.77 2.88-1.14 5.56-2.2 7.92-1.46 3.28-4.37 2-6.83 1.44-2.87-.69-1.63-2.65-1.13-4.35 2.1-7.16 2.7-14.18-2.14-20.63-.71-.94 0-1.5.48-2.11.72-.86 1.42-.29 2.19 0 4.86 1.83 7.11 5.94 8.74 10.39.88 2.41-.82 5.26.89 7.34z" class="cls-8" transform="translate(-9.94 -14.39)"/></g></g></svg>
