<svg xmlns="http://www.w3.org/2000/svg" width="389" height="400" viewBox="0 0 789.86 811.98"><defs/><defs><style>.cls-2{fill:#fdccc7}.cls-3{fill:#552bde}.cls-4{fill:#562cde}.cls-5{fill:#552cde}.cls-6{fill:#fa5847}.cls-7{fill:#572edf}.cls-8{fill:#9b81ea}.cls-10{fill:#9a80ea}.cls-11{fill:#cdcde5}</style></defs><g id="Camada_2" data-name="Camada 2"><g id="Camada_1-2" data-name="Camada 1"><path fill="#fff" d="M499 14L362 28l-80 38-78 49-41 54-97 73-33 97L1 457l54 107 90 79 7 27 16 3 4 7 17 1 97 37 132 57 53 24 93-8 90-57 75-103 40-109-5-62-15-42-6-37-10-34-28-45-5-129-1-84-41-38-60-20-34-14-65-3z"/><g id="Camada_1-2-2" data-name="Camada 1-2"><path d="M715.71 709.63c-.2-.83-1-1.28-1.13-.34-.44 4.32-4.55 5.33-6.88 7.88-2.18 2.39-5 4.13-7.15 6.72-1.87 2.24-3.73 4.59-5.85 6.69a35.39 35.39 0 01-5.52 4.86c-.73.47-.51 1.45-1.32 2-2.71 2-5 4.67-7.93 6.29-1.4.78-2.24 2.07-3.65 2.81-1.08.56-2.08 1.82-3.21 2.58s-1.53 2.69-3.42 1.67c-.09 0-.43.16-.5.31-1.49 3.39-5 4.34-7.58 6.45-.9.75-1.8-.56-2.64.34 1.31.36 1.17 1.16.19 1.48-3.3 1.08-5.83 3.73-9.26 4.48-.9.2-.6 1.07-1.1 1.57-1.31 1.31-3.27 1.12-4.54 2.38-1.92 1.88-4.61 2.57-6.86 3.92-2 1.19-3.72 3-6.37 3.6s-5.23 2.4-7.77 3.76a183.13 183.13 0 01-17.16 7.57c-9.21 3.79-18.24 8-27.81 10.92q-5.71 1.71-11.48 3.25c-6.72 1.76-13.3 4-20.1 5.53-7.42 1.63-15 2.51-22.47 3.5a230.29 230.29 0 01-28 2.07c-2.24 0-2.24 0-4-1.69.58 1.58 0 1.87-1.2 1.71-6.1-.83-12.27 0-18.34-.56-4.3-.43-8.71.45-12.92-1-.79-.28-1.61.53-2.49 0-1.15-.63-2.89.69-3.76-1.54-.4-1-2.34-1.64-4.14-1.38-.58.72 1 1.1.85 1.92a14.07 14.07 0 01-4.51-1.19 22.46 22.46 0 00-8.34-1.53 8.29 8.29 0 01-4.07-.48c-1.73-.7-3.8-.4-5.4-1.62-2.71 1.87-5-.52-7.51-.74s-5-1.44-7.52-2.08c-14.44-3.7-27.17-11.13-40.15-18-7.24-3.84-14.47-7.7-21.72-11.51-12.5-6.57-24.6-13.79-36.45-21.45S290.2 736 278 728.64c-7.85-4.77-15.39-10.06-23.34-14.65a327.61 327.61 0 00-37.53-19c-12.94-5.41-26-10.39-39.36-14.82-1.57-.52-1.7-.82-.77-2.42 1.23-2.15 2.53-2.08 4.5-1.57.93.24 2 1 3.16-.18.5-.51 1.79-.31 1.64-1.52-.16-1.37-1.43-.44-2.15-1 .84-.46 1.08-1 .14-1.64-.41-.26-.89-.43-1.28-.72-2-1.49-3.27-3.08-1.83-5.81.72-1.37.73-3.1 1.55-4.53.59-1 .43-1.94-1-2a11.34 11.34 0 01-6-2.22c-.88-.64-1.31-.06-1.75.45a5.13 5.13 0 01-7.15 1.25c-.93-.53-2.15-.29-2.9-1.33-.28-.39-1.38 0-1.47.35-.33 1.28-1.54 2.24-1.23 3.72 1 4.82.53 5.56-3.88 7.72a6.07 6.07 0 01-5.75-.13c-7.56-3.5-15.23-6.76-22.89-10-7.9-3.36-15.18-7.84-22.51-12.24a165.92 165.92 0 01-18.62-12.46c-2.66-2.13-5.32-4.29-7.77-6.66-7.71-7.5-15.38-15.07-22.38-23.26-6-7-11.32-14.43-16.7-21.87-7.88-10.88-13.23-23-18.17-35.25a394.52 394.52 0 01-16.68-51.29 142.66 142.66 0 01-3.3-21.85c-.8-8.49-1.36-17-1.77-25.51-.54-11.53-1.06-23.07-.67-34.6a278.18 278.18 0 014.47-42.3c2.78-14.7 6.86-29 11.15-43.32 3.59-12 9-23.06 14.78-34 3.9-7.38 7.46-14.92 11.46-22.26 7-13 13.36-26.29 21.64-38.53 1.61-2.37 3-5 5.68-6.5.39-.21.89-.76.87-1.12-.19-2.66 1.84-3.65 3.39-5.17a7.62 7.62 0 012.06-1.94c1-.47-.94-1-.39-1 1.63 0 1.33-2.05 2.71-2.21a2.92 2.92 0 002.33-2.65 1.62 1.62 0 011.44-1.72c.89-.26 2.07-.31 1.44-1.83-.13-.31 0-.68.57-.41s.77-.25.82-.49c.54-2.66 3.14-3.63 4.52-5.59.08-.1 0-.28.06-.42l1-.23c-.91-2.95 1.85-3.44 3.28-3.78 1.93-.46 2.58-2.1 3.17-3.1s1.67-2.21 1.84-3.62c0-.4.33-.34.59-.4 2.22-.51 3.81-1.58 3.9-4.14 0-.7.72-.5 1.19-.55.16.11.32.22.49.32l.12-.16-.57-.2a2.55 2.55 0 012.48-2.18c1.56-.18 1.86-1.52 2.66-2.44s.23-2.57 2.16-2.53c.7 0-.41-.94.17-1.48.73-.17.47.85 1.18 1.13-.07-2.15 1.14-2.88 3-3.31.83-.19 1.56-1.24 2-2.22.53-1.2.91-2.42 2.58-2.8a2.83 2.83 0 001.59-2.31c.12-1.6.92-1.93 2.23-1.4.49.2 1.07.17 1.06-.22 0-2.55 2.94-2.79 3.65-4.87.3-.85 1.37-1.56 1.75-2.57.17-.43.46-.62.79-.35.94.77 1.14-.07 1.59-.6a3.33 3.33 0 011.44-1.21c2.41-.66 1-1.71.33-2.78.59-.48 2.48 1 2-1.22a.72.72 0 01.45-.31 4.2 4.2 0 004.2-3.36.64.64 0 01.69-.6.77.77 0 01.26.07.92.92 0 001.28-.26 1.06 1.06 0 00.11-.21c.91-1.8 2.65-2.69 4.13-3.87a2 2 0 00.85-1.38c-.13-1.28 0-1.79 1.35-1 .42.26.76-.29.72-.77-.07-1 .42-1.27 1.28-1.22l.18.09-.18-.09a3.11 3.11 0 010-.61c2.39-.21 2.69-2.56 4-3.88.56-.56.88-1 1.91-.81 1.29.22.5-1.72 1.67-2.21.71-.3 1.82-1.23 2.78-1.16 1.13.07 1.17-.79 1.18-1.61.49-.08 1.17-.13 1-.79-.45-1.91 1.17-2.13 2.19-2.53.86-.34 1.65-.63 1.93-1.48.65-2 1.54-2.24 3.11-.27-.89-2.22.89-2.18 1.72-2.92 1.88-1.67 2.72-4.64 6-4.49-.19-.65-1-1-.63-1.6.43-.78 1.08-.4 1.68-.16.19.07.75.2.54-.21-.29-.56-.37-.93.23-1.2s.78.16 1 .51.52.22.56-.1c.14-1.17.64-1.66 1.91-1.46.46.08 1.29-.58 1.17-1-.32-1.21.17-1.23 1.12-1.22.3 0 1.77-.28.43-1.23-.35-.25 0-.59.19-.61a3.75 3.75 0 003.39-2.4c.15-.32.45-.15.73 0 1.66.68 2.17-.33 3.11-1.55a12.09 12.09 0 013.85-3.78 42.47 42.47 0 004.1-2.84c8-5.56 16.42-10.48 24.66-15.67 6.29-4 12.58-8 19-11.67 4.58-2.62 8.91-5.63 13.55-8.19 3.41-1.89 6.67-4.25 10.06-6.31 5-3 9.94-6 15.13-8.59 3.86-1.94 7.42-4.39 11.62-5.73 1.23-.39 2.34-2.08 3.81-2.36 2.43-.47 4.17-2.16 6.35-3A69.36 69.36 0 00314 34a47.59 47.59 0 017-3.1c1.88-.61 3.6-1.5 5.41-2.2.53-.2 1-.57 1.56 0 .21.22.58.44.69.15 1.21-2.91 4.25-2.6 6.46-3.41A286 286 0 01366 16.12c10.62-2.56 21.27-4.93 32.06-6.6 7.28-1.12 14.61-2 21.95-2.72 9.87-1 19.75-2.06 29.6-3.26 6.57-.82 13.12-1.42 19.71-1.91 9-.6 18-1 27.06-1.36 8.87-.38 17.7-.27 26.53-.27 7 0 14.08.47 21.11.83s13.77.69 20.64 1.3c10.34.95 20.66 1.7 30.81 3.87 6.56 1.4 12.73 4.13 19.08 6.13 11.28 3.7 22 8.7 32.81 13.6 9 4.08 17.62 8.72 25.39 14.84a112.38 112.38 0 0126.07 29.13c9.35 15 14.33 31.65 18.18 48.73 2.4 10.66 4.38 21.4 6.44 32.12 1.33 6.9 0 13.52-1 20.24q-1.8 10.92-3.23 21.88c-1 7.38-2.05 14.77-2.46 22.19-.33 6-1.15 12-.26 18.06.37 2.48-.09 5.11-.36 7.65-.8 7.69-.13 15.33.38 23 1 15.17 4.42 29.89 8.24 44.53 2.9 11.1 6.87 21.85 10.67 32.66 2.68 7.59 5.33 15.18 8.12 22.73 4.08 11.09 8.33 22.12 13.25 32.87 3.89 8.48 7.94 16.89 11.82 25.38 5.68 12.42 10.67 25.1 13.69 38.47 1.93 8.52 3.42 17.1 4.58 25.76 1.34 9.86 2.29 19.73 2.67 29.69.22 5.7.44 11.4.22 17.09a211.74 211.74 0 01-2.77 25.37q-1.63 10.08-3.62 20.1a226.92 226.92 0 01-13.18 43.18c-4.73 11.4-10.26 22.41-15.91 33.36a391.74 391.74 0 01-20.86 35.79 84.07 84.07 0 01-5.18 7.23c-1.34 1.62-3.12 2.86-4.58 4.38s-3 3.49-4.76 5.05c-1 .89-2.58 1-3.16 2.42zm-481.82-66.81l.15-.08v-.11l-.17.19a.44.44 0 00-.16.06v.12zm407-64.52c.31-.2.28-.45.08-.71l-.28.51c-.09.09-.26.23-.25.25.18.23.33.11.47-.05zM84 468.94c-.64 1.25-2-.08-2.84.82 2.72 1.08 3.84.64 5.07-1.8.83-1.66 1.38-3.46 3.06-4.69s1-3.06.65-4.65c-.45-2.07-1.68-.46-2.58-.41-2.61.14-4.88-2-7.6-1.15a.82.82 0 01-.39-.44c-.28-1.27-1.26-.68-2-.89-1.5-.44-3.76 1.36-4.52-1.46-.13-.47-.7-.13-1.08.12-1.81 1.2-2.29 2.6-1.45 4.74a1.56 1.56 0 01-.23 1.58c-.38.55-.72.37-1.21 0-.72-.55-1.17.29-1.6.63-.68.53.22.77.39 1.16s.45.66.42 1c-.33 2.92 2.39 3.5 3.92 4 3.84 1.11 7.99 1.1 11.99 1.44zm291.65-55.26a9.89 9.89 0 01-.09 2.77c-.72 2.2.64 2.48 2.21 2.89.52.13.94-.49 1.32 0 1 1.25 2 .79 3.31.45s2.5-.45 3.4-1.5a43 43 0 002.9-3.4 1.92 1.92 0 012.56-.94 2.52 2.52 0 01.44.28 19.67 19.67 0 005 1.86c1.12.33 1.57-.41 2.12-1a1.41 1.41 0 000-1.95 24.46 24.46 0 00-2.27-2.79c-1.87-1.73-2-2.69-.77-4.93a20.85 20.85 0 012.22-2.82c1.24-1.56 1-2.34-.84-2.88-.31-.09-.53-.52-.85-.61-2.15-.63-4.27-2.62-6.52-.17-.65.71-.88.28-1.54-.3-1.12-1-.81-2.39-1.7-3.46-1.73-2.07-4.29-1.95-6.35-3-1.3-.69-1.87-.39-2.48.8-1.7 3.31-.68 6.83-.65 10.22 0 1.1-.2 1.24-.88 1.7-2.83 1.91-7.12 1.31-8.82 5.14l-.21.52a31.15 31.15 0 008.48 3.12zm310.09 54a8 8 0 00-1.29-3.8 46.34 46.34 0 00-8.65-9.52c-.91-.79-2.3-2.48-2.58-2.32-1.86 1.12-2.34-.65-3.27-1.3s-1.74-1.62-3.14-.82c-.26.16-1.29-.34-1.28-.44.28-2.15-1.57-1.93-2.68-2.35-3.93-1.49-8.07-2.25-12.14-3.29-9-2.3-17.63-1-26 2.18a37 37 0 00-12.24 8.18 52 52 0 00-7.79 10c-2.28 3.52-2.94 7.55-3.71 11.54a31.27 31.27 0 001.59 16.53c1.91 5.49 5.59 9.67 9.52 13.78 2.77 2.89 6.21 4.63 9.52 6.6a68 68 0 0016.32 6.52c2.5.71 5.22 2.07 8 .42.6-.36 1.28-.09 1.34.82.07 1.38-.38 3.18 1.32 3.68 1.45.43 2.63 1.65 4.52 1.26.68-.14 3.07-.57 3.34 2.23.39-2.1 1.56-3 2.39-4.1s.27-2.87.3-4.33a39 39 0 007.48-3c1.81-1 4-1.34 5.53-2.61 2.61-2.21 5.54-3.92 7.74-6.82 2.47-3.25 5.12-6.28 6.86-10 .52-1.13 1.32-2.94.82-3.32-1.62-1.23-.29-2-.08-3.07.59-2.88 1.56-5.55 1.55-8.73a36.13 36.13 0 00-1.17-9.82c-.47-1.48-.65-3.16-2.12-4.12zM192.35 583.3c-1.66 4.07-4.79 7.23-6.6 11.3a36.42 36.42 0 00-2.8 20 33 33 0 003.92 10.88c2.92 5.57 7.69 9.47 13.07 12.57 4.43 2.56 9.36 4 14.11 5.74a25.48 25.48 0 0012.64 1c2.08-.3 5 .27 6.24-2.63.07-.16.7-.25 1-.14 3 1.15 5.35-.9 7.51-2 7.18-3.65 12.67-9.36 17.43-15.87 3.72-5.09 5.44-10.91 7-16.79a26.17 26.17 0 00.92-8.85c-.61-6.49-2-12.75-6.32-18.14a38.28 38.28 0 00-10.75-8.82c-2.89-1.73-6.31-2-9.49-3-4.83-1.48-9.48-3.77-14.61-1.16a2.78 2.78 0 01-1.28.06 39.2 39.2 0 00-12.59 1.8c-1.07.29-2.5.48-2.67 2.06-.07.67-.07 1.45-1 1.24s.85-1-.29-1.44c-3.51 1.36-6.28 4.23-9.81 5.76-1.25-3-3.78-3.42-6.58-3.47-1 0-2.2-1-2.81.53-.43 1.08-1.39 2.09-.89 3.39.92 2.46 1.81 4.99 4.65 5.98zm106.44-420.18c3.79 1.5 7.55 3.06 11.37 4.49 2.58 1 5.23 1.77 7.86 2.61a6.55 6.55 0 001.47.14c0-1.26.78-.83 1.2-.39 1.25 1.29 2.83 1.25 4.39 1.26 1 0 2-.29 3 .23 1.63.85 3.14.88 4.39-.8.33-.44.89-.2 1.28.25s1.25.57 1.92.81c3.92 1.37 7.89-.5 11.87.24 1.83.35 3.71-1.75 5.88-.75.25.11.43-.16.64-.39a2.24 2.24 0 012.07-.54 15.37 15.37 0 008.53-1.85 2.15 2.15 0 012.44-.05c2 1.08 3.56 2.93 5.78 3.58 4.62 1.34 9.22 2.78 13.93 3.73 5.16 1 10.22-.45 15.25-1.51.65-.14.73-.74.2-1.11s-1.16-.53-1.75-.75c-2.59-1.36-5.62-2.24-6.46-5.63a2.22 2.22 0 00-.76-1 19.64 19.64 0 01-5.46-8.34c-.39-1.24-.47-2.49.95-3.35 3-1.84 5-4.63 7-7.52 4.05-5.95 4.58-12.18 2.33-18.92-.47-1.41-2-2.13-2-3.35-.13-2.17-1.56-3.52-2.48-5.2-1.48-2.72-4.22-4.43-5.78-7.16-.7-1.24-1.7-2.71-3.57-2.71a2.45 2.45 0 00-2-2.22c-2.19-.29-3.35-2.18-5.26-3-3.24-1.41-6.37-3.16-9.8-4-2.94-.77-6-1-8.8-2.37a2.41 2.41 0 00-1.43-.31c-1.81.46-3.41-.6-5.07-.87-4-.64-7.85-1.51-11.86-.44a3.27 3.27 0 01-1.86 0 13.73 13.73 0 00-6.74-.09c-2.28.49-4.6.72-6.88 1.3-2 .51-4 1.15-6.07 1.62-3.69.83-7.52 1.53-10.87 3.33-2.67 1.42-5.24 3.3-7.95 4.37-4.7 1.86-8.15 5.24-11.44 8.54a36.59 36.59 0 00-9.58 15.67c-1.28 4.39-1.49 8.72.21 12.92 1.41 3.49 2.87 7 6 9.61C287 155 289 157 291 158.94c.16 2.42 3.3 2.54 3.71 4.79a.44.44 0 00.39 0c1.04-.89 2.45-.16 3.69-.61zM242.2 466.58a5.37 5.37 0 00.8.15c.5-1.62 2-1.4 3.19-1.83.31-.11.77-.43.78-.67.07-1.29 1.11-1.5 1.93-1.53s1.34-.71 1.9-1.11a48.87 48.87 0 006.55-5c2.08-2.11 4.59-3.9 6.24-6.34 1.83-2.71 4.41-4.73 6.11-7.54 1.52-2.5 3.7-4.52 5.23-7.1a112.14 112.14 0 009-18.34c.39-1.07 1.5-2.22.37-3.52-.17-.18-.11-.39.15-.42 1.72-.21 1.42-1.72 1.71-2.76 2-7.3 3.83-14.64 5.3-22.09 1.41-7.17 1.53-14.34 1.68-21.55 0-1 0-2.35-1-2.57-1.82-.4-3.51-1.51-5.48-1.14v-.44a5 5 0 014.19-.72c2.76.63 5.33.06 8-.17s5.4-3.31 4.86-5.61a36.2 36.2 0 00-6.94-14.19 7.81 7.81 0 01-1.88-6.64c.75-5-.15-9.93-.17-15 .9-.16 2-.34 3.11-.56 1.83-.36 3.79-3.38 2.72-4.3-1.45-1.24-2-3.13-3.47-4.26a2.56 2.56 0 01-.93-2.85c.74-3.54.28-7.12.14-10.67a21.9 21.9 0 00-2.14-9.61c-.6-1.12-.48-2 1.36-2.12a57.78 57.78 0 0017-3.77 60.53 60.53 0 0018.31-10.78 67.39 67.39 0 008.81-9.22c2.53-3.08 5.2-6.18 6.84-9.89 1.23-2.79 2.28-5.65 3.36-8.5a28 28 0 001.68-14.66c-1.62-9.54-7.34-15.9-16.08-19.87-1.93-.87-4.17-.55-5.82-1.83a7 7 0 00-3.89-1.51c-4.36-.29-8.73-.69-13.1-.67a38.31 38.31 0 00-11.86 1.47c-5 1.66-9.88 3.55-15.08 4.69a79.88 79.88 0 01-26.51 1.75 16.8 16.8 0 01-7.09-2.53 102 102 0 00-10.08-5.87c-.63-.31-1.45-.45-1.86-.94-2.7-3.25-6.57-4.8-10.3-5.72s-7.49-2.44-11.32-3.4a71.19 71.19 0 00-8.43-1.61c-7-.87-13.76.54-20.35 2.87-1.71.6-3.42 1.23-5.14 1.82-6.06 2.09-11.42 5.57-16.89 8.8-2.17 1.28-4.24 3-6.46 4-3.81 1.78-7.49 3.82-11.32 5.56a12.83 12.83 0 01-4 1.24c-5 .58-10 1-15 1.49-5.23.56-10.5.8-15.74 1.28A47.07 47.07 0 0097.9 225c-5.21 2.67-10.57 5.35-15.07 9.37S75 243 71.71 247.74a20.09 20.09 0 00-3.9 10.1A87.48 87.48 0 0166.4 267a79.62 79.62 0 00-.94 19.86 108.1 108.1 0 002.41 15.29C69.61 310.23 73 317.76 77 325c1.82 3.28 3.59 6.67 5.2 10a194.46 194.46 0 0011 18.91c1.38 2.19 3.19 4.13 4.42 6.45.58 1.09 1.42 1.11 2.42.82.12.85-.27 1.63.59 2.53 2 2.12 3.72 4.56 5.54 6.86-.52.54-1 .3-1.51.32a15.48 15.48 0 00-9.84 3.66 21.22 21.22 0 00-6.35 10.69c-1 3.83-1.44 7.78 1 11.36a27.45 27.45 0 004.83 5.81c1.56 1.31 3 3.21 4.79 3.72 2.52.71 4.58 2.27 7.07 2.92a22 22 0 014.82 1.72c1.91 1.08 2.58.13 3.72-.59.17-.11.06-.66.5-.31 1.78 1.42 4 .63 5.19-.22 2-1.42 2.47.09 3 1.11a9.91 9.91 0 01.81 3.21c1 6.25 2.84 12.32 3.71 18.59a94.7 94.7 0 002.73 11.29c1.65 6.24 2.76 12.61 4 18.94C136 469.85 138 476.81 139 484c.15 1.07 0 1.45-1 1.64a22.2 22.2 0 00-11 5.91c-2.37 2.26-4.63 4.73-5.43 7.94-1.12 4.48 0 8.27 3.42 11.81 3.65 3.83 8 6.35 12.54 8.67a83.45 83.45 0 0014.23 5.72c3.44 1 6.86 3.38 10.74 1.42.41-.2.77-.15.9.17.25.62-.71.58-.78 1.08a34.24 34.24 0 007.4 1.07c2.62-.09 5.39 1.42 7.89-.6.23-.19 1.11-.06 1.19.14.6 1.4 1.83.81 2.67.74a99.27 99.27 0 0014.43-2.14c4.25-.94 7.74-3.7 12.07-4.18.7-.08 1.34-.74 2-1.17 1.94-1.34 3.24-3.39 5.07-4.78s1.7-3.83 4.46-4.54c1.64-.43 3.3-3 2.61-5.69a9.43 9.43 0 010-3c.49-6.25-2.12-10.92-7.57-13.77-2.23-1.17-4.9-1.48-7.35-2.26s-4.68-2.33-4.92-4.77c-.27-2.73-1.2-5.3-1.32-8-.1-2.34-.21-2.41 2.11-2a38.08 38.08 0 0016.56-.17 12.68 12.68 0 012.45-.42c.86 0 2.13.46 2.28.24 1.6-2.31 4.06-.7 6-1.38 2.18-.75 4.61-1.27 6.3-2.63 1.25-1 2.51-1.14 3.78-1.63.39-.15.78-.33 1.17-.5zm417.39-343.75c.13-6 .26-13-2.51-19.74-.48-1.15-1.44-2.18-1.31-3.52.22-2.39-1.13-4.17-2.22-6-.46-.8-.86-1.61-1.27-2.42-1.28-2.5-2.42-5.19-4.23-7.26-3.16-3.59-6.12-7.35-9.9-10.48-4.23-3.5-8.56-6.83-12.94-10.12-1.86-1.39-4.24-1.46-6-3-1.28-1.12-3.26-1.39-4.41-2.18a29 29 0 00-6.21-2.84c-2.47-1-5.17-1.39-7.41-2.87-1.25-.82-2.73.45-4.15-1.24-1.25-1.49-4-1.83-6.18-2.39-1.11-.28-2.26-.48-3.36-.84-2-.67-4.08-1.9-6.15-2-5.49-.17-10.6-2.13-16-2.94a164.8 164.8 0 00-17.14-1.87c-3-.17-6-.69-8.92-.71-2.19 0-4.31-.49-6.49-.57s-4.22.69-6.37.52a14.54 14.54 0 00-3.61 0c-5.45 1-11 .78-16.46 1.54a66.48 66.48 0 00-11.67 2.68c-3.33 1.07-6.49 2.76-9.81 3.68-4.35 1.2-7.78 3.87-11.4 6.13a26 26 0 00-8.55 8.71c-2 3.23-4 6.4-5 10a23.28 23.28 0 01-4.68 9.53c-2.85 3.18-6.35 5.78-9.53 8.68-1.23 1.13-2.84 1.86-3.91 3q-4.38 4.8-8.47 9.87c-2.44 3-3.57 6.63-5 10a57.07 57.07 0 00-4.26 17.72 68.76 68.76 0 001 19c1 4.66 2.76 9.16 4.24 13.72 1.26 3.85 2.08 7.89 4.19 11.39 1 1.68 1.15 2.46-1.05 2.48-.76 0-1 .57-1.22 1-1.15 2.14-3 3.71-4.54 5.49-2.65 3.05-3.85 10.49-2 14.19a13.31 13.31 0 009.27 7.11c2.22.56 2.83 1.5 1.7 3.57a34.3 34.3 0 01-3.26 5.22c-2.62 3.27-4.49 7-7 10.4-1.65 2.18-3 4.62-4.58 6.89-1.95 2.79-3.7 5.75-5.58 8.61-1 1.57-2.38 2.9-3.18 4.64-1.73 3.76-4.44 6.94-6.55 10.48-1.74 2.93-3.6 5.86-5.45 8.76-.66 1-.77 2.33-1.51 3.4s-2.51 2.11-2 2.78c1.23 1.65-1.13 1.41-1 2.53.09.61-.72 1.57-1.08 2.41a86.28 86.28 0 00-3.27 10.74 49.77 49.77 0 00-1.47 18.29 87.77 87.77 0 001.47 10.21 91.59 91.59 0 011.6 11.17c.14 1.8 1.7 3.15 1.65 4.9a14.83 14.83 0 001.72 6.68c2.75 6 4.47 12.47 8.62 17.74 1.19 1.51 1.27 3.59 2.75 4.88 2.45 2.14 3.62 5.22 5.73 7.65 2.65 3 5.58 5.82 8.21 8.9 2 2.37 4.83 4.05 7.13 6.22 2.72 2.56 6.06 4.2 9 6.37 3.34 2.43 7.18 4 10.87 5.78a76.56 76.56 0 0010.39 4.41c3.13 1 6.31 1.9 9.38 3 3.3 1.24 6.76 1.69 10.13 2.54a28.58 28.58 0 003.9 1c5 .54 10 1.08 14.9 1.79 5.76.82 11.49 1.8 17.34 1.65a44.32 44.32 0 016.8.46c5.94.77 11.92.61 17.88.72a79.87 79.87 0 0011.45-.83c3.21-.42 6.53-.14 9.65-1.11 4.25-1.33 8.67-1.81 13-2.61 3.66-.67 7.23-1.69 10.83-2.56s6.92-2.35 10.46-3.22a72.92 72.92 0 0014.61-5.23 11.33 11.33 0 012.11-1c4.44-1.06 8.31-3.45 12.26-5.53a131.66 131.66 0 0015.95-10.38 71 71 0 008.56-7.42c2.84-2.87 6.2-5.35 8.34-9 1-1.71 2.87-2.81 4.13-4.53 2.18-3 4.14-6.14 6.57-9s2.89-6.78 5.62-9.45c.09-.09.09-.26.12-.4 1.1-4.74 3.7-8.93 4.54-13.84.71-4.19 1.81-8.28 2-12.6a46.33 46.33 0 00-5.26-24.22 2 2 0 01-.4-1.39c.33-1.86-.73-3.24-1.66-4.62-.73-1.09-1.79-2.31-2-3.33-.74-3.95-2.58-7.55-4.13-11.08-1.88-4.28-3.86-8.56-5.5-12.92-1.43-3.79-3.65-7.15-5.11-10.95-1.73-4.47-4.08-8.8-6.22-13.16-3.28-6.71-4.9-13.83-6.59-21-.62-2.61.09-5.28-.49-7.89a1.61 1.61 0 01.45-1.58 27.84 27.84 0 004.93-6.34 7.59 7.59 0 001.15-5c-.31-1.71-.25-3.92-2.78-4.39-.54-.1-.14-.7-.12-1.08.08-1.65 1.64-2.37 2.26-3.68 2.31-4.88 4.13-10 6.24-14.92 1.71-4 1.36-8.41 2.78-12.47a30.09 30.09 0 001.28-6.73c.14-1.25.6-2.67-.51-3.84-.28-.3-.14-.63.17-.57 1.07.21.74-.52.84-1 1.04-5.43.9-10.9.86-17.37zM465.68 799.18a7.2 7.2 0 002 2.15c1.47 1 3.27-.32 4.75.69.2.13.76.13.8 0 .43-1 .86-.79 1.45-.13a1.26 1.26 0 001 .2c2.79-.29 5.74.88 8.39-.85.19-.12.57 0 .84.07 1.18.37 2.32 1 3.62.56 2-.62 4.41-.31 6-2.16 4.24.74 7.39-2.55 11.34-3.16 2.05-.31 3.87-2.19 5.75-3.44 1.28-.86 2.34-2.26 3.73-2.71a7.73 7.73 0 005.09-4.17c.19-.43.29-.9.75-.72 1 .41 1.35-.41 1.89-.89 2.53-2.26 3.75-5.41 5.43-8.23 2.08-3.49 2.3-7.56 2.43-11.45a9.56 9.56 0 00-2-6.24c-1-1.26-2-2.52-3-3.8a11.63 11.63 0 00-6.32-4.15c-.78-.2-1.82-.32-1.45-2 1.36-6.3.81-12.82 1.8-19.19.6-3.9.8-7.86 1.37-11.76.74-5.07 1.73-10.09 2.48-15.16.53-3.56.43-3.57 3.55-2.15 4.18 1.91 8.43 3.68 13.14 3.57a59.72 59.72 0 0013.86-2.06c5.62-1.49 11.35-2.78 16.53-5.68 2.63-1.48 5.55-2.42 8-4.25a56.84 56.84 0 0010.43-10.36 78.26 78.26 0 004.88-6.29 40.82 40.82 0 006.43-19c.38-5.42.45-10.84-1.27-16.14-.51-1.56-1.13-3.44.37-5 2.73-2.75 3.38-6.72 5.75-9.68a16.62 16.62 0 002.6-6.14c1.09-4.05 2.4-8.08 2.59-12.36a82.66 82.66 0 00-.68-14.6 33.78 33.78 0 00-2-6.75c-.67-1.85-.73-3.93-1.86-5.62-1.88-2.79-3.05-6.06-5.55-8.44-.66-.63-.16-1.16 0-1.71.66-1.84 1.39-3.66 1.9-5.56.23-.85-.29-1.62.37-2.55a22.91 22.91 0 003.52-9.15c1.92-10.33-.21-20.11-4.53-29.52-1.63-3.55-4.25-6.51-5.9-10-1.47-3.14-4.06-5.41-6.36-7.7a48.22 48.22 0 00-8.23-6.85 93.91 93.91 0 00-11.36-6.47c-2-.88-4.24-.94-6.21-1.66-3.76-1.4-7.46-2.84-11.52-2.7a2.29 2.29 0 01-2.59-1.95v-.05a10.18 10.18 0 00-1.08-2.67 36.32 36.32 0 00-8.25-10.66c-3.22-2.79-7.3-4.49-11.22-6.24-1.27-.58-2.54-1.52-4.16-1.22-1.07.2-2-.38-3-.8a45.15 45.15 0 00-9.25-3.37 75.22 75.22 0 00-16.93-1.41c-7.2.28-14.35.81-20.77 4.46-1.85 1-2.64.41-3.53-1a12.47 12.47 0 00-4.5-4.13 80.54 80.54 0 00-12.74-6.19c-1-.36-2-.78-3.08-1.1-2.83-.88-5.74-1.57-8.48-2.67a39.69 39.69 0 00-11.87-2.6c-7.35-.54-14.21 1.67-20.94 4-5.26 1.85-9.87 5.12-14.53 8.17a61.73 61.73 0 00-7.34 6.26c-2.83 2.55-4.86 5.55-7.13 8.46-1.43 1.83-1.82 4.29-3.7 5.93-.41-1.81-1.52-2.34-3.23-2.45-3.43-.23-6.83-.65-10.27-.85-8.3-.48-16.23.71-23.35 5.21-3.84 2.43-7.61 5.11-10.18 8.95-2.83 4.22-5.9 8.26-8.44 12.74-3.12 5.51-4.61 11.4-6.44 17.27-.41 1.32-.92 3.14-.27 3.88 1.35 1.54-1.43 1.73-.55 2.8v.21c0 7.25.49 14.4 3.9 21 .6 1.16.49 2-1 2a2.63 2.63 0 00-2 1 86.59 86.59 0 00-7 8.66 47 47 0 00-5.08 9.81 32.19 32.19 0 00-2.42 9.08 37.6 37.6 0 001.11 14.51c1.34 4.64 2.5 9.36 4.49 13.74a36.42 36.42 0 0011.26 13.52 103.6 103.6 0 0011.69 8c4.34 2.53 8.53 5.14 13.45 6.37.76.18.48.72.19 1.13a10.06 10.06 0 00-1.89 5.72c0 3.12-1.67 7.17 3.42 8.26.1 0 .19.21.25.33.7 1.47 2.24 1.72 3.52 2.22s2.46.34 3.57 1.08c1.65 1.1.19 2.45.3 3.66.36 4-.43 8 .4 11.92.68 3.18 0 6.5 1.2 9.62 1.1 2.82 2 5.73 3.07 8.57 1.36 3.65 2.74 7.31 4.23 10.91.78 1.87 2.14 3.55 2.63 5.47 1 3.94 3.37 7.17 5.1 10.72a67.24 67.24 0 005.83 9.25c2.21 3.12 3.54 6.92 7.13 8.94a1.53 1.53 0 01.47.7c.54 1.39 1.74 2.11 2.78 3.06 1.91 1.74 4.26 2.82 6.19 4.46 3.64 3.12 7.69 5.68 11.53 8.54 2 1.47 4.59 1.81 6.69 2.92 3.58 1.9 7.43 2.36 11.21 3a86.8 86.8 0 0020.24 1 54.06 54.06 0 0011.29-1.9c1.17-.33 1.44-.19 1.32.74-.47 3.86-1 7.7-1.61 11.55-.11.74-.25 1.6-1.33 1.56-4.12-.16-7.36 2.21-10.75 4a10.17 10.17 0 00-5.46 7.82c-.4 2.61 1.32 4.35 2.3 6.4 1.42 3 4.22 4.57 6.73 6.3 2.35 1.62 4.6 3.67 7.37 4.38a39.36 39.36 0 016.62 2.47 1.87 1.87 0 002.55-.73c.07 3.37 2.91 1.48 4.3 2.35.67.31 1.54-.51 1.44-1.73zm256-421.46c-.94-3.12-1.93-6.37-2.88-9.64-.26-.9-.62-1.58-1.72-1.51-2 .13-3.74-.6-5.58-1.12-1.12-.32-2.35-.72-2.92.82-.69 1.85-1.58 3.55-1.64 5.71a26.58 26.58 0 01-.72 6.53c-.36 1.25-1 2.08-2.26 2.14-4.88.23-9.66 1.62-14.59 1.23-1.77-.14-1.42 1.77-2.33 2.47-.33.26-.4.63 0 .86 2 1.1 3.49 2.83 5.65 3.65 3 1.14 5.88 2.41 8.81 3.64.58.24 1.4.5 1.12 1.31-.91 2.65-.62 5.63-2.43 8a24.22 24.22 0 00-2.1 3.71c-1.8 3.48-1.42 4.17 2.55 4.69.35.05.76-.09 1.06.05 1.72.79 2.43-.22 3.17-1.54s1.47-3.09 2.59-3.44c2.28-.71 3-2.66 4.27-4.11 1-1.12 1.5-1.27 2.72-.31 2.5 2 4.53 4.6 8 5.21 1.63.28 3.38-.16 4.93.85.36.23 2.39-3.7 2.16-4.43-1.21-3.84-2.41-7.7-3.71-11.52-.49-1.46-.44-2.42 1-3.42a66.26 66.26 0 007.34-5.82 5.67 5.67 0 002.05-3.55c0-1.33-1.87 0-2.65-.87-.16-.18-.52-.18-.8-.25-3.64-.94-7.27-.42-11 .66zm-342.63-125c1.66.74 2.5-.57 3.12-1.49.78-1.16-.58-1.82-1.24-2.58a9.51 9.51 0 00-1.67-1.91c-1.2-.79-1.05-1.55-.49-2.66a33.52 33.52 0 002.7-6.24c.14-.51.37-1.49-.11-1.51a16.43 16.43 0 01-5.79-1.59 1.84 1.84 0 00-2.08.16c-1.34 1-2.61 2.54-4.17.29-.06-.08-.27-.1-.41-.1-2.09.11-3.78-1-5.55-1.84-.95-.43-1.67-.25-2 .52-.5 1.26-1.47 2.39-1.23 3.93a38 38 0 00.56 4.63c.36 1.32-.3 1.6-1.18 2a12.54 12.54 0 00-6.12 5.47c-.87 1.66.23 2.15 1 2.24 1.51.17 2.85 1 4.34 1 1.16 0 1.56.54 1.39 1.59-.29 1.74.63 2.77 2 3.54.2.11.77-.06.54.35-1.11 2 1 1.64 1.57 1.82a15 15 0 014.28 1.93c.69.51.86.15 1.13-.19a22 22 0 004.11-6.42c.38-1.06.47-2.3 1.31-3.1 1.09-1 2.1.06 3.14.33a1.58 1.58 0 00.9-.14zm-336 268.15c-.24.11-.36.21-.49.21a2.83 2.83 0 00-2.92 2.06c-.23 1.31 1.38 1.45 2.39 1.91 1.48.68 3.34 1 3.58 3.2.08.76 1 1.41 1.88 1.6 2.81.62 5.56 1.57 8.47 1.67.35 0 .9-.1 1 .06 1 1.5 1.74.62 2.59-.12 1.72-1.49 2.06-3.81 3.43-5.54a8.83 8.83 0 001.67-6.11c-.08-1.61-1.32-2.7-2.52-1.91-1.37.89-2.6.12-3.87.15s-2.13-.85-3.26-1.2c-2.14-.66-4.55-.36-6.44-1.59-1.59-1-3-1.08-4.13.28s-2.72 3-1.32 5.36zm708.51-33.75c1.65.06 3-.05 3.47-1.51a13.76 13.76 0 013.24-5.06c.72-.76 1.47-1.77 1-2.62s1.61-4.05-2.31-2.46c-2 .82-4.86-.59-7.37-.54-.28 0-.78 0-.81-.09-.56-2.44-2.53-1.29-3.92-1.54-1-.18-2.18.09-2.6-1.31-.11-.39-.55-.44-.87-.16-.94.82-2.34 1.37-2.34 2.84 0 2-1.19 3.17-2.46 4.42-1.51 1.48-.75 3.45 1 4.5a12.93 12.93 0 005.47 1.53c3.07.29 5.62 2.63 8.5 2zm-144.68 253.2c-.74-.7.39-1.84-.37-1.79-1.21.08-2.66-.55-3.43-.13a2.26 2.26 0 01-2.66-.24c-1.27-2.25-3.49-1.5-5.31-2-.33-.08-.76 0-.92-.38-.65-1.58-1.34-.7-2 0a3.92 3.92 0 00-1.51 3.15 2.72 2.72 0 01-1.26 2.31c-.49.42-1.79.81-1.23 1.55 1 1.27.51 3.26 2.43 4a31.08 31.08 0 0013.86 2.15l-1.13 1.43c1.42-.2 2.64-.31 2.73-1.82a4.22 4.22 0 011.73-3c2.56-2.29 3.24-5.2 1.88-7.9-.69 1.19-2.17 1.35-2.81 2.67zm-201.44-627.2c.55 2.72 3.93 6.72 6.13 6.63a16.32 16.32 0 003.82-.17 10 10 0 013-.71c1.89.43 2.81-.25 3.6-1.71.19-.35.28-.54.88-.18 1.1.64 2.86-.68 2.88-2 0-.41 0-1-.62-.79-1.44.5-1.64-.47-2-1.44a4.44 4.44 0 00-2.91-2.47c-.28-.09-.92.37-.72-.51.45-2-1.28-2.23-2.28-2.06-2.09.34-4.84-.86-6.08 2.07-.05.12-.35.14-.54.18a3.74 3.74 0 00-2.74 3.94zM269.89 512.5c-.1-1.37-.7-3-2.31-3.17a21 21 0 01-7-2.21 3 3 0 00-3.8.7 32.48 32.48 0 00-2.67 3.73c-.36.5-.81 1.35-.15 2 1.64 1.51 2.62 3.87 4.94 4.44 2.11.51 3.86 2.23 6.36 1.57 1.66-.44 1.65-2.16 2.91-2.88s1.68-2.39 1.72-4.18zm-.19-330.58c1.61-2.11 4-1.74 5.75-3 1.48-1 2.65-2.42 4.19-3.38 2.22-1.38 2.21-2.38 0-3.73a11.77 11.77 0 01-3.56-3.57c-.4-.57-.93-1-1.5-.77-1.3.6-2.76.57-4 1.49s-2.42 1.8-3.42 2.68c-.82.72-1.71.24-2.32 1-1.19 1.45-.81 2.76 1.06 4.57 1.3 1.36 4.1 1.46 3.8 4.71zm4.84 512.32c3.2-.12 6-2 6.85-3.9s.45-4.93-1-5c-3.12-.18-5.59-2-8.38-2.89-1.48-.5-2.78-.38-3.67 1.11a18.56 18.56 0 01-1.52 2.29c-.86 1-.72 5.08.47 5.63a32.27 32.27 0 007.25 2.76zm-86.9-140.07v-1.38c-.17-2.66-3.07-6.36-5.35-6.35a12.58 12.58 0 01-4-.68c-1.78-.6-2.4 0-3.12 1.61-1.51 3.21 2.18 10.34 5.32 11.31 4.51 1.44 6.59.61 7.15-4.51zm117.62 87c.84-.09 1.69-.12 2.52-.28a4.31 4.31 0 003.21-3.75c.08-2-1.27-2.66-2.92-3-3.18-.67-6.35-1.41-9.55-2-2.89-.5-4.18.22-4.94 2.7a17.76 17.76 0 00-.17 3c-.27 2.11.85 2.85 2.7 2.86 3.09 0 6.09 1.51 9.15.42zm75.94-593.4a1.25 1.25 0 001.57-.31 30.85 30.85 0 002.89-4.16c1.19-2.39.23-3.69-2.34-4.19a24 24 0 01-6.41-2c-2.56-1.33-2.83-1.51-4.84.57a17.2 17.2 0 00-2.76 3.75 1.68 1.68 0 00.3 2.37 1.6 1.6 0 00.7.32 41.46 41.46 0 005.95 2.17c1.63.33 2.94 1.71 4.94 1.48zM658 549.91c-.1-1.47-.11-3-.3-4.41-.23-1.67-1.84-2.88-2.92-2.35-1.91.93-3-.77-4.5-.68-.19 0-.58-.31-.66 0-.41 1.59-2.38 2.33-2.12 4.34a14 14 0 01-.15 4.74c-.3 1.31-.93 2.27.77 3.14 1.12.58 2.19 1.46 3.43 1.48a7.77 7.77 0 013.77.62c.15.09.16.69.42.13 1.01-2.24 3.18-4.12 2.26-7.01zm-32.5 113.26c-.83.6-2.7-.37-2.57 1.4.08 1.07.47 2-.36 3 .85.62 1.44 1.5 2.36 2.09 1.61 1 3.61.82 5.19 1.78s2.65.52 4-.24 1.73-2.39 2.89-3.36.87-2.38.54-3.74-1.46-1.07-2.39-1.1a4.49 4.49 0 01-1.57-.53 50.88 50.88 0 00-5.94-2.17 3 3 0 00-3.41 1.62c-.79 1.34 1.11.46 1.22 1.25zm-6.55-70a7.38 7.38 0 004.24 1.79c1.5.11 3.09.28 4.65.28s3.76 1.21 4.19-1.77c0-.15.29-.29.47-.41 1.35-.94 3.43-1.4 2.54-3.84-.17-.44.29-.38.47-.51 1.52-1.08.61-1.34-.44-2.06-1.81-1.24-4.41-.21-5.89-2.31-.37-.51-1 .17-1.39.59a6 6 0 01-4.07 2.39c-1.91.2-2.9 1.39-3.51 3.16-.32 1 .48 2.37-1.26 2.71zm-479.24-9.4c.09-1.12 0-2.42-1.58-2.61a17.29 17.29 0 01-5.64-1.92c-3.44-1.7-6.83.57-6.93 4.49 0 2.13 1.24 3.36 2.64 4.49a10.28 10.28 0 006.8 2.13c2.34-.07 4.61-3.76 4.71-6.56zm89-460.65c.56-.08 1.14.39 1.61-.2a26.86 26.86 0 003.39-4.33c1.2-2.36.18-3.9-2.5-4.18a10 10 0 01-3.34-1.14c-1.77-.84-3.56-1.88-5.73-1.34s-1.32 3.3-3.26 3.86c.06.18.07.48.19.54 1.05.51.64 1.53.91 2.31s.02 1.84 1.02 2.36a28.85 28.85 0 007.62 2.12zm408.37 314.14a2.87 2.87 0 012.78.52c.43.42 1.26.43 1.32.19.49-1.82 2.91-2.65 2.52-4.87-.27-1.51-.57-3-.93-4.51-.14-.59-.33-1.35-1.21-1.18-2.76.54-5-1.54-7.72-1.53-1.44 0-2-.08-2.08 1.35 0 .52.17 1.09-.54 1.45-1.89 1-1.06 2.34-.34 3.55a10.32 10.32 0 001 1.53 9.28 9.28 0 005.2 3.5zM266.2 639.81c2.58-.16 2.65-.18 3.26-1 2.06-2.71.83-5.87-2.61-6.71l-6.85-1.68a4.29 4.29 0 00-5.32 2.92 3.43 3.43 0 00-.14.71 1.23 1.23 0 00.32 1.18 20 20 0 004.16 3.16 13.33 13.33 0 007.18 1.42zm46.06-220.23c.18-1.06-.32-1.7-1.48-2.07-1.68-.54-3.31-1.25-5-1.87-3.78-1.43-3.78-1.42-6.08 1.94-.19.29-.55.45-.77.71a2.39 2.39 0 00-.52 2.54c.83 2.67 3 3.81 5.35 4.27 1.47.28 2.82 1.54 4.49.82 1.36-.58 4-4.69 4-6.34zM254.1 184.12a16.22 16.22 0 00-5.07 2.24c-2.27 1.77-2.2 3.26-.51 5.61.69 1 2.15.8 2.2 1.49.12 1.72 1.7 1.38 2.34 2.11 1.48 1.69 1.85-.29 2.71-.56.27-.08.48-.37.74-.42 1.94-.38 2.8-2 3.9-3.34.59-.72.23-1.55-.31-1.44-1.79.38-1.76-1.13-2.16-1.95a10.14 10.14 0 00-3.84-3.74zM580.77 451a6.11 6.11 0 004.79-2.7c1.28-2.25.44-3.76-2.06-4.21a19.93 19.93 0 01-5-1.69c-1.21-.56-2.25-1.64-3.64-1.63-1.81 0-1.68 2.08-2.59 2.88-2 1.73-.53 3.07.37 4 2.36 2.25 5.56 2.71 8.13 3.35zm53.17-38.44c.22-1.61 1.12-2.22 1.76-3s.33-2.06.32-3.09a28.58 28.58 0 00-.43-3.56c-.09-.6-.26-1.13-1.1-.75-.36.16-.66.41-1.21-.11-1.34-1.25-3.38-.72-5-1.7-.69-.42-2-.22-2.7 1.57-.83 2.16-1.21 3.7.53 5.36.12.11 0 .41.07.62.24 2 2.53 3.86 4.49 3.33 1.37-.41 2.22 0 3.27 1.33zm7.83 165c-.51 2.2 1.12 1.6 1.73 1.85 1.55.61 3.55 1.58 4.86.43 2.66-2.34 3.48-5.82 4.35-9.15.1-.38 0-1.15-.44-1-1.3.52-2.14-.88-3.42-.57-1 .23-2-.28-3.07-.3-1.55 0-1.44-.26-2.12 1-1.37 2.63-2.84 5.13-1.89 7.75zm41.08 20.43c1.32.64 1.87 1.42 1.07 2.73a1.12 1.12 0 00.18 1.58 1.07 1.07 0 00.58.23c1.42.27 2.56 1.15 4 1.45 3.8.81 5.43.17 7-3.3.46-1 1.06-2.66-.4-3.1-2.84-.86-5.61-1.88-8.38-2.92-1.16-.43-2.48.57-2.18 1.28.84 2.09-1.05 1.32-1.87 2.06zM412.48 204.58c-.08-.65 0-1.83-1.06-1.81-2.92.07-5.29-1.5-7.88-2.42a1.68 1.68 0 00-2.28.64l-.06.13c-.45.76.09 2.2-1.55 2.16-.27 0-.34.5-.07.68 1.28.89 2.85 1.51 2.7 3.51 0 .12.47.26.71.41a10 10 0 004 1.22 4.91 4.91 0 005.46-4.3zm233.84 559c-1.48-.17-2.36.16-3.23-.34-2.73-1.55-2.72-1.5-4.83.75a1.51 1.51 0 00-.42 1.53.5.5 0 00.44.28c.55-.09 1.11-.17 1.2-.94.2-1.54 1.09-1.23 2.18-.9a5.22 5.22 0 004.66-.37zM501 810.68a22.63 22.63 0 002.46-.19 1.46 1.46 0 001.14-.88c.32-.74-.44-.77-.73-1.08-1.34-1.38-2 .49-3.07.7-.38.07-1.37 0-1.1.88.19.66.9.57 1.3.58zM319.32 36.88c-1.4.7-.5 1.72-.74 2.46-.17.55-.63 1 .27 1.14s1-.59 1-1a15.37 15.37 0 00-.53-2.6zM680.08 328.5c-.39-.74.07-1.9-1-2.09-.65-.11-.31.56-.44.89-.64 1.59 1 .7 1.44 1.2z" class="cls-2"/><path d="M163.65 129.74c-.31-.06-.69 0-.66-.52 0 0 .09-.13.14-.14.47 0 .48.33.53.66zM715.7 709.63l-.15.55c-.39-.31 0-.4.16-.55zM78.12 214.26v.15s-.13.06-.17 0-.18-.19 0-.25zM89.12 202.12l-.17-.21.2.19zM450.2 809.43l.18.08-.17-.1z" class="cls-2"/><path d="M659.59 122.83c0 6.47.18 11.94-.84 17.34-.1.5.23 1.23-.84 1-.31-.06-.45.27-.17.57 1.11 1.17.65 2.59.51 3.84a30.09 30.09 0 01-1.28 6.73c-1.42 4.06-1.07 8.43-2.78 12.47-2.11 5-3.93 10-6.24 14.92-.62 1.31-2.18 2-2.26 3.68 0 .38-.42 1 .12 1.08 2.53.47 2.47 2.68 2.78 4.39a7.59 7.59 0 01-1.15 5 27.84 27.84 0 01-4.93 6.34 1.61 1.61 0 00-.45 1.58c.58 2.61-.13 5.28.49 7.89 1.69 7.16 3.31 14.28 6.59 21 2.14 4.36 4.49 8.69 6.22 13.16 1.46 3.8 3.68 7.16 5.11 11 1.64 4.36 3.62 8.64 5.5 12.92 1.55 3.53 3.39 7.13 4.13 11.08.19 1 1.25 2.24 2 3.33.93 1.38 2 2.76 1.66 4.62a2 2 0 00.4 1.39 46.33 46.33 0 015.22 24.31c-.17 4.32-1.27 8.41-2 12.6-.84 4.91-3.44 9.1-4.54 13.84a.47.47 0 01-.12.4c-2.73 2.67-3.26 6.69-5.62 9.45s-4.39 6-6.57 9c-1.26 1.72-3.12 2.82-4.13 4.53-2.14 3.62-5.5 6.1-8.34 9a71 71 0 01-8.56 7.42 131.66 131.66 0 01-16 10.38c-4 2.08-7.82 4.47-12.26 5.53a11.33 11.33 0 00-2.11 1 72.53 72.53 0 01-14.54 5.23c-3.54.87-6.92 2.36-10.46 3.22s-7.17 1.89-10.83 2.56c-4.34.8-8.76 1.28-13 2.61-3.12 1-6.44.69-9.65 1.11a79.87 79.87 0 01-11.45.83c-6-.11-11.94.05-17.88-.72a44.32 44.32 0 00-6.8-.46c-5.85.15-11.58-.83-17.34-1.65-5-.71-9.92-1.25-14.9-1.79a28.58 28.58 0 01-3.9-1c-3.37-.85-6.83-1.3-10.13-2.54-3.07-1.14-6.25-2-9.38-3a76.56 76.56 0 01-10.39-4.41c-3.69-1.8-7.53-3.35-10.87-5.78-3-2.17-6.32-3.81-9-6.37-2.3-2.17-5.11-3.85-7.13-6.22-2.63-3.08-5.56-5.86-8.21-8.9-2.11-2.43-3.28-5.51-5.73-7.65-1.48-1.29-1.56-3.37-2.75-4.88-4.1-5.32-5.79-11.81-8.57-17.81a14.83 14.83 0 01-1.72-6.68c.05-1.75-1.51-3.1-1.65-4.9a91.59 91.59 0 00-1.6-11.17 87.77 87.77 0 01-1.47-10.21 49.55 49.55 0 011.42-18.3 85.74 85.74 0 013.25-10.71c.36-.84 1.17-1.8 1.08-2.41-.16-1.12 2.2-.88 1-2.53-.49-.67 1.35-1.78 2-2.78s.85-2.37 1.51-3.4c1.85-2.9 3.71-5.83 5.45-8.76 2.11-3.54 4.82-6.72 6.55-10.48.8-1.74 2.15-3.07 3.18-4.64 1.88-2.86 3.63-5.82 5.58-8.61 1.59-2.27 2.93-4.71 4.58-6.89 2.54-3.35 4.41-7.13 7-10.4a34.38 34.38 0 003.29-5.21c1.13-2.07.52-3-1.7-3.57a13.31 13.31 0 01-9.27-7.11c-1.81-3.7-.61-11.14 2-14.19 1.55-1.78 3.39-3.35 4.54-5.49.26-.46.46-1 1.22-1 2.2 0 2.06-.8 1.05-2.48-2.11-3.5-2.93-7.54-4.19-11.39-1.48-4.56-3.26-9.06-4.24-13.72a68.76 68.76 0 01-1-19.05 57.07 57.07 0 014.26-17.72c1.39-3.41 2.52-7 5-10q4.11-5.06 8.47-9.87c1.07-1.17 2.68-1.9 3.91-3 3.18-2.9 6.68-5.5 9.53-8.68 2.35-2.64 3.66-6 4.68-9.53s3-6.76 5-10a26 26 0 018.55-8.71c3.62-2.26 7-4.93 11.4-6.13 3.32-.92 6.48-2.61 9.81-3.68a66.48 66.48 0 0111.67-2.68c5.47-.76 11-.58 16.46-1.54a14.54 14.54 0 013.61 0c2.15.17 4.2-.61 6.37-.52s4.3.55 6.49.57c3 0 5.94.54 8.92.71 5.77.33 11.47 1.06 17.19 1.91 5.36.81 10.47 2.77 16 2.94 2.07.07 4.1 1.3 6.15 2 1.1.36 2.25.56 3.36.84 2.17.56 4.93.9 6.18 2.39 1.42 1.69 2.9.42 4.15 1.24 2.24 1.48 4.94 1.9 7.41 2.87a29.28 29.28 0 016.18 2.77c1.15.79 3.13 1.06 4.41 2.18 1.73 1.54 4.11 1.61 6 3 4.38 3.29 8.71 6.62 12.94 10.12 3.78 3.13 6.74 6.89 9.9 10.48 1.81 2.07 2.95 4.76 4.23 7.26.41.81.81 1.62 1.27 2.42 1.09 1.87 2.44 3.65 2.22 6-.13 1.34.83 2.37 1.31 3.52 2.74 6.71 2.61 13.73 2.48 19.75zm-24.83 244.61c1.11-.92 2.64-1.39 3.13-2.95 2.66-2.46 5.37-4.81 7.81-7.54s4.39-5.65 6.67-8.4c1.67-2 2.58-4.5 4-6.48a43.19 43.19 0 004.47-8.68c1.65-3.77 2.32-8 3.41-12a42.08 42.08 0 00.84-17.9c-.49-3-1.8-5.77-2.31-8.74a38 38 0 00-3.73-10.07c-2.52-5.13-4.4-10.52-6.8-15.69-2.67-5.77-4.8-11.8-7.56-17.53-1.65-3.39-2.87-7-5-10.19-1.87-2.82-2.39-6.29-4.09-9.25-1.26-2.2-1.93-4.73-3.08-7s-.82-4.53-1.54-6.69c-1.22-3.62-2.1-7.24-1.65-11.11.11-.92-.63-2.13-1.52-1.77-2.3.93-4.42.59-6.91-.28.5 3.61-.29 7-.36 10.49a15.36 15.36 0 01-.71 5c-1.54 4.07-2.46 8.32-4.55 12.24-1.56 2.94-2.57 6.2-4.66 8.87s-3.11 6.34-6 8.54c-1.38 1-1.9 2.9-3.12 3.87a19.72 19.72 0 00-3.73 3.39c-2.5 3.59-6.34 5.45-9.48 8.16-1.67 1.43-3.92 2.4-5.76 3.73-2.61 1.89-6.7.92-8.36 4.48 0 .08-.26.08-.39.13a66 66 0 01-8.09 2.66 43.36 43.36 0 00-5 1.59c-.5.17-1.22 0-1 1.14.43 2.41.58 5 1.75 7.1 1.9 3.41 4.35 6.51 6.51 9.79 3.38 5.14 8.64 7.75 14 10.17 2.08.94 4.53.87 6.53 2.38.87.66 2.11.65 1.81 2.25-.19 1.07.42 2.27-.6 3.19-2.76 2.45-4.53 5.74-7.06 8.39-1.91 2-3.47 4.42-5.59 6.15-3.14 2.56-5.92 5.61-9.88 7.17a75.61 75.61 0 01-7.9 3.16c-1.61.43-3.55-.49-4.88 1.19-.08.09-1.14.62-1.12-.53 0-.35-.46-.26-.58 0-.86 1.66-2.47 1.45-3.86 1.44-4.65 0-9.31-.49-13.93-.24a52.6 52.6 0 01-8.42-.11c-2.18-.22-4.13-1.19-6.32-1.5-3.18-.44-6.7-.85-9-3.7-.22-.27-.7-.61-.79-.16-.39 1.94-1.38.53-1.92.3-3-1.27-6.14-2.11-9.06-3.71s-6.26-3.19-9.34-4.85-5.85-3.57-8.8-5.3c-.82-.48-1.92-.53-2.67-1.08-2.56-1.9-5-4-7.52-5.91-.44-.34-.95-.8-.59-1.18 1.46-1.57 2.08-4 4.52-4.58 3.24-.73 5.7-2.92 8.54-4.37 2-1 3.73-2.4 6-3a23.57 23.57 0 0012.25-8.45 3.5 3.5 0 01.86-.9 11.9 11.9 0 003.84-4.4 40.88 40.88 0 004.26-10c.57-2.26.49-3.68-2.31-3.61-.39 0-.55-.44-.82-.57a62.94 62.94 0 00-8.55-3.94 24.9 24.9 0 01-7.38-4.2c-3.06-2.24-6.55-4-9.09-6.93-1.94-2.27-5.44-3.24-5.77-6.87 0-.36-.24-.32-.55-.37a4.47 4.47 0 01-2.9-2.33c-2-3-3.83-6.06-5.51-9.22a62.52 62.52 0 01-5.91-17 54.11 54.11 0 01-1.3-9.4c-.07-2.4.82-4.78.27-7.31-1 .32-1.73.92-2.83.33-2-1.07.07 1.62-1.17 1.43a.81.81 0 00-.22 0c-3.77 1.28-7.74 1.17-11.64 1.49a1.73 1.73 0 00-1.67 1c-1.28 2.13-1.22 4.77-2.65 6.8-2 2.76-3 6-4.78 8.81-.85 1.33-.84 2.94-2 4.09-2.77 2.81-4 6.65-5.93 10-1.76 3-4.07 5.83-4.86 9.37-.2.89-1.45 1-1.66 1.81-.78 2.92-3.22 4.95-4.08 7.81-.25.8-.31 1.84-.86 2.33-2.8 2.51-3.76 6.09-5.47 9.2a52.35 52.35 0 00-5.33 13.11c-1.43 5.89-2.71 11.81-2.37 17.79a100 100 0 002.2 17.32c1 4.14.8 8.52 2.6 12.51a46.85 46.85 0 011.66 4.75c1.53 4.63 3 9.26 5.69 13.4s4.36 9 8.12 12.4a1.3 1.3 0 01.32.54c.89 2.83 3.14 4.58 5.16 6.51 1.25.66 1.25 2.18 2.28 3.09 3.7 3.27 7.26 6.68 11.09 9.82 3.67 3 7.88 5 11.78 7.62a6 6 0 002.73 1.46c.77 1.53 2.44 1 3.65 1.58a56.18 56.18 0 0010.82 3c4.07 1.85 8.57 1.9 12.85 2.77 10.09 2.06 20.49 1.46 30.69 2.74 4.16.53 8.34.41 12.51.59a120.6 120.6 0 0014.72-.56c3.9-.32 7.68-1.39 11.63-1.36 5.08 0 9.85-1.92 14.83-2.7 4.34-.68 8.54-2.66 12.91-3.71 2.66-.77 5.56-.86 8-2.3 2-1.18 4.37-1 6.21-2.38a45.65 45.65 0 006.91-2.33c5-2.21 9.92-4.83 15-7.1a1.9 1.9 0 001.44-.56 36 36 0 016.32-4.55c3.37-1.7 5.81-4.65 9.16-6.3.03-.04.03-.4.09-.6zm-167.89-164a51.24 51.24 0 00.69 5.53c1.28 5.68 2.08 11.46 3.88 17.06a46.21 46.21 0 003.42 8.38 120.08 120.08 0 006.65 11.26 64.43 64.43 0 009.8 10.74 85 85 0 0013.11 9.68 59.5 59.5 0 0011.78 5.19 47.41 47.41 0 009.68 1.76 63.31 63.31 0 0016.84-.13 102.43 102.43 0 0017.82-3.8 71.86 71.86 0 0021-11.05 60.55 60.55 0 005.64-4.48 101.14 101.14 0 0011-12.46c1.18-1.63 2.54-3.2 3.54-4.89 1.13-1.91 1.59-4.21 2.82-6.2 3.14-5.08 3.44-10.9 4.16-16.64.5-3.93.57-7.87 1-11.76.43-1.2.28-2.67 1.51-3.54 1.52-1.79 3-3.61 4.56-5.35a3.11 3.11 0 012.36-1.27 2.47 2.47 0 002.32-1.53c2.08-3.46 3.72-3.62 7.35-1.7 1.35.71.88 1.23.45 1.71-2.14 2.39-2.76 5.54-4.29 8.17 5.94.57 10.32-3.08 15.2-5.2-.33-.95-.91-.17-1.42-.5 1.18-1.95.58-4.07.43-6.13a2.17 2.17 0 00-2.15-2.17h-.22a45.91 45.91 0 01-4.82-.33c-2-.21-4.07-1.21-6-.15s-3.29.19-5-.27c-2.39-.65-2.51-2.3-2.31-4.24a5.4 5.4 0 000-1.27c-.3-1.81.42-3.52.36-5.39-.2-6 .32-11.95.49-17.93.08-2.42 0-2.39-2.33-1.69a31.57 31.57 0 01-14.19 1 42.35 42.35 0 00-6.17 0c2.67 2.25 3.94 4.84 5.62 7.14a2.08 2.08 0 010 2.93 1.64 1.64 0 01-.33.26 4.94 4.94 0 01-1.48-.57 22.1 22.1 0 00-4.29-2.6c-4.86-1.74-10-2.2-15-2.77a26.28 26.28 0 00-16.27 2.89c-1 .6-2.12 1.12-3.18 1.67a2.46 2.46 0 01.78-2.68c1.77-1.88 2.88-4.21 4.53-6.16a10.69 10.69 0 013.15-2.6c1.15-.63 3.38-.88 3.17-2.23s-2.37-1.26-3.72-1.74c-2.41-.85-5.14-.7-7.35-1.61-3.43-1.42-7-2.57-10.44-3.8-5.49-1.94-10.73-4.48-16.15-6.56-3.5-1.34-7-2.89-10.59-3.58-4.42-.85-8.77-2.41-13.36-2.36-1.77 0-3.53-.29-5.3.19-.63.17-1.67.62-1.89-.84-.07-.5-1-.21-1.56-.23-.08 0-.16.13-.3.25l1.63 1c-3-.33-5.57.42-8.13.85-4.49.75-9 1.54-13.14 3.51-2.31 1.1-4.28 3-6.4 4.24-3.59 2.17-5 5.7-7.14 8.74-1.48 2.07-2.18 4.68-3.32 7-2.24 4.49-3.5 9.27-4.86 14-1.21 4.25-1 8.72-.79 13.12.07 1.47-.21 2.43-2 1.69a12.51 12.51 0 00-7.9-.48 59.45 59.45 0 00-7.33 1.82 18.8 18.8 0 00-5.57 2.7c-3.33 2.74-3.87 8.12-1.88 11.55 1.38 2.36 3.09 4.3 6.61 4.36 2.29 0 4.49-.42 6.74-.49 1.5-.05 3.25.13 4.68-.86a9.14 9.14 0 00-3.59-2.81c-1.26-.5-2-1.66-3.24-2.25s-1.54-1.68-.34-2.77c-.86-.92.14-1.3.6-1.64.62-.46 1.22.17 1.63.54a4.78 4.78 0 003.85 1.37 2.89 2.89 0 012.59 1.18 5.43 5.43 0 002.58 1.64c1.69.71 3 2.25 5.06 2.19a2.33 2.33 0 011.65 1.22c.55 1.18 1.6 1.54 2.58 2.07a.85.85 0 00.11.26c0 .22-.52.83.34.82zm-16.33-27a22 22 0 01-.32-11.19c.59-2.46 1.44-4.85 2-7.29a39.59 39.59 0 011.84-5.81c1.12-3 3.09-5.79 4.66-8.63a42.06 42.06 0 017.63-9.73 32.51 32.51 0 0115.1-8.75c1.08-.25 1.82-1.16 2.84-1.28 4.24-.5 8.25-2 12.58-2.36a67.2 67.2 0 0126.51 2.72c2.77.88 5.33 2.56 8.42 2.31a2 2 0 011.13.39c2.41 1.68 5.39 2 8 3.34a48.2 48.2 0 009.27 3.36c1.84.47 3.5 1.64 5.34 2.13 5.47 1.45 10.89 3.09 16.49 4.13 5.88 1.1 11.6 3.07 17.54 3.89 7.52 1 14.86.72 21.83-2.84 3.45-1.76 7.15-3 10.63-4.75 2.08-1 4.37-2.28 5.24-4.5a67.55 67.55 0 013.32-6.37 7.54 7.54 0 01.8 2 48.75 48.75 0 01.2 13.38 6.44 6.44 0 01-2.29 4.53 7.24 7.24 0 00-2 2.5 5.52 5.52 0 01-1.59 1.93 1.44 1.44 0 00-.62 1.56c.28 6 1.21 11.94 1 18-.09 2.84 0 5.67 0 8.71a11.4 11.4 0 016.21-.26c1.1.25 2 1 3.14 1a10.82 10.82 0 016.64 2c.91.67 1.23.64 1.37-.64a56 56 0 013.68-13.37c.87-2.35 2-4.66 2.18-7.11.2-2.23 1.47-4.05 1.59-6.32.21-3.83 1.31-7.56 1.71-11.42s.09-7.88.46-11.81c.11-1.16.92-2.4.73-3.29a47.93 47.93 0 01-.88-10.62c.08-5.66-1.82-10.71-3.86-15.7-1.55-3.78-4-7.23-6-10.79-.69-1.19-1.32-2.63-2.39-3.35a7.27 7.27 0 01-3.49-4.82c-.08-.43-.25-.44-.42-.38-1.37.46-1.89-.58-2.62-1.36a40.66 40.66 0 00-3.76-3.43c-1.91-1.6-4-3-6.07-4.47-1.79-1.27-3.37-3-5.51-3.72-1.8-.65-3.27-1.89-5-2.67-3.12-1.43-5.71-3.93-9.42-4.22a8.6 8.6 0 01-4.07-2.07c-.78-.59.43-1.53.27-2.38a3.36 3.36 0 00-.2-.43c-.43.83-1 2.29-1.22 2.25a6.56 6.56 0 01-3.21-.86l-.18-.12c-3.37-2.1-7.31-2.82-11-3.81-3.95-1-7.77-2.56-11.95-3.07-5-.61-9.74-2.54-14.89-2.3a39.41 39.41 0 01-5.43-.62c-3.3-.33-6.5-1.14-9.76-1.64-4.33-.67-8.75-.31-13.14-.6s-8.89.48-13.29.15c-5.34-.4-10 1.75-14.95 3-3.47.89-6.62 3.06-9.93 4.62-1.3.61-2.64 1.12-4 1.65-2 .8-3.56 2.28-5.38 3.35a25.79 25.79 0 00-6.29 4.67c-2.17 2.45-3.08 6-4.24 9.2s-1.4 6.47-3.42 9.25c-1.61 2.2-2.71 4.75-4.86 6.59-2.31 2-3.58 5.06-6.7 6.16-.18.07-.32.29-.44.46a21.24 21.24 0 01-4.1 3.87c-4.31 3.53-8.27 7.12-10.73 12.46a66.63 66.63 0 00-5.35 16.27 93.53 93.53 0 00-.7 25.12c.71 8.08 4.35 15.39 6.39 23.13.15.56.61.39.8.38 2.69-.29 5.29.61 8.14.71zm118.88 131.75c-2.6-1.25-3.26-3.7-4.83-5.38s-2.92-4.16-4.51-5.89a35.09 35.09 0 01-8.4-16.08c-.11-.46-.2-.94-.74-.67-1.17.56-2.4.21-3.58.37-8.74 1.13-17.3 0-25.79-2-1.43-.42-2.37-.32-2.37 1.58a17.81 17.81 0 01-2.27 9.85 70.53 70.53 0 01-11 13.75c-.45.45-1 .76-1.51 1.18-1.38 1.2-3 2.12-4.13 3.61 2.73 1.69 5.56 3.06 8.14 4.76a14.36 14.36 0 004 1.83c2.06.61 4.4 1.13 6 2.22 4.23 2.86 8.9 2.37 13.46 2.72 2.58.2 5.22-.39 7.84-.53a31.2 31.2 0 007.83-1.46c2.84-.91 5.7-1.74 8.53-2.68 4.91-1.63 8.99-4.25 13.33-7.18zM482 315c1.14 1.56 3.12 2.27 4.66 3.61a13.71 13.71 0 004.5 2.79 9 9 0 014 2.21c1.79 2 4.22 2.71 6.39 3.9 4.45 2.41 9.45 3.59 14 5.93a1 1 0 00.81 0c1-.56 1.82-.09 2.67.2a24.59 24.59 0 007.97 1.26h13.91c8.82.08 16.75-2.92 24.14-7.34 3-1.82 5.47-4.59 8.3-6.75a42.18 42.18 0 006.76-6.86c.26-.32.71-.58.52-1.07-.6-1.6-4.79-2.33-5.73-.93-2.43 3.64-6.26 5.45-9.87 7.42a81.69 81.69 0 01-8.73 3.59c-.92.37-1.8 1.1-2.73 1.14-3.29.16-6.38 1.32-9.49 2.12a42.91 42.91 0 01-18.36.37c-7.27-1.3-14-4.75-20.83-7.35a61.91 61.91 0 01-12.76-6.39c-1.3-.88-2.43-2-3.65-2.91-.5-.39-.6-.48-1.2.14-1.69 1.73-4 2.78-5.25 4.95zm-18.73-108.19c1.32-.35 2-1.33 2.88-2.2-1.55-.18-1.55-.18-2.88 2.2zm1.94-4.17c-.11-.19-.19-.52-.37-.59a.42.42 0 00-.47.46.91.91 0 00.4.64c.43.22.28-.26.43-.51zm-4.12 3.28l.06-.14H461zm7.31 10.69l.16-.14c-.05 0-.1-.13-.15-.13s-.11.08-.17.12z" class="cls-3"/><path d="M136.67 420.54c1.28.48 1.58 1.75 2.09 2.78a8.73 8.73 0 002.33 3.15c1.23 1 1.36 3.07 3.25 3.49-.2 2.39 2.17 2.13 3.3 3.12 1.75 1.54 2.81 3.62 4.43 5.28A137 137 0 00166.31 451c4.06 3.15 8.16 6.38 12.93 8.67 3.43 1.65 6.74 3.78 10.28 5a52.17 52.17 0 0010.76 2.4 62.55 62.55 0 0032.07-4c2.6-1.06 5-2.82 7.49-4 4.55-2.12 8.07-5.47 11.63-8.67a52.63 52.63 0 0012-14.87c1.51-2.95 3.7-5.45 4.95-8.58 1.62-4.1 3.93-7.93 5.57-12a129.12 129.12 0 007.06-23.41c.7-3.63.91-7.33 1.59-11 .38-2 1.24-3.94 1-6.09-.08-.9 1.29-1.13 1.68-2-1-.26-2 .29-2.36-1.25-.17-.72-1.39.4-1.87.61-2.95 1.29-6 .86-9 1.05a15.85 15.85 0 01-6.82-1c-3.94-1.58-8.36-1.83-12.36-4.41l2.5-.19c-.15-.54-1.25-.2-.94-1a1.73 1.73 0 011.52-1 16.73 16.73 0 014.47 0c3.47.75 6.94.25 10.41.38 5 .2 9.87-1.11 14.8-1.73.47-.05.65-.48.9-.82 2-.37 3.66.74 5.48 1.14 1 .22 1 1.57 1 2.57-.15 7.21-.27 14.38-1.68 21.55-1.47 7.45-3.28 14.79-5.3 22.09-.29 1 0 2.55-1.71 2.76-.26 0-.32.24-.15.42 1.13 1.3 0 2.45-.37 3.52a112.14 112.14 0 01-9 18.34c-1.53 2.58-3.71 4.6-5.23 7.1-1.7 2.81-4.28 4.83-6.11 7.54-1.65 2.44-4.16 4.23-6.24 6.34a48.87 48.87 0 01-6.55 5c-.56.4-1 1.07-1.9 1.11s-1.86.24-1.93 1.53c0 .24-.47.56-.78.67-1.17.43-2.69.21-3.19 1.83a5.35 5.35 0 01-.8-.14l-.48-.07.19.38c-.39.17-.78.35-1.17.5-1.27.49-2.53.63-3.78 1.63-1.69 1.36-4.12 1.88-6.3 2.63-2 .68-4.44-.93-6 1.38-.15.22-1.42-.28-2.28-.24a12.68 12.68 0 00-2.45.42 38.08 38.08 0 01-16.56.17c-2.32-.43-2.21-.36-2.11 2 .12 2.75 1.05 5.32 1.32 8.05.24 2.44 2.49 4 4.92 4.77s5.12 1.09 7.35 2.26c5.45 2.85 8.06 7.52 7.57 13.77a9.43 9.43 0 000 3c.69 2.7-1 5.26-2.61 5.69-2.76.71-2.76 3.26-4.46 4.54s-3.13 3.44-5.07 4.78a5.14 5.14 0 01-2 1.17c-4.33.48-7.82 3.24-12.07 4.18a99.1 99.1 0 01-14.33 2.14c-.84.07-2.07.66-2.67-.74-.08-.2-1-.33-1.19-.14-2.5 2-5.27.51-7.89.6a34.24 34.24 0 01-7.4-1.07c.07-.5 1-.46.78-1.08-.13-.32-.49-.37-.9-.17-3.88 2-7.3-.41-10.74-1.42a83.45 83.45 0 01-14.23-5.59c-4.59-2.32-8.89-4.84-12.54-8.67-3.37-3.54-4.54-7.33-3.42-11.81.8-3.21 3.06-5.68 5.43-7.94a22.2 22.2 0 0111-5.91c.93-.19 1.11-.57 1-1.64-1-7.18-3-14.14-4.36-21.23-1.23-6.33-2.34-12.7-4-18.94a94.7 94.7 0 01-2.73-11.29c-.87-6.27-2.75-12.34-3.71-18.59a9.91 9.91 0 00-.81-3.21c-.58-1-1-2.53-3-1.11-1.24.85-3.41 1.64-5.19.22-.44-.35-.33.2-.5.31-1.14.72-1.81 1.67-3.72.59a21.63 21.63 0 00-4.8-1.71c-2.49-.65-4.55-2.21-7.07-2.92-1.8-.51-3.23-2.41-4.79-3.72a27.45 27.45 0 01-4.83-5.81c-2.46-3.58-2-7.53-1-11.36a21.22 21.22 0 016.35-10.69 15.48 15.48 0 019.84-3.66c.46 0 1 .22 1.51-.32-1.82-2.3-3.51-4.74-5.54-6.86-.86-.9-.47-1.68-.59-2.53-1 .29-1.84.27-2.42-.82-1.23-2.32-3-4.26-4.42-6.45A195.09 195.09 0 0182.2 335c-1.61-3.31-3.38-6.7-5.2-10-4-7.21-7.42-14.74-9.16-22.85a108.73 108.73 0 01-2.45-15.33 79.62 79.62 0 01.94-19.86 87.48 87.48 0 001.41-9.13 20.18 20.18 0 013.9-10.1c3.31-4.79 6.72-9.48 11.12-13.41s9.86-6.7 15.07-9.37a47.07 47.07 0 0117.2-4.68c5.24-.48 10.51-.72 15.74-1.28 5-.54 10-.91 15-1.49a12.83 12.83 0 004-1.24c3.83-1.74 7.51-3.78 11.32-5.56 2.22-1 4.29-2.76 6.46-4 5.47-3.23 10.83-6.71 16.89-8.8 1.72-.59 3.43-1.22 5.14-1.82 6.59-2.33 13.33-3.74 20.35-2.87a71.19 71.19 0 018.43 1.61c3.83 1 7.48 2.46 11.32 3.4s7.6 2.47 10.3 5.72c.41.49 1.23.63 1.86.94a102 102 0 0110.16 5.84 16.8 16.8 0 007.09 2.53 79.88 79.88 0 0026.51-1.75 141.6 141.6 0 0015.08-4.69 38.31 38.31 0 0111.86-1.47c4.37 0 8.74.38 13.1.67a7 7 0 013.89 1.51c1.65 1.28 3.89 1 5.82 1.83 8.74 4 14.46 10.33 16.08 19.87a28 28 0 01-1.68 14.66c-1.08 2.85-2.13 5.71-3.36 8.5-1.64 3.71-4.31 6.81-6.84 9.89a67.39 67.39 0 01-8.81 9.22 60.53 60.53 0 01-18.31 10.78 57.78 57.78 0 01-17 3.77c-1.84.08-2 1-1.36 2.12a21.9 21.9 0 012.14 9.61c.14 3.55.6 7.13-.14 10.67a2.56 2.56 0 00.93 2.85c1.48 1.13 2 3 3.47 4.26 1.07.92-.89 3.94-2.72 4.3-1.1.22-2.21.4-3.11.56 0 5.1.92 10 .17 15a7.81 7.81 0 001.88 6.64 36.2 36.2 0 016.94 14.19c.54 2.3-2.33 5.4-4.86 5.61s-5.22.8-8 .17a5 5 0 00-4.19.72c-1.1-.1-1.94-.85-3-1.14-2.17-.6-4 0-5.9.65-.9.3-1.79 1.31-2.74.09-1.92 1.61-4.07.41-6.12.55a26.44 26.44 0 01-8.42-.42c-1.4-.35-2.83.41-4.3-.17-.82-.33-1.9.33-2.44-1.07-.36-.94-.71.51-1.38.32-2.91-.83-6-1.39-8.43-3.2-1-.75-2.23-2.14-2.13-3.54a22.9 22.9 0 012.66-9.67 38.74 38.74 0 015.24-7.53 32.72 32.72 0 016.74-5.32 34 34 0 012.83-2c5.52-2.75 11.16-2.45 16.74-.24 3.28 1.31 6.68 2.23 10 3.45a14.86 14.86 0 011.51.84c-.15-3.12.33-6.1-.29-9.09a3.69 3.69 0 01.12-2.08c.87-2.11-.67-2.64-2-2.75s-2.83-1-4 .56c-.11.14-.89-.22-1.35-.37-.22-.07-.14-.69-.52-.39-3.48 2.65-7.36.68-11 1-2.79.23-5.58.52-8.37.84a5.06 5.06 0 01-3.21-.34 2.7 2.7 0 00-2.46.15c-1 .55-1.81 1.08-2.77-.06-.19-.23-1.21-.69-1.19.5a1.56 1.56 0 01-.8.08c-3.65-1.32-7.87-1-11-3.83-.76-.69-.84-.59-.49-2 0-.17 0-.53-.11-.56-1.64-.48-.75-1.84-1-2.81-.36-1.37 1.14-2.86-.29-4.21-.11-.1.29-1 .84-1.34l.3.3c.08.79.57 1 1.19.67.9-.43.63-1.48.65-2.1.05-1.5.36-2.12 1.81-2.41a26.85 26.85 0 016.93-.46c3.68.22 7.2-.85 10.81-1.15a11 11 0 013.91.25c1.29.35 2.81-.11 4.21-.2a117.9 117.9 0 0113.16-.1c2.08.11 4.12 1.29 6.14 2.08 1.21.48 1.75.49 1.72-1.1a60 60 0 00-2.59-15.74c-.31-1.07-1.1-.77-1.72-.74-2.79.15-5.55.2-8.35.09-7.3-.29-14.32-2-21.4-3.53-5.05-1.11-10.19-1.84-15.31-2.56-15.23-2.14-30.56-1-45.84-1.3a9 9 0 00-2.53.31c-.39.1-1.76.93-1.21-.84.13-.4-.79-.47-1-.25-.62.6-1.24.25-2 .05.19 1.23 1.42.13 1.74 1.36-6.75 1.52-13.08 4.42-19.77 6.23.1-.32.26-.69-.24-.79-.22 0-.62 0-.54.38s.46.42.81.39c-3.12 2.09-7 2.48-10.19 4.33-2.59 1.48-5.3 2.75-7.9 4.23s-5.13 2.74-7.6 4.31c-3.24 2-7.05 3.57-9.37 6.62-2 2.64-4.8 4.82-5.67 8.34-1.84 7.44-4.76 14.63-4.72 22.48 0 3.52-.77 7 0 10.58.1.49.39 1.36-.86 1.1-.56-.11-.39.63-.25.95s-.09 1.24.8.39c.37-.35.68.67.72 1.07.44 4.7 1.82 9.23 2.78 13.82a29.28 29.28 0 002.6 8.32 85 85 0 015.42 10.79c1.12 2.95 4.36 4.54 4.38 8a3.35 3.35 0 001.79 2.23c1.82.69.2 1.14.08 1.67H140a1.69 1.69 0 00-1.4.38h-.08c-.34 0-.56.11-.59.48a102.41 102.41 0 01-10.72-6.72c-1.65-1.09-3-2.53-5-3.35-1.44-.61-2.43-2.27-3.64-3.43-2-1.88-3.73-4-6-5.58A3.32 3.32 0 00109 377a41.49 41.49 0 01-4.22 1.09c-5 1.27-6.81 4.71-7.61 9.56a10.46 10.46 0 002.9 8.88c2.59 2.69 4.66 6.23 8.52 7.67 1.84.69 3.58-.08 5.36.12.82.09 1.52-.09 1.33 1.16s.75.86 2 .79c-1.35-.28-2-.76-1.6-1.6.22-.52 1-.44 1.45-.35a10 10 0 005.21-.25c-2.26-4.39-5.47-8-8.52-11.67 2.42-1.58 3.79 1.25 5.8 1.71 1.21.27 2.81.69 3.46 2.24.17.41 2.37 0 .49 1.28-.07 0 .3.62.72.58a3.83 3.83 0 014.49 3 133.13 133.13 0 006.41 16c.5 1.1 1.4 2 1.48 3.31-.22-.39-.43-.12-.64 0a.23.23 0 000 .2c.35.28.54.12.64-.18zM256.76 308.9l-.18-.15c-1.86-1.24-3.48 2-5.37.28-2.73 1.58-3.06 1.54-5.46-.87a.75.75 0 00-.76-.2c-.33.05-.43.33-.28.63s-.12.66-.2 1a12.34 12.34 0 00-.65 4.47c.3 2.5 1.21 2.52 4.9 2.82 2 .16 3.7-.48 5.57-.42 1.68.05 3.39.1 5.08 0 2.4-.09 4.82-.43 7.21-.35a46.47 46.47 0 0010.05-.77c1.79-.32 3.14-1.67 5.11-1.5 2.92.24 5.87.06 9.17.06-1.56-1.66-2.72-3.09-4.08-4.3s-3.44-2.55-5.36-2.33-3.78 0-5.52.17c-2.47.29-1.9-.63-1.59-2a6.42 6.42 0 00-2.53 1.8c-.84 1.2-2.58.65-3.94.5-1.61-.19-3.21-.85-4.61.68-.29.33-1.4.47-1.57.25-.93-1.2-1.84-.29-2.72-.08a5.66 5.66 0 01-2.27.31zm-80.23 198.54c-.49-1.55-1.66-1.73-3.07-.46a4.49 4.49 0 01-1.86-.17 88.13 88.13 0 01-13.94-5.12 62.74 62.74 0 01-10.49-5.5 44.53 44.53 0 01-4.57-3.76 1.49 1.49 0 00-2.11-.13l-.06.06a32.44 32.44 0 00-5.64 4.25c-2.44 2.55-2.62 8-.21 10.56a43.4 43.4 0 009.07 7.47 42.94 42.94 0 0012.55 5.17 90.91 90.91 0 0027.67 2 49.24 49.24 0 0022-6.55c3.35-2 6.76-6.78 5.32-10.52-.4-1-.49-2.2-.91-3.23a14.09 14.09 0 00-5.85-7.27c-.33 1.11-.33 2.17-1.35 2.81-2 1.22-3.05 3.29-4.54 5a14.52 14.52 0 01-9 5c-4.34.54-8.63 1.54-13.01.39zM117 357.59a11.09 11.09 0 01-1.71-7.29l.2-.16h-.12a.35.35 0 00-.08.16c-.87-.8-.14-1.94-.6-2.82-1.5-2.89-1.25-6.07-1.46-9.15-.28-3.87.18-7.74.31-11.6a47.14 47.14 0 012-11.11c1.76-6.43 5.46-11.78 10-16.56 1.67-1.74 3-3.9 5-5.19 2.69-1.66 5.28-3.5 7.94-5.19a101 101 0 0110.76-6.49c5.32-2.53 10.6-5 16.35-6.47 3.88-1 7.66-2.4 11.46-3.69 2.68-.9 5.68-.29 8.23-1.76.17-.1.43 0 .64 0 5.34 0 10.68-.16 16-.41 6.71-.33 13.4.37 20.1.6 7.14.24 14.16 1.68 21.16 3 5.78 1.06 11.41 2.8 17.32 3.4 5.45.55 10.87 1.21 16.32.21 6.57-1.2 13.27-.59 19.89-1.56 6.78-1 12.9-3.72 18.8-6.75 6.13-3.16 11-8.26 15.4-13.49a36.37 36.37 0 008.29-18.35 27.28 27.28 0 00-1.2-12.29c-1.41-4.26-4.42-7.84-7.94-10.82-1.1-.93-2.55-1-3.72-1.68-.74 1.36-2.07.81-3 .64-4.5-.81-8.73.12-12.93 1.61-.78.28-2.24.59-2.42.3-1.09-1.78-1.1-.46-1.46.34-.11.25-.61.32-.94.46a173 173 0 01-18.2 6.4c-6.8 2.08-13.77 1.61-20.68 1.16a44.63 44.63 0 01-14.46-3.25 29.31 29.31 0 00-4.37-1.93c-5.46-1.28-9.56-5-14.15-7.79-2.47-1.5-4.39-4-6.94-5.23-5.69-2.84-12-3.11-18.19-2.82a51.19 51.19 0 00-14.65 3.32 139.19 139.19 0 00-15 6.76c-3.66 1.82-7 4.29-10.69 6.08-5.4 2.58-10.68 5.35-16.45 7.09-2.08.62-4-.73-6-.16a.61.61 0 01-.38-.18c-1.87-1.94-2.81.68-4.22 1-.74.14-.86.55-1.93-.05-.36-.2-1.44-.39-1.3.19.27 1.11-.51.92-.9.94-1.64.07-3.28 0-4.92 0a.78.78 0 01-.83-.41c-.68-1.33-1.07-1.31-1.8 0a1.46 1.46 0 01-1.94.68 1.37 1.37 0 01-.65-.63 1.23 1.23 0 00-1.65-.55 1.17 1.17 0 00-.55.55c-.36.94-.52.84-1.11.37s-1.6-.52-1.5-.12c.44 1.75-.9 1-1.34 1a22.86 22.86 0 00-5.46.79 31.43 31.43 0 01-3.13.47c.2-1.41-.89-.82-1.06-.47-.82 1.61-2.32 1.5-3.73 1.94-1.25.39-3-.6-3.54.47-.76 1.52-2.13 1.89-3.27 2.63-2 1.31-4 2.93-6.26 3.42s-3.68 2.43-5.75 3.31c-1.72.73-3.14 2.79-4.81 4.09a17.93 17.93 0 00-6.22 9c-2.31 7.13-2.41 14.45-2.56 21.79a109.72 109.72 0 001.21 14.6c.68 6.09 2.58 11.87 4 17.74 1.14 4.56 3.91 8.59 5.76 13 1.69 4 4.34 7.56 6.2 11.54 1.38 2.95 3.39 5.6 4.69 8.58 1.91 4.38 4.78 8.17 7.26 12.16a111.47 111.47 0 009.78 13.3 92.41 92.41 0 006.29 7.35c.29-2.19-2-3.81-.4-5.7-.16-.11-.34-.34-.46-.31-.92.22-1-.6-1-1q-.48-4.53-1.4-9l.22-.2H117a.63.63 0 000 .19zm18.12 69a3.38 3.38 0 00.09 2.11c2.69 6.27 3.17 13.14 5.3 19.58 1.13 3.43 1.8 7 2.64 10.54a45.53 45.53 0 011.61 7.57 71.62 71.62 0 001.47 11.3c.94 4.34.45 9.23 4.47 12.65.85.72 1.84 1.14 2.68 1.8a33.14 33.14 0 009.33 5.46 44.66 44.66 0 0010.29 1.72c4.75.44 9.49.47 14.08-1.16.43-.15 1.31-.49 1.34.38 0 .66 1.37 1.52-.09 2-1 .35-.19.38 0 .56a.75.75 0 001.1 0 1.09 1.09 0 00.16-1.35c-.65-1.28-.3-2.16 1.12-2.51.53-.13.77-.57 1.15-.85 2.69-2 1.85-4.86 1.81-7.4-.07-4.41-1.62-8.69-1.34-13.18.1-1.55-.54-3.14-.85-4.71 0-.28.16-.6-.43-.73-3.51-.76-6.5-2.8-9.79-4.11-2.11-.84-4.43-1.19-6.32-2.59a82.87 82.87 0 00-7.65-4.78 99 99 0 01-11.1-8.12 85.32 85.32 0 01-12.85-13.06 41.48 41.48 0 01-4.1-5.33c-1.16-2.08-2.86-3.73-4.1-5.83zm128.08-87.28c-1.75 1.36-3.84 1.63-5.17 3.07a21.3 21.3 0 00-5.71 11.74c-.18 1.24.28 1.86 1.44 2a28.56 28.56 0 006.06.31c4.38-.31 8.74.09 13.1-.16 2.49-.15 5-.1 7.48-.2.31 0 .9.3 1-.37s-.32-.63-.68-.89c-1.08-.8-2.5-.45-3.56-1.13-1.35-.88-2.63-2-4-2.75-4.63-2.66-8.56-5.81-9.96-11.62zm42.34-124.56a1.17 1.17 0 00-.36-.16c-.11 0-.22.1-.34.16a1.85 1.85 0 00.45.21c.08 0 .18-.13.27-.21zm-138.42 71.46a3.4 3.4 0 00-.53-.08c-.23.05-.24.16 0 .26a.26.26 0 00.21 0 2.58 2.58 0 00.32-.18zm-97.79 16.37c-.12-.07-.23-.17-.34-.17a.85.85 0 00-.34.15c.11.06.22.17.34.17s.21-.09.34-.15zm196.14 68.91c-.12-.05-.24-.15-.34-.13s-.2.13-.3.21a1.86 1.86 0 00.47.16zm-153.71 39c0-.05-.09-.13-.13-.13s-.11.07-.16.11l.21.15z" class="cls-4"/><path d="M465.68 799.18c.1 1.22-.77 2-1.46 1.61-1.39-.87-4.23 1-4.3-2.35a1.9 1.9 0 01-2.54.81 39.36 39.36 0 00-6.62-2.47c-2.77-.71-5-2.76-7.37-4.38s-5.31-3.33-6.73-6.3c-1-2.05-2.7-3.79-2.3-6.4a10.17 10.17 0 015.46-7.82c3.39-1.76 6.63-4.13 10.75-4 1.08 0 1.22-.82 1.33-1.56.57-3.85 1.14-7.69 1.61-11.55.12-.93-.15-1.07-1.32-.74a54.06 54.06 0 01-11.29 1.9 86.25 86.25 0 01-20.24-1c-3.78-.66-7.63-1.12-11.21-3-2.1-1.11-4.71-1.45-6.69-2.92-3.84-2.86-7.89-5.42-11.53-8.54-1.93-1.64-4.28-2.72-6.19-4.46-1-1-2.24-1.67-2.78-3.06a1.53 1.53 0 00-.47-.7c-3.59-2-4.92-5.82-7.13-8.94a67.24 67.24 0 01-5.83-9.25c-1.73-3.55-4.08-6.78-5.1-10.72-.49-1.92-1.85-3.6-2.63-5.47-1.49-3.6-2.87-7.26-4.23-10.91-1.07-2.84-2-5.75-3.07-8.57-1.22-3.12-.52-6.44-1.2-9.62-.83-3.94 0-8-.4-11.92-.11-1.21 1.35-2.56-.3-3.66-1.11-.74-2.44-.63-3.57-1.08s-2.82-.75-3.52-2.22c-.06-.12-.15-.31-.25-.33-5.09-1.09-3.45-5.14-3.42-8.26a10.06 10.06 0 011.89-5.72c.29-.41.57-1-.19-1.13-4.92-1.23-9.11-3.84-13.45-6.37a103.6 103.6 0 01-11.69-8 36.53 36.53 0 01-11.24-13.43c-2-4.38-3.15-9.1-4.49-13.74a37.6 37.6 0 01-1.11-14.51 32.19 32.19 0 012.42-9.08 47 47 0 015.08-9.81 86.59 86.59 0 017-8.66 2.63 2.63 0 012-1c1.48 0 1.59-.83 1-2-3.41-6.61-3.91-13.76-3.9-21v-.21c-.88-1.07 1.9-1.26.55-2.8-.65-.74-.14-2.56.27-3.88 1.83-5.87 3.32-11.76 6.44-17.27 2.54-4.48 5.61-8.52 8.44-12.74 2.57-3.84 6.34-6.52 10.18-8.95 7.12-4.5 15.05-5.69 23.35-5.21 3.44.2 6.84.62 10.27.85 1.71.11 2.82.64 3.23 2.45 1.88-1.64 2.27-4.1 3.7-5.93 2.27-2.91 4.3-5.91 7.13-8.46a61.73 61.73 0 017.34-6.26c4.66-3.05 9.27-6.32 14.53-8.17 6.73-2.37 13.59-4.58 20.94-4a39.69 39.69 0 0111.87 2.6c2.74 1.1 5.65 1.79 8.48 2.67 1 .32 2.06.74 3.08 1.1a80.75 80.75 0 0112.85 6.18 12.47 12.47 0 014.5 4.13c.89 1.44 1.68 2.08 3.53 1 6.42-3.65 13.57-4.18 20.77-4.46a75.22 75.22 0 0116.93 1.41 45.15 45.15 0 019.25 3.37c1 .42 1.89 1 3 .8 1.62-.3 2.89.64 4.16 1.22 3.92 1.75 8 3.45 11.22 6.24a36.32 36.32 0 018.25 10.66 10.18 10.18 0 011.08 2.67 2.28 2.28 0 002.54 2h.05c4.06-.14 7.76 1.3 11.52 2.7 2 .72 4.22.78 6.21 1.66a93.91 93.91 0 0111.38 6.47 48.22 48.22 0 018.23 6.85c2.3 2.29 4.89 4.56 6.36 7.7 1.65 3.51 4.27 6.47 5.9 10 4.32 9.41 6.45 19.19 4.53 29.52a22.91 22.91 0 01-3.52 9.15c-.66.93-.14 1.7-.37 2.55-.51 1.9-1.24 3.72-1.9 5.56-.2.55-.7 1.08 0 1.71 2.5 2.38 3.67 5.65 5.55 8.44 1.13 1.69 1.19 3.77 1.86 5.62a33.78 33.78 0 012 6.75 82.66 82.66 0 01.71 14.58c-.19 4.28-1.5 8.31-2.59 12.36a16.62 16.62 0 01-2.6 6.14c-2.37 3-3 6.93-5.75 9.68-1.5 1.52-.88 3.4-.37 5 1.72 5.3 1.65 10.72 1.27 16.14a40.82 40.82 0 01-6.43 19 78.26 78.26 0 01-4.88 6.29 56.53 56.53 0 01-10.5 10.33c-2.46 1.83-5.38 2.77-8 4.25-5.18 2.9-10.91 4.19-16.53 5.68a59.72 59.72 0 01-13.86 2.08c-4.71.11-9-1.66-13.14-3.57-3.12-1.42-3-1.41-3.55 2.15-.75 5.07-1.74 10.09-2.48 15.16-.57 3.9-.77 7.86-1.37 11.76-1 6.37-.44 12.89-1.8 19.19-.37 1.73.67 1.85 1.45 2a11.63 11.63 0 016.32 4.15l3 3.8a9.56 9.56 0 012 6.24c-.13 3.89-.35 8-2.43 11.45-1.68 2.82-2.9 6-5.43 8.23-.54.48-.87 1.3-1.89.89-.46-.18-.56.29-.75.72a7.73 7.73 0 01-5.09 4.17c-1.39.45-2.45 1.85-3.73 2.71-1.88 1.25-3.7 3.13-5.75 3.44-3.95.61-7.1 3.9-11.34 3.16-1.6 1.85-4 1.54-6 2.16-1.3.41-2.44-.19-3.62-.56-.27-.08-.65-.19-.84-.07-2.65 1.73-5.6.56-8.39.85a1.26 1.26 0 01-1-.2c-.59-.66-1-.92-1.45.13 0 .09-.6.09-.8 0-1.48-1-3.28.27-4.75-.69a7.31 7.31 0 01-2.1-2.16zm47.18-87.31a59.9 59.9 0 00-5.93 6.81c-1.64 2.18-2.86 4.74-5.07 6.6a10.69 10.69 0 00-3 4.38c-.53 1.59-1.08 2.09-2.45 2.25-.47.06-.42.48-.6.76a8.69 8.69 0 01-2.58 2.68 63.14 63.14 0 00-6.9 4.77c-3.21 2.81-7 4.37-10.82 6a23.81 23.81 0 00-5.25 2.67c-2.14 1.64-4.86 2.14-7.4 2.61-2.36.43-3.41.82-3.25 3.08a56.19 56.19 0 01.2 9.08c-.33 3.68-.08 7.4-.34 11.08-.1 1.42.35 2.25 1.47 2.59 1.49.45 2.38 1.94 4.05 2 2.26.13 4.05 1.57 6.51 1.82 6.38.64 11.84-1.56 17.39-3.79a30.86 30.86 0 0013.86-10.42c2-2.79 4.88-5.18 4.48-9.18a2.15 2.15 0 01.67-1.48 2 2 0 00.56-1.8c-.79-9.2-.15-14.91 2.22-21.28a.45.45 0 00-.1-.31c-1.07-1.34-.48-2.82-.24-4.2.93-5.45 2.56-10.78 2.9-16.34.47-.53.34-1.1.25-2.16zm-152.22-97.75c-1.38-.12-1.59.91-1.66 1.87-.14 2 0 4.1-.29 6.15-.24 1.52.85 1.06 1.63.71 3.65-1.61 7.5-1.14 11.12-.39 2.88.6 5.72 1.62 8.65 2.15 3.16.58 5.89 2.27 8.56 3.79 2.35 1.33 3.88 4 4.85 6.49 1.91 4.8 2.08 10 1.77 15.16-.17 2.81-1.49 3.93-4.32 4.15-1.93.15-3.95 0-5.85.1-3 .08-6 .2-9 0-2.51-.16-4.91.65-7.44.31a70.37 70.37 0 00-10.45-.68c-1.67 0-1.77 1-1.79 2.18s.43 1.81 1.8 1.75c3.3-.12 6.51.68 9.75 1.23.1.6.42 1.32 1 .67a2.67 2.67 0 013.31-.43 7.2 7.2 0 003.2.71c3.15-.6 6.18.81 9.27.25a.82.82 0 01.67.35c.2.47-.21.49-.55.63-4.06 1.66-8.2 2.54-12.56 1.39a1 1 0 00-1.11.33 1.86 1.86 0 01-2.6.43l-.17-.14c-.37-.23-1.06-.78-1.66-.51-2.34 1.06-4.5.42-6.69-.52a2.19 2.19 0 00-2.25.1c-.45.43 0 1.19.11 1.81a57.82 57.82 0 011 5.81 32.12 32.12 0 002.26 9.76c2.35 5.36 3.49 11.18 6.57 16.29a17.42 17.42 0 012.26 4.6c1.09 4.5 4.07 8 6.12 12 3.09 6 7.44 11.18 12 16.19 2.7 3 6.05 5.14 9 7.79s6.37 4.16 9.51 6.19a27.57 27.57 0 008.54 3.33 100.82 100.82 0 0012.49 1.72 95.58 95.58 0 0026.91-1c7.7-1.35 15-4.21 22.06-7.51 3.83-1.78 6.73-5 9.92-7.62 2.31-1.93 4.55-4 6.79-6.06 3.15-2.89 6.45-5.54 8.23-9.59a6.29 6.29 0 011.2-1.74c2.15-2.23 4.43-4.36 5.38-7.46a1.65 1.65 0 01.73-.75 9.24 9.24 0 003.24-3.82c1.21-2.58 3.92-4.12 4.72-7 .07-.23.53-1.35 1.51-1.11.36.09.71 0 .61-.57-.28-1.47.76-2.37 1.48-3.41q2.28-3.33 4.54-6.67c.31-.47.28-.89-.34-1.32a9.52 9.52 0 01-1.28 1.91 108.55 108.55 0 01-12.83 10.42 6.56 6.56 0 01-3.36 1c-.77.06-1.56 0-1.8-1-.18-.8-.5-1.43.61-2a4.36 4.36 0 002-2.67 38.39 38.39 0 012.36-6.65c2.21-4.18 2.39-8.88 3.78-13.24 1.17-3.66 1.57-7.45 2.55-11.14.87-3.3 2.13-6.51 2.52-9.93.65-5.66.94-11.37 2.39-16.91a12.42 12.42 0 00.59-3.88c-.31-2.66-.33-5.33-.52-8 0-.64.66-1.23.45-1.59-1.9-3.28-2-7-2.89-10.59-.43-1.8-.14-3.58-1.3-5.42a92.72 92.72 0 01-5.22-10.58c-1-2.13-3.18-3.47-4-5.51-2-4.78-6.25-7.24-10.07-9.9-2.79-1.93-5.48-4.34-9.06-5.16-2.52-.57-4.88-2-7.41-2.37a49.31 49.31 0 01-8.79-1.62 54 54 0 00-13.05-2.69c-2.41-.15-5.36.53-7.37-1.89a1.7 1.7 0 00-1.62 0c-1.25 1.36-2.8.8-4.14.61-2.45-.34-5.55 1.15-7-2.41-.41 2.06-.7 2.21-3 2.19-3.42 0-6.84.07-10.25 0-5.54-.17-11.09.54-16.62-.17-.46-.06-1-.39-1.34 0-1.25 1.7-3.22 1.14-4.77 1.34-2.93.37-5.92.54-8.67 1.59-5.37 2.07-11 3.23-16.37 5.33-3.61 1.42-7 3.1-9.55 6.25-1.36 1.71-1.42 3.88-2.45 5.68-2.21 3.86-3.06 8.14-3.83 12.66 4.8-1.9 9.62-1.42 14.34-.85a24.44 24.44 0 015.37.79c2.49.87 4.91 2 7.49 2.64 3.92 1 7.89 2.37 11 5.05 2.48 2.16 5.39 4.38 4.66 8.53a3.29 3.29 0 01-2.36 2.84 31.84 31.84 0 01-7.61.41 60.71 60.71 0 00-10 .11c-1.41.14-3.57.54-4.12-.16-1.17-1.49-2-.44-3-.33a14.08 14.08 0 00-2.06.36c-3 .73-5.82-1.46-8.79-.3a.23.23 0 01-.2-.06c-1.09-2.13-2.65-.41-4-.42a6.78 6.78 0 01-3.37-.38c.39.08.77.32 1.18 0-.52-.45-.89-.59-1.25.02zm60.56-160.33l-.45-.12.24.33c-3.86 1.56-7.69 3.18-11.58 4.66-2.7 1-4.77 3.34-7.75 3.81-.3 2.25-2.44 2.39-3.86 3.35-2.26 1.52-3.84 3.7-5.74 5.58a23.29 23.29 0 00-5.16 7.49c-1.52 3.64-2.22 4.77-5.58 3.83-2.4-.67-5.25-.42-7.26-2.5a1.67 1.67 0 00-2.16.42c-.22.4-.34.78-.91.63-4.07-1.1-8.33.45-12.38-.9a.42.42 0 00-.52.09c-2.18 2.13-5.43 1.07-8 2.77-1.48 1-3.57 1.44-5.38 2.37-3 1.53-4.79 4.33-7.49 6.12-1.69 1.12-2.6 3.06-3.6 4.89s-2.63 2.84-3.43 4.72c-1.72 4-3.74 7.84-5.32 11.87-.69 1.75-1.74 3.5-1.86 5.36-.27 4.24-1 8.42-1.09 12.69-.11 5.66.46 11.3.87 16.9.19 2.51-.56 3.77-2 4.74-1.93 1.27-2.91 3.12-4 4.94-2.24 3.92-4.66 7.7-6 12.16-2 6.45-3.47 12.78-1.69 19.48.65 2.44 1.71 4.85 2.1 7.26.75 4.58 2.79 8.41 5.09 12.27a36.83 36.83 0 008.2 9.18c1.64 1.4 3.46 2.62 4.94 4.11a26.72 26.72 0 007.55 5.14c2.42 1.14 4.63 2.72 7.18 3.69 1.48.57 2.16.2 2.44-.73a5.13 5.13 0 012.46-3c2.65-1.63 2.63-4.06 2.2-6.67-.29-1.68.83-3.37-.76-5.15-.89-1 .79-3.37-.94-4.76a.44.44 0 01.09-.38c2.28-1.41 1.36-3.9 2-5.85 1.07-3.24.89-6.71 1.8-9.94a51 51 0 015.35-12.92c2.21-3.65 4.59-7.18 6.92-10.75 1.1-1.69 3.34-1.76 4.7-3 2-1.76 4.57-2.09 6.83-3a137.11 137.11 0 0113.44-4.42 69.82 69.82 0 0111.25-2.61c3-.4 6-.07 8.92-.45 6.15-.78 12.34-.49 18.5-.67 6.53-.18 13.09.37 19.63.77a66.86 66.86 0 019.86 1.19c3.54.77 7 1.93 10.57 2.48 5.48.85 10.57 2.84 15.87 4.2 2.36.6 4.31 2.1 6.6 2.77 4.93 1.44 9.76 2.92 13.75 6.5a86.62 86.62 0 016.33 6.8 39.72 39.72 0 016.89 10.26 40.1 40.1 0 004.06 6.62c.83 1.19-.3 1.9-.27 2.76 0 .68 1.86.08 2 1.61.16 2.64 1.18 5.15 1.79 7.68 1.21 5 2.34 9.94 1.71 15.12-.45 3.75.83 7.48.09 11.25-.84 4.27-1.43 8.59-2.28 12.86-1.38 7-2.34 14-4.52 20.84-.66 2.08-2.37 3.74-2.3 6.06a4.64 4.64 0 01-1.77 3.45 4.25 4.25 0 00-1.58 3.68c.5-.2.92-.25 1.25-.76a31.72 31.72 0 012.72-3.73c4.42-5.21 8.92-10.37 12.38-16.31 1.06-1.81 2.7-3.18 3.65-5a70.52 70.52 0 014.21-7.55c1.09-1.62 2.66-3.07 2.6-5.27a2.73 2.73 0 011.68-2.45 15.37 15.37 0 016.24-1.93 18.37 18.37 0 0112.93 3.4c2.24 1.56 4.41 3.23 6.6 4.87a7 7 0 012.59 4.93c.74 7-3.4 11.3-8.5 15-4.32 3.18-9.56 4.23-14.38 6.25s-10 2-15.16 1.06c-.48-.09-1.13-.18-1.29.36-.49 1.62-1.87 3-2 4.51-.49 4.49-3.65 7.65-5.29 11.54-.87 2.06-.42 2 1.1 2.48 1 .32 2.28-.37 3.15.69 1 1.3 2.52 1.43 4 1.39a71 71 0 0020.62-3.64 10.35 10.35 0 011.81-.59c4.61-.58 8.64-2.63 12.56-5 5-1.67 8.41-5.45 11.93-9.06 2.63-2.69 4-6.33 5.58-9.53a24.37 24.37 0 002.5-10.71 49.39 49.39 0 00.27-6.2c-.39-4.92-.74-9.86-2.54-14.55a2.53 2.53 0 01.41-2.19c3.35-6.38 8-12.06 9.62-19.38 1.1-4.85 2.14-9.56 1.9-14.6s-1.46-9.55-2.52-14.3a38.24 38.24 0 00-6.08-13.33c-1.24-1.79-1.94-3.48-.37-5.41a1.22 1.22 0 00.2-.59c.43-3.6 1.9-7 3.23-10.21 2.44-6 2.15-12 1.77-18.16-.25-3.93-2.31-7.44-3.36-11.17-1.73-6.17-5.78-11-8.56-16.51-.66-1.32-2.39-2-3.06-3.19-2.79-5-7.72-7.55-12.12-10.39-4.11-2.65-9.14-3.85-14.25-1.94-1.23.46-2.72.58-3.65-.37-1.49-1.51-3.56-1.41-5.26-2.31a8.15 8.15 0 01-2.75-2 29.49 29.49 0 01-4-7.06c-2-4.25-5.24-7.64-8.48-11a8.5 8.5 0 00-2.28-1.86 51.09 51.09 0 00-12.19-4.12 62.31 62.31 0 00-22.66-.11c-4 .71-8.18.87-11.91 3.19-1.42.88-3.37 2.26-5.51 1.06a.55.55 0 00-.76.18.44.44 0 00-.07.19c-.08.37 1 .41.3.87-.43.3-.77-.13-1-.49-.52-.72-1.31-.67-2.08-.84-1.52-.33-3.38.06-4.44-1.48a50.76 50.76 0 00-7.29-7.86 11.67 11.67 0 00-2.18-1.85c-3-1.74-6.42-2.64-9.51-4.12-7.61-3.65-15.64-3-23.61-3.16-1.05-.02-2.1.8-3.28.38zm96 304.33c-.87 2-.82 4.18-1.87 6-2.16 3.64-5.06 6.72-7.54 10.11a30.54 30.54 0 01-10 8.36c-2.5 1.42-5.4 1.94-7.69 3.56-2.46 1.74-5.55.58-8 2.22-.47.32-1.42.09-2.09-.1a8.64 8.64 0 00-2.32-.25c-6.65 0-12.32-3.27-18.32-5.47-3.05-1.11-5.53-3.06-8.19-4.77a2.06 2.06 0 01-1.17-2.57c.2-.8 1-1.63 0-2.79-1.41 2-3.63 2.65-5.29 4.26-2.24 2.15-2.58 5.05-.51 7.46a34.29 34.29 0 009.32 8.15c2.41 1.32 4.66 2.45 7.42 2.59a54.46 54.46 0 016.11.73 53.58 53.58 0 0012.27.43c6.77-.35 13.09-2.71 19.43-4.91 4.28-1.48 7.87-4.13 11.65-6.47s7.45-5 9.72-9.13c3.6-6.31 3.22-12.53-2.93-17.41zm22.69-94.77c1.88-1.3 3.39-2.93 5.31-4.11a2 2 0 012.45-.07c1.13.75.25 1.8 0 2.4a14.63 14.63 0 01-4.06 5.44c-.5.39-1.16.93-.8 1.57s1.08.25 1.68 0c4.43-1.67 9-2.74 13.3-5a25.58 25.58 0 005.16-4c2.29-2.14 2.45-5.13 2.13-8.14-.15-1.35-.51-2.46-1.84-3.06-3.73-1.67-7.69-1.31-11.6-1.26-2.52 0-3.59 2-4.65 3.91a24.63 24.63 0 01-1.87 3.47c-2.18 2.69-3.25 6-5.23 8.89zM357.5 644.52c-1.65 0-3.2.48-4.76-.25-.56-.26-1.89-.81-1.87.68 0 .94-.92 2.44 1.32 2.6 6 .44 11.95.76 17.94.84a43.91 43.91 0 015.13.07 89.56 89.56 0 009.27.36c.9 0 1.75-.78 1.64-1.18-.47-1.62.53-3.06.27-4.63a7 7 0 00-1.71-3.78 17.64 17.64 0 00-9.07-4.9c-3.18-.77-4.18-.38-5 2.74-.37 1.37-1.2 3-2 3.28-2.26.76-3.36 2.9-5.38 3.79a12.35 12.35 0 01-6.35 1.23c-.1 0-.19-.1-.29-.15.02-.58.67-.1.86-.7zm3.34-35.67a4 4 0 002.16.63c3.38.14 6.74.47 10.1.74a194.32 194.32 0 0023.89.51c1.75-.07 1.6-.84.9-1.78A30 30 0 00393 604c-3.16-2.63-7.53-1.53-10.9-3.54a1 1 0 00-.27.22c-.56.86-1 .77-1.42-.13a1 1 0 00-1.27-.63 1.05 1.05 0 00-.48.35 1.46 1.46 0 01-1.73.42 3.94 3.94 0 00-4-.27c-4.72 1.84-9.63 3.27-12.08 8.39zm113.88 178.33l.4-.22a2.07 2.07 0 00-.52-.2c-.1 0-.22.11-.33.17zm-102.09-187l-.33-.22c-.23-.09-.37 0-.31.24s.21.16.32.16a.75.75 0 00.32-.14zm141.23 109.63s-.09-.07-.11-.06l-.12.12.23.07z" class="cls-5"/><path d="M405.44 113.12l2.37.78a3.74 3.74 0 012.74-3.94c.19 0 .49-.06.54-.18 1.24-2.93 4-1.73 6.08-2.07 1-.17 2.73.08 2.28 2.06-.2.88.44.42.72.51a4.44 4.44 0 012.91 2.47c.4 1 .6 1.94 2 1.44.63-.22.63.38.62.79 0 1.32-1.78 2.64-2.88 2-.6-.36-.69-.17-.88.18-.79 1.46-1.71 2.14-3.6 1.71a10 10 0 00-3 .71 16.32 16.32 0 01-3.82.17c-2.15.06-5.52-3.94-6.08-6.63zM269.7 181.92c.29-3.25-2.48-3.35-3.87-4.7-1.87-1.81-2.25-3.12-1.06-4.57.61-.75 1.5-.27 2.32-1 1-.88 2.25-1.83 3.42-2.68s2.73-.89 4-1.49c.57-.27 1.1.2 1.5.77a11.77 11.77 0 003.56 3.57c2.25 1.35 2.26 2.35 0 3.73-1.54 1-2.71 2.33-4.19 3.38-1.7 1.25-4.07.88-5.68 2.99zM187.64 554.17c-.56 5.12-2.62 5.91-7.19 4.51-3.14-1-6.83-8.1-5.32-11.31.72-1.56 1.34-2.21 3.12-1.61a12.58 12.58 0 004 .68c2.28 0 5.18 3.69 5.35 6.35a10 10 0 01.04 1.38zM305.26 641.12c-3.11 1.06-6.09-.46-9.15-.48-1.85 0-3-.75-2.7-2.86a17.76 17.76 0 01.17-3c.76-2.48 2.05-3.2 4.94-2.7 3.2.56 6.37 1.3 9.55 2 1.65.34 3 1 2.92 3a4.31 4.31 0 01-3.21 3.75 15.32 15.32 0 01-2.52.29zM658 549.91c1 2.89-1.21 4.77-2.26 7-.26.56-.27 0-.42-.13a7.77 7.77 0 00-3.77-.62c-1.24 0-2.31-.9-3.43-1.48-1.7-.87-1.07-1.83-.77-3.14a14 14 0 00.15-4.74c-.26-2 1.71-2.75 2.12-4.34.08-.3.47 0 .66 0 1.52-.09 2.59 1.61 4.5.68 1.08-.53 2.69.68 2.92 2.35.15 1.51.16 2.95.3 4.42zM618.91 593.19c1.74-.34.94-1.75 1.26-2.69.61-1.77 1.6-3 3.51-3.16a6 6 0 004.07-2.39c.37-.42 1-1.1 1.39-.59 1.48 2.1 4.08 1.07 5.89 2.31 1 .72 2 1 .44 2.06-.18.13-.64.07-.47.51.89 2.44-1.19 2.9-2.54 3.84-.18.12-.45.26-.47.41-.43 3-2.5 1.76-4.19 1.77s-3.15-.17-4.65-.28a7.38 7.38 0 01-4.24-1.79zM637.08 437.26a9.23 9.23 0 01-5.22-3.5 10.32 10.32 0 01-1-1.53c-.72-1.21-1.55-2.58.34-3.55.71-.36.49-.93.54-1.45.12-1.43.64-1.35 2.08-1.35 2.75 0 5 2.07 7.72 1.53.88-.17 1.07.59 1.21 1.18.36 1.49.66 3 .93 4.51.39 2.22-2 3-2.52 4.87-.06.24-.89.23-1.32-.19a2.88 2.88 0 00-2.76-.52zM266.2 639.81a13.32 13.32 0 01-7.21-1.4 20 20 0 01-4.16-3.16 1.23 1.23 0 01-.32-1.18 4.29 4.29 0 014.75-3.77 4.46 4.46 0 01.71.14l6.88 1.68c3.44.84 4.67 4 2.61 6.71-.6.8-.67.82-3.26.98zM254.1 184.12a10.14 10.14 0 013.84 3.74c.4.82.37 2.33 2.16 1.95.54-.11.9.72.31 1.44-1.1 1.36-2 3-3.9 3.34-.26 0-.47.34-.74.42-.86.27-1.23 2.25-2.71.56-.64-.73-2.22-.39-2.34-2.11 0-.69-1.51-.53-2.2-1.49-1.69-2.35-1.76-3.84.51-5.61a16.35 16.35 0 015.07-2.24zM633.94 412.51c-1-1.29-1.9-1.74-3.26-1.37-2 .53-4.25-1.31-4.49-3.33a1.6 1.6 0 00-.07-.62c-1.74-1.66-1.36-3.2-.53-5.36.69-1.79 2-2 2.7-1.57 1.61 1 3.65.45 5 1.7.55.52.85.27 1.21.11.84-.38 1 .15 1.1.75a28.58 28.58 0 01.43 3.56c0 1 .39 2.18-.32 3.09s-1.51 1.43-1.77 3.04zM641.77 577.52c-1-2.62.52-5.12 1.89-7.68.68-1.29.57-1.05 2.12-1 1.07 0 2.12.53 3.07.3 1.28-.31 2.12 1.09 3.42.57.46-.18.54.59.44 1-.87 3.33-1.69 6.81-4.35 9.15-1.31 1.15-3.31.18-4.86-.43-.61-.31-2.24.29-1.73-1.91zM198 576.86a8.89 8.89 0 01-2.69 3.52c-1.09.84-1.62 2.28-2.93 2.92-2.84-1-3.73-3.52-4.66-6-.5-1.3.46-2.31.89-3.39.61-1.56 1.81-.54 2.81-.53 2.78.06 5.3.52 6.58 3.48zM647.2 520.41c2.15.11 4.23.24 6.32-.82 1.67-.84 3.68-.32 5.55-.44 0 1.46.64 3.05-.3 4.33s-2 2-2.39 4.1c-.27-2.8-2.66-2.37-3.34-2.23-1.89.39-3.07-.83-4.52-1.26-1.71-.5-1.26-2.3-1.32-3.68zM290.86 158.89a1.93 1.93 0 011.75.46c1.85 1.63 4.11 2.55 6.18 3.8-1.24.42-2.65-.31-3.83.57a.44.44 0 01-.39 0c-.37-2.29-3.57-2.41-3.71-4.83zM640.7 578.12c.1-.17.2-.34.29-.51.2.26.23.51-.08.71z" class="cls-6"/><path d="M640.91 578.3c-.14.16-.29.28-.45.05l.25-.25z" class="cls-6"/><path d="M192.35 359.72c-2.71.4-5.2 1.89-8 1.6-.82-.09-.55.9-1.42 1.07-2.68.55-5.32 1.06-8 .16-1.19-.4-2.2.24-3.33.22-2.37 0-4.65 1.06-7.17.45-1.12-.28-2.53.85-3.8.23-1.87-.93-4.24.13-5.59-.65-2.17-1.24-3.66 1.14-5.63.1a21.4 21.4 0 00-5.81-1.63c-1.9-.38-3.86-.49-5.57-1.56a2.32 2.32 0 01-1.43-2.33c0-6.55 3.33-11.45 7.24-16.2 1.59-1.94 2.92-4.11 5.14-5.44 5.8-3.46 11.92-5.94 18.83-5.1 3.07.38 6.2.38 9.12 2 2.17 1.2 4.9 1.34 7.18 2.39 3.68 1.7 7.27 3.59 9.24 7.56.52 1 1.89 1.66 2.7 2.75 2.26 3 2.55 6.72 3.49 10.17.35 1.27-1.56 2.12-1.72 3.54 0 0-.1.06-.12.05-2-1.81-3.47 1.39-5.38.65v-.3h-.19zM177.59 357c-4.35-2.36-9.43-3-11.26-8.16-1.56-4.36-2.65-8.67.26-13.67-3.67 2.44-7.76 2.09-10.92 4.92-1.75 1.58-4.17 2.47-6 4.28-3.24 3.12-5 7-6.84 10.92-.63 1.31.15 2 1.61 1.81a8 8 0 012.8-.2c3.53.83 7.12.21 10.68.59 4.55.48 9.19 0 13.79.19 1 .05 3.38-1.42 3.11 1.59 0 .1.34.35.5.33 1.67-.16 3.34-.37 5-.56l-.1-.7a9.19 9.19 0 01-4.12.53c-.24 0-.62-.1-.69-.27a.78.78 0 01.26-.94 3.2 3.2 0 011.92-.66zm-9.8 6.07l.15-.14a1.59 1.59 0 00-.27-.12l-.12.13zm.51-31.8l-.1-.14-.16.11c-.06 0 .09.12.14.12s.07-.05.12-.09zM131.73 322.18c.2-.74 1.85-.25 1.28-1.71-.12-.32 1-1.56 1.72-1.68 1.84-.34 2.76-1.88 3.92-2.9a37.19 37.19 0 006.55-7.17 11.63 11.63 0 016.42-4.91 46.58 46.58 0 018.57-1.13c8.76-.53 17.52-.19 26.27-.34a46.38 46.38 0 015 .07c1.57.14 3.33-.16 4.21 1.89.3.7 1.39-.26 2.3.07 1.89.69 2.23 1.12 1.05 2.67s-.73 3.25-.36 4.87c.82 3.59-.56 6.51-2.9 8.95a3.62 3.62 0 01-3.53.88c-.52-.17-.75.24-1.11.44a4.1 4.1 0 01-3.43.57c-.9-.42-1.29-.16-2.09-.06-2.62.31-5.37.67-8-.26-.74-.27-1.39-.85-2.11.22-.43.64-1.33 0-2 .09s-1.36-1.78-1.86.14c-2.86-.59-5.72 1.05-8.69-.23a5 5 0 00-4.31.25c-2.53 1.36-5.37 1.1-8.13.65-.69-.11-.49.27-.54.55s-.45.6-.55.46c-1.29-1.72-2.9.36-3.85-.19-2.08-1.21-4 0-5.87 0a12.43 12.43 0 01-6.29-1.31c-.6-.28-1.13-.58-1.67-.88zm14.57-4a84.11 84.11 0 0011.53-1c1.16-.13 2.41.57 3.11.3 2.94-1.13 5.95-.88 8.95-1 6-.23 12 .43 17.93-.06 2.46-.2 4.24-1.58 4.26-3.83a6.34 6.34 0 01.37-2.36c.53-1.29 0-1.42-1.11-1.47-5.65-.26-11.35.48-17-.77-2.43 1.43-5.1.44-7.64.66a61.45 61.45 0 01-9.59.21 6 6 0 00-5.82 3.18c-1.23 2.37-3.5 3.77-5 6.15zM207.46 395.76c-.43.69-1 1.17-1.69.41-1.24-1.43-2.71-2.74-2.61-5 .06-1.32-.76-2.53.44-3.93a3.91 3.91 0 014.9-1.33c.06.23.27.35.4.19s-.12-.24-.27-.29c.59-.38 1.09-1.52 1.83-.09.47.9.91 0 1.34-.18s.84-.11 1 .38 0 .62-.46.75c-.81.23-1.82.06-2.11 1.28-.46 1.91-.57 3.86.64 5.4 2.24 2.83 6.33 5.54 10.66 4.42 2.2-.57 4.5-.6 6.64-1.64 2.32-1.12 4-3 4-5.23a6.64 6.64 0 00-4.28-5.49 17 17 0 01-3.69-1.29c-1.24-.72-1.21-.71-.14-1.83 1.32-1.38-.39-2.46-.73-3.42a14.64 14.64 0 01-.83-4.3c-.1-2.58.16-5.17-.46-7.74-.12-.48-.84-1.74.74-1.83.17 0 .13-.65-.16-.93a2.76 2.76 0 01-.66-2.59c.29-2.12-.51-4.14-.42-6.22 0-.69-.43-1.59.6-2a.68.68 0 00.2-.54c-1.94-2.18-.42-4.65-.47-7-.05-1.87-1-3.86-.48-5.43.94-2.9.31-6.08 2-8.81.85-1.42 1.23-3.06 2.54-4.28 1.14-1.06 2.1-.78 3.24-.35s1.15 1.2 1 2.33c-.34 2.81-1.73 5.34-1.92 8.19-.32 5.11-1.54 10.17-.38 15.37a16.8 16.8 0 01-.13 5.48 24 24 0 00.28 6.67 52.2 52.2 0 01.22 9.1c0 1.36 0 2.83.12 4.25a5.77 5.77 0 01-.24 3c2.36 1.55 5.55 1.48 8 3.33.41.31 1.48.44.46 1.28a1.93 1.93 0 00-.27.3l.61.1c2.32.35 2.9 1.79 3.17 4a9.52 9.52 0 01-4.06 9.18c-1.62 1.24-3.9 1.76-6 2.25-2.63.62-5.47.05-8 .38-4 .52-6.94-2-10.56-2.16-1.46-.06-3.54-2.58-3.37-3.62.19-.29.47-.64.09-.91s-.66.04-.73.39zM204.88 436.63c.4-.66 1 0 1.38-.39-.76-.48-1.59-2.69-2.26.09a1.3 1.3 0 01-.78 0c-.5-1.51-1.6-.32-2.37-.54a13.4 13.4 0 01-3.59-1.58c-1.66-1.06-3.67-1.14-5.51-1.58-4.72-1.12-8.57-3.78-12.66-6.15a36.4 36.4 0 01-7.06-5.54c-1.5-1.47-3.2-2.84-3.27-5.23 0-.49-.42-.65-.87-.77-3.06-.86-5.87-2.47-9-3a6.61 6.61 0 01-1.69-.82.84.84 0 01-.32-.87c2.05 0 .54-2.47 2-2.86s2.9 0 4.32-.14c4.2-.3 8.53-.22 12-3.42 1.85-1.72 4.35-1.54 6.62.1.88.63 1.89 0 2.8.35.37.16.92 0 .85.65a.67.67 0 01-.63.71.62.62 0 01-.44-.13c-.77-.46-1-.5-.64.49a1.23 1.23 0 01-.38 1.16c-2 2.3-2.91 5.37-5.52 7.17-.58.39-.75 1-.33 1.44 2.35 2.45 4.27 5.27 7.37 7.06 2 1.17 3.87 2.59 6 3.69 3.52 1.81 7.3 2 11 2.64.65.12 1.65-.45 1.73.93 0 .54.45.23.73 0a5 5 0 014-.89 20.83 20.83 0 0011.64-1.74 4.19 4.19 0 014.61.74 3.84 3.84 0 003.34 1.23c2.5-.18 1.26 1.42.94 2-1.66 2.85-3.81 5.24-7.2 6.1-4.18 1.07-8.39.7-12.55.06-1.36-.28-2.88-.15-4.26-.96zM145.65 369c0-.89 2.42.33 1.11-1.52.38-.17.79-.53 1.14-.48 3.59.52 7.34.65 10.68 1.89 1.52.57 2.36-.23 3.32-.05 3.26.6 6.21-.63 9.28-1.05 3.32-.45 6.56-.94 9.5 1.24.78.58 2.21-.76 2.6.87.35 1.43-1.39 1.41-1.7 2.37-.11.33-.07.68-.56.68-3.55 0-6.86 2.24-10.33 1.57-2.07-.39-3.62 1.27-5.63.49-.76-.29-1.75.37-2.51-.77s-2.14-.32-3-.16c-2.08.4-3.78-.43-5.45-1.14-2.9-1.17-6.01-1.94-8.45-3.94zM140 395.74h.46c.44 1.07 1.7 1.42 2.15 2.52.14.31 1.33.11.49 1-.49.51-1 1.08-1.76.5-1.27-.91-2.77-1.57-3.38-3.18.28 0 .59-.07.59-.48h.08c.12.36.1.94.65.76s1.07-.36.72-1.12z" class="cls-7"/><path d="M237.48 307.64c.22-.16.31-.75.67-.4s-.07.55-.37.7z" class="cls-4"/><path d="M519.2 162.72c1.36 2 3.56 3.28 4.73 5.6a63.14 63.14 0 014.18 11.12 14.81 14.81 0 01.38 1.85c.43 2.93.43 2.93 3.48 2.77 2-.06 4.06.53 6-.43 2.63.17 5.26.28 7.88.53a1.57 1.57 0 001.87-1.19v-.19a29.18 29.18 0 014.33-9.93c2.26-3.09 3.92-6.78 7.63-8.58a1.67 1.67 0 001.07-1.58c1.06-.55 2.14-1.07 3.18-1.67 5.07-2.93 10.7-3.52 16.27-2.89 5 .57 10.17 1 15 2.77a22.1 22.1 0 014.29 2.6 4.94 4.94 0 001.48.57c2.3 2.31 4.91 4.35 6.54 7.25a62.44 62.44 0 013.08 7.07 26.25 26.25 0 011.58 13.44c-.25 2.1-1.25 4.06-1 6.22-1.23.87-1.08 2.34-1.5 3.53-1.38 1.1-1.62 2.9-2.43 4.34a33.7 33.7 0 01-6.41 7.61 22.46 22.46 0 01-4.08 3.46 37.5 37.5 0 01-10.21 4.21c-1.89.49-3.82.14-5.73.2a26.23 26.23 0 01-10.34-1.72c-2.94-1.13-6.23-1.57-8.87-3.14a23.6 23.6 0 01-7.74-6.65c-1.1-1.59-2.59-2.9-3.49-4.66-2.28-4.44-3.84-9.07-3.4-14.15.1-1.19-.4-1-1.32-1-1.62 0-3.29.58-4.93-.42-.44-.27-1.51.5-2.29.78l-6 .15c0-.06-.07-.17-.12-.17-4.11-.67-3.93-.61-5.31 3.41a37.4 37.4 0 01-7 13 37.85 37.85 0 01-9.22 7.94c-5.43 3.18-11.37 3.63-17.67 2.85a38.83 38.83 0 01-13.25-3.62c-3.85-2-7.89-4-10.24-8a13.15 13.15 0 00-2.79-2.53c0-.37.06-.75-.4-.92a.85.85 0 01-.11-.26c-.52-3.35-2.51-6.19-3.16-9.54a27.62 27.62 0 011.17-15.22c1.72-4.69 3.78-9.18 7.24-12.81 1.29-1.36 2-3.39 4.14-3.92 1-.25.92-1.59 1.83-2 1 .26 1.71-.42 2.49-.9 5.37-3.28 11.27-4.81 17.37-3.38 5.62 1.31 11.63 1.4 16.75 4.43 1.85 1.05 4.11 1.55 5.05 3.77zm83.8 21.46c-.6-4.19-2.51-7.83-4.45-11.52-.59-1.11-1.94-1-2.18-2-.65-2.61-3-3.45-4.78-4.85a14.11 14.11 0 00-10.86-3 52.91 52.91 0 00-7.68 1.92c-.87.29-2.21 0-2.6 1.33a11.88 11.88 0 00-2.07.43c-1.3.55-1.85 1.95-3.09 2.74-1.62 1-3.65 2.35-4.32 3.87-1.17 2.66-3 4.91-3.83 7.86-1.5 5.44-2.32 10.65-.37 16.13 1.66 4.66 3.45 9.09 7.4 12.46 1 .83 2.32 1.25 3 2.39 1.3 2.21 3.86 2.69 5.82 3.6a13.15 13.15 0 009.9 0 73.58 73.58 0 008.46-3.91c3.64-1.82 6-4.78 8.07-7.77a23 23 0 003.58-15.67zm-130.92-1.94c-1.51 5.19-.1 10.21 1.87 14.8 1.38 3.24 3 6.72 6.17 9 2.57 1.85 4.53 4.31 7.79 5.48 5.31 1.9 10.27.85 15.1-.86a22.21 22.21 0 0010.73-8c3.25-4.54 6-9.22 5.44-15.19-.4-4.24.61-8.61-1.67-12.67-.86-1.51-1.87-2.94-2.59-4.54a12.33 12.33 0 00-6.53-6.76 6.8 6.8 0 00-2.06-2.24 13.93 13.93 0 00-13.18-1.4c-1.86.75-4 .65-5.61 2.1a27.38 27.38 0 00-12.85 11.65 10.5 10.5 0 00-1.42 4.91 10.46 10.46 0 00-1.19 3.72z" class="cls-6"/><path d="M581.63 393.54c.28-1.63-.88-2.91-1-4.59-.18-3.9.72-7.64 1-11.45.21-2.6 1-5.15 1.44-7.74a38.2 38.2 0 016.4-15.22c1.89-2.76 3.74-5.58 5.44-8.47 3.83-6.49 6-13.38 4.63-21.05a16 16 0 00-2-5.07c-1.4-2.38-1.09-5.11-2-7.51-1.58-4-.27-7.83.59-11.7a5.31 5.31 0 01.73-1.95c1.88-2.81 3.29-5.87 4.93-8.81s1.59-6 2.1-9.07c.78-4.69-.83-9.07-1.88-13.53-.31-1.3.56-2.74 1.25-3.7s2.14.35 3 .7c2 .84 4.22 1.23 6.16 2.3s5.19 7.37 4.86 9.66a3.07 3.07 0 00.7 2.38c1.61 2.31 1.06 5.06.7 7.61-.66 4.67-2.59 8.94-4.22 13.35-1.89 5.1-2.33 10.78 1.15 15.83a9.19 9.19 0 011.54 4.1c.19 1.68 1.69 2.7 2.08 4.34 1.48 6.2 1.8 12.43-.86 18.31a79.24 79.24 0 01-9.28 15.86c-2.49 3.24-4 7.23-6.73 10.35.46 3.74-2.85 6.4-2.83 10 0 1-.86 1.61-1.29 2.41a22.17 22.17 0 00-2.5 8c-1.84 1.38-4.24 1.2-6.21 2.38-2.33 1.42-5.24 1.51-7.9 2.28z" class="cls-8"/><path d="M617.65 379.43a24.51 24.51 0 01-.91-8.85c.3-6 2.46-11.47 4.91-16.7 2.26-4.83 4.59-9.67 6.89-14.5 1.78-3.75 3.47-7.72 3.84-11.88a30.33 30.33 0 00-.81-8.11 8 8 0 00-1.65-3.6 28.36 28.36 0 01-5.72-14.14c-.53-3.65-.17-7.45.07-11.22.36-5.5 3.58-9.86 4.28-15.06a25.47 25.47 0 00-.61-10.28c-.12-.44-.75-.87-.1-1.42.85-.73 1.46-2.21 2.89-1.08a3.49 3.49 0 002.74.79c.87-.09 1 .69 1.27 1.2 1.68 2.78 3.22 5.59 3.65 8.92a12.16 12.16 0 001.84 4.24c2.48 4.55 3.34 9.47 3.62 14.62a26.67 26.67 0 002.84 10 54.19 54.19 0 006.6 11.27 20.23 20.23 0 014 9.28 5.44 5.44 0 01-.06 2.66c-1 3.09-1.11 6.39-2.26 9.4a59.68 59.68 0 01-5.19 10.28c-.72 1.15-1 2.77-2.77 3.21-.43.11-.24 1.36-.94 2.17a36 36 0 00-4.36 6.83 5.23 5.23 0 01-1.74 2.15 6.52 6.52 0 00-2.64 4.81c-1.42.52-2.53 1.31-2.6 3-.06.2-.06.52-.19.58-3.35 1.65-5.79 4.6-9.16 6.3a36 36 0 00-6.32 4.55 1.92 1.92 0 01-1.41.58zM457 391.17c0-1.5-1.37-2.07-2.18-2.93A49.79 49.79 0 01444 370.38c-2.05-5.8-2.41-11.57-2.48-17.55a91.27 91.27 0 01.47-11.69c.39-3.42 2.24-6.2 3.74-9.13 1.94-3.81 3.88-7.53 4.64-11.87.67-3.83-1.1-7-1.6-10.49-.79-5.54-.82-11 2.65-15.9.91-1.3 1-3.18 1.93-4.47 1.7-2.4 2.72-5.28 5-7.27 1.15-1 1-2.57 1.89-3.71a45.89 45.89 0 004.6-8.21c1.14-2.33 1.07-4.92 1.89-7.29.6-1.73 1-3.63 2.54-4.9.34-.28.68-.78 1.06-.5 1.59 1.16 4.16.9 5 3.09.76 2 1.72 4.05 1.49 6.35-.26 2.75.67 5.66-.55 8.24-2.07 4.38-3.41 9.05-5.62 13.39-2.89 5.67-5.68 11.47-5 18.2a35.3 35.3 0 001.84 7.57c1.05 3.2.43 6.19-.14 9.29a36.35 36.35 0 01-4.15 11 34.06 34.06 0 00-4.12 12.47c-.4 2.91-1.06 5.79-1.23 8.76-.28 4.7.81 9.22 1.53 13.8.85 5.36 3.28 10.13 5.81 14.85.71 1.32.3 2.92 1.24 4.18 1.51 2 3 4.08 4.42 6.14.24.33.44.69.66 1a56.18 56.18 0 01-10.82-3c-1.23-.51-2.9-.03-3.69-1.56zM415.54 349.73c-.27-3.39-1.31-6.64-1.94-10-1-5.32-2-10.73-.14-15.9a48.35 48.35 0 014.74-10.15c1.43-2.18 2.91-4.32 4.48-6.42 3.12-4.16 5.67-8.71 6.63-13.91a8.56 8.56 0 00-.32-4.17c-.91-2.66-1.5-5.44-2.81-8a10.22 10.22 0 01-.34-7.79 35.36 35.36 0 017.6-13.3c2.66-3.06 5.66-5.93 7.73-9.44a26.07 26.07 0 003.83-10.13c.25-2.23 1.84-4.24 3.35-4.09a19.66 19.66 0 013.57.49c.79.24 2.23.4 1.32 2l-.2.34c3.36 1.77 2.1 4.79 1.74 7.35a33.12 33.12 0 01-2.22 8c-.81 2-2.36 3.28-3.47 5-2.13 3.21-4.9 6.07-6.54 9.49s-3.12 7.28-1.41 11.42c1 2.38 1.35 5 2.44 7.38 2.19 4.87.79 9.63-.88 14.3a42.22 42.22 0 01-3.79 7.35c-3.23 5.35-6.75 10.53-9.26 16.35-1.74 4-3.81 8-5 12.16-1.48 5.23-1.13 10.83.07 16.23.89 4 2.78 7.67 3.07 11.83.07 1.07 1.8 1.65 1.3 3.09-2-1.93-4.27-3.68-5.16-6.51a1.3 1.3 0 00-.32-.54c-3.71-3.48-5.55-8.16-8.07-12.43z" class="cls-8"/><path fill="#442787" d="M482 315c1.25-2.17 3.56-3.22 5.25-5 .6-.62.7-.53 1.2-.14 1.22 1 2.35 2 3.65 2.91a61.91 61.91 0 0012.76 6.39c6.88 2.6 13.56 6.05 20.83 7.35a42.91 42.91 0 0018.36-.37c3.11-.8 6.2-2 9.49-2.12.93 0 1.81-.77 2.73-1.14a81.69 81.69 0 008.73-3.59c3.61-2 7.44-3.78 9.87-7.42.94-1.4 5.13-.67 5.73.93.19.49-.26.75-.52 1.07a42.18 42.18 0 01-6.76 6.86c-2.83 2.16-5.27 4.93-8.3 6.75-7.39 4.42-15.32 7.42-24.14 7.34H527a24.59 24.59 0 01-7.94-1.23c-.85-.29-1.72-.76-2.67-.2a1 1 0 01-.81 0c-4.51-2.34-9.51-3.52-14-5.93-2.17-1.19-4.6-1.95-6.39-3.9a9 9 0 00-4-2.21 13.71 13.71 0 01-4.5-2.79c-1.56-1.26-3.49-1.97-4.69-3.56z"/><path d="M115.26 350.3a11.09 11.09 0 001.71 7.29q.91 4.47 1.4 9c0 .42.1 1.24 1 1 .12 0 .3.2.46.31-1.59 1.89.69 3.51.4 5.7-2.47-2.4-4.27-5-6.29-7.35a111.48 111.48 0 01-9.74-13.33c-2.48-4-5.35-7.78-7.26-12.16-1.3-3-3.31-5.63-4.69-8.58-1.86-4-4.51-7.56-6.2-11.54-1.85-4.37-4.62-8.4-5.76-13-1.47-5.87-3.37-11.65-4-17.74a109.34 109.34 0 01-1.15-14.69c.16-7.32.26-14.66 2.52-21.79a17.93 17.93 0 016.22-9c1.67-1.3 3.09-3.36 4.81-4.09 2.07-.88 3.37-2.79 5.75-3.31s4.26-2.11 6.26-3.42c1.14-.74 2.51-1.11 3.27-2.63.54-1.07 2.29-.08 3.54-.47 1.41-.44 2.91-.33 3.73-1.94.17-.35 1.26-.94 1.06.47 1-.15 2.11-.22 3.13-.47a22.86 22.86 0 015.46-.79c.44 0 1.78.78 1.34-1-.1-.4 1-.28 1.5.12s.75.57 1.11-.37a1.23 1.23 0 011.65-.55 1.27 1.27 0 01.55.55 1.44 1.44 0 002 .61 1.51 1.51 0 00.64-.66c.73-1.27 1.12-1.29 1.8 0 .24.45.51.41.83.41h4.92c.39 0 1.17.17.9-.94-.14-.58.94-.39 1.3-.19 1.07.6 1.19.19 1.93.05 1.41-.28 2.35-2.9 4.22-1 .09.1.27.21.38.18 2-.57 3.91.78 6 .16 5.77-1.74 11.05-4.51 16.45-7.09 3.73-1.79 7-4.26 10.69-6.08a139.19 139.19 0 0115-6.76 51.19 51.19 0 0114.65-3.32c6.21-.29 12.5 0 18.19 2.82 2.55 1.27 4.47 3.73 6.94 5.23 4.59 2.79 8.69 6.51 14.15 7.79a29.31 29.31 0 014.37 1.93 44.63 44.63 0 0014.46 3.25c6.91.45 13.88.92 20.68-1.16a173 173 0 0018.2-6.4c.33-.14.83-.21.94-.46.36-.8.37-2.12 1.46-.34.18.29 1.64 0 2.42-.3 4.2-1.49 8.43-2.42 12.93-1.61.94.17 2.27.72 3-.64 1.17.7 2.62.75 3.72 1.68 3.52 3 6.53 6.56 7.94 10.82a27.28 27.28 0 011.22 12.29 36.37 36.37 0 01-8.37 18.35c-4.4 5.23-9.27 10.33-15.4 13.49-5.9 3-12 5.76-18.8 6.75-6.62 1-13.32.36-19.89 1.56-5.45 1-10.87.34-16.32-.21-5.91-.6-11.54-2.34-17.32-3.4-7-1.28-14-2.72-21.16-3-6.7-.23-13.39-.93-20.1-.6-5.34.25-10.68.41-16 .41a2 2 0 00-.64 0c-2.55 1.47-5.55.86-8.23 1.76-3.8 1.29-7.58 2.7-11.46 3.69-5.75 1.47-11 3.94-16.35 6.47a101 101 0 00-10.76 6.49c-2.66 1.69-5.25 3.53-7.94 5.19-2.08 1.29-3.36 3.45-5 5.19-4.58 4.78-8.28 10.13-10 16.56a47.14 47.14 0 00-2 11.11c-.13 3.86-.59 7.73-.31 11.6.21 3.08 0 6.26 1.46 9.15.46.88-.27 2 .6 2.82zM176.53 507.44a5.08 5.08 0 01-3.07-.46c1.41-1.27 2.54-1.09 3.07.46z" class="cls-10"/><path d="M305.56 214.75c-.09.08-.19.22-.25.21a1.85 1.85 0 01-.45-.21c.12-.06.23-.16.34-.16a1.17 1.17 0 01.36.16z" class="cls-10"/><path d="M69.33 302.58c-.12.06-.23.16-.34.15a1.08 1.08 0 01-.34-.17c.11-.06.23-.16.34-.15a1.08 1.08 0 01.34.17zM111.76 410.51l-.08.13-.21-.15s.11-.12.16-.11.09.08.13.13z" class="cls-2"/><path d="M117 357.59a.52.52 0 01.08-.19h.14l-.22.2zM115.26 350.31a.35.35 0 01.08-.16h.12z" class="cls-10"/><path d="M241.93 466.9l-.19-.38.48.07z" class="cls-2"/><path d="M569.2 688c-3.92 2.32-8 4.37-12.56 5a10.35 10.35 0 00-1.81.59 71 71 0 01-20.62 3.64c-1.5 0-3-.09-4-1.39-.87-1.06-2.1-.37-3.15-.69-1.52-.46-2-.42-1.1-2.48 1.64-3.89 4.8-7 5.29-11.54.17-1.49 1.55-2.89 2-4.51.16-.54.81-.45 1.29-.36 5.15.93 10.34 1 15.16-1.06s10.06-3.07 14.38-6.25c5.1-3.74 9.24-8 8.5-15A7 7 0 00570 649c-2.19-1.64-4.36-3.31-6.6-4.87a18.37 18.37 0 00-12.94-3.35 15.37 15.37 0 00-6.24 1.93c-1 .6-1.72 1.21-1.68 2.45.06 2.2-1.51 3.65-2.6 5.27a70.52 70.52 0 00-4.21 7.55c-1 1.85-2.59 3.22-3.65 5-3.46 5.94-8 11.1-12.38 16.31a31.72 31.72 0 00-2.72 3.73c-.33.51-.75.56-1.25.76a4.25 4.25 0 011.58-3.68 4.64 4.64 0 001.77-3.45c-.07-2.32 1.64-4 2.3-6.06 2.18-6.81 3.14-13.87 4.52-20.84.85-4.27 1.44-8.59 2.28-12.86.74-3.77-.54-7.5-.09-11.25.63-5.18-.5-10.1-1.71-15.12-.61-2.53-1.63-5-1.79-7.68-.09-1.53-1.92-.93-2-1.61 0-.86 1.1-1.57.27-2.76a40.1 40.1 0 01-4.06-6.62 39.72 39.72 0 00-6.89-10.26 86.62 86.62 0 00-6.33-6.8c-4-3.58-8.82-5.06-13.75-6.5-2.29-.67-4.24-2.17-6.6-2.77-5.3-1.36-10.39-3.35-15.87-4.2-3.54-.55-7-1.71-10.57-2.48a66.86 66.86 0 00-9.86-1.19c-6.54-.4-13.1-1-19.63-.77-6.16.18-12.35-.11-18.5.67-2.94.38-5.94 0-8.92.45a69.82 69.82 0 00-11.25 2.61 137.11 137.11 0 00-13.44 4.42c-2.26 1-4.82 1.29-6.83 3-1.36 1.2-3.6 1.27-4.7 3-2.33 3.57-4.71 7.1-6.92 10.75a51 51 0 00-5.35 12.92c-.91 3.23-.73 6.7-1.8 9.94-.64 2 .28 4.44-2 5.85a.44.44 0 00-.09.38c1.73 1.39.05 3.76.94 4.76 1.59 1.78.47 3.47.76 5.15.43 2.61.45 5-2.2 6.67a5.13 5.13 0 00-2.46 3c-.28.93-1 1.3-2.44.73-2.55-1-4.76-2.55-7.18-3.69a26.72 26.72 0 01-7.55-5.14c-1.48-1.49-3.3-2.71-4.94-4.11a36.83 36.83 0 01-8.2-9.18c-2.3-3.86-4.34-7.69-5.09-12.27-.39-2.41-1.45-4.82-2.1-7.26-1.78-6.7-.29-13 1.69-19.48 1.36-4.46 3.78-8.24 6-12.16 1-1.82 2-3.67 4-4.94 1.47-1 2.22-2.23 2-4.74-.41-5.6-1-11.24-.87-16.9.08-4.27.82-8.45 1.09-12.69.12-1.86 1.17-3.61 1.86-5.36 1.58-4 3.6-7.89 5.32-11.87.8-1.88 2.52-3 3.43-4.72s1.91-3.77 3.6-4.89c2.7-1.79 4.46-4.59 7.49-6.12 1.81-.93 3.9-1.38 5.38-2.37 2.54-1.7 5.79-.64 8-2.77a.42.42 0 01.52-.09c4 1.35 8.31-.2 12.38.9.57.15.69-.23.91-.63a1.67 1.67 0 012.16-.42c2 2.08 4.86 1.83 7.26 2.5 3.36.94 4.06-.19 5.58-3.83a23.29 23.29 0 015.16-7.49c1.9-1.88 3.48-4.06 5.74-5.58 1.42-1 3.56-1.1 3.86-3.35 3-.47 5-2.77 7.75-3.81 3.89-1.48 7.72-3.1 11.58-4.66l.22-.22c1.16.43 2.21-.39 3.23-.37 8 .14 16-.49 23.61 3.16 3.09 1.48 6.47 2.38 9.51 4.12a11.67 11.67 0 012.18 1.85 50.76 50.76 0 017.29 7.86c1.06 1.54 2.92 1.15 4.44 1.48.77.17 1.56.12 2.08.84.25.36.59.79 1 .49.68-.46-.38-.5-.3-.87a.54.54 0 01.64-.44.73.73 0 01.19.07c2.14 1.2 4.09-.18 5.51-1.06 3.73-2.32 7.89-2.48 11.91-3.19a62.31 62.31 0 0122.66.11 50.9 50.9 0 0112.24 4.13 8.5 8.5 0 012.28 1.86c3.24 3.34 6.5 6.73 8.48 11a29.49 29.49 0 004 7.06 8.15 8.15 0 002.75 2c1.7.9 3.77.8 5.26 2.31.93 1 2.42.83 3.65.37 5.11-1.91 10.14-.71 14.25 1.94 4.4 2.84 9.33 5.41 12.12 10.39.67 1.18 2.4 1.87 3.06 3.19 2.78 5.53 6.83 10.34 8.56 16.51 1 3.73 3.11 7.24 3.36 11.17.38 6.12.67 12.19-1.77 18.16-1.33 3.26-2.8 6.61-3.23 10.21a1.22 1.22 0 01-.2.59c-1.57 1.93-.87 3.62.37 5.41a38.29 38.29 0 016.06 13.35c1.06 4.75 2.28 9.38 2.52 14.3s-.8 9.75-1.9 14.6c-1.67 7.32-6.27 13-9.62 19.38a2.53 2.53 0 00-.41 2.19c1.8 4.69 2.15 9.63 2.54 14.55a49.39 49.39 0 01-.27 6.2c-1.59 2.2-1.81 5-3.47 7.24-1.49 2-1.67 4.74-3.39 6.7a6.33 6.33 0 00-1.57 2c-1 2.68-1.78 5.5-5.31 5.87a1.37 1.37 0 00-1.2 1.07c-.29 1 .55.49.9.64-.26.92-1.09 1.39-1.63 2.09-1.1 1.52-3.25 1.92-4.33 3.63z" class="cls-11"/><path d="M517.2 758.12c6.17 4.82 6.55 11.06 3 17.37-2.27 4.08-5.84 6.73-9.72 9.13s-7.37 5-11.65 6.47c-6.34 2.2-12.66 4.56-19.43 4.91a53.58 53.58 0 01-12.27-.43 54.46 54.46 0 00-6.11-.73c-2.76-.14-5-1.27-7.42-2.59a34.29 34.29 0 01-9.32-8.15c-2.07-2.41-1.73-5.31.51-7.46 1.66-1.61 3.88-2.3 5.29-4.26.95 1.16.17 2 0 2.79a2.06 2.06 0 001.17 2.57c2.66 1.71 5.14 3.66 8.19 4.77 6 2.2 11.67 5.47 18.32 5.47a8.64 8.64 0 012.32.25c.67.19 1.62.42 2.09.1 2.41-1.64 5.5-.48 8-2.22 2.29-1.62 5.19-2.14 7.69-3.56a30.54 30.54 0 0010-8.36c2.48-3.39 5.38-6.47 7.54-10.11.96-1.74.91-3.91 1.8-5.96z" class="cls-10"/><path d="M569.2 688c1-1.72 3.19-2.12 4.38-3.68.54-.7 1.37-1.17 1.63-2.09.42-.07.82-.18.77-.73 0-.09-.17-.26-.22-.25-.51.11-.54.53-.59.94-.35-.15-1.19.36-.9-.64a1.37 1.37 0 011.2-1.07c3.53-.37 4.36-3.19 5.31-5.87a6.48 6.48 0 011.57-2c1.72-2 1.9-4.7 3.39-6.7 1.66-2.22 1.88-5 3.47-7.24a24.37 24.37 0 01-2.5 10.71c-1.61 3.2-3 6.84-5.58 9.53-3.48 3.65-6.93 7.43-11.93 9.09z" class="cls-2"/><path d="M474.72 787.18l-.45-.25c.11-.06.23-.19.33-.17a2.07 2.07 0 01.52.2z" class="cls-10"/><path d="M421 454l-.24-.33.46.11z" class="cls-11"/><path d="M325.54 134.12a10 10 0 01-3.15 5.08c-1.24 1.2-2.86 0-4.25-.23a6.5 6.5 0 01-3.86-2.47c-.71-.9-2.35-1.93-1.06-3.64 2.76-3.69 3.45-4.05 6-3a29.58 29.58 0 004.59 1.57c1.39.26 1.76 1.02 1.73 2.69zM370.49 133.38c-.57 3.11-3.32 6.3-7.48 4.13-.79-.42-1.64-.76-2.46-1.11s-2.59-.71-1-2.3c.28-.28 0-.47-.14-.7-1.23-1.88.24-3.22 1.23-4.31s2.48-.91 3.89-.09a6.72 6.72 0 004.17 1.33c1.41-.11 2.05 1.48 1.79 3.05zM348.33 133.12c0 1.38-2.54 5.13-3.75 5.58s-1.75-.69-2.71-.9a9.06 9.06 0 01-4.67-2.18 2.2 2.2 0 01-.36-3.07c1-1.24 1.47-3.43 3.64-3.12a25.88 25.88 0 016.81 2.06 1.54 1.54 0 011.04 1.63z" class="cls-6"/><path d="M384.2 109.19l-.2.18.18-.19z" class="cls-2"/><path d="M219.14 600c-1.19-.63-1.27-1.53-.38-2 3-1.63 3.81-5.09 6.34-7.09.44-.34 1.91-1.39 0-2.16-.46-.18-.59-.89-.62-1.5-.19-3.2 4.2-7.84 7.33-7.76a2 2 0 011.57.49 4.62 4.62 0 003.56 1.36 3.22 3.22 0 013.36 3 3.46 3.46 0 010 .56c-.17 4-1 7.25-6.38 7.92-1.75.22-3.11 2.54-4.33 4.18-2 2.73-4.48 5.18-6.38 7.89-1.48 2.1-3.57 3.68-4.74 6-.67 1.32-.56 2.38 1.14 2.45q6.81.27 13.64.31c1.05 0 1.53-1.06 2.07-1.91 1.27-2 2.83-4.14 5.5-2.92s5.61 1.39 8 3.16a3 3 0 01.92 1.63c.38 1.72-3.12 7.11-4.78 7.81-2 .84-3.5-.52-5.22-.84a11 11 0 01-2.36-.9c-2.86-1.27-5.9-.76-8.87-1a47.26 47.26 0 01-7.5-1 6.39 6.39 0 00-5.55.81c-1.68 1.11-4 2.32-6.46.9-1.37-.79-3.16-.89-4.47-1.75-2.76-1.79-3-5.2-.93-8.09s3.79-3.37 7.47-2c.52.19 1 .32 1.47-.35 1.23-1.87 2.65-3.63 3.81-5.55.65-1.06 1.21-1.92 2.79-1.65zM673.78 482.74c.11 3.52-.26 7-2.16 10-1.08 1.74-1.44 3.8-2.75 5.43a5.61 5.61 0 00-1.17 2.95 3.23 3.23 0 01-3.44 3l-.45-.06a11.84 11.84 0 01-3-.72c-4-1.66-3.92-1.67-1.53-5.13a22.63 22.63 0 004-16.76c-.13-.83-1.07-2 .4-2.79a.34.34 0 00.12-.46.35.35 0 00-.24-.17c-1.63-.19-1.55-1.72-1.63-2.6-.41-4.88-2.54-9.06-5.29-12.88-1.35-1.87-.29-3 .35-4.37.14-.31.59-.43.7-.27.84 1.28 2.28.85 3.34 1 2.47.27 3.8 2.13 5.61 3.32.18.12.41.27.45.44.83 3.16 3.58 5.11 4.92 8a22.43 22.43 0 011.79 10c-.02.65-.02 1.33-.02 2.07zM649.48 500.64c-2.29-1.38-4.85-1.8-7.2-2.83-1.1-.48-1.44-.72-.9-1.89 3.89-8.49 3.42-16.88-.73-25.14-.63-1.25-1.4-2.44-2-3.7-.28-.57-1.11-1.28-.28-1.85a3 3 0 012.45-.8 11.44 11.44 0 018.36 6c2.11 4 4.22 7.93 4.92 12.51a20.91 20.91 0 01-.33 9.44c-.69 2.21-.94 4.81-3.25 6.27-.69.35-.7 1.28-1.04 1.99zM636.2 485.52c-.41 2.25 0 5.45-1.83 8.21a4.55 4.55 0 01-5.48 2.22 11.69 11.69 0 01-2.16-.81c-3.18-1.32-3.29-1.63-1.48-4.48a8 8 0 001-3.63c.37-4.18-.16-8.22-2.59-11.74-1.1-1.59.32-2.37.79-3.35s1.46-.36 2.3-.12c1.44.4 2.59 1.75 4.3 1.29.18-.05.53.19.68.38 2.47 3.37 4.47 6.95 4.47 12.03z" class="cls-6"/><path d="M685.73 467.66l-.2.17.19-.18zM701.73 386.37c.77.6 2.47-.73 2.55 1.18 0 .5-.07 1.46-1 1.18a4.31 4.31 0 01-2.66-1.86c-.21-.32.58-.62 1.11-.5zM375.64 413.68l.2-.17-.17.19zM84 468.94l.18-.19a.24.24 0 010 .12.2.2 0 00-.15.07z" class="cls-2"/><path d="M570.1 252.62c-2.59 2-5.79 2.61-8.83 3-1.43.19-3.43 1.3-4.93-.47-.51-.61-.67.66-1.4.47-1.61-.41-3.6.82-4.84-1.18-1.42 1.3-2.58-.05-3.77-.44a33.25 33.25 0 01-13-7.48c-2.22-2.15-1.29-5.76 1.58-7.53 2.6-1.61 5.51-2.34 8.31-3.22 4-1.26 7.68-3.29 11.56-4.82s7.49-3 11.31-4.37c1.6-.56 3-1.51 4.6-2a11.91 11.91 0 017.73-.21 4.38 4.38 0 012.74 3.13A20.53 20.53 0 01580 242a21.79 21.79 0 01-8 9.58c-.61.42-1.44.39-1.86 1.06zM575 228c-.35.1-.86.1-1.13.36-2.79 2.62-6.67 3-9.93 4.75a57.7 57.7 0 01-10 4.13c-3 .93-6.12 1.87-9.08 3.07-1.83.75-3.82 1.2-5.45 2.45-.38.29-.8.4-.41.89 1.87 2.36 3.68 4.82 6.59 6 2.18.91 4.54.91 6.83 1.16a22.85 22.85 0 0014.08-2.62c3.37-1.92 6.31-4.48 7.63-8.39.31-.91 1.31-1.42 1.33-2.52.11-3 .39-6.14-.46-9.28z" class="cls-7"/><path d="M532.47 190.55l6-.15c.13 6 1.22 12-1.06 17.94-1 2.5-1.75 4.69-4.07 6.13a1.49 1.49 0 00-.47 1.12c0 1.63 3.47 3.54 4.79 2.68a.71.71 0 00.25-.53c-.08-1.51-.1-1.4 1.31-1.22 1.74.21 3.28 1.2 5.21 1.2-1.12 1.24-.92 3.47-3.19 3.72a.82.82 0 00-.62.47c-.32 1.47-1.7 1.75-2.6 2.58-1.36 1.26-2.42.85-3.89.54-4.93-1-7.37-4.77-9.76-8.57-.86-1.36 1.37-5.4 3-5.28 2.48.2 3.22-1.72 4-3.19a11.4 11.4 0 001.1-5.69c-.13-3.92-.02-7.84 0-11.75z" class="cls-3"/><path d="M570.12 252.65l.02.05-.04-.08.02.03z" class="cls-7"/><path d="M519.2 162.72c-.94-2.22-3.24-2.74-5-3.78-5.12-3-11.13-3.12-16.75-4.43-6.1-1.43-12 .1-17.37 3.38-.78.48-1.46 1.16-2.49.9-.37-2.17 1.1-3.68 2.39-4.82a59.71 59.71 0 018.47-6.08c5.06-3.07 10.35-3.21 15.66-2.11 4.89 1 9.94 2.32 13.73 5.88a16.07 16.07 0 014.58 8c.35 1.59-1.93 2.21-3.22 3.06z" class="cls-5"/><path d="M538 183.63c-1.94 1-4 .37-6 .43 0-2.13.18-4.25.39-6.38.19-1.88 1.43-3.17 1.87-4.86.21-.81 1.2-.06 1.86-.31s.64.56.68 1c.2 2.42 1 4.79.77 7.25a7.76 7.76 0 00.43 2.87z" class="cls-7"/><path d="M603 188.23a2 2 0 01-1.69.63c-1.89-.07-3.8 0-5.67-.13-1.27-.11-1.66.56-1.85 1.48a72 72 0 01-3.45 11.61c-1.43 3.63-4.15 6.08-6.73 8.56-1.66 1.6-4.43.93-6.65.1-1.68-.62-3.21-1.67-4.91-2.21-4.29-1.37-6.51-4.75-9.1-8.12-3.15-4.1-2.11-8.49-2.19-12.83 0-2.06 2.46-3.23 4.48-2.51.2.07.39.18.59.23 4 1 3.66 1.09 4.38 5s1.62 7.83 4.13 11.1a4.64 4.64 0 01.94 1.85 1.6 1.6 0 001.89 1.26c.91-.06 1.2-.49 1.51-1.39.72-2.09 2-4 2.6-6.11.93-3.49 2.48-6.79 2.93-10.41.2-1.56 3.33-4.35 4.89-4.37 2.41 0 4.83-.08 7.25 0a4.13 4.13 0 013.47 1.81c.27.41.56.41.7.3.87-.67 1.63.19 2.44.12zm-24.48 21.94c-.07-.09-.12-.24-.2-.25a1.06 1.06 0 00-.33.11c.07.08.13.2.21.22s.21-.05.32-.08zM473.27 178.49c2.35 0 4.7.17 7 0 3.27-.17 6.16 1.14 9.14 2.07 1.32.41 1.33 2 1.26 2.82-.42 5 2.81 8.65 4.58 12.82 1.09 2.56 3.3 2.87 6 1.76s3.75-3.13 4.6-5.73a60.8 60.8 0 002.09-11.11c.28-2.24 3-3.39 5.8-2.5 3.77 1.18 3.41 1.2 2.66 5.64A76.62 76.62 0 01514 195c-.85 2.59-2.82 4.3-4.59 6.14-.38.39-1.05.7-1.45 1.16-1.42 1.65-3.12 1.95-5.3 2.18-4.45.48-8-1.48-11.5-3.39-2-1.12-3.52-3.3-5-5.24a43 43 0 01-5.54-9.93 2.88 2.88 0 00-2.43-1.65c-2.38.1-4.09-1.4-6.13-2a10.5 10.5 0 011.21-3.78z" class="cls-5"/><path d="M508.39 163.47a70.63 70.63 0 01-10.78-.68h2.81c-2-.67-2-.6-4.21.14-.59.19-1.73 1-2.1-.55 0-.11-1.28-.92-1.3.52 0 .42-.57.22-.87.24a6.08 6.08 0 01-4.4-1.21c1.57-1.45 3.75-1.35 5.61-2.1a13.93 13.93 0 0113.18 1.4 6.8 6.8 0 012.06 2.24zM591.59 165.82c-2.31 1.1-4.79.62-7.19.71-4 .15-7.94 0-11.91 0-.76 0-1.32-.5-2-.47.39-1.34 1.73-1 2.6-1.33a52.91 52.91 0 017.68-1.92c3.98-.64 7.58.63 10.82 3.01z" class="cls-7"/><path d="M256.76 308.9c-.27.53-.61.89-1.27.56a1.14 1.14 0 011.09-.71z" class="cls-4"/><path d="M505 651.27c.33 1.75 0 4.08-2.18 4.5-1.9.36-3.95 1.06-6 .68a36.69 36.69 0 00-10.41-.2c-3.63.35-7.23 1.39-10.86 1.47a55 55 0 01-15.1-1.3c-.67-.18-.67.82-1.49.56-2.71-.86-5.44-1.27-8.15-2.58-3.31-1.61-3.81-4.45-5.23-7a5.22 5.22 0 01-.31-3.88c1-4.42 2.91-8.41 6.4-11.3 1.29-1.07 2.74-2.1 4.12-3.13 2.05-1.53 4.52-1.54 6.77-2 6.71-1.44 13.5-1.74 20.21.3 2.62.79 5.39.45 8.06 1.39a31 31 0 016.78 3.34c3 2 4 5.42 6.07 8.11a4.35 4.35 0 01.84 2.58c-.15 2.74.57 5.39.48 8.46zM454.2 648c.31 1.24.27 2.62.93 3.25.5.47 1.95-.25 2.91-.07 4 .75 8.12.08 12.14 0 3.67 0 7.44-.31 11.13-.4 5.13-.14 10.3.18 15.46.21 1.21 0 1.55-.36 1.46-1.41a37 37 0 00-.53-4.81c-.48-2.12-1.49-4.33-3.43-5.17a60.49 60.49 0 00-13.6-3.65c-1-.17-2.73-.49-2.6 1.75a9.59 9.59 0 01-1.05 1.94c-1.54 2.84-3.25 5.46-6 7.32-.69.48-1.47.84-2.14 1.35-1.11.86-1-.19-1.28-.71-.07-.12-.89-.09-.81.33.45 2.37-1.55 1.69-2.45 1.77-3.42.3-6.67-1-10.14-1.7z" class="cls-5"/><path d="M481 691.72c-.87 1.12-.92 2.12.46 3.25.59.49.49 1.84.69 2.8 1.54 7.65.63 14.82-3.91 21.4-1 1.45-1.2 3.35-2.73 4.61-3.81 3.13-7.59 6.41-12.51 7.51-2.5.56-5.25 1.32-7.85-.12a1.29 1.29 0 00-1-.1c-2.53 1.45-4.9-.2-7.22-.62-2.14-.39-4.59-.72-6.32-2.59-.56-.6-1.55.32-2.52-.24-3.76-2.19-7.75-4-11.5-6.22-1.24-.74-2.34-1.64-3.55-2.41-.93-.58-2-.64-1.7-2.62.54-3.26.1-3.41 3.56-4.55 4.81-1.59 9.46-3.59 14.22-5.27a113.68 113.68 0 0012.52-5.17c3.1-1.54 6.49-2.35 9.45-4.18 4.4-2.73 9.41-4 14.23-5.63 1.78-.63 3.61-1.69 5.68.15zm-51.4 26.73a58.83 58.83 0 006.19 3 43.06 43.06 0 007.53 2.78 36.62 36.62 0 0016.4.3 15.65 15.65 0 0010.21-8.25c1.28-2.4 1.85-5.23 2.63-7.91 1.06-3.69.56-7.11-.32-10.68-13.6 8.31-27.18 16.17-42.64 20.76zM414.26 695.42c5.66.14 9.68-.67 13.27-3.29 1.92-1.4 1.32-3.44 1.62-5.19.26-1.47.47-3.13-2.29-3.18-1.77 0-3.51-1.57-5.26-2.43-.35-.17-.69-.65-.32-.75 1.25-.35 1-1.66 1.73-2.34a1.39 1.39 0 011.83-.44c1.12.52 2.52.52 3.55 1.14 1.45.88 3.05.22 4.6 1 2.6 1.26 4.55 3.83 3.84 6.65a12.86 12.86 0 00-.79 4.34c0 .59-.39.88-.7 1.26a25 25 0 01-7.56 6.76 6.61 6.61 0 01-2 .46c-4.69.92-9.34.58-14.09.2a33.94 33.94 0 01-15.49-5.18c-2.32-1.44-4.84-3.51-5.25-6.81-.35-2.83-.46-5.52 1.45-8a9 9 0 002.09-3.85 1.68 1.68 0 01.46-.93c3-2.56 5.55-6.07 10.16-5.83 1 .06 1.06-.39 1.2-1.1.63-3 .1-6-.1-8.9a82.77 82.77 0 01-.13-9.58c.18-4.09-.49-8.11-.53-12.19 0-2.68.5-5.31.48-8 0-.42.08-1.15.52-.94 1 .44 2.28-.11 2.91 1.27a34.62 34.62 0 012.57 9.31c.88 5.62 1.46 11.29 2.33 16.92.66 4.22 1.78 8.46 1.19 12.82a14.25 14.25 0 01-2.8 5.82c-1.24 1.44-3.16 1.33-4.66 1.59a9.14 9.14 0 00-4.58 2.56c-3.91 3.4-4.36 7.27-1.79 11.86.45.8 1.24.58 1.72 1.08 3.38 3.47 7.76 3.89 10.82 3.89zM465.28 596.12c6.24.21 11.39 2 16.55 3.73 2.16.73 4.09 1.94 6.3 2.6a16 16 0 013.92 2.29c2.08 1.37 4 3.17 6.09 4.28s3.71 2.84 5.67 4.1c1.06.69 2 2 1.44 2.88-.84 1.19-1.29 3.41-3.26 3.2-3.81-.41-7.65-.4-11.46-.71-1.8-.14-3.69-1.68-5.6-.41-2.49-1.57-5 .92-7.49 0-2.72-1-5.51.21-8.27 0-3-.25-6.08.49-9-.54-3.36-1.19-7-1.66-9.94-3.94-.05 0-.09-.12-.15-.15-.81-.47-2.36.42-2.48-1.31a7.75 7.75 0 011.7-6.08 10.94 10.94 0 001.16-1.46 17 17 0 019.48-7.68 31 31 0 015.34-.8zm29.54 17.19a12.39 12.39 0 01-1.34-1c-3.72-3.7-8.38-6.08-13-8.22a22 22 0 00-13.65-1.83 13.77 13.77 0 00-8.36 5c-2.47 3.07-2.43 3.34 1.29 4.26a3.67 3.67 0 001.05.09 154.51 154.51 0 0118.75.82c4.99.33 9.94.88 15.26.88zm-18.35 4.06a1.23 1.23 0 001.33 0 1.16 1.16 0 00-1.33 0zM496.2 661.12c-.57 2.65-3 2.7-4.5 2.8s-1.84 1.19-3 1.26c-2.3.14-4.56.84-6.86 1-2.15.13-4.27.58-6.39.81a58.48 58.48 0 01-7.25.06c-2.39 0-4.81-.29-7.22-.24a24.3 24.3 0 01-4.17-.55c-1.86-.27-1.95-1.76-1.75-3s1.61-.73 2.53-.78a71.28 71.28 0 0110.82.64c4.87.45 9.61-.36 14.42-.42a15.07 15.07 0 005.24-.76c2.61-.94 5.38-.12 8.13-.82z" class="cls-4"/><path d="M368 659.12l.21-.22v.16h-.27z" class="cls-5"/><path d="M575.2 682.2c0-.41.08-.83.59-.94 0 0 .21.16.22.25 0 .55-.35.66-.77.73z" class="cls-11"/></g></g></g></svg>
